<svg version="1.1" id="Layer_1" xmlns="http://www.w3.org/2000/svg" xmlns:xlink="http://www.w3.org/1999/xlink" x="0px" y="0px"
	 width="100%" viewBox="0 0 91 405" enable-background="new 0 0 91 405" xml:space="preserve">
<path fill="#E8E8E8" opacity="1.000000" stroke="none" 
	d="
M79.605087,116.256210 
	C79.731567,116.194901 79.858040,116.133591 79.984512,116.072273 
	C79.929779,115.985855 79.875038,115.899445 79.820297,115.813034 
	C80.389954,118.301277 80.959618,120.789528 80.980682,123.721161 
	C78.883095,127.132362 76.666878,130.212402 81.760605,132.062897 
	C84.330254,141.633270 77.597679,148.234543 74.295517,155.977753 
	C72.933678,159.171082 70.431892,160.221909 67.934334,162.057480 
	C58.964031,168.650192 48.125355,167.356262 38.236961,169.695724 
	C33.198112,170.887848 26.827202,169.865189 21.971355,167.748917 
	C9.429552,162.282898 5.193966,151.823349 8.578039,138.288605 
	C9.395678,135.018433 9.581656,131.555344 10.688125,128.402054 
	C11.821345,125.172508 13.727567,122.214203 15.687080,119.263901 
	C17.002062,119.568893 17.925407,119.747147 19.199711,119.914062 
	C20.368662,118.952065 21.186657,118.001411 22.312433,116.880096 
	C26.114035,113.753624 31.070978,114.872375 34.357430,113.335571 
	C41.084435,110.189903 46.877354,115.468124 53.005718,113.467255 
	C53.160339,113.416763 53.671837,114.459305 53.682629,114.999741 
	C52.749241,115.384438 52.150124,115.761475 51.551003,116.138519 
	C51.771358,116.339546 52.161514,116.735458 52.187222,116.713066 
	C52.817936,116.163574 53.409962,115.569679 54.413017,114.971962 
	C58.731918,115.065598 62.728100,114.722443 66.536598,115.413551 
	C69.778336,116.001816 72.803925,117.781174 75.736633,119.194656 
	C75.608612,119.777290 75.669090,120.198837 75.729576,120.620392 
	C76.142159,120.438118 76.554741,120.255836 77.316299,120.009216 
	C78.179733,118.788025 78.694191,117.631187 79.301086,116.462013 
	C79.393532,116.449677 79.605087,116.256210 79.605087,116.256210 
M23.110115,132.638962 
	C24.075727,132.756577 25.041342,132.874176 26.689096,133.291702 
	C30.348984,135.206772 34.008869,137.121841 37.528042,138.963272 
	C40.497196,137.984879 43.932510,137.253845 46.944695,135.701660 
	C48.605164,134.846008 50.639011,132.579544 50.593002,131.004974 
	C50.504982,127.992599 49.488144,124.778091 48.012165,122.115692 
	C47.018333,120.322998 44.620953,118.267097 42.771580,118.187607 
	C37.480385,117.960175 32.075897,118.285324 26.871246,119.239861 
	C25.009527,119.581299 23.592148,122.345497 21.462746,124.534142 
	C21.975054,127.025497 22.487360,129.516846 23.110115,132.638962 
M24.538965,144.488113 
	C21.617249,143.390808 18.695532,142.293503 14.360047,140.665222 
	C13.520117,144.329376 12.755479,147.665070 12.015126,151.725143 
	C15.090045,159.053665 21.176470,161.384232 28.519516,162.099091 
	C31.958412,162.433899 35.951458,163.240555 37.283844,159.697708 
	C38.500317,156.463058 38.686073,151.989838 37.329983,148.954163 
	C36.501278,147.099075 31.904272,146.927368 28.511084,145.487228 
	C27.347654,145.327789 26.184227,145.168335 24.538965,144.488113 
M55.394512,123.753937 
	C52.809261,122.823997 52.847893,124.109352 53.607635,125.911400 
	C54.818993,128.784637 55.866730,131.758102 57.405807,134.447586 
	C58.083477,135.631790 59.797741,136.222794 61.416447,137.490860 
	C61.937256,137.653168 62.458069,137.815475 63.338306,138.604156 
	C64.887817,139.067749 66.437325,139.531342 68.079620,140.697479 
	C68.811188,141.963043 69.358978,143.398743 70.327568,144.444855 
	C71.240921,145.431320 72.597290,146.007568 73.758774,146.764267 
	C74.502373,145.582626 75.624428,144.485443 75.910881,143.201782 
	C76.509293,140.520111 76.666695,137.740051 77.481934,134.484116 
	C77.505058,129.294495 77.182037,124.030075 71.085365,122.388641 
	C67.970009,121.549896 64.490051,121.732094 61.211479,121.965904 
	C59.430172,122.092949 57.725529,123.295013 55.394512,123.753937 
M48.760868,161.106735 
	C54.079788,160.481201 59.475880,160.219482 64.692757,159.112885 
	C68.731247,158.256256 68.867714,156.283691 65.671387,153.374344 
	C64.093842,151.938431 62.558487,150.456177 60.999599,148.225861 
	C60.996456,143.358780 56.735050,144.202011 53.323265,142.994202 
	C52.548187,142.653732 51.773106,142.313278 50.822586,141.271057 
	C49.096962,141.163361 47.360340,140.913223 45.653214,141.045074 
	C45.209560,141.079346 44.858078,142.306946 44.464256,142.986435 
	C45.297688,143.315338 46.131119,143.644226 46.884377,144.711243 
	C46.964039,146.374130 47.103649,148.036880 47.107010,149.699921 
	C47.110588,151.469360 46.985123,153.239029 46.196457,155.034470 
	C43.179111,158.365234 45.417603,161.498856 45.681526,164.706543 
	C46.223221,164.745346 46.764915,164.784164 47.306610,164.822968 
	C47.536804,163.549667 47.767002,162.276352 48.760868,161.106735 
M31.107258,140.916092 
	C31.506517,140.519196 31.905777,140.122284 32.305042,139.725372 
	C29.466436,138.850952 26.627831,137.976532 23.789225,137.102112 
	C23.622377,137.621460 23.455530,138.140808 23.288683,138.660156 
	C25.653744,139.404602 28.018806,140.149048 31.107258,140.916092 
M65.730927,147.008820 
	C65.221786,146.095276 64.712654,145.181732 64.203514,144.268188 
	C63.797138,144.594559 63.390762,144.920929 62.984386,145.247284 
	C63.761139,145.987595 64.537895,146.727890 65.730927,147.008820 
M15.442928,131.406479 
	C15.220477,131.944275 14.998026,132.482056 14.775578,133.019836 
	C15.324817,133.113525 15.874056,133.207214 16.423294,133.300919 
	C16.265730,132.752914 16.108168,132.204910 15.442928,131.406479 
M19.440922,134.406433 
	C19.218254,134.943954 18.995586,135.481461 18.772919,136.018967 
	C19.322878,136.112854 19.872839,136.206741 20.422798,136.300629 
	C20.265070,135.752411 20.107342,135.204193 19.440922,134.406433 
M61.721664,140.515320 
	C61.615425,141.059769 61.509186,141.604202 61.402946,142.148651 
	C61.793751,142.156281 62.184555,142.163895 62.575359,142.171509 
	C62.480755,141.623596 62.386150,141.075684 61.721664,140.515320 
M40.464390,143.300507 
	C39.951168,142.979080 39.437950,142.657654 38.924728,142.336227 
	C38.798836,142.595123 38.672943,142.854004 38.547054,143.112900 
	C39.049160,143.308456 39.551266,143.504013 40.464390,143.300507 
M43.178478,151.492218 
	C43.584538,151.776566 43.990597,152.060913 44.396652,152.345261 
	C44.504948,151.924759 44.613239,151.504272 44.721535,151.083771 
	C44.247906,151.032867 43.774273,150.981949 43.178478,151.492218 
M71.729561,119.510437 
	C71.988251,119.264709 72.249405,119.021263 72.492035,118.760582 
	C72.498367,118.753769 72.302452,118.558716 72.200859,118.451454 
	C71.942055,118.697517 71.683258,118.943573 71.729561,119.510437 
M54.550430,138.820831 
	C54.194527,138.816147 53.838627,138.811447 53.482723,138.806747 
	C53.480785,138.954376 53.468632,139.230301 53.478386,139.231079 
	C53.832489,139.259277 54.188629,139.261841 54.550430,138.820831 
M32.558792,142.817276 
	C32.198025,142.813080 31.837076,142.805313 31.477446,142.823532 
	C31.467569,142.824036 31.461798,143.234024 31.470966,143.234726 
	C31.830017,143.262436 32.191029,143.264755 32.558792,142.817276 
M43.520550,146.273788 
	C43.270462,146.009659 43.020374,145.745544 42.770287,145.481415 
	C42.661606,145.585480 42.452301,145.773682 42.458786,145.781433 
	C42.691833,146.060120 42.945034,146.321945 43.520550,146.273788 
M15.562546,122.512589 
	C15.562546,122.512589 15.481535,122.555519 15.562546,122.512589 
z"/>
<path fill="#CDB388" opacity="1.000000" stroke="none" 
	d="
M79.508331,115.620056 
	C79.605087,116.256210 79.393532,116.449677 78.915314,116.314186 
	C75.928345,114.807365 73.419601,113.436043 70.983475,111.695740 
	C71.590660,110.114449 72.326141,108.947388 72.611862,107.679001 
	C73.021736,105.859451 73.758774,102.613197 73.208069,102.346474 
	C71.197998,101.372955 68.686523,100.999893 66.412773,101.148270 
	C64.708847,101.259460 63.087162,102.535706 61.416275,103.264374 
	C52.832520,107.007706 48.857380,105.685516 44.435127,97.612633 
	C44.198883,97.181374 44.196381,96.396980 43.884506,96.270142 
	C42.310829,95.630165 40.351109,94.305443 39.111179,94.772446 
	C34.649796,96.452782 31.617926,104.170120 32.812954,109.229752 
	C28.628195,110.264229 24.699715,111.036377 20.771233,111.808525 
	C22.971720,107.433479 25.242607,103.092140 27.357552,98.676132 
	C31.360424,90.318115 42.805447,87.228539 49.089142,93.246536 
	C50.856777,94.939415 51.178852,98.141693 52.399593,101.251984 
	C57.041481,99.579865 62.193890,97.934830 67.172646,95.870895 
	C72.126930,93.817108 79.969398,98.567139 79.961349,104.006111 
	C79.955940,107.665634 79.606895,111.324654 79.508331,115.620056 
z"/>
<path fill="#E4E4E4" opacity="1.000000" stroke="none" 
	d="
M79.916023,196.031204 
	C82.899628,205.892090 82.404854,215.708618 78.891022,225.661743 
	C78.227089,224.700500 78.130386,223.566132 78.216171,222.445755 
	C78.361397,220.549286 78.621948,218.661621 78.834015,216.770264 
	C78.485504,216.760788 78.136993,216.751312 77.788483,216.741837 
	C76.855667,219.826828 75.922852,222.911804 74.769051,226.148666 
	C74.347252,226.779510 74.146439,227.258484 73.580185,227.802277 
	C72.476501,227.945206 71.738266,228.023331 70.604706,228.068512 
	C65.417747,229.352356 60.626106,230.669144 55.463707,232.154694 
	C50.690350,232.530243 46.274940,233.034882 41.889336,232.846344 
	C38.581158,232.704117 35.311115,231.674698 31.667645,231.011520 
	C30.832998,230.973175 30.354803,230.963470 29.595894,230.933685 
	C28.940035,230.908951 28.564890,230.904297 27.964230,230.679459 
	C27.134457,229.705139 26.530197,228.951019 25.944616,227.835327 
	C26.634930,226.660004 27.306564,225.846268 28.072166,225.389526 
	C28.819746,226.150009 29.468040,226.893951 30.127794,226.904251 
	C36.749321,227.007675 43.372734,226.990616 50.344070,227.055130 
	C52.520332,227.811172 54.706722,229.536835 56.110394,229.042023 
	C60.793247,227.391312 65.972023,225.795349 69.498245,222.576309 
	C73.427330,218.989517 77.295059,214.258926 75.113998,207.719376 
	C74.680748,206.420349 75.435204,204.770889 75.377472,203.293365 
	C75.050179,194.917206 74.161217,186.725250 66.850662,180.651367 
	C66.467659,179.874054 66.216026,179.354462 65.964394,178.834854 
	C74.481537,179.887421 74.900581,188.201385 78.707550,193.818634 
	C78.967522,194.911697 79.441772,195.471451 79.916023,196.031204 
z"/>
<path fill="#CCB385" opacity="1.000000" stroke="none" 
	d="
M71.000023,228.101456 
	C71.738266,228.023331 72.476501,227.945206 73.837708,227.984955 
	C74.987587,228.434357 75.514503,228.765884 76.041428,229.097412 
	C75.182625,234.559769 75.911461,239.474075 78.375114,244.742218 
	C80.921432,250.187134 81.826721,256.487366 81.875069,262.764771 
	C81.916611,268.158813 82.606216,273.547882 83.027916,279.862701 
	C82.685524,288.112671 82.324471,295.439087 81.963417,302.765503 
	C79.334358,304.084564 83.691086,307.049316 79.648750,309.273529 
	C73.235786,312.802063 69.532333,312.815430 66.153870,305.230347 
	C66.901947,304.397522 67.483932,304.183685 68.290985,304.140686 
	C69.020004,304.864594 69.523964,305.417633 70.195030,306.291901 
	C74.165001,309.799133 75.396858,307.236816 76.539398,303.971375 
	C80.997055,291.231262 79.800507,278.305756 77.577156,265.444702 
	C76.099487,256.897064 73.886200,248.476593 72.000107,239.603027 
	C71.980949,238.150558 71.963860,237.094269 71.971916,235.624863 
	C71.664711,232.841660 71.332367,230.471558 71.000023,228.101456 
z"/>
<path fill="#CFB588" opacity="1.000000" stroke="none" 
	d="
M23.138042,291.010620 
	C21.418678,280.081940 19.051195,269.204468 18.182137,258.208588 
	C17.468916,249.184418 17.502785,240.090302 15.944573,231.132233 
	C15.736900,229.938339 14.774938,228.875641 14.250760,227.117340 
	C15.890442,226.668686 17.441647,226.854874 18.996510,227.478088 
	C19.187431,230.216614 19.261244,232.534149 19.583801,234.816528 
	C20.459555,241.013290 21.546568,247.181549 22.343544,253.387619 
	C22.891226,257.652435 22.969357,261.976501 23.483059,266.246948 
	C24.123589,271.571716 25.893091,276.926605 25.554365,282.163635 
	C25.069239,289.664124 28.755760,294.803925 32.955795,300.278503 
	C32.967178,300.522858 32.990154,301.011597 33.029526,301.353088 
	C35.043373,303.799255 37.017857,305.903900 38.864326,308.299255 
	C38.491341,309.390900 38.246361,310.191772 37.757946,311.207520 
	C37.327084,312.259277 37.139656,313.096130 36.743103,313.848053 
	C36.145840,313.529083 35.757713,313.295074 35.369579,313.061096 
	C34.934647,312.545990 34.499722,312.030884 34.051147,310.895325 
	C33.632412,309.264587 33.227318,308.254272 32.822224,307.243958 
	C32.690304,307.024811 32.558388,306.805634 32.122490,306.077911 
	C31.658836,305.331482 31.452038,305.146240 31.198107,305.013611 
	C31.198107,305.013611 31.017115,304.601562 30.867468,304.135681 
	C30.423800,303.471436 30.129778,303.273071 29.835754,303.074677 
	C29.835754,303.074677 29.920513,303.061951 29.932222,302.722107 
	C27.675301,298.591736 25.406672,294.801178 23.138042,291.010620 
z"/>
<path fill="#BFBEBE" opacity="1.000000" stroke="none" 
	d="
M20.453373,111.932343 
	C24.699715,111.036377 28.628195,110.264229 33.163994,109.197830 
	C35.157284,108.621674 36.543251,108.339752 38.170311,108.291122 
	C39.631798,108.370758 40.852203,108.217094 42.457417,108.076591 
	C44.872246,108.397285 46.902264,108.704811 49.101715,109.217972 
	C49.868847,109.301361 50.466545,109.179100 51.496117,109.061798 
	C54.227272,109.076515 56.526546,109.086273 58.937729,109.417519 
	C60.392635,109.850632 61.735634,109.962242 63.408356,110.115143 
	C64.805710,110.429482 65.873344,110.702538 67.135605,111.216080 
	C67.911995,111.611847 68.493774,111.767151 69.381638,111.950676 
	C70.095436,112.007507 70.503151,112.036110 70.910858,112.064713 
	C73.419601,113.436043 75.928345,114.807365 78.822876,116.326523 
	C78.694191,117.631187 78.179733,118.788025 77.207199,119.777870 
	C76.474464,119.418434 76.199799,119.226006 75.925140,119.033569 
	C72.803925,117.781174 69.778336,116.001816 66.536598,115.413551 
	C62.728100,114.722443 58.731918,115.065598 54.408440,114.980240 
	C53.999744,115.000282 54.016895,114.992081 54.016895,114.992081 
	C53.671837,114.459305 53.160339,113.416763 53.005718,113.467255 
	C46.877354,115.468124 41.084435,110.189903 34.357430,113.335571 
	C31.070978,114.872375 26.114035,113.753624 21.977970,116.910042 
	C20.506737,118.048897 19.677744,118.987152 18.848753,119.925400 
	C17.925407,119.747147 17.002062,119.568893 16.017126,119.096710 
	C17.348862,116.553909 18.742188,114.305038 20.453373,111.932343 
z"/>
<path fill="#D1B88D" opacity="1.000000" stroke="none" 
	d="
M68.065918,303.969849 
	C67.483932,304.183685 66.901947,304.397522 66.133804,304.867065 
	C63.038685,304.610352 62.164131,302.449860 62.035717,299.942719 
	C61.590218,291.244751 59.988720,282.920593 55.710682,275.146759 
	C53.971458,271.986359 53.214211,268.285522 52.010174,264.830566 
	C51.450542,264.865356 50.890915,264.900116 50.331284,264.934875 
	C50.080048,266.457245 49.828808,267.979614 49.195427,269.397430 
	C44.483421,266.379700 45.647022,262.485229 47.328323,258.877472 
	C48.496872,256.369995 50.498779,256.265717 52.311298,258.676361 
	C53.444981,260.184143 54.717449,261.587585 55.987659,263.373108 
	C56.375927,264.790863 56.704178,265.873291 57.066315,267.271057 
	C57.702629,268.071503 58.305050,268.556671 58.980694,269.412170 
	C62.057919,281.178284 65.061920,292.574066 68.065918,303.969849 
z"/>
<path fill="#DFC696" opacity="1.000000" stroke="none" 
	d="
M55.927643,263.037842 
	C54.717449,261.587585 53.444981,260.184143 52.311298,258.676361 
	C50.498779,256.265717 48.496872,256.369995 47.328323,258.877472 
	C45.647022,262.485229 44.483421,266.379700 48.909233,269.648804 
	C49.121696,271.027405 49.238213,272.050110 49.032196,273.627991 
	C48.813694,275.125763 48.917721,276.068329 49.021751,277.010925 
	C49.021751,277.010925 49.000610,277.001221 48.637688,277.018341 
	C47.668392,277.612061 46.531532,278.193939 46.537235,278.764404 
	C46.598106,284.854523 46.839954,290.942871 47.030739,297.402283 
	C47.032482,298.514099 47.035595,299.255280 46.775658,300.232605 
	C45.686237,304.658020 43.216251,307.207977 38.992340,308.008545 
	C37.017857,305.903900 35.043373,303.799255 33.390251,301.397339 
	C34.289459,301.408447 34.911591,301.655334 35.438210,302.034790 
	C40.085526,305.383209 43.111500,304.517975 43.674335,299.028229 
	C44.324188,292.689758 44.136509,286.257751 44.169624,279.865662 
	C44.209118,272.242706 43.835831,264.604706 44.251396,257.006592 
	C44.344448,255.305222 46.720310,253.048126 48.531895,252.393280 
	C49.515411,252.037766 51.970764,254.232407 52.961899,255.786987 
	C54.343189,257.953552 54.975040,260.597961 55.927643,263.037842 
z"/>
<path fill="#CEA67B" opacity="1.000000" stroke="none" 
	d="
M47.038712,299.996490 
	C47.035595,299.255280 47.032482,298.514099 47.435974,297.371948 
	C48.560883,295.732605 49.742767,294.550568 49.901440,293.244232 
	C50.236580,290.485046 50.036701,287.660828 50.056301,284.863312 
	C50.710175,285.909210 51.944248,286.966064 51.924702,287.999207 
	C51.787800,295.237122 51.462818,302.474182 51.053047,309.703308 
	C50.798965,314.185730 46.208317,314.849396 43.651077,317.229370 
	C42.927132,317.903107 40.108582,316.326294 38.014954,315.238220 
	C37.623333,314.390686 37.382736,314.186157 37.030869,314.044403 
	C37.004276,314.007538 36.952229,313.933014 36.952232,313.933014 
	C37.139656,313.096130 37.327084,312.259277 38.063221,311.343628 
	C44.390366,311.265442 48.325829,306.002899 47.038712,299.996490 
z"/>
<path fill="#E4E4E4" opacity="1.000000" stroke="none" 
	d="
M7.946550,210.156006 
	C3.585060,204.144531 2.305217,197.459442 4.296906,190.382965 
	C4.759086,188.740845 6.906632,187.573059 8.652990,186.336426 
	C9.353722,186.991058 9.680137,187.496277 10.001009,188.332733 
	C9.990068,189.105652 9.984670,189.547348 9.617102,190.085938 
	C9.141293,192.805084 9.027654,195.427368 8.585432,198.112030 
	C7.929299,199.435135 7.601750,200.695831 7.274201,201.956528 
	C7.751063,202.029037 8.227925,202.101562 8.704787,202.174072 
	C8.798168,201.124023 8.891550,200.073975 9.240597,199.131622 
	C9.985005,199.499390 10.473748,199.759445 11.023893,200.409698 
	C11.076892,203.530380 11.068489,206.260849 10.802222,208.783173 
	C9.953896,207.365005 9.363433,206.154984 8.772970,204.944962 
	C8.497497,205.001419 8.222024,205.057861 7.946550,205.114319 
	C7.946550,206.794876 7.946550,208.475449 7.946550,210.156006 
z"/>
<path fill="#E7E7E7" opacity="1.000000" stroke="none" 
	d="
M13.874970,180.953110 
	C20.007563,180.224411 26.140152,179.495712 32.408722,179.155060 
	C31.823324,180.004181 31.101944,180.465225 29.459820,181.514740 
	C32.702042,182.162033 34.853977,182.591644 36.943157,183.347931 
	C35.253284,184.783066 33.626163,185.891541 31.692577,186.828796 
	C30.618404,185.410690 30.076067,183.906830 29.024033,182.984161 
	C27.801048,181.911545 26.140482,180.798767 24.652084,180.774094 
	C23.786949,180.759750 22.886988,182.846313 21.600458,184.002686 
	C18.797306,184.337753 16.396391,184.657684 14.032692,184.654144 
	C14.004930,183.204803 13.939950,182.078964 13.874970,180.953110 
z"/>
<path fill="#D8D8D6" opacity="1.000000" stroke="none" 
	d="
M7.959786,210.377411 
	C7.946550,208.475449 7.946550,206.794876 7.946550,205.114319 
	C8.222024,205.057861 8.497497,205.001419 8.772970,204.944962 
	C9.363433,206.154984 9.953896,207.365005 10.801691,209.018921 
	C11.059025,209.462830 11.059687,209.933929 11.086498,210.322784 
	C12.458790,217.299515 14.593485,223.404312 20.676617,226.912079 
	C19.890888,226.972275 19.441870,227.006668 18.992851,227.041061 
	C17.441647,226.854874 15.890442,226.668686 14.122040,226.764267 
	C12.598084,224.259918 11.291326,221.473801 10.259092,218.094910 
	C9.954387,216.343719 9.375156,215.185318 8.795926,214.026901 
	C8.598219,213.582672 8.400514,213.138428 8.328167,212.223541 
	C8.608649,211.417343 8.498435,211.171829 8.122881,211.016327 
	C8.122881,211.016327 7.973022,210.598816 7.959786,210.377411 
z"/>
<path fill="#D2D2D2" opacity="1.000000" stroke="none" 
	d="
M50.983009,179.147324 
	C54.032425,178.770584 57.081841,178.393860 60.565773,178.440628 
	C60.999382,179.561829 60.998478,180.259537 60.640778,181.035919 
	C57.190159,182.058990 54.096336,183.003372 50.837486,183.747711 
	C50.117188,183.726120 49.561909,183.904602 48.639252,184.078873 
	C47.539410,184.097122 46.806957,184.119583 45.850090,183.918579 
	C46.114334,183.128922 46.533016,182.475830 47.106007,182.014343 
	C48.356716,181.006989 49.685890,180.097061 50.983009,179.147324 
z"/>
<path fill="#D5BA88" opacity="1.000000" stroke="none" 
	d="
M50.032867,284.494812 
	C50.036701,287.660828 50.236580,290.485046 49.901440,293.244232 
	C49.742767,294.550568 48.560883,295.732605 47.437344,297.001343 
	C46.839954,290.942871 46.598106,284.854523 46.537235,278.764404 
	C46.531532,278.193939 47.668392,277.612061 48.645912,277.027283 
	C49.347851,279.388184 49.678642,281.757263 50.032867,284.494812 
z"/>
<path fill="#E7E7E7" opacity="1.000000" stroke="none" 
	d="
M50.582329,179.082443 
	C49.685890,180.097061 48.356716,181.006989 47.106007,182.014343 
	C46.533016,182.475830 46.114334,183.128922 45.756027,184.234375 
	C44.932873,185.194107 43.979370,185.614578 42.845131,185.796982 
	C42.111732,185.373642 41.559071,185.188400 41.005104,184.669189 
	C41.002632,183.889954 41.001469,183.444672 41.236294,182.794312 
	C40.978966,181.387054 40.485645,180.184875 39.992325,178.982712 
	C43.388771,178.994339 46.785210,179.005951 50.582329,179.082443 
z"/>
<path fill="#D2D2D2" opacity="1.000000" stroke="none" 
	d="
M39.553055,178.964783 
	C40.485645,180.184875 40.978966,181.387054 40.836769,182.789307 
	C39.136139,183.000015 38.071026,183.010651 37.005913,183.021271 
	C34.853977,182.591644 32.702042,182.162033 29.459820,181.514740 
	C31.101944,180.465225 31.823324,180.004181 32.753372,179.312103 
	C35.012619,179.036346 37.063206,178.991608 39.553055,178.964783 
z"/>
<path fill="#B8AB97" opacity="1.000000" stroke="none" 
	d="
M82.309929,302.581970 
	C82.324471,295.439087 82.685524,288.112671 83.063423,280.314270 
	C83.587708,283.189392 84.585915,286.552338 84.478714,289.879669 
	C84.343773,294.067810 83.305145,298.226837 82.309929,302.581970 
z"/>
<path fill="#CEB790" opacity="1.000000" stroke="none" 
	d="
M22.995312,291.371094 
	C25.406672,294.801178 27.675301,298.591736 29.919178,302.762939 
	C27.547144,299.339600 25.199865,295.535583 22.995312,291.371094 
z"/>
<path fill="#CFCFCF" opacity="1.000000" stroke="none" 
	d="
M74.990036,225.996796 
	C75.922852,222.911804 76.855667,219.826828 77.788483,216.741837 
	C78.136993,216.751312 78.485504,216.760788 78.834015,216.770264 
	C78.621948,218.661621 78.361397,220.549286 78.216171,222.445755 
	C78.130386,223.566132 78.227089,224.700500 78.559555,225.905151 
	C78.198639,226.406494 77.519890,226.831253 76.385483,227.061569 
	C75.616554,226.577011 75.303299,226.286896 74.990036,225.996796 
z"/>
<path fill="#E4E4E4" opacity="1.000000" stroke="none" 
	d="
M13.571470,181.074371 
	C13.939950,182.078964 14.004930,183.204803 13.755051,184.803223 
	C12.295645,186.184372 11.151097,187.092941 10.006552,188.001495 
	C9.680137,187.496277 9.353722,186.991058 8.989980,186.175812 
	C10.391092,184.309067 11.829531,182.752335 13.571470,181.074371 
z"/>
<path fill="#E4E4E4" opacity="1.000000" stroke="none" 
	d="
M81.861893,131.664001 
	C76.666878,130.212402 78.883095,127.132362 80.820831,124.085663 
	C81.460785,126.426224 81.711975,128.845673 81.861893,131.664001 
z"/>
<path fill="#D4D4D3" opacity="1.000000" stroke="none" 
	d="
M60.997574,180.957230 
	C60.998478,180.259537 60.999382,179.561829 61.000671,178.515289 
	C62.447727,178.256149 63.894405,178.345840 65.652740,178.635193 
	C66.216026,179.354462 66.467659,179.874054 66.424423,180.663940 
	C64.418892,180.941895 62.708233,180.949570 60.997574,180.957230 
z"/>
<path fill="#CEA67B" opacity="1.000000" stroke="none" 
	d="
M32.702324,307.541168 
	C33.227318,308.254272 33.632412,309.264587 34.026348,310.558685 
	C33.537601,309.841095 33.060013,308.839752 32.702324,307.541168 
z"/>
<path fill="#E4E4E4" opacity="1.000000" stroke="none" 
	d="
M8.751246,214.330688 
	C9.375156,215.185318 9.954387,216.343719 10.371258,217.708939 
	C9.708120,216.821991 9.207343,215.728241 8.751246,214.330688 
z"/>
<path fill="#D4D4D3" opacity="1.000000" stroke="none" 
	d="
M74.769058,226.148666 
	C75.303299,226.286896 75.616554,226.577011 76.084084,227.150757 
	C76.308624,227.830994 76.378891,228.227585 76.245285,228.860779 
	C75.514503,228.765884 74.987587,228.434357 74.203148,227.920135 
	C74.146439,227.258484 74.347252,226.779510 74.769058,226.148666 
z"/>
<path fill="#D5BA88" opacity="1.000000" stroke="none" 
	d="
M49.303589,276.847717 
	C48.917721,276.068329 48.813694,275.125763 48.965996,274.010803 
	C49.343361,274.787140 49.464394,275.735809 49.303589,276.847717 
z"/>
<path fill="#CFCFCF" opacity="1.000000" stroke="none" 
	d="
M79.843704,195.740173 
	C79.441772,195.471451 78.967522,194.911697 78.720329,194.184448 
	C79.222054,194.494339 79.496719,194.971741 79.843704,195.740173 
z"/>
<path fill="#CEA67B" opacity="1.000000" stroke="none" 
	d="
M35.388420,313.337952 
	C35.757713,313.295074 36.145840,313.529083 36.743099,313.848053 
	C36.952229,313.933014 37.004276,314.007538 37.025997,314.194031 
	C37.047718,314.380524 37.030041,314.681519 37.030037,314.681519 
	C36.489109,314.325958 35.948181,313.970398 35.388420,313.337952 
z"/>
<path fill="#E4E4E4" opacity="1.000000" stroke="none" 
	d="
M8.064713,211.259430 
	C8.498435,211.171829 8.608649,211.417343 8.329195,211.857178 
	C8.204864,211.961441 8.006545,211.502533 8.064713,211.259430 
z"/>
<path fill="#CEB790" opacity="1.000000" stroke="none" 
	d="
M29.938332,303.330383 
	C30.129778,303.273071 30.423800,303.471436 30.835587,303.912964 
	C30.649204,303.966095 30.345057,303.776093 29.938332,303.330383 
z"/>
<path fill="#CEB790" opacity="1.000000" stroke="none" 
	d="
M31.174978,305.265381 
	C31.452038,305.146240 31.658836,305.331482 31.912085,305.757050 
	C31.721064,305.802216 31.436457,305.659668 31.174978,305.265381 
z"/>
<path fill="#CFB588" opacity="1.000000" stroke="none" 
	d="
M37.246578,314.831299 
	C37.030041,314.681519 37.047718,314.380524 37.052589,314.230896 
	C37.382736,314.186157 37.623333,314.390686 37.871407,314.919861 
	C37.796745,315.090302 37.629929,315.035675 37.246578,314.831299 
z"/>
<path fill="#F9F9F9" opacity="1.000000" stroke="none" 
	d="
M21.971956,124.003891 
	C23.592148,122.345497 25.009527,119.581299 26.871246,119.239861 
	C32.075897,118.285324 37.480385,117.960175 42.771580,118.187607 
	C44.620953,118.267097 47.018333,120.322998 48.012165,122.115692 
	C49.488144,124.778091 50.504982,127.992599 50.593002,131.004974 
	C50.639011,132.579544 48.605164,134.846008 46.944695,135.701660 
	C43.932510,137.253845 40.497196,137.984879 37.528042,138.963272 
	C34.008869,137.121841 30.348984,135.206772 26.226368,132.933273 
	C25.561558,132.314957 25.310087,132.118179 25.006763,131.576874 
	C23.993515,128.780777 22.982735,126.392326 21.971956,124.003891 
z"/>
<path fill="#F8F8F8" opacity="1.000000" stroke="none" 
	d="
M28.999699,145.999603 
	C31.904272,146.927368 36.501278,147.099075 37.329983,148.954163 
	C38.686073,151.989838 38.500317,156.463058 37.283844,159.697708 
	C35.951458,163.240555 31.958412,162.433899 28.519516,162.099091 
	C21.176470,161.384232 15.090045,159.053665 12.270115,151.152008 
	C14.265264,146.577148 16.625690,143.912643 21.551052,145.926926 
	C22.538847,146.330887 23.826099,146.002609 25.033621,146.312408 
	C26.394541,146.408447 27.697121,146.204025 28.999699,145.999603 
z"/>
<path fill="#F6F6F6" opacity="1.000000" stroke="none" 
	d="
M61.004044,148.994904 
	C62.558487,150.456177 64.093842,151.938431 65.671387,153.374344 
	C68.867714,156.283691 68.731247,158.256256 64.692757,159.112885 
	C59.475880,160.219482 54.079788,160.481201 48.242561,160.770660 
	C47.454838,158.625931 47.185421,156.817276 46.916004,155.008606 
	C46.985123,153.239029 47.110588,151.469360 47.107010,149.699921 
	C47.103649,148.036880 46.964039,146.374130 47.197338,144.145325 
	C48.672878,143.043884 49.835453,142.508347 50.998032,141.972809 
	C51.773106,142.313278 52.548187,142.653732 53.705639,143.341675 
	C56.393356,145.457748 58.698700,147.226318 61.004044,148.994904 
z"/>
<path fill="#F6F6F6" opacity="1.000000" stroke="none" 
	d="
M62.978882,137.977768 
	C62.458069,137.815475 61.937256,137.653168 61.170864,136.907349 
	C59.918331,132.891266 58.911385,129.458679 58.207413,125.805344 
	C60.472385,125.155533 62.574913,124.048897 64.370674,124.421341 
	C70.340744,125.659561 74.785858,129.095963 77.005264,135.000397 
	C76.666695,137.740051 76.509293,140.520111 75.910881,143.201782 
	C75.624428,144.485443 74.502373,145.582626 73.758774,146.764267 
	C72.597290,146.007568 71.240921,145.431320 70.327568,144.444855 
	C69.358978,143.398743 68.811188,141.963043 68.247215,140.108948 
	C66.602837,139.006195 64.790855,138.491989 62.978882,137.977768 
z"/>
<path fill="#F0F0F0" opacity="1.000000" stroke="none" 
	d="
M77.243599,134.742249 
	C74.785858,129.095963 70.340744,125.659561 64.370674,124.421341 
	C62.574913,124.048897 60.472385,125.155533 57.904236,125.748764 
	C56.860828,125.279350 56.423569,124.645767 55.986305,124.012177 
	C57.725529,123.295013 59.430172,122.092949 61.211479,121.965904 
	C64.490051,121.732094 67.970009,121.549896 71.085365,122.388641 
	C77.182037,124.030075 77.505058,129.294495 77.243599,134.742249 
z"/>
<path fill="#F1F1F1" opacity="1.000000" stroke="none" 
	d="
M24.975279,146.011932 
	C23.826099,146.002609 22.538847,146.330887 21.551052,145.926926 
	C16.625690,143.912643 14.265264,146.577148 12.257973,150.789810 
	C12.755479,147.665070 13.520117,144.329376 14.360047,140.665222 
	C18.695532,142.293503 21.617249,143.390808 24.769167,144.999252 
	C24.991339,145.677567 24.983309,145.844742 24.975279,146.011932 
z"/>
<path fill="#DCDCDC" opacity="1.000000" stroke="none" 
	d="
M55.690411,123.883057 
	C56.423569,124.645767 56.860828,125.279350 57.601265,125.969513 
	C58.911385,129.458679 59.918331,132.891266 60.983326,136.703491 
	C59.797741,136.222794 58.083477,135.631790 57.405807,134.447586 
	C55.866730,131.758102 54.818993,128.784637 53.607635,125.911400 
	C52.847893,124.109352 52.809261,122.823997 55.690411,123.883057 
z"/>
<path fill="#F1F1F1" opacity="1.000000" stroke="none" 
	d="
M21.717350,124.269012 
	C22.982735,126.392326 23.993515,128.780777 24.671715,131.581116 
	C23.892647,131.998093 23.446156,132.003143 22.999666,132.008209 
	C22.487360,129.516846 21.975054,127.025497 21.717350,124.269012 
z"/>
<path fill="#DDDDDD" opacity="1.000000" stroke="none" 
	d="
M46.556229,155.021545 
	C47.185421,156.817276 47.454838,158.625931 47.860725,160.718826 
	C47.767002,162.276352 47.536804,163.549667 47.306610,164.822968 
	C46.764915,164.784164 46.223221,164.745346 45.681526,164.706543 
	C45.417603,161.498856 43.179111,158.365234 46.556229,155.021545 
z"/>
<path fill="#EEEEEE" opacity="1.000000" stroke="none" 
	d="
M61.001823,148.610382 
	C58.698700,147.226318 56.393356,145.457748 54.042152,143.346283 
	C56.735050,144.202011 60.996456,143.358780 61.001823,148.610382 
z"/>
<path fill="#DDDDDD" opacity="1.000000" stroke="none" 
	d="
M30.745564,140.904785 
	C28.018806,140.149048 25.653744,139.404602 23.288683,138.660156 
	C23.455530,138.140808 23.622377,137.621460 23.789225,137.102112 
	C26.627831,137.976532 29.466436,138.850952 32.305038,139.725372 
	C31.905777,140.122284 31.506517,140.519196 30.745564,140.904785 
z"/>
<path fill="#DDDDDD" opacity="1.000000" stroke="none" 
	d="
M50.910309,141.621933 
	C49.835453,142.508347 48.672878,143.043884 47.237427,143.776276 
	C46.131119,143.644226 45.297688,143.315338 44.464256,142.986435 
	C44.858078,142.306946 45.209560,141.079346 45.653214,141.045074 
	C47.360340,140.913223 49.096962,141.163361 50.910309,141.621933 
z"/>
<path fill="#E4E4E4" opacity="1.000000" stroke="none" 
	d="
M63.158592,138.290955 
	C64.790855,138.491989 66.602837,139.006195 68.200821,139.757660 
	C66.437325,139.531342 64.887817,139.067749 63.158592,138.290955 
z"/>
<path fill="#E4E4E4" opacity="1.000000" stroke="none" 
	d="
M25.033621,146.312408 
	C24.983309,145.844742 24.991339,145.677567 25.010082,145.259644 
	C26.184227,145.168335 27.347654,145.327789 28.755392,145.743408 
	C27.697121,146.204025 26.394541,146.408447 25.033621,146.312408 
z"/>
<path fill="#DCDCDC" opacity="1.000000" stroke="none" 
	d="
M65.522789,147.238510 
	C64.537895,146.727890 63.761139,145.987595 62.984386,145.247284 
	C63.390762,144.920929 63.797138,144.594559 64.203514,144.268188 
	C64.712654,145.181732 65.221786,146.095276 65.522789,147.238510 
z"/>
<path fill="#E4E4E4" opacity="1.000000" stroke="none" 
	d="
M19.199711,119.914062 
	C19.677744,118.987152 20.506737,118.048897 21.670189,117.080704 
	C21.186657,118.001411 20.368662,118.952065 19.199711,119.914062 
z"/>
<path fill="#DDDDDD" opacity="1.000000" stroke="none" 
	d="
M15.696766,131.531693 
	C16.108168,132.204910 16.265730,132.752914 16.423294,133.300903 
	C15.874056,133.207214 15.324817,133.113525 14.775576,133.019836 
	C14.998026,132.482056 15.220477,131.944275 15.696766,131.531693 
z"/>
<path fill="#DDDDDD" opacity="1.000000" stroke="none" 
	d="
M19.695267,134.531204 
	C20.107342,135.204193 20.265070,135.752411 20.422798,136.300629 
	C19.872839,136.206741 19.322878,136.112854 18.772919,136.018982 
	C18.995586,135.481461 19.218254,134.943954 19.695267,134.531204 
z"/>
<path fill="#DCDCDC" opacity="1.000000" stroke="none" 
	d="
M62.006607,140.521545 
	C62.386150,141.075684 62.480755,141.623596 62.575359,142.171509 
	C62.184555,142.163895 61.793751,142.156281 61.402946,142.148651 
	C61.509186,141.604202 61.615425,141.059769 62.006607,140.521545 
z"/>
<path fill="#E4E4E4" opacity="1.000000" stroke="none" 
	d="
M54.004326,114.992004 
	C53.409962,115.569679 52.817936,116.163574 52.187222,116.713066 
	C52.161514,116.735458 51.771358,116.339546 51.551003,116.138519 
	C52.150124,115.761475 52.749241,115.384438 53.682629,114.999741 
	C54.016895,114.992081 53.999744,115.000282 54.004326,114.992004 
z"/>
<path fill="#E4E4E4" opacity="1.000000" stroke="none" 
	d="
M23.054890,132.323578 
	C23.446156,132.003143 23.892647,131.998093 24.674183,131.988770 
	C25.310087,132.118179 25.561558,132.314957 25.885296,132.783310 
	C25.041342,132.874176 24.075727,132.756577 23.054890,132.323578 
z"/>
<path fill="#DDDDDD" opacity="1.000000" stroke="none" 
	d="
M40.258881,143.500031 
	C39.551266,143.504013 39.049160,143.308456 38.547050,143.112900 
	C38.672943,142.854004 38.798836,142.595123 38.924728,142.336227 
	C39.437950,142.657654 39.951168,142.979080 40.258881,143.500031 
z"/>
<path fill="#DDDDDD" opacity="1.000000" stroke="none" 
	d="
M43.239563,151.211624 
	C43.774273,150.981949 44.247906,151.032867 44.721535,151.083771 
	C44.613239,151.504272 44.504948,151.924759 44.396652,152.345261 
	C43.990597,152.060913 43.584538,151.776566 43.239563,151.211624 
z"/>
<path fill="#E4E4E4" opacity="1.000000" stroke="none" 
	d="
M71.577011,119.350037 
	C71.683258,118.943573 71.942055,118.697517 72.200859,118.451454 
	C72.302452,118.558716 72.498367,118.753769 72.492035,118.760582 
	C72.249405,119.021263 71.988251,119.264709 71.577011,119.350037 
z"/>
<path fill="#E4E4E4" opacity="1.000000" stroke="none" 
	d="
M75.736633,119.194656 
	C76.199799,119.226006 76.474464,119.418434 76.858223,119.842209 
	C76.554741,120.255836 76.142159,120.438118 75.729576,120.620392 
	C75.669090,120.198837 75.608612,119.777290 75.736633,119.194656 
z"/>
<path fill="#E7E7E7" opacity="1.000000" stroke="none" 
	d="
M54.547462,139.044403 
	C54.188629,139.261841 53.832489,139.259277 53.478386,139.231079 
	C53.468632,139.230301 53.480785,138.954376 53.482723,138.806747 
	C53.838627,138.811447 54.194527,138.816147 54.547462,139.044403 
z"/>
<path fill="#DDDDDD" opacity="1.000000" stroke="none" 
	d="
M32.555290,143.043823 
	C32.191029,143.264755 31.830017,143.262436 31.470966,143.234726 
	C31.461798,143.234024 31.467569,142.824036 31.477446,142.823532 
	C31.837076,142.805313 32.198025,142.813080 32.555290,143.043823 
z"/>
<path fill="#DDDDDD" opacity="1.000000" stroke="none" 
	d="
M43.357986,146.429962 
	C42.945034,146.321945 42.691833,146.060120 42.458786,145.781433 
	C42.452301,145.773682 42.661606,145.585480 42.770287,145.481415 
	C43.020374,145.745544 43.270462,146.009659 43.357986,146.429962 
z"/>
<path fill="#E4E4E4" opacity="1.000000" stroke="none" 
	d="
M15.522040,122.534058 
	C15.481535,122.555519 15.562546,122.512589 15.522040,122.534058 
z"/>
<path fill="#DDBD85" opacity="1.000000" stroke="none" 
	d="
M37.929222,108.057831 
	C36.543251,108.339752 35.157284,108.621674 33.420273,108.935501 
	C31.617926,104.170120 34.649796,96.452782 39.111179,94.772446 
	C40.351109,94.305443 42.310829,95.630165 43.884506,96.270142 
	C44.196381,96.396980 44.198883,97.181374 44.435127,97.612633 
	C48.857380,105.685516 52.832520,107.007706 61.416275,103.264374 
	C63.087162,102.535706 64.708847,101.259460 66.412773,101.148270 
	C68.686523,100.999893 71.197998,101.372955 73.208069,102.346474 
	C73.758774,102.613197 73.021736,105.859451 72.611862,107.679001 
	C72.326141,108.947388 71.590660,110.114449 70.983475,111.695740 
	C70.503151,112.036110 70.095436,112.007507 69.319908,111.676025 
	C68.281715,111.240639 67.611351,111.108116 66.940979,110.975601 
	C65.873344,110.702538 64.805710,110.429482 63.144928,109.843872 
	C61.309792,109.386223 60.067806,109.241119 58.825821,109.096024 
	C56.526546,109.086273 54.227272,109.076515 51.329605,108.843941 
	C50.131565,108.751526 49.531921,108.881935 48.932278,109.012344 
	C46.902264,108.704811 44.872246,108.397285 42.223667,107.822601 
	C40.379810,107.722908 39.154518,107.890373 37.929222,108.057831 
z"/>
<path fill="#F2DFB0" opacity="1.000000" stroke="none" 
	d="
M55.987656,263.373108 
	C54.975040,260.597961 54.343189,257.953552 52.961899,255.786987 
	C51.970764,254.232407 49.515411,252.037766 48.531895,252.393280 
	C46.720310,253.048126 44.344448,255.305222 44.251396,257.006592 
	C43.835831,264.604706 44.209118,272.242706 44.169624,279.865662 
	C44.136509,286.257751 44.324188,292.689758 43.674335,299.028229 
	C43.111500,304.517975 40.085526,305.383209 35.438210,302.034790 
	C34.911591,301.655334 34.289459,301.408447 33.350883,301.055847 
	C32.990154,301.011597 32.967178,300.522858 32.926674,299.890869 
	C31.581795,293.451508 29.892094,287.699005 29.055817,281.825012 
	C27.471024,270.693420 26.384676,259.491058 25.073395,248.320236 
	C24.354233,242.193680 21.890688,235.766220 28.189743,230.899658 
	C28.564890,230.904297 28.940035,230.908951 29.772083,231.144318 
	C30.827354,231.263428 31.425726,231.151794 32.024097,231.040176 
	C35.311115,231.674698 38.581158,232.704117 41.889336,232.846344 
	C46.274940,233.034882 50.690350,232.530243 55.945335,232.161240 
	C62.135139,232.266098 68.066277,230.306320 71.946770,236.037964 
	C71.963860,237.094269 71.980949,238.150558 71.728378,239.891006 
	C71.341965,242.211823 70.901375,243.901825 71.160660,245.476578 
	C72.932076,256.234833 75.084274,266.934967 76.647552,277.721405 
	C77.899010,286.356262 77.163940,294.981537 73.960327,303.179138 
	C73.471199,304.430756 71.378792,305.055817 70.027924,305.970703 
	C69.523964,305.417633 69.020004,304.864594 68.290985,304.140686 
	C65.061920,292.574066 62.057919,281.178284 58.962784,269.093353 
	C58.258572,267.921387 57.645500,267.438568 57.032425,266.955750 
	C56.704178,265.873291 56.375927,264.790863 55.987656,263.373108 
z"/>
<path fill="#F8F8F8" opacity="1.000000" stroke="none" 
	d="
M60.640778,181.035919 
	C62.708233,180.949570 64.418892,180.941895 66.555786,180.921631 
	C74.161217,186.725250 75.050179,194.917206 75.377472,203.293365 
	C75.435204,204.770889 74.680748,206.420349 75.113998,207.719376 
	C77.295059,214.258926 73.427330,218.989517 69.498245,222.576309 
	C65.972023,225.795349 60.793247,227.391312 56.110394,229.042023 
	C54.706722,229.536835 52.520332,227.811172 50.171463,226.743668 
	C42.683151,221.817139 35.481438,221.008224 27.978199,225.032516 
	C27.306564,225.846268 26.634930,226.660004 25.613510,227.765289 
	C24.202572,227.672852 23.141418,227.288895 22.064785,226.528015 
	C19.163748,220.940094 16.318605,215.705597 13.326414,210.556534 
	C13.045512,210.073151 11.837337,210.128632 11.059687,209.933929 
	C11.059687,209.933929 11.059025,209.462830 11.059555,209.227081 
	C11.068489,206.260849 11.076892,203.530380 11.416688,200.401840 
	C16.289986,200.020767 17.931442,197.039429 17.865597,193.244659 
	C17.787994,188.772339 13.998816,190.334457 11.464560,190.007050 
	C10.976826,189.944061 10.474737,189.992188 9.979271,189.989044 
	C9.984670,189.547348 9.990068,189.105652 10.001009,188.332733 
	C11.151097,187.092941 12.295645,186.184372 13.717834,185.126709 
	C16.396391,184.657684 18.797306,184.337753 21.961437,184.052582 
	C26.142641,186.737717 29.560629,189.388077 33.027103,192.377090 
	C34.048569,193.812347 35.021545,194.908966 35.995842,196.400574 
	C36.204006,198.004761 36.410858,199.213943 36.617706,200.423141 
	C37.027210,200.390564 37.436714,200.358002 37.846218,200.325424 
	C38.548351,195.160995 36.159969,188.786850 43.025864,186.035065 
	C43.979370,185.614578 44.932873,185.194107 45.980438,184.457825 
	C46.806957,184.119583 47.539410,184.097122 48.804115,184.273727 
	C49.891750,184.297760 50.447128,184.122757 51.002510,183.947754 
	C54.096336,183.003372 57.190159,182.058990 60.640778,181.035919 
z"/>
<path fill="#DFC696" opacity="1.000000" stroke="none" 
	d="
M22.080265,226.904938 
	C23.141418,227.288895 24.202572,227.672852 25.594831,228.126862 
	C26.530197,228.951019 27.134457,229.705139 27.964230,230.679459 
	C21.890688,235.766220 24.354233,242.193680 25.073395,248.320236 
	C26.384676,259.491058 27.471024,270.693420 29.055817,281.825012 
	C29.892094,287.699005 31.581795,293.451508 32.915291,299.646484 
	C28.755760,294.803925 25.069239,289.664124 25.554365,282.163635 
	C25.893091,276.926605 24.123589,271.571716 23.483059,266.246948 
	C22.969357,261.976501 22.891226,257.652435 22.343544,253.387619 
	C21.546568,247.181549 20.459555,241.013290 19.583801,234.816528 
	C19.261244,232.534149 19.187431,230.216614 18.996510,227.478088 
	C19.441870,227.006668 19.890888,226.972275 20.942936,226.944580 
	C21.724066,226.935822 21.902166,226.920380 22.080265,226.904938 
z"/>
<path fill="#EFEFEF" opacity="1.000000" stroke="none" 
	d="
M28.072166,225.389526 
	C35.481438,221.008224 42.683151,221.817139 49.823002,226.696014 
	C43.372734,226.990616 36.749321,227.007675 30.127794,226.904251 
	C29.468040,226.893951 28.819746,226.150009 28.072166,225.389526 
z"/>
<path fill="#E1CB9B" opacity="1.000000" stroke="none" 
	d="
M71.971916,235.624863 
	C68.066277,230.306320 62.135139,232.266098 56.316093,231.992462 
	C60.626106,230.669144 65.417747,229.352356 70.604706,228.068512 
	C71.332367,230.471558 71.664711,232.841660 71.971916,235.624863 
z"/>
<path fill="#DFC696" opacity="1.000000" stroke="none" 
	d="
M31.667645,231.011520 
	C31.425726,231.151794 30.827354,231.263428 30.052795,231.164413 
	C30.354803,230.963470 30.832998,230.973175 31.667645,231.011520 
z"/>
<path fill="#E1CB9B" opacity="1.000000" stroke="none" 
	d="
M70.195023,306.291901 
	C71.378792,305.055817 73.471199,304.430756 73.960327,303.179138 
	C77.163940,294.981537 77.899010,286.356262 76.647552,277.721405 
	C75.084274,266.934967 72.932076,256.234833 71.160660,245.476578 
	C70.901375,243.901825 71.341965,242.211823 71.730453,240.287170 
	C73.886200,248.476593 76.099487,256.897064 77.577156,265.444702 
	C79.800507,278.305756 80.997055,291.231262 76.539398,303.971375 
	C75.396858,307.236816 74.165001,309.799133 70.195023,306.291901 
z"/>
<path fill="#D5BA88" opacity="1.000000" stroke="none" 
	d="
M46.775658,300.232605 
	C48.325829,306.002899 44.390366,311.265442 38.306656,311.128784 
	C38.246361,310.191772 38.491341,309.390900 38.864330,308.299255 
	C43.216251,307.207977 45.686237,304.658020 46.775658,300.232605 
z"/>
<path fill="#CDB388" opacity="1.000000" stroke="none" 
	d="
M38.170311,108.291130 
	C39.154518,107.890373 40.379810,107.722908 41.838856,107.809433 
	C40.852203,108.217094 39.631798,108.370758 38.170311,108.291130 
z"/>
<path fill="#CDB388" opacity="1.000000" stroke="none" 
	d="
M58.937729,109.417511 
	C60.067806,109.241119 61.309792,109.386223 62.815208,109.802597 
	C61.735634,109.962242 60.392635,109.850632 58.937729,109.417511 
z"/>
<path fill="#CDB388" opacity="1.000000" stroke="none" 
	d="
M67.135605,111.216072 
	C67.611351,111.108116 68.281715,111.240639 69.013817,111.647804 
	C68.493774,111.767151 67.911995,111.611847 67.135605,111.216072 
z"/>
<path fill="#CDB388" opacity="1.000000" stroke="none" 
	d="
M49.101715,109.217979 
	C49.531921,108.881935 50.131565,108.751526 50.897724,108.838974 
	C50.466545,109.179100 49.868847,109.301361 49.101715,109.217979 
z"/>
<path fill="#DFC696" opacity="1.000000" stroke="none" 
	d="
M57.066315,267.271057 
	C57.645500,267.438568 58.258572,267.921387 58.889557,268.723022 
	C58.305050,268.556671 57.702629,268.071503 57.066315,267.271057 
z"/>
<path fill="#FDFDFD" opacity="1.000000" stroke="none" 
	d="
M9.617102,190.085922 
	C10.474737,189.992188 10.976826,189.944061 11.464560,190.007050 
	C13.998816,190.334457 17.787994,188.772339 17.865597,193.244659 
	C17.931442,197.039429 16.289986,200.020767 11.355286,200.011627 
	C10.473748,199.759445 9.985005,199.499390 9.227375,198.887604 
	C8.958487,198.535889 8.914017,198.049637 8.914017,198.049637 
	C9.027654,195.427368 9.141293,192.805084 9.617102,190.085922 
z"/>
<path fill="#D8D8D6" opacity="1.000000" stroke="none" 
	d="
M8.585432,198.112030 
	C8.914017,198.049637 8.958487,198.535889 8.971709,198.779907 
	C8.891550,200.073975 8.798168,201.124023 8.704787,202.174072 
	C8.227925,202.101562 7.751063,202.029037 7.274201,201.956528 
	C7.601750,200.695831 7.929299,199.435135 8.585432,198.112030 
z"/>
<path fill="#E4E4E4" opacity="1.000000" stroke="none" 
	d="
M32.978619,192.038422 
	C29.560629,189.388077 26.142641,186.737717 22.363674,184.037445 
	C22.886988,182.846313 23.786949,180.759750 24.652084,180.774094 
	C26.140482,180.798767 27.801048,181.911545 29.024033,182.984161 
	C30.076067,183.906830 30.618404,185.410690 31.821892,187.118332 
	C32.497990,189.065536 32.738308,190.551987 32.978619,192.038422 
z"/>
<path fill="#EEEEEE" opacity="1.000000" stroke="none" 
	d="
M33.027107,192.377075 
	C32.738308,190.551987 32.497990,189.065536 32.128357,187.289551 
	C33.626163,185.891541 35.253284,184.783066 36.943157,183.347931 
	C38.071026,183.010651 39.136139,183.000015 40.600777,182.994385 
	C41.001469,183.444672 41.002632,183.889954 40.772488,184.924500 
	C35.536198,187.498871 35.891697,191.806976 35.994526,196.005569 
	C35.021545,194.908966 34.048569,193.812347 33.027107,192.377075 
z"/>
<path fill="#E4E4E4" opacity="1.000000" stroke="none" 
	d="
M22.064785,226.528015 
	C21.902166,226.920380 21.724066,226.935822 21.279648,226.918777 
	C14.593485,223.404312 12.458790,217.299515 11.086498,210.322784 
	C11.837337,210.128632 13.045512,210.073151 13.326414,210.556534 
	C16.318605,215.705597 19.163748,220.940094 22.064785,226.528015 
z"/>
<path fill="#E7E7E7" opacity="1.000000" stroke="none" 
	d="
M50.837486,183.747696 
	C50.447128,184.122757 49.891750,184.297760 49.171501,184.277924 
	C49.561909,183.904602 50.117188,183.726120 50.837486,183.747696 
z"/>
<path fill="#E4E4E4" opacity="1.000000" stroke="none" 
	d="
M35.995842,196.400574 
	C35.891697,191.806976 35.536198,187.498871 40.773796,185.258453 
	C41.559071,185.188400 42.111732,185.373642 42.845131,185.796982 
	C36.159969,188.786850 38.548351,195.160995 37.846218,200.325424 
	C37.436714,200.358002 37.027210,200.390564 36.617706,200.423141 
	C36.410858,199.213943 36.204006,198.004761 35.995842,196.400574 
z"/>
</svg>