<svg version="1.1" id="Layer_1" xmlns="http://www.w3.org/2000/svg" xmlns:xlink="http://www.w3.org/1999/xlink" x="0px" y="0px"
	 width="100%" viewBox="0 0 91 405" enable-background="new 0 0 91 405" xml:space="preserve">
<path fill="#D2BA8B" opacity="1.000000" stroke="none" 
	d="
M32.126945,250.017899 
	C31.084970,245.305420 30.042995,240.592941 29.385921,235.461502 
	C30.188799,235.005920 30.606777,234.969284 31.309471,234.995209 
	C32.082882,235.358444 32.571575,235.659134 33.189796,236.249512 
	C34.551746,237.320969 35.784172,238.102722 37.325733,239.070435 
	C43.705505,242.876526 50.051025,244.566162 57.347412,242.020264 
	C58.797337,241.353516 59.900417,240.680481 61.344872,239.961609 
	C63.794918,238.287491 65.903587,236.659210 68.378876,235.036911 
	C69.478973,235.051559 70.212463,235.060226 70.945953,235.068909 
	C70.530838,242.602661 70.731499,250.231430 69.586418,257.652557 
	C65.992447,280.944611 62.072735,304.191132 57.884212,327.384003 
	C56.516102,334.959564 54.208427,342.406586 51.775612,349.728027 
	C50.833187,352.564178 48.354301,354.889801 46.755611,357.188782 
	C40.402126,354.074310 39.290176,349.537628 38.848099,344.276001 
	C38.221977,336.823975 36.971382,329.424438 36.020935,321.097900 
	C36.026432,309.446381 35.998672,298.699402 35.969246,287.501801 
	C35.637249,278.640594 35.552940,270.209991 34.869228,261.828278 
	C34.544182,257.843445 33.076828,253.951767 32.126945,250.017899 
M54.053017,312.615540 
	C56.380676,293.900482 58.716694,275.186493 61.027771,256.469391 
	C61.412785,253.351212 62.003601,250.203384 61.843197,247.103210 
	C61.788033,246.037094 59.693089,244.168442 58.596676,244.215652 
	C52.693138,244.469818 46.810593,245.211594 40.288303,245.846680 
	C40.288303,247.506897 40.087345,250.444824 40.334988,253.344437 
	C40.714737,257.790833 41.728542,262.197906 41.904957,266.644257 
	C42.707344,286.867737 43.184464,307.104675 44.068329,327.324097 
	C44.311726,332.892059 45.555759,338.416260 46.340649,343.960541 
	C47.117336,343.965637 47.894028,343.970764 48.670715,343.975861 
	C52.041775,334.156281 52.165020,323.644775 54.053017,312.615540 
z"/>
<path fill="#D8D7D7" opacity="1.000000" stroke="none" 
	d="
M72.281876,103.832214 
	C77.206505,115.568466 82.072662,127.823479 78.687538,140.443115 
	C73.702118,159.028564 54.618351,163.622528 39.041584,156.829773 
	C22.996183,149.832672 18.120485,130.438065 23.202250,115.620193 
	C25.666731,108.434059 27.845158,101.149826 30.578691,94.198868 
	C31.006958,95.327751 31.009623,96.167786 30.835777,97.121490 
	C30.616488,97.502907 30.573711,97.770638 30.530933,98.038376 
	C30.681942,97.687050 30.832951,97.335716 31.312229,96.965012 
	C33.072304,95.652290 34.504112,94.358948 36.354225,93.050446 
	C46.684498,91.066719 56.628246,88.688011 65.933548,95.569336 
	C66.332932,96.524681 66.674873,97.201065 67.105957,98.122452 
	C67.453072,98.590652 67.711044,98.813858 67.957077,99.030457 
	C67.945129,99.023849 67.942406,99.052307 67.948624,99.399612 
	C68.613434,100.600250 69.272034,101.453590 69.921005,102.611588 
	C69.999199,103.636589 70.087013,104.356934 70.207596,105.346031 
	C71.094360,104.698860 71.688118,104.265533 72.281876,103.832214 
M39.369698,148.632431 
	C41.862015,149.453476 44.354328,150.274536 47.042828,151.691895 
	C47.695950,152.123978 48.349075,152.556061 49.745232,153.017853 
	C50.488693,153.032532 51.232159,153.047226 52.542164,153.534988 
	C54.409695,153.055389 56.277225,152.575790 58.893330,152.069260 
	C71.467896,148.525925 77.668884,137.698761 74.562370,124.230103 
	C72.409012,114.893921 67.976006,106.717369 60.918369,99.365280 
	C60.280907,98.901344 59.643444,98.437401 58.380554,97.932602 
	C57.962799,97.928093 57.545040,97.923576 56.940140,97.320328 
	C55.948952,97.184578 54.957764,97.048828 53.066994,96.912933 
	C44.537525,95.386536 39.564507,99.982208 35.320621,107.052246 
	C34.877388,107.700874 34.434151,108.349510 33.953438,109.628029 
	C33.947628,110.048576 33.941818,110.469131 33.261070,111.113518 
	C31.846073,115.076469 30.431074,119.039429 28.991241,123.905823 
	C29.318558,128.605911 29.645876,133.305984 30.077158,138.630341 
	C30.684261,139.140778 31.291365,139.651199 31.897766,140.777466 
	C31.922899,141.187210 31.948032,141.596954 32.074348,142.676392 
	C33.047821,143.458206 34.021290,144.240021 35.475037,145.269196 
	C35.945484,145.534454 36.415936,145.799713 37.054653,146.672592 
	C37.700302,147.121353 38.345955,147.570114 39.369698,148.632431 
z"/>
<path fill="#DADADA" opacity="1.000000" stroke="none" 
	d="
M57.000565,242.013977 
	C50.051025,244.566162 43.705505,242.876526 37.322060,238.715851 
	C37.006302,237.461792 37.003353,236.748276 36.989975,235.669281 
	C32.450058,230.047028 30.669060,223.603622 28.848253,217.121353 
	C28.666889,216.475662 26.296768,216.444778 24.942484,216.128571 
	C22.589045,209.623383 19.175943,202.598068 21.397684,196.123260 
	C23.923321,188.762802 28.458887,181.679764 36.201824,178.007141 
	C40.493195,175.971649 44.949741,174.284378 49.929291,172.585281 
	C51.366760,172.414581 52.206776,172.098740 53.046791,171.782883 
	C53.477467,171.680023 53.908138,171.577179 54.683479,171.845963 
	C55.607670,172.368698 56.187187,172.519806 56.766708,172.670914 
	C59.549599,173.624878 62.927536,173.883286 65.005623,175.661102 
	C71.674744,181.366531 78.072769,187.821869 79.028679,196.992752 
	C79.561523,202.104767 77.755959,207.460556 76.591904,212.755707 
	C75.825546,212.420197 75.471481,212.035477 75.117416,211.650742 
	C74.935760,211.854919 74.754097,212.059082 74.572441,212.263245 
	C75.158386,212.690842 75.744331,213.118439 76.330276,213.546036 
	C74.611900,218.863724 72.893517,224.181427 70.656181,229.766022 
	C69.428902,231.698944 68.720581,233.364929 68.012268,235.030930 
	C65.903587,236.659210 63.794918,238.287491 61.130066,239.748291 
	C59.382774,240.391876 58.191669,241.202927 57.000565,242.013977 
M66.130997,223.374741 
	C66.432877,222.589966 66.734749,221.805206 67.650955,220.885468 
	C68.086510,220.240967 68.522064,219.596481 68.956306,218.302536 
	C68.961220,217.869598 68.966133,217.436676 69.461647,216.551346 
	C69.633720,215.692413 69.805794,214.833496 69.989716,213.145645 
	C70.355019,210.443542 70.720314,207.741455 71.682190,204.888458 
	C71.799179,203.927170 71.916168,202.965881 72.021408,201.078644 
	C72.830605,193.300201 71.330086,186.733612 64.978996,181.059830 
	C60.377880,176.949387 52.812920,177.034164 47.568527,179.415543 
	C43.555126,181.237946 39.846394,183.731323 35.994259,185.296204 
	C35.582016,184.720932 35.169773,184.145645 34.757534,183.570374 
	C34.306660,184.376068 33.855785,185.181763 33.404911,185.987442 
	C34.246758,186.000381 35.088600,186.013321 35.915096,186.756500 
	C35.585560,187.671539 35.467766,188.755478 34.893570,189.475372 
	C29.441805,196.310593 28.675638,203.756149 31.678997,211.806473 
	C32.252026,213.342438 32.661705,214.989029 32.832298,216.617523 
	C34.055988,228.298904 40.449368,235.058929 52.464905,237.467224 
	C54.729748,236.870361 58.281231,239.723373 59.339180,234.433640 
	C61.248512,231.968353 63.157845,229.503067 65.701294,227.003387 
	C68.806694,226.364059 67.756409,225.222626 66.130997,223.374741 
M27.280602,193.143723 
	C26.411493,195.734512 25.542385,198.325302 24.673277,200.916092 
	C25.389257,201.132233 26.105240,201.348389 26.821222,201.564529 
	C27.807922,198.327499 28.794624,195.090485 29.781324,191.853470 
	C29.526865,191.712830 29.272404,191.572174 29.017944,191.431534 
	C28.570549,191.817459 28.123154,192.203400 27.280602,193.143723 
M43.592533,238.095245 
	C42.382301,236.890640 41.172073,235.686035 39.961842,234.481415 
	C39.547817,235.019196 39.133793,235.556961 38.719769,236.094727 
	C40.190517,236.922134 41.661266,237.749557 43.592533,238.095245 
M71.357323,220.959503 
	C71.585045,221.431854 71.812767,221.904190 72.040482,222.376541 
	C72.257416,222.187592 72.684914,221.873138 72.658676,221.829132 
	C72.397888,221.391571 72.062157,220.998672 71.357323,220.959503 
M43.532394,177.755539 
	C43.808765,177.948975 44.085133,178.142410 44.361496,178.335861 
	C44.184177,178.048904 44.006859,177.761932 43.532394,177.755539 
M76.502357,204.839767 
	C76.177246,204.901932 75.852142,204.964081 75.527031,205.026245 
	C75.849876,205.099823 76.172729,205.173416 76.502357,204.839767 
z"/>
<path fill="#CFB586" opacity="1.000000" stroke="none" 
	d="
M67.016815,97.877449 
	C66.674873,97.201065 66.332932,96.524681 65.933807,95.198547 
	C64.225990,92.405357 62.575344,90.261932 61.062847,87.806007 
	C60.339947,82.990685 59.710175,78.426880 58.543957,74.004532 
	C57.627258,70.528389 56.112804,67.200462 54.743279,63.856083 
	C53.613613,61.097439 52.685783,58.140827 50.985424,55.759743 
	C48.748669,52.627506 45.906246,54.137409 43.626102,56.045719 
	C42.166168,57.267578 40.833664,58.979553 43.998817,60.334534 
	C43.997425,61.108379 43.995689,61.550430 43.612911,62.067928 
	C42.489269,63.622662 41.332443,65.039986 41.099773,66.595543 
	C40.737770,69.015823 41.003918,71.530060 41.002171,74.378571 
	C40.999214,75.500931 40.997925,76.249184 40.645058,77.097069 
	C39.224911,79.702972 37.894188,82.142731 37.232121,84.752144 
	C37.004986,85.647346 38.450539,86.966949 39.035858,88.413147 
	C37.938503,90.177628 36.937206,91.621620 35.935913,93.065605 
	C34.504112,94.358948 33.072304,95.652290 31.319233,96.971863 
	C30.997967,96.998100 31.012287,97.007812 31.012287,97.007812 
	C31.009623,96.167786 31.006958,95.327751 30.949352,94.071312 
	C31.727724,89.030235 32.430500,84.377357 33.422413,79.786964 
	C35.299702,71.099213 37.053848,62.364075 39.509125,53.835751 
	C40.169670,51.541378 42.853672,49.201199 45.179436,48.173973 
	C48.073341,46.895809 51.592922,47.978321 52.988121,51.029373 
	C56.587219,58.899971 59.778767,66.961784 62.973728,75.010483 
	C64.811539,79.640274 66.339340,84.393135 68.000351,89.859055 
	C68.364853,91.753075 68.735672,92.878639 69.106499,94.004211 
	C69.106499,94.004211 69.021378,93.985466 69.053490,94.248741 
	C69.377205,95.019363 69.668808,95.526711 69.960411,96.034058 
	C69.960411,96.034058 70.057816,96.405228 69.997307,96.908424 
	C69.639572,97.949326 69.342346,98.487030 68.769287,99.025551 
	C68.309776,99.035011 68.126091,99.043663 67.942406,99.052307 
	C67.942406,99.052307 67.945129,99.023849 67.853531,98.796906 
	C67.513557,98.339127 67.265190,98.108292 67.016815,97.877449 
z"/>
<path fill="#E5E5E5" opacity="1.000000" stroke="none" 
	d="
M24.969631,216.519958 
	C26.296768,216.444778 28.666889,216.475662 28.848253,217.121353 
	C30.669060,223.603622 32.450058,230.047028 36.595257,235.657715 
	C35.160736,235.994370 34.110508,235.977097 33.060272,235.959808 
	C32.571575,235.659134 32.082882,235.358444 31.253038,234.650482 
	C30.103380,233.548508 29.294870,232.853806 28.486361,232.159088 
	C27.323166,227.076508 26.159971,221.993942 24.969631,216.519958 
z"/>
<path fill="#BDAE97" opacity="1.000000" stroke="none" 
	d="
M31.972095,250.312668 
	C33.076828,253.951767 34.544182,257.843445 34.869228,261.828278 
	C35.552940,270.209991 35.637249,278.640594 35.662590,287.497833 
	C34.949352,287.974792 34.541107,288.005096 34.132862,288.035370 
	C33.837009,280.771332 33.639084,273.501556 33.212406,266.245209 
	C32.905361,261.023346 32.293266,255.819382 31.972095,250.312668 
z"/>
<path fill="#E2D2BC" opacity="1.000000" stroke="none" 
	d="
M34.081570,288.477356 
	C34.541107,288.005096 34.949352,287.974792 35.664257,287.948486 
	C35.998672,298.699402 36.026432,309.446381 36.011627,320.670227 
	C35.636189,320.474670 35.035843,319.812103 35.010597,319.128296 
	C34.638878,309.060333 34.343662,298.989502 34.081570,288.477356 
z"/>
<path fill="#D1C4B0" opacity="1.000000" stroke="none" 
	d="
M69.045120,99.024734 
	C69.342346,98.487030 69.639572,97.949326 69.991928,97.100220 
	C70.743958,98.875961 71.440865,100.963112 72.209824,103.441238 
	C71.688118,104.265533 71.094360,104.698860 70.207596,105.346031 
	C70.087013,104.356934 69.999199,103.636589 69.914352,102.258690 
	C69.626595,100.742340 69.335861,99.883537 69.045120,99.024734 
z"/>
<path fill="#D6D5D3" opacity="1.000000" stroke="none" 
	d="
M68.378876,235.036911 
	C68.720581,233.364929 69.428902,231.698944 70.513649,229.999695 
	C70.889793,231.377548 70.889503,232.788635 70.917587,234.634308 
	C70.212463,235.060226 69.478973,235.051559 68.378876,235.036911 
z"/>
<path fill="#CCCCCC" opacity="1.000000" stroke="none" 
	d="
M52.769020,171.585663 
	C52.206776,172.098740 51.366760,172.414581 50.323174,172.557358 
	C50.910152,172.052338 51.700699,171.720383 52.769020,171.585663 
z"/>
<path fill="#D6D5D3" opacity="1.000000" stroke="none" 
	d="
M28.673225,232.481659 
	C29.294870,232.853806 30.103380,233.548508 30.968323,234.587921 
	C30.606777,234.969284 30.188799,235.005920 29.456123,235.032318 
	C29.047647,234.282806 28.953869,233.543503 28.673225,232.481659 
z"/>
<path fill="#D6D5D3" opacity="1.000000" stroke="none" 
	d="
M76.371780,213.503784 
	C75.744331,213.118439 75.158386,212.690842 74.572441,212.263245 
	C74.754097,212.059082 74.935760,211.854919 75.117416,211.650742 
	C75.471481,212.035477 75.825546,212.420197 76.346970,213.102325 
	C76.514320,213.399719 76.413284,213.461533 76.371780,213.503784 
z"/>
<path fill="#D1C4B0" opacity="1.000000" stroke="none" 
	d="
M69.090134,93.615494 
	C68.735672,92.878639 68.364853,91.753075 68.022141,90.251595 
	C68.391434,90.992714 68.732605,92.109749 69.090134,93.615494 
z"/>
<path fill="#CCCCCC" opacity="1.000000" stroke="none" 
	d="
M56.731598,172.318207 
	C56.187187,172.519806 55.607670,172.368698 54.988232,172.006973 
	C55.531040,171.852722 56.113766,171.909119 56.731598,172.318207 
z"/>
<path fill="#D1C4B0" opacity="1.000000" stroke="none" 
	d="
M70.068985,95.713531 
	C69.668808,95.526711 69.377205,95.019363 69.064606,94.206604 
	C69.421593,94.398453 69.799583,94.895729 70.068985,95.713531 
z"/>
<path fill="#F0DCAC" opacity="1.000000" stroke="none" 
	d="
M54.040531,313.059723 
	C52.165020,323.644775 52.041775,334.156281 48.670715,343.975861 
	C47.894028,343.970764 47.117336,343.965637 46.340649,343.960541 
	C45.555759,338.416260 44.311726,332.892059 44.068329,327.324097 
	C43.184464,307.104675 42.707344,286.867737 41.904957,266.644257 
	C41.728542,262.197906 40.714737,257.790833 40.334988,253.344437 
	C40.087345,250.444824 40.288303,247.506897 40.288303,245.846680 
	C46.810593,245.211594 52.693138,244.469818 58.596676,244.215652 
	C59.693089,244.168442 61.788033,246.037094 61.843197,247.103210 
	C62.003601,250.203384 61.412785,253.351212 61.027771,256.469391 
	C58.716694,275.186493 56.380676,293.900482 54.040531,313.059723 
z"/>
<path fill="#D6D5D3" opacity="1.000000" stroke="none" 
	d="
M57.347412,242.020264 
	C58.191669,241.202927 59.382774,240.391876 60.788689,239.794128 
	C59.900417,240.680481 58.797337,241.353516 57.347412,242.020264 
z"/>
<path fill="#D6D5D3" opacity="1.000000" stroke="none" 
	d="
M33.189800,236.249512 
	C34.110508,235.977097 35.160736,235.994370 36.605682,236.023209 
	C37.003353,236.748276 37.006302,237.461792 37.012924,238.529877 
	C35.784172,238.102722 34.551746,237.320969 33.189800,236.249512 
z"/>
<path fill="#F9F9F9" opacity="1.000000" stroke="none" 
	d="
M36.886391,146.064972 
	C36.415936,145.799713 35.945484,145.534454 35.188553,144.808105 
	C33.925762,143.566895 32.949463,142.786804 31.973164,142.006699 
	C31.948032,141.596954 31.922899,141.187210 31.876286,140.138397 
	C31.227600,139.001587 30.600397,138.503830 29.973194,138.006073 
	C29.645876,133.305984 29.318558,128.605911 29.347973,123.360260 
	C31.115141,118.839699 32.525578,114.864685 33.936012,110.889679 
	C33.941818,110.469131 33.947628,110.048576 34.289349,109.250328 
	C35.058174,108.205643 35.491093,107.538658 35.924004,106.871674 
	C39.564507,99.982208 44.537525,95.386536 53.751995,97.170273 
	C55.333759,97.591423 56.230522,97.755241 57.127285,97.919067 
	C57.545040,97.923576 57.962799,97.928093 58.751774,98.268036 
	C59.764732,99.064743 60.406471,99.526024 61.048210,99.987305 
	C67.976006,106.717369 72.409012,114.893921 74.562370,124.230103 
	C77.668884,137.698761 71.467896,148.525925 58.100876,152.052338 
	C55.530823,152.377594 53.753220,152.719757 51.975620,153.061920 
	C51.232159,153.047226 50.488693,153.032532 49.307156,152.687607 
	C48.194935,151.936768 47.520790,151.516174 46.846645,151.095581 
	C44.354328,150.274536 41.862015,149.453476 39.120819,148.008087 
	C38.210091,146.944153 37.548241,146.504562 36.886391,146.064972 
M33.006718,125.653595 
	C33.006203,126.103027 33.005688,126.552460 33.000465,127.834320 
	C33.001247,129.222473 33.002029,130.610626 33.100891,132.665939 
	C34.067158,133.444168 35.033424,134.222382 36.589706,135.324814 
	C38.042767,136.412216 39.604027,137.382202 40.931610,138.605759 
	C50.716297,147.623627 61.179543,140.226730 68.626793,130.902481 
	C68.375267,129.412857 68.648491,127.374512 67.773048,126.537292 
	C65.227516,124.102928 64.804070,122.303551 67.615379,119.699127 
	C69.864578,117.615448 67.967720,117.077789 65.677429,116.411980 
	C63.882179,113.440826 62.470570,110.122826 60.185043,107.594948 
	C57.845013,105.006783 54.928574,102.018669 51.773388,101.267090 
	C43.427547,99.279091 34.461964,110.452103 36.992428,119.658150 
	C36.987762,120.094170 36.983097,120.530190 36.350212,121.104317 
	C35.886627,121.753899 35.423042,122.403473 34.735943,123.427704 
	C34.551647,123.661667 34.326897,123.846436 33.624466,124.214981 
	C33.354839,124.417328 33.150772,124.672165 33.006718,125.653595 
z"/>
<path fill="#B6B3AD" opacity="1.000000" stroke="none" 
	d="
M36.354221,93.050446 
	C36.937206,91.621620 37.938503,90.177628 39.342285,88.394157 
	C40.156078,88.027122 40.567390,87.999565 41.274441,87.946182 
	C42.049484,87.604233 42.528790,87.288094 43.335625,86.969627 
	C44.099480,86.949860 44.535816,86.932411 45.428551,86.943367 
	C48.932194,86.939217 51.979427,86.906677 55.413063,86.901764 
	C57.507877,87.325768 59.216290,87.722137 60.924698,88.118500 
	C62.575344,90.261932 64.225990,92.405357 65.876366,94.919579 
	C56.628246,88.688011 46.684498,91.066719 36.354221,93.050446 
z"/>
<path fill="#F3F3F3" opacity="1.000000" stroke="none" 
	d="
M33.598541,111.001602 
	C32.525578,114.864685 31.115141,118.839699 29.360390,122.908539 
	C30.431074,119.039429 31.846073,115.076469 33.598541,111.001602 
z"/>
<path fill="#F3F3F3" opacity="1.000000" stroke="none" 
	d="
M52.258892,153.298462 
	C53.753220,152.719757 55.530823,152.377594 57.726589,152.065796 
	C56.277225,152.575790 54.409695,153.055389 52.258892,153.298462 
z"/>
<path fill="#F3F3F3" opacity="1.000000" stroke="none" 
	d="
M32.023758,142.341553 
	C32.949463,142.786804 33.925762,143.566895 34.948414,144.684418 
	C34.021290,144.240021 33.047821,143.458206 32.023758,142.341553 
z"/>
<path fill="#F3F3F3" opacity="1.000000" stroke="none" 
	d="
M57.033714,97.619698 
	C56.230522,97.755241 55.333759,97.591423 54.201786,97.170341 
	C54.957764,97.048828 55.948952,97.184578 57.033714,97.619698 
z"/>
<path fill="#B6B3AD" opacity="1.000000" stroke="none" 
	d="
M68.769287,99.025551 
	C69.335861,99.883537 69.626595,100.742340 69.923981,101.954041 
	C69.272034,101.453590 68.613434,100.600250 67.948624,99.399612 
	C68.126091,99.043663 68.309776,99.035011 68.769287,99.025551 
z"/>
<path fill="#F3F3F3" opacity="1.000000" stroke="none" 
	d="
M35.622314,106.961960 
	C35.491093,107.538658 35.058174,108.205643 34.308090,108.935379 
	C34.434151,108.349510 34.877388,107.700874 35.622314,106.961960 
z"/>
<path fill="#F3F3F3" opacity="1.000000" stroke="none" 
	d="
M60.983292,99.676292 
	C60.406471,99.526024 59.764732,99.064743 59.064491,98.288460 
	C59.643444,98.437401 60.280907,98.901344 60.983292,99.676292 
z"/>
<path fill="#F3F3F3" opacity="1.000000" stroke="none" 
	d="
M30.025177,138.318207 
	C30.600397,138.503830 31.227600,139.001587 31.876637,139.830475 
	C31.291365,139.651199 30.684261,139.140778 30.025177,138.318207 
z"/>
<path fill="#F3F3F3" opacity="1.000000" stroke="none" 
	d="
M36.970520,146.368774 
	C37.548241,146.504562 38.210091,146.944153 38.931774,147.701324 
	C38.345955,147.570114 37.700302,147.121353 36.970520,146.368774 
z"/>
<path fill="#F3F3F3" opacity="1.000000" stroke="none" 
	d="
M46.944736,151.393738 
	C47.520790,151.516174 48.194935,151.936768 48.935638,152.672760 
	C48.349075,152.556061 47.695950,152.123978 46.944736,151.393738 
z"/>
<path fill="#CFB586" opacity="1.000000" stroke="none" 
	d="
M30.990963,96.991241 
	C30.832951,97.335716 30.681942,97.687050 30.530933,98.038376 
	C30.573711,97.770638 30.616488,97.502907 30.835777,97.121490 
	C31.012287,97.007812 30.997967,96.998100 30.990963,96.991241 
z"/>
<path fill="#B6B3AD" opacity="1.000000" stroke="none" 
	d="
M67.105957,98.122452 
	C67.265190,98.108292 67.513557,98.339127 67.865479,98.803513 
	C67.711044,98.813858 67.453072,98.590652 67.105957,98.122452 
z"/>
<path fill="#F7F7F7" opacity="1.000000" stroke="none" 
	d="
M65.067184,227.037796 
	C63.157845,229.503067 61.248512,231.968353 58.795616,234.732330 
	C56.167984,235.686905 54.083916,236.342804 51.999847,236.998703 
	C40.449368,235.058929 34.055988,228.298904 32.832298,216.617523 
	C32.661705,214.989029 32.252026,213.342438 31.678997,211.806473 
	C28.675638,203.756149 29.441805,196.310593 34.893570,189.475372 
	C35.467766,188.755478 35.585560,187.671539 35.949516,186.372711 
	C35.983936,185.988907 36.002151,185.926254 36.002148,185.926239 
	C39.846394,183.731323 43.555126,181.237946 47.568527,179.415543 
	C52.812920,177.034164 60.377880,176.949387 64.978996,181.059830 
	C71.330086,186.733612 72.830605,193.300201 71.784225,201.769440 
	C71.393227,203.319931 71.239410,204.179642 71.085609,205.039352 
	C70.720314,207.741455 70.355019,210.443542 69.678604,213.628418 
	C69.235344,215.075363 69.103195,216.039551 68.971054,217.003738 
	C68.966133,217.436676 68.961220,217.869598 68.652954,218.701050 
	C67.911942,219.739853 67.474281,220.380142 67.036621,221.020432 
	C66.734749,221.805206 66.432877,222.589966 65.846237,223.911987 
	C65.396706,225.312103 65.231949,226.174942 65.067184,227.037796 
z"/>
<path fill="#E5E5E5" opacity="1.000000" stroke="none" 
	d="
M27.478180,192.866516 
	C28.123154,192.203400 28.570549,191.817459 29.017944,191.431534 
	C29.272404,191.572174 29.526865,191.712830 29.781324,191.853470 
	C28.794624,195.090485 27.807922,198.327499 26.821222,201.564529 
	C26.105240,201.348389 25.389257,201.132233 24.673277,200.916092 
	C25.542385,198.325302 26.411493,195.734512 27.478180,192.866516 
z"/>
<path fill="#E5E5E5" opacity="1.000000" stroke="none" 
	d="
M52.232376,237.232971 
	C54.083916,236.342804 56.167984,235.686905 58.634041,235.027496 
	C58.281231,239.723373 54.729748,236.870361 52.232376,237.232971 
z"/>
<path fill="#E5E5E5" opacity="1.000000" stroke="none" 
	d="
M43.362274,238.336105 
	C41.661266,237.749557 40.190517,236.922134 38.719769,236.094727 
	C39.133793,235.556961 39.547817,235.019196 39.961842,234.481415 
	C41.172073,235.686035 42.382301,236.890640 43.362274,238.336105 
z"/>
<path fill="#E5E5E5" opacity="1.000000" stroke="none" 
	d="
M35.957191,186.007584 
	C35.088600,186.013321 34.246758,186.000381 33.404911,185.987457 
	C33.855785,185.181763 34.306660,184.376068 34.757534,183.570374 
	C35.169773,184.145645 35.582016,184.720932 35.998207,185.611237 
	C36.002151,185.926254 35.983936,185.988907 35.957191,186.007584 
z"/>
<path fill="#E5E5E5" opacity="1.000000" stroke="none" 
	d="
M65.384239,227.020599 
	C65.231949,226.174942 65.396706,225.312103 65.812614,224.226410 
	C67.756409,225.222626 68.806694,226.364059 65.384239,227.020599 
z"/>
<path fill="#D6D5D3" opacity="1.000000" stroke="none" 
	d="
M71.552460,220.776337 
	C72.062157,220.998672 72.397888,221.391571 72.658676,221.829132 
	C72.684914,221.873138 72.257416,222.187592 72.040482,222.376541 
	C71.812767,221.904190 71.585045,221.431854 71.552460,220.776337 
z"/>
<path fill="#E5E5E5" opacity="1.000000" stroke="none" 
	d="
M69.216347,216.777542 
	C69.103195,216.039551 69.235344,215.075363 69.672668,214.042877 
	C69.805794,214.833496 69.633720,215.692413 69.216347,216.777542 
z"/>
<path fill="#E5E5E5" opacity="1.000000" stroke="none" 
	d="
M71.383896,204.963898 
	C71.239410,204.179642 71.393227,203.319931 71.790100,202.232407 
	C71.916168,202.965881 71.799179,203.927170 71.383896,204.963898 
z"/>
<path fill="#E5E5E5" opacity="1.000000" stroke="none" 
	d="
M67.343788,220.952942 
	C67.474281,220.380142 67.911942,219.739853 68.653603,219.025787 
	C68.522064,219.596481 68.086510,220.240967 67.343788,220.952942 
z"/>
<path fill="#E5E5E5" opacity="1.000000" stroke="none" 
	d="
M43.680969,177.615265 
	C44.006859,177.761932 44.184177,178.048904 44.361496,178.335861 
	C44.085133,178.142410 43.808765,177.948975 43.680969,177.615265 
z"/>
<path fill="#D6D5D3" opacity="1.000000" stroke="none" 
	d="
M76.498962,205.043396 
	C76.172729,205.173416 75.849876,205.099823 75.527031,205.026245 
	C75.852142,204.964081 76.177246,204.901932 76.498962,205.043396 
z"/>
<path fill="#DFBF87" opacity="1.000000" stroke="none" 
	d="
M40.996635,76.997437 
	C40.997925,76.249184 40.999214,75.500931 41.336227,74.296127 
	C42.445950,69.890549 43.219952,65.941513 43.993958,61.992481 
	C43.995689,61.550430 43.997425,61.108379 44.298927,60.168106 
	C49.090000,56.059120 50.341885,56.355881 52.046944,61.766472 
	C53.429253,66.152908 54.779263,70.573242 55.699913,75.069389 
	C56.052525,76.791443 55.824894,79.471596 54.726624,80.484840 
	C52.059757,82.945213 43.044445,80.365013 40.996635,76.997437 
z"/>
<path fill="#DABA83" opacity="1.000000" stroke="none" 
	d="
M40.645058,77.097069 
	C43.044445,80.365013 52.059757,82.945213 54.726624,80.484840 
	C55.824894,79.471596 56.052525,76.791443 55.699913,75.069389 
	C54.779263,70.573242 53.429253,66.152908 52.046944,61.766472 
	C50.341885,56.355881 49.090000,56.059120 44.298588,59.836311 
	C40.833664,58.979553 42.166168,57.267578 43.626102,56.045719 
	C45.906246,54.137409 48.748669,52.627506 50.985424,55.759743 
	C52.685783,58.140827 53.613613,61.097439 54.743279,63.856083 
	C56.112804,67.200462 57.627258,70.528389 58.543957,74.004532 
	C59.710175,78.426880 60.339947,82.990685 61.062847,87.806000 
	C59.216290,87.722137 57.507877,87.325768 55.277740,86.548492 
	C51.358418,84.632347 47.992100,83.506584 44.972149,86.914970 
	C44.535816,86.932411 44.099480,86.949860 43.145420,86.783737 
	C42.078030,87.057457 41.528366,87.514732 40.978703,87.972008 
	C40.567390,87.999565 40.156078,88.027122 39.438339,88.073669 
	C38.450539,86.966949 37.004986,85.647346 37.232121,84.752144 
	C37.894188,82.142731 39.224911,79.702972 40.645058,77.097069 
z"/>
<path fill="#DABA83" opacity="1.000000" stroke="none" 
	d="
M43.612911,62.067928 
	C43.219952,65.941513 42.445950,69.890549 41.337891,73.922028 
	C41.003918,71.530060 40.737770,69.015823 41.099773,66.595543 
	C41.332443,65.039986 42.489269,63.622662 43.612911,62.067928 
z"/>
<path fill="#F1F1F1" opacity="1.000000" stroke="none" 
	d="
M68.006783,131.044724 
	C61.179543,140.226730 50.716297,147.623627 40.931610,138.605759 
	C39.604027,137.382202 38.042767,136.412216 36.294502,134.789276 
	C35.994637,133.507370 35.989975,132.761017 35.991570,132.008423 
	C35.997826,132.002167 35.998337,132.001816 36.240517,132.005447 
	C36.482700,132.009079 36.967022,132.016785 36.981220,132.031998 
	C36.995419,132.047211 37.022076,132.079163 37.114716,132.195770 
	C37.207359,132.312363 37.607300,132.394394 37.607300,132.394394 
	C37.607300,132.394394 37.935596,132.121170 38.195831,132.102234 
	C38.629704,132.072800 38.803341,132.062302 39.081772,132.398315 
	C43.158684,134.160141 47.031418,136.126480 51.125618,136.864899 
	C57.676411,138.046402 62.362362,133.837097 67.207428,130.133789 
	C67.675270,130.477463 67.872398,130.737289 68.006783,131.044724 
z"/>
<path fill="#E5E5E5" opacity="1.000000" stroke="none" 
	d="
M68.316788,130.973602 
	C67.872398,130.737289 67.675270,130.477463 67.048019,129.840820 
	C65.168282,127.722809 63.655918,126.029228 61.865616,124.024399 
	C60.429398,124.963120 59.045216,125.767204 57.773014,126.720711 
	C55.279919,128.589264 55.094467,126.906296 55.190285,124.735336 
	C54.547813,123.981369 53.733955,123.112892 52.878613,123.069901 
	C49.580387,122.904144 46.268906,123.002190 42.676605,123.039764 
	C41.926090,123.386467 41.461338,123.695320 40.664276,124.002869 
	C39.888985,123.999359 39.445999,123.997154 38.745979,123.747902 
	C37.312447,123.351593 36.135948,123.202324 34.959457,123.053047 
	C35.423042,122.403473 35.886627,121.753899 37.027672,120.887993 
	C39.802776,120.449417 41.900414,120.227165 44.311150,120.264053 
	C48.749100,120.347267 52.873955,120.171349 57.373993,119.997757 
	C58.499577,119.999649 59.249973,119.999214 60.336601,120.045761 
	C64.002029,121.756233 64.943848,119.283905 66.003464,117.015656 
	C67.967720,117.077789 69.864578,117.615448 67.615379,119.699127 
	C64.804070,122.303551 65.227516,124.102928 67.773048,126.537292 
	C68.648491,127.374512 68.375267,129.412857 68.316788,130.973602 
z"/>
<path fill="#F3F3F3" opacity="1.000000" stroke="none" 
	d="
M65.840446,116.713821 
	C64.943848,119.283905 64.002029,121.756233 60.417358,119.700081 
	C63.043053,114.549469 62.123974,111.834007 55.871078,106.797211 
	C55.542633,106.338226 55.293758,106.141541 54.828770,105.697769 
	C51.198200,101.262497 47.240711,103.247780 44.931919,105.916641 
	C41.640827,109.720993 39.579903,114.589531 36.993507,119.003502 
	C34.461964,110.452103 43.427547,99.279091 51.773388,101.267090 
	C54.928574,102.018669 57.845013,105.006783 60.185043,107.594948 
	C62.470570,110.122826 63.882179,113.440826 65.840446,116.713821 
z"/>
<path fill="#F2F2F2" opacity="1.000000" stroke="none" 
	d="
M36.992966,119.330826 
	C39.579903,114.589531 41.640827,109.720993 44.931919,105.916641 
	C47.240711,103.247780 51.198200,101.262497 54.401489,105.697098 
	C50.959347,106.982155 47.602451,107.627029 44.682381,109.123993 
	C43.653931,109.651215 43.097343,112.412560 43.458904,113.873238 
	C43.697823,114.838463 45.894470,115.511276 47.326828,115.940765 
	C49.158810,116.490067 51.103725,116.662758 52.698166,117.253174 
	C49.596924,118.340698 46.797489,119.172806 43.998055,120.004913 
	C41.900414,120.227165 39.802776,120.449417 37.341782,120.818939 
	C36.983097,120.530190 36.987762,120.094170 36.992966,119.330826 
z"/>
<path fill="#F1F1F1" opacity="1.000000" stroke="none" 
	d="
M33.002811,131.998779 
	C33.002029,130.610626 33.001247,129.222473 33.344883,127.371849 
	C34.795406,126.608009 35.901508,126.306633 36.948257,126.380997 
	C36.592049,128.505081 36.295193,130.253448 35.998337,132.001816 
	C35.998337,132.001816 35.997826,132.002167 35.619049,132.003769 
	C34.494450,132.003174 33.748631,132.000977 33.002811,131.998779 
z"/>
<path fill="#F3F3F3" opacity="1.000000" stroke="none" 
	d="
M37.007614,126.005264 
	C35.901508,126.306633 34.795406,126.608009 33.347237,126.955635 
	C33.005688,126.552460 33.006203,126.103027 33.219463,125.191345 
	C33.691402,124.521660 33.901230,124.272636 34.061687,123.982010 
	C34.326897,123.846436 34.551647,123.661667 34.847698,123.240372 
	C36.135948,123.202324 37.312447,123.351593 38.744614,124.082443 
	C39.000088,125.109070 38.999889,125.554123 38.667625,126.000168 
	C37.892914,126.002533 37.450264,126.003899 37.007614,126.005264 
z"/>
<path fill="#F3F3F3" opacity="1.000000" stroke="none" 
	d="
M33.051849,132.332367 
	C33.748631,132.000977 34.494450,132.003174 35.612793,132.010010 
	C35.989975,132.761017 35.994637,133.507370 35.999496,134.627167 
	C35.033424,134.222382 34.067158,133.444168 33.051849,132.332367 
z"/>
<path fill="#E5E5E5" opacity="1.000000" stroke="none" 
	d="
M33.843079,124.098495 
	C33.901230,124.272636 33.691402,124.521660 33.222237,124.854294 
	C33.150772,124.672165 33.354839,124.417328 33.843079,124.098495 
z"/>
<path fill="#CFB586" opacity="1.000000" stroke="none" 
	d="
M45.428551,86.943367 
	C47.992100,83.506584 51.358418,84.632347 54.891338,86.520859 
	C51.979427,86.906677 48.932194,86.939217 45.428551,86.943367 
z"/>
<path fill="#CFB586" opacity="1.000000" stroke="none" 
	d="
M41.274441,87.946182 
	C41.528366,87.514732 42.078030,87.057457 42.817894,86.786072 
	C42.528790,87.288094 42.049484,87.604233 41.274441,87.946182 
z"/>
<path fill="#EAEAEA" opacity="1.000000" stroke="none" 
	d="
M54.999847,125.000000 
	C55.094467,126.906296 55.279919,128.589264 57.773014,126.720711 
	C59.045216,125.767204 60.429398,124.963120 61.865616,124.024399 
	C63.655918,126.029228 65.168282,127.722809 66.840050,129.709351 
	C62.362362,133.837097 57.676411,138.046402 51.125618,136.864899 
	C47.031418,136.126480 43.158684,134.160141 39.376602,132.223358 
	C41.047085,129.466568 42.527538,127.231201 44.419445,124.997620 
	C48.220547,124.999588 51.610199,124.999794 54.999847,125.000000 
z"/>
<path fill="#DFDFDF" opacity="1.000000" stroke="none" 
	d="
M44.007996,124.995842 
	C42.527538,127.231201 41.047085,129.466568 39.271801,131.876877 
	C38.803341,132.062302 38.629704,132.072800 37.968494,132.080612 
	C37.480919,132.077942 37.022076,132.079163 37.022076,132.079163 
	C37.022076,132.079163 36.995419,132.047211 37.035454,131.696548 
	C38.382690,129.563263 39.689888,127.780640 40.998344,125.665466 
	C40.998600,124.889999 40.997593,124.447090 40.996590,124.004173 
	C41.461338,123.695320 41.926090,123.386467 42.801182,123.292648 
	C43.477013,124.003738 43.742504,124.499794 44.007996,124.995842 
z"/>
<path fill="#EAEAEA" opacity="1.000000" stroke="none" 
	d="
M40.997086,125.998001 
	C39.689888,127.780640 38.382690,129.563263 37.021255,131.681335 
	C36.967022,132.016785 36.482700,132.009079 36.240517,132.005447 
	C36.295193,130.253448 36.592049,128.505081 36.948257,126.380997 
	C37.450264,126.003899 37.892914,126.002533 39.000797,126.000519 
	C40.109715,125.999245 40.553398,125.998627 40.997086,125.998001 
z"/>
<path fill="#F3F3F3" opacity="1.000000" stroke="none" 
	d="
M37.114716,132.195770 
	C37.022076,132.079163 37.480919,132.077942 37.708260,132.099548 
	C37.935596,132.121170 37.607300,132.394394 37.607300,132.394394 
	C37.607300,132.394394 37.207359,132.312363 37.114716,132.195770 
z"/>
<path fill="#F2F2F2" opacity="1.000000" stroke="none" 
	d="
M55.996712,107.001221 
	C62.123974,111.834007 63.043053,114.549469 60.081131,119.653091 
	C59.249973,119.999214 58.499577,119.999649 57.319908,119.693184 
	C56.260090,118.589226 55.629547,117.792175 55.070709,116.667168 
	C59.369602,113.587227 55.963692,110.136917 55.996712,107.001221 
z"/>
<path fill="#F3F3F3" opacity="1.000000" stroke="none" 
	d="
M54.999001,116.995117 
	C55.629547,117.792175 56.260090,118.589226 56.944721,119.690857 
	C52.873955,120.171349 48.749100,120.347267 44.311150,120.264053 
	C46.797489,119.172806 49.596924,118.340698 53.031345,117.252975 
	C54.110554,116.996620 54.554779,116.995872 54.999001,116.995117 
z"/>
<path fill="#EFEFEF" opacity="1.000000" stroke="none" 
	d="
M44.419449,124.997620 
	C43.742504,124.499794 43.477013,124.003738 43.086945,123.254807 
	C46.268906,123.002190 49.580387,122.904144 52.878613,123.069901 
	C53.733955,123.112892 54.547813,123.981369 55.190285,124.735336 
	C51.610199,124.999794 48.220547,124.999588 44.419449,124.997620 
z"/>
<path fill="#F1F1F1" opacity="1.000000" stroke="none" 
	d="
M40.998344,125.665459 
	C40.553398,125.998627 40.109715,125.999245 39.332859,125.999519 
	C38.999889,125.554123 39.000088,125.109070 39.001648,124.329483 
	C39.445999,123.997154 39.888985,123.999359 40.664280,124.002869 
	C40.997593,124.447090 40.998600,124.889999 40.998344,125.665459 
z"/>
<path fill="#ECECEC" opacity="1.000000" stroke="none" 
	d="
M55.070709,116.667168 
	C54.554779,116.995872 54.110554,116.996620 53.333153,116.997559 
	C51.103725,116.662758 49.158810,116.490067 47.326828,115.940765 
	C45.894470,115.511276 43.697823,114.838463 43.458904,113.873238 
	C43.097343,112.412560 43.653931,109.651215 44.682381,109.123993 
	C47.602451,107.627029 50.959347,106.982155 54.571541,106.002472 
	C55.293758,106.141541 55.542633,106.338226 55.871078,106.797211 
	C55.963692,110.136917 59.369602,113.587227 55.070709,116.667168 
z"/>
</svg>