<svg version="1.1" id="Layer_1" xmlns="http://www.w3.org/2000/svg" xmlns:xlink="http://www.w3.org/1999/xlink" x="0px" y="0px"
	 width="100%" viewBox="0 0 91 405" enable-background="new 0 0 91 405" xml:space="preserve">
<path fill="#DADADA" opacity="1.000000" stroke="none" 
	d="
M71.831642,72.020256 
	C74.404861,84.916344 78.130348,97.657158 77.000305,111.046921 
	C75.871559,124.421249 70.620506,135.135101 57.752548,140.928391 
	C53.865726,142.678253 49.972488,144.423965 46.017036,146.008987 
	C39.620163,148.572357 34.426949,144.622635 29.051085,142.403519 
	C26.271732,141.256210 24.096935,138.728058 21.461163,137.134430 
	C11.292383,130.986221 8.516801,123.463791 10.729136,110.310722 
	C12.558293,99.435768 14.928112,88.867363 19.845451,78.399323 
	C21.150385,77.599037 21.927532,77.163467 22.704678,76.727898 
	C22.076075,76.160683 21.447474,75.593460 20.818871,75.026237 
	C20.888502,74.135292 20.958132,73.244347 21.692608,72.135269 
	C23.467609,71.364479 25.271156,71.064819 25.579556,70.219612 
	C28.350048,62.626717 34.688309,60.580589 41.678436,59.263054 
	C54.640129,56.819962 63.910625,61.570011 68.820473,73.435265 
	C69.821671,72.964783 70.826653,72.492523 71.831642,72.020256 
M30.076963,133.733444 
	C33.126301,135.477798 36.037746,138.388382 39.248447,138.768021 
	C54.511082,140.572647 66.566414,129.015488 69.799179,116.468330 
	C73.695114,101.347260 70.675018,86.582184 63.377327,72.835228 
	C58.273659,63.221256 40.775867,60.042873 34.035755,67.652824 
	C30.818029,71.285805 28.671106,75.867188 26.005178,80.662003 
	C25.989277,81.090958 25.973375,81.519905 25.275620,82.132729 
	C23.858034,85.758652 22.440449,89.384567 21.006311,93.672752 
	C21.001167,94.114365 20.996023,94.555984 20.359758,95.384247 
	C19.556288,100.926193 18.752819,106.468140 17.948450,112.745323 
	C17.946814,113.480553 17.945175,114.215782 17.291616,115.136986 
	C15.659969,119.541641 18.406303,124.424263 24.480946,127.454414 
	C26.302050,129.317444 28.123154,131.180466 30.076963,133.733444 
z"/>
<path fill="#CFB689" opacity="1.000000" stroke="none" 
	d="
M55.815865,370.105286 
	C53.930161,368.481598 52.044460,366.857910 50.027443,364.544128 
	C49.445385,363.284424 48.994644,362.714752 48.543907,362.145050 
	C48.543911,362.145050 48.756752,362.269562 48.791729,361.950348 
	C47.597118,357.276489 46.493584,352.880585 45.086906,348.583893 
	C44.338440,346.297760 43.065132,344.183441 42.028732,341.991547 
	C39.796638,334.449402 37.269695,326.978546 35.423359,319.343140 
	C33.875244,312.940979 33.121346,306.346802 32.388653,299.354797 
	C33.524189,298.240662 34.286869,297.609436 35.405922,297.097351 
	C37.213902,303.043884 38.549419,308.904114 40.183334,314.679932 
	C40.717876,316.569550 42.028278,318.239685 42.993343,320.340973 
	C43.009056,321.112915 43.015289,321.554047 42.769569,322.248047 
	C43.322762,324.685272 44.127899,326.869598 44.946434,329.421875 
	C44.970562,330.528961 44.981297,331.268127 44.988819,332.404449 
	C45.935497,334.890350 46.885387,336.979156 47.889053,339.374207 
	C48.268024,340.439972 48.593216,341.199524 48.646488,342.020416 
	C48.585224,342.720215 48.795876,343.358673 49.070297,344.381775 
	C50.735142,350.192627 52.336224,355.618866 53.988434,361.330261 
	C54.354263,362.082611 54.668964,362.549805 55.151733,363.314453 
	C56.241024,364.315338 57.162239,365.018738 58.978924,366.405884 
	C58.978924,347.443207 58.978924,329.713257 58.981049,311.556091 
	C58.989098,309.419708 58.995022,307.710449 59.260536,305.718994 
	C60.014374,302.008453 60.771755,298.594330 60.957497,295.149353 
	C61.779823,279.898041 61.986237,264.598694 63.304733,249.393814 
	C64.281021,238.135300 64.733391,237.705368 54.220776,241.137283 
	C46.901005,243.526871 40.307850,243.365356 33.523388,240.061447 
	C32.216339,239.424911 30.564211,239.497009 28.643377,239.169189 
	C28.772705,240.794662 28.883766,241.590164 28.891621,242.386673 
	C28.942932,247.591675 28.971897,252.796921 28.758427,257.728271 
	C28.119669,255.869522 27.730656,254.284607 27.341640,252.699707 
	C26.407204,255.872101 24.062403,259.387665 29.291977,261.247772 
	C30.368090,265.331635 31.170238,269.165192 31.590576,272.998749 
	C30.190607,272.998718 29.172451,272.998718 28.154295,272.998688 
	C24.624857,270.612915 24.430450,266.636078 24.036539,263.106415 
	C23.327366,256.751770 23.302952,250.320694 23.324135,243.496063 
	C23.836123,243.083633 24.016453,243.096695 24.405350,243.370789 
	C25.006079,244.870331 25.398237,246.108856 25.790398,247.347382 
	C26.197773,247.278503 26.605148,247.209625 27.012524,247.140732 
	C27.012524,242.753479 27.012524,238.366226 27.331015,234.125793 
	C30.002707,235.474243 32.316006,236.763046 34.716320,237.861755 
	C43.208790,241.749054 53.652802,239.691116 61.212738,233.927689 
	C61.409218,233.863922 61.818443,233.807190 62.152748,233.853424 
	C63.341995,233.281326 64.196938,232.663010 65.276031,231.879761 
	C65.808060,231.259109 66.115936,230.803391 66.753693,230.279190 
	C67.752403,230.181808 68.421249,230.152893 69.090088,230.123993 
	C69.058327,232.925797 69.111710,235.731644 68.978745,238.528641 
	C68.588829,246.731033 68.096710,254.928528 67.695976,263.130463 
	C66.992363,277.531342 66.326927,291.934143 65.271042,306.251862 
	C64.664825,305.628693 64.433060,305.089752 64.201294,304.550842 
	C63.795723,304.586029 63.390156,304.621216 62.984589,304.656403 
	C62.984589,316.111298 62.984589,327.566162 62.718842,339.336975 
	C62.299847,345.716492 62.019516,351.780792 62.051525,357.843445 
	C62.065716,360.531647 62.711288,363.216461 63.119007,366.350525 
	C63.303585,367.989594 63.439419,369.181030 63.575249,370.372437 
	C63.575249,370.372437 63.520496,370.495544 63.193138,370.538208 
	C62.555244,370.985107 62.244709,371.389313 61.934181,371.793579 
	C60.891315,371.868378 59.848442,371.943176 58.234615,371.815247 
	C57.428402,371.380402 57.149796,371.226990 56.827850,371.152283 
	C56.827850,371.152283 56.955627,371.051727 56.792339,370.886169 
	C56.357990,370.515503 56.086929,370.310394 55.815865,370.105286 
z"/>
<path fill="#D7D7D7" opacity="1.000000" stroke="none" 
	d="
M21.725660,229.948868 
	C18.671574,220.708221 15.759992,211.417480 12.531921,202.238007 
	C6.874803,186.151260 12.593151,174.278900 25.994183,165.511795 
	C33.628399,160.517410 41.068947,158.092987 49.845863,160.495270 
	C52.248589,161.152908 54.507778,162.334991 56.579227,163.628281 
	C54.890072,163.982605 53.454521,163.985046 51.756523,163.708664 
	C47.840824,162.791489 44.187569,162.153137 40.534317,161.514771 
	C40.460732,161.981476 40.387142,162.448181 40.313557,162.914886 
	C43.873753,163.613495 47.433945,164.312088 51.249630,165.261505 
	C53.812885,165.687500 56.972137,169.769989 58.005219,164.095840 
	C61.646008,166.154266 65.286797,168.212677 68.755402,170.739838 
	C68.055977,171.787827 67.528740,172.367065 66.671021,172.953918 
	C65.900024,172.964005 65.459518,172.966476 64.664215,172.915482 
	C61.205750,171.567093 58.102077,170.272141 54.741421,168.734467 
	C52.965729,168.964432 51.447018,169.437134 49.609413,169.907150 
	C48.865330,169.901688 48.440132,169.898895 47.710812,169.655518 
	C44.100327,168.712509 40.793617,167.478455 37.487720,167.480606 
	C34.968544,167.482239 32.450390,169.052109 29.565760,169.941711 
	C26.805555,171.311890 24.411371,172.664673 21.715332,174.177872 
	C20.929201,175.551697 20.444929,176.765121 19.739353,178.159607 
	C19.323481,178.867722 19.128910,179.394745 18.630108,179.997696 
	C17.878731,180.712601 17.431587,181.351593 16.908566,182.326385 
	C16.214022,184.107101 15.595353,185.552017 14.727018,187.271866 
	C15.957191,194.166550 17.232533,200.840500 18.968609,207.392365 
	C21.140640,215.589462 23.691311,223.686264 25.733952,231.874405 
	C24.926453,231.951157 24.463531,231.979874 23.964495,231.720047 
	C23.194138,230.937302 22.459898,230.443085 21.725660,229.948868 
z"/>
<path fill="#CEB17E" opacity="1.000000" stroke="none" 
	d="
M28.183357,56.035538 
	C32.284882,42.629650 37.209721,29.669849 47.661446,19.654305 
	C48.332817,19.010956 48.703335,18.053654 49.956444,17.121197 
	C54.522358,16.977047 58.345627,16.954102 62.168900,16.931156 
	C62.168900,16.931154 62.078461,16.945198 62.020695,17.375574 
	C62.609310,26.201077 63.255695,34.596203 63.902077,42.991329 
	C63.902077,42.991329 64.137016,43.260609 64.054108,43.872040 
	C64.422211,46.332039 64.873222,48.180611 65.324234,50.029186 
	C65.324234,50.029186 65.100410,49.900997 65.113541,50.232891 
	C65.146072,51.731678 65.165482,52.898575 65.141624,54.394779 
	C61.932301,58.659729 61.604218,53.843510 60.026497,52.690453 
	C58.947781,42.454487 57.886986,32.578190 56.540451,22.741011 
	C56.422924,21.882416 53.639118,20.476639 53.425930,20.685410 
	C51.450520,22.619820 49.767838,24.853161 48.000076,26.999847 
	C48.000000,27.000000 47.999695,27.000124 47.689964,27.058807 
	C46.922241,27.746712 46.464241,28.375929 45.970238,29.294960 
	C45.621349,30.055149 45.308468,30.525522 44.646751,31.052086 
	C43.199772,33.072960 42.101631,35.037640 41.000984,37.250546 
	C40.998482,37.498768 40.994110,37.995224 40.656219,38.069717 
	C36.529709,41.624706 34.605476,45.866940 34.870750,51.360626 
	C32.531071,53.111687 30.357214,54.573612 28.183357,56.035538 
z"/>
<path fill="#C6C6C5" opacity="1.000000" stroke="none" 
	d="
M71.911362,71.634094 
	C70.826653,72.492523 69.821671,72.964783 68.820473,73.435265 
	C63.910625,61.570011 54.640129,56.819962 41.678436,59.263054 
	C34.688309,60.580589 28.350048,62.626717 25.579556,70.219612 
	C25.271156,71.064819 23.467609,71.364479 21.950787,71.887085 
	C22.521282,68.215248 23.498447,64.573479 24.869925,60.805218 
	C25.692492,61.544510 26.120745,62.410290 26.821117,63.826195 
	C31.111111,55.966694 38.007244,54.190372 45.902336,53.932682 
	C54.080067,53.665768 60.485073,57.079235 66.750984,62.329918 
	C66.607742,59.980862 66.464493,57.631802 66.321251,55.282745 
	C68.211189,60.604477 70.101135,65.926208 71.911362,71.634094 
z"/>
<path fill="#DBDBDB" opacity="1.000000" stroke="none" 
	d="
M67.001495,172.946304 
	C67.528740,172.367065 68.055977,171.787827 68.851646,171.077896 
	C75.114655,175.157379 77.562637,180.676102 77.133041,188.201752 
	C76.322617,202.398743 74.360344,216.303894 69.418701,229.954208 
	C68.421249,230.152893 67.752403,230.181808 66.646744,230.193115 
	C66.209915,230.175491 66.003944,230.003784 66.003754,229.669769 
	C66.001961,228.890503 66.000374,228.445251 66.003143,227.627899 
	C66.008438,226.511551 66.009354,225.767303 66.320282,224.831024 
	C67.748222,220.426422 68.866158,216.213867 69.990982,211.627594 
	C70.005402,210.506348 70.012932,209.758804 70.239952,208.820679 
	C70.634567,208.086990 70.809685,207.543869 70.991318,206.601562 
	C71.003258,205.137695 71.008675,204.073013 71.274887,202.729599 
	C71.975906,195.885880 72.922195,189.296738 72.610458,182.767670 
	C72.483505,180.108795 69.625305,177.580307 68.004883,174.996246 
	C68.000000,175.000000 68.008003,174.990021 67.893173,174.729797 
	C67.519386,173.961823 67.260437,173.454056 67.001495,172.946304 
z"/>
<path fill="#B3AFA9" opacity="1.000000" stroke="none" 
	d="
M66.461243,55.109840 
	C66.464493,57.631802 66.607742,59.980862 66.750984,62.329918 
	C60.485073,57.079235 54.080067,53.665768 45.902336,53.932682 
	C38.007244,54.190372 31.111111,55.966694 26.821117,63.826195 
	C26.120745,62.410290 25.692492,61.544510 25.144581,60.515884 
	C25.980272,59.114151 26.935619,57.875267 28.037163,56.335960 
	C30.357214,54.573612 32.531071,53.111687 35.226799,51.294678 
	C37.505985,50.297043 39.263302,49.654488 41.433979,49.013187 
	C43.225018,48.997200 44.602699,48.979954 46.336060,49.130116 
	C51.117245,50.551861 55.542755,51.806206 59.968262,53.060551 
	C61.604218,53.843510 61.932301,58.659729 65.430069,54.395180 
	C65.953812,54.089767 66.145844,54.113262 66.337883,54.136753 
	C66.606438,54.343948 66.694229,54.610676 66.461243,55.109840 
z"/>
<path fill="#DAC9A9" opacity="1.000000" stroke="none" 
	d="
M62.984589,339.021057 
	C62.984589,327.566162 62.984589,316.111298 62.984589,304.656403 
	C63.390156,304.621216 63.795723,304.586029 64.201294,304.550842 
	C64.433060,305.089752 64.664825,305.628693 64.941376,306.496674 
	C64.839691,319.046112 64.690262,331.266479 64.548973,343.486908 
	C64.516457,346.299744 64.511917,349.112915 64.194771,352.418518 
	C63.655262,353.112610 63.379402,353.227448 63.056778,352.764435 
	C63.025593,347.855865 63.005093,343.438477 62.984589,339.021057 
z"/>
<path fill="#DACDB2" opacity="1.000000" stroke="none" 
	d="
M41.980278,342.407715 
	C43.065132,344.183441 44.338440,346.297760 45.086906,348.583893 
	C46.493584,352.880585 47.597118,357.276489 48.712070,362.044464 
	C46.726627,357.807831 44.759537,353.193207 43.034260,348.489868 
	C42.380039,346.706390 42.282894,344.718597 41.980278,342.407715 
z"/>
<path fill="#D1B786" opacity="1.000000" stroke="none" 
	d="
M35.049553,296.978180 
	C34.286869,297.609436 33.524189,298.240662 32.467659,298.935730 
	C31.852386,297.578156 31.530960,296.156799 31.317047,294.115906 
	C31.636135,290.319061 31.847706,287.141815 32.413239,284.080811 
	C33.527981,288.457458 34.288769,292.717804 35.049553,296.978180 
z"/>
<path fill="#CFB689" opacity="1.000000" stroke="none" 
	d="
M32.059277,283.964539 
	C31.847706,287.141815 31.636135,290.319061 31.149979,293.777588 
	C29.587936,288.636261 28.300478,283.213684 27.401218,277.474701 
	C29.199682,278.440063 30.609941,279.721863 32.022350,281.374084 
	C32.036091,282.484528 32.047684,283.224518 32.059277,283.964539 
z"/>
<path fill="#A2947C" opacity="1.000000" stroke="none" 
	d="
M63.067459,353.255585 
	C63.379402,353.227448 63.655262,353.112610 64.117928,352.869049 
	C64.310379,358.535919 64.279945,364.244812 63.912384,370.163086 
	C63.439419,369.181030 63.303585,367.989594 63.134701,365.898987 
	C63.090252,361.085052 63.078854,357.170319 63.067459,353.255585 
z"/>
<path fill="#E0CEB3" opacity="1.000000" stroke="none" 
	d="
M63.930618,42.525433 
	C63.255695,34.596203 62.609310,26.201077 62.020569,17.329811 
	C62.705193,25.255629 63.332172,33.657581 63.930618,42.525433 
z"/>
<path fill="#D0CBC4" opacity="1.000000" stroke="none" 
	d="
M21.583399,230.352814 
	C22.459898,230.443085 23.194138,230.937302 23.982218,232.177628 
	C24.089632,236.319077 24.143206,239.714417 24.196781,243.109756 
	C24.016453,243.096695 23.836123,243.083633 23.386723,243.037018 
	C22.558817,238.921219 21.999979,234.838974 21.583399,230.352814 
z"/>
<path fill="#D1B786" opacity="1.000000" stroke="none" 
	d="
M32.020203,281.003662 
	C30.609941,279.721863 29.199682,278.440063 27.470062,277.078918 
	C27.435740,275.900665 27.720776,274.801758 28.080055,273.350769 
	C29.172451,272.998718 30.190607,272.998718 31.599916,273.443085 
	C32.000782,276.259521 32.010494,278.631592 32.020203,281.003662 
z"/>
<path fill="#E0CEB3" opacity="1.000000" stroke="none" 
	d="
M62.093254,16.535629 
	C58.345627,16.954102 54.522358,16.977047 50.279297,16.987892 
	C53.968082,13.248660 59.048473,12.899461 62.093254,16.535629 
z"/>
<path fill="#CECECE" opacity="1.000000" stroke="none" 
	d="
M57.806190,164.025879 
	C56.972137,169.769989 53.812885,165.687500 51.377769,165.051453 
	C51.458824,164.328659 51.715008,164.127625 52.018970,163.987488 
	C53.454521,163.985046 54.890072,163.982605 56.755768,163.955994 
	C57.185909,163.931808 57.607159,163.955933 57.806190,164.025879 
z"/>
<path fill="#C6C6C5" opacity="1.000000" stroke="none" 
	d="
M20.634720,75.267960 
	C21.447474,75.593460 22.076075,76.160683 22.704678,76.727898 
	C21.927532,77.163467 21.150385,77.599037 20.042179,78.054596 
	C19.957603,77.219620 20.204086,76.364655 20.634720,75.267960 
z"/>
<path fill="#C6C6C5" opacity="1.000000" stroke="none" 
	d="
M66.454964,53.848579 
	C66.145844,54.113262 65.953812,54.089767 65.473328,54.065868 
	C65.165482,52.898575 65.146072,51.731678 65.185272,50.125717 
	C65.686607,50.977905 66.129326,52.269157 66.454964,53.848579 
z"/>
<path fill="#E0CEB3" opacity="1.000000" stroke="none" 
	d="
M65.374374,49.582710 
	C64.873222,48.180611 64.422211,46.332039 64.014839,44.046349 
	C64.513824,45.451569 64.969170,47.293903 65.374374,49.582710 
z"/>
<path fill="#DACDB2" opacity="1.000000" stroke="none" 
	d="
M48.628822,362.509644 
	C48.994644,362.714752 49.445385,363.284424 49.915039,364.245422 
	C49.527210,364.049286 49.120476,363.461761 48.628822,362.509644 
z"/>
<path fill="#A2947C" opacity="1.000000" stroke="none" 
	d="
M62.191200,371.763092 
	C62.244709,371.389313 62.555244,370.985107 63.131104,370.564484 
	C63.080360,370.942932 62.764294,371.337769 62.191200,371.763092 
z"/>
<path fill="#A2947C" opacity="1.000000" stroke="none" 
	d="
M55.897858,370.361206 
	C56.086929,370.310394 56.357990,370.515503 56.744942,370.952209 
	C56.567173,370.994934 56.273510,370.806030 55.897858,370.361206 
z"/>
<path fill="#A2947C" opacity="1.000000" stroke="none" 
	d="
M56.927326,371.414001 
	C57.149796,371.226990 57.428402,371.380402 57.842117,371.774841 
	C57.689316,371.850037 57.358059,371.762878 56.927326,371.414001 
z"/>
<path fill="#F9F9F9" opacity="1.000000" stroke="none" 
	d="
M25.957472,81.948860 
	C25.973375,81.519905 25.989277,81.090958 26.360596,80.285629 
	C29.591963,76.990257 32.437897,74.040932 35.349808,71.158249 
	C42.463024,64.116425 54.759197,65.347778 60.398907,73.668182 
	C67.930183,84.779259 69.366913,97.569298 68.593254,110.273277 
	C68.118248,118.073212 64.197510,125.403664 57.556709,130.720474 
	C48.783031,137.744919 39.681950,138.607788 29.944258,133.043503 
	C28.123154,131.180466 26.302050,129.317444 24.228107,126.871552 
	C21.964693,122.509468 19.954115,118.730240 17.943539,114.951012 
	C17.945175,114.215782 17.946814,113.480553 18.212109,112.107063 
	C19.143917,109.286064 20.108223,107.143379 20.410154,104.911110 
	C20.852556,101.640259 20.820660,98.305260 20.990879,94.997597 
	C20.996023,94.555984 21.001167,94.114365 21.360834,93.257721 
	C23.129395,89.211418 24.543432,85.580139 25.957472,81.948860 
M63.943470,109.424583 
	C63.647812,108.954247 63.352154,108.483910 63.059780,107.255852 
	C63.042606,106.497864 63.025433,105.739883 63.119511,104.230415 
	C65.893745,97.384056 65.243210,92.701263 60.899612,88.278793 
	C60.005798,83.909813 57.478905,80.602135 53.336670,79.294273 
	C49.378784,78.044624 45.125889,77.729340 40.275200,77.020035 
	C38.883423,77.813728 37.369034,78.450500 36.119785,79.426598 
	C28.055447,85.727654 26.968571,94.663155 26.325886,104.143280 
	C22.641285,108.670464 24.415281,112.783287 31.184814,115.688797 
	C32.454906,116.116043 33.725002,116.543289 35.141865,117.661179 
	C40.085903,122.120384 44.675869,123.159485 49.083458,120.946419 
	C53.081535,118.938980 57.293907,117.299507 61.082561,114.963768 
	C62.528236,114.072502 63.058487,111.696396 63.943470,109.424583 
z"/>
<path fill="#EFEFEF" opacity="1.000000" stroke="none" 
	d="
M30.010611,133.388474 
	C39.681950,138.607788 48.783031,137.744919 57.556709,130.720474 
	C64.197510,125.403664 68.118248,118.073212 68.593254,110.273277 
	C69.366913,97.569298 67.930183,84.779259 60.398907,73.668182 
	C54.759197,65.347778 42.463024,64.116425 35.349808,71.158249 
	C32.437897,74.040932 29.591963,76.990257 26.377588,79.964127 
	C28.671106,75.867188 30.818029,71.285805 34.035755,67.652824 
	C40.775867,60.042873 58.273659,63.221256 63.377327,72.835228 
	C70.675018,86.582184 73.695114,101.347260 69.799179,116.468330 
	C66.566414,129.015488 54.511082,140.572647 39.248447,138.768021 
	C36.037746,138.388382 33.126301,135.477798 30.010611,133.388474 
z"/>
<path fill="#EFEFEF" opacity="1.000000" stroke="none" 
	d="
M20.675318,95.190918 
	C20.820660,98.305260 20.852556,101.640259 20.410154,104.911110 
	C20.108223,107.143379 19.143917,109.286064 18.212559,111.739441 
	C18.752819,106.468140 19.556288,100.926193 20.675318,95.190918 
z"/>
<path fill="#EFEFEF" opacity="1.000000" stroke="none" 
	d="
M17.617577,115.043999 
	C19.954115,118.730240 21.964693,122.509468 23.977682,126.658463 
	C18.406303,124.424263 15.659969,119.541641 17.617577,115.043999 
z"/>
<path fill="#EFEFEF" opacity="1.000000" stroke="none" 
	d="
M25.616547,82.040794 
	C24.543432,85.580139 23.129395,89.211418 21.369110,92.926590 
	C22.440449,89.384567 23.858034,85.758652 25.616547,82.040794 
z"/>
<path fill="#F9F9F9" opacity="1.000000" stroke="none" 
	d="
M54.998405,168.977203 
	C58.102077,170.272141 61.205750,171.567093 64.730804,173.252228 
	C66.104126,174.091614 67.056068,174.540817 68.008003,174.990021 
	C68.008003,174.990021 68.000000,175.000000 68.011505,175.376282 
	C68.681213,178.167755 69.339417,180.582977 69.734886,183.314056 
	C69.152443,187.401779 69.144882,191.231888 68.453621,194.934372 
	C66.496582,205.416489 64.229530,215.840469 62.191456,226.308167 
	C62.032444,227.124847 62.703770,228.103180 63.019970,229.292221 
	C63.337360,230.054443 63.623962,230.530823 63.910431,231.237076 
	C63.910301,231.466934 63.916019,231.926605 63.618797,231.992310 
	C62.820534,232.641083 62.319492,233.224136 61.818443,233.807190 
	C61.818443,233.807190 61.409218,233.863922 60.813408,233.919159 
	C58.151199,234.338150 56.084801,234.701904 53.855587,234.850952 
	C53.115952,234.809052 52.539131,234.981873 51.500500,235.151062 
	C46.706177,235.148819 42.373661,235.150223 37.810608,234.877563 
	C36.658875,234.447250 35.737690,234.290970 34.485779,234.083054 
	C33.094894,233.707108 32.034737,233.382797 30.934650,232.698059 
	C29.639763,230.424973 27.837860,228.671341 27.227121,226.571304 
	C24.919662,218.637054 23.217087,210.525299 20.857252,202.608414 
	C19.272734,197.292618 16.962318,192.193176 14.976683,186.996933 
	C15.595353,185.552017 16.214022,184.107101 17.224424,182.269501 
	C18.055553,181.225128 18.494949,180.573456 18.934341,179.921783 
	C19.128910,179.394745 19.323481,178.867722 20.003574,178.056152 
	C20.994123,177.516647 21.499149,177.261658 22.004101,177.413055 
	C22.107611,180.818344 22.039537,184.737808 25.833950,184.545334 
	C27.672329,184.452087 29.922869,180.931122 30.897778,178.521439 
	C31.934547,175.958893 31.682800,172.875031 32.339897,169.859756 
	C35.343887,169.926788 37.999481,170.296417 40.660072,170.336792 
	C43.108902,170.373962 45.563103,170.057053 48.014938,169.896118 
	C48.440132,169.898895 48.865330,169.901688 49.935791,170.072495 
	C52.053509,169.819412 53.525955,169.398315 54.998405,168.977203 
z"/>
<path fill="#F4E1B1" opacity="1.000000" stroke="none" 
	d="
M53.937305,361.045074 
	C52.336224,355.618866 50.735142,350.192627 49.075977,344.041626 
	C48.984730,342.864258 48.951569,342.411652 48.918404,341.959045 
	C48.593216,341.199524 48.268024,340.439972 47.930801,338.996338 
	C47.295498,336.203705 46.672222,334.095123 46.283768,331.726532 
	C46.018993,329.972931 45.519398,328.479401 44.862476,326.774170 
	C44.143940,325.040070 43.582729,323.517639 43.021519,321.995209 
	C43.015289,321.554047 43.009056,321.112915 43.008286,319.964630 
	C43.018017,318.504730 43.022293,317.751923 43.246040,316.795258 
	C43.300411,315.727417 43.135319,314.863464 42.970131,313.629883 
	C42.961533,312.521057 42.953030,311.781860 42.956276,310.703552 
	C42.634224,309.576141 42.300419,308.787872 41.967377,307.629852 
	C41.960205,306.520721 41.952267,305.781311 41.959381,304.630737 
	C40.995731,301.471161 40.017036,298.722748 39.035805,295.645020 
	C39.030457,294.876678 39.027645,294.437622 39.266388,293.728821 
	C39.603905,293.144958 39.817711,292.815430 39.778885,292.518982 
	C37.995182,278.899628 36.178688,265.284607 34.392895,251.665543 
	C33.870327,247.680267 35.904747,245.991852 39.896229,246.390366 
	C43.491592,246.749329 47.169651,246.817017 50.765472,246.497742 
	C55.206619,246.103424 57.914680,247.930298 57.945736,252.377243 
	C57.969948,255.843903 57.297073,259.315369 57.320229,262.782135 
	C57.354111,267.855530 57.733517,272.926605 57.970104,278.435303 
	C57.974884,280.908905 57.975231,282.945892 57.598465,285.109253 
	C56.815834,286.909607 56.137592,288.569916 56.052746,290.260040 
	C55.713371,297.020172 55.430023,303.788300 55.362450,310.555817 
	C55.231968,323.623260 55.254349,336.692352 55.259346,349.760742 
	C55.259502,350.170990 55.765972,350.581085 56.030125,351.446533 
	C56.025673,354.936462 56.027504,357.971069 55.680725,361.003906 
	C54.867180,361.016418 54.402245,361.030731 53.937305,361.045074 
z"/>
<path fill="#DFC795" opacity="1.000000" stroke="none" 
	d="
M42.944523,311.042664 
	C42.953030,311.781860 42.961533,312.521057 42.751911,313.834290 
	C42.698044,315.271912 42.862309,316.135529 43.026569,316.999146 
	C43.022293,317.751923 43.018017,318.504730 42.998802,319.633850 
	C42.028278,318.239685 40.717876,316.569550 40.183334,314.679932 
	C38.549419,308.904114 37.213902,303.043884 35.405922,297.097351 
	C34.288769,292.717804 33.527981,288.457458 32.413239,284.080811 
	C32.047684,283.224518 32.036091,282.484528 32.022354,281.374084 
	C32.010494,278.631592 32.000782,276.259521 31.981728,273.443115 
	C31.170238,269.165192 30.368090,265.331635 29.290077,260.873352 
	C29.012197,259.499786 29.010183,258.750946 29.008167,258.002075 
	C28.971897,252.796921 28.942932,247.591675 28.891621,242.386673 
	C28.883766,241.590164 28.772705,240.794662 28.643377,239.169189 
	C30.564211,239.497009 32.216339,239.424911 33.523388,240.061447 
	C40.307850,243.365356 46.901005,243.526871 54.220776,241.137283 
	C64.733391,237.705368 64.281021,238.135300 63.304733,249.393814 
	C61.986237,264.598694 61.779823,279.898041 60.957497,295.149353 
	C60.771755,298.594330 60.014374,302.008453 58.993935,305.400208 
	C58.303680,298.570068 58.139633,291.776489 57.975582,284.982910 
	C57.975231,282.945892 57.974884,280.908905 58.242645,278.125000 
	C59.338974,267.841064 60.330742,258.314270 60.927361,248.762772 
	C61.231892,243.887375 58.131641,242.481308 53.421825,243.283829 
	C48.256550,244.163925 42.762218,244.359711 37.593536,243.605164 
	C32.881573,242.917297 31.680531,242.891754 32.073383,247.842636 
	C32.935455,258.706818 33.989136,269.567627 35.421871,280.369171 
	C36.034824,284.990295 37.789135,289.460052 39.024830,293.998566 
	C39.027645,294.437622 39.030457,294.876678 39.021812,296.066559 
	C39.988346,299.558899 40.966335,302.300385 41.944328,305.041901 
	C41.952267,305.781311 41.960205,306.520721 41.748276,307.847107 
	C42.000443,309.303619 42.472481,310.173126 42.944523,311.042664 
z"/>
<path fill="#EAD4A4" opacity="1.000000" stroke="none" 
	d="
M57.598465,285.109253 
	C58.139633,291.776489 58.303680,298.570068 58.734337,305.682434 
	C58.995022,307.710449 58.989098,309.419708 58.603588,311.681946 
	C57.816956,313.917297 57.078049,315.595703 57.057827,317.282715 
	C56.944111,326.770355 57.051682,336.260559 56.960003,345.748688 
	C56.943089,347.499023 56.358803,349.243866 56.036400,350.991241 
	C55.765972,350.581085 55.259502,350.170990 55.259346,349.760742 
	C55.254349,336.692352 55.231968,323.623260 55.362450,310.555817 
	C55.430023,303.788300 55.713371,297.020172 56.052746,290.260040 
	C56.137592,288.569916 56.815834,286.909607 57.598465,285.109253 
z"/>
<path fill="#DFC795" opacity="1.000000" stroke="none" 
	d="
M56.030121,351.446533 
	C56.358803,349.243866 56.943089,347.499023 56.960003,345.748688 
	C57.051682,336.260559 56.944111,326.770355 57.057827,317.282715 
	C57.078049,315.595703 57.816956,313.917297 58.601463,312.109100 
	C58.978924,329.713257 58.978924,347.443207 58.978924,366.405884 
	C57.162239,365.018738 56.241024,364.315338 55.428467,363.267548 
	C55.701195,362.284027 55.865261,361.644867 56.029327,361.005707 
	C56.027504,357.971069 56.025673,354.936462 56.030121,351.446533 
z"/>
<path fill="#D0CBC4" opacity="1.000000" stroke="none" 
	d="
M30.974579,233.058472 
	C32.034737,233.382797 33.094894,233.707108 34.588844,234.378601 
	C36.028805,234.867737 37.034977,235.009674 38.041149,235.151611 
	C42.373661,235.150223 46.706177,235.148819 51.677021,235.330826 
	C52.883038,235.364700 53.450722,235.215195 54.018406,235.065674 
	C56.084801,234.701904 58.151199,234.338150 60.616928,233.982925 
	C53.652802,239.691116 43.208790,241.749054 34.716320,237.861755 
	C32.316006,236.763046 30.002707,235.474243 27.291801,233.825851 
	C26.900295,232.977051 26.866491,232.575012 27.191235,232.159912 
	C28.691380,232.450729 29.832979,232.754608 30.974579,233.058472 
z"/>
<path fill="#CEB27C" opacity="1.000000" stroke="none" 
	d="
M26.832687,232.172974 
	C26.866491,232.575012 26.900295,232.977051 26.973310,233.679031 
	C27.012524,238.366226 27.012524,242.753479 27.012524,247.140732 
	C26.605148,247.209625 26.197773,247.278503 25.790398,247.347382 
	C25.398237,246.108856 25.006079,244.870331 24.405350,243.370789 
	C24.143206,239.714417 24.089632,236.319077 24.018333,232.466156 
	C24.463531,231.979874 24.926453,231.951157 25.916981,231.973129 
	C26.444588,232.023804 26.832687,232.172974 26.832687,232.172974 
z"/>
<path fill="#CCAB76" opacity="1.000000" stroke="none" 
	d="
M63.056778,352.764435 
	C63.078854,357.170319 63.090252,361.085052 63.085953,365.451294 
	C62.711288,363.216461 62.065716,360.531647 62.051525,357.843445 
	C62.019516,351.780792 62.299847,345.716492 62.718842,339.336975 
	C63.005093,343.438477 63.025593,347.855865 63.056778,352.764435 
z"/>
<path fill="#CFB480" opacity="1.000000" stroke="none" 
	d="
M28.758427,257.728271 
	C29.010183,258.750946 29.012197,259.499786 29.016113,260.623077 
	C24.062403,259.387665 26.407204,255.872101 27.341640,252.699707 
	C27.730656,254.284607 28.119669,255.869522 28.758427,257.728271 
z"/>
<path fill="#DFC795" opacity="1.000000" stroke="none" 
	d="
M42.769569,322.248047 
	C43.582729,323.517639 44.143940,325.040070 44.851704,327.118835 
	C44.976517,328.134766 44.954781,328.594360 44.933044,329.053955 
	C44.127899,326.869598 43.322762,324.685272 42.769569,322.248047 
z"/>
<path fill="#DFC795" opacity="1.000000" stroke="none" 
	d="
M46.048946,331.986572 
	C46.672222,334.095123 47.295498,336.203705 47.877029,338.690094 
	C46.885387,336.979156 45.935497,334.890350 45.253098,332.399353 
	C45.696709,331.993622 45.872826,331.990082 46.048946,331.986572 
z"/>
<path fill="#EAD4A4" opacity="1.000000" stroke="none" 
	d="
M46.283768,331.726532 
	C45.872826,331.990082 45.696709,331.993622 45.256310,332.002258 
	C44.981297,331.268127 44.970562,330.528961 44.946434,329.421875 
	C44.954781,328.594360 44.976517,328.134766 45.009029,327.330505 
	C45.519398,328.479401 46.018993,329.972931 46.283768,331.726532 
z"/>
<path fill="#EAD4A4" opacity="1.000000" stroke="none" 
	d="
M55.680725,361.003906 
	C55.865261,361.644867 55.701195,362.284027 55.260391,362.970093 
	C54.668964,362.549805 54.354263,362.082611 53.988434,361.330261 
	C54.402245,361.030731 54.867180,361.016418 55.680725,361.003906 
z"/>
<path fill="#D0CBC4" opacity="1.000000" stroke="none" 
	d="
M62.152748,233.853424 
	C62.319492,233.224136 62.820534,232.641083 63.902626,232.027863 
	C64.673080,232.013367 64.862488,232.029022 65.051880,232.044693 
	C64.196938,232.663010 63.341995,233.281326 62.152748,233.853424 
z"/>
<path fill="#DBDBDB" opacity="1.000000" stroke="none" 
	d="
M65.276031,231.879761 
	C64.862488,232.029022 64.673080,232.013367 64.199852,231.962158 
	C63.916019,231.926605 63.910301,231.466934 64.120796,231.021362 
	C64.888840,230.385117 65.446388,230.194443 66.003937,230.003784 
	C66.003944,230.003784 66.209915,230.175491 66.316864,230.261566 
	C66.115936,230.803391 65.808060,231.259109 65.276031,231.879761 
z"/>
<path fill="#DFC795" opacity="1.000000" stroke="none" 
	d="
M48.646484,342.020416 
	C48.951569,342.411652 48.984730,342.864258 49.012215,343.656982 
	C48.795876,343.358673 48.585224,342.720215 48.646484,342.020416 
z"/>
<path fill="#EDEDED" opacity="1.000000" stroke="none" 
	d="
M27.191235,232.159912 
	C26.832687,232.172974 26.444588,232.023804 26.261559,231.925079 
	C23.691311,223.686264 21.140640,215.589462 18.968609,207.392365 
	C17.232533,200.840500 15.957191,194.166550 14.727016,187.271866 
	C16.962318,192.193176 19.272734,197.292618 20.857252,202.608414 
	C23.217087,210.525299 24.919662,218.637054 27.227121,226.571304 
	C27.837860,228.671341 29.639763,230.424973 30.934650,232.698074 
	C29.832979,232.754608 28.691380,232.450729 27.191235,232.159912 
z"/>
<path fill="#FDFDFD" opacity="1.000000" stroke="none" 
	d="
M31.993679,170.018799 
	C31.682800,172.875031 31.934547,175.958893 30.897778,178.521439 
	C29.922869,180.931122 27.672329,184.452087 25.833950,184.545334 
	C22.039537,184.737808 22.107611,180.818344 22.006815,177.039093 
	C22.012131,175.511658 22.014656,174.764542 22.017185,174.017456 
	C24.411371,172.664673 26.805555,171.311890 29.909546,169.970062 
	C31.077459,169.993591 31.535570,170.006195 31.993679,170.018799 
z"/>
<path fill="#EDEDED" opacity="1.000000" stroke="none" 
	d="
M32.339897,169.859756 
	C31.535570,170.006195 31.077459,169.993591 30.275566,169.952667 
	C32.450390,169.052109 34.968544,167.482239 37.487720,167.480606 
	C40.793617,167.478455 44.100327,168.712509 47.710812,169.655518 
	C45.563103,170.057053 43.108902,170.373962 40.660072,170.336792 
	C37.999481,170.296417 35.343887,169.926788 32.339897,169.859756 
z"/>
<path fill="#CCCCCC" opacity="1.000000" stroke="none" 
	d="
M51.756523,163.708649 
	C51.715008,164.127625 51.458824,164.328659 51.122276,164.800629 
	C47.433945,164.312088 43.873753,163.613495 40.313557,162.914886 
	C40.387142,162.448181 40.460732,161.981476 40.534317,161.514771 
	C44.187569,162.153137 47.840824,162.791489 51.756523,163.708649 
z"/>
<path fill="#EDEDED" opacity="1.000000" stroke="none" 
	d="
M54.741417,168.734467 
	C53.525955,169.398315 52.053509,169.819412 50.254684,170.075165 
	C51.447018,169.437134 52.965729,168.964432 54.741417,168.734467 
z"/>
<path fill="#EDEDED" opacity="1.000000" stroke="none" 
	d="
M21.715328,174.177856 
	C22.014656,174.764542 22.012131,175.511658 22.006889,176.632721 
	C21.499149,177.261658 20.994123,177.516647 20.224876,177.875076 
	C20.444929,176.765121 20.929201,175.551697 21.715328,174.177856 
z"/>
<path fill="#EDEDED" opacity="1.000000" stroke="none" 
	d="
M67.893173,174.729797 
	C67.056068,174.540817 66.104126,174.091614 65.085594,173.305679 
	C65.459518,172.966476 65.900024,172.964005 66.671021,172.953918 
	C67.260437,173.454056 67.519386,173.961823 67.893173,174.729797 
z"/>
<path fill="#EDEDED" opacity="1.000000" stroke="none" 
	d="
M18.630108,179.997696 
	C18.494949,180.573456 18.055553,181.225128 17.300301,181.933685 
	C17.431587,181.351593 17.878731,180.712601 18.630108,179.997696 
z"/>
<path fill="#DFBE87" opacity="1.000000" stroke="none" 
	d="
M45.980377,48.962711 
	C44.602699,48.979954 43.225018,48.997200 41.258423,48.700226 
	C40.413559,46.472462 39.938187,44.555214 39.970375,42.646526 
	C39.996613,41.090778 40.629963,39.545273 40.994110,37.995224 
	C40.994110,37.995224 40.998482,37.498768 41.334335,37.179008 
	C42.778660,34.904797 43.887123,32.950348 44.995590,30.995895 
	C45.308468,30.525522 45.621349,30.055149 46.278931,29.234711 
	C47.082317,28.256474 47.541004,27.628298 47.999695,27.000122 
	C47.999695,27.000124 48.000000,27.000000 48.301872,26.837246 
	C50.647060,25.761909 53.555347,21.824640 54.610542,26.398922 
	C55.994011,32.396255 55.918625,38.814995 55.795052,45.039074 
	C55.733826,48.122807 53.850857,49.994545 50.512897,47.138752 
	C48.176483,45.139828 46.607594,46.148849 45.980377,48.962711 
z"/>
<path fill="#D7B883" opacity="1.000000" stroke="none" 
	d="
M46.336060,49.130116 
	C46.607594,46.148849 48.176483,45.139828 50.512897,47.138752 
	C53.850857,49.994545 55.733826,48.122807 55.795052,45.039074 
	C55.918625,38.814995 55.994011,32.396255 54.610542,26.398922 
	C53.555347,21.824640 50.647060,25.761909 48.301949,26.837093 
	C49.767838,24.853161 51.450520,22.619820 53.425930,20.685410 
	C53.639118,20.476639 56.422924,21.882416 56.540451,22.741011 
	C57.886986,32.578190 58.947781,42.454487 60.026497,52.690453 
	C55.542755,51.806206 51.117245,50.551861 46.336060,49.130116 
z"/>
<path fill="#D7B883" opacity="1.000000" stroke="none" 
	d="
M40.656219,38.069717 
	C40.629963,39.545273 39.996613,41.090778 39.970375,42.646526 
	C39.938187,44.555214 40.413559,46.472462 40.845062,48.698971 
	C39.263302,49.654488 37.505985,50.297043 35.392624,51.005547 
	C34.605476,45.866940 36.529709,41.624706 40.656219,38.069717 
z"/>
<path fill="#D7B883" opacity="1.000000" stroke="none" 
	d="
M44.646751,31.052086 
	C43.887123,32.950348 42.778660,34.904797 41.336842,36.930786 
	C42.101631,35.037640 43.199772,33.072960 44.646751,31.052086 
z"/>
<path fill="#D7B883" opacity="1.000000" stroke="none" 
	d="
M47.689964,27.058807 
	C47.541004,27.628298 47.082317,28.256474 46.314934,28.944897 
	C46.464241,28.375929 46.922241,27.746712 47.689964,27.058807 
z"/>
<path fill="#EDEDED" opacity="1.000000" stroke="none" 
	d="
M62.989182,229.006393 
	C62.703770,228.103180 62.032444,227.124847 62.191456,226.308167 
	C64.229530,215.840469 66.496582,205.416489 68.453621,194.934372 
	C69.144882,191.231888 69.152443,187.401779 70.000511,183.632156 
	C70.621841,188.070267 70.706833,192.506348 70.811371,196.941956 
	C70.859039,198.964554 70.945312,200.986252 71.014084,203.008347 
	C71.008675,204.073013 71.003258,205.137695 70.717209,206.644928 
	C70.297882,207.728760 70.159172,208.370010 70.020462,209.011276 
	C70.012932,209.758804 70.005402,210.506348 69.638550,211.712158 
	C68.189583,216.454666 67.099930,220.738861 66.010269,225.023071 
	C66.009354,225.767303 66.008438,226.511551 65.685577,227.664246 
	C64.572151,228.383957 63.780666,228.695175 62.989182,229.006393 
z"/>
<path fill="#EDEDED" opacity="1.000000" stroke="none" 
	d="
M71.274879,202.729599 
	C70.945312,200.986252 70.859039,198.964554 70.811371,196.941956 
	C70.706833,192.506348 70.621841,188.070267 70.263245,183.316284 
	C69.339417,180.582977 68.681213,178.167755 68.016388,175.372528 
	C69.625305,177.580307 72.483505,180.108795 72.610458,182.767670 
	C72.922195,189.296738 71.975906,195.885880 71.274879,202.729599 
z"/>
<path fill="#EDEDED" opacity="1.000000" stroke="none" 
	d="
M66.320282,224.831024 
	C67.099930,220.738861 68.189583,216.454666 69.631668,212.085892 
	C68.866158,216.213867 67.748222,220.426422 66.320282,224.831024 
z"/>
<path fill="#EDEDED" opacity="1.000000" stroke="none" 
	d="
M63.019970,229.292221 
	C63.780666,228.695175 64.572151,228.383957 65.681213,228.036362 
	C66.000374,228.445251 66.001961,228.890503 66.003746,229.669769 
	C65.446388,230.194443 64.888840,230.385117 64.120926,230.791504 
	C63.623962,230.530823 63.337360,230.054443 63.019970,229.292221 
z"/>
<path fill="#EDEDED" opacity="1.000000" stroke="none" 
	d="
M70.239960,208.820679 
	C70.159172,208.370010 70.297882,207.728760 70.710693,207.044128 
	C70.809685,207.543869 70.634567,208.086990 70.239960,208.820679 
z"/>
<path fill="#F5F5F5" opacity="1.000000" stroke="none" 
	d="
M26.999771,103.995071 
	C26.968571,94.663155 28.055447,85.727654 36.119785,79.426598 
	C37.369034,78.450500 38.883423,77.813728 40.570103,77.340630 
	C39.236095,79.281296 37.105679,80.637390 36.084515,82.577370 
	C34.068085,86.408150 32.311977,90.462013 31.135010,94.618118 
	C30.360670,97.352455 32.299030,98.922310 35.221287,98.701271 
	C42.702103,98.135437 50.193363,97.652695 57.646114,96.826912 
	C58.835110,96.695175 60.333706,95.151085 60.813301,93.919006 
	C61.376213,92.472885 60.982250,90.654297 61.003296,88.997253 
	C65.243210,92.701263 65.893745,97.384056 62.743561,104.438156 
	C57.729214,101.330917 52.898754,101.206703 47.880775,103.727699 
	C47.018997,104.160652 46.081158,104.700432 45.165459,104.726036 
	C39.114239,104.895210 33.059467,104.937355 27.004044,104.764297 
	C27.001411,104.336845 27.000591,104.165962 26.999771,103.995071 
z"/>
<path fill="#F1F1F1" opacity="1.000000" stroke="none" 
	d="
M60.951454,88.638023 
	C60.982250,90.654297 61.376213,92.472885 60.813301,93.919006 
	C60.333706,95.151085 58.835110,96.695175 57.646114,96.826912 
	C50.193363,97.652695 42.702103,98.135437 35.221287,98.701271 
	C32.299030,98.922310 30.360670,97.352455 31.135010,94.618118 
	C32.311977,90.462013 34.068085,86.408150 36.084515,82.577370 
	C37.105679,80.637390 39.236095,79.281296 40.933838,77.332291 
	C45.125889,77.729340 49.378784,78.044624 53.336670,79.294273 
	C57.478905,80.602135 60.005798,83.909813 60.951454,88.638023 
M49.771610,92.567879 
	C50.576927,92.370270 51.497417,92.356628 52.164860,91.938789 
	C53.825066,90.899437 56.618027,89.732925 56.673737,88.513214 
	C56.761105,86.600494 55.449841,83.617813 53.872002,82.847404 
	C50.719536,81.308144 46.993519,80.344536 43.487839,80.294243 
	C39.899998,80.242775 36.842747,85.185753 36.991833,89.061470 
	C37.191719,94.257866 41.061943,92.772217 43.951416,92.968002 
	C45.598198,93.079590 47.266415,92.874878 49.771610,92.567879 
z"/>
<path fill="#DFDFDF" opacity="1.000000" stroke="none" 
	d="
M27.005856,105.020874 
	C33.059467,104.937355 39.114239,104.895210 45.165459,104.726036 
	C46.081158,104.700432 47.018997,104.160652 47.880775,103.727699 
	C52.898754,101.206703 57.729214,101.330917 62.687939,104.813896 
	C63.025433,105.739883 63.042606,106.497864 62.710274,107.701721 
	C61.572136,109.764458 60.783508,111.381317 59.661583,112.997147 
	C58.550339,112.665810 57.772385,112.335495 56.831718,111.701248 
	C54.630199,109.708267 52.687431,106.739311 50.534004,106.577721 
	C44.795395,106.147102 39.406986,107.704689 36.721298,114.145462 
	C35.961361,115.190536 35.478230,116.080528 34.995094,116.970528 
	C33.725002,116.543289 32.454906,116.116043 31.304043,115.223564 
	C31.681467,114.557976 31.879797,114.309776 32.351921,113.938080 
	C34.101513,111.912720 35.517437,109.962990 37.659279,107.013680 
	C34.121883,107.013680 32.055054,107.013680 29.644413,106.999702 
	C28.535688,106.330772 27.770773,105.675819 27.005856,105.020874 
z"/>
<path fill="#F0F0F0" opacity="1.000000" stroke="none" 
	d="
M35.068481,117.315857 
	C35.478230,116.080528 35.961361,115.190536 36.996094,114.401733 
	C41.992443,116.181793 46.187618,116.735397 50.472347,113.572159 
	C52.129040,112.349083 54.790646,112.487198 56.994431,112.005173 
	C57.772385,112.335495 58.550339,112.665810 59.977615,112.938225 
	C61.753269,111.919212 62.879601,110.958099 64.005928,109.996986 
	C63.058487,111.696396 62.528236,114.072502 61.082561,114.963768 
	C57.293907,117.299507 53.081535,118.938980 49.083458,120.946419 
	C44.675869,123.159485 40.085903,122.120384 35.068481,117.315857 
z"/>
<path fill="#F1F1F1" opacity="1.000000" stroke="none" 
	d="
M32.018257,114.013725 
	C31.879797,114.309776 31.681467,114.557976 31.216021,114.879189 
	C24.415281,112.783287 22.641285,108.670464 26.662828,104.069176 
	C27.000591,104.165962 27.001411,104.336845 27.004044,104.764297 
	C27.770773,105.675819 28.535688,106.330772 29.648775,107.379250 
	C30.670715,109.853088 31.344484,111.933411 32.018257,114.013725 
z"/>
<path fill="#EFEFEF" opacity="1.000000" stroke="none" 
	d="
M63.974701,109.710785 
	C62.879601,110.958099 61.753269,111.919212 60.310905,112.939255 
	C60.783508,111.381317 61.572136,109.764458 62.708633,108.080582 
	C63.352154,108.483910 63.647812,108.954247 63.974701,109.710785 
z"/>
<path fill="#EDEDED" opacity="1.000000" stroke="none" 
	d="
M37.810608,234.877563 
	C37.034977,235.009674 36.028805,234.867737 34.919567,234.430237 
	C35.737690,234.290970 36.658875,234.447250 37.810608,234.877563 
z"/>
<path fill="#EDEDED" opacity="1.000000" stroke="none" 
	d="
M53.855587,234.850952 
	C53.450722,235.215195 52.883038,235.364700 52.138832,235.334457 
	C52.539131,234.981873 53.115952,234.809052 53.855587,234.850952 
z"/>
<path fill="#EAD4A4" opacity="1.000000" stroke="none" 
	d="
M39.266388,293.728821 
	C37.789135,289.460052 36.034824,284.990295 35.421871,280.369171 
	C33.989136,269.567627 32.935455,258.706818 32.073383,247.842636 
	C31.680531,242.891754 32.881573,242.917297 37.593536,243.605164 
	C42.762218,244.359711 48.256550,244.163925 53.421825,243.283829 
	C58.131641,242.481308 61.231892,243.887375 60.927361,248.762772 
	C60.330742,258.314270 59.338974,267.841064 58.238213,277.688385 
	C57.733517,272.926605 57.354111,267.855530 57.320229,262.782135 
	C57.297073,259.315369 57.969948,255.843903 57.945736,252.377243 
	C57.914680,247.930298 55.206619,246.103424 50.765472,246.497742 
	C47.169651,246.817017 43.491592,246.749329 39.896229,246.390366 
	C35.904747,245.991852 33.870327,247.680267 34.392895,251.665543 
	C36.178688,265.284607 37.995182,278.899628 39.778885,292.518982 
	C39.817711,292.815430 39.603905,293.144958 39.266388,293.728821 
z"/>
<path fill="#EAD4A4" opacity="1.000000" stroke="none" 
	d="
M41.959381,304.630737 
	C40.966335,302.300385 39.988346,299.558899 39.024345,296.395874 
	C40.017036,298.722748 40.995731,301.471161 41.959381,304.630737 
z"/>
<path fill="#EAD4A4" opacity="1.000000" stroke="none" 
	d="
M43.246040,316.795258 
	C42.862309,316.135529 42.698044,315.271912 42.752003,314.203918 
	C43.135319,314.863464 43.300411,315.727417 43.246040,316.795258 
z"/>
<path fill="#EAD4A4" opacity="1.000000" stroke="none" 
	d="
M42.956276,310.703552 
	C42.472481,310.173126 42.000443,309.303619 41.747513,308.216827 
	C42.300419,308.787872 42.634224,309.576141 42.956276,310.703552 
z"/>
<path fill="#EAEAEA" opacity="1.000000" stroke="none" 
	d="
M49.348297,92.690231 
	C47.266415,92.874878 45.598198,93.079590 43.951416,92.968002 
	C41.061943,92.772217 37.191719,94.257866 36.991833,89.061470 
	C36.842747,85.185753 39.899998,80.242775 43.487839,80.294243 
	C46.993519,80.344536 50.719536,81.308144 53.872002,82.847404 
	C55.449841,83.617813 56.761105,86.600494 56.673737,88.513214 
	C56.618027,89.732925 53.825066,90.899437 52.164860,91.938789 
	C51.497417,92.356628 50.576927,92.370270 49.348297,92.690231 
z"/>
<path fill="#E9E9E9" opacity="1.000000" stroke="none" 
	d="
M56.831718,111.701248 
	C54.790646,112.487198 52.129040,112.349083 50.472347,113.572159 
	C46.187618,116.735397 41.992443,116.181793 37.272903,114.246658 
	C39.406986,107.704689 44.795395,106.147102 50.534004,106.577721 
	C52.687431,106.739311 54.630199,109.708267 56.831718,111.701248 
z"/>
<path fill="#E8E8E8" opacity="1.000000" stroke="none" 
	d="
M32.351921,113.938080 
	C31.344484,111.933411 30.670715,109.853088 29.992584,107.393227 
	C32.055054,107.013680 34.121883,107.013680 37.659279,107.013680 
	C35.517437,109.962990 34.101513,111.912720 32.351921,113.938080 
z"/>
</svg>