<svg version="1.1" id="Layer_1" xmlns="http://www.w3.org/2000/svg" xmlns:xlink="http://www.w3.org/1999/xlink" x="0px" y="0px"
	 width="100%" viewBox="0 0 91 405" enable-background="new 0 0 91 405" xml:space="preserve">
<path fill="#CFB17D" opacity="1.000000" stroke="none" 
	d="
M39.110458,54.015831 
	C41.727875,47.943081 43.703640,41.472469 47.150299,35.913898 
	C50.344887,30.761852 55.111629,26.584637 59.839401,22.177929 
	C62.728336,22.536953 64.963951,22.696209 67.199570,22.855463 
	C67.199570,22.855463 67.104774,22.898726 67.100662,23.271833 
	C66.411819,30.829596 65.295387,38.004555 65.133713,45.200958 
	C64.813393,59.459507 65.020187,73.729897 64.748878,88.112885 
	C63.981693,88.494164 63.474728,88.757942 62.805290,88.726807 
	C59.055588,83.371284 54.410069,80.465858 47.956173,80.958290 
	C45.648026,81.134407 43.312595,80.952988 41.002525,80.564774 
	C42.943329,75.466660 49.546028,72.485489 55.013317,74.695427 
	C59.922531,76.679779 59.904652,74.167725 60.031693,70.688774 
	C60.455639,59.079006 61.146954,47.476894 61.384232,35.864662 
	C61.420551,34.087185 59.962120,31.798197 58.487415,30.673988 
	C57.751453,30.112940 54.891476,31.198786 53.915607,32.333683 
	C52.001991,34.559147 50.337891,37.186310 49.275536,39.921101 
	C46.239223,47.737404 42.886600,55.531712 40.957802,63.643639 
	C39.557480,69.532951 34.835182,75.408134 38.711067,82.139427 
	C36.604481,83.860466 34.794441,85.427452 32.684357,86.817932 
	C32.193645,85.229141 31.765429,83.798874 31.870678,82.409012 
	C32.011505,80.549301 32.565769,78.720901 33.094810,76.544052 
	C34.864254,71.440651 36.646282,66.719467 38.030846,61.884472 
	C38.752285,59.365131 38.773148,56.645172 39.110458,54.015831 
z"/>
<path fill="#D9D9D9" opacity="1.000000" stroke="none" 
	d="
M34.365009,158.318420 
	C32.819397,158.391785 31.273781,158.465134 29.354172,158.049866 
	C28.613674,156.941284 28.247169,156.321320 27.880665,155.701370 
	C27.590891,156.568481 27.301117,157.435593 27.011345,158.302704 
	C19.454765,159.557297 18.447235,153.943619 17.354797,148.332550 
	C17.518726,147.261108 17.345030,146.630173 17.171333,145.999237 
	C17.122164,145.248779 17.072996,144.498322 17.439056,143.431458 
	C19.232283,143.067093 21.241276,143.593918 21.890066,142.881699 
	C27.967468,136.210098 36.072357,136.459671 44.415707,135.997498 
	C46.889359,135.667923 48.946556,135.337189 51.402954,135.005432 
	C52.867008,135.005814 53.931850,135.007217 55.182064,135.234131 
	C55.911549,135.639954 56.455669,135.820282 57.336014,136.150696 
	C59.113255,136.535233 60.554272,136.769684 62.069489,137.340729 
	C64.767113,139.124313 67.390533,140.571304 70.015289,142.388138 
	C70.018890,143.496765 70.021156,144.235565 69.643333,144.998001 
	C67.340714,147.840790 65.418190,150.659943 63.495670,153.479095 
	C64.332306,153.985855 65.168930,154.492615 66.253090,154.994370 
	C66.500618,154.989349 66.995682,154.998749 66.995682,154.998749 
	C63.874165,159.371262 59.206284,157.661896 54.285500,158.086929 
	C52.317116,158.551102 51.130287,158.960037 49.943459,159.368988 
	C45.948318,159.427185 41.953175,159.485382 37.338924,159.184601 
	C35.934879,158.656555 35.149944,158.487488 34.365009,158.318420 
M54.736443,153.989868 
	C57.099121,151.644699 60.112846,149.653030 61.634193,146.851074 
	C63.044861,144.252960 61.399300,141.148056 58.090092,141.163376 
	C48.816349,141.206314 39.523071,141.511520 30.291407,142.324997 
	C28.475269,142.485031 25.964361,145.155991 25.491785,147.088913 
	C25.064592,148.836227 26.586235,151.513153 28.004313,153.108170 
	C29.047832,154.281891 31.310396,154.371780 33.700279,154.957733 
	C34.146690,154.925568 34.593102,154.893417 35.942070,154.911438 
	C40.295074,154.608795 44.648075,154.306152 49.834003,154.020569 
	C51.222538,154.013504 52.611069,154.006439 54.736443,153.989868 
z"/>
<path fill="#D3BA8B" opacity="1.000000" stroke="none" 
	d="
M38.166542,320.008911 
	C36.301281,309.958832 34.354321,299.922943 32.609131,289.852051 
	C31.863844,285.551270 31.539526,281.177582 31.199097,276.275177 
	C31.433901,275.352966 31.260521,275.141174 30.854136,275.077911 
	C30.854136,275.077911 30.937115,275.049164 30.949287,274.694275 
	C30.802485,273.072266 30.566177,271.809235 30.499002,270.537262 
	C30.296143,266.696106 30.158968,262.851501 30.199987,259.255188 
	C31.300060,260.091858 32.196335,260.681580 33.148643,261.537781 
	C33.781082,262.171967 34.357483,262.539673 34.969090,262.898743 
	C35.004292,262.890076 35.065353,262.929169 35.044815,263.357849 
	C36.050781,272.639496 36.812443,281.533051 38.161522,290.336578 
	C40.612812,306.332672 43.342121,322.287689 46.126202,338.230011 
	C46.706539,341.553131 48.028370,344.746796 49.012413,348.325439 
	C49.028904,349.084351 49.041481,349.517914 49.036438,350.323730 
	C49.645344,351.814850 50.271870,352.933746 50.926464,354.460449 
	C50.985283,356.231262 51.016033,357.594269 51.030792,359.347504 
	C51.343460,361.491425 51.672127,363.245117 51.682194,365.000183 
	C50.938816,365.005646 50.514034,365.009674 50.052956,364.625732 
	C47.843220,361.090546 49.755009,356.002991 45.157509,354.007111 
	C45.097660,352.956512 45.037807,351.905884 45.171604,350.251892 
	C44.633400,348.101776 43.901554,346.555115 43.169704,345.008423 
	C43.121925,344.837585 43.074142,344.666748 43.319878,343.961700 
	C42.365665,336.132507 41.150486,328.831543 39.809715,321.553711 
	C39.699989,320.958099 38.734428,320.520142 38.166542,320.008911 
z"/>
<path fill="#D3D3D3" opacity="1.000000" stroke="none" 
	d="
M67.830399,102.016808 
	C68.560074,105.049515 69.289757,108.082230 69.786407,111.811584 
	C69.704712,115.332245 69.856041,118.156258 69.839478,121.277740 
	C68.455986,122.049187 67.240387,122.523163 66.007286,122.615990 
	C64.665512,116.338249 63.671402,110.342339 61.934959,104.569733 
	C59.669247,97.037643 53.494190,93.874023 42.730461,93.994064 
	C38.057190,94.046173 30.639811,99.981865 28.629633,105.050812 
	C26.853069,108.745102 25.435547,112.379387 24.013054,116.428146 
	C23.336573,120.559875 22.665062,124.277115 21.621420,127.887955 
	C20.831123,124.907707 20.412960,122.033852 19.994799,119.159996 
	C20.329985,118.323212 21.024828,117.450256 20.944876,116.655220 
	C20.120239,108.455254 23.797197,101.299431 26.543901,94.170074 
	C27.030632,95.646164 27.062836,96.775749 26.962543,98.189941 
	C26.862450,99.151108 26.894855,99.827675 26.927263,100.504234 
	C27.623962,99.341728 28.320660,98.179214 29.214161,96.767448 
	C30.610676,95.348892 31.810385,94.179588 33.395805,93.000732 
	C43.083973,88.896896 51.520504,90.797775 59.474216,96.574074 
	C62.160419,98.524902 65.039482,100.210167 67.830399,102.016808 
z"/>
<path fill="#DFDFDF" opacity="1.000000" stroke="none" 
	d="
M25.683086,256.888824 
	C23.133261,248.198227 20.583439,239.507629 18.435249,230.496185 
	C19.841160,232.775421 20.846811,235.374954 21.849119,237.975784 
	C22.334574,239.235458 22.813734,240.497543 23.295742,241.758545 
	C23.661093,241.581787 24.026442,241.405014 24.391792,241.228256 
	C24.263300,239.149628 24.134808,237.070999 24.354885,235.084320 
	C26.131151,237.121399 27.558851,239.066528 29.212414,241.195496 
	C29.621042,241.921295 29.803806,242.463242 29.986423,243.379852 
	C29.989008,244.503906 29.991741,245.253342 29.996250,246.377960 
	C31.664320,248.503967 33.330612,250.254791 35.243935,252.008286 
	C35.490967,252.010956 35.985073,252.011276 36.075771,252.378326 
	C40.469566,256.545685 45.235706,255.282928 50.377472,254.009933 
	C51.501785,254.006653 52.251331,254.004242 53.367027,253.994583 
	C59.646099,251.848831 62.894344,248.704285 63.018867,244.663940 
	C63.020348,243.890625 63.024609,243.448746 63.400158,243.007538 
	C64.513985,243.005066 65.256523,243.001923 65.989914,243.378769 
	C63.573318,253.493378 56.721676,258.606506 47.073109,259.131378 
	C40.260990,259.501923 34.573296,257.298553 29.004757,253.594894 
	C28.124735,250.222443 27.248276,247.246552 26.132166,243.456970 
	C23.598375,248.758194 24.741091,251.970947 28.991508,254.376755 
	C28.993296,255.482941 28.995142,256.220398 28.665127,256.975220 
	C27.449873,256.958008 26.566481,256.923431 25.683086,256.888824 
z"/>
<path fill="#B0AFAC" opacity="1.000000" stroke="none" 
	d="
M33.010094,93.010284 
	C31.810385,94.179588 30.610676,95.348892 28.964912,96.862442 
	C28.044254,97.439575 27.569647,97.672462 27.095039,97.905342 
	C27.062836,96.775749 27.030632,95.646164 26.948715,94.095726 
	C27.325710,90.849983 27.752417,88.025093 28.547668,85.415909 
	C28.916214,87.164841 28.916214,88.698051 28.916214,91.749496 
	C30.949127,89.373352 31.966764,88.183899 32.984402,86.994446 
	C34.794441,85.427452 36.604481,83.860466 38.970264,82.032738 
	C40.013878,81.492920 40.501747,81.213837 40.989616,80.934753 
	C43.312595,80.952988 45.648026,81.134407 47.956173,80.958290 
	C54.410069,80.465858 59.055588,83.371284 62.812504,89.057327 
	C63.317329,90.457870 63.652473,91.232979 64.016815,92.289429 
	C64.336792,93.034050 64.627579,93.497337 64.889526,94.271240 
	C63.851288,94.491638 62.662819,94.713554 61.864410,94.255531 
	C58.884193,92.545845 56.252129,89.941048 53.085915,88.903519 
	C46.389145,86.709084 37.388981,85.637909 33.010094,93.010284 
z"/>
<path fill="#B5A790" opacity="1.000000" stroke="none" 
	d="
M67.331184,254.919174 
	C67.129395,258.154663 66.756729,261.389923 66.752113,264.625671 
	C66.703194,298.918884 66.704826,333.212219 66.722893,367.505493 
	C66.724197,369.991302 66.962204,372.476990 66.804337,375.384766 
	C66.297684,375.804474 66.076859,375.802185 65.636658,375.526917 
	C65.278778,373.798523 65.140282,372.343109 65.008270,370.465271 
	C65.010696,368.061707 65.006645,366.080566 65.018845,363.638794 
	C65.018677,360.410492 65.002251,357.642883 64.996346,354.419556 
	C65.009804,323.671631 65.026360,293.379333 64.986443,263.087158 
	C64.983643,260.964081 65.947090,258.065643 62.202698,257.607727 
	C63.956043,256.482086 65.643616,255.700623 67.331184,254.919174 
z"/>
<path fill="#DFDFDF" opacity="1.000000" stroke="none" 
	d="
M62.001457,176.154129 
	C67.998116,177.445633 72.298119,181.344894 72.694099,187.107437 
	C73.494370,198.753555 73.128532,210.481079 73.193939,222.175308 
	C73.205971,224.325424 72.983284,226.476868 72.153748,228.832703 
	C70.959579,229.023865 70.480621,229.010025 70.065964,228.585083 
	C70.408279,224.272491 70.862602,220.369232 70.823273,216.470947 
	C70.814888,215.639450 69.012314,214.826019 68.026482,213.628357 
	C68.009064,212.500397 68.001480,211.748367 67.996109,210.568298 
	C68.000633,208.427521 68.002953,206.714798 68.255928,205.003159 
	C68.673714,205.003433 68.840858,205.002640 69.327347,205.133240 
	C70.428955,204.469864 71.797874,203.720093 71.863068,202.870285 
	C71.975426,201.405807 71.276558,199.879074 70.918114,198.378479 
	C70.279457,198.916962 69.640800,199.455460 68.753021,199.994110 
	C68.503899,199.994247 68.005684,199.997604 68.005745,199.543640 
	C68.004303,196.059799 68.002800,193.029892 68.250221,189.999176 
	C68.499138,189.998367 68.996956,189.993912 69.067627,190.300476 
	C69.755463,190.142792 70.966576,189.427505 70.893623,189.254898 
	C70.410339,188.111374 69.651604,187.084274 68.655014,185.948471 
	C66.223747,184.247864 64.120003,182.618042 61.898205,180.735107 
	C61.520302,179.987991 61.260456,179.494003 61.237061,178.791412 
	C61.649494,177.773254 61.825474,176.963699 62.001457,176.154129 
z"/>
<path fill="#DADADA" opacity="1.000000" stroke="none" 
	d="
M67.413467,254.542786 
	C65.643616,255.700623 63.956043,256.482086 62.116547,257.828857 
	C61.964619,258.394196 61.875275,258.858093 61.562393,258.909424 
	C60.487793,259.638885 59.726074,260.317017 58.645172,261.023926 
	C57.492496,261.680115 56.658997,262.307556 55.451092,262.952972 
	C54.328381,263.014648 53.580078,263.058319 52.496117,263.114197 
	C51.484631,263.184784 50.808796,263.243134 49.680367,263.230713 
	C47.094852,263.206818 44.961945,263.253693 42.468182,263.245178 
	C41.137867,263.227234 40.168404,263.264648 38.789009,263.229004 
	C37.274502,263.080353 36.169930,263.004761 35.065353,262.929169 
	C35.065353,262.929169 35.004292,262.890076 34.920452,262.620270 
	C34.255276,261.990753 33.673939,261.631042 33.092606,261.271332 
	C32.196335,260.681580 31.300060,260.091858 30.174084,258.959045 
	C29.628580,257.929932 29.312784,257.443909 28.996988,256.957855 
	C28.995142,256.220398 28.993296,255.482941 28.995743,254.372742 
	C29.000036,254.000000 29.008318,253.991455 29.008318,253.991455 
	C34.573296,257.298553 40.260990,259.501923 47.073109,259.131378 
	C56.721676,258.606506 63.573318,253.493378 65.991226,243.045471 
	C66.005730,241.887772 66.009750,241.443344 66.218941,240.876709 
	C66.679802,240.552185 66.872101,240.301300 67.256042,240.115433 
	C68.005371,240.487747 68.499657,240.746475 68.995148,241.337677 
	C68.997574,242.113419 68.998787,242.556717 68.853561,243.326904 
	C68.485649,244.809158 68.264183,245.964523 68.042709,247.119873 
	C67.860390,249.468719 67.678070,251.817566 67.413467,254.542786 
z"/>
<path fill="#D3D3D3" opacity="1.000000" stroke="none" 
	d="
M43.999252,135.996338 
	C36.072357,136.459671 27.967468,136.210098 21.890066,142.881699 
	C21.241276,143.593918 19.232283,143.067093 17.512306,143.060867 
	C17.117525,140.299438 17.064728,137.592194 17.440481,134.452103 
	C19.344225,134.825577 20.819416,135.631912 22.821844,136.726410 
	C23.506573,135.560593 24.256334,134.284042 25.336414,133.003372 
	C26.107332,132.994812 26.547934,132.990387 27.389631,132.990189 
	C28.859486,132.995667 29.928242,132.996918 31.407890,132.934631 
	C35.953499,132.502075 40.088211,132.133072 44.679184,131.723343 
	C44.349018,133.798248 44.174137,134.897293 43.999252,135.996338 
z"/>
<path fill="#B0A390" opacity="1.000000" stroke="none" 
	d="
M64.918365,93.960625 
	C64.627579,93.497337 64.336792,93.034050 64.273712,92.040092 
	C64.670639,90.338081 64.839867,89.166733 65.009094,87.995392 
	C65.020187,73.729897 64.813393,59.459507 65.133713,45.200958 
	C65.295387,38.004555 66.411819,30.829596 67.118652,23.222942 
	C67.663765,24.313042 68.731979,25.872616 68.605232,27.328136 
	C68.256302,31.335287 66.900482,35.291721 66.844345,39.280907 
	C66.620605,55.180370 66.719055,71.084717 66.757347,86.987114 
	C66.762466,89.111534 67.106079,91.235153 66.792679,93.637512 
	C65.834404,93.930794 65.376381,93.945709 64.918365,93.960625 
z"/>
<path fill="#C3C2C2" opacity="1.000000" stroke="none" 
	d="
M64.889526,94.271240 
	C65.376381,93.945709 65.834404,93.930794 66.633682,93.953300 
	C67.311378,96.394127 67.647804,98.797539 67.907318,101.608871 
	C65.039482,100.210167 62.160419,98.524902 59.474216,96.574074 
	C51.520504,90.797775 43.083973,88.896896 33.395802,93.000732 
	C37.388981,85.637909 46.389145,86.709084 53.085915,88.903519 
	C56.252129,89.941048 58.884193,92.545845 61.864410,94.255531 
	C62.662819,94.713554 63.851288,94.491638 64.889526,94.271240 
z"/>
<path fill="#D2B887" opacity="1.000000" stroke="none" 
	d="
M50.089256,365.013672 
	C50.514034,365.009674 50.938816,365.005646 51.818420,365.294739 
	C53.173908,366.397766 54.074574,367.207611 54.988731,368.337891 
	C55.025135,369.085205 55.048046,369.512115 55.093384,370.308044 
	C57.076702,373.787933 59.037590,376.898834 61.009087,380.354797 
	C61.710209,384.068909 63.334641,382.491211 64.515457,381.200195 
	C65.315063,380.325989 65.622681,379.001740 66.384216,378.194977 
	C67.014023,381.993164 67.409935,385.475159 67.473961,389.018433 
	C62.812077,390.568787 60.970459,387.672699 59.007809,384.657501 
	C56.857819,381.354523 54.440105,378.225800 52.139072,375.021149 
	C51.429626,373.295959 50.720181,371.570801 50.006599,369.075195 
	C50.031403,367.207764 50.060329,366.110718 50.089256,365.013672 
z"/>
<path fill="#DADADA" opacity="1.000000" stroke="none" 
	d="
M17.165298,217.003296 
	C17.107210,206.643677 17.049122,196.284073 17.447102,185.462738 
	C18.923159,185.004211 19.943150,185.007416 20.973501,185.257874 
	C20.983862,185.505127 21.000381,186.000000 21.001518,186.342255 
	C21.030504,187.140518 21.058350,187.596527 21.075096,188.485962 
	C21.046135,190.944214 21.028273,192.969009 20.755524,195.258575 
	C20.661137,197.666672 20.821636,199.810043 21.100933,202.173340 
	C21.419655,202.670547 21.676607,202.876755 21.841705,203.346069 
	C21.485498,205.114792 21.278173,206.549347 20.833588,208.205627 
	C20.748363,209.959702 20.900400,211.492065 21.048306,213.394897 
	C21.053867,214.506027 21.063560,215.246674 20.759689,216.121674 
	C19.352516,216.505112 18.258907,216.754211 17.165298,217.003296 
z"/>
<path fill="#D4D4D4" opacity="1.000000" stroke="none" 
	d="
M24.993910,174.997772 
	C29.024803,174.125305 33.040039,172.622772 37.090107,172.522125 
	C43.842670,172.354370 50.617538,173.084167 57.613174,173.885651 
	C56.896061,175.223068 55.948792,176.110916 54.668297,176.998123 
	C53.890823,176.994736 53.446575,176.991989 52.933090,176.602295 
	C50.376957,173.730057 37.647190,172.851959 35.406460,175.094437 
	C35.022408,175.478790 35.121628,176.346039 34.560207,176.992249 
	C32.081070,177.001740 30.039328,177.009171 27.929060,176.679810 
	C26.904991,175.894608 25.949450,175.446182 24.993910,174.997772 
z"/>
<path fill="#D9D9D9" opacity="1.000000" stroke="none" 
	d="
M25.006092,133.007492 
	C24.256334,134.284042 23.506573,135.560593 22.821844,136.726410 
	C20.819416,135.631912 19.344225,134.825577 17.518063,134.006912 
	C17.852100,129.091431 18.537109,124.188309 19.608458,119.222588 
	C20.412960,122.033852 20.831123,124.907707 21.625816,128.267792 
	C23.003593,130.171844 24.004843,131.589676 25.006092,133.007492 
z"/>
<path fill="#DECFB6" opacity="1.000000" stroke="none" 
	d="
M38.965134,54.350212 
	C38.773148,56.645172 38.752285,59.365131 38.030846,61.884472 
	C36.646282,66.719467 34.864254,71.440651 32.802101,76.571228 
	C31.964077,76.935951 31.571070,76.938492 31.178062,76.941032 
	C33.725311,69.522217 36.272564,62.103409 38.965134,54.350212 
z"/>
<path fill="#DEDEDE" opacity="1.000000" stroke="none" 
	d="
M24.608675,174.991226 
	C25.949450,175.446182 26.904991,175.894608 27.737122,176.992828 
	C23.898903,178.746536 21.240551,180.804031 20.963140,185.010635 
	C19.943150,185.007416 18.923159,185.004211 17.520687,184.998993 
	C17.368557,177.920593 18.320972,176.574722 24.608675,174.991226 
z"/>
<path fill="#C7BAA6" opacity="1.000000" stroke="none" 
	d="
M52.107056,375.396942 
	C54.440105,378.225800 56.857819,381.354523 59.007809,384.657501 
	C60.970459,387.672699 62.812077,390.568787 67.569931,389.379242 
	C68.030075,389.925018 68.062363,390.171295 68.094658,390.417603 
	C65.062309,392.744232 61.830326,391.994385 59.976490,389.433777 
	C56.907726,385.195007 54.665512,380.357788 52.107056,375.396942 
z"/>
<path fill="#DADADA" opacity="1.000000" stroke="none" 
	d="
M24.006317,234.992371 
	C24.134808,237.070999 24.263300,239.149628 24.391792,241.228256 
	C24.026442,241.405014 23.661093,241.581787 23.295742,241.758545 
	C22.813734,240.497543 22.334574,239.235458 21.849119,237.975784 
	C20.846811,235.374954 19.841160,232.775421 18.503532,230.090591 
	C18.118063,229.250870 18.065941,228.495911 18.413099,227.277527 
	C19.874691,225.542725 20.937004,224.271362 22.159012,223.365448 
	C22.881245,227.484711 23.443781,231.238541 24.006317,234.992371 
z"/>
<path fill="#E0C89A" opacity="1.000000" stroke="none" 
	d="
M38.098915,320.453430 
	C38.734428,320.520142 39.699989,320.958099 39.809715,321.553711 
	C41.150486,328.831543 42.365665,336.132507 43.370880,343.700531 
	C41.744957,340.321564 39.924057,336.765167 39.098850,332.991089 
	C38.241455,329.069733 38.346905,324.937805 38.098915,320.453430 
z"/>
<path fill="#C7BBA9" opacity="1.000000" stroke="none" 
	d="
M28.665127,256.975220 
	C29.312784,257.443909 29.628580,257.929932 29.970284,258.712097 
	C30.158968,262.851501 30.296143,266.696106 30.499002,270.537262 
	C30.566177,271.809235 30.802485,273.072266 30.935209,274.735870 
	C29.134209,269.305237 27.359459,263.478088 25.633900,257.269897 
	C26.566481,256.923431 27.449873,256.958008 28.665127,256.975220 
z"/>
<path fill="#DEDEDE" opacity="1.000000" stroke="none" 
	d="
M21.999317,223.000000 
	C20.937004,224.271362 19.874691,225.542725 18.489805,226.905182 
	C17.783604,223.949112 17.399975,220.901978 17.090822,217.429062 
	C18.258907,216.754211 19.352516,216.505112 20.959074,216.244965 
	C21.720961,216.436234 21.909298,216.684570 22.025219,217.409363 
	C22.008709,219.559891 22.004011,221.279938 21.999317,223.000000 
z"/>
<path fill="#D4D4D4" opacity="1.000000" stroke="none" 
	d="
M66.024796,122.997139 
	C67.240387,122.523163 68.455986,122.049187 70.148857,121.284378 
	C71.038857,120.992432 71.451569,120.991325 71.864288,120.990219 
	C71.912788,125.249260 71.961288,129.508301 71.658867,133.880005 
	C70.536942,132.994720 69.765938,131.996750 68.844505,130.660339 
	C67.803505,128.544159 66.912933,126.766426 66.019913,124.656792 
	C66.019897,123.882301 66.022346,123.439720 66.024796,122.997139 
z"/>
<path fill="#CBB184" opacity="1.000000" stroke="none" 
	d="
M31.092323,77.323868 
	C31.571070,76.938492 31.964077,76.935951 32.649792,76.906235 
	C32.565769,78.720901 32.011505,80.549301 31.870678,82.409012 
	C31.765429,83.798874 32.193645,85.229141 32.684357,86.817932 
	C31.966764,88.183899 30.949127,89.373352 28.916214,91.749496 
	C28.916214,88.698051 28.916214,87.164841 28.935883,85.314240 
	C29.639227,82.566795 30.322905,80.136749 31.092323,77.323868 
z"/>
<path fill="#E0C89A" opacity="1.000000" stroke="none" 
	d="
M50.052956,364.625732 
	C50.060329,366.110718 50.031403,367.207764 49.982758,368.716187 
	C48.314262,364.351654 46.665478,359.575714 45.087101,354.403442 
	C49.755009,356.002991 47.843220,361.090546 50.052956,364.625732 
z"/>
<path fill="#E5DBC9" opacity="1.000000" stroke="none" 
	d="
M68.439331,390.188110 
	C68.062363,390.171295 68.030075,389.925018 67.901810,389.317932 
	C67.409935,385.475159 67.014023,381.993164 66.330933,377.851776 
	C65.981178,376.728210 65.918602,376.264069 65.856033,375.799927 
	C66.076859,375.802185 66.297684,375.804474 66.847427,375.845642 
	C70.173691,380.294678 71.182762,384.932007 68.439331,390.188110 
z"/>
<path fill="#D4D4D4" opacity="1.000000" stroke="none" 
	d="
M66.005554,154.999390 
	C65.168930,154.492615 64.332306,153.985855 63.495670,153.479095 
	C65.418190,150.659943 67.340714,147.840790 69.973389,145.008850 
	C71.124405,144.998093 71.565277,145.000107 72.006142,145.002136 
	C72.014923,145.450928 72.023712,145.899734 71.622826,146.721710 
	C69.477295,149.729706 67.741425,152.364548 66.005554,154.999390 
z"/>
<path fill="#DADADA" opacity="1.000000" stroke="none" 
	d="
M70.001656,228.996185 
	C70.480621,229.010025 70.959579,229.023865 71.797699,229.050323 
	C72.114403,231.421417 72.071945,233.779907 71.770050,236.718155 
	C71.292862,237.542679 71.151863,237.825684 71.087608,238.146927 
	C71.087608,238.146927 71.062302,238.060989 70.747086,238.047958 
	C69.954750,238.022476 69.477631,238.010025 68.968666,237.706146 
	C68.624649,236.943146 68.312477,236.471573 68.000679,235.624542 
	C67.999741,234.498077 67.998428,233.747040 68.243668,232.743546 
	C68.651543,231.329514 68.812851,230.167938 69.231033,229.003403 
	C69.659157,228.999008 69.830406,228.997604 70.001656,228.996185 
z"/>
<path fill="#E1E1E1" opacity="1.000000" stroke="none" 
	d="
M72.268997,144.694489 
	C71.565277,145.000107 71.124405,144.998093 70.353485,144.985229 
	C70.021156,144.235565 70.018890,143.496765 70.015671,142.010788 
	C70.014366,140.510132 70.014015,139.756653 70.048347,138.546341 
	C70.672821,137.036072 71.262619,135.982620 71.852402,134.929169 
	C72.078880,138.081726 72.305367,141.234299 72.268997,144.694489 
z"/>
<path fill="#DEDEDE" opacity="1.000000" stroke="none" 
	d="
M55.001526,176.998779 
	C55.948792,176.110916 56.896061,175.223068 57.983253,174.016418 
	C59.189178,174.467896 60.255177,175.238174 61.661316,176.081284 
	C61.825474,176.963699 61.649494,177.773254 60.903366,178.792267 
	C59.888313,179.005234 59.443417,179.008743 58.655998,178.965912 
	C57.209137,178.612427 56.104797,178.305298 55.000130,177.748322 
	C54.999798,177.498474 55.001526,176.998779 55.001526,176.998779 
z"/>
<path fill="#D3D3D3" opacity="1.000000" stroke="none" 
	d="
M71.825241,134.913330 
	C71.262619,135.982620 70.672821,137.036072 69.695328,138.491211 
	C65.964569,137.574463 67.000900,135.284317 68.227150,132.817490 
	C68.634102,132.088043 68.814522,131.543411 68.994934,130.998779 
	C69.765938,131.996750 70.536942,132.994720 71.524429,134.432419 
	C71.740906,134.872162 71.798073,134.897476 71.825241,134.913330 
z"/>
<path fill="#E1E1E1" opacity="1.000000" stroke="none" 
	d="
M66.253082,154.994370 
	C67.741425,152.364548 69.477295,149.729706 71.553772,147.051392 
	C70.440041,149.521378 68.985695,152.034851 67.263519,154.773529 
	C66.995682,154.998749 66.500618,154.989349 66.253082,154.994370 
z"/>
<path fill="#E1E1E1" opacity="1.000000" stroke="none" 
	d="
M71.867516,120.591110 
	C71.451569,120.991325 71.038857,120.992432 70.316757,120.986908 
	C69.856041,118.156258 69.704712,115.332245 69.830231,112.227829 
	C70.694969,114.695625 71.282860,117.443817 71.867516,120.591110 
z"/>
<path fill="#B0A390" opacity="1.000000" stroke="none" 
	d="
M67.139679,22.447701 
	C64.963951,22.696209 62.728336,22.536953 60.194847,22.097599 
	C62.291248,21.891647 64.685524,21.965792 67.139679,22.447701 
z"/>
<path fill="#DFDFDF" opacity="1.000000" stroke="none" 
	d="
M69.000511,237.997559 
	C69.477631,238.010025 69.954750,238.022476 70.788628,238.064713 
	C71.029175,239.627151 70.912964,241.159790 70.177368,242.855591 
	C69.372002,243.012466 69.185997,243.006226 69.000000,243.000000 
	C68.998787,242.556717 68.997574,242.113419 68.997055,240.961639 
	C68.998672,239.501282 68.999588,238.749420 69.000511,237.997559 
z"/>
<path fill="#E0C89A" opacity="1.000000" stroke="none" 
	d="
M43.105717,345.365082 
	C43.901554,346.555115 44.633400,348.101776 45.126015,349.858795 
	C44.271759,348.619995 43.656746,347.170868 43.105717,345.365082 
z"/>
<path fill="#C4C4C4" opacity="1.000000" stroke="none" 
	d="
M50.275600,159.519379 
	C51.130287,158.960037 52.317116,158.551102 53.848923,158.117554 
	C52.998512,158.618561 51.803127,159.144180 50.275600,159.519379 
z"/>
<path fill="#DEDEDE" opacity="1.000000" stroke="none" 
	d="
M68.853561,243.326904 
	C69.185997,243.006226 69.372002,243.012466 69.836868,243.031189 
	C69.684120,244.364182 69.252502,245.684723 68.431801,247.062561 
	C68.264183,245.964523 68.485649,244.809158 68.853561,243.326904 
z"/>
<path fill="#D9D9D9" opacity="1.000000" stroke="none" 
	d="
M27.336081,158.421417 
	C27.301117,157.435593 27.590891,156.568481 27.880665,155.701370 
	C28.247169,156.321320 28.613674,156.941284 28.986019,157.917099 
	C28.548180,158.362030 28.104498,158.451096 27.336081,158.421417 
z"/>
<path fill="#D9D9D9" opacity="1.000000" stroke="none" 
	d="
M17.095612,146.329651 
	C17.345030,146.630173 17.518726,147.261108 17.427547,147.946289 
	C17.115076,147.553711 17.067482,147.106903 17.095612,146.329651 
z"/>
<path fill="#C4C4C4" opacity="1.000000" stroke="none" 
	d="
M34.545692,158.599213 
	C35.149944,158.487488 35.934879,158.656555 36.890045,159.085327 
	C36.282310,159.190033 35.504341,159.035019 34.545692,158.599213 
z"/>
<path fill="#C7BBA9" opacity="1.000000" stroke="none" 
	d="
M30.918415,275.298889 
	C31.260521,275.141174 31.433901,275.352966 31.262234,275.830933 
	C31.150190,275.948547 30.982697,275.519867 30.918415,275.298889 
z"/>
<path fill="#DFDFDF" opacity="1.000000" stroke="none" 
	d="
M71.347290,238.057068 
	C71.151863,237.825684 71.292862,237.542679 71.703537,237.156357 
	C71.799973,237.332260 71.703476,237.649734 71.347290,238.057068 
z"/>
<path fill="#D7B781" opacity="1.000000" stroke="none" 
	d="
M41.002522,80.564774 
	C40.501747,81.213837 40.013878,81.492920 39.266811,81.878693 
	C34.835182,75.408134 39.557480,69.532951 40.957802,63.643639 
	C42.886600,55.531712 46.239223,47.737404 49.275536,39.921101 
	C50.337891,37.186310 52.001991,34.559147 53.915607,32.333683 
	C54.891476,31.198786 57.751453,30.112940 58.487415,30.673988 
	C59.962120,31.798197 61.420551,34.087185 61.384232,35.864662 
	C61.146954,47.476894 60.455639,59.079006 60.031693,70.688774 
	C59.904652,74.167725 59.922531,76.679779 55.013317,74.695427 
	C49.546028,72.485489 42.943329,75.466660 41.002522,80.564774 
M46.466480,56.175247 
	C45.463078,59.834347 44.243359,63.455502 43.590771,67.176132 
	C43.400028,68.263588 44.550842,70.376854 45.555248,70.746315 
	C49.858624,72.329300 56.644604,68.720718 57.011776,64.095085 
	C57.725525,55.103291 57.586185,46.041885 57.691395,37.008049 
	C57.698238,36.420509 56.779846,35.822197 55.447849,34.202797 
	C53.785191,37.199013 52.214527,39.398495 51.284996,41.841877 
	C49.589199,46.299519 48.273270,50.901672 46.466480,56.175247 
z"/>
<path fill="#CBB184" opacity="1.000000" stroke="none" 
	d="
M64.748878,88.112885 
	C64.839867,89.166733 64.670639,90.338081 64.244514,91.758759 
	C63.652473,91.232979 63.317329,90.457870 62.974968,89.352242 
	C63.474728,88.757942 63.981693,88.494164 64.748878,88.112885 
z"/>
<path fill="#F9F9F9" opacity="1.000000" stroke="none" 
	d="
M49.001080,154.003525 
	C44.648075,154.306152 40.295074,154.608795 35.466080,154.537018 
	C33.991306,153.444351 32.992523,152.726089 31.747116,152.003922 
	C31.500494,152.000015 31.007244,151.992371 31.008343,151.584595 
	C30.832478,148.216766 32.249592,147.001358 35.182976,146.960968 
	C37.480316,146.929321 39.774178,146.222427 42.065250,146.245499 
	C46.825470,146.293442 51.582817,146.626785 57.732613,146.905975 
	C54.100498,149.858383 51.550789,151.930954 49.001080,154.003525 
z"/>
<path fill="#E8E8E8" opacity="1.000000" stroke="none" 
	d="
M31.007244,151.992371 
	C31.007244,151.992371 31.500494,152.000015 31.876526,152.291016 
	C32.511616,153.369568 32.770676,154.157104 33.029732,154.944641 
	C31.310396,154.371780 29.047832,154.281891 28.004313,153.108170 
	C26.586235,151.513153 25.064592,148.836227 25.491785,147.088913 
	C25.964361,145.155991 28.475269,142.485031 30.291407,142.324997 
	C39.523071,141.511520 48.816349,141.206314 58.090092,141.163376 
	C61.399300,141.148056 63.044861,144.252960 61.634193,146.851074 
	C60.112846,149.653030 57.099121,151.644699 54.435791,153.655670 
	C55.922981,150.677719 57.710819,148.033966 59.498657,145.390213 
	C59.096233,144.768509 58.693810,144.146790 58.291386,143.525070 
	C49.694447,143.917358 41.087193,144.174835 32.510448,144.831055 
	C31.034594,144.943985 28.925913,146.523911 28.526928,147.851990 
	C28.215076,148.890045 30.098991,150.587769 31.007244,151.992371 
z"/>
<path fill="#D4D4D4" opacity="1.000000" stroke="none" 
	d="
M68.000610,133.002304 
	C67.000900,135.284317 65.964569,137.574463 69.660645,138.948029 
	C70.014015,139.756653 70.014366,140.510132 70.014343,141.640961 
	C67.390533,140.571304 64.767113,139.124313 62.353386,137.180786 
	C62.466263,135.685471 62.541805,133.873016 62.246670,133.810516 
	C58.129398,132.938385 53.961441,132.305557 49.805840,131.614380 
	C49.705807,132.110901 49.605770,132.607437 49.505737,133.103958 
	C50.005074,133.738129 50.504410,134.372284 51.003750,135.006439 
	C48.946556,135.337189 46.889359,135.667923 44.415707,135.997498 
	C44.174137,134.897293 44.349018,133.798248 44.679184,131.723343 
	C40.088211,132.133072 35.953499,132.502075 31.496067,132.567566 
	C32.896923,131.510849 34.564842,130.296997 36.353313,130.080917 
	C46.254219,128.884674 56.211689,127.563820 65.530609,132.864868 
	C66.172340,133.229919 67.169006,132.971024 68.000610,133.002304 
z"/>
<path fill="#F1F1F1" opacity="1.000000" stroke="none" 
	d="
M31.008343,151.584595 
	C30.098991,150.587769 28.215076,148.890045 28.526928,147.851990 
	C28.925913,146.523911 31.034594,144.943985 32.510448,144.831055 
	C41.087193,144.174835 49.694447,143.917358 58.291386,143.525070 
	C58.693810,144.146790 59.096233,144.768509 59.498657,145.390213 
	C57.710819,148.033966 55.922981,150.677719 54.067375,153.660431 
	C52.611069,154.006439 51.222538,154.013504 49.417542,154.012054 
	C51.550789,151.930954 54.100498,149.858383 57.732613,146.905975 
	C51.582817,146.626785 46.825470,146.293442 42.065250,146.245499 
	C39.774178,146.222427 37.480316,146.929321 35.182976,146.960968 
	C32.249592,147.001358 30.832478,148.216766 31.008343,151.584595 
z"/>
<path fill="#D3D3D3" opacity="1.000000" stroke="none" 
	d="
M51.402954,135.005432 
	C50.504410,134.372284 50.005074,133.738129 49.505737,133.103958 
	C49.605770,132.607437 49.705807,132.110901 49.805840,131.614380 
	C53.961441,132.305557 58.129398,132.938385 62.246670,133.810516 
	C62.541805,133.873016 62.466263,135.685471 62.279179,136.844208 
	C60.554272,136.769684 59.113255,136.535233 57.295483,135.872421 
	C56.278049,135.298920 55.637371,135.153778 54.996696,135.008636 
	C53.931850,135.007217 52.867008,135.005814 51.402954,135.005432 
z"/>
<path fill="#F1F1F1" opacity="1.000000" stroke="none" 
	d="
M33.365005,154.951202 
	C32.770676,154.157104 32.511616,153.369568 32.123146,152.294922 
	C32.992523,152.726089 33.991306,153.444351 35.014801,154.511932 
	C34.593102,154.893417 34.146690,154.925568 33.365005,154.951202 
z"/>
<path fill="#D4D4D4" opacity="1.000000" stroke="none" 
	d="
M55.182064,135.234131 
	C55.637371,135.153778 56.278049,135.298920 56.959255,135.722321 
	C56.455669,135.820282 55.911549,135.639954 55.182064,135.234131 
z"/>
<path fill="#F1DEAD" opacity="1.000000" stroke="none" 
	d="
M55.070953,369.939056 
	C55.048046,369.512115 55.025135,369.085205 54.988136,367.952209 
	C53.664963,364.483185 52.355873,361.720215 51.046783,358.957245 
	C51.016033,357.594269 50.985283,356.231262 50.956169,354.086975 
	C50.323219,352.187622 49.688641,351.069580 49.054058,349.951508 
	C49.041481,349.517914 49.028904,349.084351 49.260983,348.064026 
	C48.338337,338.672272 47.127583,329.872772 46.014187,321.060944 
	C44.441494,308.614014 42.922016,296.160278 41.419357,283.704681 
	C40.885204,279.277100 40.461796,274.836090 39.997234,270.400208 
	C39.716393,267.718536 40.378006,266.038055 43.593605,265.771454 
	C45.786232,265.589661 47.901096,264.469940 50.354168,263.801208 
	C51.382324,263.589172 52.107048,263.345581 52.831772,263.101990 
	C53.580078,263.058319 54.328381,263.014648 55.725952,263.252502 
	C56.916748,265.176117 57.946510,266.827637 57.915020,268.458618 
	C57.780949,275.403809 57.120689,282.340515 57.044117,289.284668 
	C56.892097,303.070587 56.791260,316.863770 57.080421,330.645294 
	C57.239487,338.226379 58.249245,345.788788 58.848003,353.361786 
	C59.320927,359.343262 59.751934,365.328064 60.257126,372.050842 
	C57.739964,371.025879 56.405457,370.482452 55.070953,369.939056 
z"/>
<path fill="#E0C89A" opacity="1.000000" stroke="none" 
	d="
M50.050735,263.769623 
	C47.901096,264.469940 45.786232,265.589661 43.593605,265.771454 
	C40.378006,266.038055 39.716393,267.718536 39.997234,270.400208 
	C40.461796,274.836090 40.885204,279.277100 41.419357,283.704681 
	C42.922016,296.160278 44.441494,308.614014 46.014187,321.060944 
	C47.127583,329.872772 48.338337,338.672272 49.257065,347.738708 
	C48.028370,344.746796 46.706539,341.553131 46.126202,338.230011 
	C43.342121,322.287689 40.612812,306.332672 38.161522,290.336578 
	C36.812443,281.533051 36.050781,272.639496 35.044815,263.357849 
	C36.169930,263.004761 37.274502,263.080353 38.854935,263.505127 
	C40.496868,263.669739 41.662952,263.485138 42.829033,263.300537 
	C44.961945,263.253693 47.094852,263.206818 49.661552,263.346558 
	C50.095341,263.533142 50.050735,263.769623 50.050735,263.769623 
z"/>
<path fill="#E0C89A" opacity="1.000000" stroke="none" 
	d="
M51.030788,359.347504 
	C52.355873,361.720215 53.664963,364.483185 54.974640,367.631836 
	C54.074574,367.207611 53.173908,366.397766 52.137020,365.293335 
	C51.672127,363.245117 51.343460,361.491425 51.030788,359.347504 
z"/>
<path fill="#E0C89A" opacity="1.000000" stroke="none" 
	d="
M49.036442,350.323730 
	C49.688641,351.069580 50.323219,352.187622 50.928101,353.679138 
	C50.271870,352.933746 49.645344,351.814850 49.036442,350.323730 
z"/>
<path fill="#B5A790" opacity="1.000000" stroke="none" 
	d="
M33.148643,261.537781 
	C33.673939,261.631042 34.255276,261.990753 34.885250,262.628906 
	C34.357483,262.539673 33.781082,262.171967 33.148643,261.537781 
z"/>
<path fill="#DFDFDF" opacity="1.000000" stroke="none" 
	d="
M66.007286,122.615990 
	C66.022346,123.439720 66.019897,123.882301 66.009750,125.053467 
	C66.043045,129.588364 63.814835,129.208267 61.346828,128.271439 
	C51.439838,124.510849 41.533459,126.032875 31.649099,128.316452 
	C29.227995,128.875809 26.634760,129.532578 26.988533,132.985962 
	C26.547934,132.990387 26.107332,132.994812 25.336412,133.003372 
	C24.004843,131.589676 23.003593,130.171844 21.997948,128.374191 
	C22.665062,124.277115 23.336573,120.559875 24.407522,116.423950 
	C25.860680,115.999771 26.914394,115.994263 27.981911,116.240005 
	C28.000675,116.658836 28.005638,116.826408 27.877148,117.285065 
	C27.493692,118.382698 27.243690,119.189247 26.724854,120.228409 
	C26.215183,122.287231 25.974344,124.113441 25.733505,125.939651 
	C27.535036,125.769539 29.390787,125.814377 31.124895,125.376976 
	C33.494816,124.779190 35.783451,123.102562 38.087128,123.139038 
	C45.326324,123.253647 52.553230,124.015648 59.792656,124.367249 
	C61.050121,124.428322 62.345303,123.712708 63.623070,123.355843 
	C63.087830,121.900261 62.552593,120.444679 62.013580,118.604889 
	C61.660728,116.817688 61.311649,115.414688 60.924679,113.677834 
	C59.951485,112.551079 59.016182,111.758186 58.061005,110.568382 
	C58.031090,109.111122 58.021046,108.050766 57.999615,106.615456 
	C56.771320,100.186470 53.103981,96.779228 46.600243,96.029968 
	C45.495918,96.023773 44.759651,96.025726 43.639759,96.017601 
	C37.567440,97.024216 31.679939,103.813316 31.986710,109.324821 
	C31.970049,110.084541 31.956495,110.518570 31.672497,111.107597 
	C30.271845,112.175262 29.141638,113.087936 27.763077,113.753601 
	C28.006041,110.667999 28.497356,107.829399 28.988674,104.990807 
	C30.639811,99.981865 38.057190,94.046173 42.730461,93.994064 
	C53.494190,93.874023 59.669247,97.037643 61.934959,104.569733 
	C63.671402,110.342339 64.665512,116.338249 66.007286,122.615990 
z"/>
<path fill="#D9D9D9" opacity="1.000000" stroke="none" 
	d="
M28.629633,105.050812 
	C28.497356,107.829399 28.006041,110.667999 27.759502,114.085098 
	C27.992224,115.105331 27.980167,115.547043 27.968111,115.988762 
	C26.914394,115.994263 25.860680,115.999771 24.412495,116.009468 
	C25.435547,112.379387 26.853069,108.745102 28.629633,105.050812 
z"/>
<path fill="#C3C2C2" opacity="1.000000" stroke="none" 
	d="
M26.962543,98.189941 
	C27.569647,97.672462 28.044254,97.439575 28.768108,97.111694 
	C28.320660,98.179214 27.623962,99.341728 26.927263,100.504234 
	C26.894855,99.827675 26.862450,99.151108 26.962543,98.189941 
z"/>
<path fill="#F3F3F3" opacity="1.000000" stroke="none" 
	d="
M22.037029,216.978882 
	C21.909298,216.684570 21.720961,216.436234 21.272636,216.110611 
	C21.063560,215.246674 21.053867,214.506027 21.348269,213.337982 
	C22.431910,212.274094 23.211456,211.637589 24.251434,211.277817 
	C26.745609,220.113632 28.578533,228.804138 31.329945,237.193436 
	C33.894306,245.012360 38.883366,248.175491 46.067360,247.997513 
	C54.129230,247.797775 58.914398,245.025284 60.572048,238.385040 
	C62.200905,231.860168 62.821045,225.088226 64.055687,218.456696 
	C64.344986,216.902802 65.326874,215.477844 65.994019,214.369888 
	C66.339645,217.499054 66.681381,220.251907 66.967766,223.380432 
	C66.620285,225.492981 66.328148,227.229858 65.975037,229.340988 
	C64.609093,234.143494 63.304123,238.571747 61.771660,243.183472 
	C61.362568,243.911102 61.180977,244.455246 60.756737,245.187103 
	C59.676697,246.250687 58.839298,247.126572 57.627419,248.054565 
	C56.624298,248.317459 55.985432,248.502075 55.368546,248.742966 
	C46.389870,252.248718 37.938076,253.415527 31.812052,243.635513 
	C31.546080,243.210861 30.610325,243.205750 29.986568,243.005203 
	C29.803806,242.463242 29.621042,241.921295 29.215490,240.795761 
	C27.318508,233.104187 25.686146,225.985687 23.908756,218.903580 
	C23.720316,218.152725 22.681393,217.615311 22.037029,216.978882 
z"/>
<path fill="#EEEEEE" opacity="1.000000" stroke="none" 
	d="
M29.986420,243.379852 
	C30.610325,243.205750 31.546080,243.210861 31.812052,243.635513 
	C37.938076,253.415527 46.389870,252.248718 55.368546,248.742966 
	C55.985432,248.502075 56.624298,248.317459 57.576935,248.398651 
	C56.267574,250.461029 54.634220,252.231430 53.000870,254.001831 
	C52.251331,254.004242 51.501785,254.006653 50.068649,253.739304 
	C44.918396,252.983444 40.451736,252.497360 35.985073,252.011276 
	C35.985073,252.011276 35.490967,252.010956 35.198395,251.663971 
	C33.268707,249.545593 31.631588,247.774170 29.994473,246.002762 
	C29.991741,245.253342 29.989008,244.503906 29.986420,243.379852 
z"/>
<path fill="#EAEAEA" opacity="1.000000" stroke="none" 
	d="
M22.025217,217.409363 
	C22.681393,217.615311 23.720316,218.152725 23.908756,218.903580 
	C25.686146,225.985687 27.318508,233.104187 28.989628,240.611938 
	C27.558851,239.066528 26.131151,237.121399 24.354885,235.084320 
	C23.443781,231.238541 22.881245,227.484711 22.159012,223.365448 
	C22.004011,221.279938 22.008709,219.559891 22.025217,217.409363 
z"/>
<path fill="#EAEAEA" opacity="1.000000" stroke="none" 
	d="
M61.999161,243.000000 
	C63.304123,238.571747 64.609093,234.143494 66.341812,229.347931 
	C67.504433,228.989212 68.239296,228.997787 68.974167,229.006378 
	C68.812851,230.167938 68.651543,231.329514 67.932922,232.803436 
	C67.250511,234.077209 67.125412,235.038605 66.997719,236.372650 
	C66.992996,237.490616 66.990860,238.235916 66.712646,239.027664 
	C66.295631,239.715714 66.154701,240.357330 66.013779,240.998932 
	C66.009750,241.443344 66.005730,241.887772 66.000381,242.665482 
	C65.256523,243.001923 64.513985,243.005066 63.142559,243.005020 
	C62.342167,243.001221 62.170666,243.000610 61.999161,243.000000 
z"/>
<path fill="#EAEAEA" opacity="1.000000" stroke="none" 
	d="
M53.367027,253.994583 
	C54.634220,252.231430 56.267574,250.461029 57.951412,248.346542 
	C58.839298,247.126572 59.676697,246.250687 61.093647,245.187286 
	C62.122684,244.998306 62.572170,244.996857 63.021652,244.995392 
	C62.894344,248.704285 59.646099,251.848831 53.367027,253.994583 
z"/>
<path fill="#DADADA" opacity="1.000000" stroke="none" 
	d="
M28.995800,254.004013 
	C24.741091,251.970947 23.598375,248.758194 26.132166,243.456970 
	C27.248276,247.246552 28.124735,250.222443 29.004757,253.594894 
	C29.008318,253.991455 29.000036,254.000000 28.995800,254.004013 
z"/>
<path fill="#EAEAEA" opacity="1.000000" stroke="none" 
	d="
M36.075771,252.378326 
	C40.451736,252.497360 44.918396,252.983444 49.693882,253.740173 
	C45.235706,255.282928 40.469566,256.545685 36.075771,252.378326 
z"/>
<path fill="#EAEAEA" opacity="1.000000" stroke="none" 
	d="
M29.996250,246.377960 
	C31.631588,247.774170 33.268707,249.545593 34.951363,251.661316 
	C33.330612,250.254791 31.664320,248.503967 29.996250,246.377960 
z"/>
<path fill="#EEEEEE" opacity="1.000000" stroke="none" 
	d="
M63.018867,244.663940 
	C62.572170,244.996857 62.122684,244.998306 61.336296,244.999573 
	C61.180977,244.455246 61.362568,243.911102 61.771660,243.183472 
	C62.170666,243.000610 62.342167,243.001221 62.771271,243.004349 
	C63.024609,243.448746 63.020348,243.890625 63.018867,244.663940 
z"/>
<path fill="#D7BD89" opacity="1.000000" stroke="none" 
	d="
M58.964355,260.995117 
	C59.726074,260.317017 60.487793,259.638885 61.761871,259.298401 
	C62.516270,261.762421 62.965439,263.888458 62.968994,266.015259 
	C63.015499,293.836700 62.962116,321.658447 63.083553,349.479462 
	C63.091415,351.280762 64.323318,353.076782 64.985825,354.875244 
	C65.002251,357.642883 65.018677,360.410492 64.755371,363.868347 
	C64.291321,365.720673 64.107010,366.882721 63.558422,367.919006 
	C62.831944,367.271545 62.192150,366.771851 62.148800,366.224854 
	C61.390335,356.654907 60.124950,347.079651 60.118042,337.504669 
	C60.100945,313.809479 60.712803,290.114197 60.907707,266.417603 
	C60.922527,264.615570 59.642498,262.802856 58.964355,260.995117 
z"/>
<path fill="#CDAE77" opacity="1.000000" stroke="none" 
	d="
M64.996346,354.419556 
	C64.323318,353.076782 63.091415,351.280762 63.083553,349.479462 
	C62.962116,321.658447 63.015499,293.836700 62.968994,266.015259 
	C62.965439,263.888458 62.516270,261.762421 62.074753,259.247070 
	C61.875275,258.858093 61.964619,258.394196 62.050770,258.173065 
	C65.947090,258.065643 64.983643,260.964081 64.986443,263.087158 
	C65.026360,293.379333 65.009804,323.671631 64.996346,354.419556 
z"/>
<path fill="#D7BD89" opacity="1.000000" stroke="none" 
	d="
M65.636658,375.526917 
	C65.918602,376.264069 65.981178,376.728210 66.097038,377.535553 
	C65.622681,379.001740 65.315063,380.325989 64.515457,381.200195 
	C63.334641,382.491211 61.710209,384.068909 61.185974,380.028564 
	C62.211575,376.577698 63.070889,373.798187 64.199364,370.996277 
	C64.646278,370.945190 64.824028,370.916443 65.001785,370.887695 
	C65.140282,372.343109 65.278778,373.798523 65.636658,375.526917 
z"/>
<path fill="#CDAE77" opacity="1.000000" stroke="none" 
	d="
M65.008270,370.465271 
	C64.824028,370.916443 64.646278,370.945190 64.211906,370.623596 
	C63.944424,369.530426 63.933556,368.787628 63.922691,368.044800 
	C64.107010,366.882721 64.291321,365.720673 64.739113,364.329010 
	C65.006645,366.080566 65.010696,368.061707 65.008270,370.465271 
z"/>
<path fill="#F3F3F3" opacity="1.000000" stroke="none" 
	d="
M68.001305,190.000000 
	C68.002800,193.029892 68.004303,196.059799 67.757599,199.790680 
	C67.674683,201.995132 67.839981,203.498596 68.005280,205.002075 
	C68.002953,206.714798 68.000633,208.427521 67.662949,210.568527 
	C66.883224,210.997299 66.438850,210.997787 65.725052,210.682281 
	C65.303841,205.424210 65.074036,200.483002 65.018051,195.539841 
	C64.927757,187.567322 62.122211,184.484543 54.093216,184.040176 
	C50.792408,183.857498 47.466850,184.131378 44.164639,183.961929 
	C41.101307,183.804718 38.054089,183.333527 35.280220,182.743927 
	C37.708084,181.659988 39.855507,180.832748 42.273811,179.983337 
	C43.362713,179.974747 44.180737,179.988297 45.101700,180.367020 
	C47.802971,180.822540 50.401299,180.912872 53.332996,181.002838 
	C54.110859,181.001648 54.555355,181.000824 55.365845,181.051270 
	C61.508083,181.742828 64.705757,185.938904 68.001305,190.000000 
z"/>
<path fill="#DEDEDE" opacity="1.000000" stroke="none" 
	d="
M69.231033,229.003403 
	C68.239296,228.997787 67.504433,228.989212 66.402786,228.973679 
	C66.328148,227.229858 66.620285,225.492981 67.229195,223.157501 
	C67.709419,219.707367 67.872871,216.855820 68.036316,214.004272 
	C69.012314,214.826019 70.814888,215.639450 70.823273,216.470947 
	C70.862602,220.369232 70.408279,224.272491 70.065964,228.585083 
	C69.830406,228.997604 69.659157,228.999008 69.231033,229.003403 
z"/>
<path fill="#ECECEC" opacity="1.000000" stroke="none" 
	d="
M68.250221,189.999176 
	C64.705757,185.938904 61.508083,181.742828 55.365921,180.676071 
	C55.000145,179.499115 55.000301,178.748642 55.000458,177.998169 
	C56.104797,178.305298 57.209137,178.612427 58.728798,179.299026 
	C60.101498,180.115082 61.058880,180.551651 62.016262,180.988235 
	C64.120003,182.618042 66.223747,184.247864 68.657913,186.345551 
	C68.991219,187.873581 68.994087,188.933746 68.996956,189.993912 
	C68.996956,189.993912 68.499138,189.998367 68.250221,189.999176 
z"/>
<path fill="#ECECEC" opacity="1.000000" stroke="none" 
	d="
M68.026482,213.628357 
	C67.872871,216.855820 67.709419,219.707367 67.284546,222.781830 
	C66.681381,220.251907 66.339645,217.499054 65.995804,213.995605 
	C65.993958,212.496109 65.994225,211.747192 65.994484,210.998276 
	C66.438850,210.997787 66.883224,210.997299 67.660744,210.996582 
	C68.001480,211.748367 68.009064,212.500397 68.026482,213.628357 
z"/>
<path fill="#DEDEDE" opacity="1.000000" stroke="none" 
	d="
M69.002136,199.993958 
	C69.640800,199.455460 70.279457,198.916962 70.918114,198.378479 
	C71.276558,199.879074 71.975426,201.405807 71.863068,202.870285 
	C71.797874,203.720093 70.428955,204.469864 69.324188,204.716003 
	C69.001831,202.776215 69.001984,201.385071 69.002136,199.993958 
z"/>
<path fill="#DEDEDE" opacity="1.000000" stroke="none" 
	d="
M69.067627,190.300476 
	C68.994087,188.933746 68.991219,187.873581 68.985443,186.416351 
	C69.651604,187.084274 70.410339,188.111374 70.893623,189.254898 
	C70.966576,189.427505 69.755463,190.142792 69.067627,190.300476 
z"/>
<path fill="#ECECEC" opacity="1.000000" stroke="none" 
	d="
M68.753021,199.994095 
	C69.001984,201.385071 69.001831,202.776215 69.004837,204.584595 
	C68.840858,205.002640 68.673714,205.003433 68.255928,205.003159 
	C67.839981,203.498596 67.674683,201.995132 67.757538,200.244629 
	C68.005684,199.997604 68.503899,199.994247 68.753021,199.994095 
z"/>
<path fill="#EAEAEA" opacity="1.000000" stroke="none" 
	d="
M61.898205,180.735107 
	C61.058880,180.551651 60.101498,180.115082 59.071316,179.345367 
	C59.443417,179.008743 59.888313,179.005234 60.666912,179.000854 
	C61.260456,179.494003 61.520302,179.987991 61.898205,180.735107 
z"/>
<path fill="#E0C89A" opacity="1.000000" stroke="none" 
	d="
M63.558422,367.919006 
	C63.933556,368.787628 63.944424,369.530426 63.942745,370.645935 
	C63.070889,373.798187 62.211575,376.577698 61.175369,379.683472 
	C59.037590,376.898834 57.076702,373.787933 55.093384,370.308044 
	C56.405457,370.482452 57.739964,371.025879 60.257126,372.050842 
	C59.751934,365.328064 59.320927,359.343262 58.848003,353.361786 
	C58.249245,345.788788 57.239487,338.226379 57.080421,330.645294 
	C56.791260,316.863770 56.892097,303.070587 57.044117,289.284668 
	C57.120689,282.340515 57.780949,275.403809 57.915020,268.458618 
	C57.946510,266.827637 56.916748,265.176117 56.100365,263.234497 
	C56.658997,262.307556 57.492496,261.680115 58.645176,261.023926 
	C59.642498,262.802856 60.922527,264.615570 60.907707,266.417603 
	C60.712803,290.114197 60.100945,313.809479 60.118042,337.504669 
	C60.124950,347.079651 61.390335,356.654907 62.148800,366.224854 
	C62.192150,366.771851 62.831944,367.271545 63.558422,367.919006 
z"/>
<path fill="#DEDEDE" opacity="1.000000" stroke="none" 
	d="
M66.988731,238.981216 
	C66.990860,238.235916 66.992996,237.490616 67.247719,236.372650 
	C67.500305,236.000000 68.000305,236.000000 68.000305,236.000000 
	C68.312477,236.471573 68.624649,236.943146 68.968666,237.706146 
	C68.999588,238.749420 68.998672,239.501282 68.995850,240.629181 
	C68.499657,240.746475 68.005371,240.487747 67.253952,239.860260 
	C66.994125,239.321381 66.991425,239.151306 66.988731,238.981216 
z"/>
<path fill="#B5A790" opacity="1.000000" stroke="none" 
	d="
M42.468182,263.245178 
	C41.662952,263.485138 40.496868,263.669739 39.264862,263.578186 
	C40.168404,263.264648 41.137867,263.227234 42.468182,263.245178 
z"/>
<path fill="#DFDFDF" opacity="1.000000" stroke="none" 
	d="
M66.712646,239.027664 
	C66.991425,239.151306 66.994125,239.321381 66.998917,239.746643 
	C66.872101,240.301300 66.679802,240.552185 66.218948,240.876709 
	C66.154701,240.357330 66.295631,239.715714 66.712646,239.027664 
z"/>
<path fill="#B5A790" opacity="1.000000" stroke="none" 
	d="
M50.354168,263.801208 
	C50.050735,263.769623 50.095341,263.533142 50.114151,263.417297 
	C50.808796,263.243134 51.484631,263.184784 52.496117,263.114197 
	C52.107048,263.345581 51.382324,263.589172 50.354168,263.801208 
z"/>
<path fill="#D9D9D9" opacity="1.000000" stroke="none" 
	d="
M27.389631,132.990189 
	C26.634760,129.532578 29.227995,128.875809 31.649099,128.316452 
	C41.533459,126.032875 51.439838,124.510849 61.346828,128.271439 
	C63.814835,129.208267 66.043045,129.588364 66.012207,125.385376 
	C66.912933,126.766426 67.803505,128.544159 68.844505,130.660339 
	C68.814522,131.543411 68.634102,132.088043 68.227150,132.817490 
	C67.169006,132.971024 66.172340,133.229919 65.530609,132.864868 
	C56.211689,127.563820 46.254219,128.884674 36.353313,130.080917 
	C34.564842,130.296997 32.896923,131.510849 31.085173,132.631104 
	C29.928242,132.996918 28.859486,132.995667 27.389631,132.990189 
z"/>
<path fill="#F9F9F9" opacity="1.000000" stroke="none" 
	d="
M65.725052,210.682281 
	C65.994225,211.747192 65.993958,212.496109 65.991913,213.619293 
	C65.326874,215.477844 64.344986,216.902802 64.055687,218.456696 
	C62.821045,225.088226 62.200905,231.860168 60.572048,238.385040 
	C58.914398,245.025284 54.129230,247.797775 46.067360,247.997513 
	C38.883366,248.175491 33.894306,245.012360 31.329945,237.193436 
	C28.578533,228.804138 26.745609,220.113632 24.207741,210.944916 
	C22.959366,209.551483 22.015110,208.767685 21.070852,207.983902 
	C21.278173,206.549347 21.485498,205.114792 21.847874,203.093063 
	C22.001900,202.337265 22.000874,202.168625 22.027729,201.708771 
	C22.360971,200.944168 22.666332,200.470764 23.390068,199.997238 
	C28.317261,200.775543 31.018066,198.565323 31.222288,194.339966 
	C31.403219,190.596497 30.444445,186.797928 30.406761,183.016022 
	C32.216400,183.005783 33.608086,183.003189 34.999771,183.000610 
	C38.054089,183.333527 41.101307,183.804718 44.164639,183.961929 
	C47.466850,184.131378 50.792408,183.857498 54.093216,184.040176 
	C62.122211,184.484543 64.927757,187.567322 65.018051,195.539841 
	C65.074036,200.483002 65.303841,205.424210 65.725052,210.682281 
z"/>
<path fill="#FEFEFE" opacity="1.000000" stroke="none" 
	d="
M29.988804,183.023682 
	C30.444445,186.797928 31.403219,190.596497 31.222288,194.339966 
	C31.018066,198.565323 28.317261,200.775543 23.385723,199.608002 
	C22.312136,197.810547 21.661272,196.402191 21.010410,194.993820 
	C21.028273,192.969009 21.046135,190.944214 21.433855,188.466675 
	C24.532078,186.350540 27.260441,184.687103 29.988804,183.023682 
z"/>
<path fill="#EAEAEA" opacity="1.000000" stroke="none" 
	d="
M55.000130,177.748322 
	C55.000301,178.748642 55.000145,179.499115 54.999920,180.624786 
	C54.555355,181.000824 54.110859,181.001648 53.036377,180.738266 
	C49.937176,180.316650 47.467968,180.159241 44.998756,180.001831 
	C44.180737,179.988297 43.362713,179.974747 41.811668,179.981461 
	C33.816471,180.095123 26.141928,178.808167 21.000381,186.000000 
	C21.000381,186.000000 20.983862,185.505127 20.973501,185.257874 
	C21.240551,180.804031 23.898903,178.746536 27.805647,177.329620 
	C30.039328,177.009171 32.081070,177.001740 34.830292,177.248825 
	C41.359291,177.331985 47.180805,177.160614 53.002323,176.989243 
	C53.446575,176.991989 53.890823,176.994736 54.668301,176.998123 
	C55.001526,176.998779 54.999798,177.498474 55.000130,177.748322 
z"/>
<path fill="#EFEFEF" opacity="1.000000" stroke="none" 
	d="
M21.001518,186.342255 
	C26.141928,178.808167 33.816471,180.095123 41.540783,180.003601 
	C39.855507,180.832748 37.708084,181.659988 35.280220,182.743927 
	C33.608086,183.003189 32.216400,183.005783 30.406757,183.016022 
	C27.260441,184.687103 24.532078,186.350540 21.444954,188.033249 
	C21.058350,187.596527 21.030504,187.140518 21.001518,186.342255 
z"/>
<path fill="#DEDEDE" opacity="1.000000" stroke="none" 
	d="
M20.755524,195.258575 
	C21.661272,196.402191 22.312136,197.810547 22.967346,199.608154 
	C22.666332,200.470764 22.360971,200.944168 21.773207,201.699219 
	C21.321247,201.971710 21.151691,201.962555 20.982134,201.953400 
	C20.821636,199.810043 20.661137,197.666672 20.755524,195.258575 
z"/>
<path fill="#EAEAEA" opacity="1.000000" stroke="none" 
	d="
M20.833590,208.205627 
	C22.015110,208.767685 22.959366,209.551483 23.947313,210.668182 
	C23.211456,211.637589 22.431910,212.274094 21.352400,212.967529 
	C20.900400,211.492065 20.748363,209.959702 20.833590,208.205627 
z"/>
<path fill="#EFEFEF" opacity="1.000000" stroke="none" 
	d="
M21.100933,202.173340 
	C21.151691,201.962555 21.321247,201.971710 21.745325,201.990433 
	C22.000874,202.168625 22.001900,202.337265 21.996756,202.758896 
	C21.676607,202.876755 21.419655,202.670547 21.100933,202.173340 
z"/>
<path fill="#DEDEDE" opacity="1.000000" stroke="none" 
	d="
M52.933090,176.602295 
	C47.180805,177.160614 41.359291,177.331985 35.267685,177.246780 
	C35.121628,176.346039 35.022408,175.478790 35.406460,175.094437 
	C37.647190,172.851959 50.376957,173.730057 52.933090,176.602295 
z"/>
<path fill="#DFDFDF" opacity="1.000000" stroke="none" 
	d="
M68.000679,235.624542 
	C68.000305,236.000000 67.500305,236.000000 67.250305,236.000000 
	C67.125412,235.038605 67.250511,234.077209 67.686371,233.055908 
	C67.998428,233.747040 67.999741,234.498077 68.000679,235.624542 
z"/>
<path fill="#DEBE86" opacity="1.000000" stroke="none" 
	d="
M46.632675,55.809395 
	C48.273270,50.901672 49.589199,46.299519 51.284996,41.841877 
	C52.214527,39.398495 53.785191,37.199013 55.447849,34.202797 
	C56.779846,35.822197 57.698238,36.420509 57.691395,37.008049 
	C57.586185,46.041885 57.725525,55.103291 57.011776,64.095085 
	C56.644604,68.720718 49.858624,72.329300 45.555248,70.746315 
	C44.550842,70.376854 43.400028,68.263588 43.590771,67.176132 
	C44.243359,63.455502 45.463078,59.834347 46.632675,55.809395 
z"/>
<path fill="#F9F9F9" opacity="1.000000" stroke="none" 
	d="
M44.023384,96.027679 
	C44.759651,96.025726 45.495918,96.023773 46.658073,96.366776 
	C50.726311,100.137955 54.368660,103.564178 58.011005,106.990410 
	C58.021046,108.050766 58.031090,109.111122 57.687614,110.732483 
	C56.548828,111.517494 55.772514,111.894760 54.976875,111.941231 
	C48.680080,112.309044 42.381565,112.740463 36.078705,112.838188 
	C34.710190,112.859398 33.322044,111.614403 31.942940,110.952606 
	C31.956495,110.518570 31.970049,110.084541 32.282749,109.170654 
	C36.395725,104.469765 40.209557,100.248726 44.023384,96.027679 
z"/>
<path fill="#E6E6E6" opacity="1.000000" stroke="none" 
	d="
M62.017357,118.989098 
	C62.552593,120.444679 63.087830,121.900261 63.623070,123.355843 
	C62.345303,123.712708 61.050121,124.428322 59.792656,124.367249 
	C52.553230,124.015648 45.326324,123.253647 38.087128,123.139038 
	C35.783451,123.102562 33.494816,124.779190 31.124895,125.376976 
	C29.390787,125.814377 27.535036,125.769539 25.733505,125.939651 
	C25.974344,124.113441 26.215183,122.287231 26.907867,120.536430 
	C28.848051,120.817200 30.413200,121.426468 31.811901,121.160477 
	C39.284512,119.739418 46.643456,117.994759 54.385380,119.830757 
	C56.730923,120.386993 59.462563,119.315193 62.017357,118.989098 
z"/>
<path fill="#ECECEC" opacity="1.000000" stroke="none" 
	d="
M62.013580,118.604889 
	C59.462563,119.315193 56.730923,120.386993 54.385380,119.830757 
	C46.643456,117.994759 39.284512,119.739418 31.811901,121.160477 
	C30.413200,121.426468 28.848051,120.817200 27.176701,120.303818 
	C27.243690,119.189247 27.493692,118.382698 28.248653,117.339447 
	C30.513502,117.110855 32.278465,117.209419 34.032398,117.111168 
	C41.075153,116.716621 48.123402,116.364891 55.149380,115.761589 
	C57.122646,115.592148 59.026745,114.617172 60.962570,114.011688 
	C61.311649,115.414688 61.660728,116.817688 62.013580,118.604889 
z"/>
<path fill="#F3F3F3" opacity="1.000000" stroke="none" 
	d="
M60.924679,113.677834 
	C59.026745,114.617172 57.122646,115.592148 55.149380,115.761589 
	C48.123402,116.364891 41.075153,116.716621 34.032398,117.111168 
	C32.278465,117.209419 30.513502,117.110855 28.382105,117.048370 
	C28.005638,116.826408 28.000675,116.658836 27.981911,116.240005 
	C27.980167,115.547043 27.992224,115.105331 28.007854,114.332108 
	C29.141638,113.087936 30.271845,112.175262 31.672495,111.107597 
	C33.322044,111.614403 34.710190,112.859398 36.078705,112.838188 
	C42.381565,112.740463 48.680080,112.309044 54.976875,111.941231 
	C55.772514,111.894760 56.548828,111.517494 57.707489,111.129395 
	C59.016182,111.758186 59.951485,112.551079 60.924679,113.677834 
z"/>
<path fill="#ECECEC" opacity="1.000000" stroke="none" 
	d="
M43.639759,96.017601 
	C40.209557,100.248726 36.395725,104.469765 32.285858,108.844971 
	C31.679939,103.813316 37.567440,97.024216 43.639759,96.017601 
z"/>
<path fill="#ECECEC" opacity="1.000000" stroke="none" 
	d="
M57.999619,106.615456 
	C54.368660,103.564178 50.726311,100.137955 47.026131,96.374924 
	C53.103981,96.779228 56.771320,100.186470 57.999619,106.615456 
z"/>
<path fill="#EFEFEF" opacity="1.000000" stroke="none" 
	d="
M45.101700,180.367020 
	C47.467968,180.159241 49.937176,180.316650 52.703007,180.738617 
	C50.401299,180.912872 47.802971,180.822540 45.101700,180.367020 
z"/>
</svg>