<svg version="1.1" id="Layer_1" xmlns="http://www.w3.org/2000/svg" xmlns:xlink="http://www.w3.org/1999/xlink" x="0px" y="0px"
	 width="100%" viewBox="0 0 91 405" enable-background="new 0 0 91 405" xml:space="preserve">
<path fill="#E7E7E7" opacity="1.000000" stroke="none" 
	d="
M20.782055,212.935074 
	C20.196941,203.316940 18.938225,193.674789 19.280125,184.089722 
	C19.484219,178.368011 24.644352,175.747650 30.533875,175.404266 
	C29.938213,176.478043 29.120377,177.385513 28.106508,177.754807 
	C23.172533,179.551971 22.128496,180.961685 21.982870,187.870605 
	C26.136337,180.569382 32.328594,180.698090 38.487179,181.028961 
	C46.065521,181.436096 53.719795,181.561417 61.155720,182.865982 
	C63.713455,183.314713 66.931084,186.584564 67.697670,189.196518 
	C69.016449,193.689880 69.161369,198.707520 68.889221,203.452942 
	C68.189842,215.647873 66.991631,227.814209 65.649780,240.062195 
	C64.539902,241.756760 63.773033,243.381134 63.003082,245.002747 
	C63.000000,245.000000 63.007374,245.006119 62.648685,245.050659 
	C59.345200,246.478500 56.473328,248.053116 53.441753,249.208801 
	C44.760395,252.518250 35.459034,249.652908 30.005968,242.247849 
	C29.572464,241.659149 28.683073,241.406158 28.002266,240.664520 
	C27.997154,239.888321 27.995319,239.444763 28.243259,238.769058 
	C27.993765,237.358780 27.494497,236.180664 26.935802,234.604248 
	C26.242476,231.142929 25.608574,228.079941 24.984381,224.546860 
	C24.994089,218.276306 24.994089,212.475845 24.994089,206.675369 
	C24.702410,206.740677 24.410728,206.806000 24.119049,206.871307 
	C23.006718,208.892563 21.894386,210.913818 20.782055,212.935074 
M34.295021,187.654175 
	C28.179537,186.318497 26.957718,187.550247 27.001678,195.797562 
	C27.004223,196.864914 27.006767,197.932251 26.525080,199.525787 
	C28.349415,213.048828 30.217369,226.566223 31.969431,240.098618 
	C32.446789,243.785568 34.222301,245.840546 38.892658,245.997925 
	C41.261642,246.005554 43.630623,246.013168 46.523357,246.528076 
	C48.348854,246.350922 50.174351,246.173767 52.703060,245.976639 
	C54.468220,244.983887 56.233383,243.991135 58.705345,242.902466 
	C63.820217,240.080231 64.191376,234.443359 64.686096,229.991776 
	C65.871460,219.325424 65.981064,208.498779 65.877815,197.743027 
	C65.797180,189.342133 63.310963,187.026443 55.011585,185.867981 
	C51.471794,185.373871 47.829262,184.803238 44.319557,185.146957 
	C41.149612,185.457397 38.097088,186.966782 34.295021,187.654175 
M23.999300,199.384735 
	C23.837864,198.061600 23.676430,196.738480 23.514994,195.415344 
	C22.856794,195.490479 22.198597,195.565598 21.540398,195.640732 
	C21.812418,197.859497 22.084438,200.078262 22.356459,202.297028 
	C22.742210,202.308197 23.127964,202.319351 23.513716,202.330505 
	C23.673639,201.604935 23.833563,200.879349 23.999300,199.384735 
z"/>
<path fill="#D4D4D4" opacity="1.000000" stroke="none" 
	d="
M69.861038,111.978699 
	C69.913643,113.375557 69.966240,114.772408 69.756882,116.820374 
	C69.970100,118.645050 70.445274,119.818619 70.920448,120.992180 
	C70.920448,120.992180 71.147644,121.287483 71.198914,121.736565 
	C71.484230,122.454445 71.718277,122.723244 71.952316,122.992035 
	C72.010170,126.315933 72.068016,129.639832 71.897278,133.663788 
	C72.162582,137.932159 72.656487,141.500473 73.150391,145.068771 
	C73.107491,145.808228 73.064590,146.547699 72.567772,147.763855 
	C71.781837,150.034393 71.449821,151.828247 71.117813,153.622086 
	C71.117813,153.622086 71.160858,153.867279 70.719421,153.983490 
	C69.536598,155.100021 68.795219,156.100327 68.053833,157.100632 
	C68.053833,157.100632 68.029518,157.022491 67.860550,157.123688 
	C67.405563,157.353394 67.184090,157.553406 67.027168,157.824875 
	C66.280830,158.218094 65.534500,158.611328 64.068474,158.999908 
	C62.566349,158.986786 61.783913,158.978317 61.011642,158.610504 
	C62.684742,155.501114 64.347679,152.751053 66.291367,149.962997 
	C66.716278,149.283249 66.860435,148.641495 67.003983,147.624786 
	C67.002045,146.499878 67.000717,145.749939 66.999954,144.584000 
	C66.999794,142.779190 66.999077,141.390396 66.955208,139.657822 
	C65.325775,136.726257 63.942158,133.814041 59.667900,134.996246 
	C58.891590,134.995758 58.447979,134.995438 57.922577,134.645264 
	C55.677116,133.290207 53.563671,132.132584 51.313148,131.390961 
	C50.775372,131.213760 49.780556,132.423492 48.628410,132.988113 
	C46.841278,132.654953 45.421680,132.328995 43.559116,132.001602 
	C38.409698,133.332275 33.703255,134.664398 28.675663,136.147400 
	C27.566492,137.862930 26.778467,139.427597 25.623709,141.076263 
	C21.359022,145.935196 22.232605,153.374603 26.922707,156.347580 
	C22.964348,158.518539 20.026329,156.392792 20.158215,150.837219 
	C20.331190,143.550903 21.358799,136.284882 22.414890,129.005417 
	C24.540138,128.510056 26.336287,128.182205 27.987909,127.502960 
	C40.996468,122.152969 53.717014,120.381721 65.710243,130.075104 
	C66.338509,130.582901 67.425934,130.522598 69.546471,131.018127 
	C68.507057,127.754044 67.750114,125.376991 66.993439,122.626724 
	C66.991287,121.507576 66.988869,120.761642 66.988312,119.606995 
	C66.329414,115.127975 65.668678,111.057671 65.338120,106.954544 
	C66.725853,106.618248 67.783401,106.314781 68.840950,106.011307 
	C68.898956,107.360123 68.956955,108.708946 69.118217,110.680916 
	C69.352348,111.606972 69.565536,111.831848 69.861038,111.978699 
z"/>
<path fill="#D0B482" opacity="1.000000" stroke="none" 
	d="
M31.914204,77.801590 
	C32.266132,75.780792 32.618061,73.759995 33.417435,71.272873 
	C36.051174,64.594559 38.285923,58.398739 40.370037,52.152657 
	C40.672684,51.245632 40.254295,50.098022 40.169559,49.061741 
	C41.094715,46.184479 42.193703,43.349499 42.906174,40.420502 
	C44.116158,35.446190 46.326550,31.333786 51.855583,29.320595 
	C55.827335,30.455162 56.895260,32.918530 57.067230,36.226311 
	C57.254818,39.834446 57.798542,43.424068 58.138229,47.349430 
	C58.392078,48.455723 58.694721,49.234344 59.118412,50.304935 
	C59.231056,52.074402 59.222652,53.551891 59.181435,55.443802 
	C59.445004,58.918797 59.595222,62.003910 60.103180,65.028961 
	C60.335964,66.415230 61.272053,67.683411 61.889187,69.005142 
	C61.889187,69.005142 62.005619,69.437004 61.889484,70.002258 
	C62.165810,75.726082 62.558273,80.884651 62.603989,85.989319 
	C61.009132,84.294777 59.579060,82.760452 58.546791,80.993690 
	C55.356121,75.532799 50.625156,72.356079 44.410316,73.216805 
	C41.322662,73.644424 38.534863,76.259293 35.619602,77.899231 
	C34.354416,78.610939 33.052174,81.625099 31.914204,77.801590 
M41.287460,60.168114 
	C40.830833,60.982010 40.112450,61.753712 39.972992,62.618744 
	C39.696957,64.330963 39.740807,66.094742 39.652416,67.837212 
	C41.339958,67.764542 43.050491,67.485046 44.709450,67.669479 
	C46.986973,67.922684 49.272827,68.372375 51.462173,69.041817 
	C52.704918,69.421814 53.762154,70.408478 56.044182,71.835655 
	C56.158417,59.877892 55.762470,49.396709 52.106937,38.246597 
	C45.239819,43.787373 42.917927,50.525703 42.002457,58.669926 
	C42.001484,59.112827 42.000515,59.555725 41.287460,60.168114 
z"/>
<path fill="#DADADA" opacity="1.000000" stroke="none" 
	d="
M65.992783,239.991974 
	C66.991631,227.814209 68.189842,215.647873 68.889221,203.452942 
	C69.161369,198.707520 69.016449,193.689880 67.697670,189.196518 
	C66.931084,186.584564 63.713455,183.314713 61.155720,182.865982 
	C53.719795,181.561417 46.065521,181.436096 38.487179,181.028961 
	C32.328594,180.698090 26.136337,180.569382 21.982870,187.870605 
	C22.128496,180.961685 23.172533,179.551971 28.106508,177.754807 
	C29.120377,177.385513 29.938213,176.478043 30.918358,175.474777 
	C39.690464,175.078674 48.390614,175.026413 57.694103,175.245972 
	C58.554676,175.727936 58.845238,175.869888 59.169136,175.943619 
	C59.169136,175.943619 59.608612,175.972290 59.991367,176.259277 
	C60.902126,176.701538 61.430130,176.856812 61.958134,177.012070 
	C62.140457,177.006958 62.322784,177.001862 62.907730,177.260803 
	C63.555325,177.720886 63.827431,177.866043 64.126678,177.960342 
	C66.767235,181.044510 69.407799,184.128662 71.802711,187.860565 
	C71.778740,194.029526 72.000412,199.550720 72.222084,205.071930 
	C72.320053,207.738785 72.418015,210.405640 72.060600,213.757751 
	C71.809692,216.942245 72.014160,219.441483 72.218628,221.940720 
	C72.319267,224.091263 72.419891,226.241821 72.057518,228.947723 
	C71.410706,231.047333 71.226898,232.591553 71.043091,234.135788 
	C70.357491,237.490524 69.671875,240.845245 68.523727,244.537094 
	C67.042580,244.586044 66.023972,244.297882 65.042900,243.664551 
	C65.384560,242.210251 65.688675,241.101120 65.992783,239.991974 
z"/>
<path fill="#D1BA90" opacity="1.000000" stroke="none" 
	d="
M40.084206,319.988770 
	C39.082005,315.439911 38.101837,310.886078 37.072292,306.343445 
	C35.640778,300.027069 34.051960,293.743835 32.746376,287.402008 
	C30.513252,276.554688 28.447596,265.672882 26.540428,254.269867 
	C30.433273,251.764877 31.730806,254.347641 33.001011,257.440491 
	C34.371384,267.834595 35.443825,277.817780 37.200581,287.679047 
	C39.130554,298.512665 41.690701,309.233978 43.616539,320.007751 
	C42.780369,320.061066 42.303928,320.110901 41.537468,320.134705 
	C40.859699,320.068695 40.471951,320.028748 40.084206,319.988770 
z"/>
<path fill="#CFCFCE" opacity="1.000000" stroke="none" 
	d="
M33.004723,256.975830 
	C31.730806,254.347641 30.433273,251.764877 26.449211,253.872375 
	C24.872431,245.288986 23.615686,236.567383 22.452396,227.266815 
	C22.802263,226.490601 22.962780,226.233459 23.210852,225.704269 
	C23.921093,225.333725 24.447884,225.175339 24.974674,225.016937 
	C25.608574,228.079941 26.242476,231.142929 26.932224,234.967590 
	C27.323214,236.819901 27.658350,237.910553 27.993484,239.001221 
	C27.995319,239.444763 27.997154,239.888321 28.004902,241.045319 
	C29.253595,252.387512 40.600433,255.625748 48.803272,254.306824 
	C53.747391,253.511887 58.285416,250.191299 63.002960,248.002808 
	C63.000000,248.000000 63.006084,248.006073 63.002342,248.406403 
	C62.995365,249.875397 62.992134,250.944077 62.780037,252.234711 
	C62.060978,253.319382 61.550774,254.182083 60.721169,255.181427 
	C57.594540,256.564911 54.787319,257.811768 51.579727,259.061523 
	C48.783161,259.337769 46.386974,259.611115 43.991997,259.514862 
	C43.451660,258.188232 42.910114,257.231201 42.368568,256.274170 
	C41.919289,257.159119 41.470013,258.044067 40.640190,258.940125 
	C37.841343,258.292755 35.423031,257.634308 33.004723,256.975830 
z"/>
<path fill="#DEDEDE" opacity="1.000000" stroke="none" 
	d="
M22.018833,129.010132 
	C21.358799,136.284882 20.331190,143.550903 20.158215,150.837219 
	C20.026329,156.392792 22.964348,158.518539 26.951595,156.054092 
	C27.371859,154.942429 27.686319,154.471207 28.364067,154.007263 
	C31.151531,154.676346 33.575710,155.338181 36.445190,156.000732 
	C39.274323,155.979126 41.658154,155.956772 44.433334,155.943146 
	C45.868412,155.944885 46.912148,155.937927 48.404057,155.953857 
	C51.231510,155.979843 53.610786,155.982941 56.365608,155.987762 
	C59.163677,153.992538 61.586197,151.995621 64.342300,149.998413 
	C65.120781,149.999069 65.565697,150.000031 66.010605,150.000992 
	C64.347679,152.751053 62.684742,155.501114 61.008331,158.835098 
	C60.994862,159.419037 61.010162,159.866257 61.010162,159.866257 
	C54.648693,159.918564 48.287224,159.970856 41.253006,159.767731 
	C39.723473,159.966827 38.866692,160.421356 38.009907,160.875885 
	C35.529129,160.920532 33.038612,161.128891 30.569221,160.982025 
	C18.654106,160.273407 17.316626,155.641968 18.069798,144.322403 
	C18.468117,138.336014 19.238329,132.367462 20.038422,126.417458 
	C20.488630,123.069389 21.341190,119.775436 22.394550,116.659767 
	C22.852184,117.575653 22.927757,118.288864 23.001892,119.402008 
	C23.000061,120.868118 22.999670,121.934303 22.998545,123.391251 
	C22.671486,125.524727 22.345160,127.267433 22.018833,129.010132 
z"/>
<path fill="#C9B38C" opacity="1.000000" stroke="none" 
	d="
M63.127285,298.108032 
	C62.651215,306.655609 62.279915,315.210876 61.651665,323.747253 
	C61.368454,327.595398 60.573029,331.405884 59.617523,335.616913 
	C58.810577,335.999451 58.396111,335.998505 57.740864,335.996613 
	C57.500080,335.995667 57.018108,335.990234 57.013176,335.525208 
	C57.351402,324.210358 57.707474,313.360901 58.025185,302.510376 
	C58.078991,300.672760 57.967777,298.830322 57.942398,296.660309 
	C57.952198,295.890564 57.952404,295.450623 58.235291,294.731445 
	C59.342995,285.447662 60.065403,276.431152 61.111256,267.452362 
	C61.256672,266.203979 62.996422,265.141296 64.216286,264.121246 
	C64.620811,264.515320 64.807167,264.780823 64.993523,265.046326 
	C65.005630,265.218689 65.017731,265.391052 64.699158,266.106567 
	C63.641197,271.505707 62.468700,276.346649 62.303600,281.221710 
	C62.113503,286.834747 62.813728,292.477936 63.127285,298.108032 
z"/>
<path fill="#C9C8C8" opacity="1.000000" stroke="none" 
	d="
M64.989754,89.007416 
	C65.390221,92.770920 65.790688,96.534416 65.654709,100.594849 
	C63.990223,99.462135 62.653728,98.148476 61.779644,96.577538 
	C60.194916,93.729362 59.301552,90.398560 57.322968,87.900085 
	C55.874802,86.071381 53.151722,85.252296 50.667305,83.985886 
	C49.898472,83.976547 49.459225,83.964508 48.767502,83.953003 
	C48.346893,83.961433 48.178764,83.969345 47.591660,83.961205 
	C45.775570,83.922096 44.378448,83.899048 42.771622,83.666870 
	C41.043156,83.974686 39.524399,84.491623 37.664948,85.066933 
	C36.207016,87.075386 35.089775,89.025475 33.983219,90.986198 
	C33.993904,90.996841 33.966030,90.972923 33.610397,91.028687 
	C31.496244,95.387329 29.737724,99.690216 27.728283,103.879379 
	C27.000086,103.490463 26.522812,103.215279 26.038326,102.542137 
	C26.446003,100.473465 27.102335,98.814705 27.185898,97.127571 
	C27.236626,96.103394 26.402014,95.035355 25.965132,93.987022 
	C27.230352,90.224045 28.495573,86.461075 30.190811,82.607498 
	C30.620831,84.397659 30.620831,86.278404 30.620831,88.607002 
	C31.652693,87.262741 32.561291,86.175247 33.365726,85.015511 
	C38.695412,77.331810 46.741371,75.885185 54.182934,81.593590 
	C57.010296,83.762451 59.348885,86.568497 61.929092,89.406166 
	C62.106087,90.425301 62.264240,91.122398 62.688957,92.994431 
	C62.967808,90.819298 63.084625,89.908096 63.499493,88.996704 
	C64.194946,89.000145 64.592354,89.003784 64.989754,89.007416 
z"/>
<path fill="#B5B2AB" opacity="1.000000" stroke="none" 
	d="
M61.910244,89.084129 
	C59.348885,86.568497 57.010296,83.762451 54.182934,81.593590 
	C46.741371,75.885185 38.695412,77.331810 33.365726,85.015511 
	C32.561291,86.175247 31.652693,87.262741 30.620831,88.607002 
	C30.620831,86.278404 30.620831,84.397659 30.365879,82.281662 
	C30.493425,80.739471 30.875919,79.432518 31.586308,77.963577 
	C33.052174,81.625099 34.354416,78.610939 35.619602,77.899231 
	C38.534863,76.259293 41.322662,73.644424 44.410316,73.216805 
	C50.625156,72.356079 55.356121,75.532799 58.546791,80.993690 
	C59.579060,82.760452 61.009132,84.294777 62.638794,86.303520 
	C63.030167,87.093956 63.039986,87.516304 62.835571,88.068069 
	C62.354084,88.406921 62.155285,88.668373 61.995995,89.007118 
	C61.967056,89.032387 61.910244,89.084129 61.910244,89.084129 
z"/>
<path fill="#D8D8D8" opacity="1.000000" stroke="none" 
	d="
M50.996895,83.983200 
	C53.151722,85.252296 55.874802,86.071381 57.322968,87.900085 
	C59.301552,90.398560 60.194916,93.729362 61.779644,96.577538 
	C62.653728,98.148476 63.990223,99.462135 65.475479,100.953125 
	C65.832710,101.014473 65.975121,101.447609 65.861900,102.016327 
	C65.501770,104.052490 65.254852,105.519928 65.007935,106.987366 
	C65.668678,111.057671 66.329414,115.127975 66.673492,119.570847 
	C65.575218,119.627853 64.793610,119.312302 64.002235,118.628601 
	C63.338062,116.503426 62.683651,114.746399 62.017570,112.604050 
	C61.671268,110.478485 61.336639,108.738235 61.003174,106.576355 
	C59.827320,102.026894 58.932629,97.787354 57.361095,93.815628 
	C56.500359,91.640289 54.496487,89.917282 52.752075,87.877876 
	C52.001625,87.506340 51.507187,87.247231 51.010452,86.740570 
	C51.008152,86.493027 51.001717,85.997948 51.001797,85.662537 
	C51.000217,84.879150 50.998558,84.431175 50.996895,83.983200 
z"/>
<path fill="#D0B482" opacity="1.000000" stroke="none" 
	d="
M46.191341,358.049805 
	C46.133018,357.844147 46.074692,357.638519 46.022644,356.736511 
	C46.049221,355.033997 46.069523,354.027832 46.478115,353.013977 
	C47.907986,353.005005 48.949566,353.003723 49.997375,353.402039 
	C50.828423,355.945618 51.653240,358.089569 52.528095,360.363586 
	C54.751945,359.154602 55.857502,358.553558 56.975578,358.340698 
	C57.315746,360.142975 57.643394,361.557098 57.977806,363.365234 
	C58.001194,364.547150 58.017815,365.335083 58.042068,366.331238 
	C58.049698,366.539459 58.092110,366.954681 57.813210,367.230652 
	C57.413044,369.088684 57.291782,370.670776 57.170521,372.252838 
	C57.170521,372.252838 57.142914,372.151764 56.789696,372.097839 
	C50.595932,371.911682 50.516869,367.000153 48.993195,363.203430 
	C48.269882,361.401001 47.138084,359.762543 46.191341,358.049805 
z"/>
<path fill="#D8D8D8" opacity="1.000000" stroke="none" 
	d="
M26.045540,102.940086 
	C26.522812,103.215279 27.000086,103.490463 28.058643,103.882202 
	C29.079866,104.000519 29.519804,104.002274 29.977398,104.255432 
	C30.009003,104.674263 30.022953,104.841698 30.035431,105.260818 
	C30.037167,105.680252 30.040373,105.848015 29.768257,106.282974 
	C29.320704,108.365089 29.148472,110.180000 28.731644,112.215149 
	C28.319754,113.285210 28.152456,114.135033 27.653116,115.057266 
	C26.549656,116.420212 25.778240,117.710747 24.672794,119.000725 
	C23.893620,119.000809 23.448475,119.001450 23.003330,119.002083 
	C22.927757,118.288864 22.852184,117.575653 22.678740,116.333084 
	C22.698246,113.429802 22.815624,111.055862 23.403406,108.275658 
	C24.597721,106.226288 25.321630,104.583191 26.045540,102.940086 
z"/>
<path fill="#D3B684" opacity="1.000000" stroke="none" 
	d="
M41.827492,320.160736 
	C42.303928,320.110901 42.780369,320.061066 43.623493,320.449097 
	C44.241192,323.168793 44.458469,325.454956 44.749828,327.731659 
	C45.486927,333.491486 46.257313,339.247070 46.743256,345.008240 
	C46.291679,345.020111 46.111214,345.028107 45.675766,344.812347 
	C44.553791,343.037659 43.686794,341.486725 42.819794,339.935760 
	C42.819798,339.935760 42.978920,339.503265 43.005814,338.822357 
	C42.630970,332.147888 42.229233,326.154297 41.827492,320.160736 
z"/>
<path fill="#D8D8D8" opacity="1.000000" stroke="none" 
	d="
M24.984383,224.546875 
	C24.447884,225.175339 23.921093,225.333725 22.888561,225.727997 
	C22.167622,225.965454 21.952419,225.967010 21.737219,225.968567 
	C21.426159,221.891861 21.115097,217.815155 20.793045,213.336761 
	C21.894386,210.913818 23.006718,208.892563 24.119049,206.871307 
	C24.410728,206.806000 24.702410,206.740677 24.994089,206.675369 
	C24.994089,212.475845 24.994089,218.276306 24.984383,224.546875 
z"/>
<path fill="#E6DAC6" opacity="1.000000" stroke="none" 
	d="
M63.493111,297.864685 
	C62.813728,292.477936 62.113503,286.834747 62.303600,281.221710 
	C62.468700,276.346649 63.641197,271.505707 64.610657,266.350159 
	C64.521530,276.574188 64.190231,287.097778 63.493111,297.864685 
z"/>
<path fill="#D5BF98" opacity="1.000000" stroke="none" 
	d="
M58.034435,366.122986 
	C58.017815,365.335083 58.001194,364.547150 57.985649,362.900116 
	C57.985035,353.359833 57.983341,344.678711 57.981647,335.997559 
	C58.396111,335.998505 58.810577,335.999451 59.535835,336.006470 
	C59.897110,337.398010 59.947586,338.783417 59.837532,340.740417 
	C59.718128,341.871521 59.759262,342.431030 59.800400,342.990540 
	C59.727425,350.276459 59.654449,357.562378 59.315323,365.325317 
	C58.710926,365.909241 58.372681,366.016113 58.034435,366.122986 
z"/>
<path fill="#B3A999" opacity="1.000000" stroke="none" 
	d="
M58.187023,47.021759 
	C57.798542,43.424068 57.254818,39.834446 57.067230,36.226311 
	C56.895260,32.918530 55.827335,30.455162 52.192383,29.195814 
	C52.396423,28.417315 52.852482,27.892275 53.308540,27.367233 
	C55.129009,29.053349 58.068047,30.475548 58.540886,32.479622 
	C59.577404,36.872742 59.364315,41.560696 59.333412,46.557861 
	C58.732643,47.000809 58.459873,47.012241 58.187023,47.021759 
z"/>
<path fill="#C9B38C" opacity="1.000000" stroke="none" 
	d="
M61.040581,255.044800 
	C61.550774,254.182083 62.060978,253.319382 63.088882,252.097061 
	C64.687164,251.485062 65.767746,251.232681 66.848328,250.980286 
	C66.575607,254.055725 66.302887,257.131165 65.638611,260.607208 
	C64.848969,261.019592 64.450890,261.031372 63.701782,260.960815 
	C62.580696,258.933929 61.810638,256.989380 61.040581,255.044800 
z"/>
<path fill="#E6DAC6" opacity="1.000000" stroke="none" 
	d="
M39.993862,49.388565 
	C40.254295,50.098022 40.672684,51.245632 40.370037,52.152657 
	C38.285923,58.398739 36.051174,64.594559 33.516586,70.890060 
	C35.384922,63.887505 37.601543,56.801449 39.993862,49.388565 
z"/>
<path fill="#DBCDB2" opacity="1.000000" stroke="none" 
	d="
M46.122452,358.448364 
	C47.138084,359.762543 48.269882,361.401001 48.993195,363.203430 
	C50.516869,367.000153 50.595932,371.911682 56.841454,372.105957 
	C52.183372,375.169525 51.353378,375.023621 49.365444,369.802338 
	C48.011326,366.245758 47.140495,362.505188 46.122452,358.448364 
z"/>
<path fill="#BCB19F" opacity="1.000000" stroke="none" 
	d="
M42.471760,340.154541 
	C43.686794,341.486725 44.553791,343.037659 45.679573,345.173340 
	C45.667717,347.163452 45.397079,348.568878 45.218636,350.280945 
	C45.570499,351.398956 45.830166,352.210327 46.089828,353.021698 
	C46.069523,354.027832 46.049221,355.033997 46.041183,356.416443 
	C45.371410,355.289215 44.389915,353.847107 44.066334,352.270050 
	C43.259392,348.337158 42.751598,344.342926 42.471760,340.154541 
z"/>
<path fill="#ABA290" opacity="1.000000" stroke="none" 
	d="
M41.537468,320.134705 
	C42.229233,326.154297 42.630970,332.147888 43.001617,338.591980 
	C42.052673,335.597473 40.922340,332.190979 40.288067,328.694489 
	C39.828289,326.159943 40.025852,323.506134 40.007248,320.447144 
	C40.471951,320.028748 40.859699,320.068695 41.537468,320.134705 
z"/>
<path fill="#E6DAC6" opacity="1.000000" stroke="none" 
	d="
M63.049809,87.938644 
	C63.039986,87.516304 63.030167,87.093956 62.985542,86.357422 
	C62.558273,80.884651 62.165810,75.726082 61.906113,70.225281 
	C62.701050,71.103149 63.809231,72.275406 63.946129,73.551842 
	C64.464951,78.389435 64.669144,83.260773 64.990387,88.563446 
	C64.592354,89.003784 64.194946,89.000145 63.461945,88.988174 
	C63.126339,88.979843 63.049644,88.972839 63.053593,88.714294 
	C63.054966,88.283379 63.052387,88.111015 63.049809,87.938644 
z"/>
<path fill="#DCDCDC" opacity="1.000000" stroke="none" 
	d="
M26.038326,102.542137 
	C25.321630,104.583191 24.597721,106.226288 23.522305,107.933060 
	C23.849812,103.420670 24.528824,98.844612 25.586485,94.127792 
	C26.402014,95.035355 27.236626,96.103394 27.185898,97.127571 
	C27.102335,98.814705 26.446003,100.473465 26.038326,102.542137 
z"/>
<path fill="#B5A58F" opacity="1.000000" stroke="none" 
	d="
M61.964481,68.546303 
	C61.272053,67.683411 60.335964,66.415230 60.103180,65.028961 
	C59.595222,62.003910 59.445004,58.918797 59.434357,55.439812 
	C60.062500,55.034683 60.404907,55.047970 60.747311,55.061256 
	C61.178131,59.403324 61.608955,63.745392 61.964481,68.546303 
z"/>
<path fill="#E4E4E4" opacity="1.000000" stroke="none" 
	d="
M73.500511,144.869965 
	C72.656487,141.500473 72.162582,137.932159 71.980019,134.103912 
	C72.811111,137.453033 73.330872,141.062088 73.500511,144.869965 
z"/>
<path fill="#EDEDED" opacity="1.000000" stroke="none" 
	d="
M72.343658,204.616882 
	C72.000412,199.550720 71.778740,194.029526 71.870895,188.220123 
	C72.278221,193.341904 72.371727,198.751877 72.343658,204.616882 
z"/>
<path fill="#CFCFCE" opacity="1.000000" stroke="none" 
	d="
M65.005356,244.009720 
	C66.023972,244.297882 67.042580,244.586044 68.376526,244.926529 
	C68.383659,245.910446 68.075455,246.842041 67.064041,247.883820 
	C65.242584,247.998032 64.124336,248.002045 63.006084,248.006073 
	C63.006084,248.006073 63.000000,248.000000 63.003098,247.627701 
	C63.006584,246.505646 63.006977,245.755875 63.007374,245.006119 
	C63.007374,245.006119 63.000000,245.000000 63.259914,244.892487 
	C64.015007,244.526566 64.510178,244.268143 65.005356,244.009720 
z"/>
<path fill="#D6D4D1" opacity="1.000000" stroke="none" 
	d="
M63.002342,248.406403 
	C64.124336,248.002045 65.242584,247.998032 66.780518,247.993256 
	C67.122971,248.739761 67.045738,249.487015 66.908417,250.607285 
	C65.767746,251.232681 64.687164,251.485062 63.297741,251.875092 
	C62.992134,250.944077 62.995365,249.875397 63.002342,248.406403 
z"/>
<path fill="#C9C8C8" opacity="1.000000" stroke="none" 
	d="
M65.338120,106.954544 
	C65.254852,105.519928 65.501770,104.052490 65.901199,102.240883 
	C67.014313,103.041283 67.974899,104.185844 68.888222,105.670853 
	C67.783401,106.314781 66.725853,106.618248 65.338120,106.954544 
z"/>
<path fill="#B3A999" opacity="1.000000" stroke="none" 
	d="
M60.740898,54.634495 
	C60.404907,55.047970 60.062500,55.034683 59.467175,55.025391 
	C59.222652,53.551891 59.231056,52.074402 59.157475,50.172401 
	C59.138306,49.571045 59.238773,49.419098 59.376892,49.292049 
	C59.829422,50.930611 60.281956,52.569172 60.740898,54.634495 
z"/>
<path fill="#DBCDB2" opacity="1.000000" stroke="none" 
	d="
M57.474709,372.129608 
	C57.291782,370.670776 57.413044,369.088684 58.077209,367.419739 
	C58.710232,368.180115 58.800358,369.027374 58.890488,369.874603 
	C58.519962,370.585205 58.149433,371.295776 57.474709,372.129608 
z"/>
<path fill="#EDEDED" opacity="1.000000" stroke="none" 
	d="
M72.337906,221.509277 
	C72.014160,219.441483 71.809692,216.942245 71.910599,214.179291 
	C72.296387,216.302994 72.376785,218.690399 72.337906,221.509277 
z"/>
<path fill="#E4E4E4" opacity="1.000000" stroke="none" 
	d="
M71.457230,153.409576 
	C71.449821,151.828247 71.781837,150.034393 72.488853,148.126404 
	C72.508125,149.740524 72.152390,151.468811 71.457230,153.409576 
z"/>
<path fill="#E4E4E4" opacity="1.000000" stroke="none" 
	d="
M70.959671,120.631111 
	C70.445274,119.818619 69.970100,118.645050 69.737251,117.240379 
	C70.319351,118.096191 70.659126,119.183121 70.959671,120.631111 
z"/>
<path fill="#E6DAC6" opacity="1.000000" stroke="none" 
	d="
M64.052811,261.043121 
	C64.450890,261.031372 64.848969,261.019592 65.545502,261.021912 
	C65.733154,262.208649 65.622360,263.381226 65.252541,264.800079 
	C64.807167,264.780823 64.620811,264.515320 64.234329,263.752502 
	C64.040405,262.517822 64.046608,261.780487 64.052811,261.043121 
z"/>
<path fill="#E4E4E4" opacity="1.000000" stroke="none" 
	d="
M68.399742,157.055206 
	C68.795219,156.100327 69.536598,155.100021 70.615707,154.052322 
	C70.217499,155.006561 69.481575,156.008163 68.399742,157.055206 
z"/>
<path fill="#EDEDED" opacity="1.000000" stroke="none" 
	d="
M38.338062,160.948425 
	C38.866692,160.421356 39.723473,159.966827 40.784428,159.743317 
	C40.214470,160.323212 39.440342,160.672073 38.338062,160.948425 
z"/>
<path fill="#EDEDED" opacity="1.000000" stroke="none" 
	d="
M71.458282,234.026993 
	C71.226898,232.591553 71.410706,231.047333 71.908600,229.277374 
	C72.106277,230.673843 71.989876,232.296021 71.458282,234.026993 
z"/>
<path fill="#B5A58F" opacity="1.000000" stroke="none" 
	d="
M59.495834,48.913994 
	C59.238773,49.419098 59.138306,49.571045 59.036430,49.880432 
	C58.694721,49.234344 58.392078,48.455723 58.138229,47.349430 
	C58.459873,47.012241 58.732643,47.000809 59.211922,46.982246 
	C59.483940,47.496666 59.549362,48.016300 59.495834,48.913994 
z"/>
<path fill="#71695A" opacity="1.000000" stroke="none" 
	d="
M59.267250,369.749420 
	C58.800358,369.027374 58.710232,368.180115 58.356110,367.143799 
	C58.092110,366.954681 58.049698,366.539459 58.042068,366.331238 
	C58.372681,366.016113 58.710926,365.909241 59.314636,365.777710 
	C59.601406,367.043457 59.622707,368.333862 59.267250,369.749420 
z"/>
<path fill="#71695A" opacity="1.000000" stroke="none" 
	d="
M60.034180,342.882507 
	C59.759262,342.431030 59.718128,341.871521 59.847507,341.157043 
	C60.101334,341.592865 60.184647,342.183655 60.034180,342.882507 
z"/>
<path fill="#EDEDED" opacity="1.000000" stroke="none" 
	d="
M61.369049,159.939697 
	C61.010162,159.866257 60.994862,159.419037 60.998169,159.194443 
	C61.783913,158.978317 62.566349,158.986786 63.739799,159.017105 
	C63.329857,159.363693 62.528896,159.688431 61.369049,159.939697 
z"/>
<path fill="#E7E7E7" opacity="1.000000" stroke="none" 
	d="
M61.782501,176.781555 
	C61.430130,176.856812 60.902126,176.701538 60.199436,176.331375 
	C60.552124,176.261322 61.079498,176.406189 61.782501,176.781555 
z"/>
<path fill="#E4E4E4" opacity="1.000000" stroke="none" 
	d="
M69.891060,111.709518 
	C69.565536,111.831848 69.352348,111.606972 69.128677,111.086449 
	C69.330940,111.059334 69.626007,111.249840 69.891060,111.709518 
z"/>
<path fill="#E4E4E4" opacity="1.000000" stroke="none" 
	d="
M72.028664,122.682922 
	C71.718277,122.723244 71.484230,122.454445 71.175369,121.921371 
	C71.435364,121.895996 71.770180,122.134903 72.028664,122.682922 
z"/>
<path fill="#E4E4E4" opacity="1.000000" stroke="none" 
	d="
M67.287712,157.863663 
	C67.184090,157.553406 67.405563,157.353394 67.900009,157.134506 
	C67.921707,157.330246 67.734985,157.616348 67.287712,157.863663 
z"/>
<path fill="#E7E7E7" opacity="1.000000" stroke="none" 
	d="
M59.071472,175.684692 
	C58.845238,175.869888 58.554676,175.727936 58.159443,175.316406 
	C58.338898,175.218613 58.656357,175.322189 59.071472,175.684692 
z"/>
<path fill="#E7E7E7" opacity="1.000000" stroke="none" 
	d="
M64.035950,177.708954 
	C63.827431,177.866043 63.555325,177.720886 63.169556,177.340179 
	C63.334244,177.256210 63.639732,177.356888 64.035950,177.708954 
z"/>
<path fill="#E7E7E7" opacity="1.000000" stroke="none" 
	d="
M21.691383,226.282745 
	C21.952419,225.967010 22.167622,225.965454 22.705112,225.940155 
	C22.962780,226.233459 22.802263,226.490601 22.357859,226.821503 
	C21.995094,226.835739 21.820320,226.716324 21.691383,226.282745 
z"/>
<path fill="#F8F8F8" opacity="1.000000" stroke="none" 
	d="
M27.009314,198.999603 
	C27.006767,197.932251 27.004223,196.864914 27.369331,195.449875 
	C33.659061,198.244965 34.778282,197.553314 36.436249,189.993729 
	C42.761795,189.996353 48.656471,189.967560 54.550659,190.008636 
	C59.722351,190.044662 61.763287,191.816559 61.941460,197.115524 
	C62.167229,203.830124 61.864716,210.561356 62.033154,217.279312 
	C62.254780,226.118423 61.620014,234.781570 57.998547,242.998383 
	C56.233383,243.991135 54.468220,244.983887 52.091190,245.729889 
	C49.652748,245.662369 47.826176,245.841583 45.999607,246.020782 
	C43.630623,246.013168 41.261642,246.005554 38.377579,245.648407 
	C35.910122,240.148972 33.248180,235.142349 32.172256,229.815414 
	C30.573072,221.897812 30.190708,213.740524 29.080433,205.714279 
	C28.763666,203.424377 27.719776,201.235046 27.009314,198.999603 
z"/>
<path fill="#F0F0F0" opacity="1.000000" stroke="none" 
	d="
M58.351944,242.950424 
	C61.620014,234.781570 62.254780,226.118423 62.033154,217.279312 
	C61.864716,210.561356 62.167229,203.830124 61.941460,197.115524 
	C61.763287,191.816559 59.722351,190.044662 54.550659,190.008636 
	C48.656471,189.967560 42.761795,189.996353 36.319771,189.733673 
	C35.512402,188.964203 35.252590,188.455826 34.992783,187.947449 
	C38.097088,186.966782 41.149612,185.457397 44.319557,185.146957 
	C47.829262,184.803238 51.471794,185.373871 55.011585,185.867981 
	C63.310963,187.026443 65.797180,189.342133 65.877815,197.743027 
	C65.981064,208.498779 65.871460,219.325424 64.686096,229.991776 
	C64.191376,234.443359 63.820217,240.080231 58.351944,242.950424 
z"/>
<path fill="#DFDFDF" opacity="1.000000" stroke="none" 
	d="
M62.648685,245.050659 
	C63.006977,245.755875 63.006584,246.505646 63.006058,247.630524 
	C58.285416,250.191299 53.747391,253.511887 48.803272,254.306824 
	C40.600433,255.625748 29.253595,252.387512 28.008179,241.377960 
	C28.683073,241.406158 29.572464,241.659149 30.005968,242.247849 
	C35.459034,249.652908 44.760395,252.518250 53.441753,249.208801 
	C56.473328,248.053116 59.345200,246.478500 62.648685,245.050659 
z"/>
<path fill="#F0F0F0" opacity="1.000000" stroke="none" 
	d="
M26.767197,199.262695 
	C27.719776,201.235046 28.763666,203.424377 29.080433,205.714279 
	C30.190708,213.740524 30.573072,221.897812 32.172256,229.815414 
	C33.248180,235.142349 35.910122,240.148972 37.933758,245.646393 
	C34.222301,245.840546 32.446789,243.785568 31.969431,240.098618 
	C30.217369,226.566223 28.349415,213.048828 26.767197,199.262695 
z"/>
<path fill="#FDFDFD" opacity="1.000000" stroke="none" 
	d="
M34.643898,187.800812 
	C35.252590,188.455826 35.512402,188.964203 35.888687,189.732635 
	C34.778282,197.553314 33.659061,198.244965 27.374130,195.049652 
	C26.957718,187.550247 28.179537,186.318497 34.643898,187.800812 
z"/>
<path fill="#D8D8D8" opacity="1.000000" stroke="none" 
	d="
M23.996391,199.769257 
	C23.833563,200.879349 23.673639,201.604935 23.513716,202.330505 
	C23.127964,202.319351 22.742210,202.308197 22.356459,202.297028 
	C22.084438,200.078262 21.812418,197.859497 21.540398,195.640732 
	C22.198597,195.565598 22.856794,195.490479 23.514994,195.415344 
	C23.676430,196.738480 23.837864,198.061600 23.996391,199.769257 
z"/>
<path fill="#F0F0F0" opacity="1.000000" stroke="none" 
	d="
M46.261482,246.274429 
	C47.826176,245.841583 49.652748,245.662369 51.739586,245.739883 
	C50.174351,246.173767 48.348854,246.350922 46.261482,246.274429 
z"/>
<path fill="#DFDFDF" opacity="1.000000" stroke="none" 
	d="
M65.042892,243.664551 
	C64.510178,244.268143 64.015007,244.526566 63.262997,244.895233 
	C63.773033,243.381134 64.539902,241.756760 65.649780,240.062195 
	C65.688675,241.101120 65.384560,242.210251 65.042892,243.664551 
z"/>
<path fill="#DFDFDF" opacity="1.000000" stroke="none" 
	d="
M28.243259,238.769058 
	C27.658350,237.910553 27.323214,236.819901 26.991653,235.365891 
	C27.494497,236.180664 27.993765,237.358780 28.243259,238.769058 
z"/>
<path fill="#D8D8D8" opacity="1.000000" stroke="none" 
	d="
M22.414890,129.005417 
	C22.345160,127.267433 22.671486,125.524727 23.332012,123.391571 
	C24.110794,123.000740 24.555378,123.000374 25.392191,122.990150 
	C29.562271,121.813026 33.315685,120.558105 37.123058,119.496727 
	C45.025307,117.293800 52.521877,118.036354 59.812222,122.137321 
	C61.753376,123.229263 64.575516,122.755081 66.993172,122.999939 
	C67.750114,125.376991 68.507057,127.754044 69.546471,131.018127 
	C67.425934,130.522598 66.338509,130.582901 65.710243,130.075104 
	C53.717014,120.381721 40.996468,122.152969 27.987909,127.502960 
	C26.336287,128.182205 24.540138,128.510056 22.414890,129.005417 
z"/>
<path fill="#E1E1E1" opacity="1.000000" stroke="none" 
	d="
M66.993439,122.626724 
	C64.575516,122.755081 61.753376,123.229263 59.812222,122.137321 
	C52.521877,118.036354 45.025307,117.293800 37.123058,119.496727 
	C33.315685,120.558105 29.562271,121.813026 25.392990,122.590012 
	C25.003315,121.133575 25.005072,120.067429 25.006828,119.001282 
	C25.778240,117.710747 26.549656,116.420212 27.671684,115.429855 
	C28.832415,119.850967 31.504303,117.349083 32.962593,116.765366 
	C42.334888,113.013916 51.255199,113.036880 59.902008,118.814186 
	C60.877285,119.465813 62.623356,118.963791 64.011993,118.996742 
	C64.793610,119.312302 65.575218,119.627853 66.671646,119.979568 
	C66.988869,120.761642 66.991287,121.507576 66.993439,122.626724 
z"/>
<path fill="#DEDEDE" opacity="1.000000" stroke="none" 
	d="
M58.004372,134.995117 
	C58.447979,134.995438 58.891590,134.995758 59.667953,135.329712 
	C60.001621,136.107880 60.002529,136.552414 59.709770,137.026443 
	C58.944145,137.370026 58.472187,137.684097 57.616745,137.989288 
	C55.489109,137.653000 53.744957,137.325577 51.897331,136.620117 
	C47.118706,133.938766 42.955769,134.558472 39.555141,137.998383 
	C35.175880,138.139435 30.903812,137.034607 27.767811,141.165375 
	C27.021336,141.885880 26.509613,142.442474 25.997887,142.664642 
	C25.995403,141.884232 25.992924,141.438232 25.990444,140.992249 
	C26.778467,139.427597 27.566492,137.862930 29.088984,136.146820 
	C33.775158,135.319748 37.745872,134.733475 41.663921,133.899719 
	C42.538254,133.713654 43.227585,132.658218 44.002087,132.003052 
	C45.421680,132.328995 46.841278,132.654953 49.008118,133.041748 
	C52.505035,133.733429 55.254704,134.364273 58.004372,134.995117 
z"/>
<path fill="#DADADA" opacity="1.000000" stroke="none" 
	d="
M25.623707,141.076263 
	C25.992924,141.438232 25.995403,141.884232 25.728001,142.959763 
	C25.751120,146.561295 22.470146,150.610596 27.995607,152.337906 
	C27.997698,153.113541 27.999239,153.556778 28.000780,154.000000 
	C27.686319,154.471207 27.371859,154.942429 27.028507,155.707123 
	C22.232605,153.374603 21.359022,145.935196 25.623707,141.076263 
z"/>
<path fill="#DADADA" opacity="1.000000" stroke="none" 
	d="
M43.559116,132.001602 
	C43.227585,132.658218 42.538254,133.713654 41.663921,133.899719 
	C37.745872,134.733475 33.775158,135.319748 29.410131,135.995941 
	C33.703255,134.664398 38.409698,133.332275 43.559116,132.001602 
z"/>
<path fill="#DADADA" opacity="1.000000" stroke="none" 
	d="
M60.003441,136.996948 
	C60.002529,136.552414 60.001621,136.107880 60.000656,135.329880 
	C63.942158,133.814041 65.325775,136.726257 66.580254,139.657471 
	C65.497971,140.001999 64.747490,140.003143 63.869934,139.743332 
	C63.163105,138.990814 62.583363,138.499252 61.747879,137.892334 
	C60.995903,137.516983 60.499672,137.256958 60.003441,136.996948 
z"/>
<path fill="#DADADA" opacity="1.000000" stroke="none" 
	d="
M57.922577,134.645264 
	C55.254704,134.364273 52.505035,133.733429 49.375656,133.048965 
	C49.780556,132.423492 50.775372,131.213760 51.313148,131.390961 
	C53.563671,132.132584 55.677116,133.290207 57.922577,134.645264 
z"/>
<path fill="#E1E1E1" opacity="1.000000" stroke="none" 
	d="
M63.997017,140.004272 
	C64.747490,140.003143 65.497971,140.001999 66.623398,140.001221 
	C66.999077,141.390396 66.999794,142.779190 66.682083,144.615524 
	C65.574066,145.373947 64.784500,145.684830 63.994270,145.664429 
	C63.992695,144.891434 63.991779,144.449722 63.993286,143.607544 
	C63.996147,142.139496 63.996578,141.071884 63.997017,140.004272 
z"/>
<path fill="#DADADA" opacity="1.000000" stroke="none" 
	d="
M66.291367,149.962997 
	C65.565697,150.000031 65.120781,149.999069 64.340706,149.624359 
	C64.007454,148.502563 64.009377,147.754532 64.302490,147.136230 
	C65.397324,147.510559 66.200958,147.755157 67.004593,147.999741 
	C66.860435,148.641495 66.716278,149.283249 66.291367,149.962997 
z"/>
<path fill="#DEDEDE" opacity="1.000000" stroke="none" 
	d="
M67.003983,147.624786 
	C66.200958,147.755157 65.397324,147.510559 64.296539,146.882568 
	C63.995258,146.330154 63.991138,146.161118 63.991943,145.994705 
	C63.996868,145.997345 63.994930,145.995728 63.994926,145.995728 
	C64.784500,145.684830 65.574066,145.373947 66.681519,145.031525 
	C67.000717,145.749939 67.002045,146.499878 67.003983,147.624786 
z"/>
<path fill="#D7B881" opacity="1.000000" stroke="none" 
	d="
M42.005287,58.005634 
	C42.917927,50.525703 45.239819,43.787373 52.106937,38.246597 
	C55.762470,49.396709 56.158417,59.877892 56.044182,71.835655 
	C53.762154,70.408478 52.704918,69.421814 51.462173,69.041817 
	C49.272827,68.372375 46.986973,67.922684 44.709450,67.669479 
	C43.050491,67.485046 41.339958,67.764542 39.652416,67.837212 
	C39.740807,66.094742 39.696957,64.330963 39.972992,62.618744 
	C40.112450,61.753712 40.830833,60.982010 41.706043,60.462852 
	C45.414303,61.962574 48.703979,63.167553 53.479851,64.916908 
	C52.754906,57.308941 52.185116,51.329258 51.615326,45.349579 
	C50.877522,45.204735 50.139721,45.059891 49.401920,44.915043 
	C48.307049,47.034088 47.275581,49.189072 46.100296,51.262535 
	C44.804127,53.549252 43.375957,55.761147 42.005287,58.005634 
z"/>
<path fill="#DDBE85" opacity="1.000000" stroke="none" 
	d="
M42.003872,58.337780 
	C43.375957,55.761147 44.804127,53.549252 46.100296,51.262535 
	C47.275581,49.189072 48.307049,47.034088 49.401920,44.915043 
	C50.139721,45.059891 50.877522,45.204735 51.615326,45.349579 
	C52.185116,51.329258 52.754906,57.308941 53.479851,64.916908 
	C48.703979,63.167553 45.414303,61.962574 42.062084,60.378113 
	C42.000515,59.555725 42.001484,59.112827 42.003872,58.337780 
z"/>
<path fill="#DDC594" opacity="1.000000" stroke="none" 
	d="
M47.014366,345.004333 
	C46.257313,339.247070 45.486927,333.491486 44.749828,327.731659 
	C44.458469,325.454956 44.241192,323.168793 43.983231,320.445587 
	C41.690701,309.233978 39.130554,298.512665 37.200581,287.679047 
	C35.443825,277.817780 34.371384,267.834595 33.001007,257.440491 
	C35.423031,257.634308 37.841343,258.292755 40.647949,259.197632 
	C41.049065,259.614746 41.061882,259.785461 40.791290,260.224762 
	C39.008400,261.623169 36.491673,262.552704 36.221600,263.924530 
	C35.662415,266.764984 35.936737,269.911438 36.504829,272.807220 
	C38.954037,285.291656 41.703434,297.716888 44.207096,310.191071 
	C46.255894,320.398895 48.055481,330.656860 50.129395,340.859314 
	C50.368542,342.035736 51.658329,342.998566 53.001637,344.775665 
	C53.582523,342.914825 53.908970,342.314972 53.941418,341.699554 
	C54.648170,328.295349 55.267788,314.886108 56.077187,301.488312 
	C56.169689,299.957123 57.289387,298.488007 57.932808,296.990112 
	C57.967777,298.830322 58.078991,300.672760 58.025185,302.510376 
	C57.707474,313.360901 57.351402,324.210358 57.006329,335.971008 
	C56.990635,343.905396 56.976849,350.928986 56.963058,357.952545 
	C55.857502,358.553558 54.751945,359.154602 52.528095,360.363586 
	C51.653240,358.089569 50.828423,355.945618 49.954559,353.093811 
	C49.273060,351.591461 48.640610,350.796967 48.002663,349.634033 
	C47.669559,347.845215 47.341961,346.424774 47.014366,345.004333 
z"/>
<path fill="#F1DDAD" opacity="1.000000" stroke="none" 
	d="
M57.942398,296.660309 
	C57.289387,298.488007 56.169689,299.957123 56.077187,301.488312 
	C55.267788,314.886108 54.648170,328.295349 53.941418,341.699554 
	C53.908970,342.314972 53.582523,342.914825 53.001637,344.775665 
	C51.658329,342.998566 50.368542,342.035736 50.129395,340.859314 
	C48.055481,330.656860 46.255894,320.398895 44.207096,310.191071 
	C41.703434,297.716888 38.954037,285.291656 36.504829,272.807220 
	C35.936737,269.911438 35.662415,266.764984 36.221600,263.924530 
	C36.491673,262.552704 39.008400,261.623169 41.154549,260.228210 
	C42.531082,259.936859 43.260933,259.910645 43.990788,259.884460 
	C46.386974,259.611115 48.783161,259.337769 51.687195,259.424255 
	C58.488968,260.777863 58.529488,265.280365 58.005428,270.115143 
	C57.722775,272.722809 57.230236,275.338104 57.267323,277.943756 
	C57.348320,283.634827 57.707233,289.321960 57.952610,295.010681 
	C57.952404,295.450623 57.952198,295.890564 57.942398,296.660309 
z"/>
<path fill="#DDC594" opacity="1.000000" stroke="none" 
	d="
M58.235291,294.731445 
	C57.707233,289.321960 57.348320,283.634827 57.267323,277.943756 
	C57.230236,275.338104 57.722775,272.722809 58.005428,270.115143 
	C58.529488,265.280365 58.488968,260.777863 52.087570,259.421326 
	C54.787319,257.811768 57.594540,256.564911 60.721172,255.181427 
	C61.810638,256.989380 62.580696,258.933929 63.701782,260.960815 
	C64.046608,261.780487 64.040405,262.517822 64.016159,263.623932 
	C62.996422,265.141296 61.256672,266.203979 61.111256,267.452362 
	C60.065403,276.431152 59.342995,285.447662 58.235291,294.731445 
z"/>
<path fill="#D6D4D1" opacity="1.000000" stroke="none" 
	d="
M43.991997,259.514862 
	C43.260933,259.910645 42.531082,259.936859 41.437965,259.959595 
	C41.061882,259.785461 41.049065,259.614746 41.028488,259.186523 
	C41.470013,258.044067 41.919289,257.159119 42.368568,256.274170 
	C42.910114,257.231201 43.451660,258.188232 43.991997,259.514862 
z"/>
<path fill="#F8F8F8" opacity="1.000000" stroke="none" 
	d="
M47.955879,155.930984 
	C46.912148,155.937927 45.868412,155.944885 44.323517,155.586334 
	C41.884422,154.811142 39.946487,154.401459 37.954300,153.675964 
	C36.933315,152.573425 35.966579,151.786713 34.886337,150.744232 
	C34.511566,149.994125 34.250309,149.499817 34.057877,148.617188 
	C34.935608,147.518112 35.727600,146.214676 36.556118,146.191025 
	C42.786285,146.013245 49.033173,145.915329 55.249001,146.259277 
	C56.238865,146.314056 57.099312,148.707779 57.851189,150.252869 
	C57.126827,151.000244 56.570873,151.514908 55.687660,152.194031 
	C52.892231,153.549316 50.424053,154.740143 47.955879,155.930984 
z"/>
<path fill="#E6E6E6" opacity="1.000000" stroke="none" 
	d="
M63.869930,139.743332 
	C63.996578,141.071884 63.996147,142.139496 63.629654,143.554108 
	C60.563835,142.919617 57.903191,141.248138 55.156597,141.092407 
	C48.287319,140.702911 41.355503,140.702698 34.503834,141.243607 
	C32.894073,141.370682 30.611378,144.052811 30.184126,145.914291 
	C29.087692,150.691269 32.703362,153.393738 35.999889,156.000000 
	C33.575710,155.338181 31.151531,154.676346 28.364067,154.007263 
	C27.999239,153.556778 27.997698,153.113541 27.997700,151.879211 
	C28.000349,147.725891 28.001455,144.363678 28.002563,141.001450 
	C30.903812,137.034607 35.175880,138.139435 39.978008,137.996887 
	C44.563389,137.662674 48.282097,137.330429 52.000801,136.998169 
	C53.744957,137.325577 55.489109,137.653000 57.810974,138.239807 
	C59.593658,138.335358 60.798641,138.171509 62.003620,138.007675 
	C62.583363,138.499252 63.163105,138.990814 63.869930,139.743332 
z"/>
<path fill="#ECECEC" opacity="1.000000" stroke="none" 
	d="
M36.445190,156.000732 
	C32.703362,153.393738 29.087692,150.691269 30.184126,145.914291 
	C30.611378,144.052811 32.894073,141.370682 34.503834,141.243607 
	C41.355503,140.702698 48.287319,140.702911 55.156597,141.092407 
	C57.903191,141.248138 60.563835,142.919617 63.627232,143.954559 
	C63.991779,144.449722 63.992695,144.891434 63.994270,145.664444 
	C63.994930,145.995728 63.996868,145.997345 63.619816,145.996902 
	C62.497765,145.999496 61.752762,146.002518 60.822815,145.688828 
	C58.525997,144.583481 56.413120,143.126816 54.302448,143.130005 
	C47.657631,143.140045 41.010380,143.650986 34.373722,144.108139 
	C33.602734,144.161240 32.196823,145.268524 32.277039,145.584747 
	C32.583309,146.792068 33.377251,147.875671 33.989052,149.005493 
	C34.250309,149.499817 34.511566,149.994125 34.898014,151.110931 
	C36.018318,152.486221 37.013435,153.238998 38.008549,153.991791 
	C39.946487,154.401459 41.884422,154.811142 43.932175,155.577637 
	C41.658154,155.956772 39.274323,155.979126 36.445190,156.000732 
z"/>
<path fill="#E6E6E6" opacity="1.000000" stroke="none" 
	d="
M61.007763,146.005554 
	C61.752762,146.002518 62.497765,145.999496 63.614891,145.994263 
	C63.991138,146.161118 63.995258,146.330154 64.005341,146.752853 
	C64.009377,147.754532 64.007454,148.502563 64.007126,149.624634 
	C61.586197,151.995621 59.163677,153.992538 56.369499,155.592041 
	C56.003529,154.139603 56.009220,153.084595 56.014912,152.029572 
	C56.570873,151.514908 57.126827,151.000244 58.227104,150.233139 
	C59.516869,148.655655 60.262314,147.330597 61.007763,146.005554 
z"/>
<path fill="#ECECEC" opacity="1.000000" stroke="none" 
	d="
M55.687656,152.194031 
	C56.009220,153.084595 56.003529,154.139603 55.993950,155.590332 
	C53.610786,155.982941 51.231510,155.979843 48.404057,155.953857 
	C50.424053,154.740143 52.892231,153.549316 55.687656,152.194031 
z"/>
<path fill="#D4D4D4" opacity="1.000000" stroke="none" 
	d="
M24.672796,119.000725 
	C25.005072,120.067429 25.003315,121.133575 25.000759,122.599861 
	C24.555378,123.000374 24.110794,123.000740 23.332745,123.000793 
	C22.999670,121.934303 23.000061,120.868118 23.001892,119.402008 
	C23.448475,119.001450 23.893620,119.000809 24.672796,119.000725 
z"/>
<path fill="#CDB378" opacity="1.000000" stroke="none" 
	d="
M56.975578,358.340698 
	C56.976849,350.928986 56.990635,343.905396 57.011261,336.436035 
	C57.018108,335.990234 57.500080,335.995667 57.740864,335.996613 
	C57.983341,344.678711 57.985035,353.359833 57.978886,362.506104 
	C57.643394,361.557098 57.315746,360.142975 56.975578,358.340698 
z"/>
<path fill="#FAFAFA" opacity="1.000000" stroke="none" 
	d="
M42.981327,83.875999 
	C44.378448,83.899048 45.775570,83.922096 47.694809,84.182663 
	C48.409599,84.694748 48.661633,84.894386 48.966660,85.028305 
	C48.960289,85.037514 48.940086,85.056145 48.754517,85.302536 
	C46.957188,90.146210 50.084229,92.524437 53.065231,95.337769 
	C54.080700,96.128967 55.027168,96.585747 55.974934,97.426659 
	C56.314789,99.541023 56.653347,101.271271 56.682854,103.165924 
	C54.600990,103.561729 52.812298,104.065903 51.058926,103.963753 
	C48.054955,103.788750 45.083023,103.058968 42.079132,102.888824 
	C39.064457,102.718079 36.027172,102.946487 32.999836,102.750000 
	C32.999874,102.500031 32.999912,102.000069 33.004799,101.667542 
	C33.009834,100.891655 33.009975,100.448280 33.148338,99.688919 
	C34.529007,97.251663 35.771454,95.130394 37.344208,92.946236 
	C38.776257,91.248444 39.877991,89.613548 41.136139,87.686737 
	C41.855476,86.221878 42.418404,85.048943 42.981327,83.875999 
z"/>
<path fill="#E4E4E4" opacity="1.000000" stroke="none" 
	d="
M37.013893,93.009132 
	C35.771454,95.130394 34.529007,97.251663 32.914524,99.866837 
	C32.362350,100.907875 32.182213,101.455002 31.751139,102.002487 
	C31.332918,102.001381 31.165632,101.999924 31.000002,101.600784 
	C31.989782,97.793030 32.977905,94.382980 33.966034,90.972923 
	C33.966030,90.972923 33.993904,90.996841 34.288261,90.840988 
	C35.723629,88.792946 36.864632,86.900749 38.005638,85.008560 
	C39.524399,84.491623 41.043156,83.974686 42.771622,83.666870 
	C42.418404,85.048943 41.855476,86.221878 40.794250,87.738342 
	C39.201935,89.724289 38.107914,91.366707 37.013893,93.009132 
z"/>
<path fill="#DADADA" opacity="1.000000" stroke="none" 
	d="
M33.610397,91.028687 
	C32.977905,94.382980 31.989782,97.793030 30.766956,101.781189 
	C30.341419,102.907547 30.150579,103.455788 29.959743,104.004036 
	C29.519804,104.002274 29.079866,104.000519 28.309566,103.995941 
	C29.737724,99.690216 31.496244,95.387329 33.610397,91.028687 
z"/>
<path fill="#DADADA" opacity="1.000000" stroke="none" 
	d="
M37.664948,85.066933 
	C36.864632,86.900749 35.723629,88.792946 34.277580,90.830345 
	C35.089775,89.025475 36.207016,87.075386 37.664948,85.066933 
z"/>
<path fill="#B5B2AB" opacity="1.000000" stroke="none" 
	d="
M63.163887,88.988373 
	C63.084625,89.908096 62.967808,90.819298 62.688957,92.994431 
	C62.264240,91.122398 62.106087,90.425301 61.929092,89.406166 
	C61.910244,89.084129 61.967056,89.032387 62.252022,89.008133 
	C62.707874,88.980194 62.878761,88.976517 63.049644,88.972839 
	C63.049644,88.972839 63.126339,88.979843 63.163887,88.988373 
z"/>
<path fill="#E1E1E1" opacity="1.000000" stroke="none" 
	d="
M50.667305,83.985886 
	C50.998558,84.431175 51.000217,84.879150 50.740334,85.553009 
	C49.965889,85.537979 49.452988,85.297058 48.940086,85.056145 
	C48.940086,85.056145 48.960289,85.037514 48.979359,84.761604 
	C49.005611,84.307961 49.012798,84.130219 49.019981,83.952469 
	C49.459225,83.964508 49.898472,83.976547 50.667305,83.985886 
z"/>
<path fill="#E7E7E7" opacity="1.000000" stroke="none" 
	d="
M48.767502,83.953003 
	C49.012798,84.130219 49.005611,84.307961 48.985725,84.752396 
	C48.661633,84.894386 48.409599,84.694748 48.113777,84.198715 
	C48.178764,83.969345 48.346893,83.961433 48.767502,83.953003 
z"/>
<path fill="#D0B482" opacity="1.000000" stroke="none" 
	d="
M63.053593,88.714294 
	C62.878761,88.976517 62.707874,88.980194 62.280960,88.982864 
	C62.155285,88.668373 62.354084,88.406921 62.835571,88.068069 
	C63.052387,88.111015 63.054966,88.283379 63.053593,88.714294 
z"/>
<path fill="#E7E7E7" opacity="1.000000" stroke="none" 
	d="
M64.002235,118.628601 
	C62.623356,118.963791 60.877285,119.465813 59.902008,118.814186 
	C51.255199,113.036880 42.334888,113.013916 32.962593,116.765366 
	C31.504303,117.349083 28.832415,119.850967 28.003731,115.357437 
	C28.152456,114.135033 28.319754,113.285210 29.107574,112.265244 
	C31.784916,112.025398 33.930019,112.307724 35.881569,111.818298 
	C41.187954,110.487488 46.253780,109.347809 51.769409,111.599525 
	C54.862915,112.862434 58.588459,112.577126 62.029240,112.989372 
	C62.683651,114.746399 63.338062,116.503426 64.002235,118.628601 
z"/>
<path fill="#EDEDED" opacity="1.000000" stroke="none" 
	d="
M62.017570,112.604050 
	C58.588459,112.577126 54.862915,112.862434 51.769409,111.599525 
	C46.253780,109.347809 41.187954,110.487488 35.881569,111.818298 
	C33.930019,112.307724 31.784916,112.025398 29.352169,112.045013 
	C29.148472,110.180000 29.320704,108.365089 30.105595,106.438873 
	C33.556942,106.693588 36.386356,107.221924 39.236649,107.384659 
	C42.827175,107.589661 46.468430,107.210365 50.023384,107.629517 
	C52.479294,107.919067 54.826115,109.133842 57.664452,110.083282 
	C57.812157,107.888054 57.909657,106.439034 58.276993,105.125664 
	C59.365223,105.840202 60.183620,106.419098 61.002014,106.997986 
	C61.336639,108.738235 61.671268,110.478485 62.017570,112.604050 
z"/>
<path fill="#E1E1E1" opacity="1.000000" stroke="none" 
	d="
M61.003174,106.576355 
	C60.183620,106.419098 59.365223,105.840202 58.245361,104.833191 
	C57.626568,103.937218 57.309238,103.469368 56.991909,103.001511 
	C56.653347,101.271271 56.314789,99.541023 55.937653,97.052383 
	C54.933601,94.528709 53.968124,92.763435 53.001328,90.999084 
	C53.000000,91.000000 53.001957,90.998032 53.002457,90.622208 
	C53.004665,89.494354 53.006378,88.742332 53.008087,87.990303 
	C54.496487,89.917282 56.500359,91.640289 57.361095,93.815628 
	C58.932629,97.787354 59.827320,102.026894 61.003174,106.576355 
z"/>
<path fill="#F1F1F1" opacity="1.000000" stroke="none" 
	d="
M48.754517,85.302536 
	C49.452988,85.297058 49.965889,85.537979 50.740253,85.888420 
	C51.001717,85.997948 51.008152,86.493027 51.009895,87.088844 
	C51.675079,88.789116 52.338520,89.893578 53.001957,90.998032 
	C53.001957,90.998032 53.000000,91.000000 53.000107,91.399582 
	C52.998886,92.867233 52.997559,93.935295 52.996235,95.003357 
	C50.084229,92.524437 46.957188,90.146210 48.754517,85.302536 
z"/>
<path fill="#E7E7E7" opacity="1.000000" stroke="none" 
	d="
M53.002457,90.622208 
	C52.338520,89.893578 51.675079,88.789116 51.012196,87.336395 
	C51.507187,87.247231 52.001625,87.506340 52.752075,87.877876 
	C53.006378,88.742332 53.004665,89.494354 53.002457,90.622208 
z"/>
<path fill="#D3B684" opacity="1.000000" stroke="none" 
	d="
M48.008156,350.002441 
	C48.640610,350.796967 49.273060,351.591461 49.948326,352.694214 
	C48.949566,353.003723 47.907986,353.005005 46.478119,353.013977 
	C45.830166,352.210327 45.570499,351.398956 45.576645,350.290039 
	C46.564358,349.995789 47.286255,349.999115 48.008156,350.002441 
z"/>
<path fill="#F3F3F3" opacity="1.000000" stroke="none" 
	d="
M56.682854,103.165924 
	C57.309238,103.469368 57.626568,103.937218 57.975525,104.697540 
	C57.909657,106.439034 57.812157,107.888054 57.664452,110.083282 
	C54.826115,109.133842 52.479294,107.919067 50.023384,107.629517 
	C46.468430,107.210365 42.827175,107.589661 39.236649,107.384659 
	C36.386356,107.221924 33.556942,106.693588 30.380919,106.171677 
	C30.040373,105.848015 30.037167,105.680252 30.344543,105.204674 
	C31.103418,104.264580 31.551708,103.632309 32.249950,102.999939 
	C32.499901,102.999840 32.999798,102.999969 32.999798,102.999969 
	C36.027172,102.946487 39.064457,102.718079 42.079132,102.888824 
	C45.083023,103.058968 48.054955,103.788750 51.058926,103.963753 
	C52.812298,104.065903 54.600990,103.561729 56.682854,103.165924 
z"/>
<path fill="#EDEDED" opacity="1.000000" stroke="none" 
	d="
M32.000000,103.000038 
	C31.551708,103.632309 31.103418,104.264580 30.346014,104.952988 
	C30.022953,104.841698 30.009003,104.674263 29.977398,104.255432 
	C30.150579,103.455788 30.341419,102.907547 30.765303,102.178886 
	C31.165632,101.999924 31.332918,102.001381 31.750101,102.001419 
	C32.000000,102.000000 31.999945,101.999947 32.000004,102.249969 
	C32.000042,102.666672 32.000019,102.833359 32.000000,103.000038 
z"/>
<path fill="#D0B482" opacity="1.000000" stroke="none" 
	d="
M48.002659,349.634033 
	C47.286255,349.999115 46.564358,349.995789 45.484451,349.983398 
	C45.397079,348.568878 45.667717,347.163452 45.934551,345.397034 
	C46.111214,345.028107 46.291679,345.020111 46.743256,345.008240 
	C47.341961,346.424774 47.669559,347.845215 48.002659,349.634033 
z"/>
<path fill="#E1E1E1" opacity="1.000000" stroke="none" 
	d="
M27.767811,141.165375 
	C28.001455,144.363678 28.000349,147.725891 27.997150,151.546814 
	C22.470146,150.610596 25.751120,146.561295 25.728006,143.294189 
	C26.509613,142.442474 27.021336,141.885880 27.767811,141.165375 
z"/>
<path fill="#E1E1E1" opacity="1.000000" stroke="none" 
	d="
M51.897331,136.620117 
	C48.282097,137.330429 44.563389,137.662674 40.421818,137.996399 
	C42.955769,134.558472 47.118706,133.938766 51.897331,136.620117 
z"/>
<path fill="#E1E1E1" opacity="1.000000" stroke="none" 
	d="
M61.747879,137.892334 
	C60.798641,138.171509 59.593658,138.335358 58.194450,138.248688 
	C58.472187,137.684097 58.944145,137.370026 59.709770,137.026443 
	C60.499672,137.256958 60.995903,137.516983 61.747879,137.892334 
z"/>
<path fill="#F1F1F1" opacity="1.000000" stroke="none" 
	d="
M60.822815,145.688843 
	C60.262314,147.330597 59.516869,148.655655 58.395508,150.000427 
	C57.099312,148.707779 56.238865,146.314056 55.249001,146.259277 
	C49.033173,145.915329 42.786285,146.013245 36.556118,146.191025 
	C35.727600,146.214676 34.935608,147.518112 34.057877,148.617188 
	C33.377251,147.875671 32.583309,146.792068 32.277039,145.584747 
	C32.196823,145.268524 33.602734,144.161240 34.373722,144.108139 
	C41.010380,143.650986 47.657631,143.140045 54.302448,143.130005 
	C56.413120,143.126816 58.525997,144.583481 60.822815,145.688843 
z"/>
<path fill="#F1F1F1" opacity="1.000000" stroke="none" 
	d="
M37.954300,153.675964 
	C37.013435,153.238998 36.018318,152.486221 35.011528,151.366714 
	C35.966579,151.786713 36.933315,152.573425 37.954300,153.675964 
z"/>
<path fill="#E7E7E7" opacity="1.000000" stroke="none" 
	d="
M53.065231,95.337769 
	C52.997559,93.935295 52.998886,92.867233 53.001431,91.398666 
	C53.968124,92.763435 54.933601,94.528709 55.936356,96.668259 
	C55.027168,96.585747 54.080700,96.128967 53.065231,95.337769 
z"/>
<path fill="#F1F1F1" opacity="1.000000" stroke="none" 
	d="
M37.344208,92.946236 
	C38.107914,91.366707 39.201935,89.724289 40.637840,88.030258 
	C39.877991,89.613548 38.776257,91.248444 37.344208,92.946236 
z"/>
<path fill="#EDEDED" opacity="1.000000" stroke="none" 
	d="
M32.001038,102.001068 
	C32.182213,101.455002 32.362350,100.907875 32.776306,100.182831 
	C33.009975,100.448280 33.009834,100.891655 32.754829,101.667557 
	C32.333298,102.000038 32.166618,101.999992 31.999945,101.999947 
	C31.999945,101.999947 32.000000,102.000000 32.001038,102.001068 
z"/>
<path fill="#E4E4E4" opacity="1.000000" stroke="none" 
	d="
M32.000004,102.249969 
	C32.166618,101.999992 32.333298,102.000038 32.749943,102.000076 
	C32.999912,102.000069 32.999874,102.500031 32.999836,102.750000 
	C32.999798,102.999969 32.499901,102.999840 32.249950,102.999939 
	C32.000019,102.833359 32.000042,102.666672 32.000004,102.249969 
z"/>
</svg>