<svg version="1.1" id="Layer_1" xmlns="http://www.w3.org/2000/svg" xmlns:xlink="http://www.w3.org/1999/xlink" x="0px" y="0px"
	 width="100%" viewBox="0 0 91 405" enable-background="new 0 0 91 405" xml:space="preserve">
<path fill="#D3B98C" opacity="1.000000" stroke="none" 
	d="
M56.267166,257.996063 
	C55.657711,256.232025 55.048256,254.468002 54.873920,252.382477 
	C57.167664,254.957169 59.015709,257.860229 60.890335,260.746033 
	C61.599998,261.838501 61.720734,264.481476 64.089439,262.318726 
	C67.066505,271.290192 69.799294,279.959351 72.763329,288.548737 
	C73.203598,289.824585 74.733742,290.724365 75.759666,291.798126 
	C76.506218,290.432037 77.408264,289.123383 77.941544,287.678558 
	C78.266380,286.798462 77.991364,285.707123 78.039375,284.713226 
	C78.951210,265.837494 76.390991,247.545410 70.679413,229.436127 
	C68.525230,222.606064 67.835861,216.436722 58.884842,216.691589 
	C58.923069,216.188004 58.922474,215.985580 59.317062,215.805634 
	C60.756615,215.745926 61.800987,215.663712 63.268501,215.684647 
	C67.096481,214.825058 70.501320,213.862335 73.906151,212.899597 
	C74.862190,218.861771 75.665894,224.854446 76.851379,230.770645 
	C77.307365,233.046310 78.791969,235.095337 79.529793,237.339096 
	C81.290283,242.692749 84.033791,248.071976 84.169991,253.496384 
	C84.272018,257.559662 84.402222,261.969025 83.545464,266.916382 
	C83.632858,273.123413 83.774666,278.569611 83.916473,284.015778 
	C83.778160,285.378723 83.639839,286.741638 83.234337,288.612396 
	C83.007774,290.016693 83.048393,290.913177 83.089012,291.809662 
	C82.522278,296.120575 81.639732,299.940460 75.714058,298.678833 
	C73.136513,298.130066 71.611855,297.451324 70.600906,294.497314 
	C68.431374,288.157928 64.207260,282.334808 63.035919,275.897888 
	C62.041092,270.430969 60.883591,265.234131 58.282543,259.737366 
	C57.364281,258.841400 56.815723,258.418732 56.267166,257.996063 
z"/>
<path fill="#CEB483" opacity="1.000000" stroke="none" 
	d="
M24.965263,97.896133 
	C25.286051,93.545181 26.809444,90.368454 30.887270,87.735588 
	C34.341747,85.505203 37.276230,82.517899 41.582996,82.259354 
	C43.789703,82.126869 46.290440,82.259056 48.176231,83.218819 
	C49.241714,83.761093 49.746593,86.231995 49.716915,87.819466 
	C49.695763,88.950890 48.363560,90.057793 47.564507,91.253319 
	C53.604523,94.277313 57.260792,89.313545 59.158379,86.824158 
	C62.325298,82.669548 65.591469,84.753151 68.123322,85.274368 
	C70.065956,85.674271 72.152184,89.110458 72.706467,91.532295 
	C73.334663,94.277046 72.151505,97.392723 72.087975,100.354256 
	C72.043121,102.444893 72.551392,104.547401 72.247375,106.964752 
	C68.405014,105.901054 65.127991,104.517212 62.145775,102.892532 
	C63.608044,98.298187 68.234383,94.309410 63.996441,88.547539 
	C60.337944,92.005699 57.168755,95.001343 53.636185,98.044098 
	C47.935177,99.367264 43.356937,96.594299 42.089363,90.835152 
	C41.251976,87.030563 39.387764,87.432419 37.343586,89.346184 
	C35.444691,91.123917 33.748917,93.253723 32.464977,95.513344 
	C31.296288,97.570129 30.064531,100.081558 32.747684,102.247589 
	C29.442215,103.458084 26.451454,104.591599 23.361191,105.275459 
	C21.909420,105.596725 20.266094,105.052383 18.709576,104.900314 
	C20.237112,103.013687 21.764647,101.127068 23.827484,98.986305 
	C24.563608,98.453491 24.764435,98.174812 24.965263,97.896133 
z"/>
<path fill="#CFB68B" opacity="1.000000" stroke="none" 
	d="
M51.013206,303.780304 
	C47.386971,305.236023 40.875786,300.812103 39.546711,296.294983 
	C39.065170,294.658386 37.775192,293.245239 36.785191,291.776550 
	C35.691696,290.154327 34.051502,288.741455 33.459614,286.967102 
	C30.433643,277.895905 27.428589,268.803009 24.916956,259.581329 
	C23.698347,255.107040 23.915646,250.255051 22.858643,245.719559 
	C21.842789,241.360626 19.865316,237.235367 18.595631,232.923447 
	C17.225889,228.271683 16.187065,223.522476 14.973541,218.007141 
	C14.974334,216.140961 15.005466,215.083389 15.452230,214.042175 
	C17.253645,214.042023 18.639427,214.025558 20.076645,214.181320 
	C20.128082,214.353561 20.198456,214.706131 20.136799,215.149414 
	C20.752207,218.438461 21.322580,221.315002 22.131552,224.122772 
	C23.320185,228.248276 24.902996,232.269699 25.925573,236.431839 
	C29.632364,251.519485 33.121059,266.660919 36.878769,281.735504 
	C37.196762,283.011230 38.901382,283.941254 39.971153,285.273315 
	C39.980484,285.514709 40.001389,285.997437 40.032463,286.338074 
	C41.045376,288.117645 42.027214,289.556549 43.126381,291.247833 
	C43.504200,291.991333 43.764687,292.482483 44.052490,293.312744 
	C45.033298,294.448090 45.986790,295.244293 46.958351,296.019531 
	C46.976425,295.998535 46.958038,296.048492 46.964149,296.413147 
	C47.646423,298.189453 48.322590,299.601044 49.170982,301.253113 
	C49.899876,302.255798 50.456543,303.018066 51.013206,303.780304 
z"/>
<path fill="#E4E4E4" opacity="1.000000" stroke="none" 
	d="
M53.006920,155.189514 
	C47.743530,156.660324 42.538609,158.407227 37.203030,159.537125 
	C29.227863,161.226028 23.112684,156.771790 16.618092,153.079178 
	C12.077726,150.497696 8.948378,146.710754 8.256133,142.276321 
	C7.300634,136.155502 8.004804,129.723938 8.456966,123.458595 
	C8.658835,120.661415 9.940497,117.932983 10.811126,115.198509 
	C11.093453,114.311783 11.627046,113.505051 12.570843,112.391052 
	C16.733936,111.096291 20.371899,110.072197 24.007132,109.372704 
	C24.002525,110.130997 24.000650,110.564697 23.831720,111.299217 
	C17.901463,114.667000 14.312030,118.893646 16.013266,126.298828 
	C16.677240,128.098709 17.340994,129.542435 17.607334,130.990906 
	C13.885010,130.827240 12.854720,133.031921 13.102553,135.665558 
	C13.336133,138.147736 14.332555,140.558136 15.044851,143.374939 
	C15.574930,149.200714 19.143972,151.681870 23.971390,152.859222 
	C26.196775,153.401978 28.467178,153.769669 30.726919,154.160355 
	C39.382259,155.656677 41.717899,154.483994 45.409641,146.999176 
	C46.167625,146.979965 46.601715,146.965912 47.019371,146.969604 
	C47.002934,146.987335 47.047150,146.969711 47.040787,147.353333 
	C47.392906,149.314087 47.751389,150.891220 48.109867,152.468338 
	C48.756493,152.291977 49.403122,152.115601 50.417015,151.953690 
	C51.518822,151.982254 52.253353,151.996384 52.990143,152.328445 
	C52.997238,153.494110 53.002083,154.341812 53.006920,155.189514 
z"/>
<path fill="#DBDBDB" opacity="1.000000" stroke="none" 
	d="
M74.006668,212.638779 
	C70.501320,213.862335 67.096481,214.825058 63.326614,215.368286 
	C65.354156,212.363892 68.540794,210.157974 69.989517,207.122604 
	C74.230789,198.236252 71.686081,189.033676 70.017212,179.599808 
	C68.831367,175.177170 67.239487,171.610687 61.769264,171.621887 
	C58.977261,170.927856 56.489182,170.478271 53.815548,169.797928 
	C52.776909,169.738281 51.923828,169.909409 50.970596,170.417282 
	C48.905499,171.492584 46.940548,172.231125 44.757576,172.727264 
	C43.693035,172.323441 42.846516,172.162033 41.820320,171.768555 
	C41.093555,171.357849 40.546474,171.179230 39.998589,170.690598 
	C40.000648,169.967270 40.003510,169.553940 40.006374,169.140625 
	C48.033596,168.689987 56.375729,166.703217 63.990570,168.264221 
	C70.330521,169.563889 76.258591,175.274551 76.559784,182.812286 
	C76.933281,192.159943 75.889587,201.566071 75.374733,210.942352 
	C75.347260,211.442581 74.547455,211.900406 74.006668,212.638779 
z"/>
<path fill="#DBDBDB" opacity="1.000000" stroke="none" 
	d="
M20.025209,214.009079 
	C18.639427,214.025558 17.253645,214.042023 15.204403,213.863632 
	C13.543791,213.110458 12.546638,212.552170 11.549488,211.993866 
	C7.280118,205.358765 9.559309,197.603943 7.865574,190.577698 
	C6.253625,183.890701 7.645595,178.051376 10.812593,172.307724 
	C12.194657,169.801254 13.613239,167.845535 16.918850,169.861053 
	C17.770941,170.380569 19.197090,170.053726 20.348804,169.969299 
	C24.220791,169.685516 28.087938,169.335709 32.207924,169.486877 
	C34.972584,170.641510 37.486256,171.320450 40.118179,172.210190 
	C40.437443,172.683945 40.691582,172.876938 41.129585,173.222504 
	C41.533070,173.652924 41.805817,173.860855 41.990417,174.395355 
	C39.579742,176.403625 37.508686,180.788086 34.258247,177.408249 
	C29.812599,172.785599 24.591753,172.838150 19.080271,172.965820 
	C13.882584,173.086197 10.948562,175.812836 11.026255,180.892731 
	C11.081784,184.523514 11.297765,188.224686 12.071730,191.756485 
	C13.701321,199.192764 13.195102,207.570206 20.477663,212.792130 
	C20.570162,212.858459 20.186575,213.588715 20.025209,214.009079 
z"/>
<path fill="#CEB587" opacity="1.000000" stroke="none" 
	d="
M63.920074,261.990601 
	C61.720734,264.481476 61.599998,261.838501 60.890335,260.746033 
	C59.015709,257.860229 57.167664,254.957169 54.987000,252.040375 
	C54.560226,251.849258 54.455498,251.678757 54.417645,251.054474 
	C54.002632,250.071930 53.520744,249.543198 53.038860,249.014450 
	C53.038860,249.014450 52.979443,249.006622 52.935501,248.640717 
	C51.735687,246.890244 50.579819,245.505661 49.005375,243.619690 
	C49.005375,248.270752 49.048851,252.100769 48.990314,255.929214 
	C48.950314,258.545288 49.913559,260.101715 52.751366,259.987396 
	C52.479778,261.222198 51.551331,262.904510 52.039806,263.621490 
	C56.204079,269.733856 52.224640,276.924713 54.621288,283.896606 
	C53.631512,287.066528 52.864246,289.511688 52.071674,291.542511 
	C51.334755,283.441681 50.623146,275.755157 49.899559,267.754517 
	C49.321072,266.920441 48.754562,266.400482 48.159126,265.488708 
	C47.737495,263.077423 47.344788,261.058014 46.971291,258.607086 
	C46.658474,253.247726 46.152401,248.322754 46.069778,243.390701 
	C46.030029,241.018143 46.789257,238.632217 47.186676,236.252335 
	C49.934166,237.554504 53.027203,238.429916 55.323467,240.289322 
	C57.278618,241.872513 58.405270,244.536896 59.733410,246.819000 
	C60.906513,248.834702 61.851761,250.983017 62.911900,253.489899 
	C63.257473,256.601532 63.588772,259.296051 63.920074,261.990601 
z"/>
<path fill="#B7B6B4" opacity="1.000000" stroke="none" 
	d="
M24.009861,109.048111 
	C20.371899,110.072197 16.733936,111.096291 12.702778,112.099777 
	C14.243905,109.784767 16.178230,107.490341 18.411064,105.048111 
	C20.266094,105.052383 21.909420,105.596725 23.361191,105.275459 
	C26.451454,104.591599 29.442215,103.458084 33.213699,102.253082 
	C41.301712,102.310707 48.649773,102.624107 56.418892,102.964264 
	C58.510284,103.038467 60.180630,103.085922 61.850971,103.133369 
	C65.127991,104.517212 68.405014,105.901054 71.967422,107.256775 
	C73.803833,110.243607 75.354874,113.258553 76.642258,116.829964 
	C75.620735,117.895699 74.862854,118.404961 74.059830,118.616211 
	C73.961273,117.919441 73.907867,117.520676 73.861969,116.796631 
	C73.273880,115.959099 72.678276,115.446854 71.797150,114.765396 
	C69.700157,113.030327 67.888695,111.464455 66.027046,109.627472 
	C65.321152,109.187263 64.665451,109.018173 63.644100,108.801796 
	C60.874241,108.102432 58.470032,107.450348 55.800602,106.566620 
	C53.692482,105.909966 51.849583,105.484955 49.568359,105.039642 
	C44.074127,105.651207 39.018219,106.283081 33.571949,106.936462 
	C30.124346,107.654686 27.067102,108.351402 24.009861,109.048111 
z"/>
<path fill="#E7E7E7" opacity="1.000000" stroke="none" 
	d="
M77.805702,124.073029 
	C77.849648,124.728241 77.893593,125.383438 77.680389,126.331078 
	C77.294594,126.572243 77.165962,126.520973 77.037323,126.469704 
	C77.243553,126.652138 77.449783,126.834564 77.656021,127.016991 
	C76.159248,133.251694 78.730423,140.267166 74.136757,145.872345 
	C73.228142,146.981049 71.763756,147.634277 70.025360,148.769119 
	C68.658440,149.023132 67.821823,149.005569 67.149254,148.687805 
	C71.308868,143.618607 73.942284,138.460022 72.183578,131.744324 
	C72.760719,130.924255 73.156372,130.353226 73.486160,129.877258 
	C70.222672,129.877258 67.142365,130.388321 64.340523,129.724350 
	C61.856270,129.135620 57.882717,128.551575 60.288506,124.222252 
	C64.761223,129.798019 69.697433,129.619629 74.602219,123.976669 
	C75.975136,124.020187 76.890419,124.046608 77.805702,124.073029 
z"/>
<path fill="#F0F0F0" opacity="1.000000" stroke="none" 
	d="
M66.985207,148.988022 
	C67.821823,149.005569 68.658440,149.023132 69.773743,149.028717 
	C68.411293,151.742355 67.056587,154.114594 62.780361,153.408157 
	C59.944412,152.939651 56.740345,154.699448 53.353996,155.325638 
	C53.002083,154.341812 52.997238,153.494110 53.404888,152.323181 
	C58.206657,150.995987 62.595932,149.992004 66.985207,148.988022 
z"/>
<path fill="#D3B98C" opacity="1.000000" stroke="none" 
	d="
M52.865868,259.616028 
	C49.913559,260.101715 48.950314,258.545288 48.990314,255.929214 
	C49.048851,252.100769 49.005375,248.270752 49.005375,243.619690 
	C50.579819,245.505661 51.735687,246.890244 52.940907,248.611252 
	C52.647152,250.062668 52.304047,251.177673 51.682289,252.822052 
	C51.507187,253.882797 51.610737,254.414185 51.714287,254.945557 
	C52.136314,256.378601 52.558338,257.811646 52.865868,259.616028 
z"/>
<path fill="#AAA091" opacity="1.000000" stroke="none" 
	d="
M84.278717,283.781555 
	C83.774666,278.569611 83.632858,273.123413 83.707863,267.329956 
	C84.163445,272.504242 84.402206,278.025787 84.278717,283.781555 
z"/>
<path fill="#DAC491" opacity="1.000000" stroke="none" 
	d="
M52.096981,291.956818 
	C52.864246,289.511688 53.631512,287.066528 54.648678,284.329651 
	C55.730930,287.943878 56.698761,291.828888 57.308205,295.769379 
	C57.477997,296.867249 56.587837,298.128998 55.738861,299.345276 
	C55.293789,299.375000 54.990234,298.990234 54.990562,298.615784 
	C54.050957,296.854523 53.111015,295.467743 52.130516,293.728394 
	C52.092300,292.902832 52.094639,292.429840 52.096981,291.956818 
z"/>
<path fill="#D4D4D4" opacity="1.000000" stroke="none" 
	d="
M39.999931,171.999390 
	C37.486256,171.320450 34.972584,170.641510 32.613686,169.556519 
	C34.922417,169.100632 37.076370,169.050781 39.618347,169.070786 
	C40.003510,169.553940 40.000648,169.967270 39.998608,170.940292 
	C39.999432,171.500000 39.999931,171.999390 39.999931,171.999390 
z"/>
<path fill="#DAC491" opacity="1.000000" stroke="none" 
	d="
M51.345547,303.866516 
	C50.456543,303.018066 49.899876,302.255798 49.172211,300.907410 
	C49.005684,299.859802 49.010151,299.398407 49.390953,298.947937 
	C50.520126,298.973083 51.272964,298.987305 52.396179,298.997650 
	C53.507778,298.992615 54.249008,298.991425 54.990234,298.990234 
	C54.990234,298.990234 55.293789,299.375000 55.430275,299.578491 
	C54.270470,301.172241 52.974178,302.562500 51.345547,303.866516 
z"/>
<path fill="#D7D7D7" opacity="1.000000" stroke="none" 
	d="
M77.890846,123.729668 
	C76.890419,124.046608 75.975136,124.020187 74.564400,123.560013 
	C74.080956,121.722244 74.092964,120.318237 74.104973,118.914223 
	C74.862854,118.404961 75.620735,117.895699 76.617294,117.219101 
	C77.229317,119.163292 77.602654,121.274796 77.890846,123.729668 
z"/>
<path fill="#DDDCDA" opacity="1.000000" stroke="none" 
	d="
M11.299812,212.280426 
	C12.546638,212.552170 13.543791,213.110458 14.788771,213.847290 
	C15.005466,215.083389 14.974334,216.140961 14.950545,217.594666 
	C13.655306,216.182861 12.352723,214.374924 11.299812,212.280426 
z"/>
<path fill="#AAA091" opacity="1.000000" stroke="none" 
	d="
M83.369080,291.734314 
	C83.048393,290.913177 83.007774,290.016693 83.175797,289.022705 
	C83.472687,289.836456 83.560913,290.747711 83.369080,291.734314 
z"/>
<path fill="#D3B98C" opacity="1.000000" stroke="none" 
	d="
M53.072773,249.308228 
	C53.520744,249.543198 54.002632,250.071930 54.286823,250.784332 
	C53.761646,250.512650 53.434166,250.057327 53.072773,249.308228 
z"/>
<path fill="#CEB587" opacity="1.000000" stroke="none" 
	d="
M56.338020,258.265350 
	C56.815723,258.418732 57.364281,258.841400 57.959145,259.542389 
	C57.473259,259.391998 56.941067,258.963318 56.338020,258.265350 
z"/>
<path fill="#CEB587" opacity="1.000000" stroke="none" 
	d="
M51.774731,254.631317 
	C51.610737,254.414185 51.507187,253.882797 51.576435,253.197098 
	C51.777882,253.467545 51.806530,253.892319 51.774731,254.631317 
z"/>
<path fill="#D7D7D7" opacity="1.000000" stroke="none" 
	d="
M77.634247,126.984146 
	C77.449783,126.834564 77.243553,126.652138 77.037323,126.469704 
	C77.165962,126.520973 77.294594,126.572243 77.546989,126.806534 
	C77.670746,126.989563 77.612480,126.951309 77.634247,126.984146 
z"/>
<path fill="#CDB183" opacity="1.000000" stroke="none" 
	d="
M24.710526,97.985970 
	C24.764435,98.174812 24.563608,98.453491 24.130135,98.850517 
	C24.083588,98.671181 24.269688,98.373489 24.710526,97.985970 
z"/>
<path fill="#F8F8F8" opacity="1.000000" stroke="none" 
	d="
M20.076645,214.181320 
	C20.186575,213.588715 20.570162,212.858459 20.477663,212.792130 
	C13.195102,207.570206 13.701321,199.192764 12.071730,191.756485 
	C11.297765,188.224686 11.081784,184.523514 11.026255,180.892731 
	C10.948562,175.812836 13.882584,173.086197 19.080271,172.965820 
	C24.591753,172.838150 29.812599,172.785599 34.258247,177.408249 
	C37.508686,180.788086 39.579742,176.403625 42.298985,174.351257 
	C43.455666,173.643631 44.215630,173.306656 44.975597,172.969681 
	C46.940548,172.231125 48.905499,171.492584 51.335747,170.404785 
	C52.534397,170.046600 53.267750,170.037643 54.001106,170.028687 
	C56.489182,170.478271 58.977261,170.927856 61.550301,171.915680 
	C57.912548,174.056900 57.980469,177.524277 57.622189,180.737396 
	C57.248936,184.084778 60.661865,186.695908 63.614658,185.059708 
	C65.983269,183.747238 67.937691,181.687271 70.075912,179.959015 
	C71.686081,189.033676 74.230789,198.236252 69.989517,207.122604 
	C68.540794,210.157974 65.354156,212.363892 62.903469,215.265137 
	C61.800987,215.663712 60.756615,215.745926 58.994873,215.570099 
	C48.784870,215.274628 39.292233,215.237167 29.394604,215.171051 
	C27.340143,215.096512 25.690678,215.050629 23.857323,214.805389 
	C23.327396,214.539886 22.981356,214.473740 22.512505,214.474304 
	C22.228003,214.659561 22.129171,214.817657 21.780857,214.940460 
	C21.045162,214.812485 20.621811,214.759308 20.198456,214.706116 
	C20.198456,214.706131 20.128082,214.353561 20.076645,214.181320 
z"/>
<path fill="#F2DFAF" opacity="1.000000" stroke="none" 
	d="
M52.025806,299.001526 
	C51.272964,298.987305 50.520126,298.973083 49.354023,298.636108 
	C48.279854,297.558380 47.618946,296.803436 46.958038,296.048492 
	C46.958038,296.048492 46.976425,295.998535 46.936218,295.678894 
	C45.939068,294.564056 44.982121,293.768860 44.025177,292.973633 
	C43.764687,292.482483 43.504200,291.991333 43.121151,290.882874 
	C41.999523,288.842865 41.000458,287.420166 40.001389,285.997437 
	C40.001389,285.997437 39.980484,285.514709 39.939445,284.895416 
	C37.238846,273.757111 34.560608,263.242767 31.925381,252.717682 
	C29.641428,243.595596 27.736601,234.362122 25.036766,225.366196 
	C23.144344,219.060638 23.364355,218.047974 30.607609,216.977478 
	C40.326607,216.976105 49.586315,216.984421 58.846024,216.992737 
	C67.835861,216.436722 68.525230,222.606064 70.679413,229.436127 
	C76.390991,247.545410 78.951210,265.837494 78.039375,284.713226 
	C77.991364,285.707123 78.266380,286.798462 77.941544,287.678558 
	C77.408264,289.123383 76.506218,290.432037 75.759666,291.798126 
	C74.733742,290.724365 73.203598,289.824585 72.763329,288.548737 
	C69.799294,279.959351 67.066505,271.290192 64.089447,262.318726 
	C63.588772,259.296051 63.257473,256.601532 62.935638,253.084259 
	C61.628155,247.176285 60.311199,242.091049 58.988937,236.634827 
	C58.173985,231.018295 54.489349,228.104263 49.961811,226.760376 
	C48.136940,226.218704 45.418915,227.774475 43.485588,228.981506 
	C42.764145,229.431915 43.120533,231.608688 42.984329,233.328979 
	C42.978992,234.100586 42.974773,234.541489 42.592842,235.095276 
	C40.696400,238.934586 39.407368,242.645218 42.966187,246.438721 
	C44.299488,250.915939 45.625782,254.977264 46.952080,259.038574 
	C47.344788,261.058014 47.737495,263.077423 48.145561,265.811523 
	C48.744461,267.040344 49.328003,267.554504 49.911537,268.068634 
	C50.623146,275.755157 51.334755,283.441681 52.071671,291.542511 
	C52.094639,292.429840 52.092300,292.902832 52.096512,294.134521 
	C52.077309,296.262604 52.051556,297.632080 52.025806,299.001526 
z"/>
<path fill="#DDDCDA" opacity="1.000000" stroke="none" 
	d="
M58.884842,216.691589 
	C49.586315,216.984421 40.326607,216.976105 30.552271,216.677917 
	C29.958296,215.991943 29.878946,215.595825 29.799597,215.199722 
	C39.292233,215.237167 48.784870,215.274628 58.599693,215.547607 
	C58.922474,215.985580 58.923069,216.188004 58.884842,216.691589 
z"/>
<path fill="#DCBC85" opacity="1.000000" stroke="none" 
	d="
M55.997837,102.937508 
	C48.649773,102.624107 41.301712,102.310707 33.487633,101.991814 
	C30.064531,100.081558 31.296288,97.570129 32.464977,95.513344 
	C33.748917,93.253723 35.444691,91.123917 37.343586,89.346184 
	C39.387764,87.432419 41.251976,87.030563 42.089363,90.835152 
	C43.356937,96.594299 47.935177,99.367264 53.645760,98.396255 
	C54.678425,100.113365 55.338131,101.525436 55.997837,102.937508 
z"/>
<path fill="#DEBE85" opacity="1.000000" stroke="none" 
	d="
M56.418892,102.964264 
	C55.338131,101.525436 54.678425,100.113365 54.009140,98.349136 
	C57.168755,95.001343 60.337944,92.005699 63.996441,88.547539 
	C68.234383,94.309410 63.608044,98.298187 62.145775,102.892532 
	C60.180630,103.085922 58.510284,103.038467 56.418892,102.964264 
z"/>
<path fill="#E2CA99" opacity="1.000000" stroke="none" 
	d="
M29.394604,215.171051 
	C29.878946,215.595825 29.958296,215.991943 30.092983,216.687592 
	C23.364355,218.047974 23.144344,219.060638 25.036766,225.366196 
	C27.736601,234.362122 29.641428,243.595596 31.925381,252.717682 
	C34.560608,263.242767 37.238846,273.757111 39.930115,284.653992 
	C38.901382,283.941254 37.196762,283.011230 36.878769,281.735504 
	C33.121059,266.660919 29.632364,251.519485 25.925573,236.431839 
	C24.902996,232.269699 23.320185,228.248276 22.131552,224.122772 
	C21.322580,221.315002 20.752207,218.438461 20.136799,215.149399 
	C20.621811,214.759308 21.045162,214.812485 21.874508,214.919754 
	C22.280500,214.973831 22.474501,214.983444 22.865944,215.005920 
	C23.518663,215.020493 23.779936,215.012619 24.041210,215.004730 
	C25.690678,215.050629 27.340143,215.096512 29.394604,215.171051 
z"/>
<path fill="#E2CA99" opacity="1.000000" stroke="none" 
	d="
M40.032463,286.338074 
	C41.000458,287.420166 41.999523,288.842865 43.003822,290.630554 
	C42.027214,289.556549 41.045376,288.117645 40.032463,286.338074 
z"/>
<path fill="#E2CA99" opacity="1.000000" stroke="none" 
	d="
M46.964149,296.413147 
	C47.618946,296.803436 48.279854,297.558380 48.977692,298.625153 
	C49.010151,299.398407 49.005684,299.859802 48.999985,300.666931 
	C48.322590,299.601044 47.646423,298.189453 46.964149,296.413147 
z"/>
<path fill="#E2CA99" opacity="1.000000" stroke="none" 
	d="
M44.052490,293.312744 
	C44.982121,293.768860 45.939068,294.564056 46.918148,295.699890 
	C45.986790,295.244293 45.033298,294.448090 44.052490,293.312744 
z"/>
<path fill="#F7F7F7" opacity="1.000000" stroke="none" 
	d="
M16.013044,125.942680 
	C14.312030,118.893646 17.901463,114.667000 24.300179,111.297684 
	C29.751486,110.997154 34.579346,110.801643 39.377331,111.094894 
	C41.384808,111.217590 43.910999,111.826683 45.186977,113.174759 
	C48.358784,116.525772 50.947437,120.428741 54.105957,124.547859 
	C51.265274,127.671616 47.568283,131.542557 41.306412,131.079010 
	C40.233173,130.999557 39.104237,131.672577 37.626198,131.939056 
	C33.504173,131.580429 29.756975,131.280716 25.767368,130.977753 
	C25.524961,130.974487 25.040352,130.969299 24.956976,130.633530 
	C22.249607,128.861801 19.625612,127.425827 16.754589,125.975708 
	C16.507557,125.961563 16.013044,125.942680 16.013044,125.942680 
z"/>
<path fill="#F8F8F8" opacity="1.000000" stroke="none" 
	d="
M45.085747,147.004318 
	C41.717899,154.483994 39.382259,155.656677 30.726919,154.160355 
	C28.467178,153.769669 26.196775,153.401978 23.971390,152.859222 
	C19.143972,151.681870 15.574930,149.200714 15.308204,143.108078 
	C15.322689,138.140350 17.960146,135.457336 21.332691,133.012146 
	C22.105106,133.017624 22.546518,133.019485 23.362110,133.025543 
	C24.483377,133.048157 25.230467,133.066559 26.102741,133.283005 
	C26.436840,133.723328 26.691364,133.899857 27.046156,134.327118 
	C28.075764,135.429199 29.050713,136.214798 29.828762,137.253372 
	C28.408932,137.887421 27.186001,138.268463 25.963068,138.649521 
	C26.590061,139.327469 27.217052,140.005432 27.844044,140.683380 
	C30.563023,139.445007 33.282001,138.206635 36.160870,137.270752 
	C38.548691,138.714554 40.776619,139.855850 43.051895,141.349274 
	C43.761410,143.469025 44.423580,145.236679 45.085747,147.004318 
z"/>
<path fill="#F7F7F7" opacity="1.000000" stroke="none" 
	d="
M67.149254,148.687805 
	C62.595932,149.992004 58.206657,150.995987 53.402634,152.005234 
	C52.253353,151.996384 51.518822,151.982254 50.399063,151.596085 
	C49.024940,149.805923 48.036045,148.387817 47.047150,146.969711 
	C47.047150,146.969711 47.002934,146.987335 47.025002,146.565613 
	C46.714470,144.559647 46.562309,142.910004 46.015942,141.403290 
	C44.269951,136.588333 46.267700,134.410583 51.320145,134.023132 
	C52.460392,134.261749 53.738277,134.863770 53.979221,134.581284 
	C57.231785,130.768112 60.053474,133.720825 62.987946,135.011078 
	C62.994736,135.007217 62.985897,135.019653 63.034443,135.362671 
	C64.631691,137.159119 66.180397,138.612564 67.729103,140.065994 
	C68.083794,139.644333 68.438492,139.222672 68.793190,138.801010 
	C67.204613,137.535721 65.616035,136.270416 64.045555,134.607224 
	C65.725670,129.945129 69.411888,132.932465 72.002083,131.993378 
	C73.942284,138.460022 71.308868,143.618607 67.149254,148.687805 
z"/>
<path fill="#EBEBEB" opacity="1.000000" stroke="none" 
	d="
M62.981155,135.014938 
	C60.053474,133.720825 57.231785,130.768112 53.979221,134.581284 
	C53.738277,134.863770 52.460392,134.261749 51.320217,133.674164 
	C50.140812,132.857285 49.240623,131.986130 48.482040,132.095673 
	C45.298512,132.555313 42.157368,133.308487 38.885235,133.705170 
	C38.513519,132.970093 38.257275,132.484039 38.001030,131.997971 
	C39.104237,131.672577 40.233173,130.999557 41.306412,131.079010 
	C47.568283,131.542557 51.265274,127.671616 54.105957,124.547859 
	C50.947437,120.428741 48.358784,116.525772 45.186977,113.174759 
	C43.910999,111.826683 41.384808,111.217590 39.377331,111.094894 
	C34.579346,110.801643 29.751486,110.997154 24.467232,110.996864 
	C24.000650,110.564697 24.002525,110.130997 24.007132,109.372704 
	C27.067102,108.351402 30.124346,107.654686 33.818489,107.217606 
	C36.932777,107.720306 39.415348,108.195618 41.886078,108.140480 
	C44.307892,108.086426 46.566635,107.768295 47.015106,111.381714 
	C47.536201,116.290565 50.777309,118.332329 54.388142,120.314629 
	C55.814602,121.097733 56.832611,122.905014 57.646286,124.451332 
	C58.604958,126.273216 58.990124,128.391907 59.903446,130.244095 
	C60.734890,131.930267 61.940483,133.431931 62.981155,135.014938 
z"/>
<path fill="#DDDDDD" opacity="1.000000" stroke="none" 
	d="
M39.000706,133.954193 
	C42.157368,133.308487 45.298512,132.555313 48.482040,132.095673 
	C49.240623,131.986130 50.140812,132.857285 50.975800,133.626343 
	C46.267700,134.410583 44.269951,136.588333 46.015942,141.403290 
	C46.562309,142.910004 46.714470,144.559647 47.041443,146.547867 
	C46.601715,146.965912 46.167625,146.979965 45.409637,146.999176 
	C44.423580,145.236679 43.761410,143.469025 43.013748,141.001068 
	C41.613907,138.872971 40.299553,137.445190 38.986526,135.673843 
	C38.992134,134.871567 38.996418,134.412888 39.000706,133.954193 
z"/>
<path fill="#EEEEEE" opacity="1.000000" stroke="none" 
	d="
M21.001692,133.008530 
	C17.960146,135.457336 15.322689,138.140350 15.256743,142.733246 
	C14.332555,140.558136 13.336133,138.147736 13.102553,135.665558 
	C12.854720,133.031921 13.885010,130.827240 17.856567,131.003845 
	C18.503214,131.012070 19.001856,131.035522 19.168823,131.264847 
	C19.891092,131.998947 20.446392,132.503738 21.001692,133.008530 
z"/>
<path fill="#DDDDDD" opacity="1.000000" stroke="none" 
	d="
M47.040787,147.353333 
	C48.036045,148.387817 49.024940,149.805923 50.031792,151.581635 
	C49.403122,152.115601 48.756493,152.291977 48.109867,152.468338 
	C47.751389,150.891220 47.392906,149.314087 47.040787,147.353333 
z"/>
<path fill="#DDDDDD" opacity="1.000000" stroke="none" 
	d="
M19.001858,131.035522 
	C19.001856,131.035522 18.503214,131.012070 18.253981,130.999115 
	C17.340994,129.542435 16.677240,128.098709 16.013266,126.298828 
	C16.013044,125.942680 16.507557,125.961563 16.913372,126.284119 
	C17.880075,128.082947 18.440968,129.559235 19.001858,131.035522 
z"/>
<path fill="#FDFDFD" opacity="1.000000" stroke="none" 
	d="
M70.017212,179.599808 
	C67.937691,181.687271 65.983269,183.747238 63.614658,185.059708 
	C60.661865,186.695908 57.248936,184.084778 57.622189,180.737396 
	C57.980469,177.524277 57.912548,174.056900 61.854229,172.160126 
	C67.239487,171.610687 68.831367,175.177170 70.017212,179.599808 
z"/>
<path fill="#D4D4D4" opacity="1.000000" stroke="none" 
	d="
M44.757576,172.727264 
	C44.215630,173.306656 43.455666,173.643631 42.387131,174.024689 
	C41.805817,173.860855 41.533070,173.652924 41.340508,173.104218 
	C41.683685,172.562241 41.876789,172.307968 42.000000,172.000610 
	C42.846516,172.162033 43.693035,172.323441 44.757576,172.727264 
z"/>
<path fill="#D4D4D4" opacity="1.000000" stroke="none" 
	d="
M53.815548,169.797913 
	C53.267750,170.037643 52.534397,170.046600 51.435894,170.068039 
	C51.923828,169.909409 52.776909,169.738281 53.815548,169.797913 
z"/>
<path fill="#D7D7D7" opacity="1.000000" stroke="none" 
	d="
M41.820320,171.768555 
	C41.876789,172.307968 41.683685,172.562241 41.209770,172.881714 
	C40.691582,172.876938 40.437443,172.683945 40.118179,172.210190 
	C39.999931,171.999390 39.999432,171.500000 39.999413,171.250305 
	C40.546474,171.179230 41.093555,171.357849 41.820320,171.768555 
z"/>
<path fill="#E2CA99" opacity="1.000000" stroke="none" 
	d="
M46.971287,258.607086 
	C45.625782,254.977264 44.299488,250.915939 42.978958,245.978241 
	C42.980003,241.728683 42.975281,238.355545 42.970558,234.982391 
	C42.974773,234.541489 42.978992,234.100586 43.315941,233.153595 
	C47.032085,230.089310 50.383049,230.354141 53.664856,232.819199 
	C55.470711,234.175598 57.219639,235.607803 58.994240,237.005814 
	C60.311199,242.091049 61.628155,247.176285 62.921364,252.667145 
	C61.851761,250.983017 60.906513,248.834702 59.733410,246.819000 
	C58.405270,244.536896 57.278618,241.872513 55.323467,240.289322 
	C53.027203,238.429916 49.934166,237.554504 47.186676,236.252335 
	C46.789257,238.632217 46.030029,241.018143 46.069778,243.390701 
	C46.152401,248.322754 46.658474,253.247726 46.971287,258.607086 
z"/>
<path fill="#E2CA99" opacity="1.000000" stroke="none" 
	d="
M49.899559,267.754517 
	C49.328003,267.554504 48.744461,267.040344 48.174488,266.203369 
	C48.754562,266.400482 49.321072,266.920441 49.899559,267.754517 
z"/>
<path fill="#F6F6F6" opacity="1.000000" stroke="none" 
	d="
M74.059830,118.616211 
	C74.092964,120.318237 74.080956,121.722244 74.106766,123.542923 
	C69.697433,129.619629 64.761223,129.798019 60.288025,123.890259 
	C60.016922,122.887077 60.016495,122.444206 60.217407,121.817596 
	C59.950172,121.084244 59.481590,120.534630 58.708153,119.818756 
	C54.827496,117.247795 49.495632,116.752808 49.002979,110.756645 
	C49.009602,110.510895 49.016376,110.019257 49.372028,109.964272 
	C51.840393,108.872276 53.953110,107.835274 56.065826,106.798264 
	C58.470032,107.450348 60.874241,108.102432 63.805008,109.073364 
	C64.913460,109.561005 65.495346,109.729797 66.077240,109.898582 
	C67.888695,111.464455 69.700157,113.030327 71.813469,115.081161 
	C72.695038,116.084717 73.274750,116.603310 73.854462,117.121910 
	C73.907867,117.520676 73.961273,117.919441 74.059830,118.616211 
z"/>
<path fill="#E6E6E6" opacity="1.000000" stroke="none" 
	d="
M49.016373,110.019257 
	C49.016376,110.019257 49.009602,110.510895 48.671871,110.756706 
	C47.892708,111.005600 47.451279,111.008682 47.009846,111.011772 
	C46.566635,107.768295 44.307892,108.086426 41.886078,108.140480 
	C39.415348,108.195618 36.932777,107.720306 34.208851,107.196091 
	C39.018219,106.283081 44.074127,105.651207 49.517014,105.397125 
	C49.608124,107.189690 49.312248,108.604477 49.016373,110.019257 
z"/>
<path fill="#EBEBEB" opacity="1.000000" stroke="none" 
	d="
M49.372025,109.964272 
	C49.312248,108.604477 49.608124,107.189690 49.955338,105.417427 
	C51.849583,105.484955 53.692482,105.909966 55.800606,106.566628 
	C53.953110,107.835274 51.840393,108.872276 49.372025,109.964272 
z"/>
<path fill="#D4D4D4" opacity="1.000000" stroke="none" 
	d="
M73.861969,116.796631 
	C73.274750,116.603310 72.695038,116.084717 72.098999,115.250366 
	C72.678276,115.446854 73.273880,115.959099 73.861969,116.796631 
z"/>
<path fill="#D4D4D4" opacity="1.000000" stroke="none" 
	d="
M66.027046,109.627472 
	C65.495346,109.729797 64.913460,109.561005 64.170654,109.120651 
	C64.665451,109.018173 65.321152,109.187263 66.027046,109.627472 
z"/>
<path fill="#DCDCDC" opacity="1.000000" stroke="none" 
	d="
M47.015106,111.381714 
	C47.451279,111.008682 47.892708,111.005600 48.665249,111.002457 
	C49.495632,116.752808 54.827496,117.247795 58.733574,120.115120 
	C59.381260,121.052284 59.698662,121.526817 60.016064,122.001343 
	C60.016495,122.444206 60.016922,122.887077 60.017838,123.661942 
	C57.882717,128.551575 61.856270,129.135620 64.340523,129.724350 
	C67.142365,130.388321 70.222672,129.877258 73.486160,129.877258 
	C73.156372,130.353226 72.760719,130.924255 72.183578,131.744324 
	C69.411888,132.932465 65.725670,129.945129 63.784969,134.608093 
	C63.332821,135.011124 63.159359,135.015396 62.985897,135.019653 
	C62.985897,135.019653 62.994736,135.007217 62.987946,135.011078 
	C61.940483,133.431931 60.734890,131.930267 59.903446,130.244095 
	C58.990124,128.391907 58.604958,126.273216 57.646286,124.451332 
	C56.832611,122.905014 55.814602,121.097733 54.388142,120.314629 
	C50.777309,118.332329 47.536201,116.290565 47.015106,111.381714 
z"/>
<path fill="#CEB587" opacity="1.000000" stroke="none" 
	d="
M52.396179,298.997650 
	C52.051556,297.632080 52.077309,296.262604 52.137066,294.487061 
	C53.111015,295.467743 54.050957,296.854523 54.990562,298.615784 
	C54.249008,298.991425 53.507778,298.992615 52.396179,298.997650 
z"/>
<path fill="#DBDBDB" opacity="1.000000" stroke="none" 
	d="
M23.857323,214.805389 
	C23.779936,215.012619 23.518663,215.020493 22.940880,214.870239 
	C22.624369,214.712082 22.635313,214.407593 22.635315,214.407593 
	C22.981356,214.473740 23.327396,214.539886 23.857323,214.805389 
z"/>
<path fill="#CFB68B" opacity="1.000000" stroke="none" 
	d="
M22.512505,214.474304 
	C22.635313,214.407593 22.624369,214.712082 22.549435,214.847763 
	C22.474501,214.983444 22.280500,214.973831 22.186852,214.994537 
	C22.129171,214.817657 22.228003,214.659561 22.512505,214.474304 
z"/>
<path fill="#EBD6A5" opacity="1.000000" stroke="none" 
	d="
M58.988937,236.634827 
	C57.219639,235.607803 55.470711,234.175598 53.664856,232.819199 
	C50.383049,230.354141 47.032085,230.089310 43.317062,232.822906 
	C43.120533,231.608688 42.764145,229.431915 43.485588,228.981506 
	C45.418915,227.774475 48.136940,226.218704 49.961811,226.760376 
	C54.489349,228.104263 58.173985,231.018295 58.988937,236.634827 
z"/>
<path fill="#EBD6A5" opacity="1.000000" stroke="none" 
	d="
M42.592846,235.095276 
	C42.975281,238.355545 42.980003,241.728683 42.971951,245.562317 
	C39.407368,242.645218 40.696400,238.934586 42.592846,235.095276 
z"/>
<path fill="#E4E4E4" opacity="1.000000" stroke="none" 
	d="
M38.885235,133.705170 
	C38.996418,134.412888 38.992134,134.871567 38.655342,135.673492 
	C37.548882,136.333908 36.774929,136.651077 36.000977,136.968246 
	C33.282001,138.206635 30.563023,139.445007 27.844044,140.683380 
	C27.217052,140.005432 26.590061,139.327469 25.963068,138.649521 
	C27.186001,138.268463 28.408932,137.887421 30.117027,137.089645 
	C31.794933,134.021469 31.794933,134.021469 26.991499,134.010620 
	C26.691364,133.899857 26.436840,133.723328 26.112959,132.931519 
	C26.001923,131.914978 26.005850,131.447998 26.009777,130.981003 
	C29.756975,131.280716 33.504173,131.580429 37.626198,131.939056 
	C38.257275,132.484039 38.513519,132.970093 38.885235,133.705170 
z"/>
<path fill="#E4E4E4" opacity="1.000000" stroke="none" 
	d="
M19.168825,131.264847 
	C18.440968,129.559235 17.880075,128.082947 17.160402,126.298264 
	C19.625612,127.425827 22.249607,128.861801 24.636856,130.695068 
	C23.929386,131.735367 23.458658,132.378357 22.987930,133.021347 
	C22.546518,133.019485 22.105106,133.017624 21.332693,133.012146 
	C20.446392,132.503738 19.891092,131.998947 19.168825,131.264847 
z"/>
<path fill="#DDDDDD" opacity="1.000000" stroke="none" 
	d="
M23.362108,133.025543 
	C23.458658,132.378357 23.929386,131.735367 24.720234,131.030838 
	C25.040352,130.969299 25.524961,130.974487 25.767368,130.977753 
	C26.005850,131.447998 26.001923,131.914978 25.987774,132.733459 
	C25.230467,133.066559 24.483377,133.048157 23.362108,133.025543 
z"/>
<path fill="#EEEEEE" opacity="1.000000" stroke="none" 
	d="
M36.160866,137.270752 
	C36.774929,136.651077 37.548882,136.333908 38.654018,136.017090 
	C40.299553,137.445190 41.613907,138.872971 42.966404,140.648941 
	C40.776619,139.855850 38.548691,138.714554 36.160866,137.270752 
z"/>
<path fill="#EEEEEE" opacity="1.000000" stroke="none" 
	d="
M27.046156,134.327118 
	C31.794933,134.021469 31.794933,134.021469 30.313927,136.836655 
	C29.050713,136.214798 28.075764,135.429199 27.046156,134.327118 
z"/>
<path fill="#EBEBEB" opacity="1.000000" stroke="none" 
	d="
M63.034443,135.362671 
	C63.159359,135.015396 63.332821,135.011124 63.766872,135.005997 
	C65.616035,136.270416 67.204613,137.535721 68.793190,138.801010 
	C68.438492,139.222672 68.083794,139.644333 67.729103,140.065994 
	C66.180397,138.612564 64.631691,137.159119 63.034443,135.362671 
z"/>
<path fill="#E7E7E7" opacity="1.000000" stroke="none" 
	d="
M60.217407,121.817596 
	C59.698662,121.526817 59.381260,121.052284 59.038429,120.281387 
	C59.481590,120.534630 59.950172,121.084244 60.217407,121.817596 
z"/>
</svg>