<svg version="1.1" id="Layer_1" xmlns="http://www.w3.org/2000/svg" xmlns:xlink="http://www.w3.org/1999/xlink" x="0px" y="0px"
	 width="100%" viewBox="0 0 91 405" enable-background="new 0 0 91 405" xml:space="preserve">
<path fill="#D7BE8E" opacity="1.000000" stroke="none" 
	d="
M35.979828,297.966797 
	C34.814465,292.561249 35.856274,286.788086 36.614803,281.850403 
	C37.686493,274.874268 38.354050,268.046692 38.559032,260.628296 
	C39.177734,259.609863 39.469269,259.015991 39.760799,258.422119 
	C38.976719,258.694366 38.192642,258.966644 37.408562,259.238892 
	C36.702545,260.877380 35.953171,262.498779 35.299763,264.157990 
	C34.036129,267.366760 32.826599,270.596832 31.007362,274.009216 
	C29.944855,274.808594 29.469627,275.416840 28.994404,276.025085 
	C28.870525,276.454041 28.746645,276.882965 28.315716,277.647827 
	C27.897310,278.072693 27.690992,278.163574 27.692757,278.250244 
	C27.697659,278.491272 27.789000,278.730499 27.846199,278.970459 
	C27.724148,279.708984 27.602098,280.447510 27.182339,281.667908 
	C26.928932,283.120544 26.973238,284.091370 27.017544,285.062164 
	C27.017544,285.062164 26.992430,285.509827 26.645981,285.758484 
	C25.879414,286.039734 25.459293,286.072327 25.028217,285.810516 
	C23.501598,282.557343 23.275082,287.085632 22.114578,285.638947 
	C23.450979,280.676788 24.921623,276.135681 26.028664,271.507568 
	C27.833162,263.963654 28.871525,256.189392 31.278645,248.855499 
	C32.587860,244.866623 35.595291,241.117783 38.668854,238.111328 
	C41.985165,234.867401 46.049896,235.785416 47.284790,240.120712 
	C48.691765,245.060135 49.767406,250.567780 49.024265,255.534805 
	C47.907963,262.995972 44.390106,270.086578 43.153675,277.543701 
	C41.427692,287.953400 40.863400,298.555695 39.459877,308.962097 
	C38.003658,307.218018 36.889572,305.587402 35.775482,303.956818 
	C35.679966,303.047791 35.584450,302.138794 35.713188,300.477661 
	C35.951569,299.139313 35.965698,298.553040 35.979828,297.966797 
z"/>
<path fill="#CEB78A" opacity="1.000000" stroke="none" 
	d="
M22.085543,286.020905 
	C23.275082,287.085632 23.501598,282.557343 25.030500,286.185059 
	C25.337334,289.086090 25.630924,291.318207 25.924515,293.550293 
	C23.619345,298.518860 21.731636,303.756531 18.792189,308.316193 
	C17.700844,310.009125 14.097178,310.903564 11.721889,310.763184 
	C7.748019,310.528320 5.357261,307.367889 5.127493,303.607178 
	C4.719317,296.926361 5.075217,290.202728 4.911638,283.501892 
	C4.779433,278.086304 3.875334,272.648621 4.204684,267.275360 
	C4.481541,262.758514 5.390103,258.040619 7.163948,253.902573 
	C11.576537,243.608795 13.781845,232.909576 15.345757,221.713074 
	C16.320635,221.665100 16.652197,221.756973 17.368279,221.741638 
	C20.501966,221.430862 23.251137,221.227310 26.411118,221.048141 
	C28.181072,221.198639 29.540218,221.324738 30.916609,221.748993 
	C30.912107,222.648941 30.890358,223.250732 30.450369,223.866318 
	C28.356270,223.891144 26.680410,223.902191 24.734859,223.667725 
	C22.998547,224.211288 20.558596,224.713760 20.227751,225.837296 
	C18.456562,231.852142 17.601706,238.145905 15.706025,244.113220 
	C11.296184,257.994751 10.053422,272.345947 9.208511,286.704407 
	C8.950480,291.089447 10.958736,295.607849 11.931725,300.431824 
	C11.933041,301.531860 11.931743,302.265228 11.717823,303.199127 
	C11.842056,304.135529 12.178910,304.871368 12.515772,305.607239 
	C13.355878,305.087189 14.195974,304.567139 15.340730,303.855621 
	C17.792107,297.783051 19.938824,291.901978 22.085543,286.020905 
z"/>
<path fill="#CEB487" opacity="1.000000" stroke="none" 
	d="
M16.381306,106.887199 
	C17.254063,103.648483 18.542944,100.451393 18.872412,97.158318 
	C19.153259,94.351234 17.733490,91.339302 18.167925,88.592247 
	C18.583269,85.965919 19.778656,82.529243 21.773695,81.293953 
	C25.210941,79.165665 31.797680,81.152924 33.265648,84.283669 
	C35.442211,88.925652 38.310062,90.212578 43.186481,87.400658 
	C41.441734,82.683296 41.498581,78.154228 46.969261,75.577774 
	C47.827694,75.173470 49.217129,74.835556 49.876934,75.245712 
	C53.685184,77.613022 57.360966,80.195473 61.056080,82.742111 
	C64.151436,84.875397 66.983780,87.154091 67.261879,91.406319 
	C67.327721,92.413055 68.314888,93.376602 68.929008,94.327225 
	C70.849457,97.299950 72.794174,100.257004 74.668259,103.823212 
	C73.087479,104.282433 71.567940,104.138573 69.973091,103.658356 
	C67.926224,102.207520 65.954659,101.093048 63.986320,99.595833 
	C61.619972,92.496605 57.729691,87.010208 51.330116,82.722321 
	C50.238663,85.555260 49.583801,87.741646 48.585056,89.757683 
	C45.360294,96.267052 39.118603,96.784897 34.440220,91.185913 
	C32.768394,89.185120 30.741526,87.372696 28.564430,85.953270 
	C27.634794,85.347153 25.501701,85.478683 24.660360,86.175018 
	C23.906145,86.799255 23.872047,88.700096 24.047577,89.964531 
	C24.563652,93.682114 25.341902,97.363304 25.849432,101.342270 
	C23.795462,103.091965 21.909563,104.558128 20.012482,106.021439 
	C20.001299,106.018593 20.021627,106.039886 19.779575,105.929962 
	C18.485453,106.175751 17.433378,106.531471 16.381306,106.887199 
z"/>
<path fill="#D7BE8E" opacity="1.000000" stroke="none" 
	d="
M80.102211,222.060791 
	C81.451256,223.893204 81.048691,224.891266 78.154251,224.772324 
	C76.448044,225.095505 74.562622,225.360016 74.279388,226.178772 
	C72.337852,231.791306 70.449791,237.452850 69.076607,243.225174 
	C66.167252,255.454895 63.548550,267.754608 60.934277,280.051880 
	C60.738213,280.974152 61.525551,282.105499 61.892361,283.520477 
	C61.592297,285.870178 61.255619,287.839050 60.918938,289.807922 
	C60.918938,289.807922 60.926025,289.931641 60.529190,289.984985 
	C58.478134,291.997284 56.626266,293.823975 55.209206,295.941620 
	C51.853924,300.955750 48.742123,306.132721 45.396290,311.153503 
	C45.152046,311.520020 43.817036,311.159637 43.137653,310.816864 
	C47.370083,302.975464 52.431458,295.812531 55.344307,287.862427 
	C62.475395,268.399353 62.346928,247.013046 70.546204,227.731522 
	C71.868622,224.621719 70.273430,222.984558 66.964600,223.000320 
	C65.632072,223.006653 64.299461,222.995743 63.001083,222.695587 
	C63.104832,222.007553 63.174385,221.616592 63.652901,221.205719 
	C65.700935,221.094101 67.340012,221.002411 69.388466,220.942261 
	C73.309242,220.609924 77.022102,218.336090 80.102211,222.060791 
z"/>
<path fill="#EAEAEA" opacity="1.000000" stroke="none" 
	d="
M71.370804,157.043549 
	C69.486351,157.535553 67.601898,158.027542 65.074493,158.396957 
	C63.930477,158.582825 63.429417,158.891266 62.928364,159.199707 
	C61.870003,159.286407 60.811634,159.373093 59.374168,158.930435 
	C58.993904,157.611542 58.992744,156.822006 59.423828,156.021759 
	C61.006973,156.003586 62.164646,156.074722 63.307709,155.976257 
	C72.447197,155.188919 77.743683,151.132248 78.996170,143.578430 
	C79.390778,138.291473 81.897644,133.134201 77.005104,128.642975 
	C76.996391,127.499802 76.984604,126.737617 76.985771,125.985397 
	C76.998726,125.995377 76.975006,125.981819 77.136139,125.892860 
	C77.189720,125.522484 77.082161,125.241074 76.980225,124.550529 
	C78.103783,118.545036 78.089119,113.448631 71.662651,110.780746 
	C71.146858,110.566620 71.193512,108.997635 71.350975,108.032074 
	C72.466782,108.056709 73.210396,108.107536 74.017609,108.439278 
	C77.049065,111.480583 80.016914,114.240982 82.772903,117.219147 
	C83.438499,117.953972 84.315964,118.471024 85.193420,118.988075 
	C87.346466,126.925278 84.943733,134.444992 83.592888,142.193497 
	C82.383682,149.129547 78.907440,153.500824 72.560471,156.734085 
	C71.871651,156.960526 71.619926,156.990234 71.370804,157.043549 
M82.182831,125.491379 
	C82.587387,125.773834 82.991943,126.056290 83.396492,126.338745 
	C83.504997,125.920441 83.613495,125.502136 83.722000,125.083832 
	C83.249924,125.033554 82.777847,124.983284 82.182831,125.491379 
z"/>
<path fill="#DDDDDD" opacity="1.000000" stroke="none" 
	d="
M26.000305,221.023758 
	C23.251137,221.227310 20.501966,221.430862 17.360170,221.345596 
	C15.941575,215.542831 14.915606,210.028854 13.889639,204.514893 
	C13.592467,198.870361 13.307704,193.225143 12.994452,187.581497 
	C12.710200,182.460327 15.201907,178.761047 19.418972,175.306793 
	C20.863117,173.548965 21.889723,172.200134 22.916327,170.851288 
	C22.916325,170.851288 22.936941,170.934204 23.326805,170.953842 
	C31.373318,170.273605 39.338493,167.268173 46.003277,174.226959 
	C45.997597,174.678070 45.995125,174.858521 45.596931,175.016113 
	C28.123087,169.776917 21.364977,173.414993 18.413710,186.354645 
	C17.976414,188.271957 17.995169,190.289093 17.721870,192.248718 
	C16.260956,202.723999 14.947763,213.143021 25.754162,220.087128 
	C25.954229,220.215683 25.923403,220.703537 26.000305,221.023758 
z"/>
<path fill="#CEB585" opacity="1.000000" stroke="none" 
	d="
M61.855736,283.139648 
	C61.525551,282.105499 60.738213,280.974152 60.934277,280.051880 
	C63.548550,267.754608 66.167252,255.454895 69.076607,243.225174 
	C70.449791,237.452850 72.337852,231.791306 74.279388,226.178772 
	C74.562622,225.360016 76.448044,225.095505 77.818695,224.842133 
	C77.717171,225.995544 77.273361,226.856781 77.078979,227.771027 
	C75.249649,236.375504 73.537254,245.005463 71.640778,253.594864 
	C70.073242,260.694519 68.302727,267.749359 65.967644,275.043030 
	C65.326279,277.196350 65.339432,279.130707 65.352585,281.065094 
	C65.344521,281.282013 65.336449,281.498901 64.739655,281.901855 
	C63.385864,282.438538 62.620800,282.789093 61.855736,283.139648 
z"/>
<path fill="#D3D3D2" opacity="1.000000" stroke="none" 
	d="
M80.418526,221.917938 
	C77.022102,218.336090 73.309242,220.609924 69.570679,220.656586 
	C73.540619,217.839233 78.622871,216.175125 79.691933,210.494995 
	C81.963577,198.425400 86.155518,186.437317 81.828690,173.955872 
	C82.059029,173.906784 82.505432,174.057068 82.505432,174.057068 
	C83.634239,175.012817 84.763054,175.968552 85.956329,177.754303 
	C86.040649,178.930725 86.060509,179.277115 86.080368,179.623520 
	C86.080368,179.623520 86.354416,179.724014 86.354416,179.724014 
	C86.354416,179.724014 86.401459,180.012558 86.225082,180.631256 
	C86.373512,186.504074 86.698311,191.758194 87.023117,197.012329 
	C86.009438,201.397552 84.893578,205.762497 84.017639,210.175064 
	C83.423965,213.165680 83.295654,216.249451 82.684708,219.235397 
	C82.492332,220.175598 81.409897,220.933670 80.418526,221.917938 
z"/>
<path fill="#EAEAEA" opacity="1.000000" stroke="none" 
	d="
M25.491398,153.180283 
	C17.993168,150.160339 12.527116,145.224777 11.526568,136.845474 
	C11.100319,133.275772 11.815085,129.569809 12.411077,125.363724 
	C13.509996,123.063980 14.074386,121.255486 14.940872,119.605652 
	C16.151075,117.301369 17.586809,115.115524 18.907253,113.262558 
	C16.412727,119.028702 13.852342,124.421722 20.907764,128.517334 
	C21.001829,128.571930 20.980951,128.824570 20.667952,128.985443 
	C19.092537,128.797256 17.862888,128.608429 15.799509,128.291580 
	C16.880106,129.643661 17.449192,130.355728 18.002930,131.457581 
	C15.993824,140.066498 20.845100,148.214325 29.936773,152.365143 
	C28.407585,152.856491 26.949492,153.018387 25.491398,153.180283 
z"/>
<path fill="#C5AE82" opacity="1.000000" stroke="none" 
	d="
M42.989143,311.137207 
	C43.817036,311.159637 45.152046,311.520020 45.396290,311.153503 
	C48.742123,306.132721 51.853924,300.955750 55.209206,295.941620 
	C56.626266,293.823975 58.478134,291.997284 60.467525,289.978882 
	C59.949028,295.967224 59.000553,301.821594 53.496304,305.940063 
	C51.885250,307.145508 51.689995,310.132782 50.605396,312.175720 
	C48.509869,316.122772 44.464256,316.802795 40.717712,316.776611 
	C39.014595,316.764709 36.430882,314.693176 35.844917,313.002106 
	C34.972927,310.485535 35.517605,307.478088 35.617447,304.318176 
	C36.889572,305.587402 38.003658,307.218018 39.579010,309.289734 
	C41.023235,310.199646 42.006191,310.668427 42.989143,311.137207 
z"/>
<path fill="#E6E6E6" opacity="1.000000" stroke="none" 
	d="
M25.618900,153.532516 
	C26.949492,153.018387 28.407585,152.856491 30.331947,152.411789 
	C34.496197,152.075790 38.194180,152.022598 42.230576,151.930176 
	C44.027733,150.265717 45.486473,148.640488 47.214920,147.270477 
	C49.061901,155.170914 49.853683,155.756256 58.991585,156.032455 
	C58.992744,156.822006 58.993904,157.611542 58.994743,158.795868 
	C49.635468,158.479385 40.261345,157.912415 30.930639,156.932175 
	C29.115873,156.741516 27.470116,154.942108 25.618900,153.532516 
z"/>
<path fill="#DADADA" opacity="1.000000" stroke="none" 
	d="
M45.992657,175.038956 
	C45.995125,174.858521 45.997597,174.678070 46.367249,174.187729 
	C49.480858,172.305084 52.227283,170.732330 54.973709,169.159576 
	C55.430275,169.112091 55.886848,169.064606 56.777012,169.462921 
	C59.052818,170.282944 61.061741,171.324524 62.707760,170.913361 
	C69.085854,169.320099 74.298653,173.400345 79.839363,174.279694 
	C78.857758,174.683456 78.216888,174.925278 77.569000,174.945801 
	C70.538353,175.168686 63.332787,174.139038 57.270287,179.456039 
	C56.269825,180.333481 53.205463,179.377838 51.356865,178.625595 
	C49.405430,177.831528 47.767529,176.266937 45.992657,175.038956 
z"/>
<path fill="#C6C6C6" opacity="1.000000" stroke="none" 
	d="
M18.926043,112.879005 
	C17.586809,115.115524 16.151075,117.301369 14.940872,119.605652 
	C14.074386,121.255486 13.509996,123.063980 12.466747,124.913086 
	C12.748579,119.626717 13.374485,114.228943 14.750383,108.869827 
	C17.007460,107.952293 18.514545,106.996094 20.021629,106.039886 
	C20.021627,106.039886 20.001299,106.018593 20.398695,106.021942 
	C24.679066,104.769867 28.542528,103.446564 32.462437,102.319611 
	C33.195545,102.108856 34.154762,102.684608 34.911369,103.165253 
	C34.529385,103.920288 34.245663,104.407471 33.670658,104.881187 
	C30.257833,105.925247 27.136292,106.982773 23.698715,108.075386 
	C22.898304,108.728218 22.413929,109.345963 21.735931,110.194000 
	C20.670219,111.242531 19.798132,112.060768 18.926043,112.879005 
z"/>
<path fill="#BFBFBF" opacity="1.000000" stroke="none" 
	d="
M73.954018,108.158356 
	C73.210396,108.107536 72.466782,108.056709 71.128250,107.986191 
	C70.533333,107.966507 70.081551,107.912659 70.015785,107.605988 
	C69.298134,106.873741 68.646240,106.448174 67.787857,105.773575 
	C66.049286,105.321411 64.517220,105.118286 62.672291,104.911911 
	C61.942253,104.906258 61.525078,104.903862 60.982277,104.546829 
	C58.891148,103.828056 56.925648,103.463913 54.588768,103.081680 
	C53.473957,103.064194 52.730526,103.064789 51.721146,102.784012 
	C49.621323,102.375069 47.787453,102.247490 45.579376,102.100388 
	C43.807903,101.816261 42.410637,101.551666 41.268280,100.959480 
	C43.293804,100.425812 45.124138,99.824471 46.824791,100.081413 
	C54.585903,101.254051 62.310604,102.667686 70.048393,103.994705 
	C71.567940,104.138573 73.087479,104.282433 74.813309,104.161484 
	C75.927902,104.667038 76.836220,105.437408 77.701851,106.811798 
	C76.424118,107.663330 75.189064,107.910843 73.954018,108.158356 
z"/>
<path fill="#FAFAFA" opacity="1.000000" stroke="none" 
	d="
M54.579872,169.081894 
	C52.227283,170.732330 49.480858,172.305084 46.370461,173.917053 
	C39.338493,167.268173 31.373318,170.273605 23.285267,170.943848 
	C25.105925,169.932861 27.383883,168.075989 29.604965,168.141708 
	C35.245327,168.308578 41.144615,166.594757 46.506195,170.726990 
	C47.834518,171.750763 51.561596,169.662155 54.579872,169.081894 
z"/>
<path fill="#F6F6F6" opacity="1.000000" stroke="none" 
	d="
M80.176842,174.014999 
	C74.298653,173.400345 69.085854,169.320099 62.707760,170.913361 
	C61.061741,171.324524 59.052818,170.282944 57.116528,169.531311 
	C64.148949,167.107208 71.140633,168.923355 78.097252,170.131073 
	C79.704788,170.410141 81.045876,172.224014 82.507507,173.694336 
	C82.505432,174.057068 82.059029,173.906784 81.592667,173.958618 
	C80.809799,174.009262 80.493309,174.010773 80.176842,174.014999 
z"/>
<path fill="#EAEAEA" opacity="1.000000" stroke="none" 
	d="
M13.547489,204.755188 
	C14.915606,210.028854 15.941575,215.542831 16.975651,221.452820 
	C16.652197,221.756973 16.320635,221.665100 15.815166,221.612274 
	C13.282085,216.325653 10.192392,211.106812 13.547489,204.755188 
z"/>
<path fill="#DEDEDE" opacity="1.000000" stroke="none" 
	d="
M74.017609,108.439270 
	C75.189064,107.910843 76.424118,107.663330 77.868286,107.098152 
	C81.596321,109.096352 84.715271,111.725922 84.971207,116.601807 
	C83.975037,116.997406 83.479904,116.999397 82.984764,117.001381 
	C80.016914,114.240982 77.049065,111.480583 74.017609,108.439270 
z"/>
<path fill="#FFFFFF" opacity="1.000000" stroke="none" 
	d="
M87.425049,196.833191 
	C86.698311,191.758194 86.373512,186.504074 86.112213,180.723480 
	C86.783379,181.362274 87.868980,182.509796 87.912971,183.695938 
	C88.072914,188.008301 87.884209,192.333618 87.425049,196.833191 
z"/>
<path fill="#B5A78D" opacity="1.000000" stroke="none" 
	d="
M26.172892,293.348297 
	C25.630924,291.318207 25.337334,289.086090 25.041458,286.479462 
	C25.459293,286.072327 25.879414,286.039734 26.614737,285.980469 
	C26.760384,288.351288 26.590826,290.748810 26.172892,293.348297 
z"/>
<path fill="#C5AC94" opacity="1.000000" stroke="none" 
	d="
M61.892357,283.520447 
	C62.620800,282.789093 63.385864,282.438538 64.459549,282.067810 
	C63.700867,284.545471 62.633553,287.043274 61.242592,289.674500 
	C61.255619,287.839050 61.592297,285.870178 61.892357,283.520447 
z"/>
<path fill="#C5AC94" opacity="1.000000" stroke="none" 
	d="
M65.509384,280.810120 
	C65.339432,279.130707 65.326279,277.196350 65.677155,275.225159 
	C65.916176,276.977264 65.791176,278.766205 65.509384,280.810120 
z"/>
<path fill="#B3AEA6" opacity="1.000000" stroke="none" 
	d="
M19.779579,105.929962 
	C18.514545,106.996094 17.007460,107.952293 15.101166,108.874634 
	C15.103541,108.341393 15.505127,107.842026 16.144009,107.114929 
	C17.433378,106.531471 18.485453,106.175751 19.779579,105.929962 
z"/>
<path fill="#FAFAFA" opacity="1.000000" stroke="none" 
	d="
M22.565578,170.917603 
	C21.889723,172.200134 20.863117,173.548965 19.498810,174.936951 
	C20.179014,173.645370 21.196920,172.314651 22.565578,170.917603 
z"/>
<path fill="#E3E3E3" opacity="1.000000" stroke="none" 
	d="
M82.772903,117.219147 
	C83.479904,116.999397 83.975037,116.997406 84.841400,116.995071 
	C85.300667,117.445198 85.388718,117.895660 85.335098,118.667099 
	C84.315964,118.471024 83.438499,117.953972 82.772903,117.219147 
z"/>
<path fill="#B5A78D" opacity="1.000000" stroke="none" 
	d="
M29.305285,275.946228 
	C29.469627,275.416840 29.944855,274.808594 30.660717,274.148499 
	C30.472956,274.686890 30.044561,275.277130 29.305285,275.946228 
z"/>
<path fill="#B5A78D" opacity="1.000000" stroke="none" 
	d="
M27.299612,284.847168 
	C26.973238,284.091370 26.928932,283.120544 27.096584,282.035309 
	C27.399588,282.824646 27.490633,283.728424 27.299612,284.847168 
z"/>
<path fill="#E6E6E6" opacity="1.000000" stroke="none" 
	d="
M63.119644,159.338028 
	C63.429417,158.891266 63.930477,158.582825 64.638458,158.409637 
	C64.333908,158.855377 63.822418,159.165863 63.119644,159.338028 
z"/>
<path fill="#E6E6E6" opacity="1.000000" stroke="none" 
	d="
M71.502037,157.109909 
	C71.619926,156.990234 71.871651,156.960526 72.253479,156.961914 
	C72.131752,157.038361 71.882507,157.107315 71.502037,157.109909 
z"/>
<path fill="#B5A78D" opacity="1.000000" stroke="none" 
	d="
M28.074883,278.878113 
	C27.789000,278.730499 27.697659,278.491272 27.692757,278.250244 
	C27.690992,278.163574 27.897310,278.072693 28.174488,277.951538 
	C28.640188,278.221344 28.627939,278.510162 28.074883,278.878113 
z"/>
<path fill="#C5AE82" opacity="1.000000" stroke="none" 
	d="
M35.723660,298.134033 
	C35.965698,298.553040 35.951569,299.139313 35.855026,300.161011 
	C35.670902,299.831360 35.569195,299.066315 35.723660,298.134033 
z"/>
<path fill="#F8F8F8" opacity="1.000000" stroke="none" 
	d="
M86.377739,179.422943 
	C86.060509,179.277115 86.040649,178.930725 86.056931,178.064819 
	C86.287086,178.104340 86.481102,178.663361 86.377739,179.422943 
z"/>
<path fill="#F1DEAE" opacity="1.000000" stroke="none" 
	d="
M43.137657,310.816864 
	C42.006191,310.668427 41.023235,310.199646 39.921143,309.403259 
	C40.863400,298.555695 41.427692,287.953400 43.153675,277.543701 
	C44.390106,270.086578 47.907963,262.995972 49.024265,255.534805 
	C49.767406,250.567780 48.691765,245.060135 47.284790,240.120712 
	C46.049896,235.785416 41.985165,234.867401 38.668854,238.111328 
	C35.595291,241.117783 32.587860,244.866623 31.278645,248.855499 
	C28.871525,256.189392 27.833162,263.963654 26.028664,271.507568 
	C24.921623,276.135681 23.450979,280.676788 22.114578,285.638947 
	C19.938824,291.901978 17.792107,297.783051 15.013607,303.810120 
	C13.564698,303.636963 12.747571,303.317749 11.930444,302.998566 
	C11.931743,302.265228 11.933041,301.531860 11.958880,299.956757 
	C11.245592,278.962341 12.123405,258.963562 19.133244,239.793793 
	C21.069275,234.499329 19.935362,228.034225 25.004553,223.913239 
	C26.680410,223.902191 28.356270,223.891144 30.931826,223.914307 
	C37.656467,223.967911 43.484428,224.107880 49.305233,223.962112 
	C52.881210,223.872543 56.446232,223.345840 60.385109,223.004456 
	C61.491657,222.993210 62.229271,222.992935 62.966888,222.992676 
	C64.299461,222.995743 65.632072,223.006653 66.964600,223.000320 
	C70.273430,222.984558 71.868622,224.621719 70.546204,227.731522 
	C62.346928,247.013046 62.475395,268.399353 55.344307,287.862427 
	C52.431458,295.812531 47.370083,302.975464 43.137657,310.816864 
z"/>
<path fill="#010100" opacity="1.000000" stroke="none" 
	d="
M37.598343,259.487854 
	C38.192642,258.966644 38.976719,258.694366 39.760799,258.422119 
	C39.469269,259.015991 39.177734,259.609863 38.537880,260.210510 
	C38.055748,260.057129 37.921936,259.896973 37.598343,259.487854 
z"/>
<path fill="#F8F8F8" opacity="1.000000" stroke="none" 
	d="
M79.839363,174.279694 
	C80.493309,174.010773 80.809799,174.009262 81.362320,174.007721 
	C86.155518,186.437317 81.963577,198.425400 79.691933,210.494995 
	C78.622871,216.175125 73.540619,217.839233 69.161301,220.625031 
	C67.340012,221.002411 65.700935,221.094101 63.163704,221.126923 
	C52.793167,221.103485 43.320782,221.138916 33.475510,221.159912 
	C32.368198,221.247253 31.633781,221.349045 30.899363,221.450851 
	C29.540218,221.324738 28.181072,221.198639 26.411118,221.048141 
	C25.923403,220.703537 25.954229,220.215683 25.754162,220.087128 
	C14.947763,213.143021 16.260956,202.723999 17.721870,192.248718 
	C17.995169,190.289093 17.976414,188.271957 18.413710,186.354645 
	C21.364977,173.414993 28.123087,169.776917 45.596931,175.016113 
	C47.767529,176.266937 49.405430,177.831528 51.356865,178.625595 
	C53.205463,179.377838 56.269825,180.333481 57.270287,179.456039 
	C63.332787,174.139038 70.538353,175.168686 77.569000,174.945801 
	C78.216888,174.925278 78.857758,174.683456 79.839363,174.279694 
z"/>
<path fill="#E3CE9F" opacity="1.000000" stroke="none" 
	d="
M24.734859,223.667725 
	C19.935362,228.034225 21.069275,234.499329 19.133244,239.793793 
	C12.123405,258.963562 11.245592,278.962341 11.956266,299.590088 
	C10.958736,295.607849 8.950480,291.089447 9.208511,286.704407 
	C10.053422,272.345947 11.296184,257.994751 15.706025,244.113220 
	C17.601706,238.145905 18.456562,231.852142 20.227751,225.837296 
	C20.558596,224.713760 22.998547,224.211288 24.734859,223.667725 
z"/>
<path fill="#E3CE9F" opacity="1.000000" stroke="none" 
	d="
M30.916609,221.748993 
	C31.633781,221.349045 32.368198,221.247253 33.636307,221.520081 
	C35.696644,222.257767 37.218353,222.908401 38.750793,222.934738 
	C45.837620,223.056595 52.927433,223.004929 60.016174,223.015411 
	C56.446232,223.345840 52.881210,223.872543 49.305233,223.962112 
	C43.484428,224.107880 37.656467,223.967911 31.350067,223.900528 
	C30.890358,223.250732 30.912107,222.648941 30.916609,221.748993 
z"/>
<path fill="#E3CE9F" opacity="1.000000" stroke="none" 
	d="
M11.717823,303.199127 
	C12.747571,303.317749 13.564698,303.636963 14.708948,304.001648 
	C14.195974,304.567139 13.355878,305.087189 12.515772,305.607239 
	C12.178910,304.871368 11.842056,304.135529 11.717823,303.199127 
z"/>
<path fill="#DCBC85" opacity="1.000000" stroke="none" 
	d="
M26.017504,101.058739 
	C25.341902,97.363304 24.563652,93.682114 24.047577,89.964531 
	C23.872047,88.700096 23.906145,86.799255 24.660360,86.175018 
	C25.501701,85.478683 27.634794,85.347153 28.564430,85.953270 
	C30.741526,87.372696 32.768394,89.185120 34.440220,91.185913 
	C39.118603,96.784897 45.360294,96.267052 48.585056,89.757683 
	C49.583801,87.741646 50.238663,85.555260 51.330116,82.722321 
	C57.729691,87.010208 61.619972,92.496605 63.574265,99.540123 
	C61.552994,99.581306 59.929665,98.975288 58.343838,99.061241 
	C47.563976,99.645546 36.792015,100.375694 26.017504,101.058739 
z"/>
<path fill="#B3AEA6" opacity="1.000000" stroke="none" 
	d="
M25.849432,101.342270 
	C36.792015,100.375694 47.563976,99.645546 58.343838,99.061241 
	C59.929665,98.975288 61.552994,99.581306 63.571030,99.922867 
	C65.954659,101.093048 67.926224,102.207520 69.973091,103.658348 
	C62.310604,102.667686 54.585903,101.254051 46.824791,100.081413 
	C45.124138,99.824471 43.293804,100.425812 40.922836,100.985825 
	C38.551529,101.858978 36.780582,102.378189 35.009636,102.897400 
	C34.154762,102.684608 33.195545,102.108856 32.462437,102.319611 
	C28.542528,103.446564 24.679066,104.769867 20.409878,106.024796 
	C21.909563,104.558128 23.795462,103.091965 25.849432,101.342270 
z"/>
<path fill="#DFDCD4" opacity="1.000000" stroke="none" 
	d="
M60.385109,223.004456 
	C52.927433,223.004929 45.837620,223.056595 38.750793,222.934738 
	C37.218353,222.908401 35.696644,222.257767 34.009193,221.534515 
	C43.320782,221.138916 52.793167,221.103485 62.754745,221.146851 
	C63.174385,221.616592 63.104832,222.007553 63.001083,222.695587 
	C62.229271,222.992935 61.491657,222.993210 60.385109,223.004456 
z"/>
<path fill="#F7F7F7" opacity="1.000000" stroke="none" 
	d="
M70.081551,107.912659 
	C70.081551,107.912659 70.533333,107.966507 70.756058,108.012383 
	C71.193512,108.997635 71.146858,110.566620 71.662651,110.780746 
	C78.089119,113.448631 78.103783,118.545036 76.975082,124.806343 
	C76.967888,125.641464 76.971451,125.811646 76.975006,125.981819 
	C76.975006,125.981819 76.998726,125.995377 76.644783,126.025803 
	C74.527222,127.036842 72.763611,128.017456 70.821304,128.789368 
	C70.086609,129.044464 69.530609,129.508255 68.578033,129.976395 
	C66.143784,130.285141 64.106102,130.589539 61.967224,130.559631 
	C59.623478,129.760101 56.784927,128.188019 55.240658,129.019562 
	C48.227261,132.796082 43.573689,128.245071 38.639664,124.936432 
	C36.431141,123.455444 36.473087,121.679626 39.269970,120.005569 
	C41.788010,118.498405 44.405598,116.443687 45.813961,113.967644 
	C47.810200,110.458046 50.202301,108.966629 54.149124,108.928467 
	C58.771797,108.883774 63.389492,108.324738 68.354698,107.992073 
	C69.160553,107.967773 69.621048,107.940216 70.081551,107.912659 
z"/>
<path fill="#F8F8F8" opacity="1.000000" stroke="none" 
	d="
M59.423828,156.021759 
	C49.853683,155.756256 49.061901,155.170914 47.232914,146.934235 
	C47.655804,144.562958 48.330410,142.783142 49.373802,140.994751 
	C52.162163,139.325134 54.581726,137.664093 57.349670,136.044556 
	C60.135509,137.400253 62.572960,138.714432 65.176849,140.226318 
	C65.725952,140.358368 66.108612,140.292709 66.491272,140.227051 
	C65.992813,139.818878 65.494347,139.410721 64.734253,138.874542 
	C63.970051,138.171539 63.467480,137.596573 63.234737,136.753876 
	C66.086533,135.971771 68.723656,135.644180 71.238258,134.901688 
	C75.616867,133.608749 76.877357,135.604965 77.093971,139.586258 
	C77.175774,141.089966 78.328041,142.535416 78.992340,144.007431 
	C77.743683,151.132248 72.447197,155.188919 63.307709,155.976257 
	C62.164646,156.074722 61.006973,156.003586 59.423828,156.021759 
z"/>
<path fill="#DEDEDE" opacity="1.000000" stroke="none" 
	d="
M65.010414,140.028610 
	C62.572960,138.714432 60.135509,137.400253 57.045238,135.908325 
	C52.489487,135.469971 49.843307,136.970169 49.005013,141.003311 
	C48.330410,142.783142 47.655804,144.562958 46.963203,146.679031 
	C45.486473,148.640488 44.027733,150.265717 42.270996,151.545990 
	C43.320206,145.797485 44.667416,140.393951 46.244797,134.813461 
	C46.649635,134.094055 46.824306,133.551575 47.372826,133.013794 
	C49.944386,132.804428 52.156082,132.682709 54.336189,132.352463 
	C56.927780,131.959885 59.492218,131.388077 62.068424,130.893936 
	C64.106102,130.589539 66.143784,130.285141 68.875938,129.959747 
	C70.046944,129.625183 70.523468,129.311630 71.000000,128.998077 
	C72.763611,128.017456 74.527222,127.036842 76.631828,126.015823 
	C76.984604,126.737617 76.996391,127.499802 76.694092,128.804321 
	C72.602234,130.565765 68.820854,131.773865 65.048820,133.010452 
	C63.857628,133.400970 62.691437,133.867737 61.513802,134.299622 
	C61.997505,135.206940 62.481205,136.114273 62.964905,137.021606 
	C63.467480,137.596573 63.970051,138.171539 64.735382,139.131073 
	C65.002235,139.686615 65.006325,139.857605 65.010414,140.028610 
z"/>
<path fill="#F0F0F0" opacity="1.000000" stroke="none" 
	d="
M63.234734,136.753876 
	C62.481205,136.114273 61.997505,135.206940 61.513802,134.299622 
	C62.691437,133.867737 63.857628,133.400970 65.048820,133.010452 
	C68.820854,131.773865 72.602234,130.565765 76.691017,129.185318 
	C81.897644,133.134201 79.390778,138.291473 78.996170,143.578430 
	C78.328041,142.535416 77.175774,141.089966 77.093971,139.586258 
	C76.877357,135.604965 75.616867,133.608749 71.238258,134.901688 
	C68.723656,135.644180 66.086533,135.971771 63.234734,136.753876 
z"/>
<path fill="#E3E3E3" opacity="1.000000" stroke="none" 
	d="
M82.244301,125.212189 
	C82.777847,124.983284 83.249924,125.033554 83.722000,125.083832 
	C83.613495,125.502136 83.504997,125.920441 83.396500,126.338745 
	C82.991943,126.056290 82.587387,125.773834 82.244301,125.212189 
z"/>
<path fill="#DEDEDE" opacity="1.000000" stroke="none" 
	d="
M77.136139,125.892860 
	C76.971451,125.811646 76.967888,125.641464 76.969460,125.215477 
	C77.082161,125.241074 77.189720,125.522484 77.136139,125.892860 
z"/>
<path fill="#F7F7F7" opacity="1.000000" stroke="none" 
	d="
M46.014626,134.990402 
	C44.667416,140.393951 43.320206,145.797485 41.932579,151.585220 
	C38.194180,152.022598 34.496197,152.075790 30.403042,152.082336 
	C20.845100,148.214325 15.993824,140.066498 18.323940,131.451477 
	C19.088854,131.063766 19.517403,131.071915 20.051279,131.424896 
	C21.690212,132.512894 23.223822,133.256042 25.028576,134.130585 
	C24.116659,135.946838 23.269690,137.633728 22.422720,139.320618 
	C22.715834,139.698547 23.008947,140.076477 23.302059,140.454391 
	C27.354235,134.851791 32.164833,131.427536 39.438263,133.951920 
	C41.893501,134.303680 43.954063,134.647034 46.014626,134.990402 
z"/>
<path fill="#F6F6F6" opacity="1.000000" stroke="none" 
	d="
M24.014748,108.040306 
	C27.136292,106.982773 30.257833,105.925247 33.936501,105.169891 
	C41.280998,106.722374 41.280495,106.722282 40.013382,113.499405 
	C39.983349,113.660042 39.998589,113.829147 39.687515,114.162552 
	C35.846104,116.914482 29.558138,117.102684 30.635157,124.060921 
	C28.527405,125.744682 26.754700,127.361526 24.584953,128.981628 
	C23.129847,128.984833 22.071783,128.984802 21.013718,128.984772 
	C20.980951,128.824570 21.001829,128.571930 20.907764,128.517334 
	C13.852342,124.421722 16.412727,119.028702 18.907253,113.262558 
	C19.798132,112.060768 20.670219,111.242531 22.056915,110.158813 
	C23.052595,109.275665 23.533672,108.657982 24.014748,108.040306 
z"/>
<path fill="#DDDDDD" opacity="1.000000" stroke="none" 
	d="
M20.667952,128.985443 
	C22.071783,128.984802 23.129847,128.984833 24.945576,128.946503 
	C27.810976,127.647469 31.903059,128.513596 30.970201,123.994003 
	C29.558138,117.102684 35.846104,116.914482 39.982471,114.003479 
	C41.385292,112.575439 42.187965,111.474709 43.554047,109.601364 
	C43.870701,115.621483 40.141026,117.184952 36.574497,118.588753 
	C34.106018,119.560349 32.658367,120.350853 33.509411,123.548042 
	C33.897003,125.004143 32.766102,127.203484 31.729849,128.635910 
	C28.636799,132.911469 23.978575,130.692078 19.945953,131.080048 
	C19.517403,131.071915 19.088854,131.063766 18.339291,131.061707 
	C17.449192,130.355728 16.880106,129.643661 15.799509,128.291580 
	C17.862888,128.608429 19.092537,128.797256 20.667952,128.985443 
z"/>
<path fill="#EAEAEA" opacity="1.000000" stroke="none" 
	d="
M20.051279,131.424896 
	C23.978575,130.692078 28.636799,132.911469 31.729849,128.635910 
	C32.766102,127.203484 33.897003,125.004143 33.509411,123.548042 
	C32.658367,120.350853 34.106018,119.560349 36.574497,118.588753 
	C40.141026,117.184952 43.870701,115.621483 43.554047,109.601364 
	C42.187965,111.474709 41.385292,112.575439 40.287666,113.835236 
	C39.998589,113.829147 39.983349,113.660042 40.013382,113.499405 
	C41.280495,106.722282 41.280998,106.722374 34.227783,105.183365 
	C34.245663,104.407471 34.529385,103.920288 34.911369,103.165253 
	C36.780582,102.378189 38.551529,101.858978 40.667923,101.313423 
	C42.410637,101.551666 43.807903,101.816261 45.682495,102.440659 
	C48.102245,102.888763 50.044670,102.977074 51.987095,103.065384 
	C52.730526,103.064789 53.473957,103.064194 54.698223,103.438934 
	C57.155342,104.176674 59.131622,104.539070 61.107906,104.901459 
	C61.525078,104.903862 61.942253,104.906258 62.886475,105.183334 
	C64.940689,105.978050 66.467850,106.498093 67.998665,107.260803 
	C68.002312,107.503479 68.009346,107.988815 68.009346,107.988815 
	C63.389492,108.324738 58.771797,108.883774 54.149124,108.928467 
	C50.202301,108.966629 47.810200,110.458046 45.813961,113.967644 
	C44.405598,116.443687 41.788010,118.498405 39.269970,120.005569 
	C36.473087,121.679626 36.431141,123.455444 38.639664,124.936432 
	C43.573689,128.245071 48.227261,132.796082 55.240658,129.019562 
	C56.784927,128.188019 59.623478,129.760101 61.967224,130.559631 
	C59.492218,131.388077 56.927780,131.959885 54.336189,132.352463 
	C52.156082,132.682709 49.944386,132.804428 47.011421,132.966644 
	C43.794346,132.758759 40.694309,128.256149 39.043591,133.943512 
	C32.164833,131.427536 27.354235,134.851791 23.302059,140.454391 
	C23.008947,140.076477 22.715834,139.698547 22.422720,139.320618 
	C23.269690,137.633728 24.116659,135.946838 25.028576,134.130585 
	C23.223822,133.256042 21.690212,132.512894 20.051279,131.424896 
z"/>
<path fill="#EAEAEA" opacity="1.000000" stroke="none" 
	d="
M23.698715,108.075386 
	C23.533672,108.657982 23.052595,109.275665 22.250538,109.928528 
	C22.413929,109.345963 22.898304,108.728218 23.698715,108.075386 
z"/>
<path fill="#DBDBDB" opacity="1.000000" stroke="none" 
	d="
M51.721146,102.784012 
	C50.044670,102.977074 48.102245,102.888763 46.056702,102.460182 
	C47.787453,102.247490 49.621323,102.375069 51.721146,102.784012 
z"/>
<path fill="#DBDBDB" opacity="1.000000" stroke="none" 
	d="
M60.982277,104.546829 
	C59.131622,104.539070 57.155342,104.176674 55.069603,103.457031 
	C56.925648,103.463913 58.891148,103.828056 60.982277,104.546829 
z"/>
<path fill="#DBDBDB" opacity="1.000000" stroke="none" 
	d="
M67.995018,107.018135 
	C66.467850,106.498093 64.940689,105.978050 63.199341,105.186584 
	C64.517220,105.118286 66.049286,105.321411 67.789627,106.022331 
	C67.997894,106.520126 67.995018,107.018135 67.995018,107.018135 
z"/>
<path fill="#DEDEDE" opacity="1.000000" stroke="none" 
	d="
M67.998665,107.260803 
	C67.995018,107.018135 67.997894,106.520126 67.996124,106.271362 
	C68.646240,106.448174 69.298134,106.873741 70.015785,107.605988 
	C69.621048,107.940216 69.160553,107.967773 68.354698,107.992073 
	C68.009346,107.988815 68.002312,107.503479 67.998665,107.260803 
z"/>
<path fill="#EAEAEA" opacity="1.000000" stroke="none" 
	d="
M70.821304,128.789368 
	C70.523468,129.311630 70.046944,129.625183 69.272514,129.955399 
	C69.530609,129.508255 70.086609,129.044464 70.821304,128.789368 
z"/>
<path fill="#EFEFEF" opacity="1.000000" stroke="none" 
	d="
M49.373802,140.994751 
	C49.843307,136.970169 52.489487,135.469971 56.696854,135.866806 
	C54.581726,137.664093 52.162163,139.325134 49.373802,140.994751 
z"/>
<path fill="#F0F0F0" opacity="1.000000" stroke="none" 
	d="
M65.176849,140.226318 
	C65.006325,139.857605 65.002235,139.686615 64.997017,139.259094 
	C65.494347,139.410721 65.992813,139.818878 66.491272,140.227051 
	C66.108612,140.292709 65.725952,140.358368 65.176849,140.226318 
z"/>
<path fill="#DDDDDD" opacity="1.000000" stroke="none" 
	d="
M39.438263,133.951920 
	C40.694309,128.256149 43.794346,132.758759 46.637577,132.961975 
	C46.824306,133.551575 46.649635,134.094055 46.244797,134.813461 
	C43.954063,134.647034 41.893501,134.303680 39.438263,133.951920 
z"/>
<path fill="#EAEAEA" opacity="1.000000" stroke="none" 
	d="
M30.635157,124.060921 
	C31.903059,128.513596 27.810976,127.647469 25.342617,128.943268 
	C26.754700,127.361526 28.527405,125.744682 30.635157,124.060921 
z"/>
</svg>