<svg version="1.1" id="Layer_1" xmlns="http://www.w3.org/2000/svg" xmlns:xlink="http://www.w3.org/1999/xlink" x="0px" y="0px"
	 width="100%" viewBox="0 0 91 405" enable-background="new 0 0 91 405" xml:space="preserve">
<path fill="#D5BC8D" opacity="1.000000" stroke="none" 
	d="
M47.989311,339.829132 
	C46.325275,337.736115 43.750904,335.870300 43.161510,333.509033 
	C41.083061,325.182159 39.742813,316.673645 38.016113,308.255829 
	C35.218090,294.615204 32.196236,281.018738 29.566795,267.346313 
	C28.675848,262.713623 28.613520,257.912292 28.302357,253.179489 
	C27.816282,245.786316 27.440807,238.385849 27.337902,230.563812 
	C28.785692,230.699341 29.914059,231.259552 31.243397,232.066498 
	C32.235847,232.562561 33.027328,232.811905 33.934177,233.351257 
	C34.703735,234.075958 35.357925,234.510681 36.196587,235.172943 
	C36.918118,235.603592 37.455170,235.806671 38.280903,236.252045 
	C43.363136,237.959503 48.199249,239.861420 52.719604,235.165161 
	C54.036423,234.802399 55.024357,234.422089 56.298569,233.992859 
	C57.059368,233.633987 57.533886,233.324036 58.331409,232.979385 
	C59.085285,232.902588 59.516151,232.860489 59.958778,233.258850 
	C59.048115,240.500427 58.125694,247.301544 57.100521,254.860245 
	C58.883118,253.497467 59.855167,252.754349 60.827221,252.011230 
	C60.218109,263.045563 59.608994,274.079865 58.706154,285.195435 
	C58.412422,276.364960 58.412422,267.453247 58.412422,258.541504 
	C56.989231,265.467682 56.501450,272.384277 56.042252,279.302765 
	C54.978424,295.330963 54.055470,311.370453 52.744438,327.378296 
	C52.532440,329.966797 50.551826,332.388306 49.519768,334.939972 
	C48.881554,336.517883 48.491028,338.196014 47.989311,339.829132 
M34.091763,239.070984 
	C37.096916,269.075928 40.942097,298.951477 47.446167,328.565369 
	C48.995907,326.750153 49.844204,324.964813 49.954685,323.134949 
	C51.044392,305.086029 51.995480,287.028809 53.020554,268.975891 
	C53.519245,260.193359 53.978268,251.405746 54.697605,242.640320 
	C54.919533,239.936005 54.188076,239.137054 51.522316,239.049225 
	C46.810158,238.893951 42.113895,238.296921 37.404854,237.974182 
	C36.374397,237.903564 35.318230,238.208069 34.091763,239.070984 
z"/>
<path fill="#D3D3D3" opacity="1.000000" stroke="none" 
	d="
M56.012295,234.041779 
	C55.024357,234.422089 54.036423,234.802399 52.217567,235.125366 
	C46.921841,235.381912 42.457031,235.695847 37.992226,236.009766 
	C37.455170,235.806671 36.918118,235.603592 36.107506,234.870544 
	C35.162239,233.914139 34.490524,233.487701 33.818810,233.061264 
	C33.027328,232.811905 32.235847,232.562561 31.208588,231.700775 
	C29.480431,226.074829 27.866049,221.093231 26.544474,216.035110 
	C25.827845,213.292328 24.276041,213.249680 22.152718,214.001083 
	C21.102110,209.287415 20.051502,204.573730 19.417408,199.576691 
	C20.692036,202.328369 21.550152,205.363449 22.408270,208.398514 
	C22.771681,208.305038 23.135092,208.211578 23.498503,208.118103 
	C23.048597,203.366165 22.598690,198.614212 22.131191,193.676437 
	C21.171251,194.103760 20.163166,194.552521 19.155083,195.001266 
	C19.955288,187.501846 24.296587,182.127151 29.816288,177.541321 
	C31.827229,175.870621 34.127144,174.547745 36.574398,173.436493 
	C35.701817,174.809418 34.405064,175.692368 33.446217,176.854187 
	C32.736053,177.714676 32.465328,178.937836 31.839996,180.284607 
	C30.433090,182.358047 29.185030,184.146332 27.638603,186.121597 
	C26.567493,188.208939 25.794752,190.109283 25.034248,192.423584 
	C25.659128,197.218399 26.271772,201.599274 26.685978,206.236008 
	C27.281580,208.043259 28.075621,209.594650 28.878647,211.549408 
	C28.935036,213.297028 28.982441,214.641296 29.079752,216.290649 
	C29.714710,217.108871 30.299763,217.622025 30.894409,218.539093 
	C30.948675,220.289307 30.993347,221.635590 31.088444,223.288696 
	C31.739479,224.089935 32.340084,224.584366 33.107094,225.359558 
	C34.797134,226.805710 36.320770,227.971069 37.966293,229.500610 
	C41.301235,233.967789 45.790867,231.912750 49.631763,231.899628 
	C57.047070,231.874329 61.478535,228.281845 63.458294,221.248077 
	C65.018311,215.705551 65.927345,209.980637 67.465172,204.430847 
	C69.150719,198.347977 67.087791,193.507141 63.433987,188.836349 
	C59.072403,183.260757 53.863743,178.989807 47.157921,176.610123 
	C47.533726,175.261353 47.766193,174.207291 47.998665,173.153229 
	C58.222645,176.942963 67.023827,182.655853 70.629662,193.440689 
	C71.965385,197.435791 71.655304,202.351089 70.849792,206.611115 
	C69.407082,214.240967 67.020325,221.692307 64.697845,229.482300 
	C63.565937,230.073349 62.764339,230.400375 61.940819,230.985367 
	C61.911049,231.415741 61.903214,231.588165 61.640434,231.871857 
	C60.906002,232.261551 60.426510,232.539963 59.947021,232.818375 
	C59.516151,232.860489 59.085285,232.902588 58.136269,232.807495 
	C57.082848,233.127457 56.547573,233.584625 56.012295,234.041779 
z"/>
<path fill="#D2B582" opacity="1.000000" stroke="none" 
	d="
M54.102737,64.896042 
	C55.431450,70.483948 56.669853,76.095261 58.111320,81.653931 
	C59.987778,88.890030 62.025425,96.084328 63.645187,103.801498 
	C61.598053,103.189583 59.899429,102.072777 58.088196,100.613831 
	C56.083622,98.858154 54.388493,96.867340 52.261810,96.142227 
	C46.494675,94.175842 40.648022,94.446976 34.883678,96.744629 
	C35.013100,94.021034 34.928093,91.520851 35.639320,89.272545 
	C37.268539,84.122307 39.425770,79.139259 41.060146,73.990410 
	C41.538700,72.482803 40.979515,70.645782 40.963665,68.673065 
	C41.318371,67.883400 41.605381,67.380417 42.130211,67.074371 
	C46.242603,64.458130 49.981079,64.116882 53.722290,69.297760 
	C53.843872,66.943886 53.893307,65.986816 53.984928,64.998932 
	C54.027115,64.968124 54.102737,64.896042 54.102737,64.896042 
M43.705296,73.159325 
	C42.013359,78.326912 40.144547,83.445633 38.698441,88.681122 
	C37.882332,91.635773 38.823273,93.130577 42.426056,91.933777 
	C44.492699,91.247261 46.989876,91.251884 49.168434,91.642097 
	C52.884533,92.307724 54.296574,90.744568 53.903500,87.397995 
	C53.325817,82.479660 52.720707,77.525627 51.516876,72.740364 
	C51.081703,71.010551 48.887436,69.723282 47.495869,68.234070 
	C46.300228,69.629868 45.104588,71.025665 43.705296,73.159325 
z"/>
<path fill="#D1D1D1" opacity="1.000000" stroke="none" 
	d="
M58.200806,100.955963 
	C59.899429,102.072777 61.598053,103.189583 63.568718,104.199257 
	C66.268288,112.434975 69.441277,120.649437 70.906593,129.157990 
	C72.279099,137.127609 71.212372,145.445480 64.975273,151.533249 
	C61.478752,154.946045 56.903938,157.254089 52.265217,159.908493 
	C51.145477,160.145676 50.575481,160.534241 50.005486,160.922806 
	C49.597729,161.029404 49.189976,161.136002 48.317642,160.942841 
	C47.569843,159.765274 47.286633,158.887466 47.367161,157.947342 
	C51.691551,155.886353 56.161095,154.510117 59.514355,151.768524 
	C68.420563,144.486908 69.798065,134.500519 66.702927,124.173683 
	C61.077763,105.405533 57.948082,101.853912 40.692757,102.875259 
	C36.416420,103.128387 33.517464,104.927208 30.723843,107.992966 
	C30.237015,107.978058 30.042301,107.971512 29.939556,107.613098 
	C30.375467,105.862961 30.719412,104.464668 31.035400,103.042984 
	C31.007448,103.019592 31.061026,103.057770 31.413034,102.990433 
	C35.885674,101.624481 39.953308,99.518417 44.141132,99.243546 
	C48.770279,98.939697 53.509518,100.313072 58.200806,100.955963 
z"/>
<path fill="#CFCECE" opacity="1.000000" stroke="none" 
	d="
M29.847591,107.964966 
	C30.042301,107.971512 30.237015,107.978058 30.721661,108.314499 
	C31.245955,109.445793 31.480316,110.247192 31.605122,111.354980 
	C29.130829,115.222618 25.287952,118.561790 24.712498,122.391876 
	C23.554247,130.100937 24.175901,138.077408 24.105392,146.254089 
	C24.752632,147.053528 25.357651,147.542465 26.227478,148.189362 
	C27.313702,149.249298 28.135115,150.151260 29.021942,151.391022 
	C32.048584,153.826004 35.009815,155.923187 37.890469,158.339554 
	C37.160145,159.537872 36.510399,160.417007 35.860649,161.296143 
	C34.120720,160.591721 32.380783,159.887314 30.117786,158.825073 
	C29.276436,158.265411 28.958145,158.063553 28.639858,157.861694 
	C16.614799,148.259949 17.233467,134.101791 21.677601,121.254753 
	C22.772739,118.088951 23.564709,114.818275 25.054058,111.274902 
	C27.023911,109.957657 28.435751,108.961311 29.847591,107.964966 
z"/>
<path fill="#CEB383" opacity="1.000000" stroke="none" 
	d="
M48.371300,339.901062 
	C48.491028,338.196014 48.881554,336.517883 49.519768,334.939972 
	C50.551826,332.388306 52.532440,329.966797 52.744438,327.378296 
	C54.055470,311.370453 54.978424,295.330963 56.042252,279.302765 
	C56.501450,272.384277 56.989231,265.467682 58.412422,258.541504 
	C58.412422,267.453247 58.412422,276.364960 58.632046,285.622955 
	C58.985748,302.511200 58.840698,319.050903 53.796883,335.017517 
	C53.169884,337.002350 50.484749,338.337006 48.371300,339.901062 
z"/>
<path fill="#CEB17D" opacity="1.000000" stroke="none" 
	d="
M40.895966,68.959747 
	C40.979515,70.645782 41.538700,72.482803 41.060146,73.990410 
	C39.425770,79.139259 37.268539,84.122307 35.639320,89.272545 
	C34.928093,91.520851 35.013100,94.021034 34.707703,97.019257 
	C33.472939,99.440376 32.266983,101.249077 31.061026,103.057770 
	C31.061026,103.057770 31.007448,103.019592 30.675961,103.023453 
	C29.626017,103.015205 28.907562,103.003090 28.189108,102.990982 
	C30.464024,95.366730 32.703884,87.731667 35.050255,80.129478 
	C35.417740,78.938835 36.269249,77.897583 37.188637,76.230141 
	C38.618877,73.435265 39.757420,71.197510 40.895966,68.959747 
z"/>
<path fill="#D5D5D4" opacity="1.000000" stroke="none" 
	d="
M22.202900,214.382507 
	C24.276041,213.249680 25.827845,213.292328 26.544474,216.035110 
	C27.866049,221.093231 29.480431,226.074829 31.007618,231.454041 
	C29.914059,231.259552 28.785692,230.699341 27.342609,230.105698 
	C25.436289,224.969467 23.844685,219.866699 22.202900,214.382507 
z"/>
<path fill="#D5D5D4" opacity="1.000000" stroke="none" 
	d="
M47.631157,173.083679 
	C47.766193,174.207291 47.533726,175.261353 46.724281,176.635803 
	C44.411922,176.945541 42.676544,176.934891 40.723709,176.735092 
	C39.663475,176.976547 38.820694,177.407181 37.741062,178.107330 
	C35.669086,178.917725 33.833961,179.458588 31.998840,179.999451 
	C32.465328,178.937836 32.736053,177.714676 33.446217,176.854187 
	C34.405064,175.692368 35.701817,174.809418 36.927437,173.478882 
	C40.422077,173.105347 43.842865,173.059738 47.631157,173.083679 
z"/>
<path fill="#CEB383" opacity="1.000000" stroke="none" 
	d="
M59.958778,233.258850 
	C60.426510,232.539963 60.906002,232.261551 61.675259,232.263611 
	C61.740322,234.435547 61.388401,236.322311 61.318188,238.219513 
	C61.184429,241.833740 61.211506,245.453934 61.171799,249.071640 
	C61.107067,249.809021 61.042332,250.546402 60.902412,251.647507 
	C59.855167,252.754349 58.883118,253.497467 57.100521,254.860245 
	C58.125694,247.301544 59.048115,240.500427 59.958778,233.258850 
z"/>
<path fill="#D6C6AF" opacity="1.000000" stroke="none" 
	d="
M40.963661,68.673065 
	C39.757420,71.197510 38.618877,73.435265 37.181755,75.856216 
	C35.969227,68.012146 43.205753,59.726536 50.876816,60.582520 
	C51.036274,60.965359 50.976429,61.029228 50.590221,61.039757 
	C45.914089,60.825481 43.610443,63.433830 41.892387,66.877441 
	C41.605381,67.380417 41.318371,67.883400 40.963661,68.673065 
z"/>
<path fill="#C3AD84" opacity="1.000000" stroke="none" 
	d="
M61.512917,248.863647 
	C61.211506,245.453934 61.184429,241.833740 61.318188,238.219513 
	C61.388401,236.322311 61.740322,234.435547 61.930199,232.152313 
	C61.903214,231.588165 61.911049,231.415741 62.279716,231.056427 
	C63.328407,230.909897 64.016266,230.950302 64.704124,230.990692 
	C63.754093,236.879013 62.804062,242.767319 61.512917,248.863647 
z"/>
<path fill="#D5D5D4" opacity="1.000000" stroke="none" 
	d="
M19.082863,195.397125 
	C20.163166,194.552521 21.171251,194.103760 22.131191,193.676437 
	C22.598690,198.614212 23.048597,203.366165 23.498503,208.118103 
	C23.135092,208.211578 22.771681,208.305038 22.408270,208.398514 
	C21.550152,205.363449 20.692036,202.328369 19.493811,199.146057 
	C19.106016,197.930206 19.058329,196.861588 19.082863,195.397125 
z"/>
<path fill="#B5B1AA" opacity="1.000000" stroke="none" 
	d="
M28.109283,103.362114 
	C28.907562,103.003090 29.626017,103.015205 30.703913,103.046852 
	C30.719412,104.464668 30.375467,105.862961 29.939560,107.613106 
	C28.435751,108.961311 27.023911,109.957657 25.265884,110.958794 
	C25.956284,108.553467 26.992870,106.143356 28.109283,103.362114 
z"/>
<path fill="#DCDCDC" opacity="1.000000" stroke="none" 
	d="
M47.003418,158.009659 
	C47.286633,158.887466 47.569843,159.765274 47.995941,160.960770 
	C46.702316,161.632233 45.265816,161.986023 43.471054,161.947937 
	C42.744545,160.374649 42.376297,159.193237 42.005775,157.739044 
	C42.002235,157.284515 42.000969,157.102753 42.392078,156.923431 
	C43.826206,156.927902 44.867954,156.929932 46.122250,157.079071 
	C46.557667,157.487335 46.780540,157.748505 47.003418,158.009659 
z"/>
<path fill="#DCDCDC" opacity="1.000000" stroke="none" 
	d="
M36.108524,161.590637 
	C36.510399,160.417007 37.160145,159.537872 38.272179,158.332291 
	C39.497066,158.009872 40.259674,158.013901 41.018776,158.423431 
	C41.003246,159.910309 40.991219,160.991684 40.979191,162.073044 
	C39.438259,162.010406 37.897331,161.947769 36.108524,161.590637 
z"/>
<path fill="#D1D1D1" opacity="1.000000" stroke="none" 
	d="
M41.135353,162.252167 
	C40.991219,160.991684 41.003246,159.910309 41.265083,158.421967 
	C41.514893,158.014969 42.008045,158.011826 42.008049,158.011826 
	C42.376297,159.193237 42.744545,160.374649 43.087883,161.889832 
	C42.472485,162.292847 41.882004,162.362076 41.135353,162.252167 
z"/>
<path fill="#D6C6AF" opacity="1.000000" stroke="none" 
	d="
M51.066322,60.933540 
	C51.809319,61.776714 52.522263,62.651703 53.357925,63.755783 
	C53.480648,63.984879 53.432774,63.966515 53.225155,63.700600 
	C52.337166,62.632870 51.656796,61.831051 50.976429,61.029228 
	C50.976429,61.029228 51.036274,60.965359 51.066322,60.933540 
z"/>
<path fill="#D5D5D4" opacity="1.000000" stroke="none" 
	d="
M64.832001,230.752960 
	C64.016266,230.950302 63.328407,230.909897 62.301647,230.798462 
	C62.764339,230.400375 63.565937,230.073349 64.615936,229.865082 
	C64.896194,230.160980 64.928040,230.338104 64.832001,230.752960 
z"/>
<path fill="#DCDCDC" opacity="1.000000" stroke="none" 
	d="
M50.316032,160.961960 
	C50.575481,160.534241 51.145477,160.145676 51.894569,159.952911 
	C51.591305,160.432846 51.108944,160.716980 50.316032,160.961960 
z"/>
<path fill="#DCDCDC" opacity="1.000000" stroke="none" 
	d="
M28.745846,158.164886 
	C28.958145,158.063553 29.276436,158.265411 29.785391,158.673264 
	C29.601316,158.742203 29.226576,158.605133 28.745846,158.164886 
z"/>
<path fill="#D2B582" opacity="1.000000" stroke="none" 
	d="
M53.432774,63.966515 
	C53.432774,63.966515 53.480648,63.984879 53.454781,63.966240 
	C53.589916,64.071091 53.750919,64.194580 54.007332,64.607056 
	C54.102737,64.896042 54.027115,64.968124 53.836117,64.856003 
	C53.463562,64.515030 53.392780,64.255905 53.432774,63.966515 
z"/>
<path fill="#EFDCAC" opacity="1.000000" stroke="none" 
	d="
M34.182831,238.705399 
	C35.318230,238.208069 36.374397,237.903564 37.404854,237.974182 
	C42.113895,238.296921 46.810158,238.893951 51.522316,239.049225 
	C54.188076,239.137054 54.919533,239.936005 54.697605,242.640320 
	C53.978268,251.405746 53.519245,260.193359 53.020554,268.975891 
	C51.995480,287.028809 51.044392,305.086029 49.954685,323.134949 
	C49.844204,324.964813 48.995907,326.750153 47.446167,328.565369 
	C40.942097,298.951477 37.096916,269.075928 34.182831,238.705399 
z"/>
<path fill="#D5D5D4" opacity="1.000000" stroke="none" 
	d="
M38.280899,236.252045 
	C42.457031,235.695847 46.921841,235.381912 51.888687,235.107788 
	C48.199249,239.861420 43.363136,237.959503 38.280899,236.252045 
z"/>
<path fill="#D5D5D4" opacity="1.000000" stroke="none" 
	d="
M33.934177,233.351257 
	C34.490524,233.487701 35.162239,233.914139 35.923035,234.642975 
	C35.357925,234.510681 34.703735,234.075958 33.934177,233.351257 
z"/>
<path fill="#D5D5D4" opacity="1.000000" stroke="none" 
	d="
M56.298576,233.992859 
	C56.547573,233.584625 57.082848,233.127457 57.813263,232.842194 
	C57.533886,233.324036 57.059368,233.633987 56.298576,233.992859 
z"/>
<path fill="#F9F9F9" opacity="1.000000" stroke="none" 
	d="
M31.839996,180.284607 
	C33.833961,179.458588 35.669086,178.917725 38.109497,178.143890 
	C39.452042,177.921265 40.189297,177.931625 41.277962,178.103638 
	C43.086273,178.582108 44.547291,178.881210 45.999409,179.218613 
	C54.885979,181.283432 63.900017,192.661362 62.892193,200.806290 
	C62.362492,205.087173 61.662140,209.384613 60.568153,213.550980 
	C57.261971,226.142288 51.682552,232.646942 37.844406,229.136444 
	C36.320770,227.971069 34.797134,226.805710 33.060150,225.048492 
	C32.243874,223.965057 31.640944,223.473465 31.038017,222.981873 
	C30.993347,221.635590 30.948675,220.289307 30.863453,218.221497 
	C30.225218,216.995163 29.627533,216.490356 29.029846,215.985565 
	C28.982441,214.641296 28.935036,213.297028 28.867229,211.187180 
	C28.192692,208.941116 27.538553,207.460648 26.884415,205.980164 
	C26.271772,201.599274 25.659128,197.218399 25.365938,192.319916 
	C26.435915,189.846420 27.186440,187.890518 27.936966,185.934616 
	C29.185030,184.146332 30.433090,182.358047 31.839996,180.284607 
z"/>
<path fill="#ECECEC" opacity="1.000000" stroke="none" 
	d="
M37.966293,229.500610 
	C51.682552,232.646942 57.261971,226.142288 60.568153,213.550980 
	C61.662140,209.384613 62.362492,205.087173 62.892193,200.806290 
	C63.900017,192.661362 54.885979,181.283432 45.999409,179.218613 
	C44.547291,178.881210 43.086273,178.582108 41.286575,177.849609 
	C40.942902,177.264023 40.942032,177.094131 40.941162,176.924255 
	C42.676544,176.934891 44.411922,176.945541 46.580944,176.930511 
	C53.863743,178.989807 59.072403,183.260757 63.433987,188.836349 
	C67.087791,193.507141 69.150719,198.347977 67.465172,204.430847 
	C65.927345,209.980637 65.018311,215.705551 63.458294,221.248077 
	C61.478535,228.281845 57.047070,231.874329 49.631763,231.899628 
	C45.790867,231.912750 41.301235,233.967789 37.966293,229.500610 
z"/>
<path fill="#ECECEC" opacity="1.000000" stroke="none" 
	d="
M27.638599,186.121597 
	C27.186440,187.890518 26.435915,189.846420 25.353699,191.905975 
	C25.794752,190.109283 26.567493,188.208939 27.638599,186.121597 
z"/>
<path fill="#ECECEC" opacity="1.000000" stroke="none" 
	d="
M26.685978,206.236008 
	C27.538553,207.460648 28.192692,208.941116 28.858246,210.783829 
	C28.075621,209.594650 27.281580,208.043259 26.685978,206.236008 
z"/>
<path fill="#ECECEC" opacity="1.000000" stroke="none" 
	d="
M31.088444,223.288696 
	C31.640944,223.473465 32.243874,223.965057 32.893745,224.767715 
	C32.340084,224.584366 31.739479,224.089935 31.088444,223.288696 
z"/>
<path fill="#ECECEC" opacity="1.000000" stroke="none" 
	d="
M29.079754,216.290649 
	C29.627533,216.490356 30.225218,216.995163 30.853859,217.817566 
	C30.299763,217.622025 29.714710,217.108871 29.079754,216.290649 
z"/>
<path fill="#DFBE86" opacity="1.000000" stroke="none" 
	d="
M43.807121,72.790390 
	C45.104588,71.025665 46.300228,69.629868 47.495872,68.234070 
	C48.887436,69.723282 51.081703,71.010551 51.516876,72.740364 
	C52.720707,77.525627 53.325817,82.479660 53.903500,87.397995 
	C54.296574,90.744568 52.884533,92.307724 49.168434,91.642097 
	C46.989876,91.251884 44.492699,91.247261 42.426056,91.933777 
	C38.823273,93.130577 37.882332,91.635773 38.698441,88.681122 
	C40.144547,83.445633 42.013359,78.326912 43.807121,72.790390 
z"/>
<path fill="#B5B1AA" opacity="1.000000" stroke="none" 
	d="
M31.413034,102.990433 
	C32.266983,101.249077 33.472939,99.440376 34.854870,97.357056 
	C40.648022,94.446976 46.494675,94.175842 52.261810,96.142227 
	C54.388493,96.867340 56.083622,98.858154 58.088192,100.613831 
	C53.509518,100.313072 48.770279,98.939697 44.141132,99.243546 
	C39.953308,99.518417 35.885674,101.624481 31.413034,102.990433 
z"/>
<path fill="#CEB17D" opacity="1.000000" stroke="none" 
	d="
M53.225155,63.700600 
	C53.392780,64.255905 53.463562,64.515030 53.793930,64.886810 
	C53.893307,65.986816 53.843872,66.943886 53.722290,69.297760 
	C49.981079,64.116882 46.242603,64.458130 42.130211,67.074371 
	C43.610443,63.433830 45.914089,60.825481 50.590221,61.039757 
	C51.656796,61.831051 52.337166,62.632870 53.225155,63.700600 
z"/>
<path fill="#E2E2E2" opacity="1.000000" stroke="none" 
	d="
M47.367157,157.947342 
	C46.780540,157.748505 46.557667,157.487335 46.238075,156.753143 
	C47.798481,155.325256 49.463169,154.383255 51.111305,153.413116 
	C55.969978,150.553146 61.627907,148.526733 63.324593,141.956299 
	C63.751160,140.910370 63.886223,139.952118 64.092163,138.598572 
	C63.783390,133.470886 63.403740,128.738464 63.188713,123.809769 
	C62.912949,123.060562 62.472557,122.507645 62.015503,121.582855 
	C58.188183,108.656357 53.106518,104.140480 41.941879,105.252922 
	C38.375721,105.608261 35.115097,109.029930 31.714680,111.048599 
	C31.480316,110.247192 31.245955,109.445793 31.013775,108.322861 
	C33.517464,104.927208 36.416420,103.128387 40.692757,102.875259 
	C57.948082,101.853912 61.077763,105.405533 66.702927,124.173683 
	C69.798065,134.500519 68.420563,144.486908 59.514355,151.768524 
	C56.161095,154.510117 51.691551,155.886353 47.367157,157.947342 
z"/>
<path fill="#F8F8F8" opacity="1.000000" stroke="none" 
	d="
M31.605120,111.354980 
	C35.115097,109.029930 38.375721,105.608261 41.941879,105.252922 
	C53.106518,104.140480 58.188183,108.656357 62.049854,121.877411 
	C62.408607,123.031242 62.716351,123.518646 63.024090,124.006050 
	C63.403740,128.738464 63.783390,133.470886 63.866734,138.842010 
	C63.391315,140.335144 63.212204,141.189575 63.033096,142.043991 
	C61.627907,148.526733 55.969978,150.553146 51.111305,153.413116 
	C49.463169,154.383255 47.798481,155.325256 46.025532,156.606049 
	C44.867954,156.929932 43.826206,156.927902 42.114010,156.707199 
	C37.281219,154.676758 33.118874,152.865005 28.956528,151.053238 
	C28.135115,150.151260 27.313702,149.249298 26.174526,147.883698 
	C25.258902,146.927887 24.661039,146.435730 24.063175,145.943558 
	C24.175901,138.077408 23.554247,130.100937 24.712498,122.391876 
	C25.287952,118.561790 29.130829,115.222618 31.605120,111.354980 
M59.998352,127.999298 
	C59.998352,127.999298 60.008007,127.998589 59.787746,127.485161 
	C59.522705,126.994705 59.257664,126.504257 58.962936,125.331741 
	C58.309677,124.553978 57.656422,123.776222 57.002094,122.332306 
	C57.001518,121.888206 57.000946,121.444099 57.432499,120.494881 
	C57.186169,115.999466 52.738213,109.124985 48.911049,108.405296 
	C47.103790,108.065453 44.979179,109.413223 42.287891,110.028435 
	C40.525841,111.352554 38.763790,112.676666 36.428852,114.356934 
	C34.619286,117.237755 32.809719,120.118576 30.406580,123.155281 
	C30.634056,125.301720 30.861530,127.448158 31.148386,130.154907 
	C30.400749,130.847427 28.976229,131.780472 28.085735,133.079559 
	C26.637329,135.192566 27.854548,136.004715 30.168442,136.652756 
	C33.257599,139.085098 36.213188,141.715714 39.465042,143.906555 
	C45.370255,147.885040 55.485847,144.038528 58.026367,136.276154 
	C58.033100,135.517975 58.039829,134.759781 58.524460,134.006805 
	C58.524460,134.006805 59.003513,134.006104 59.604027,133.835052 
	C59.736614,132.236908 59.869205,130.638763 60.240757,128.813553 
	C60.404575,128.483810 60.324989,128.208679 59.998352,127.999298 
z"/>
<path fill="#E2E2E2" opacity="1.000000" stroke="none" 
	d="
M29.021938,151.391022 
	C33.118874,152.865005 37.281219,154.676758 41.721634,156.704758 
	C42.000969,157.102753 42.002235,157.284515 42.005772,157.739044 
	C42.008045,158.011826 41.514893,158.014969 41.268585,158.016449 
	C40.259674,158.013901 39.497066,158.009872 38.352753,158.013107 
	C35.009815,155.923187 32.048584,153.826004 29.021938,151.391022 
z"/>
<path fill="#E2E2E2" opacity="1.000000" stroke="none" 
	d="
M24.105394,146.254089 
	C24.661039,146.435730 25.258902,146.927887 25.909718,147.725739 
	C25.357651,147.542465 24.752632,147.053528 24.105394,146.254089 
z"/>
<path fill="#D3D3D3" opacity="1.000000" stroke="none" 
	d="
M40.723709,176.735092 
	C40.942032,177.094131 40.942902,177.264023 40.935165,177.687958 
	C40.189297,177.931625 39.452042,177.921265 38.346352,177.874359 
	C38.820694,177.407181 39.663475,176.976547 40.723709,176.735092 
z"/>
<path fill="#F2F2F2" opacity="1.000000" stroke="none" 
	d="
M63.324596,141.956299 
	C63.212204,141.189575 63.391315,140.335144 63.795856,139.237305 
	C63.886223,139.952118 63.751160,140.910370 63.324596,141.956299 
z"/>
<path fill="#F2F2F2" opacity="1.000000" stroke="none" 
	d="
M63.188713,123.809769 
	C62.716351,123.518646 62.408607,123.031242 62.066513,122.249283 
	C62.472557,122.507645 62.912949,123.060562 63.188713,123.809769 
z"/>
<path fill="#E9E9E9" opacity="1.000000" stroke="none" 
	d="
M29.998936,136.001221 
	C27.854548,136.004715 26.637329,135.192566 28.085735,133.079559 
	C28.976229,131.780472 30.400749,130.847427 31.148386,130.154907 
	C30.861530,127.448158 30.634056,125.301720 30.845047,123.368423 
	C32.526337,124.058357 33.769157,124.535141 35.421974,125.015518 
	C41.564915,125.895004 47.295216,128.447311 53.007336,125.416275 
	C50.507603,130.258728 50.262939,134.069199 55.915039,136.420532 
	C48.340744,140.606323 40.887642,143.028229 33.211937,137.204147 
	C32.339165,136.541916 31.079306,136.389847 29.998936,136.001221 
z"/>
<path fill="#F1F1F1" opacity="1.000000" stroke="none" 
	d="
M53.034916,125.046265 
	C47.295216,128.447311 41.564915,125.895004 35.275909,124.692230 
	C35.480484,120.910507 36.241112,117.455643 37.001740,114.000786 
	C38.763790,112.676666 40.525841,111.352554 43.044357,110.014023 
	C51.479488,109.732101 53.795231,115.899651 57.000370,121.000000 
	C57.000946,121.444099 57.001518,121.888206 57.001354,122.999741 
	C56.999409,124.113022 56.998203,124.558868 56.660801,125.004562 
	C55.875957,125.011856 55.427307,125.019295 54.654472,125.029175 
	C53.898495,125.036507 53.466705,125.041389 53.034916,125.046265 
M39.905067,120.025505 
	C42.606762,120.653618 45.286674,121.565880 48.020447,121.775414 
	C49.176537,121.864029 50.888596,120.733421 51.512054,119.667885 
	C51.945618,118.926895 51.327648,116.819145 50.524723,116.256775 
	C48.636330,114.934181 45.825069,112.886726 44.361099,113.491196 
	C42.293236,114.344994 41.104034,117.326866 39.905067,120.025505 
z"/>
<path fill="#F1F1F1" opacity="1.000000" stroke="none" 
	d="
M30.083689,136.326996 
	C31.079306,136.389847 32.339165,136.541916 33.211937,137.204147 
	C40.887642,143.028229 48.340744,140.606323 56.165817,136.525116 
	C57.033669,136.544342 57.524036,136.789902 58.014404,137.035461 
	C55.485847,144.038528 45.370255,147.885040 39.465042,143.906555 
	C36.213188,141.715714 33.257599,139.085098 30.083689,136.326996 
z"/>
<path fill="#F5F5F5" opacity="1.000000" stroke="none" 
	d="
M57.216434,120.747437 
	C53.795231,115.899651 51.479488,109.732101 43.399590,109.997971 
	C44.979179,109.413223 47.103790,108.065453 48.911049,108.405296 
	C52.738213,109.124985 57.186169,115.999466 57.216434,120.747437 
z"/>
<path fill="#E0E0E0" opacity="1.000000" stroke="none" 
	d="
M58.020386,136.655807 
	C57.524036,136.789902 57.033669,136.544342 56.292522,136.194183 
	C50.262939,134.069199 50.507603,130.258728 53.007336,125.416275 
	C53.466705,125.041389 53.898495,125.036507 54.660896,125.400787 
	C54.997673,126.516121 55.003834,127.262291 54.865776,128.270462 
	C51.966740,132.704132 56.337837,132.543564 58.046562,134.001602 
	C58.039829,134.759781 58.033100,135.517975 58.020386,136.655807 
z"/>
<path fill="#F5F5F5" opacity="1.000000" stroke="none" 
	d="
M36.715294,114.178864 
	C36.241112,117.455643 35.480484,120.910507 34.865917,124.688644 
	C33.769157,124.535141 32.526337,124.058357 31.141834,123.290482 
	C32.809719,120.118576 34.619286,117.237755 36.715294,114.178864 
z"/>
<path fill="#F2F2F2" opacity="1.000000" stroke="none" 
	d="
M60.001793,129.040619 
	C59.869205,130.638763 59.736614,132.236908 59.243095,133.583298 
	C57.921837,131.557877 56.961510,129.784225 56.401703,128.007080 
	C57.870823,128.001923 58.939415,128.000259 60.008007,127.998589 
	C60.008007,127.998589 59.998352,127.999298 59.998230,128.256897 
	C59.999336,128.689865 60.000565,128.865250 60.001793,129.040619 
z"/>
<path fill="#F1F1F1" opacity="1.000000" stroke="none" 
	d="
M56.001179,128.010559 
	C56.961510,129.784225 57.921837,131.557877 58.942841,133.668823 
	C59.003513,134.006104 58.524460,134.006805 58.285515,134.004211 
	C56.337837,132.543564 51.966740,132.704132 55.113480,128.269684 
	C55.505402,128.006927 56.001179,128.010559 56.001179,128.010559 
z"/>
<path fill="#E9E9E9" opacity="1.000000" stroke="none" 
	d="
M56.401703,128.007080 
	C56.001179,128.010559 55.505402,128.006927 55.257698,128.007690 
	C55.003834,127.262291 54.997673,126.516121 54.985085,125.398331 
	C55.427307,125.019295 55.875957,125.011856 56.860283,125.212036 
	C57.928181,125.617699 58.460400,125.815750 58.992619,126.013802 
	C59.257664,126.504257 59.522705,126.994705 59.897877,127.741875 
	C58.939415,128.000259 57.870823,128.001923 56.401703,128.007080 
z"/>
<path fill="#F5F5F5" opacity="1.000000" stroke="none" 
	d="
M58.977776,125.672775 
	C58.460400,125.815750 57.928181,125.617699 57.196480,125.212181 
	C56.998203,124.558868 56.999409,124.113022 57.001892,123.332825 
	C57.656422,123.776222 58.309677,124.553978 58.977776,125.672775 
z"/>
<path fill="#E9E9E9" opacity="1.000000" stroke="none" 
	d="
M60.121277,128.927094 
	C60.000565,128.865250 59.999336,128.689865 60.000057,128.251328 
	C60.324989,128.208679 60.404575,128.483810 60.121277,128.927094 
z"/>
<path fill="#EBEBEB" opacity="1.000000" stroke="none" 
	d="
M39.722141,119.712257 
	C41.104034,117.326866 42.293236,114.344994 44.361099,113.491196 
	C45.825069,112.886726 48.636330,114.934181 50.524723,116.256775 
	C51.327648,116.819145 51.945618,118.926895 51.512054,119.667885 
	C50.888596,120.733421 49.176537,121.864029 48.020447,121.775414 
	C45.286674,121.565880 42.606762,120.653618 39.722141,119.712257 
z"/>
</svg>