<svg version="1.1" id="Layer_1" xmlns="http://www.w3.org/2000/svg" xmlns:xlink="http://www.w3.org/1999/xlink" x="0px" y="0px"
	 width="100%" viewBox="0 0 91 405" enable-background="new 0 0 91 405" xml:space="preserve">
<path fill="#D8BF91" opacity="1.000000" stroke="none" 
	d="
M26.158865,359.011505 
	C26.165710,356.144012 26.172560,353.276520 26.811634,350.196289 
	C27.628456,349.989014 27.813053,349.994507 27.997406,350.449127 
	C27.997158,353.662384 27.997158,356.426544 27.997158,359.190674 
	C28.567284,359.169312 29.137409,359.147980 29.707535,359.126617 
	C30.908419,342.748779 32.109303,326.370911 33.310184,309.993073 
	C32.541344,309.948364 31.772501,309.903656 31.003658,309.858948 
	C31.003658,313.741364 31.371838,317.669159 30.900921,321.493561 
	C30.422529,325.378632 29.116524,329.161774 28.172955,332.989563 
	C28.125212,318.627686 28.077471,304.265778 28.333672,289.103088 
	C28.743532,278.402344 28.894495,268.502350 28.876518,258.602692 
	C28.874949,257.737732 27.763315,256.874817 27.167294,256.010956 
	C27.115942,255.560867 27.064592,255.110779 27.455704,254.323212 
	C28.629784,253.953232 29.361403,253.920731 30.378220,254.077087 
	C43.223961,262.609680 55.363785,263.374390 67.505791,250.965652 
	C67.091866,255.144974 66.809303,257.997894 66.526741,260.850800 
	C66.532135,262.682220 66.537529,264.513672 66.424774,266.907257 
	C66.306633,267.469421 65.961151,267.782928 65.961151,267.782928 
	C65.859673,267.924194 65.758186,268.065430 65.503166,268.347198 
	C65.349625,268.487732 65.365517,268.294128 65.365509,268.294128 
	C63.509617,283.111542 61.653725,297.928955 59.390751,312.491302 
	C59.254074,306.945374 59.524475,301.654541 59.827332,295.728668 
	C59.306271,296.611511 59.061871,296.858917 59.006680,297.143097 
	C56.687286,309.084198 54.278660,321.010223 52.211929,332.995209 
	C51.947807,334.526886 53.476467,336.367737 54.174591,338.065338 
	C53.452629,341.109222 52.730667,344.153137 51.709946,347.558472 
	C51.411186,347.919922 51.082092,347.925507 51.039360,347.526733 
	C51.251400,344.808167 51.506172,342.488403 51.760941,340.168610 
	C51.175533,340.105164 50.590130,340.041748 50.004723,339.978302 
	C49.673138,344.281677 49.341549,348.585083 49.014946,353.189972 
	C49.013428,353.692352 49.006927,353.893280 48.610069,354.084839 
	C47.483631,356.072113 46.747551,358.068726 46.017284,360.294861 
	C46.023094,360.524445 46.018703,360.983704 45.669800,361.073914 
	C44.886593,362.450836 44.452293,363.737579 44.011726,365.009888 
	C44.005459,364.995453 44.031658,365.016144 43.703918,365.077454 
	C42.281509,366.100464 41.186836,367.062134 40.130447,367.648621 
	C44.367599,349.893066 50.264561,332.707581 52.287971,315.077545 
	C54.313320,297.430634 63.139835,280.846863 60.775414,263.188019 
	C53.428246,262.817261 46.625645,262.974243 39.994354,261.984009 
	C34.500980,261.163696 33.920937,260.973419 34.027813,266.782776 
	C34.275173,280.228058 34.678963,293.670441 35.020824,307.113983 
	C35.029278,307.446472 35.073502,307.778687 35.070564,308.110748 
	C34.980049,318.355713 35.207912,328.616455 34.706047,338.841370 
	C34.146576,350.239807 32.996986,361.612457 31.948717,372.981995 
	C31.581202,376.968109 33.108730,378.568542 36.868755,378.354126 
	C37.122871,380.094513 37.519352,381.516876 37.955368,383.239227 
	C38.028362,383.738159 38.061813,383.937073 38.095261,384.136017 
	C38.095261,384.136017 38.078068,384.049255 37.882431,384.167236 
	C37.471798,384.563599 37.256802,384.841980 37.041809,385.120392 
	C37.041809,385.120392 37.041977,385.044891 36.746723,385.046631 
	C36.011185,385.040588 35.570904,385.032837 34.755974,385.063904 
	C30.154665,386.697479 28.038673,385.086761 28.036829,380.718658 
	C28.034691,375.648621 28.283770,370.578278 28.266447,365.508636 
	C28.263605,364.677429 27.450903,363.849030 27.008553,362.663696 
	C26.722694,361.209198 26.440781,360.110352 26.158865,359.011505 
z"/>
<path fill="#D2D1D1" opacity="1.000000" stroke="none" 
	d="
M66.780685,260.553101 
	C66.809303,257.997894 67.091866,255.144974 67.505791,250.965652 
	C55.363785,263.374390 43.223961,262.609680 30.285002,253.768326 
	C28.990833,252.840988 28.075083,252.411255 27.159330,251.981537 
	C25.778040,245.979355 24.406506,239.974915 23.013054,233.975571 
	C21.153746,225.970520 19.402773,217.937592 17.380779,209.973633 
	C13.808179,195.902374 21.770052,176.849380 34.660965,169.202942 
	C38.131996,167.144058 41.583160,164.904419 45.321060,163.472412 
	C53.947670,160.167511 64.047035,166.298401 68.829903,172.620651 
	C69.727730,173.807449 70.895905,174.789734 72.178322,176.499100 
	C73.420654,179.110931 74.423988,181.090073 75.427322,183.069199 
	C75.830223,185.452637 76.233124,187.836060 76.619446,190.915070 
	C76.875320,193.430588 77.147781,195.250534 77.420235,197.070496 
	C77.478813,198.102753 77.537399,199.135010 77.250000,200.716736 
	C76.913170,202.838440 76.922302,204.410706 76.931442,205.982956 
	C76.809181,207.686752 76.686928,209.390549 76.153992,211.568024 
	C75.504692,212.713959 75.266075,213.386215 75.027451,214.058456 
	C75.492195,225.847168 71.766251,236.925919 69.279526,248.219238 
	C68.402351,252.202911 67.775681,256.241760 66.780685,260.553101 
M66.040512,180.246201 
	C64.709770,178.466309 63.379032,176.686417 62.008034,174.174988 
	C60.805813,169.819107 57.481499,168.281097 53.433895,168.019806 
	C44.372608,167.434891 37.331890,171.693192 31.773060,178.234558 
	C25.347986,185.795288 20.175390,194.312912 22.026915,204.779541 
	C24.473072,218.607513 27.335114,232.383011 30.638145,246.031082 
	C32.934631,255.520126 43.748863,257.275818 51.363651,255.317139 
	C51.677338,255.236450 51.816593,254.477661 52.776676,254.018387 
	C53.516228,254.028885 54.255783,254.039383 55.436375,254.465393 
	C61.561588,252.867935 64.594109,248.465286 65.833183,242.648468 
	C66.817657,238.026871 67.550125,233.348343 68.283249,228.677628 
	C68.767929,225.589767 69.122360,222.477356 69.419205,219.364899 
	C70.291634,210.217422 71.789490,201.050415 71.602272,191.920578 
	C71.528877,188.341431 72.041367,182.544998 66.040512,180.246201 
z"/>
<path fill="#DADADA" opacity="1.000000" stroke="none" 
	d="
M74.464127,137.173767 
	C68.884277,146.137589 54.004261,151.671753 43.433239,149.919052 
	C36.616100,148.788757 30.896925,146.327454 25.269098,142.488541 
	C17.022482,136.863281 16.110697,128.867493 17.237387,120.284721 
	C17.990837,114.545166 19.855991,108.951553 21.825785,103.386032 
	C22.186857,105.309311 21.728138,107.142258 21.753958,108.968369 
	C21.796499,111.977142 17.729633,115.126587 22.387915,118.059914 
	C25.182287,119.081200 27.589794,120.042580 29.609074,121.065094 
	C26.281378,121.256851 23.341906,121.387489 19.675068,121.550461 
	C19.675068,124.709709 19.675068,128.474274 19.675068,132.238846 
	C22.219065,125.875854 26.934139,128.518738 31.233610,129.244583 
	C32.978691,129.992172 34.489117,130.496994 36.186436,131.225464 
	C36.915894,131.631500 37.458454,131.813934 38.318272,132.140289 
	C39.756577,132.520370 40.877628,132.756531 42.391319,132.981567 
	C45.825657,132.376236 48.856579,131.717545 51.912231,131.206787 
	C54.707344,130.739578 57.575710,130.632050 60.324646,129.991837 
	C62.546162,129.474457 64.583015,128.186615 66.798531,127.616417 
	C71.662010,126.364723 73.907524,128.703339 72.143021,133.459198 
	C71.106407,136.253159 71.788185,137.117691 74.464127,137.173767 
M52.487259,134.987167 
	C45.779205,134.744308 39.072113,134.460175 32.362053,134.302994 
	C31.353302,134.279373 29.774925,134.573410 29.456493,135.215027 
	C29.067196,135.999451 29.416040,137.538391 30.007341,138.333282 
	C30.973404,139.631973 32.221004,140.954041 33.650467,141.637115 
	C42.425449,145.830276 51.265797,145.896393 59.774426,141.012863 
	C61.945656,139.766663 63.490364,137.428909 65.322929,135.592667 
	C65.015808,135.011200 64.708679,134.429749 64.401550,133.848282 
	C60.733318,134.226349 57.065083,134.604431 52.487259,134.987167 
z"/>
<path fill="#D3D3D3" opacity="1.000000" stroke="none" 
	d="
M74.715576,136.935211 
	C71.788185,137.117691 71.106407,136.253159 72.143021,133.459198 
	C73.907524,128.703339 71.662010,126.364723 66.798531,127.616417 
	C64.583015,128.186615 62.546162,129.474457 60.324646,129.991837 
	C57.575710,130.632050 54.707344,130.739578 51.912231,131.206787 
	C48.856579,131.717545 45.825657,132.376236 42.374191,132.618607 
	C41.430691,131.561401 40.896957,130.856064 40.363224,130.150726 
	C39.575821,130.765930 38.788418,131.381149 38.001015,131.996353 
	C37.458454,131.813934 36.915894,131.631500 36.174484,130.874329 
	C34.974419,127.344933 33.634716,125.688301 30.998955,129.001831 
	C26.934139,128.518738 22.219065,125.875854 19.675068,132.238846 
	C19.675068,128.474274 19.675068,124.709709 19.675068,121.550461 
	C23.341906,121.387489 26.281378,121.256851 29.942341,121.066574 
	C31.108118,121.009941 31.552408,121.012939 32.167610,121.309250 
	C40.554699,128.175095 42.661182,127.929390 53.335945,123.018463 
	C54.111778,123.017761 54.555111,123.017715 55.283344,123.268936 
	C60.235931,122.859818 64.941200,122.376015 69.541100,121.397064 
	C70.516556,121.189453 71.386513,119.244522 71.711945,117.950836 
	C71.814880,117.541611 69.989182,116.647240 69.040115,115.560455 
	C69.018433,113.764442 69.002739,112.382874 69.344513,110.986176 
	C70.369728,110.445610 71.037491,109.920166 71.705246,109.394722 
	C70.804192,108.929893 69.903130,108.465073 69.000763,107.669235 
	C68.994026,106.896301 68.988602,106.454384 68.915459,105.680489 
	C67.911324,104.899010 66.974899,104.449501 66.025108,103.650879 
	C65.672173,102.202583 65.332619,101.103401 64.995392,99.620789 
	C64.005203,98.152428 63.012684,97.067490 62.010696,95.990814 
	C62.001221,95.999077 62.016716,95.984787 62.015377,95.596115 
	C61.008690,93.139061 60.003342,91.070679 58.826775,88.706558 
	C57.434223,87.942635 56.212891,87.474464 54.654457,86.854767 
	C52.866970,86.481567 51.416580,86.259895 49.533043,86.021248 
	C47.069958,86.009933 45.040016,86.015594 42.689526,86.040649 
	C41.573635,86.367699 40.778294,86.675362 39.583885,86.983490 
	C38.120140,86.986893 37.055466,86.989830 36.049644,86.635956 
	C39.288555,84.857719 42.343678,82.848991 45.675335,82.140266 
	C52.107445,80.772011 57.562565,84.021637 63.058708,87.268059 
	C63.395153,87.748489 63.640038,87.972656 63.940491,88.500786 
	C64.540009,90.057877 65.123924,91.267342 65.707848,92.476807 
	C66.074310,92.332024 66.440765,92.187233 66.807228,92.042450 
	C66.543732,90.347137 66.280235,88.651833 66.016731,86.956528 
	C66.478653,87.132843 67.302795,87.240959 67.350685,87.495247 
	C70.071442,101.943932 77.861908,115.326447 76.515434,130.610886 
	C76.334129,132.668976 75.499252,134.669495 74.715576,136.935211 
z"/>
<path fill="#D0B381" opacity="1.000000" stroke="none" 
	d="
M63.899925,77.001343 
	C63.926964,77.753319 63.954002,78.505295 63.551258,79.615524 
	C60.745113,77.984062 58.368752,75.994354 56.133453,73.680077 
	C55.181744,68.234451 54.420773,63.011044 52.883301,58.027180 
	C51.800194,54.516193 49.662197,51.330631 47.994316,47.667946 
	C47.992191,46.893688 47.990952,46.451252 47.979996,45.614983 
	C46.544258,40.664894 45.302387,36.037556 43.586658,31.593143 
	C43.029041,30.148684 41.232681,29.182428 39.862068,27.685913 
	C38.482349,25.580851 37.243473,23.787325 35.947716,21.645084 
	C34.614162,20.743872 33.337490,20.191374 32.060822,19.638878 
	C31.532686,21.060583 30.429695,22.545242 30.577290,23.892950 
	C31.173151,29.333963 32.165306,34.731129 32.988441,40.147930 
	C33.310806,42.269291 33.855442,44.405296 33.813648,46.525063 
	C33.647064,54.973473 33.122345,63.418514 33.142639,71.863815 
	C33.146721,73.562630 34.951546,75.257118 35.823372,77.219589 
	C35.466801,77.996147 35.212967,78.506714 34.743736,79.187531 
	C34.334942,79.863434 34.141537,80.369095 33.644505,80.970886 
	C32.903683,81.731949 32.466484,82.396873 31.797590,83.283676 
	C31.377241,84.330429 31.188587,85.155304 30.752050,86.013145 
	C30.341400,86.082146 30.178635,86.118187 29.763458,86.119690 
	C29.343597,86.056747 29.176147,86.028351 29.017103,85.567123 
	C29.349606,78.422760 29.673704,71.711220 30.018463,64.531479 
	C29.669222,54.634689 29.420414,45.198296 28.814137,35.784924 
	C28.709049,34.153282 27.091385,32.619061 26.172369,31.039839 
	C26.106129,29.000566 26.039888,26.961292 26.173870,24.232433 
	C25.363634,12.312655 26.600706,10.840163 36.171242,11.881262 
	C36.171242,11.881262 36.069630,11.916983 36.166130,12.127108 
	C36.572468,12.539439 36.882305,12.741647 37.192139,12.943853 
	C37.192139,12.943854 37.089130,12.925250 37.051544,13.250717 
	C39.046623,16.037518 41.079296,18.498852 43.111969,20.960186 
	C43.749737,22.031099 44.387508,23.102013 45.017963,24.904156 
	C47.067554,29.728231 49.124466,33.821083 51.181374,37.913933 
	C51.181374,37.913933 51.093338,37.925838 51.041374,38.276905 
	C51.623619,40.099602 52.257828,41.571236 52.892036,43.042866 
	C52.892036,43.042866 53.036640,43.397224 53.002041,43.966942 
	C53.603565,46.032543 54.239689,47.528419 54.875813,49.024300 
	C54.875813,49.024300 55.025566,49.397419 55.007164,49.956261 
	C55.363304,51.333824 55.737846,52.152542 56.112392,52.971264 
	C57.403450,56.379303 58.694504,59.787342 59.998459,63.994663 
	C61.307545,68.863075 62.603737,72.932213 63.899925,77.001343 
z"/>
<path fill="#AEAAA5" opacity="1.000000" stroke="none" 
	d="
M55.992386,74.004646 
	C58.368752,75.994354 60.745113,77.984062 63.475548,79.984985 
	C64.230377,81.033684 64.631134,82.071152 65.013306,83.838531 
	C64.638107,85.763344 64.281502,86.958252 63.924896,88.153160 
	C63.640038,87.972656 63.395153,87.748489 63.035667,86.930664 
	C61.590275,84.918076 60.299446,83.455482 58.948067,81.683472 
	C58.253597,80.922150 57.619682,80.470245 56.743866,80.008781 
	C56.501961,79.999222 56.018101,79.981461 55.938721,79.650993 
	C54.903301,78.883896 53.947254,78.447266 52.564827,78.006226 
	C50.432484,77.991470 48.726513,77.981125 46.918671,77.622711 
	C44.883076,77.182564 42.902863,76.789467 41.028072,77.078987 
	C38.954762,77.399162 36.977966,78.344315 34.959137,79.017288 
	C35.212967,78.506714 35.466801,77.996147 36.139450,77.062546 
	C42.330292,70.553833 48.982574,70.960724 55.992386,74.004646 
z"/>
<path fill="#C2AC82" opacity="1.000000" stroke="none" 
	d="
M54.557289,337.996246 
	C53.476467,336.367737 51.947807,334.526886 52.211929,332.995209 
	C54.278660,321.010223 56.687286,309.084198 59.006680,297.143097 
	C59.061871,296.858917 59.306271,296.611511 59.827332,295.728668 
	C59.524475,301.654541 59.254074,306.945374 59.020744,312.706299 
	C57.685204,321.426636 56.312595,329.676910 54.557289,337.996246 
z"/>
<path fill="#D3D3D3" opacity="1.000000" stroke="none" 
	d="
M22.001047,118.000015 
	C17.729633,115.126587 21.796499,111.977142 21.753958,108.968369 
	C21.728138,107.142258 22.186857,105.309311 22.160805,103.213554 
	C21.980219,102.647781 22.020939,102.341789 22.455906,101.870544 
	C23.227329,100.793732 23.558704,99.876083 23.890079,98.958435 
	C25.015095,96.052650 26.140110,93.146858 27.948608,90.102097 
	C30.765028,88.991974 32.897964,88.020821 35.024021,87.427185 
	C34.437572,89.277443 34.011311,90.835762 33.246964,92.205399 
	C31.584549,95.184258 29.749685,98.066879 27.696472,101.044556 
	C27.275686,102.070976 27.143744,103.041679 27.011372,104.426575 
	C26.990446,106.218819 26.969948,107.596863 26.743216,109.098625 
	C26.280304,109.424820 26.081343,109.673485 25.582485,109.990746 
	C24.483025,111.008667 23.741182,112.004181 22.989134,113.367142 
	C22.652969,115.156395 22.327009,116.578209 22.001047,118.000015 
z"/>
<path fill="#C0BFBF" opacity="1.000000" stroke="none" 
	d="
M35.030899,87.049675 
	C32.897964,88.020821 30.765028,88.991974 28.261696,89.957741 
	C27.916397,89.531746 27.941494,89.111137 28.168621,88.187927 
	C28.583334,87.123535 28.796019,86.561737 29.008701,85.999947 
	C29.176147,86.028351 29.343597,86.056747 29.879066,86.233078 
	C30.604723,86.491714 30.855673,86.358109 30.999933,85.980186 
	C31.188587,85.155304 31.377241,84.330429 32.128471,83.275620 
	C33.132912,83.034706 33.574780,83.023712 34.370598,82.956375 
	C38.823215,81.256950 42.921883,79.613869 47.020546,77.970779 
	C48.726513,77.981125 50.432484,77.991470 52.641960,78.337860 
	C54.103016,79.109756 55.060558,79.545609 56.018101,79.981461 
	C56.018101,79.981461 56.501961,79.999222 56.806286,80.316788 
	C57.743279,81.087196 58.375946,81.540047 59.008614,81.992889 
	C60.299446,83.455482 61.590275,84.918076 62.904144,86.718063 
	C57.562565,84.021637 52.107445,80.772011 45.675335,82.140266 
	C42.343678,82.848991 39.288555,84.857719 35.809540,86.647156 
	C35.510586,87.015175 35.030899,87.049675 35.030899,87.049675 
z"/>
<path fill="#D0B482" opacity="1.000000" stroke="none" 
	d="
M28.096779,333.432007 
	C29.116524,329.161774 30.422529,325.378632 30.900921,321.493561 
	C31.371838,317.669159 31.003658,313.741364 31.003658,309.858948 
	C31.772501,309.903656 32.541344,309.948364 33.310184,309.993073 
	C32.109303,326.370911 30.908419,342.748779 29.707535,359.126617 
	C29.137409,359.147980 28.567284,359.169312 27.997158,359.190674 
	C27.997158,356.426544 27.997158,353.662384 28.062099,350.063110 
	C28.041309,346.793976 27.955582,344.360046 27.869852,341.926086 
	C27.920101,339.242188 27.970350,336.558319 28.096779,333.432007 
z"/>
<path fill="#D0B482" opacity="1.000000" stroke="none" 
	d="
M27.012495,363.019318 
	C27.450903,363.849030 28.263605,364.677429 28.266447,365.508636 
	C28.283770,370.578278 28.034691,375.648621 28.036829,380.718658 
	C28.038673,385.086761 30.154665,386.697479 34.865856,385.275635 
	C35.564877,385.693024 35.817783,385.887604 36.109100,386.032288 
	C35.033070,389.730652 32.415607,391.509674 28.355076,391.495056 
	C25.036806,381.784729 25.386230,372.424072 27.012495,363.019318 
z"/>
<path fill="#D7C6AB" opacity="1.000000" stroke="none" 
	d="
M46.018703,360.983704 
	C46.018703,360.983704 46.023094,360.524445 46.254593,360.089844 
	C47.266476,358.474274 48.046864,357.293304 48.857643,356.429230 
	C48.946281,357.165527 49.004524,357.584900 49.062767,358.004303 
	C46.255634,365.310852 43.466572,372.624451 40.624985,379.917572 
	C40.103710,381.255432 39.369053,382.510101 38.414078,383.969604 
	C38.061813,383.937073 38.028362,383.738159 37.986591,382.832703 
	C37.965759,380.759216 37.953247,379.392273 38.068451,377.874115 
	C37.808483,377.476868 37.420799,377.230774 37.085098,376.679443 
	C37.750744,375.918976 38.364399,375.463745 39.336105,374.957764 
	C41.139988,371.610046 42.585827,368.313080 44.031662,365.016144 
	C44.031658,365.016144 44.005459,364.995453 44.307980,364.836060 
	C45.079903,363.445709 45.549301,362.214691 46.018703,360.983704 
z"/>
<path fill="#D3BD9A" opacity="1.000000" stroke="none" 
	d="
M27.008551,362.663696 
	C25.386230,372.424072 25.036806,381.784729 27.982403,391.426208 
	C26.667480,388.947937 24.258072,386.080536 24.243584,383.201080 
	C24.204271,375.388062 25.180347,367.569977 25.956356,359.382690 
	C26.440781,360.110352 26.722694,361.209198 27.008551,362.663696 
z"/>
<path fill="#E6D4BE" opacity="1.000000" stroke="none" 
	d="
M26.121853,31.444077 
	C27.091385,32.619061 28.709049,34.153282 28.814137,35.784924 
	C29.420414,45.198296 29.669222,54.634689 29.713856,64.530159 
	C28.982395,64.994858 28.576204,64.992683 28.170012,64.990517 
	C28.112915,57.565941 28.250128,50.132607 27.915823,42.720531 
	C27.751451,39.076141 26.713799,35.471142 26.121853,31.444077 
z"/>
<path fill="#DDCCB4" opacity="1.000000" stroke="none" 
	d="
M28.095062,65.454308 
	C28.576204,64.992683 28.982395,64.994858 29.693195,64.998352 
	C29.673704,71.711220 29.349606,78.422760 29.017105,85.567123 
	C28.796019,86.561737 28.583334,87.123535 28.129244,87.873848 
	C27.916494,84.817711 27.953171,81.573097 27.971792,78.328377 
	C27.995533,74.191666 28.004677,70.054863 28.095062,65.454308 
z"/>
<path fill="#DAC7AC" opacity="1.000000" stroke="none" 
	d="
M27.098610,256.454773 
	C27.763315,256.874817 28.874949,257.737732 28.876518,258.602692 
	C28.894495,268.502350 28.743532,278.402344 28.398438,288.636536 
	C27.782816,278.280090 27.406372,267.589355 27.098610,256.454773 
z"/>
<path fill="#D3C3A6" opacity="1.000000" stroke="none" 
	d="
M35.999252,11.544617 
	C26.600706,10.840163 25.363634,12.312655 26.131239,23.796886 
	C25.701862,20.238319 24.946390,16.344513 25.475924,12.634096 
	C26.107405,8.209339 30.394650,7.767472 35.999252,11.544617 
z"/>
<path fill="#ADA28F" opacity="1.000000" stroke="none" 
	d="
M63.923813,76.572311 
	C62.603737,72.932213 61.307545,68.863075 60.018520,64.375595 
	C61.333019,68.019264 62.640358,72.081276 63.923813,76.572311 
z"/>
<path fill="#D9C6AC" opacity="1.000000" stroke="none" 
	d="
M51.117119,37.592613 
	C49.124466,33.821083 47.067554,29.728231 45.021088,25.246443 
	C46.427769,27.244637 47.939987,29.573475 49.179462,32.039406 
	C50.005207,33.682198 50.441994,35.520500 51.117119,37.592613 
z"/>
<path fill="#C1AB83" opacity="1.000000" stroke="none" 
	d="
M49.336250,357.762543 
	C49.004524,357.584900 48.946281,357.165527 48.901169,356.092896 
	C48.943008,354.991180 48.971714,354.542664 49.000423,354.094177 
	C49.006927,353.893280 49.013428,353.692352 49.022102,352.845062 
	C49.710213,350.774292 50.396152,349.349884 51.082092,347.925507 
	C51.082092,347.925507 51.411186,347.919922 51.574471,347.940491 
	C51.028412,351.147644 50.319077,354.334198 49.336250,357.762543 
z"/>
<path fill="#D3C3A6" opacity="1.000000" stroke="none" 
	d="
M42.970974,20.639330 
	C41.079296,18.498852 39.046623,16.037518 37.069118,13.201420 
	C39.026180,15.323928 40.928082,17.821201 42.970974,20.639330 
z"/>
<path fill="#C0BFBF" opacity="1.000000" stroke="none" 
	d="
M63.940491,88.500786 
	C64.281502,86.958252 64.638107,85.763344 65.038635,84.181900 
	C65.387665,84.610703 65.692757,85.426048 66.007294,86.598953 
	C66.280235,88.651833 66.543732,90.347137 66.807228,92.042450 
	C66.440765,92.187233 66.074310,92.332024 65.707848,92.476807 
	C65.123924,91.267342 64.540009,90.057877 63.940491,88.500786 
z"/>
<path fill="#D3BD9A" opacity="1.000000" stroke="none" 
	d="
M27.517342,342.148010 
	C27.955582,344.360046 28.041309,346.793976 28.062346,349.613953 
	C27.813053,349.994507 27.628456,349.989014 27.167048,349.972443 
	C26.981768,347.430847 27.073299,344.900391 27.517342,342.148010 
z"/>
<path fill="#B6B6B6" opacity="1.000000" stroke="none" 
	d="
M77.563751,196.686859 
	C77.147781,195.250534 76.875320,193.430588 76.767990,191.315277 
	C77.191170,192.781036 77.449219,194.542145 77.563751,196.686859 
z"/>
<path fill="#B6B6B6" opacity="1.000000" stroke="none" 
	d="
M75.563354,182.734344 
	C74.423988,181.090073 73.420654,179.110931 72.355301,176.773224 
	C73.428642,178.409592 74.564018,180.404556 75.563354,182.734344 
z"/>
<path fill="#B6B6B6" opacity="1.000000" stroke="none" 
	d="
M77.259476,205.772156 
	C76.922302,204.410706 76.913170,202.838440 77.158875,201.095642 
	C77.471657,202.470520 77.529587,204.015945 77.259476,205.772156 
z"/>
<path fill="#D9C6AC" opacity="1.000000" stroke="none" 
	d="
M52.953232,42.672806 
	C52.257828,41.571236 51.623619,40.099602 51.044228,38.232574 
	C51.737511,39.325703 52.375969,40.814228 52.953232,42.672806 
z"/>
<path fill="#D9C6AC" opacity="1.000000" stroke="none" 
	d="
M54.941422,48.649849 
	C54.239689,47.528419 53.603565,46.032543 52.999626,44.158291 
	C53.690216,45.278412 54.348625,46.776905 54.941422,48.649849 
z"/>
<path fill="#DAC7AC" opacity="1.000000" stroke="none" 
	d="
M27.088737,252.314514 
	C28.075083,252.411255 28.990833,252.840988 29.999802,253.579468 
	C29.361403,253.920731 28.629784,253.953232 27.533083,253.990112 
	C27.118048,253.545486 27.068094,253.096497 27.088737,252.314514 
z"/>
<path fill="#D2D2D2" opacity="1.000000" stroke="none" 
	d="
M23.583731,99.092682 
	C23.558704,99.876083 23.227329,100.793732 22.532299,101.651314 
	C22.538225,100.803139 22.907803,100.015038 23.583731,99.092682 
z"/>
<path fill="#B6B6B6" opacity="1.000000" stroke="none" 
	d="
M75.335533,213.935913 
	C75.266075,213.386215 75.504692,212.713959 76.023514,211.976593 
	C76.083679,212.545441 75.863647,213.179398 75.335533,213.935913 
z"/>
<path fill="#D9C6AC" opacity="1.000000" stroke="none" 
	d="
M56.057411,52.611923 
	C55.737846,52.152542 55.363304,51.333824 55.009819,50.157265 
	C55.354725,50.617146 55.678577,51.434864 56.057411,52.611923 
z"/>
<path fill="#D7C6AB" opacity="1.000000" stroke="none" 
	d="
M36.345825,385.957581 
	C35.817783,385.887604 35.564877,385.693024 35.240501,385.236816 
	C35.570904,385.032837 36.011185,385.040588 36.783096,385.056732 
	C37.042526,385.406158 36.865135,385.678741 36.345825,385.957581 
z"/>
<path fill="#D2D1D1" opacity="1.000000" stroke="none" 
	d="
M65.397583,268.348450 
	C65.365517,268.294128 65.349625,268.487732 65.303635,268.515259 
	C65.257645,268.542816 65.429642,268.402771 65.397583,268.348450 
z"/>
<path fill="#D2D1D1" opacity="1.000000" stroke="none" 
	d="
M66.140076,267.781799 
	C65.961151,267.782928 66.306633,267.469421 66.296463,267.346497 
	C66.286293,267.223572 66.526711,267.489014 66.526711,267.489014 
	C66.526711,267.489014 66.319008,267.780670 66.140076,267.781799 
z"/>
<path fill="#D3C3A6" opacity="1.000000" stroke="none" 
	d="
M37.092827,12.675756 
	C36.882305,12.741647 36.572468,12.539439 36.155968,12.074221 
	C36.364040,12.010025 36.678776,12.208842 37.092827,12.675756 
z"/>
<path fill="#D7C6AB" opacity="1.000000" stroke="none" 
	d="
M37.308372,385.040558 
	C37.256802,384.841980 37.471798,384.563599 37.926628,384.165466 
	C37.969284,384.350708 37.772110,384.655731 37.308372,385.040558 
z"/>
<path fill="#F1DEAE" opacity="1.000000" stroke="none" 
	d="
M38.978062,375.008545 
	C38.364399,375.463745 37.750744,375.918976 37.078102,376.939453 
	C37.025223,377.677979 37.031326,377.851166 37.028992,378.018677 
	C37.020554,378.013000 37.011120,378.036102 37.011120,378.036102 
	C33.108730,378.568542 31.581202,376.968109 31.948717,372.981995 
	C32.996986,361.612457 34.146576,350.239807 34.706047,338.841370 
	C35.207912,328.616455 34.980049,318.355713 35.070564,308.110748 
	C35.073502,307.778687 35.029278,307.446472 35.020824,307.113983 
	C34.678963,293.670441 34.275173,280.228058 34.027813,266.782776 
	C33.920937,260.973419 34.500980,261.163696 39.994354,261.984009 
	C46.625645,262.974243 53.428246,262.817261 60.775414,263.188019 
	C63.139835,280.846863 54.313320,297.430634 52.287971,315.077545 
	C50.264561,332.707581 44.367599,349.893066 40.087650,368.042755 
	C39.663734,370.877563 39.320900,372.943054 38.978062,375.008545 
z"/>
<path fill="#D1B784" opacity="1.000000" stroke="none" 
	d="
M39.336105,374.957764 
	C39.320900,372.943054 39.663734,370.877563 40.049362,368.417908 
	C41.186836,367.062134 42.281509,366.100464 43.703922,365.077454 
	C42.585827,368.313080 41.139988,371.610046 39.336105,374.957764 
z"/>
<path fill="#C2AC82" opacity="1.000000" stroke="none" 
	d="
M51.039360,347.526733 
	C50.396152,349.349884 49.710213,350.774292 49.017120,352.543579 
	C49.341549,348.585083 49.673138,344.281677 50.004723,339.978302 
	C50.590130,340.041748 51.175533,340.105164 51.760941,340.168610 
	C51.506172,342.488403 51.251400,344.808167 51.039360,347.526733 
z"/>
<path fill="#D1B784" opacity="1.000000" stroke="none" 
	d="
M48.610069,354.084839 
	C48.971714,354.542664 48.943008,354.991180 48.870773,355.776001 
	C48.046864,357.293304 47.266476,358.474274 46.248779,359.860291 
	C46.747551,358.068726 47.483631,356.072113 48.610069,354.084839 
z"/>
<path fill="#D0B482" opacity="1.000000" stroke="none" 
	d="
M37.940731,378.025299 
	C37.953247,379.392273 37.965759,380.759216 37.947052,382.532715 
	C37.519352,381.516876 37.122871,380.094513 36.868755,378.354126 
	C37.011120,378.036102 37.020554,378.013000 37.254608,378.018005 
	C37.488663,378.023041 37.940731,378.025299 37.940731,378.025299 
z"/>
<path fill="#D1B784" opacity="1.000000" stroke="none" 
	d="
M45.669800,361.073914 
	C45.549301,362.214691 45.079903,363.445709 44.314247,364.850525 
	C44.452293,363.737579 44.886593,362.450836 45.669800,361.073914 
z"/>
<path fill="#EAEAEA" opacity="1.000000" stroke="none" 
	d="
M54.995335,254.049881 
	C54.255783,254.039383 53.516228,254.028885 51.963493,254.013702 
	C49.818283,253.988708 48.477642,254.058838 47.155678,253.932938 
	C40.364834,253.286148 34.242500,251.498947 32.478638,243.743652 
	C30.533930,235.193222 28.641031,226.623138 27.064610,217.999634 
	C26.057585,212.490906 24.887100,206.832352 25.152683,201.306473 
	C25.790997,188.025299 32.380363,178.029236 44.110596,171.704956 
	C48.810238,169.171173 55.855988,171.094925 58.012375,175.011627 
	C58.021889,175.015060 58.025337,175.036148 57.631653,175.011230 
	C48.725075,171.927307 39.253040,174.869843 34.646915,182.060501 
	C27.585291,193.084488 25.055136,204.537903 29.793514,217.409821 
	C32.106205,223.692291 32.584824,230.633865 34.122234,237.223770 
	C35.047421,241.189423 35.362759,247.359436 37.803574,248.470093 
	C42.544147,250.627228 48.713840,250.839417 54.056717,250.118240 
	C58.765881,249.482590 60.135090,244.425827 60.924316,240.049408 
	C62.596859,230.774719 64.646980,221.528870 65.597496,212.175201 
	C66.410088,204.178833 65.904182,196.048477 65.984879,187.644409 
	C66.006592,186.867584 66.024887,186.423752 66.424850,186.058899 
	C67.537933,187.971802 68.996002,189.851242 68.884430,191.632339 
	C68.080032,204.472198 67.733627,217.418900 65.666214,230.074295 
	C64.263283,238.662094 63.898113,248.475540 54.995335,254.049881 
z"/>
<path fill="#E1E1E1" opacity="1.000000" stroke="none" 
	d="
M58.002865,175.008209 
	C55.855988,171.094925 48.810238,169.171173 44.110596,171.704956 
	C32.380363,178.029236 25.790997,188.025299 25.152683,201.306473 
	C24.887100,206.832352 26.057585,212.490906 27.064610,217.999634 
	C28.641031,226.623138 30.533930,235.193222 32.478638,243.743652 
	C34.242500,251.498947 40.364834,253.286148 47.155678,253.932938 
	C48.477642,254.058838 49.818283,253.988708 51.593712,254.021896 
	C51.816593,254.477661 51.677338,255.236450 51.363651,255.317139 
	C43.748863,257.275818 32.934631,255.520126 30.638145,246.031082 
	C27.335114,232.383011 24.473072,218.607513 22.026915,204.779541 
	C20.175390,194.312912 25.347986,185.795288 31.773060,178.234558 
	C37.331890,171.693192 44.372608,167.434891 53.433895,168.019806 
	C57.481499,168.281097 60.805813,169.819107 61.623493,174.574799 
	C60.160255,174.985809 59.081562,174.997009 58.002865,175.008209 
z"/>
<path fill="#E1E1E1" opacity="1.000000" stroke="none" 
	d="
M55.215855,254.257629 
	C63.898113,248.475540 64.263283,238.662094 65.666214,230.074295 
	C67.733627,217.418900 68.080032,204.472198 68.884430,191.632339 
	C68.996002,189.851242 67.537933,187.971802 66.416367,185.638214 
	C66.091171,183.730392 66.156120,182.322250 66.221069,180.914124 
	C72.041367,182.544998 71.528877,188.341431 71.602272,191.920578 
	C71.789490,201.050415 70.291634,210.217422 69.419205,219.364899 
	C69.122360,222.477356 68.767929,225.589767 68.283249,228.677628 
	C67.550125,233.348343 66.817657,238.026871 65.833183,242.648468 
	C64.594109,248.465286 61.561588,252.867935 55.215855,254.257629 
z"/>
<path fill="#FDFDFD" opacity="1.000000" stroke="none" 
	d="
M66.130791,180.580170 
	C66.156120,182.322250 66.091171,183.730392 66.034714,185.559204 
	C66.024887,186.423752 66.006592,186.867584 65.696503,187.684692 
	C64.935043,188.371170 64.465370,188.684372 63.601509,188.996033 
	C59.550797,189.212067 58.399651,186.831451 58.076714,183.831741 
	C57.869129,181.903534 58.007725,179.938049 57.992378,177.619690 
	C58.004185,176.512115 58.014763,175.774139 58.025337,175.036148 
	C58.025337,175.036148 58.021889,175.015060 58.012375,175.011627 
	C59.081562,174.997009 60.160255,174.985809 61.643623,174.940567 
	C63.379032,176.686417 64.709770,178.466309 66.130791,180.580170 
z"/>
<path fill="#F3F3F3" opacity="1.000000" stroke="none" 
	d="
M52.942055,134.984833 
	C57.065083,134.604431 60.733318,134.226349 64.401550,133.848282 
	C64.708679,134.429749 65.015808,135.011200 65.322929,135.592667 
	C63.490364,137.428909 61.945656,139.766663 59.774426,141.012863 
	C51.265797,145.896393 42.425449,145.830276 33.650467,141.637115 
	C32.221004,140.954041 30.973404,139.631973 30.007341,138.333282 
	C29.416040,137.538391 29.067196,135.999451 29.456493,135.215027 
	C29.774925,134.573410 31.353302,134.279373 32.362053,134.302994 
	C39.072113,134.460175 45.779205,134.744308 52.942055,134.984833 
z"/>
<path fill="#DFDFDF" opacity="1.000000" stroke="none" 
	d="
M22.387915,118.059914 
	C22.327009,116.578209 22.652969,115.156395 23.243567,113.251587 
	C24.004061,112.511803 24.499916,112.255013 25.009258,112.380089 
	C25.750172,113.980476 26.302094,116.090515 27.233305,116.273834 
	C33.603477,117.527855 40.048519,119.122246 46.478596,119.163063 
	C53.981167,119.210686 61.493080,117.787323 68.808311,117.315048 
	C64.076599,119.424484 59.537521,121.221069 54.998444,123.017654 
	C54.555111,123.017715 54.111778,123.017761 53.034874,122.754562 
	C45.720337,121.887695 39.039520,121.282341 32.357067,120.695663 
	C32.247162,120.686012 32.117264,120.904114 31.996696,121.015938 
	C31.552408,121.012939 31.108118,121.009941 30.330564,121.005447 
	C27.589794,120.042580 25.182287,119.081200 22.387915,118.059914 
z"/>
<path fill="#D2D2D2" opacity="1.000000" stroke="none" 
	d="
M31.233610,129.244583 
	C33.634716,125.688301 34.974419,127.344933 35.987587,130.650711 
	C34.489117,130.496994 32.978691,129.992172 31.233610,129.244583 
z"/>
<path fill="#D2D2D2" opacity="1.000000" stroke="none" 
	d="
M38.318272,132.140289 
	C38.788418,131.381149 39.575821,130.765930 40.363224,130.150726 
	C40.896957,130.856064 41.430691,131.561401 41.981552,132.629700 
	C40.877628,132.756531 39.756577,132.520370 38.318272,132.140289 
z"/>
<path fill="#FAFAFA" opacity="1.000000" stroke="none" 
	d="
M43.010078,86.021255 
	C45.040016,86.015594 47.069958,86.009933 49.542679,86.349586 
	C50.324551,87.462074 50.663643,88.229248 51.051567,89.342674 
	C53.400921,92.125450 55.701443,94.561974 58.288086,97.165344 
	C59.392708,98.875992 60.211216,100.419792 61.072006,102.336800 
	C62.083405,107.376106 61.045414,108.257370 56.580326,107.773376 
	C51.768551,107.251801 46.761189,106.616432 42.074993,107.414871 
	C37.725666,108.155922 34.295513,107.666992 31.002542,104.599869 
	C31.001665,103.132935 31.000338,102.066063 31.138493,100.732056 
	C31.862381,99.650810 32.446785,98.836708 33.370064,97.965843 
	C36.809322,93.946472 39.909698,89.983864 43.010078,86.021255 
z"/>
<path fill="#E6E6E6" opacity="1.000000" stroke="none" 
	d="
M69.000938,117.002205 
	C61.493080,117.787323 53.981167,119.210686 46.478596,119.163063 
	C40.048519,119.122246 33.603477,117.527855 27.233305,116.273834 
	C26.302094,116.090515 25.750172,113.980476 25.232729,112.190079 
	C25.608509,111.068253 25.774307,110.518295 25.940102,109.968338 
	C26.081343,109.673485 26.280304,109.424820 27.006596,109.367767 
	C28.723280,110.994904 29.922594,113.711601 31.225019,113.761963 
	C41.207024,114.147972 51.210030,113.945480 61.204414,114.080551 
	C64.870537,114.130089 66.365761,112.538193 66.382446,108.995819 
	C67.501228,109.000938 68.246826,109.002449 68.988747,109.336823 
	C68.985725,110.113564 68.986382,110.557426 68.987045,111.001297 
	C69.002739,112.382874 69.018433,113.764442 69.024765,115.817261 
	C69.010582,116.659737 69.005760,116.830971 69.000938,117.002205 
z"/>
<path fill="#E7E7E7" opacity="1.000000" stroke="none" 
	d="
M61.029720,101.963593 
	C60.211216,100.419792 59.392708,98.875992 58.238625,96.821564 
	C55.602940,93.872757 53.302837,91.434593 51.002735,88.996422 
	C50.663643,88.229248 50.324551,87.462074 49.975826,86.366562 
	C51.416580,86.259895 52.866970,86.481567 54.729645,87.185349 
	C56.086807,88.120743 57.031685,88.574020 57.981277,89.400581 
	C59.329567,91.844170 60.673141,93.914474 62.016716,95.984787 
	C62.016716,95.984787 62.001221,95.999077 62.048744,96.334641 
	C63.061863,97.781548 64.027458,98.892883 64.993057,100.004219 
	C65.332619,101.103401 65.672173,102.202583 65.990189,103.655106 
	C65.968643,104.008453 65.900322,104.020630 65.559982,104.008698 
	C63.823006,103.319038 62.426365,102.641312 61.029720,101.963593 
z"/>
<path fill="#DADADA" opacity="1.000000" stroke="none" 
	d="
M32.167610,121.309250 
	C32.117264,120.904114 32.247162,120.686012 32.357067,120.695663 
	C39.039520,121.282341 45.720337,121.887695 52.702377,122.755219 
	C42.661182,127.929390 40.554699,128.175095 32.167610,121.309250 
z"/>
<path fill="#DADADA" opacity="1.000000" stroke="none" 
	d="
M68.808311,117.315048 
	C69.005760,116.830971 69.010582,116.659737 69.030754,116.231697 
	C69.989182,116.647240 71.814880,117.541611 71.711945,117.950836 
	C71.386513,119.244522 70.516556,121.189453 69.541100,121.397064 
	C64.941200,122.376015 60.235931,122.859818 55.283340,123.268936 
	C59.537521,121.221069 64.076599,119.424484 68.808311,117.315048 
z"/>
<path fill="#DFDFDF" opacity="1.000000" stroke="none" 
	d="
M33.031189,98.022598 
	C32.446785,98.836708 31.862381,99.650810 30.881386,100.845840 
	C29.984604,101.482635 29.484413,101.738518 28.779024,101.868851 
	C28.319319,101.537331 28.123148,101.285843 27.985313,100.988838 
	C29.749685,98.066879 31.584549,95.184258 33.246964,92.205399 
	C34.011311,90.835762 34.437572,89.277443 35.024021,87.427185 
	C35.030899,87.049675 35.510586,87.015175 35.750687,87.003975 
	C37.055466,86.989830 38.120140,86.986893 39.431633,87.282494 
	C37.462696,91.061554 35.246944,94.542076 33.031189,98.022598 
z"/>
<path fill="#EEEEEE" opacity="1.000000" stroke="none" 
	d="
M33.370064,97.965843 
	C35.246944,94.542076 37.462696,91.061554 39.830704,87.282028 
	C40.778294,86.675362 41.573635,86.367699 42.689522,86.040649 
	C39.909698,89.983864 36.809322,93.946472 33.370064,97.965843 
z"/>
<path fill="#DFDFDF" opacity="1.000000" stroke="none" 
	d="
M62.015377,95.596115 
	C60.673141,93.914474 59.329567,91.844170 58.236725,89.392059 
	C58.657635,89.007607 58.827816,89.004951 58.997993,89.002304 
	C60.003342,91.070679 61.008690,93.139061 62.015377,95.596115 
z"/>
<path fill="#DFDFDF" opacity="1.000000" stroke="none" 
	d="
M64.995392,99.620789 
	C64.027458,98.892883 63.061863,97.781548 62.058216,96.326385 
	C63.012684,97.067490 64.005203,98.152428 64.995392,99.620789 
z"/>
<path fill="#D2D2D2" opacity="1.000000" stroke="none" 
	d="
M69.344505,110.986176 
	C68.986382,110.557426 68.985725,110.113564 68.992340,109.085785 
	C69.000427,108.334663 69.001251,108.167458 69.002075,108.000244 
	C69.903130,108.465073 70.804192,108.929893 71.705246,109.394722 
	C71.037491,109.920166 70.369728,110.445610 69.344505,110.986176 
z"/>
<path fill="#DFDFDF" opacity="1.000000" stroke="none" 
	d="
M69.000763,107.669235 
	C69.001251,108.167458 69.000427,108.334663 68.996017,108.752914 
	C68.246826,109.002449 67.501228,109.000938 66.374283,108.660446 
	C65.974678,107.874352 65.956413,107.427231 65.951462,106.736755 
	C65.964775,106.493385 65.983215,106.006271 66.358398,106.004471 
	C67.483452,106.005936 68.233307,106.009201 68.983170,106.012466 
	C68.988602,106.454384 68.994026,106.896301 69.000763,107.669235 
z"/>
<path fill="#D9D9D9" opacity="1.000000" stroke="none" 
	d="
M58.826775,88.706558 
	C58.827816,89.004951 58.657635,89.007607 58.232010,89.018784 
	C57.031685,88.574020 56.086807,88.120743 55.066742,87.336876 
	C56.212891,87.474464 57.434223,87.942635 58.826775,88.706558 
z"/>
<path fill="#D9D9D9" opacity="1.000000" stroke="none" 
	d="
M68.915451,105.680489 
	C68.233307,106.009201 67.483452,106.005936 66.349846,105.673111 
	C65.944176,104.902573 65.922249,104.461601 65.900322,104.020630 
	C65.900322,104.020630 65.968643,104.008453 66.003563,104.004227 
	C66.974899,104.449501 67.911324,104.899010 68.915451,105.680489 
z"/>
<path fill="#DFBF87" opacity="1.000000" stroke="none" 
	d="
M36.004597,21.993799 
	C37.243473,23.787325 38.482349,25.580851 39.862465,28.077698 
	C41.830036,34.056179 43.591022,39.356007 45.561886,44.576603 
	C45.820580,45.261860 47.154041,45.541378 47.989716,46.008820 
	C47.990952,46.451252 47.992191,46.893688 47.757233,47.908859 
	C48.940540,52.245159 50.370255,56.004906 51.777206,59.773155 
	C53.984024,65.683670 53.186241,66.865898 47.041023,67.017609 
	C45.395943,67.058235 43.733307,67.188591 42.118057,67.489128 
	C36.889816,68.461899 36.302773,67.796928 35.954281,62.308128 
	C35.191483,50.294128 34.082653,38.301407 33.404991,26.283648 
	C33.327362,24.906939 35.093403,23.426268 36.004597,21.993799 
z"/>
<path fill="#D8B983" opacity="1.000000" stroke="none" 
	d="
M35.947716,21.645084 
	C35.093403,23.426268 33.327362,24.906939 33.404991,26.283648 
	C34.082653,38.301407 35.191483,50.294128 35.954281,62.308128 
	C36.302773,67.796928 36.889816,68.461899 42.118057,67.489128 
	C43.733307,67.188591 45.395943,67.058235 47.041023,67.017609 
	C53.186241,66.865898 53.984024,65.683670 51.777206,59.773155 
	C50.370255,56.004906 48.940540,52.245159 47.758114,48.240685 
	C49.662197,51.330631 51.800194,54.516193 52.883301,58.027180 
	C54.420773,63.011044 55.181744,68.234451 56.133453,73.680077 
	C48.982574,70.960724 42.330292,70.553833 36.242195,76.796555 
	C34.951546,75.257118 33.146721,73.562630 33.142639,71.863815 
	C33.122345,63.418514 33.647064,54.973473 33.813648,46.525063 
	C33.855442,44.405296 33.310806,42.269291 32.988441,40.147930 
	C32.165306,34.731129 31.173151,29.333963 30.577290,23.892950 
	C30.429695,22.545242 31.532686,21.060583 32.060822,19.638878 
	C33.337490,20.191374 34.614162,20.743872 35.947716,21.645084 
z"/>
<path fill="#D8B983" opacity="1.000000" stroke="none" 
	d="
M47.979992,45.614983 
	C47.154041,45.541378 45.820580,45.261860 45.561886,44.576603 
	C43.591022,39.356007 41.830036,34.056179 40.003304,28.389233 
	C41.232681,29.182428 43.029041,30.148684 43.586658,31.593143 
	C45.302387,36.037556 46.544258,40.664894 47.979992,45.614983 
z"/>
<path fill="#B6B5B5" opacity="1.000000" stroke="none" 
	d="
M46.918671,77.622719 
	C42.921883,79.613869 38.823215,81.256950 34.363358,82.600510 
	C33.984158,81.825569 33.966145,81.350159 33.948135,80.874748 
	C34.141537,80.369095 34.334942,79.863434 34.743740,79.187531 
	C36.977966,78.344315 38.954762,77.399162 41.028072,77.078987 
	C42.902863,76.789467 44.883076,77.182564 46.918671,77.622719 
z"/>
<path fill="#AEAAA5" opacity="1.000000" stroke="none" 
	d="
M33.644508,80.970886 
	C33.966145,81.350159 33.984158,81.825569 34.009407,82.656845 
	C33.574780,83.023712 33.132912,83.034706 32.360168,83.053757 
	C32.466484,82.396873 32.903683,81.731949 33.644508,80.970886 
z"/>
<path fill="#B6B5B5" opacity="1.000000" stroke="none" 
	d="
M30.752050,86.013145 
	C30.855673,86.358109 30.604723,86.491714 30.131475,86.267609 
	C30.178635,86.118187 30.341400,86.082146 30.752050,86.013145 
z"/>
<path fill="#B6B5B5" opacity="1.000000" stroke="none" 
	d="
M55.938721,79.650993 
	C55.060558,79.545609 54.103016,79.109756 53.068340,78.342270 
	C53.947254,78.447266 54.903301,78.883896 55.938721,79.650993 
z"/>
<path fill="#B6B5B5" opacity="1.000000" stroke="none" 
	d="
M58.948067,81.683472 
	C58.375946,81.540047 57.743279,81.087196 57.048187,80.326340 
	C57.619682,80.470245 58.253597,80.922150 58.948067,81.683472 
z"/>
<path fill="#EEEEEE" opacity="1.000000" stroke="none" 
	d="
M65.938141,106.980118 
	C65.956413,107.427231 65.974678,107.874352 66.001106,108.656837 
	C66.365761,112.538193 64.870537,114.130089 61.204414,114.080551 
	C51.210030,113.945480 41.207024,114.147972 31.225019,113.761963 
	C29.922594,113.711601 28.723280,110.994904 27.212828,109.244049 
	C26.969948,107.596863 26.990446,106.218819 27.319843,104.366501 
	C28.080566,103.259628 28.532396,102.627014 28.984224,101.994400 
	C29.484413,101.738518 29.984604,101.482635 30.741901,101.112976 
	C31.000338,102.066063 31.001665,103.132935 30.764996,104.838837 
	C29.924219,109.142570 31.562122,110.583748 35.167957,110.456703 
	C41.199211,110.244179 47.315472,109.558540 53.246876,110.286568 
	C58.228512,110.898018 62.591873,111.586342 65.938141,106.980118 
z"/>
<path fill="#DADADA" opacity="1.000000" stroke="none" 
	d="
M25.582485,109.990746 
	C25.774307,110.518295 25.608509,111.068253 25.219242,111.808212 
	C24.499916,112.255013 24.004061,112.511803 23.253771,112.884140 
	C23.741182,112.004181 24.483025,111.008667 25.582485,109.990746 
z"/>
<path fill="#DADADA" opacity="1.000000" stroke="none" 
	d="
M28.779026,101.868851 
	C28.532396,102.627014 28.080566,103.259628 27.320269,103.952316 
	C27.143744,103.041679 27.275686,102.070976 27.696472,101.044556 
	C28.123148,101.285843 28.319319,101.537331 28.779026,101.868851 
z"/>
<path fill="#D8BF91" opacity="1.000000" stroke="none" 
	d="
M38.068451,377.874115 
	C37.940731,378.025299 37.488663,378.023041 37.263046,378.023682 
	C37.031326,377.851166 37.025223,377.677979 37.026119,377.244720 
	C37.420799,377.230774 37.808483,377.476868 38.068451,377.874115 
z"/>
<path fill="#F0F0F0" opacity="1.000000" stroke="none" 
	d="
M63.995693,188.997559 
	C64.465370,188.684372 64.935043,188.371170 65.693092,188.017670 
	C65.904182,196.048477 66.410088,204.178833 65.597496,212.175201 
	C64.646980,221.528870 62.596859,230.774719 60.924316,240.049408 
	C60.135090,244.425827 58.765881,249.482590 54.056717,250.118240 
	C48.713840,250.839417 42.544147,250.627228 37.803574,248.470093 
	C35.362759,247.359436 35.047421,241.189423 34.122234,237.223770 
	C32.584824,230.633865 32.106205,223.692291 29.793514,217.409821 
	C25.055136,204.537903 27.585291,193.084488 34.646915,182.060501 
	C39.253040,174.869843 48.725075,171.927307 57.631653,175.011230 
	C58.014763,175.774139 58.004185,176.512115 57.596687,177.621124 
	C54.373070,177.527573 51.510654,176.516449 48.726196,176.698395 
	C39.474976,177.302902 29.248657,193.212128 30.289251,202.264343 
	C31.792490,215.341110 35.030304,228.245270 37.993881,241.115799 
	C39.419231,247.305954 42.127750,248.551697 49.767185,247.966644 
	C54.753845,247.584778 56.972836,244.571335 57.117561,239.704697 
	C57.150986,238.580688 57.812599,237.490143 58.027420,236.354370 
	C59.707512,227.471680 61.700256,218.628342 62.888447,209.678848 
	C63.794239,202.856339 63.664661,195.896378 63.995693,188.997559 
z"/>
<path fill="#F8F8F8" opacity="1.000000" stroke="none" 
	d="
M63.601501,188.996033 
	C63.664661,195.896378 63.794239,202.856339 62.888447,209.678848 
	C61.700256,218.628342 59.707512,227.471680 58.027420,236.354370 
	C57.812599,237.490143 57.150986,238.580688 57.117561,239.704697 
	C56.972836,244.571335 54.753845,247.584778 49.767185,247.966644 
	C42.127750,248.551697 39.419231,247.305954 37.993881,241.115799 
	C35.030304,228.245270 31.792490,215.341110 30.289251,202.264343 
	C29.248657,193.212128 39.474976,177.302902 48.726196,176.698395 
	C51.510654,176.516449 54.373070,177.527573 57.595463,177.990707 
	C58.007725,179.938049 57.869129,181.903534 58.076714,183.831741 
	C58.399651,186.831451 59.550797,189.212067 63.601501,188.996033 
z"/>
<path fill="#F4F4F4" opacity="1.000000" stroke="none" 
	d="
M65.951462,106.736755 
	C62.591873,111.586342 58.228512,110.898018 53.246876,110.286568 
	C47.315472,109.558540 41.199211,110.244179 35.167957,110.456703 
	C31.562122,110.583748 29.924219,109.142570 30.764545,105.238899 
	C34.295513,107.666992 37.725666,108.155922 42.074993,107.414871 
	C46.761189,106.616432 51.768551,107.251801 56.580326,107.773376 
	C61.045414,108.257370 62.083405,107.376106 61.072006,102.336800 
	C62.426365,102.641312 63.823006,103.319038 65.559982,104.008698 
	C65.922249,104.461601 65.944176,104.902573 65.974655,105.674911 
	C65.983215,106.006271 65.964775,106.493385 65.951462,106.736755 
z"/>
<path fill="#F2F2F2" opacity="1.000000" stroke="none" 
	d="
M51.051567,89.342674 
	C53.302837,91.434593 55.602940,93.872757 57.952503,96.654709 
	C55.701443,94.561974 53.400921,92.125450 51.051567,89.342674 
z"/>
</svg>