<svg version="1.1" id="Layer_1" xmlns="http://www.w3.org/2000/svg" xmlns:xlink="http://www.w3.org/1999/xlink" x="0px" y="0px"
	 width="100%" viewBox="0 0 91 405" enable-background="new 0 0 91 405" xml:space="preserve">
<path fill="#D7D7D7" opacity="1.000000" stroke="none" 
	d="
M76.862335,108.006912 
	C80.846474,117.629288 83.578613,127.642136 80.967583,137.908508 
	C80.092949,141.347504 76.220192,144.418549 73.074677,146.812790 
	C62.894382,154.561676 51.431755,155.116486 40.005096,150.473267 
	C33.333870,147.762405 25.988201,144.155136 24.444574,136.295273 
	C23.261944,130.273514 23.764519,123.632248 24.910151,117.527878 
	C25.932039,112.082840 28.862627,106.996017 31.386076,101.363525 
	C33.120892,99.816353 34.412170,98.647240 35.721741,97.498993 
	C39.875843,93.856628 43.299603,88.809334 49.760338,90.279633 
	C48.346214,91.342361 47.172752,92.170853 45.632797,93.004196 
	C43.174019,95.336227 41.081730,97.663399 38.640762,100.072594 
	C37.532768,102.109665 36.773449,104.064713 36.002552,106.342712 
	C35.978146,107.096313 35.965321,107.526955 35.653198,108.149849 
	C34.876003,109.880547 34.398106,111.418999 33.543068,112.982986 
	C28.262596,114.829330 30.599588,119.374283 29.541431,122.641815 
	C31.693483,123.096199 33.845535,123.550583 36.093819,124.357422 
	C47.076279,130.532501 58.022964,129.494049 69.365707,124.946083 
	C71.235703,124.272980 72.817192,123.790619 74.227455,123.002060 
	C76.678841,121.631348 76.860245,120.188911 73.987343,118.702591 
	C73.639717,117.942223 73.330063,117.471069 73.018143,116.624695 
	C73.011040,115.499046 73.006195,114.748604 72.946869,113.691574 
	C72.282242,112.922180 71.672096,112.459366 71.036972,111.622673 
	C71.009697,110.499176 71.007408,109.749550 71.225334,108.769516 
	C70.123535,99.628983 64.543678,94.033302 57.236797,89.739090 
	C61.346966,90.984108 65.212784,92.462250 69.038383,93.960068 
	C68.998169,93.979744 69.058998,93.913948 69.085251,94.284683 
	C71.232445,97.535919 70.125572,103.013702 75.832825,103.008453 
	C76.168144,103.783615 76.503464,104.558777 76.530273,105.678925 
	C75.678337,106.292526 75.134918,106.561127 74.591507,106.829727 
	C75.348450,107.222122 76.105392,107.614517 76.862335,108.006912 
M68.489807,142.062576 
	C69.262863,141.066803 70.035919,140.071030 71.411888,138.298645 
	C69.126129,137.906464 67.537735,137.171402 66.183205,137.476059 
	C56.894470,139.565277 47.597466,140.283508 38.165455,138.574432 
	C37.369545,138.430206 36.438412,139.032211 35.570103,139.287537 
	C35.843052,140.164185 35.889919,141.234909 36.439003,141.874496 
	C37.395092,142.988174 38.514824,144.168091 39.820183,144.742233 
	C49.556446,149.024521 59.051613,149.321426 68.489807,142.062576 
z"/>
<path fill="#DCDBDB" opacity="1.000000" stroke="none" 
	d="
M23.921707,211.006699 
	C21.980667,202.998489 23.215147,195.395889 27.456514,188.093567 
	C29.042505,188.171570 30.520857,188.709381 30.919296,188.269363 
	C34.787750,183.997040 38.462379,179.549789 42.221245,175.177353 
	C43.567951,173.610794 45.395542,172.078522 41.864609,170.957123 
	C44.662716,169.310669 47.460831,167.664230 50.658215,166.473251 
	C54.091957,167.978638 57.126427,169.028564 60.847427,170.316025 
	C60.391979,168.061935 60.200649,167.115005 60.009315,166.168076 
	C61.980930,166.865906 63.952545,167.563721 65.563301,168.645020 
	C64.631699,169.442245 64.060951,169.856003 63.490204,170.269760 
	C64.969742,171.352982 66.449280,172.436188 67.928818,173.519409 
	C68.288177,172.725616 68.647537,171.931808 69.006889,171.138031 
	C70.966125,172.522583 72.925362,173.907150 74.736938,175.867874 
	C73.373215,177.297623 72.157150,178.151215 70.637497,178.868668 
	C68.890778,178.149353 67.447662,177.566177 65.930916,176.644409 
	C60.271530,170.613129 54.115799,169.716446 49.661148,174.044418 
	C48.549625,175.056290 47.771400,176.018860 46.744591,176.984344 
	C46.496010,176.987259 45.998932,176.998169 45.640396,177.010925 
	C42.519207,179.680527 39.756554,182.337357 36.664642,185.062378 
	C35.558933,186.422012 34.782482,187.713440 34.004059,189.336243 
	C33.999161,190.109344 33.996231,190.551071 33.639511,191.077179 
	C32.521633,193.438995 31.757542,195.716446 30.943254,198.353577 
	C30.926525,200.808823 30.959993,202.904419 30.993073,205.375000 
	C30.995071,206.500000 30.997459,207.250000 31.033375,208.316818 
	C31.373644,209.422531 31.680386,210.211411 31.933258,211.370438 
	C30.859718,216.366013 32.769089,222.112045 35.964943,224.387207 
	C36.309769,226.173874 36.648205,227.589706 36.831291,229.353302 
	C36.454350,231.465179 36.232754,233.229279 36.007481,235.415222 
	C36.665554,237.894592 37.327309,239.952118 37.990227,242.425140 
	C37.996181,244.225693 38.000980,245.610748 38.061447,247.306427 
	C38.743679,248.079224 39.370243,248.541382 40.298096,249.169525 
	C42.999443,250.997101 43.872673,255.080338 48.227287,254.240723 
	C49.304710,254.650436 50.155239,254.821259 51.366615,254.992783 
	C52.818817,254.667908 53.910172,254.342331 55.401375,254.016022 
	C56.867477,254.013931 57.933735,254.012619 59.215096,254.239609 
	C60.619404,253.977600 61.808620,253.487289 63.131050,252.739380 
	C63.842949,251.987869 64.421623,251.493927 65.350235,250.946045 
	C66.798225,248.926407 67.896294,246.960754 68.995667,244.662567 
	C68.999527,243.886703 69.002068,243.443359 69.255692,242.749054 
	C70.006134,239.665405 70.505478,236.832733 71.056137,233.637787 
	C71.406059,231.850357 71.704651,230.425186 72.242142,228.773071 
	C72.652237,227.695862 72.823418,226.845551 72.995377,225.620850 
	C72.999077,224.497635 73.001999,223.748825 73.229324,222.813324 
	C73.633667,222.082474 73.813599,221.538284 73.994217,220.566086 
	C73.996712,218.425369 73.998505,216.712692 74.330887,214.790375 
	C77.188240,205.668869 77.731453,196.733276 74.667336,187.848831 
	C74.383293,187.025253 72.949615,186.598160 72.039604,185.569611 
	C72.044403,183.759125 72.059341,182.366028 72.408798,180.987350 
	C73.948975,181.469116 75.154633,181.936432 76.124901,182.312515 
	C76.399353,180.678467 76.618858,179.371582 76.838356,178.064697 
	C78.352386,181.083038 79.866417,184.101395 80.994400,187.490158 
	C79.681572,187.100143 78.754799,186.339722 77.005699,184.904587 
	C77.229736,188.929489 77.398712,191.522949 81.858017,190.045410 
	C81.709908,198.530136 81.696457,207.020325 81.351715,215.497055 
	C81.200027,219.226791 80.374313,222.929123 79.136551,226.853790 
	C77.226639,227.786285 76.034805,228.508896 74.842964,229.231522 
	C75.111855,229.645630 75.380753,230.059738 75.649643,230.473846 
	C76.724564,229.984909 77.799492,229.495987 78.874413,229.007065 
	C78.442711,231.505539 78.011009,234.004028 77.051933,236.536346 
	C76.033493,235.869003 75.542435,235.167831 75.051376,234.466644 
	C74.564186,234.856110 74.076996,235.245590 73.589806,235.635056 
	C74.684265,236.759079 75.778732,237.883087 76.873199,239.007095 
	C75.833534,243.253677 74.793877,247.500244 73.384842,251.467987 
	C73.220169,248.063416 73.424858,244.937683 73.629547,241.811935 
	C72.406990,242.338104 71.987061,243.006439 71.919373,243.708694 
	C71.270996,250.436050 68.137810,255.199448 61.530838,257.471161 
	C60.823067,257.714539 60.477127,259.010254 59.509945,259.855591 
	C55.719498,259.879272 52.382442,259.865143 49.025509,259.545990 
	C48.309963,258.869934 47.614300,258.498871 46.605194,258.123596 
	C45.874050,258.105194 45.456345,258.090973 44.860016,257.763916 
	C42.490089,256.619202 40.298790,255.787338 37.870346,254.804321 
	C37.393791,254.158020 37.154377,253.662857 36.930889,252.757019 
	C35.969028,249.963638 37.346382,246.024765 32.767601,246.021439 
	C32.333103,244.242355 31.898607,242.463257 31.824713,240.300354 
	C32.757298,238.595901 34.068985,236.988022 33.698330,236.033386 
	C33.308586,235.029633 31.308884,234.650986 30.012691,233.999176 
	C29.870338,233.378616 29.727983,232.758041 30.172609,231.879776 
	C31.049900,231.264343 31.340210,230.906616 31.630522,230.548889 
	C31.475132,230.431152 31.319744,230.313416 31.164354,230.195679 
	C30.842812,230.675064 30.521269,231.154465 30.199726,231.633850 
	C28.982483,228.656906 27.765240,225.679977 26.989258,222.355865 
	C28.194508,221.401917 28.958500,220.795135 29.722492,220.188354 
	C28.557163,220.102951 27.391834,220.017548 26.226505,219.932144 
	C25.650684,218.200607 25.074862,216.469055 24.981552,214.364731 
	C29.889732,212.864670 27.401871,210.063828 27.733772,208.112183 
	C26.306440,209.195953 25.114065,210.101318 23.921707,211.006699 
M77.056641,218.871490 
	C77.638451,219.068466 78.220253,219.265457 78.802071,219.462448 
	C78.717751,217.554382 78.633430,215.646301 78.549110,213.738235 
	C78.128418,213.766342 77.707718,213.794434 77.287025,213.822540 
	C77.196281,215.258240 77.105545,216.693924 77.056641,218.871490 
M79.947922,207.202728 
	C79.793404,206.807877 79.638893,206.413025 79.484375,206.018173 
	C79.342331,206.268417 79.025368,206.594406 79.094185,206.753357 
	C79.243263,207.097702 79.589790,207.356567 79.947922,207.202728 
M27.255136,195.525665 
	C27.060701,195.804367 26.866266,196.083069 26.671833,196.361771 
	C26.960571,196.182938 27.249310,196.004089 27.255136,195.525665 
M47.835415,169.488251 
	C47.899117,169.820465 47.962818,170.152679 48.026512,170.484894 
	C48.101608,170.154877 48.176704,169.824860 47.835415,169.488251 
M79.529839,193.908783 
	C79.462685,194.266434 79.395531,194.624084 79.328384,194.981735 
	C79.487724,194.708359 79.647072,194.434982 79.529839,193.908783 
z"/>
<path fill="#CEB280" opacity="1.000000" stroke="none" 
	d="
M60.871502,53.986420 
	C63.497036,62.418282 66.122574,70.850143 68.623489,79.901604 
	C69.066689,81.984886 69.634514,83.448570 70.202332,84.912254 
	C70.467300,85.400024 70.732277,85.887787 70.586327,86.674210 
	C67.773911,84.347099 65.372421,81.721321 62.979980,78.669212 
	C62.747047,76.623116 62.741375,74.923378 62.224590,73.396637 
	C58.961185,63.755527 55.793854,54.072224 52.141258,44.577324 
	C50.695461,40.818977 48.087681,37.507629 45.962147,33.661781 
	C44.614571,31.881273 43.313812,30.431742 41.997002,28.599716 
	C40.784092,27.199919 39.587234,26.182611 38.390377,25.165306 
	C37.597736,26.440260 36.027466,27.792910 36.145756,28.976851 
	C36.685944,34.383450 37.666679,39.748249 38.560444,45.116192 
	C38.910503,47.218639 39.858028,49.296120 39.826950,51.374405 
	C39.703392,59.636150 39.159542,67.892792 39.104939,76.153526 
	C39.091881,78.128448 40.365086,80.111877 40.983761,82.437347 
	C39.549747,84.927040 38.178673,87.070778 36.807598,89.214523 
	C36.546707,88.982353 36.285816,88.750183 36.024925,88.518013 
	C36.024925,80.064751 36.024925,71.611481 36.024925,63.158218 
	C36.008495,61.094986 35.992062,59.031750 36.174133,56.245277 
	C36.117790,50.697567 35.897957,45.870514 35.542938,41.053421 
	C35.513920,40.659679 34.563049,40.333881 34.040524,39.976513 
	C34.040524,39.976513 33.989834,39.961525 33.922394,39.698780 
	C33.584824,38.989723 33.314690,38.543411 33.044556,38.097099 
	C32.448368,34.959015 31.481812,31.835592 31.356833,28.678852 
	C31.223324,25.306648 31.297329,21.706419 32.350155,18.564020 
	C33.599236,14.835866 39.933678,14.944918 42.973515,18.891977 
	C46.104309,22.957151 48.602859,27.509253 51.676651,32.452190 
	C54.070091,39.129875 56.092670,45.230480 58.326736,51.252628 
	C58.726513,52.330265 60.000931,53.083435 60.871502,53.986420 
z"/>
<path fill="#DEC594" opacity="1.000000" stroke="none" 
	d="
M49.045387,259.851013 
	C52.382442,259.865143 55.719498,259.879272 59.882030,259.898041 
	C63.318336,258.557739 65.883171,257.110077 68.559708,255.911957 
	C69.865425,255.327469 71.379402,255.208191 72.799118,254.878326 
	C72.132965,259.461121 71.466805,264.043915 70.102295,268.831848 
	C68.924980,269.023529 68.446022,269.010132 67.716011,268.711700 
	C66.340553,266.000397 68.232201,261.681610 62.617920,262.177124 
	C56.734100,262.696442 50.757462,262.340271 44.830940,262.115173 
	C42.374218,262.021912 40.962864,262.478699 40.989983,265.223083 
	C41.077179,274.047882 41.234604,282.874390 41.146061,291.698059 
	C40.966427,309.599335 40.845158,327.505463 40.288227,345.396790 
	C40.036255,353.491394 38.694138,361.547577 38.102448,369.639893 
	C37.985069,371.245239 39.035080,372.935974 39.546757,374.587280 
	C41.027702,374.053223 42.508652,373.519135 43.995514,373.373047 
	C43.002007,376.183319 42.002590,378.605621 40.591003,381.021637 
	C37.269844,380.810974 33.875118,381.436188 34.256485,376.609009 
	C34.930176,368.081848 35.432598,359.541138 36.349396,350.919006 
	C36.861427,348.531647 37.041225,346.232086 37.198273,343.930969 
	C37.804546,335.047638 38.905251,326.163788 38.904076,317.280212 
	C38.901367,296.835449 38.361473,276.390778 38.342842,256.093994 
	C40.776951,256.853577 42.907795,257.465179 45.038639,258.076782 
	C45.456345,258.090973 45.874050,258.105194 46.689720,258.417725 
	C47.740250,259.094360 48.392822,259.472687 49.045387,259.851013 
z"/>
<path fill="#C6B087" opacity="1.000000" stroke="none" 
	d="
M41.003166,381.027924 
	C42.002590,378.605621 43.002007,376.183319 44.065163,373.006836 
	C44.814056,369.870026 45.499214,367.487427 46.507088,364.987671 
	C49.194733,358.751678 52.339417,352.809875 53.776443,346.480347 
	C57.870770,328.446442 61.356472,310.271393 64.861893,292.109497 
	C65.491608,288.846893 65.073936,285.382172 65.141006,281.694489 
	C65.162155,280.957001 65.182159,280.535767 65.456383,280.041382 
	C65.840248,279.313202 65.969894,278.658173 66.104126,277.684814 
	C66.127235,276.942444 66.145744,276.518341 66.493866,275.973358 
	C67.187569,274.541626 67.551659,273.230804 67.922050,271.554626 
	C67.941254,270.458405 67.954155,269.727539 67.967064,268.996704 
	C68.446022,269.010132 68.924980,269.023529 69.763130,269.047058 
	C68.330215,284.921204 67.085686,300.872772 64.568092,316.620819 
	C62.647106,328.636932 59.423527,340.480896 56.180473,352.236176 
	C54.220284,359.341370 51.360783,366.236389 48.435863,373.023499 
	C46.651375,377.164276 43.975384,380.920898 41.360596,384.591583 
	C41.015301,383.231384 41.009232,382.129639 41.003166,381.027924 
z"/>
<path fill="#D4BA8B" opacity="1.000000" stroke="none" 
	d="
M38.039574,255.946045 
	C38.361473,276.390778 38.901367,296.835449 38.904076,317.280212 
	C38.905251,326.163788 37.804546,335.047638 37.198273,343.930969 
	C37.041225,346.232086 36.861427,348.531647 36.100571,350.666931 
	C34.679146,348.695160 33.849224,346.888397 33.019299,345.081665 
	C33.493835,339.332306 33.968376,333.582916 34.897686,327.178589 
	C35.285923,318.361145 35.219391,310.198639 35.092045,301.568787 
	C34.835960,294.020355 34.640694,286.939270 34.445423,279.858154 
	C34.185486,274.289429 33.925545,268.720734 33.706329,262.331573 
	C33.808102,260.064240 33.869144,258.617340 33.974617,256.755737 
	C34.015106,255.229797 34.011166,254.118576 34.372238,253.007599 
	C35.463158,253.061111 36.189060,253.114410 36.914963,253.167709 
	C37.154377,253.662857 37.393791,254.158020 37.843323,255.051544 
	C38.053440,255.449905 38.039574,255.946045 38.039574,255.946045 
z"/>
<path fill="#AAA397" opacity="1.000000" stroke="none" 
	d="
M62.970928,79.095551 
	C65.372421,81.721321 67.773911,84.347099 70.524582,86.974411 
	C70.925957,87.398766 70.978165,87.821571 71.007927,88.960007 
	C70.343323,91.088402 69.701164,92.501175 69.058998,93.913948 
	C69.058998,93.913948 68.998169,93.979744 69.022217,93.599434 
	C66.327805,83.338089 48.000946,80.893745 41.481266,87.813637 
	C39.358627,90.066559 36.224133,91.366150 33.552433,93.101776 
	C33.761101,84.561813 33.922348,76.020142 34.228985,67.483696 
	C34.275581,66.186478 34.996834,64.913490 35.715481,63.393757 
	C36.024925,71.611481 36.024925,80.064751 36.024925,88.518013 
	C36.285816,88.750183 36.546707,88.982353 36.807598,89.214523 
	C38.178673,87.070778 39.549747,84.927040 41.311928,82.336601 
	C48.039761,75.230598 55.361691,76.069717 62.970928,79.095551 
z"/>
<path fill="#CFCECE" opacity="1.000000" stroke="none" 
	d="
M33.394733,93.449768 
	C36.224133,91.366150 39.358627,90.066559 41.481266,87.813637 
	C48.000946,80.893745 66.327805,83.338089 69.062424,93.579758 
	C65.212784,92.462250 61.346966,90.984108 56.895287,89.745895 
	C55.853790,90.009613 55.398155,90.033394 54.530807,90.060181 
	C52.746391,90.057251 51.373695,90.051331 50.000996,90.045403 
	C43.299603,88.809334 39.875843,93.856628 35.721741,97.498993 
	C34.412170,98.647240 33.120892,99.816353 31.468666,100.990845 
	C31.823072,98.603096 32.530052,96.200424 33.394733,93.449768 
z"/>
<path fill="#C4AD83" opacity="1.000000" stroke="none" 
	d="
M32.684994,345.326019 
	C33.849224,346.888397 34.679146,348.695160 35.757889,350.753998 
	C35.432598,359.541138 34.930176,368.081848 34.256485,376.609009 
	C33.875118,381.436188 37.269844,380.810974 40.591000,381.021637 
	C41.009232,382.129639 41.015301,383.231384 41.037376,384.746582 
	C36.740551,390.166016 35.428871,390.398041 32.090370,386.159210 
	C31.832518,385.320374 31.654799,385.110596 31.392225,384.972687 
	C31.368092,384.525116 31.343960,384.077515 31.442272,383.035950 
	C31.382814,376.297668 31.200909,370.153320 31.019005,364.009003 
	C31.462898,357.862793 31.906792,351.716583 32.684994,345.326019 
z"/>
<path fill="#D2D2D1" opacity="1.000000" stroke="none" 
	d="
M41.542995,171.084671 
	C45.395542,172.078522 43.567951,173.610794 42.221245,175.177353 
	C38.462379,179.549789 34.787750,183.997040 30.919296,188.269363 
	C30.520857,188.709381 29.042505,188.171570 27.764942,187.914993 
	C30.574844,181.004578 34.955917,175.324280 41.542995,171.084671 
z"/>
<path fill="#D2D2D1" opacity="1.000000" stroke="none" 
	d="
M72.873718,254.533417 
	C71.379402,255.208191 69.865425,255.327469 68.559708,255.911957 
	C65.883171,257.110077 63.318336,258.557739 60.335423,259.860229 
	C60.477127,259.010254 60.823067,257.714539 61.530838,257.471161 
	C68.137810,255.199448 71.270996,250.436050 71.919373,243.708694 
	C71.987061,243.006439 72.406990,242.338104 73.629547,241.811935 
	C73.424858,244.937683 73.220169,248.063416 73.026207,251.627563 
	C73.007401,252.773483 72.977867,253.480988 72.873718,254.533417 
z"/>
<path fill="#B9AC97" opacity="1.000000" stroke="none" 
	d="
M60.950829,53.591843 
	C60.000931,53.083435 58.726513,52.330265 58.326736,51.252628 
	C56.092670,45.230480 54.070091,39.129875 51.971725,32.667732 
	C54.988853,39.252014 58.009506,46.224636 60.950829,53.591843 
z"/>
<path fill="#E2D6BD" opacity="1.000000" stroke="none" 
	d="
M35.152863,302.036133 
	C35.219391,310.198639 35.285923,318.361145 35.059471,326.733490 
	C34.661930,319.337616 34.557369,311.731873 34.647133,303.530090 
	C34.947834,302.635620 35.051636,302.336304 35.152863,302.036133 
z"/>
<path fill="#CFCECE" opacity="1.000000" stroke="none" 
	d="
M69.085251,94.284683 
	C69.701164,92.501175 70.343323,91.088402 71.011566,89.280891 
	C72.685677,93.336189 74.333702,97.786224 75.907272,102.622360 
	C70.125572,103.013702 71.232445,97.535919 69.085251,94.284683 
z"/>
<path fill="#BAA78B" opacity="1.000000" stroke="none" 
	d="
M33.985714,40.334358 
	C34.563049,40.333881 35.513920,40.659679 35.542938,41.053421 
	C35.897957,45.870514 36.117790,50.697567 36.094814,55.811867 
	C35.288853,54.693859 34.416698,53.313950 34.299736,51.872749 
	C33.998466,48.160374 34.031464,44.420868 33.985714,40.334358 
z"/>
<path fill="#9B917F" opacity="1.000000" stroke="none" 
	d="
M30.655251,364.238525 
	C31.200909,370.153320 31.382814,376.297668 31.394009,382.702820 
	C30.912701,376.798431 30.602100,370.633240 30.655251,364.238525 
z"/>
<path fill="#D2D2D1" opacity="1.000000" stroke="none" 
	d="
M59.564056,166.088837 
	C60.200649,167.115005 60.391979,168.061935 60.847427,170.316025 
	C57.126427,169.028564 54.091957,167.978638 51.024345,166.543442 
	C53.700401,166.108643 56.409595,166.059128 59.564056,166.088837 
z"/>
<path fill="#D2D2D1" opacity="1.000000" stroke="none" 
	d="
M30.055752,234.398834 
	C31.308884,234.650986 33.308586,235.029633 33.698330,236.033386 
	C34.068985,236.988022 32.757298,238.595901 31.824429,239.924866 
	C31.008633,238.221619 30.553722,236.510056 30.055752,234.398834 
z"/>
<path fill="#D2D2D1" opacity="1.000000" stroke="none" 
	d="
M70.941093,179.004807 
	C72.157150,178.151215 73.373215,177.297623 74.803894,176.203827 
	C75.549118,176.492691 76.079735,177.021744 76.724350,177.807739 
	C76.618858,179.371582 76.399353,180.678467 76.124901,182.312515 
	C75.154633,181.936432 73.948975,181.469116 72.174011,180.808258 
	C71.383507,180.078079 71.162300,179.541443 70.941093,179.004807 
z"/>
<path fill="#726B60" opacity="1.000000" stroke="none" 
	d="
M35.092045,301.568787 
	C35.051636,302.336304 34.947834,302.635620 34.650871,303.075745 
	C34.351151,295.735107 34.242016,288.252808 34.289154,280.314331 
	C34.640694,286.939270 34.835960,294.020355 35.092045,301.568787 
z"/>
<path fill="#D2D2D1" opacity="1.000000" stroke="none" 
	d="
M36.930885,252.757019 
	C36.189060,253.114410 35.463158,253.061111 34.350990,252.987701 
	C33.964729,252.967575 33.922108,252.927933 33.892971,252.620605 
	C33.495293,251.843658 33.126751,251.374039 32.758217,250.904419 
	C32.662621,249.536057 32.567024,248.167725 32.619514,246.410400 
	C37.346382,246.024765 35.969028,249.963638 36.930885,252.757019 
z"/>
<path fill="#D2D2D1" opacity="1.000000" stroke="none" 
	d="
M23.993574,211.396393 
	C25.114065,210.101318 26.306440,209.195953 27.733772,208.112183 
	C27.401871,210.063828 29.889732,212.864670 25.106932,214.017853 
	C24.521688,213.291229 24.293573,212.538666 23.993574,211.396393 
z"/>
<path fill="#D2D2D1" opacity="1.000000" stroke="none" 
	d="
M68.697617,171.008774 
	C68.647537,171.931808 68.288177,172.725616 67.928818,173.519409 
	C66.449280,172.436188 64.969742,171.352982 63.490204,170.269760 
	C64.060951,169.856003 64.631699,169.442245 65.529778,169.010742 
	C66.700859,169.621826 67.544594,170.250671 68.697617,171.008774 
z"/>
<path fill="#D2D2D1" opacity="1.000000" stroke="none" 
	d="
M81.759293,189.784058 
	C77.398712,191.522949 77.229736,188.929489 77.005699,184.904587 
	C78.754799,186.339722 79.681572,187.100143 80.953400,187.888672 
	C81.419151,188.452087 81.539856,188.987396 81.759293,189.784058 
z"/>
<path fill="#D2D2D1" opacity="1.000000" stroke="none" 
	d="
M76.942245,238.677155 
	C75.778732,237.883087 74.684265,236.759079 73.589806,235.635056 
	C74.076996,235.245590 74.564186,234.856110 75.051376,234.466644 
	C75.542435,235.167831 76.033493,235.869003 76.761627,236.784790 
	C77.002892,237.448669 77.007095,237.897949 76.942245,238.677155 
z"/>
<path fill="#D2D2D1" opacity="1.000000" stroke="none" 
	d="
M78.950317,228.687958 
	C77.799492,229.495987 76.724564,229.984909 75.649643,230.473846 
	C75.380753,230.059738 75.111855,229.645630 74.842964,229.231522 
	C76.034805,228.508896 77.226639,227.786285 78.788879,227.065002 
	C79.114922,227.500504 79.070564,227.934677 78.950317,228.687958 
z"/>
<path fill="#D2D2D1" opacity="1.000000" stroke="none" 
	d="
M26.322899,220.286560 
	C27.391834,220.017548 28.557163,220.102951 29.722492,220.188354 
	C28.958500,220.795135 28.194508,221.401917 27.111696,222.026306 
	C26.668348,221.576263 26.543821,221.108612 26.322899,220.286560 
z"/>
<path fill="#D2D2D1" opacity="1.000000" stroke="none" 
	d="
M33.985977,252.987473 
	C34.011166,254.118576 34.015106,255.229797 33.731968,256.709259 
	C33.444885,257.077515 32.950699,257.049408 32.950699,257.049408 
	C32.799587,255.914154 32.648472,254.778885 32.836605,253.298782 
	C33.175854,252.953934 33.549557,252.957504 33.549557,252.957504 
	C33.549557,252.957504 33.922108,252.927933 33.922108,252.927933 
	C33.922108,252.927933 33.964729,252.967575 33.985977,252.987473 
z"/>
<path fill="#AAA397" opacity="1.000000" stroke="none" 
	d="
M70.151627,84.538971 
	C69.634514,83.448570 69.066689,81.984886 68.700386,80.277634 
	C69.301575,81.411278 69.701248,82.788475 70.151627,84.538971 
z"/>
<path fill="#CFCECE" opacity="1.000000" stroke="none" 
	d="
M76.935699,107.673691 
	C76.105392,107.614517 75.348450,107.222122 74.591507,106.829727 
	C75.134918,106.561127 75.678337,106.292526 76.539001,106.008377 
	C76.907181,106.442039 76.958115,106.891251 76.935699,107.673691 
z"/>
<path fill="#726B60" opacity="1.000000" stroke="none" 
	d="
M32.964897,257.429443 
	C32.950699,257.049408 33.444885,257.077515 33.687534,257.123962 
	C33.869144,258.617340 33.808102,260.064240 33.544914,261.899353 
	C33.221542,260.794891 33.100319,259.302185 32.964897,257.429443 
z"/>
<path fill="#DCDBDB" opacity="1.000000" stroke="none" 
	d="
M33.892971,252.620605 
	C33.922108,252.927933 33.549557,252.957504 33.549557,252.957504 
	C33.549557,252.957504 33.175854,252.953934 32.988945,252.969116 
	C32.702782,252.455856 32.603523,251.927399 32.631237,251.151672 
	C33.126751,251.374039 33.495293,251.843658 33.892971,252.620605 
z"/>
<path fill="#D2D2D1" opacity="1.000000" stroke="none" 
	d="
M30.235268,231.617706 
	C30.521269,231.154465 30.842812,230.675064 31.164354,230.195679 
	C31.319744,230.313416 31.475132,230.431152 31.630522,230.548889 
	C31.340210,230.906616 31.049900,231.264343 30.438297,231.665619 
	C30.117006,231.709183 30.270811,231.601562 30.235268,231.617706 
z"/>
<path fill="#BAA78B" opacity="1.000000" stroke="none" 
	d="
M32.914032,38.255333 
	C33.314690,38.543411 33.584824,38.989723 33.942886,39.682091 
	C33.615047,39.423290 33.199276,38.918430 32.914032,38.255333 
z"/>
<path fill="#9B917F" opacity="1.000000" stroke="none" 
	d="
M31.299900,385.211609 
	C31.654799,385.110596 31.832518,385.320374 31.965204,385.808899 
	C31.739208,385.827332 31.473391,385.638916 31.299900,385.211609 
z"/>
<path fill="#F9F9F9" opacity="1.000000" stroke="none" 
	d="
M49.760338,90.279633 
	C51.373695,90.051331 52.746391,90.057251 54.612171,90.383759 
	C59.738071,96.801743 64.370888,102.899139 69.001358,109.372162 
	C68.997093,110.498566 68.995186,111.249352 68.618469,112.054703 
	C65.827728,112.007790 63.411118,111.920044 60.996025,111.801414 
	C57.880432,111.648361 54.578083,110.729614 51.691338,111.461914 
	C46.141983,112.869644 41.005524,113.105164 36.017662,109.647980 
	C35.993343,108.859146 35.972919,108.408371 35.952496,107.957603 
	C35.965321,107.526955 35.978146,107.096313 36.297791,106.208267 
	C37.403053,104.833916 38.201504,103.916954 39.332607,102.932281 
	C41.776608,99.576164 43.887951,96.287758 45.999290,92.999344 
	C47.172752,92.170853 48.346214,91.342361 49.760338,90.279633 
z"/>
<path fill="#F5F5F5" opacity="1.000000" stroke="none" 
	d="
M68.228409,142.316406 
	C59.051613,149.321426 49.556446,149.024521 39.820183,144.742233 
	C38.514824,144.168091 37.395092,142.988174 36.439003,141.874496 
	C35.889919,141.234909 35.843052,140.164185 35.570099,139.287537 
	C36.438412,139.032211 37.369545,138.430206 38.165455,138.574432 
	C47.597466,140.283508 56.894470,139.565277 66.183205,137.476059 
	C67.537735,137.171402 69.126129,137.906464 71.411888,138.298645 
	C70.035919,140.071030 69.262863,141.066803 68.228409,142.316406 
z"/>
<path fill="#E0E0E0" opacity="1.000000" stroke="none" 
	d="
M35.997585,124.004959 
	C33.845535,123.550583 31.693483,123.096199 29.541431,122.641815 
	C30.599588,119.374283 28.262596,114.829330 33.565559,113.321457 
	C33.970112,114.085457 33.975037,114.536530 33.660686,115.053986 
	C30.753918,118.687897 31.595310,120.530846 36.034344,120.992523 
	C42.809818,121.697182 49.367393,124.299080 56.437359,122.394180 
	C62.188107,120.844727 68.154533,120.095764 74.025314,118.991806 
	C76.860245,120.188911 76.678841,121.631348 74.227455,123.002060 
	C72.817192,123.790619 71.235703,124.272980 69.108711,124.701416 
	C57.952892,126.561134 47.440731,127.348900 36.989700,124.015190 
	C36.688553,123.919128 36.329590,124.004303 35.997585,124.004959 
z"/>
<path fill="#EDEDED" opacity="1.000000" stroke="none" 
	d="
M33.979965,114.987610 
	C33.975037,114.536530 33.970112,114.085457 33.942696,113.295914 
	C34.398106,111.418999 34.876003,109.880547 35.653198,108.149849 
	C35.972919,108.408371 35.993343,108.859146 36.013222,110.059326 
	C37.072304,112.191261 38.133492,114.772331 39.191311,114.770958 
	C49.794525,114.757118 60.397182,114.318771 71.333549,114.000229 
	C72.111847,113.999687 72.556602,113.998932 73.001350,113.998169 
	C73.006195,114.748604 73.011040,115.499046 72.617096,116.685646 
	C60.367188,120.404213 48.395966,118.826714 36.464073,117.838432 
	C35.563507,117.763840 34.804680,115.977982 33.979965,114.987610 
z"/>
<path fill="#E6E6E6" opacity="1.000000" stroke="none" 
	d="
M33.660690,115.053986 
	C34.804680,115.977982 35.563507,117.763840 36.464073,117.838432 
	C48.395966,118.826714 60.367188,120.404213 72.619354,117.060867 
	C73.330063,117.471069 73.639717,117.942223 73.987343,118.702591 
	C68.154533,120.095764 62.188107,120.844727 56.437359,122.394180 
	C49.367393,124.299080 42.809818,121.697182 36.034344,120.992523 
	C31.595310,120.530846 30.753918,118.687897 33.660690,115.053986 
z"/>
<path fill="#E0E0E0" opacity="1.000000" stroke="none" 
	d="
M69.003708,108.996529 
	C64.370888,102.899139 59.738071,96.801743 55.023888,90.380760 
	C55.398155,90.033394 55.853790,90.009613 56.650936,89.979019 
	C64.543678,94.033302 70.123535,99.628983 70.891174,108.769287 
	C69.892433,108.998489 69.448067,108.997513 69.003708,108.996529 
z"/>
<path fill="#DADADA" opacity="1.000000" stroke="none" 
	d="
M36.093819,124.357422 
	C36.329590,124.004303 36.688553,123.919128 36.989700,124.015190 
	C47.440731,127.348900 57.952892,126.561134 68.743118,124.754318 
	C58.022964,129.494049 47.076279,130.532501 36.093819,124.357422 
z"/>
<path fill="#E8E8E8" opacity="1.000000" stroke="none" 
	d="
M45.632801,93.004196 
	C43.887951,96.287758 41.776608,99.576164 39.331642,102.556198 
	C38.995163,101.495415 38.992306,100.742989 38.989441,99.990570 
	C41.081730,97.663399 43.174019,95.336227 45.632801,93.004196 
z"/>
<path fill="#E0E0E0" opacity="1.000000" stroke="none" 
	d="
M38.640766,100.072594 
	C38.992306,100.742989 38.995163,101.495415 38.998985,102.623917 
	C38.201504,103.916954 37.403053,104.833916 36.309372,105.885315 
	C36.773449,104.064713 37.532768,102.109665 38.640766,100.072594 
z"/>
<path fill="#EDEDED" opacity="1.000000" stroke="none" 
	d="
M69.001358,109.372162 
	C69.448067,108.997513 69.892433,108.998489 70.670952,108.999695 
	C71.007408,109.749550 71.009697,110.499176 71.015594,111.624138 
	C71.019196,111.999481 70.978638,111.998779 70.647911,111.999390 
	C69.875885,112.000046 69.434586,112.000084 68.993286,112.000130 
	C68.995186,111.249352 68.997093,110.498566 69.001358,109.372162 
z"/>
<path fill="#E0E0E0" opacity="1.000000" stroke="none" 
	d="
M72.946869,113.691582 
	C72.556602,113.998932 72.111847,113.999687 71.330780,113.666687 
	C70.989182,112.888214 70.983910,112.443497 70.978638,111.998779 
	C70.978638,111.998779 71.019196,111.999481 71.040573,111.998016 
	C71.672096,112.459366 72.282242,112.922180 72.946869,113.691582 
z"/>
<path fill="#F0F0F0" opacity="1.000000" stroke="none" 
	d="
M36.986641,229.005524 
	C36.648205,227.589706 36.309769,226.173874 36.193977,224.151825 
	C35.823509,219.693268 35.274239,215.832916 34.574314,212.000092 
	C34.498348,211.584076 33.551498,211.327087 33.007221,210.622086 
	C33.005444,209.499161 33.005047,208.750504 33.230263,207.786194 
	C32.973053,206.712738 32.490227,205.854919 32.007080,204.665680 
	C32.005920,203.892349 32.005077,203.450424 32.344147,202.920044 
	C32.790966,201.219421 32.897884,199.607269 33.005478,197.663757 
	C33.007198,196.890518 33.008247,196.448654 33.246826,195.779938 
	C33.661209,194.706436 33.838055,193.859756 34.343071,192.942108 
	C35.444904,191.578903 36.218563,190.286713 36.995094,188.663635 
	C37.001736,187.891678 37.005505,187.450577 37.351028,186.959198 
	C40.461506,183.605331 43.230217,180.301743 45.998932,176.998169 
	C45.998932,176.998169 46.496010,176.987259 46.960716,177.205414 
	C48.953056,176.285217 50.480694,175.146881 52.443981,174.006683 
	C56.931797,175.022430 60.983963,176.040009 64.992264,177.367767 
	C64.627808,178.447006 64.307236,179.216064 63.562912,179.989349 
	C54.065208,177.489609 47.409031,180.840332 42.340080,188.389175 
	C36.586487,196.957596 35.606365,206.027039 38.372528,215.904221 
	C40.642891,224.011017 42.220882,232.311401 44.118626,240.523010 
	C45.058407,244.589462 46.223606,248.111450 51.656208,248.079590 
	C59.303875,248.034714 61.522324,247.027039 62.957172,241.180313 
	C67.000313,224.705307 70.126991,208.108597 69.375854,191.002594 
	C70.479568,190.980621 71.214760,190.962128 71.963257,191.374390 
	C72.291435,194.597305 73.202988,197.474594 72.818878,200.167023 
	C71.065849,212.454865 68.995766,224.698715 66.930267,236.939896 
	C66.410881,240.018051 66.354019,243.777649 64.533546,245.882751 
	C62.165627,248.620895 58.249115,250.019821 54.598877,251.995819 
	C53.131378,251.999115 52.064087,252.001694 50.622288,252.002869 
	C49.498672,251.998734 48.749565,251.996002 47.781059,251.734512 
	C40.935928,248.617020 41.311131,242.230972 39.940559,236.643326 
	C39.295628,234.014069 37.991859,231.546417 36.986641,229.005524 
z"/>
<path fill="#EBEBEB" opacity="1.000000" stroke="none" 
	d="
M54.999084,251.995117 
	C58.249115,250.019821 62.165627,248.620895 64.533546,245.882751 
	C66.354019,243.777649 66.410881,240.018051 66.930267,236.939896 
	C68.995766,224.698715 71.065849,212.454865 72.818878,200.167023 
	C73.202988,197.474594 72.291435,194.597305 71.969475,191.141571 
	C71.962387,190.477997 71.978256,190.011124 72.303734,190.068390 
	C73.297928,194.603256 74.264748,199.062424 74.543602,203.564194 
	C74.778130,207.350372 74.211998,211.186172 74.000305,215.000000 
	C73.998505,216.712692 73.996712,218.425369 73.719070,220.609253 
	C73.297127,221.720306 73.151024,222.360153 73.004913,223.000000 
	C73.001999,223.748825 72.999077,224.497635 72.686089,225.683365 
	C72.251762,227.080185 72.127502,228.040085 72.003242,229.000000 
	C71.704651,230.425186 71.406059,231.850357 70.788712,233.867035 
	C69.981514,237.305679 69.493057,240.152847 69.004608,243.000000 
	C69.002068,243.443359 68.999527,243.886703 68.664459,244.737915 
	C67.221390,247.097183 66.110847,249.048584 65.000305,251.000000 
	C64.421623,251.493927 63.842949,251.987869 62.768986,252.740189 
	C61.182468,253.336166 60.091232,253.673737 59.000000,254.011322 
	C57.933735,254.012619 56.867477,254.013931 55.400936,253.678894 
	C55.000134,252.893387 54.999607,252.444260 54.999084,251.995117 
z"/>
<path fill="#FDFDFD" opacity="1.000000" stroke="none" 
	d="
M71.978256,190.011124 
	C71.978256,190.011124 71.962387,190.477997 71.956169,190.710815 
	C71.214760,190.962128 70.479568,190.980621 68.991264,190.987732 
	C62.322411,189.052704 64.639061,183.944687 63.986656,179.985123 
	C64.307236,179.216064 64.627808,178.447006 65.234146,177.348480 
	C65.519913,177.019012 66.004539,176.983002 66.004539,176.983002 
	C67.447662,177.566177 68.890778,178.149353 70.637497,178.868668 
	C71.162300,179.541443 71.383507,180.078079 71.839493,180.793823 
	C72.059341,182.366028 72.044403,183.759125 72.015335,185.971588 
	C71.993553,187.864349 71.985901,188.937729 71.978256,190.011124 
z"/>
<path fill="#E9E9E9" opacity="1.000000" stroke="none" 
	d="
M36.831291,229.353302 
	C37.991859,231.546417 39.295628,234.014069 39.940559,236.643326 
	C41.311131,242.230972 40.935928,248.617020 47.780998,252.069336 
	C48.000355,253.109238 48.000370,253.555542 48.000389,254.001831 
	C43.872673,255.080338 42.999443,250.997101 40.241383,248.859375 
	C39.257515,247.920792 38.631649,247.458298 38.005783,246.995804 
	C38.000980,245.610748 37.996181,244.225693 37.994202,242.002899 
	C37.335068,239.107895 36.673115,237.050629 36.011162,234.993362 
	C36.232754,233.229279 36.454350,231.465179 36.831291,229.353302 
z"/>
<path fill="#E3E3E3" opacity="1.000000" stroke="none" 
	d="
M72.303726,190.068390 
	C71.985901,188.937729 71.993553,187.864349 72.025475,186.388962 
	C72.949615,186.598160 74.383293,187.025253 74.667336,187.848831 
	C77.731453,196.733276 77.188240,205.668869 74.330887,214.790375 
	C74.211998,211.186172 74.778130,207.350372 74.543602,203.564194 
	C74.264748,199.062424 73.297928,194.603256 72.303726,190.068390 
z"/>
<path fill="#E9E9E9" opacity="1.000000" stroke="none" 
	d="
M33.008606,210.996338 
	C33.551498,211.327087 34.498348,211.584076 34.574314,212.000092 
	C35.274239,215.832916 35.823509,219.693268 36.187592,223.780975 
	C32.769089,222.112045 30.859718,216.366013 32.188713,211.369781 
	C32.668224,210.998093 32.838413,210.997208 33.008606,210.996338 
z"/>
<path fill="#E3E3E3" opacity="1.000000" stroke="none" 
	d="
M65.930916,176.644409 
	C66.004539,176.983002 65.519913,177.019012 65.278023,177.038300 
	C60.983963,176.040009 56.931797,175.022430 52.108276,174.003845 
	C50.889427,174.000275 50.441940,173.997696 49.994450,173.995117 
	C54.115799,169.716446 60.271530,170.613129 65.930916,176.644409 
z"/>
<path fill="#E8E8E8" opacity="1.000000" stroke="none" 
	d="
M45.640396,177.010925 
	C43.230217,180.301743 40.461506,183.605331 37.347481,186.623230 
	C36.999413,185.889771 36.996658,185.441971 36.993900,184.994186 
	C39.756554,182.337357 42.519207,179.680527 45.640396,177.010925 
z"/>
<path fill="#E3E3E3" opacity="1.000000" stroke="none" 
	d="
M69.255692,242.749054 
	C69.493057,240.152847 69.981514,237.305679 70.737396,234.229279 
	C70.505478,236.832733 70.006134,239.665405 69.255692,242.749054 
z"/>
<path fill="#D2D2D1" opacity="1.000000" stroke="none" 
	d="
M77.035721,218.500549 
	C77.105545,216.693924 77.196281,215.258240 77.287025,213.822540 
	C77.707718,213.794434 78.128418,213.766342 78.549110,213.738235 
	C78.633430,215.646301 78.717751,217.554382 78.802063,219.462448 
	C78.220253,219.265457 77.638451,219.068466 77.035721,218.500549 
z"/>
<path fill="#D2D2D1" opacity="1.000000" stroke="none" 
	d="
M38.342842,256.093994 
	C38.039574,255.946045 38.053440,255.449905 38.080467,255.202682 
	C40.298790,255.787338 42.490089,256.619202 44.860016,257.763916 
	C42.907795,257.465179 40.776951,256.853577 38.342842,256.093994 
z"/>
<path fill="#E8E8E8" opacity="1.000000" stroke="none" 
	d="
M49.661148,174.044434 
	C50.441940,173.997696 50.889427,174.000275 51.672623,174.005692 
	C50.480694,175.146881 48.953056,176.285217 47.209297,177.202484 
	C47.771400,176.018860 48.549625,175.056290 49.661148,174.044434 
z"/>
<path fill="#E3E3E3" opacity="1.000000" stroke="none" 
	d="
M34.014900,193.013092 
	C33.838055,193.859756 33.661209,194.706436 33.019630,195.963211 
	C32.369930,196.915543 32.184967,197.457779 31.748360,197.999023 
	C31.328964,197.996643 31.161209,197.995270 30.993452,197.993896 
	C31.757542,195.716446 32.521633,193.438995 33.642773,191.413910 
	C34.004845,192.115219 34.009872,192.564163 34.014900,193.013092 
z"/>
<path fill="#E3E3E3" opacity="1.000000" stroke="none" 
	d="
M36.007481,235.415222 
	C36.673115,237.050629 37.335068,239.107895 37.993042,241.587402 
	C37.327309,239.952118 36.665554,237.894592 36.007481,235.415222 
z"/>
<path fill="#E3E3E3" opacity="1.000000" stroke="none" 
	d="
M65.350235,250.946045 
	C66.110847,249.048584 67.221390,247.097183 68.663147,245.070435 
	C67.896294,246.960754 66.798225,248.926407 65.350235,250.946045 
z"/>
<path fill="#E9E9E9" opacity="1.000000" stroke="none" 
	d="
M54.598877,251.995819 
	C54.999607,252.444260 55.000134,252.893387 55.001091,253.679657 
	C53.910172,254.342331 52.818817,254.667908 51.365082,254.619415 
	C51.000736,253.498337 50.998764,252.751297 50.996796,252.004272 
	C52.064087,252.001694 53.131378,251.999115 54.598877,251.995819 
z"/>
<path fill="#E8E8E8" opacity="1.000000" stroke="none" 
	d="
M30.943256,198.353577 
	C31.161209,197.995270 31.328964,197.996643 31.748814,198.248260 
	C32.000904,198.498489 32.000931,198.996979 32.000690,199.397995 
	C32.001713,200.868851 32.002975,201.938675 32.004234,203.008514 
	C32.005077,203.450424 32.005920,203.892349 31.753551,204.666656 
	C31.331383,204.999390 31.162422,204.999695 30.993462,205.000000 
	C30.959993,202.904419 30.926525,200.808823 30.943256,198.353577 
z"/>
<path fill="#E8E8E8" opacity="1.000000" stroke="none" 
	d="
M34.343071,192.942108 
	C34.009872,192.564163 34.004845,192.115219 33.996559,191.329559 
	C33.996231,190.551071 33.999161,190.109344 34.377312,189.334900 
	C35.499088,188.999649 36.245655,188.997070 36.992218,188.994507 
	C36.218563,190.286713 35.444904,191.578903 34.343071,192.942108 
z"/>
<path fill="#E3E3E3" opacity="1.000000" stroke="none" 
	d="
M36.995094,188.663635 
	C36.245655,188.997070 35.499088,188.999649 34.379276,189.003540 
	C34.782482,187.713440 35.558933,186.422012 36.664642,185.062378 
	C36.996658,185.441971 36.999413,185.889771 37.005718,186.673523 
	C37.005505,187.450577 37.001736,187.891678 36.995094,188.663635 
z"/>
<path fill="#E3E3E3" opacity="1.000000" stroke="none" 
	d="
M50.622288,252.002869 
	C50.998764,252.751297 51.000736,253.498337 51.004238,254.618729 
	C50.155239,254.821259 49.304710,254.650436 48.227287,254.240723 
	C48.000370,253.555542 48.000355,253.109238 48.000397,252.328125 
	C48.749565,251.996002 49.498672,251.998734 50.622288,252.002869 
z"/>
<path fill="#E9E9E9" opacity="1.000000" stroke="none" 
	d="
M30.993073,205.375000 
	C31.162422,204.999695 31.331383,204.999390 31.753874,204.998093 
	C32.490227,205.854919 32.973053,206.712738 32.896065,207.785553 
	C31.890787,208.000381 31.445318,208.000183 30.999847,208.000000 
	C30.997459,207.250000 30.995071,206.500000 30.993073,205.375000 
z"/>
<path fill="#E3E3E3" opacity="1.000000" stroke="none" 
	d="
M59.215096,254.239624 
	C60.091232,253.673737 61.182468,253.336166 62.635765,252.997772 
	C61.808620,253.487289 60.619404,253.977600 59.215096,254.239624 
z"/>
<path fill="#E3E3E3" opacity="1.000000" stroke="none" 
	d="
M72.242142,228.773071 
	C72.127502,228.040085 72.251762,227.080185 72.685318,226.057770 
	C72.823418,226.845551 72.652237,227.695862 72.242142,228.773071 
z"/>
<path fill="#D2D2D1" opacity="1.000000" stroke="none" 
	d="
M49.025513,259.545990 
	C48.392822,259.472687 47.740250,259.094360 47.003159,258.421936 
	C47.614300,258.498871 48.309963,258.869934 49.025513,259.545990 
z"/>
<path fill="#E8E8E8" opacity="1.000000" stroke="none" 
	d="
M31.033375,208.316818 
	C31.445318,208.000183 31.890787,208.000381 32.670456,208.001190 
	C33.005047,208.750504 33.005444,209.499161 33.007217,210.622086 
	C32.838413,210.997208 32.668224,210.998093 32.242580,210.999634 
	C31.680386,210.211411 31.373644,209.422531 31.033375,208.316818 
z"/>
<path fill="#D2D2D1" opacity="1.000000" stroke="none" 
	d="
M79.901749,207.426544 
	C79.589790,207.356567 79.243263,207.097702 79.094185,206.753357 
	C79.025368,206.594406 79.342331,206.268417 79.484375,206.018173 
	C79.638893,206.413025 79.793404,206.807877 79.901749,207.426544 
z"/>
<path fill="#E3E3E3" opacity="1.000000" stroke="none" 
	d="
M38.061447,247.306427 
	C38.631649,247.458298 39.257515,247.920792 39.940094,248.693420 
	C39.370243,248.541382 38.743679,248.079224 38.061447,247.306427 
z"/>
<path fill="#D2D2D1" opacity="1.000000" stroke="none" 
	d="
M27.396591,195.675446 
	C27.249310,196.004089 26.960571,196.182938 26.671833,196.361786 
	C26.866266,196.083069 27.060701,195.804367 27.396591,195.675446 
z"/>
<path fill="#D2D2D1" opacity="1.000000" stroke="none" 
	d="
M48.043610,169.491547 
	C48.176704,169.824860 48.101608,170.154877 48.026512,170.484894 
	C47.962818,170.152679 47.899117,169.820465 48.043610,169.491547 
z"/>
<path fill="#E3E3E3" opacity="1.000000" stroke="none" 
	d="
M73.229324,222.813324 
	C73.151024,222.360153 73.297127,221.720306 73.718384,221.037292 
	C73.813599,221.538284 73.633667,222.082474 73.229324,222.813324 
z"/>
<path fill="#D2D2D1" opacity="1.000000" stroke="none" 
	d="
M79.668121,194.035187 
	C79.647072,194.434982 79.487724,194.708359 79.328384,194.981735 
	C79.395531,194.624084 79.462685,194.266434 79.668121,194.035187 
z"/>
<path fill="#DFBF86" opacity="1.000000" stroke="none" 
	d="
M42.013054,28.982208 
	C43.313812,30.431742 44.614571,31.881273 46.017822,34.031456 
	C50.244587,45.823551 54.452076,56.885174 58.444717,68.023811 
	C59.717503,71.574608 57.728264,73.830765 53.481445,73.930771 
	C51.530182,73.976715 49.438190,72.994720 47.634750,73.423691 
	C42.614281,74.617874 42.174526,71.964478 41.927826,68.025024 
	C41.194988,56.322704 40.171844,44.637600 39.162525,32.954376 
	C38.961998,30.633211 39.127460,28.923969 42.013054,28.982208 
z"/>
<path fill="#D7B881" opacity="1.000000" stroke="none" 
	d="
M41.997002,28.599716 
	C39.127460,28.923969 38.961998,30.633211 39.162525,32.954376 
	C40.171844,44.637600 41.194988,56.322704 41.927826,68.025024 
	C42.174526,71.964478 42.614281,74.617874 47.634750,73.423691 
	C49.438190,72.994720 51.530182,73.976715 53.481445,73.930771 
	C57.728264,73.830765 59.717503,71.574608 58.444717,68.023811 
	C54.452076,56.885174 50.244587,45.823551 46.064640,34.362431 
	C48.087681,37.507629 50.695461,40.818977 52.141258,44.577324 
	C55.793854,54.072224 58.961185,63.755527 62.224590,73.396637 
	C62.741375,74.923378 62.747047,76.623116 62.979980,78.669212 
	C55.361691,76.069717 48.039761,75.230598 41.374870,81.990646 
	C40.365086,80.111877 39.091881,78.128448 39.104939,76.153526 
	C39.159542,67.892792 39.703392,59.636150 39.826950,51.374405 
	C39.858028,49.296120 38.910503,47.218639 38.560444,45.116192 
	C37.666679,39.748249 36.685944,34.383450 36.145756,28.976851 
	C36.027466,27.792910 37.597736,26.440260 38.390377,25.165306 
	C39.587234,26.182611 40.784092,27.199919 41.997002,28.599716 
z"/>
<path fill="#F2DFAF" opacity="1.000000" stroke="none" 
	d="
M66.164253,276.094269 
	C66.145744,276.518341 66.127235,276.942444 65.856873,277.869873 
	C65.470734,278.953705 65.336449,279.534119 65.202164,280.114563 
	C65.182159,280.535767 65.162155,280.957001 64.854172,281.944946 
	C62.034649,295.287628 59.751606,308.119141 56.906670,320.824890 
	C53.588917,335.642242 49.780102,350.349670 46.184364,365.104797 
	C45.499214,367.487427 44.814056,369.870026 44.059250,372.618835 
	C42.508652,373.519135 41.027702,374.053223 39.546757,374.587280 
	C39.035080,372.935974 37.985069,371.245239 38.102448,369.639893 
	C38.694138,361.547577 40.036255,353.491394 40.288227,345.396790 
	C40.845158,327.505463 40.966427,309.599335 41.146061,291.698059 
	C41.234604,282.874390 41.077179,274.047882 40.989983,265.223083 
	C40.962864,262.478699 42.374218,262.021912 44.830940,262.115173 
	C50.757462,262.340271 56.734100,262.696442 62.617920,262.177124 
	C68.232201,261.681610 66.340553,266.000397 67.716011,268.711700 
	C67.954155,269.727539 67.941254,270.458405 67.584755,271.669434 
	C66.882195,273.464478 66.523224,274.779388 66.164253,276.094269 
z"/>
<path fill="#DEC594" opacity="1.000000" stroke="none" 
	d="
M46.507088,364.987671 
	C49.780102,350.349670 53.588917,335.642242 56.906670,320.824890 
	C59.751606,308.119141 62.034649,295.287628 64.853020,282.261230 
	C65.073936,285.382172 65.491608,288.846893 64.861893,292.109497 
	C61.356472,310.271393 57.870770,328.446442 53.776443,346.480347 
	C52.339417,352.809875 49.194733,358.751678 46.507088,364.987671 
z"/>
<path fill="#DEC594" opacity="1.000000" stroke="none" 
	d="
M66.493866,275.973358 
	C66.523224,274.779388 66.882195,273.464478 67.578461,272.034790 
	C67.551659,273.230804 67.187569,274.541626 66.493866,275.973358 
z"/>
<path fill="#DEC594" opacity="1.000000" stroke="none" 
	d="
M65.456383,280.041382 
	C65.336449,279.534119 65.470734,278.953705 65.852280,278.188202 
	C65.969894,278.658173 65.840248,279.313202 65.456383,280.041382 
z"/>
<path fill="#F3F3F3" opacity="1.000000" stroke="none" 
	d="
M70.647911,111.999390 
	C70.983910,112.443497 70.989182,112.888214 70.997223,113.666473 
	C60.397182,114.318771 49.794525,114.757118 39.191311,114.770958 
	C38.133492,114.772331 37.072304,112.191261 36.017120,110.397400 
	C41.005524,113.105164 46.141983,112.869644 51.691338,111.461914 
	C54.578083,110.729614 57.880432,111.648361 60.996025,111.801414 
	C63.411118,111.920044 65.827728,112.007790 68.618477,112.054703 
	C69.434586,112.000084 69.875885,112.000046 70.647911,111.999390 
z"/>
<path fill="#F8F8F8" opacity="1.000000" stroke="none" 
	d="
M63.562912,179.989349 
	C64.639061,183.944687 62.322411,189.052704 68.622742,190.991241 
	C70.126991,208.108597 67.000313,224.705307 62.957172,241.180313 
	C61.522324,247.027039 59.303875,248.034714 51.656208,248.079590 
	C46.223606,248.111450 45.058407,244.589462 44.118626,240.523010 
	C42.220882,232.311401 40.642891,224.011017 38.372528,215.904221 
	C35.606365,206.027039 36.586487,196.957596 42.340080,188.389175 
	C47.409031,180.840332 54.065208,177.489609 63.562912,179.989349 
z"/>
<path fill="#E9E9E9" opacity="1.000000" stroke="none" 
	d="
M32.344143,202.920044 
	C32.002975,201.938675 32.001713,200.868851 32.205360,199.274872 
	C32.665855,198.549484 32.860519,198.300598 32.996952,198.002197 
	C32.999630,198.000351 33.004803,197.995117 33.004803,197.995117 
	C32.897884,199.607269 32.790966,201.219421 32.344143,202.920044 
z"/>
<path fill="#E9E9E9" opacity="1.000000" stroke="none" 
	d="
M32.000000,198.000000 
	C32.184967,197.457779 32.369930,196.915543 32.782097,196.190048 
	C33.008247,196.448654 33.007198,196.890518 33.005478,197.663757 
	C33.004803,197.995117 32.999630,198.000351 32.748425,198.001160 
	C32.497219,198.001984 32.000000,198.000000 32.000000,198.000000 
z"/>
<path fill="#E3E3E3" opacity="1.000000" stroke="none" 
	d="
M32.000450,198.249237 
	C32.000000,198.000000 32.497219,198.001984 32.745747,198.003021 
	C32.860519,198.300598 32.665855,198.549484 32.205605,198.873871 
	C32.000931,198.996979 32.000904,198.498489 32.000450,198.249237 
z"/>
</svg>