<svg version="1.1" id="Layer_1" xmlns="http://www.w3.org/2000/svg" xmlns:xlink="http://www.w3.org/1999/xlink" x="0px" y="0px"
	 width="100%" viewBox="0 0 91 405" enable-background="new 0 0 91 405" xml:space="preserve">
<path fill="#D5D5D5" opacity="1.000000" stroke="none" 
	d="
M14.166597,109.994980 
	C15.040754,106.904953 15.914910,103.814934 17.290142,100.280540 
	C19.200684,98.577972 20.610149,97.319763 22.019934,95.795563 
	C22.012959,95.352379 22.005669,95.175194 22.121284,94.789673 
	C22.438547,94.313988 22.686127,94.111816 23.201794,94.176117 
	C24.153839,93.922768 24.850979,93.378174 25.635141,93.029030 
	C29.034306,91.515564 31.351395,87.075951 36.087875,89.351730 
	C36.096725,89.569740 36.101074,90.006088 35.738853,90.045166 
	C28.630724,93.478127 23.575296,98.286316 22.029099,106.463425 
	C21.989351,108.896835 21.953426,110.900429 21.696930,112.914299 
	C21.476360,112.924568 21.032896,112.914742 20.784819,112.735550 
	C16.928219,116.304016 16.963255,120.080421 20.947676,121.343346 
	C31.261253,124.612366 41.810108,126.140320 52.576260,123.818733 
	C54.473606,123.409592 56.182575,122.192642 58.053238,121.574966 
	C59.834251,120.986893 63.115425,122.603935 62.800072,119.086159 
	C62.581886,116.652252 60.994553,114.341087 59.833778,111.755554 
	C59.123615,111.327904 58.598690,111.119774 58.069160,110.520218 
	C58.048695,109.085014 58.032841,108.041245 58.225361,106.774979 
	C58.154194,105.681046 58.000225,104.742073 57.573967,103.949539 
	C55.420643,99.945908 53.196445,95.980408 51.334629,92.050766 
	C53.104801,92.743797 54.537457,93.387581 56.031761,94.382980 
	C57.301304,97.021095 58.509197,99.307610 59.717094,101.594116 
	C60.073261,101.428856 60.429428,101.263588 60.785595,101.098320 
	C60.195568,98.833954 59.605537,96.569580 59.201214,94.277191 
	C59.386917,94.249176 59.687916,94.024490 59.687916,94.024490 
	C64.115639,102.949013 67.251114,112.253189 67.598373,122.731537 
	C65.020531,124.580284 62.828587,125.960655 60.636642,127.341026 
	C60.573780,127.788422 60.510921,128.235809 60.448059,128.683197 
	C63.288811,128.792145 66.129562,128.901093 68.970314,129.010025 
	C69.733925,134.933762 67.642670,139.471634 63.010784,143.346237 
	C56.928352,148.434250 50.065033,151.368317 42.328114,152.445740 
	C32.782742,153.774979 13.061638,147.632263 10.910128,133.813202 
	C10.302159,129.908249 11.216820,125.674278 11.946219,121.685020 
	C12.443121,118.967354 13.831964,116.412781 15.215284,113.388046 
	C16.301907,112.492409 16.995222,111.993996 17.688541,111.495590 
	C16.514561,110.995384 15.340579,110.495178 14.166597,109.994980 
M54.738033,136.571671 
	C49.718121,137.047867 44.697468,137.894257 39.678524,137.884262 
	C35.590961,137.876129 31.517368,136.718872 27.413254,136.324097 
	C25.728058,136.161987 23.978998,136.663834 22.258987,136.863663 
	C22.062317,137.578812 21.865644,138.293945 21.668974,139.009094 
	C24.642387,141.038925 27.477339,143.320465 30.617258,145.047592 
	C37.752869,148.972565 51.307419,146.869003 56.252090,141.314590 
	C58.015343,139.333923 59.272785,137.449677 54.738033,136.571671 
M30.035656,131.362762 
	C29.567747,131.589233 29.099838,131.815704 28.631926,132.042160 
	C28.818678,132.258255 29.131174,132.683289 29.172802,132.658249 
	C29.606026,132.397522 29.995703,132.064453 30.035656,131.362762 
M18.492466,105.541084 
	C18.492466,105.541084 18.466265,105.483116 18.492466,105.541084 
M15.459797,119.492226 
	C15.459797,119.492226 15.516202,119.466591 15.459797,119.492226 
z"/>
<path fill="#CECECD" opacity="1.000000" stroke="none" 
	d="
M22.943180,170.826111 
	C28.914865,164.248566 34.922626,163.992905 43.939613,166.669937 
	C55.512905,170.105865 61.522049,178.777069 66.497620,188.192520 
	C70.882225,196.489700 70.697563,205.828705 68.190460,215.005569 
	C65.587433,224.533569 63.098904,234.096817 60.807507,243.703613 
	C60.104847,246.649536 60.216503,249.789703 59.207466,252.953064 
	C57.332424,253.410263 56.205185,253.755295 54.759575,254.241913 
	C44.969841,260.886627 35.138367,260.642853 24.896305,255.660400 
	C22.853296,253.922897 20.983467,252.476181 19.113640,251.029480 
	C17.208130,243.333374 14.645399,235.729279 13.552224,227.919464 
	C11.940677,216.406357 11.102476,204.760193 10.529026,193.141388 
	C10.353100,189.576920 12.123294,185.916397 13.628879,182.061691 
	C17.151356,178.157730 20.047268,174.491913 22.943180,170.826111 
M29.193523,253.725861 
	C33.442158,255.372040 37.663689,258.082458 42.701824,254.057404 
	C43.131786,254.054413 43.561745,254.051422 44.527046,254.518875 
	C51.479767,254.869904 55.323875,251.281235 56.968960,243.251266 
	C59.215324,232.286301 61.128162,221.220245 64.063370,210.436890 
	C68.444397,194.341904 56.582165,174.786102 41.248085,169.344147 
	C35.228443,167.207809 28.544453,169.731750 25.362820,175.023468 
	C24.923656,175.360336 24.484491,175.697205 23.882376,176.718582 
	C22.851807,178.780396 21.821238,180.842224 20.074932,182.970444 
	C18.379736,186.841751 15.320120,190.681107 15.228586,194.589966 
	C14.857838,210.422195 18.117657,225.881073 21.486744,241.299026 
	C22.579700,246.300720 24.777040,250.188599 29.193523,253.725861 
z"/>
<path fill="#CCB68E" opacity="1.000000" stroke="none" 
	d="
M19.047916,251.430237 
	C20.983467,252.476181 22.853296,253.922897 24.626442,255.967270 
	C24.705696,259.709930 24.881636,262.854950 25.068949,266.411194 
	C25.422205,270.179352 25.764090,273.536224 26.073952,277.309998 
	C27.041653,283.076965 27.967003,288.442230 29.054401,293.774414 
	C33.047157,313.353455 37.014145,332.938690 41.224434,352.471252 
	C41.730049,354.816956 43.665359,356.854431 44.953522,359.418030 
	C45.023640,360.822510 45.078247,361.843811 45.145676,363.186188 
	C45.751251,364.017517 46.343994,364.527771 46.954651,365.421936 
	C47.670074,368.178833 48.367580,370.551819 49.055069,373.287964 
	C50.016510,375.439026 50.987968,377.226898 51.723320,379.291443 
	C51.307487,380.769104 51.127762,381.970001 50.948036,383.170929 
	C45.727562,380.329163 44.925220,374.640045 43.260578,369.933594 
	C38.380329,356.135620 33.753941,342.200500 30.047201,328.052155 
	C27.744455,319.262726 27.332785,309.982544 25.996206,300.933838 
	C24.928944,293.708466 23.707792,286.505829 22.637217,279.280884 
	C22.277792,276.855225 22.171787,274.391998 22.117207,271.337433 
	C21.905243,270.158356 21.526024,269.587799 21.146805,269.017242 
	C21.089010,266.328888 21.031216,263.640503 21.132645,260.336334 
	C20.907722,259.152588 20.523579,258.584625 20.139435,258.016693 
	C19.753687,255.954803 19.367939,253.892899 19.047916,251.430237 
z"/>
<path fill="#C6AE84" opacity="1.000000" stroke="none" 
	d="
M51.066074,383.459412 
	C51.127762,381.970001 51.307487,380.769104 52.057659,379.438843 
	C54.997890,380.427490 56.588699,379.723206 56.971230,377.138153 
	C57.404369,374.211151 57.981117,371.216156 57.781830,368.299500 
	C56.643116,351.634064 54.534058,334.998260 54.202541,318.323578 
	C53.777206,296.930084 54.722919,275.509338 55.077938,254.100311 
	C56.205185,253.755295 57.332424,253.410263 58.825638,253.060974 
	C59.146881,253.822235 59.102154,254.587738 58.755890,255.902405 
	C58.591331,257.264862 58.728302,258.078186 58.865276,258.891479 
	C58.913891,260.974762 58.962505,263.058075 58.778603,265.728516 
	C58.597404,266.855103 58.648727,267.394470 58.700050,267.933868 
	C58.652096,269.099304 58.604145,270.264709 58.336205,272.222748 
	C57.154499,283.466217 58.386379,293.901245 56.493935,304.502747 
	C54.996159,312.893280 57.576836,322.011841 58.346416,330.807129 
	C58.464367,331.418457 58.582317,332.029816 58.784481,333.480225 
	C58.946491,338.295288 59.024292,342.271210 59.126595,346.417236 
	C59.151096,346.587341 59.287975,346.908508 59.215012,347.339783 
	C59.547905,350.521240 59.953754,353.271423 60.359608,356.021576 
	C60.460430,356.267151 60.561249,356.512695 60.762707,357.503571 
	C60.606007,367.258667 60.348667,376.268463 60.091324,385.278229 
	C60.091320,385.278229 60.075851,385.630066 59.838654,385.973480 
	C59.451832,386.620361 59.302208,386.923798 59.152580,387.227264 
	C59.152576,387.227264 59.091911,387.110931 58.717041,387.102295 
	C56.911839,387.054565 55.481506,387.015472 54.051170,386.976410 
	C53.095482,385.900238 52.139797,384.824066 51.066074,383.459412 
z"/>
<path fill="#D0B482" opacity="1.000000" stroke="none" 
	d="
M40.652779,31.223724 
	C40.652779,31.223724 40.841911,31.430573 41.124908,31.237896 
	C42.245853,30.103870 43.053371,29.133204 43.927055,28.226274 
	C47.581127,24.433168 51.255054,20.659189 55.096581,17.190331 
	C58.568336,20.240814 60.729862,23.598631 60.994415,27.991463 
	C60.325474,31.375093 59.656532,34.758724 58.698303,38.689102 
	C57.943443,39.511108 57.477863,39.786373 57.001152,39.722191 
	C56.661568,38.590050 56.333122,37.797359 56.003517,36.579918 
	C56.532726,33.641411 57.063095,31.127651 57.593460,28.613890 
	C58.094242,28.442055 58.595028,28.270222 59.095810,28.098389 
	C57.177059,26.548319 54.758965,23.382469 53.444771,23.788610 
	C50.807110,24.603762 48.562557,27.180666 46.565311,29.399147 
	C45.318306,30.784283 44.755745,32.816086 43.997620,34.604988 
	C41.968868,39.392101 40.000278,44.204704 38.003757,49.408264 
	C35.991173,56.559296 33.825367,63.268631 32.065472,70.082802 
	C31.503828,72.257439 32.019089,74.710213 31.877762,77.326309 
	C28.427237,80.371849 25.140553,83.126801 21.853870,85.881744 
	C22.665230,81.990089 23.215103,78.019630 24.357708,74.227791 
	C25.631437,70.000801 27.444057,65.936188 29.417660,61.301865 
	C31.502174,56.082478 33.191147,51.362114 34.880116,46.641754 
	C34.850414,46.281502 34.820709,45.921246 35.189789,45.121986 
	C37.276638,40.196564 38.964706,35.710144 40.652779,31.223724 
z"/>
<path fill="#B0ACA6" opacity="1.000000" stroke="none" 
	d="
M21.513849,86.088882 
	C25.140553,83.126801 28.427237,80.371849 32.289688,77.295235 
	C38.334011,75.411613 43.678585,75.707611 48.961838,78.376526 
	C50.669121,80.190674 52.301666,81.670937 53.946434,83.470642 
	C54.294273,84.550911 54.629894,85.311752 54.961441,86.423645 
	C54.931221,87.241928 54.905071,87.709137 54.567371,88.152786 
	C53.836651,88.117302 53.417484,88.105377 52.848824,87.780396 
	C45.214413,77.592224 30.566637,80.194061 25.739002,89.193733 
	C24.635847,90.904137 23.811392,92.439484 22.986935,93.974823 
	C22.686127,94.111816 22.438547,94.313988 21.849010,94.670502 
	C20.926294,94.488159 20.398760,94.216637 19.871227,93.945114 
	C20.305428,91.395416 20.739628,88.845711 21.513849,86.088882 
z"/>
<path fill="#B7A689" opacity="1.000000" stroke="none" 
	d="
M54.878922,88.176353 
	C54.905071,87.709137 54.931221,87.241928 55.214752,86.144699 
	C55.649323,84.037758 55.826508,82.560844 56.014061,80.636276 
	C56.017254,78.099297 56.010082,76.009956 56.006493,73.613754 
	C56.007751,72.897972 56.005428,72.489044 56.012245,71.720612 
	C56.015499,70.881691 56.009613,70.402275 56.007370,69.462326 
	C56.005577,62.366051 56.000134,55.730316 56.010021,48.689629 
	C56.355438,46.176426 56.685524,44.068180 57.016312,41.643326 
	C57.015442,40.905025 57.013863,40.483330 57.012287,40.061634 
	C57.477863,39.786373 57.943443,39.511108 58.651096,39.113689 
	C58.616310,53.062931 58.195602,67.133904 58.154125,81.205994 
	C58.142365,85.197762 59.236343,89.192795 59.755569,93.605408 
	C59.687916,94.024490 59.386917,94.249176 59.175175,94.190117 
	C58.963432,94.131058 58.836575,94.000862 58.838261,93.806808 
	C58.839947,93.612762 58.770832,93.230484 58.621941,92.940903 
	C57.658794,92.416878 56.844532,92.182426 56.026810,91.712631 
	C56.023346,91.477287 56.009262,91.006752 56.120190,90.846298 
	C55.830196,90.445763 55.429276,90.205681 54.997196,89.666916 
	C54.937000,88.970932 54.907959,88.573647 54.878922,88.176353 
z"/>
<path fill="#B7AC99" opacity="1.000000" stroke="none" 
	d="
M58.479637,330.369690 
	C57.576836,322.011841 54.996159,312.893280 56.493935,304.502747 
	C58.386379,293.901245 57.154499,283.466217 58.206818,272.640442 
	C58.402565,291.487793 58.507713,310.710022 58.479637,330.369690 
z"/>
<path fill="#B2A695" opacity="1.000000" stroke="none" 
	d="
M60.465729,385.152985 
	C60.348667,376.268463 60.606007,367.258667 60.846970,357.892700 
	C63.628681,366.699310 64.136948,375.862854 60.465729,385.152985 
z"/>
<path fill="#D6C9B4" opacity="1.000000" stroke="none" 
	d="
M54.921703,16.878201 
	C51.255054,20.659189 47.581127,24.433168 43.927055,28.226274 
	C43.053371,29.133204 42.245853,30.103870 41.045956,31.122122 
	C44.201244,26.215160 47.663628,21.190285 51.315170,16.306850 
	C51.707745,15.781835 53.200130,16.079191 54.557083,16.190987 
	C54.931828,16.386904 54.921703,16.878201 54.921703,16.878201 
z"/>
<path fill="#CAB086" opacity="1.000000" stroke="none" 
	d="
M55.096581,17.190331 
	C54.921703,16.878201 54.931828,16.386904 54.941620,16.141672 
	C58.351467,14.145768 60.837669,14.356865 61.147808,18.899458 
	C61.341022,21.729452 61.406227,24.568182 61.261650,27.697227 
	C60.729862,23.598631 58.568336,20.240814 55.096581,17.190331 
z"/>
<path fill="#D0D0D0" opacity="1.000000" stroke="none" 
	d="
M68.984161,128.616272 
	C66.129562,128.901093 63.288811,128.792145 60.448059,128.683197 
	C60.510921,128.235809 60.573780,127.788422 60.636642,127.341026 
	C62.828587,125.960655 65.020531,124.580284 67.550659,123.098633 
	C68.258568,124.739075 68.628288,126.480797 68.984161,128.616272 
z"/>
<path fill="#BEB19E" opacity="1.000000" stroke="none" 
	d="
M34.517063,46.727440 
	C33.191147,51.362114 31.502174,56.082478 29.480932,60.892006 
	C30.817112,56.258492 32.485561,51.535809 34.517063,46.727440 
z"/>
<path fill="#B3A693" opacity="1.000000" stroke="none" 
	d="
M40.372353,31.458694 
	C38.964706,35.710144 37.276638,40.196564 35.290211,44.868557 
	C36.691883,40.600639 38.391907,36.147152 40.372353,31.458694 
z"/>
<path fill="#DFDFDF" opacity="1.000000" stroke="none" 
	d="
M22.591324,170.899918 
	C20.047268,174.491913 17.151356,178.157730 13.891491,181.850159 
	C14.563215,176.749588 17.885246,173.449280 22.591324,170.899918 
z"/>
<path fill="#B7AC99" opacity="1.000000" stroke="none" 
	d="
M59.102097,346.247162 
	C59.024292,342.271210 58.946491,338.295288 58.853268,333.943909 
	C59.228146,337.386932 59.618446,341.205353 59.840584,345.533081 
	C59.482307,346.110687 59.292198,346.178925 59.102097,346.247162 
z"/>
<path fill="#B7AC99" opacity="1.000000" stroke="none" 
	d="
M60.484116,355.584778 
	C59.953754,353.271423 59.547905,350.521240 59.420925,347.365295 
	C59.978550,346.994141 60.258362,347.013031 60.539238,347.016113 
	C60.562366,349.726746 60.585495,352.437347 60.484116,355.584778 
z"/>
<path fill="#D0D0D0" opacity="1.000000" stroke="none" 
	d="
M14.092130,110.337143 
	C15.340579,110.495178 16.514561,110.995384 17.688541,111.495590 
	C16.995222,111.993996 16.301907,112.492409 15.246708,113.013771 
	C14.595771,112.250923 14.306716,111.465118 14.092130,110.337143 
z"/>
<path fill="#D0D0D0" opacity="1.000000" stroke="none" 
	d="
M22.019615,96.061554 
	C20.610149,97.319763 19.200684,98.577972 17.473587,99.920303 
	C17.528404,98.749435 17.900852,97.494438 18.968201,96.106186 
	C20.448606,96.002472 21.234110,96.032013 22.019615,96.061554 
z"/>
<path fill="#B2A695" opacity="1.000000" stroke="none" 
	d="
M54.103195,387.369812 
	C55.481506,387.015472 56.911839,387.054565 58.771851,387.138306 
	C57.519428,387.376404 55.837322,387.569824 54.103195,387.369812 
z"/>
<path fill="#BEBCBA" opacity="1.000000" stroke="none" 
	d="
M22.019932,95.795563 
	C21.234110,96.032013 20.448606,96.002472 19.270786,95.959000 
	C19.025297,95.363281 19.172125,94.781479 19.595089,94.072403 
	C20.398760,94.216637 20.926294,94.488159 21.726105,94.878845 
	C22.005669,95.175194 22.012959,95.352379 22.019932,95.795563 
z"/>
<path fill="#DEC697" opacity="1.000000" stroke="none" 
	d="
M21.082611,269.320587 
	C21.526024,269.587799 21.905243,270.158356 22.073814,270.897888 
	C21.581585,270.585876 21.299999,270.104919 21.082611,269.320587 
z"/>
<path fill="#B7AC99" opacity="1.000000" stroke="none" 
	d="
M58.885590,267.809296 
	C58.648727,267.394470 58.597404,266.855103 58.726479,266.172180 
	C58.961628,266.580688 59.016380,267.132721 58.885590,267.809296 
z"/>
<path fill="#DEC697" opacity="1.000000" stroke="none" 
	d="
M20.077564,258.321777 
	C20.523579,258.584625 20.907722,259.152588 21.083149,259.891632 
	C20.588184,259.584106 20.301939,259.105499 20.077564,258.321777 
z"/>
<path fill="#CECECD" opacity="1.000000" stroke="none" 
	d="
M58.928745,258.546112 
	C58.728302,258.078186 58.591331,257.264862 58.671139,256.276276 
	C58.922688,256.800903 58.957451,257.500824 58.928745,258.546112 
z"/>
<path fill="#B2A695" opacity="1.000000" stroke="none" 
	d="
M60.636932,346.814636 
	C60.258362,347.013031 59.978550,346.994141 59.493889,346.933990 
	C59.287975,346.908508 59.151096,346.587341 59.126595,346.417236 
	C59.292198,346.178925 59.482307,346.110687 59.967533,345.973907 
	C60.575649,346.037506 60.732975,346.273438 60.636932,346.814636 
z"/>
<path fill="#B2A695" opacity="1.000000" stroke="none" 
	d="
M59.418228,387.111755 
	C59.302208,386.923798 59.451832,386.620361 59.789299,386.142517 
	C59.879379,386.310822 59.781628,386.653534 59.418228,387.111755 
z"/>
<path fill="#FAFAFA" opacity="1.000000" stroke="none" 
	d="
M36.101074,90.006088 
	C36.101074,90.006088 36.096725,89.569740 36.525566,89.333649 
	C39.983055,89.722153 43.011707,90.346756 46.015541,91.229462 
	C45.983253,91.660255 45.975784,91.832954 45.765179,92.225128 
	C47.371086,94.632050 49.180126,96.819496 51.070438,99.330734 
	C52.761086,101.769043 54.370457,103.883575 55.737755,106.264862 
	C53.726166,112.066101 51.845921,112.703384 45.283020,111.698097 
	C40.676254,110.992439 35.860981,110.806747 31.233183,111.290878 
	C25.342896,111.907104 25.221699,112.164925 24.996719,105.741013 
	C25.008257,105.499619 25.027109,105.016647 25.367027,104.959351 
	C29.123764,101.185120 34.693707,99.151794 35.309238,92.937393 
	C35.774525,91.913063 35.937801,90.959572 36.101074,90.006088 
z"/>
<path fill="#F4F4F4" opacity="1.000000" stroke="none" 
	d="
M55.098175,136.471771 
	C59.272785,137.449677 58.015343,139.333923 56.252090,141.314590 
	C51.307419,146.869003 37.752869,148.972565 30.617258,145.047592 
	C27.477339,143.320465 24.642387,141.038925 21.668974,139.009094 
	C21.865644,138.293945 22.062317,137.578812 22.258987,136.863663 
	C23.978998,136.663834 25.728058,136.161987 27.413254,136.324097 
	C31.517368,136.718872 35.590961,137.876129 39.678524,137.884262 
	C44.697468,137.894257 49.718121,137.047867 55.098175,136.471771 
z"/>
<path fill="#F0F0F0" opacity="1.000000" stroke="none" 
	d="
M24.985180,105.982407 
	C25.221699,112.164925 25.342896,111.907104 31.233183,111.290878 
	C35.860981,110.806747 40.676254,110.992439 45.283020,111.698097 
	C51.845921,112.703384 53.726166,112.066101 55.997215,106.380714 
	C57.004829,106.485703 57.510910,106.741585 58.016991,106.997467 
	C58.032841,108.041245 58.048695,109.085014 58.042145,110.934479 
	C58.127159,114.600723 56.869675,116.029778 53.887070,116.011772 
	C44.501221,115.955124 35.111603,116.102196 25.732458,115.843513 
	C24.434769,115.807716 23.187899,113.929367 21.917501,112.904030 
	C21.953426,110.900429 21.989351,108.896835 22.397629,106.455299 
	C23.508383,106.005707 24.246780,105.994057 24.985180,105.982407 
z"/>
<path fill="#E2E2E2" opacity="1.000000" stroke="none" 
	d="
M60.019012,111.975075 
	C60.994553,114.341087 62.581886,116.652252 62.800072,119.086159 
	C63.115425,122.603935 59.834251,120.986893 58.053238,121.574966 
	C56.182575,122.192642 54.473606,123.409592 52.576260,123.818733 
	C41.810108,126.140320 31.261253,124.612366 20.947676,121.343346 
	C16.963255,120.080421 16.928219,116.304016 20.636349,113.071106 
	C19.319101,117.172745 21.281384,118.597855 24.399248,118.938728 
	C29.065605,119.448906 33.965900,119.012672 38.383503,120.297005 
	C43.679806,121.836807 48.502602,120.818214 53.536381,119.904106 
	C58.020092,119.089874 61.055214,117.234390 60.019012,111.975075 
z"/>
<path fill="#E8E8E8" opacity="1.000000" stroke="none" 
	d="
M59.833778,111.755554 
	C61.055214,117.234390 58.020092,119.089874 53.536381,119.904106 
	C48.502602,120.818214 43.679806,121.836807 38.383503,120.297005 
	C33.965900,119.012672 29.065605,119.448906 24.399248,118.938728 
	C21.281384,118.597855 19.319101,117.172745 20.884426,113.250305 
	C21.032896,112.914742 21.476360,112.924568 21.696932,112.914299 
	C23.187899,113.929367 24.434769,115.807716 25.732458,115.843513 
	C35.111603,116.102196 44.501221,115.955124 53.887070,116.011772 
	C56.869675,116.029778 58.127159,114.600723 58.046753,111.325905 
	C58.598690,111.119774 59.123615,111.327904 59.833778,111.755554 
z"/>
<path fill="#D0D0D0" opacity="1.000000" stroke="none" 
	d="
M46.040356,90.971367 
	C43.011707,90.346756 39.983055,89.722153 36.516716,89.115639 
	C31.351395,87.075951 29.034306,91.515564 25.635141,93.029030 
	C24.850979,93.378174 24.153839,93.922768 23.201794,94.176117 
	C23.811392,92.439484 24.635847,90.904137 26.099165,89.134659 
	C32.282570,85.997238 37.952904,84.010956 44.341579,85.947014 
	C47.183037,86.808090 50.110107,87.386658 52.998318,88.093460 
	C53.417484,88.105377 53.836651,88.117302 54.567368,88.152786 
	C54.907959,88.573647 54.937000,88.970932 55.101040,89.890938 
	C55.431606,90.692398 55.689346,90.890099 56.009262,91.006752 
	C56.009262,91.006752 56.023346,91.477287 56.008282,92.055237 
	C55.994907,93.089355 55.996601,93.545532 55.992630,94.007614 
	C55.986965,94.013519 55.970112,94.031372 55.970112,94.031372 
	C54.537457,93.387581 53.104801,92.743797 51.059193,91.805786 
	C48.977612,91.331490 47.508984,91.151428 46.040356,90.971367 
z"/>
<path fill="#E2E2E2" opacity="1.000000" stroke="none" 
	d="
M24.996719,105.741013 
	C24.246780,105.994057 23.508383,106.005707 22.401451,106.025497 
	C23.575296,98.286316 28.630724,93.478127 35.738853,90.045166 
	C35.937801,90.959572 35.774525,91.913063 34.998512,93.076027 
	C31.266216,97.195885 28.146662,101.106270 25.027109,105.016647 
	C25.027109,105.016647 25.008257,105.499619 24.996719,105.741013 
z"/>
<path fill="#E2E2E2" opacity="1.000000" stroke="none" 
	d="
M46.015541,91.229462 
	C47.508984,91.151428 48.977612,91.331490 50.721676,91.756538 
	C53.196445,95.980408 55.420643,99.945908 57.573967,103.949539 
	C58.000225,104.742073 58.154194,105.681046 58.225365,106.774979 
	C57.510910,106.741585 57.004829,106.485703 56.239288,106.113968 
	C54.370457,103.883575 52.761086,101.769043 51.064568,98.971069 
	C49.307724,96.193634 47.638016,94.099640 45.968307,92.005646 
	C45.975784,91.832954 45.983253,91.660255 46.015541,91.229462 
z"/>
<path fill="#D0D0D0" opacity="1.000000" stroke="none" 
	d="
M58.989471,94.218140 
	C59.605537,96.569580 60.195568,98.833954 60.785595,101.098320 
	C60.429428,101.263588 60.073261,101.428856 59.717094,101.594116 
	C58.509197,99.307610 57.301304,97.021095 56.031761,94.382980 
	C55.970112,94.031372 55.986965,94.013519 56.324608,94.010498 
	C57.104839,94.004227 57.547428,94.000984 58.201653,93.999329 
	C58.413288,94.000923 58.836575,94.000862 58.836575,94.000862 
	C58.836575,94.000862 58.963432,94.131058 58.989471,94.218140 
z"/>
<path fill="#D0D0D0" opacity="1.000000" stroke="none" 
	d="
M30.216560,131.557114 
	C29.995703,132.064453 29.606026,132.397522 29.172802,132.658249 
	C29.131174,132.683289 28.818678,132.258255 28.631927,132.042160 
	C29.099838,131.815704 29.567747,131.589233 30.216560,131.557114 
z"/>
<path fill="#D0D0D0" opacity="1.000000" stroke="none" 
	d="
M18.479366,105.512100 
	C18.466265,105.483116 18.492466,105.541084 18.479366,105.512100 
z"/>
<path fill="#D0D0D0" opacity="1.000000" stroke="none" 
	d="
M15.487999,119.479408 
	C15.516202,119.466591 15.459797,119.492226 15.487999,119.479408 
z"/>
<path fill="#E9E9E9" opacity="1.000000" stroke="none" 
	d="
M24.045328,176.034073 
	C24.484491,175.697205 24.923656,175.360336 26.027905,174.989624 
	C27.738270,174.521088 28.952541,174.296646 29.799818,173.615616 
	C33.640514,170.528519 37.992149,170.076065 41.859818,172.632965 
	C46.641308,175.793991 51.644077,179.202911 55.125164,183.626877 
	C62.332653,192.786560 64.642052,203.197388 60.708630,214.807892 
	C58.229641,222.125229 55.670906,229.768555 55.329803,237.363632 
	C54.944233,245.948822 51.335163,250.904037 43.991707,254.048431 
	C43.561745,254.051422 43.131786,254.054413 41.930145,254.037186 
	C37.442715,253.675949 33.726971,253.334930 29.955791,252.648041 
	C28.280146,249.870651 25.934931,247.643234 25.181650,244.967621 
	C23.260014,238.142197 21.546185,231.179367 20.671276,224.156647 
	C19.366320,213.681992 18.692738,203.116821 18.157871,192.569504 
	C18.066416,190.766022 20.007154,188.859467 21.241562,187.230942 
	C21.654089,188.306030 21.834145,189.150711 21.682922,190.210083 
	C20.901360,192.286774 19.860176,194.226715 20.093779,195.998566 
	C22.056774,210.887604 24.076975,225.774185 26.459328,240.600540 
	C27.537067,247.307724 31.744276,250.466019 38.532879,250.868073 
	C45.017654,251.252136 50.818977,247.689484 51.857529,242.640945 
	C54.121452,231.635635 56.409721,220.635010 58.597992,209.614594 
	C61.081829,197.105606 55.988937,187.276169 47.279903,178.925095 
	C41.622463,173.500214 34.737274,174.825378 27.578423,176.024384 
	C26.138515,176.026596 25.091921,176.030334 24.045328,176.034073 
z"/>
<path fill="#DEC697" opacity="1.000000" stroke="none" 
	d="
M54.759567,254.241898 
	C54.722919,275.509338 53.777206,296.930084 54.202541,318.323578 
	C54.534058,334.998260 56.643116,351.634064 57.781830,368.299500 
	C57.981117,371.216156 57.404369,374.211151 56.971230,377.138153 
	C56.588699,379.723206 54.997890,380.427490 52.293762,379.162140 
	C50.987968,377.226898 50.016510,375.439026 49.395489,373.353394 
	C53.716286,374.446869 55.117741,372.493073 54.725361,368.906494 
	C52.311512,346.842804 50.297836,324.763123 50.997265,302.524231 
	C51.377537,290.433044 51.657207,278.338745 52.019375,266.246948 
	C52.117393,262.974335 51.478222,260.711792 47.351547,261.106781 
	C42.255146,261.594604 37.117764,262.016937 32.010635,261.903351 
	C28.563150,261.826660 26.309933,262.815918 25.057575,265.999939 
	C24.881636,262.854950 24.705696,259.709930 24.799622,256.258057 
	C35.138367,260.642853 44.969841,260.886627 54.759567,254.241898 
z"/>
<path fill="#DFDFDF" opacity="1.000000" stroke="none" 
	d="
M44.259377,254.283661 
	C51.335163,250.904037 54.944233,245.948822 55.329803,237.363632 
	C55.670906,229.768555 58.229641,222.125229 60.708630,214.807892 
	C64.642052,203.197388 62.332653,192.786560 55.125164,183.626877 
	C51.644077,179.202911 46.641308,175.793991 41.859818,172.632965 
	C37.992149,170.076065 33.640514,170.528519 29.799818,173.615616 
	C28.952541,174.296646 27.738270,174.521088 26.312904,174.947205 
	C28.544453,169.731750 35.228443,167.207809 41.248085,169.344147 
	C56.582165,174.786102 68.444397,194.341904 64.063370,210.436890 
	C61.128162,221.220245 59.215324,232.286301 56.968960,243.251266 
	C55.323875,251.281235 51.479767,254.869904 44.259377,254.283661 
z"/>
<path fill="#E0E0E0" opacity="1.000000" stroke="none" 
	d="
M21.009090,187.000534 
	C20.007154,188.859467 18.066416,190.766022 18.157871,192.569504 
	C18.692738,203.116821 19.366320,213.681992 20.671276,224.156647 
	C21.546185,231.179367 23.260014,238.142197 25.181650,244.967621 
	C25.934931,247.643234 28.280146,249.870651 29.696922,252.650574 
	C29.320995,253.000229 29.148506,253.001511 28.976015,253.002777 
	C24.777040,250.188599 22.579700,246.300720 21.486744,241.299026 
	C18.117657,225.881073 14.857838,210.422195 15.228586,194.589966 
	C15.320120,190.681107 18.379736,186.841751 20.500868,183.345062 
	C20.954233,184.813293 20.981663,185.906921 21.009090,187.000534 
z"/>
<path fill="#FDFDFD" opacity="1.000000" stroke="none" 
	d="
M21.241564,187.230942 
	C20.981663,185.906921 20.954233,184.813293 20.858738,183.311859 
	C21.821238,180.842224 22.851807,178.780396 23.963852,176.376328 
	C25.091921,176.030334 26.138515,176.026596 27.633493,176.361877 
	C28.391949,177.796112 28.702021,178.891342 29.007954,180.413391 
	C29.171560,185.311737 28.972929,189.543228 22.757957,189.994568 
	C22.510038,189.993408 22.014198,189.995392 22.014198,189.995392 
	C21.834145,189.150711 21.654089,188.306030 21.241564,187.230942 
z"/>
<path fill="#DFDFDF" opacity="1.000000" stroke="none" 
	d="
M29.084770,253.364319 
	C29.148506,253.001511 29.320995,253.000229 29.752356,252.996429 
	C33.726971,253.334930 37.442715,253.675949 41.607666,254.035233 
	C37.663689,258.082458 33.442158,255.372040 29.084770,253.364319 
z"/>
<path fill="#F2DFAF" opacity="1.000000" stroke="none" 
	d="
M25.068949,266.411194 
	C26.309933,262.815918 28.563150,261.826660 32.010635,261.903351 
	C37.117764,262.016937 42.255146,261.594604 47.351547,261.106781 
	C51.478222,260.711792 52.117393,262.974335 52.019375,266.246948 
	C51.657207,278.338745 51.377537,290.433044 50.997265,302.524231 
	C50.297836,324.763123 52.311512,346.842804 54.725361,368.906494 
	C55.117741,372.493073 53.716286,374.446869 49.405506,372.990173 
	C48.367580,370.551819 47.670074,368.178833 46.921631,365.111877 
	C46.291409,363.900269 45.712128,363.382690 45.132851,362.865082 
	C45.078247,361.843811 45.023640,360.822510 44.961784,359.018494 
	C42.320766,347.760132 39.373524,337.351166 37.128231,326.792908 
	C33.927258,311.740662 31.280062,296.571198 28.277973,281.475311 
	C27.958239,279.867523 26.848972,278.416748 26.105976,276.893127 
	C25.764090,273.536224 25.422205,270.179352 25.068949,266.411194 
z"/>
<path fill="#DEC697" opacity="1.000000" stroke="none" 
	d="
M26.073952,277.309998 
	C26.848972,278.416748 27.958239,279.867523 28.277973,281.475311 
	C31.280062,296.571198 33.927258,311.740662 37.128231,326.792908 
	C39.373524,337.351166 42.320766,347.760132 44.946270,358.635284 
	C43.665359,356.854431 41.730049,354.816956 41.224434,352.471252 
	C37.014145,332.938690 33.047157,313.353455 29.054401,293.774414 
	C27.967003,288.442230 27.041653,283.076965 26.073952,277.309998 
z"/>
<path fill="#DEC697" opacity="1.000000" stroke="none" 
	d="
M45.145676,363.186188 
	C45.712128,363.382690 46.291409,363.900269 46.903713,364.727966 
	C46.343994,364.527771 45.751251,364.017517 45.145676,363.186188 
z"/>
<path fill="#D4B680" opacity="1.000000" stroke="none" 
	d="
M56.003723,69.922859 
	C56.009613,70.402275 56.015499,70.881691 55.737003,71.747955 
	C55.163704,72.437675 54.874790,72.740547 54.585876,73.043427 
	C55.058220,73.335823 55.530567,73.628220 56.002914,73.920616 
	C56.010082,76.009956 56.017254,78.099297 55.693802,80.678673 
	C54.886856,81.829544 54.410534,82.490372 53.934212,83.151207 
	C52.301666,81.670937 50.669121,80.190674 49.348045,78.298157 
	C50.437294,75.255203 51.215065,72.624481 51.993561,69.557297 
	C51.993343,67.082825 51.992401,65.044838 51.994278,62.568291 
	C51.664574,59.419823 51.332047,56.709911 50.999378,53.666660 
	C50.999424,52.888866 50.999619,52.444416 51.220451,51.809959 
	C51.625473,51.078255 51.809845,50.536552 51.994881,49.538567 
	C52.577843,41.853336 53.160149,34.624393 53.742451,27.395447 
	C53.229176,27.269009 52.715904,27.142570 52.202629,27.016132 
	C45.411297,31.848646 45.249420,40.645893 40.758926,47.191696 
	C39.678814,47.924191 38.843300,48.465687 38.007786,49.007183 
	C40.000278,44.204704 41.968868,39.392101 43.997620,34.604988 
	C44.755745,32.816086 45.318306,30.784283 46.565311,29.399147 
	C48.562557,27.180666 50.807110,24.603762 53.444771,23.788610 
	C54.758965,23.382469 57.177059,26.548319 59.095810,28.098389 
	C58.595028,28.270222 58.094242,28.442055 57.593460,28.613890 
	C57.063095,31.127651 56.532726,33.641411 56.003090,36.961758 
	C56.341084,39.165539 56.678345,40.562733 57.015606,41.959930 
	C56.685524,44.068180 56.355438,46.176426 55.629822,48.786369 
	C55.047642,55.969685 54.849972,62.651100 54.730743,69.333923 
	C54.727379,69.522606 55.560596,69.726212 56.003723,69.922859 
z"/>
<path fill="#D9BA83" opacity="1.000000" stroke="none" 
	d="
M38.003757,49.408264 
	C38.843300,48.465687 39.678814,47.924191 40.992962,47.443344 
	C41.492962,48.298409 41.747181,49.175724 41.498589,49.874039 
	C39.634499,55.110332 37.757668,60.345520 35.713474,65.513268 
	C33.844208,70.238808 34.834110,72.138718 39.974091,71.901749 
	C44.001102,71.716103 47.988075,70.662018 51.992840,69.993767 
	C51.215065,72.624481 50.437294,75.255203 49.273308,77.964279 
	C43.678585,75.707611 38.334011,75.411613 32.453529,77.004639 
	C32.019089,74.710213 31.503828,72.257439 32.065472,70.082802 
	C33.825367,63.268631 35.991173,56.559296 38.003757,49.408264 
z"/>
<path fill="#C5A97A" opacity="1.000000" stroke="none" 
	d="
M57.016312,41.643326 
	C56.678345,40.562733 56.341084,39.165539 56.004250,37.386505 
	C56.333122,37.797359 56.661568,38.590050 57.001152,39.722191 
	C57.013863,40.483330 57.015442,40.905025 57.016312,41.643326 
z"/>
<path fill="#BEBCBA" opacity="1.000000" stroke="none" 
	d="
M52.848824,87.780396 
	C50.110107,87.386658 47.183037,86.808090 44.341579,85.947014 
	C37.952904,84.010956 32.282570,85.997238 26.377865,88.959595 
	C30.566637,80.194061 45.214413,77.592224 52.848824,87.780396 
z"/>
<path fill="#C5A97A" opacity="1.000000" stroke="none" 
	d="
M53.946434,83.470642 
	C54.410534,82.490372 54.886856,81.829544 55.683434,81.126312 
	C55.826508,82.560844 55.649323,84.037758 55.218826,85.793633 
	C54.629894,85.311752 54.294273,84.550911 53.946434,83.470642 
z"/>
<path fill="#C5A97A" opacity="1.000000" stroke="none" 
	d="
M56.007370,69.462326 
	C55.560596,69.726212 54.727379,69.522606 54.730743,69.333923 
	C54.849972,62.651100 55.047642,55.969685 55.614491,49.191322 
	C56.000134,55.730316 56.005577,62.366051 56.007370,69.462326 
z"/>
<path fill="#BEBCBA" opacity="1.000000" stroke="none" 
	d="
M57.990017,93.997742 
	C57.547428,94.000984 57.104839,94.004227 56.330273,94.004585 
	C55.996601,93.545532 55.994907,93.089355 56.011745,92.290581 
	C56.844532,92.182426 57.658794,92.416878 58.449516,93.016724 
	C58.224075,93.547226 58.078754,93.752426 57.990017,93.997742 
z"/>
<path fill="#C5A97A" opacity="1.000000" stroke="none" 
	d="
M56.006493,73.613754 
	C55.530567,73.628220 55.058220,73.335823 54.585876,73.043427 
	C54.874790,72.740547 55.163704,72.437675 55.727859,72.107460 
	C56.005428,72.489044 56.007751,72.897972 56.006493,73.613754 
z"/>
<path fill="#B0ACA6" opacity="1.000000" stroke="none" 
	d="
M56.120190,90.846298 
	C55.689346,90.890099 55.431606,90.692398 55.132198,90.189621 
	C55.429276,90.205681 55.830196,90.445763 56.120190,90.846298 
z"/>
<path fill="#D5D5D5" opacity="1.000000" stroke="none" 
	d="
M58.201653,93.999329 
	C58.078754,93.752426 58.224075,93.547226 58.598408,93.306305 
	C58.770832,93.230484 58.839947,93.612762 58.838261,93.806808 
	C58.836575,94.000862 58.413288,94.000923 58.201653,93.999329 
z"/>
<path fill="#F0F0F0" opacity="1.000000" stroke="none" 
	d="
M25.367027,104.959351 
	C28.146662,101.106270 31.266216,97.195885 34.696499,93.146881 
	C34.693707,99.151794 29.123764,101.185120 25.367027,104.959351 
z"/>
<path fill="#F0F0F0" opacity="1.000000" stroke="none" 
	d="
M45.765175,92.225128 
	C47.638016,94.099640 49.307724,96.193634 50.983299,98.647278 
	C49.180126,96.819496 47.371086,94.632050 45.765175,92.225128 
z"/>
<path fill="#F0F0F0" opacity="1.000000" stroke="none" 
	d="
M21.682922,190.210083 
	C22.014198,189.995392 22.510038,189.993408 22.824987,190.407227 
	C23.413647,191.948685 23.813601,193.062210 23.941668,194.206161 
	C25.321487,206.531479 26.576975,218.871384 28.059732,231.184036 
	C28.473341,234.618591 29.266191,238.060989 30.345146,241.348816 
	C31.807529,245.805054 35.247551,248.173935 39.891808,247.712906 
	C44.282635,247.277008 47.719547,245.958527 48.630527,240.221893 
	C50.209324,230.279877 52.947372,220.518311 55.285137,210.701523 
	C57.536930,201.245773 55.229103,192.858093 49.043449,185.646973 
	C43.746609,179.472015 37.298519,176.164978 29.012091,179.986572 
	C28.702021,178.891342 28.391949,177.796112 28.026810,176.363388 
	C34.737274,174.825378 41.622463,173.500214 47.279903,178.925095 
	C55.988937,187.276169 61.081829,197.105606 58.597992,209.614594 
	C56.409721,220.635010 54.121452,231.635635 51.857529,242.640945 
	C50.818977,247.689484 45.017654,251.252136 38.532879,250.868073 
	C31.744276,250.466019 27.537067,247.307724 26.459328,240.600540 
	C24.076975,225.774185 22.056774,210.887604 20.093779,195.998566 
	C19.860176,194.226715 20.901360,192.286774 21.682922,190.210083 
z"/>
<path fill="#F8F8F8" opacity="1.000000" stroke="none" 
	d="
M29.007954,180.413391 
	C37.298519,176.164978 43.746609,179.472015 49.043449,185.646973 
	C55.229103,192.858093 57.536930,201.245773 55.285137,210.701523 
	C52.947372,220.518311 50.209324,230.279877 48.630527,240.221893 
	C47.719547,245.958527 44.282635,247.277008 39.891808,247.712906 
	C35.247551,248.173935 31.807529,245.805054 30.345146,241.348816 
	C29.266191,238.060989 28.473341,234.618591 28.059732,231.184036 
	C26.576975,218.871384 25.321487,206.531479 23.941668,194.206161 
	C23.813601,193.062210 23.413647,191.948685 23.072906,190.408386 
	C28.972929,189.543228 29.171560,185.311737 29.007954,180.413391 
z"/>
<path fill="#DFBF86" opacity="1.000000" stroke="none" 
	d="
M51.993561,69.557297 
	C47.988075,70.662018 44.001102,71.716103 39.974091,71.901749 
	C34.834110,72.138718 33.844208,70.238808 35.713474,65.513268 
	C37.757668,60.345520 39.634499,55.110332 41.498589,49.874039 
	C41.747181,49.175724 41.492962,48.298409 41.237556,47.252342 
	C45.249420,40.645893 45.411297,31.848646 52.202629,27.016132 
	C52.715904,27.142570 53.229176,27.269009 53.742451,27.395447 
	C53.160149,34.624393 52.577843,41.853336 51.723557,49.584473 
	C51.300983,50.724430 51.150398,51.362194 50.999809,51.999962 
	C50.999619,52.444416 50.999424,52.888866 50.746559,53.970196 
	C50.332386,57.524788 48.285538,60.778641 51.991459,63.006844 
	C51.992401,65.044838 51.993343,67.082825 51.993561,69.557297 
z"/>
<path fill="#D9BA83" opacity="1.000000" stroke="none" 
	d="
M51.994278,62.568291 
	C48.285538,60.778641 50.332386,57.524788 50.746704,54.303535 
	C51.332047,56.709911 51.664574,59.419823 51.994278,62.568291 
z"/>
<path fill="#D9BA83" opacity="1.000000" stroke="none" 
	d="
M51.220451,51.809959 
	C51.150398,51.362194 51.300983,50.724430 51.722897,50.040756 
	C51.809845,50.536552 51.625473,51.078255 51.220451,51.809959 
z"/>
</svg>