<svg version="1.1" id="Layer_1" xmlns="http://www.w3.org/2000/svg" xmlns:xlink="http://www.w3.org/1999/xlink" x="0px" y="0px"
	 width="100%" viewBox="0 0 91 405" enable-background="new 0 0 91 405" xml:space="preserve">
<path fill="#E5E5E5" opacity="1.000000" stroke="none" 
	d="
M78.778603,125.072113 
	C80.993729,131.931137 83.298988,138.762680 85.400375,145.656357 
	C87.839493,153.658005 84.525665,160.651810 78.358040,166.255219 
	C69.909248,173.931122 60.428593,174.449463 50.512569,171.878433 
	C45.372269,170.545654 40.408920,169.317505 35.069107,168.961884 
	C25.490593,168.324005 22.095715,160.822998 17.198923,152.893250 
	C11.926765,144.355652 16.111187,136.957199 14.552999,129.291931 
	C14.257976,127.840614 14.114068,126.358574 14.472891,124.531052 
	C16.387529,123.574585 17.729713,122.977783 19.316177,122.206772 
	C19.832081,121.740402 20.103706,121.448242 20.620436,121.158508 
	C21.191568,121.135185 21.515650,121.094086 22.277353,121.068069 
	C34.193565,120.086609 45.660370,118.936554 57.150826,118.118622 
	C63.298595,117.680992 68.796021,119.842667 73.843178,123.380219 
	C75.211433,124.339226 77.118721,124.529182 78.778603,125.072113 
M47.002071,146.001755 
	C47.002071,146.001755 46.989262,146.021240 46.879890,145.372040 
	C45.930725,145.567383 44.981560,145.762726 43.252850,145.978775 
	C36.920170,146.566574 33.788929,151.075806 30.479849,156.218964 
	C29.987879,156.480911 29.495909,156.742844 28.417938,157.324615 
	C26.891968,158.815140 26.104040,160.194885 29.446079,161.570816 
	C35.286808,162.702118 41.127533,163.833420 47.115730,165.589569 
	C47.678066,165.633591 48.707355,165.804382 48.734825,165.703201 
	C49.540287,162.736374 50.563400,159.773712 50.861546,156.742477 
	C51.078106,154.540695 50.314625,152.242508 49.984333,149.349686 
	C49.985657,148.924606 49.986980,148.499512 49.875053,147.380646 
	C48.911072,146.924301 47.947094,146.467957 47.002071,146.001755 
M19.970167,138.852478 
	C19.830921,140.497452 19.859600,142.178238 19.517967,143.780045 
	C18.774084,147.267899 20.142982,149.421387 24.048687,151.125488 
	C25.056028,143.871185 30.204021,140.610916 36.100819,138.576004 
	C36.667126,138.642532 37.233429,138.709076 37.799736,138.775604 
	C37.202549,137.518982 36.605362,136.262360 36.249023,134.412811 
	C36.497929,133.606949 36.746830,132.801086 37.676601,131.839127 
	C40.139755,128.569031 38.166775,127.314606 35.224438,127.083549 
	C33.133907,126.919388 30.983593,127.722633 28.861696,127.712959 
	C22.577988,127.684296 19.359545,131.320755 19.970167,138.852478 
M80.990166,152.233078 
	C79.688370,149.941742 78.386574,147.650421 77.084778,145.359085 
	C74.385971,146.903488 71.687172,148.447891 68.457115,150.513123 
	C67.337311,150.519394 66.117744,150.819519 65.115578,150.479294 
	C61.464260,149.239685 58.091953,149.929153 56.498600,153.265869 
	C55.340923,155.690231 54.672028,159.494125 55.820244,161.541763 
	C56.905445,163.477051 60.603527,164.045517 63.239971,164.963531 
	C64.274307,165.323685 65.555382,165.087082 66.709457,164.973541 
	C75.106750,164.147324 80.829102,159.334518 80.990166,152.233078 
M62.361862,123.705063 
	C61.241013,123.470352 60.120163,123.235634 58.111141,122.995972 
	C54.741085,122.664383 51.371029,122.332802 47.220852,121.996750 
	C45.882736,122.999619 43.870724,123.733948 43.342506,125.059540 
	C42.128529,128.106094 42.130783,131.676529 40.732914,134.601044 
	C38.786957,138.672226 39.894646,140.405731 44.760258,140.988037 
	C45.506691,140.994080 46.253120,141.000122 47.447720,141.547073 
	C49.964993,142.364914 52.482269,143.182755 55.704201,143.904892 
	C59.807137,141.275269 63.910069,138.645645 68.744942,135.994461 
	C72.826996,134.747772 74.064827,132.570496 71.013420,128.234070 
	C70.084518,123.526283 66.382141,124.058617 62.361862,123.705063 
M62.917137,143.029282 
	C62.903778,143.652954 62.890419,144.276611 62.877060,144.900284 
	C65.420158,144.113281 67.963264,143.326279 70.506371,142.539276 
	C70.372910,142.134338 70.239456,141.729401 70.106003,141.324463 
	C67.945656,141.855484 65.785309,142.386505 62.917137,143.029282 
M78.302078,137.052170 
	C78.190994,136.523056 78.079918,135.993927 77.968834,135.464813 
	C76.680580,136.566681 75.392326,137.668564 74.104080,138.770432 
	C74.419357,139.113998 74.734634,139.457565 75.049919,139.801147 
	C76.000847,139.052933 76.951782,138.304718 78.302078,137.052170 
M55.072536,146.324875 
	C54.570602,146.504486 54.068668,146.684097 53.566734,146.863708 
	C53.827801,147.166748 54.088871,147.469772 54.349934,147.772797 
	C54.721897,147.426331 55.093864,147.079865 55.072536,146.324875 
M40.496552,130.541870 
	C40.496552,130.541870 40.471275,130.486160 40.496552,130.541870 
z"/>
<path fill="#D2BB89" opacity="1.000000" stroke="none" 
	d="
M45.868523,270.941620 
	C45.741680,268.674591 45.614834,266.407562 45.428692,263.080688 
	C39.871284,267.099945 38.386234,271.577759 37.404243,276.940186 
	C36.250160,278.273132 35.640564,279.266052 35.030968,280.258972 
	C35.573223,280.537994 36.115486,280.817017 36.657745,281.096039 
	C36.282101,281.965271 35.906456,282.834473 35.041817,283.775879 
	C34.141502,283.900482 33.730183,283.952942 33.318867,284.005371 
	C33.599731,284.364349 33.880596,284.723297 34.161461,285.082275 
	C34.677071,286.401642 35.192680,287.721008 35.236309,287.832642 
	C33.316257,293.231934 31.570534,297.583038 30.244421,302.058533 
	C29.298178,305.252014 21.695042,311.036316 19.333084,309.361725 
	C16.797907,307.564331 14.660725,304.598663 13.458575,301.685303 
	C12.033941,298.232727 11.793456,294.291595 11.243214,290.224854 
	C11.913868,286.101257 12.443819,282.320343 12.766539,278.521851 
	C12.805632,278.061707 11.726680,277.506561 11.165901,276.995453 
	C11.926379,271.016510 12.646042,265.031982 13.464463,259.060974 
	C13.876834,256.052429 13.958577,252.850189 15.121380,250.134399 
	C16.297842,247.386673 18.242651,245.355957 17.254078,241.746262 
	C16.764828,239.959808 19.595715,237.488602 19.853283,235.206314 
	C20.084324,233.159058 18.848234,230.946243 18.507938,228.443741 
	C19.169594,228.069336 19.582691,228.057648 20.376663,228.047913 
	C21.516060,227.983124 22.274580,227.916382 23.379393,227.882004 
	C24.188066,227.878998 24.650452,227.843613 25.435257,227.921585 
	C26.838068,228.383469 27.918457,228.732010 28.989683,229.394806 
	C28.983337,230.129349 28.986156,230.549606 28.657000,230.972260 
	C27.882452,230.982559 27.439880,230.990494 26.657598,231.034561 
	C25.846601,232.382706 25.375313,233.694717 24.908623,235.368011 
	C24.901455,236.451645 24.889692,237.174042 24.549282,238.008087 
	C24.124632,239.748505 24.028627,241.377274 23.935207,243.371338 
	C23.932470,244.467209 23.927149,245.197769 23.565880,246.042358 
	C22.797518,246.996124 22.156294,247.797379 22.007685,248.681473 
	C20.311398,258.772797 17.765688,268.839233 17.353868,278.989685 
	C17.047756,286.534668 19.494240,294.200134 20.861004,301.785583 
	C20.958273,302.325439 22.259695,302.648346 23.303696,302.906250 
	C25.153513,300.437439 27.299622,298.334167 28.145443,295.797394 
	C31.986116,284.278473 35.460327,272.637360 39.442463,261.011169 
	C40.534077,260.250031 41.317253,259.571472 41.949085,258.773102 
	C42.860306,257.621674 43.661629,256.383301 44.509857,255.182007 
	C45.700180,256.389618 47.561661,257.418365 47.941082,258.842072 
	C48.730835,261.805542 48.735977,264.978088 49.061401,268.488098 
	C49.050854,270.605988 49.042469,272.300568 48.754822,274.291199 
	C47.987068,278.058136 47.498566,281.528961 46.675751,284.998596 
	C45.895718,284.992188 45.450005,284.986938 45.004753,284.581482 
	C44.388271,282.446320 43.771320,280.711365 43.154373,278.976410 
	C43.770489,277.223511 44.386600,275.470581 45.339958,273.326416 
	C46.184299,272.592285 46.691395,272.249420 47.198494,271.906555 
	C46.755165,271.584930 46.311840,271.263275 45.868523,270.941620 
z"/>
<path fill="#CBB184" opacity="1.000000" stroke="none" 
	d="
M45.004288,284.981689 
	C45.450005,284.986938 45.895718,284.992188 46.675102,285.456238 
	C47.012753,289.268494 47.016739,292.621979 47.012600,296.394531 
	C47.003948,297.476257 46.995209,298.139069 47.004227,298.801575 
	C47.063381,303.145874 49.332096,306.477264 53.288879,307.179535 
	C54.695381,307.429199 56.813759,303.726196 58.581711,301.804169 
	C58.791069,301.576569 58.838993,301.200470 59.126106,300.593750 
	C60.529339,297.531830 61.768227,294.769348 63.359650,291.933075 
	C67.712074,286.153290 68.175476,279.646393 67.992332,272.564209 
	C68.005745,270.425964 68.011833,268.714966 68.271118,266.743256 
	C68.374901,264.648621 68.225487,262.814697 68.064850,260.617249 
	C68.056679,259.528259 68.059731,258.802734 68.432549,257.956207 
	C69.195908,255.219971 69.589500,252.604782 69.990417,249.658676 
	C69.997536,248.886261 69.997322,248.444733 70.145813,247.686142 
	C70.521347,246.241455 70.748177,245.113831 70.983559,243.613831 
	C70.999756,242.496521 71.007408,241.751617 71.244270,240.822693 
	C71.635208,240.086563 71.796921,239.534409 71.971497,238.584412 
	C71.998207,237.125183 72.012054,236.063797 72.291641,234.708466 
	C72.713249,231.961502 72.869102,229.508484 73.332062,226.875076 
	C78.044922,223.999817 78.805641,224.333511 79.034859,229.061569 
	C77.686523,235.563858 75.944298,242.015991 75.107674,248.583466 
	C74.365326,254.410934 74.966850,260.402374 74.346436,266.254761 
	C73.800087,271.408508 72.307358,276.456421 71.397919,281.580444 
	C71.119400,283.149719 71.375740,284.816193 71.409065,286.437683 
	C71.429703,287.441711 71.913239,288.719299 71.467369,289.404510 
	C68.288811,294.289276 64.893951,299.032501 61.631767,303.863892 
	C59.979073,306.311615 58.728168,309.080719 56.820202,311.294861 
	C53.422733,315.237518 48.047806,313.688232 44.725731,309.633698 
	C41.198063,305.328186 43.700615,300.933685 42.933029,296.669281 
	C42.295502,293.127441 42.755417,289.388062 43.234291,285.373108 
	C44.161022,285.000580 44.582657,284.991119 45.004288,284.981689 
z"/>
<path fill="#D9D8D8" opacity="1.000000" stroke="none" 
	d="
M79.353729,228.894684 
	C78.805641,224.333511 78.044922,223.999817 72.993538,226.853897 
	C71.896225,227.016068 71.444534,227.019043 70.997787,226.689301 
	C71.011406,225.913513 71.020081,225.470428 71.238007,224.786407 
	C72.628479,223.694839 73.809708,222.844208 75.291420,221.837860 
	C77.058479,219.118713 78.525047,216.555267 79.997108,213.592529 
	C81.195450,208.112854 82.453606,203.046677 83.564102,197.948364 
	C84.861824,191.990494 82.145554,187.754868 76.169876,186.986938 
	C72.835533,186.558456 69.393188,186.970337 65.985054,186.619751 
	C65.024895,182.626968 62.666557,184.139008 60.579781,184.770508 
	C59.373714,185.135452 58.193810,185.586884 56.964928,185.718124 
	C56.282757,185.283386 55.637791,185.129929 54.660469,184.978577 
	C53.885002,184.986115 53.441891,184.991562 52.712326,185.043716 
	C52.121387,185.408829 51.816906,185.727249 51.512421,186.045654 
	C52.007412,186.365799 52.502411,186.685928 53.311760,187.152191 
	C56.055683,189.532547 58.485252,191.766754 60.768330,194.329041 
	C59.427711,197.261230 58.233582,199.865341 56.423473,203.812729 
	C55.764050,201.211548 55.220184,199.833771 55.088230,198.417618 
	C54.381321,190.831039 52.781738,188.951019 45.451454,187.039658 
	C41.613598,186.038956 37.881092,184.452560 33.991508,183.896225 
	C31.429876,183.529831 28.673086,184.527863 25.830120,184.701874 
	C25.142073,184.327972 24.627590,184.167130 24.113113,184.006271 
	C26.217955,182.199768 28.322796,180.393250 30.762693,179.026703 
	C31.616016,179.928879 32.134285,180.391083 32.652557,180.853287 
	C33.100330,180.134827 33.548107,179.416351 33.995884,178.697891 
	C37.229633,178.252304 40.486942,177.323730 42.780861,181.017853 
	C43.254871,181.781189 45.125751,181.982635 46.331600,181.932510 
	C51.252861,181.727921 56.161545,181.194504 61.083122,181.031006 
	C66.366539,180.855469 71.664894,180.804169 76.945755,180.997849 
	C80.196022,181.117035 86.241272,187.745056 86.576683,191.959412 
	C86.270782,196.795059 86.151566,200.949600 86.032341,205.104156 
	C86.570885,212.938644 82.245041,219.358429 79.883636,226.351959 
	C79.636391,227.084183 79.734650,227.933044 79.353729,228.894684 
z"/>
<path fill="#D1B486" opacity="1.000000" stroke="none" 
	d="
M21.837788,121.037659 
	C21.515650,121.094086 21.191568,121.135185 20.272169,121.112427 
	C19.447058,121.049431 19.215315,121.034950 18.920198,120.611755 
	C18.420843,116.615768 17.984865,113.028503 17.561058,109.541389 
	C16.775803,109.936996 15.728090,110.464836 14.680378,110.992676 
	C16.173231,102.219238 25.076126,98.632942 32.289906,103.619453 
	C34.753872,105.322662 37.904583,106.032387 41.396225,107.464584 
	C41.981281,106.382172 42.741024,104.609917 43.820797,103.060722 
	C45.658047,100.424744 47.435146,97.635307 49.794079,95.535645 
	C50.607170,94.811928 53.080990,95.953995 55.244057,96.782173 
	C63.063904,101.887405 66.443108,109.162727 68.654831,116.938095 
	C65.506119,115.944366 62.729130,114.990387 60.107834,113.708893 
	C59.245663,109.858635 58.805111,106.014069 57.065620,102.893593 
	C54.829094,98.881485 52.608723,99.328102 50.665867,103.538414 
	C47.084766,111.298927 40.603752,113.155441 33.119926,108.793015 
	C31.162222,107.651840 28.839754,106.676796 26.629040,106.542313 
	C23.675240,106.362640 21.030701,107.694527 22.763599,111.338387 
	C23.645494,113.192802 25.638762,114.518700 26.935076,116.368805 
	C25.106268,118.115280 23.472027,119.576469 21.837788,121.037659 
z"/>
<path fill="#B5B4B1" opacity="1.000000" stroke="none" 
	d="
M22.277351,121.068069 
	C23.472027,119.576469 25.106268,118.115280 27.370094,116.357483 
	C38.650501,115.386055 49.301323,114.711227 59.952145,114.036407 
	C62.729130,114.990387 65.506119,115.944366 68.783997,117.128555 
	C69.712448,116.566658 70.139992,115.774551 70.567535,114.982452 
	C73.368813,118.114845 76.170082,121.247238 78.874985,124.725876 
	C77.118721,124.529182 75.211433,124.339226 73.843178,123.380219 
	C68.796021,119.842667 63.298595,117.680992 57.150826,118.118622 
	C45.660370,118.936554 34.193565,120.086609 22.277351,121.068069 
z"/>
<path fill="#D6D6D6" opacity="1.000000" stroke="none" 
	d="
M19.995789,228.045975 
	C19.582691,228.057648 19.169594,228.069336 18.446884,228.066208 
	C14.686177,221.536636 12.323034,214.845718 14.190328,207.285202 
	C15.024637,203.907120 15.529623,200.447693 16.761332,197.207489 
	C18.208418,197.594559 19.078239,197.799362 19.957611,198.378265 
	C19.946987,199.500839 19.926813,200.249329 19.634476,201.237091 
	C16.127747,205.515305 15.910744,214.907913 18.992123,218.361862 
	C19.669353,220.481064 20.334982,222.240219 21.111235,224.256134 
	C21.478365,225.009018 21.734869,225.505142 21.676090,226.056351 
	C20.905800,226.756271 20.450794,227.401123 19.995789,228.045975 
z"/>
<path fill="#DABF91" opacity="1.000000" stroke="none" 
	d="
M70.413177,114.683563 
	C70.139992,115.774551 69.712448,116.566658 69.155724,117.168304 
	C66.443108,109.162727 63.063904,101.887405 55.507164,97.121307 
	C63.953793,96.645813 64.990868,104.140381 68.092712,109.476669 
	C68.985863,111.013214 69.546005,112.743317 70.413177,114.683563 
z"/>
<path fill="#E1E1E1" opacity="1.000000" stroke="none" 
	d="
M23.928991,184.319885 
	C24.627590,184.167130 25.142073,184.327972 25.676420,185.017365 
	C24.102184,188.367096 22.508081,191.188293 20.569851,194.008118 
	C19.537544,194.001663 18.849365,193.996536 18.161186,193.991425 
	C15.945753,188.439651 20.359959,186.843643 23.928991,184.319885 
z"/>
<path fill="#CCC8B4" opacity="1.000000" stroke="none" 
	d="
M14.402626,111.162247 
	C15.728090,110.464836 16.775803,109.936996 17.561058,109.541389 
	C17.984865,113.028503 18.420843,116.615768 18.939606,120.951958 
	C19.038891,121.927582 19.055393,122.154282 19.071896,122.380989 
	C17.729713,122.977783 16.387529,123.574585 14.693024,124.108856 
	C19.611090,119.717476 14.027352,115.572861 14.402626,111.162247 
z"/>
<path fill="#F4F4F4" opacity="1.000000" stroke="none" 
	d="
M86.387787,204.951599 
	C86.151566,200.949600 86.270782,196.795059 86.655807,192.339325 
	C90.012589,194.567490 89.919304,201.241394 86.387787,204.951599 
z"/>
<path fill="#F2A994" opacity="1.000000" stroke="none" 
	d="
M10.973532,277.375000 
	C11.726680,277.506561 12.805632,278.061707 12.766539,278.521851 
	C12.443819,282.320343 11.913868,286.101257 11.071445,289.953522 
	C10.724521,285.931213 10.752841,281.842896 10.973532,277.375000 
z"/>
<path fill="#CFBA93" opacity="1.000000" stroke="none" 
	d="
M45.004753,284.581482 
	C44.582657,284.991119 44.161022,285.000580 43.423294,285.019928 
	C43.039303,283.230774 42.971409,281.431732 43.028946,279.304535 
	C43.771320,280.711365 44.388271,282.446320 45.004753,284.581482 
z"/>
<path fill="#E1E1E1" opacity="1.000000" stroke="none" 
	d="
M33.621841,178.565277 
	C33.548107,179.416351 33.100330,180.134827 32.652557,180.853287 
	C32.134285,180.391083 31.616016,179.928879 31.049877,179.184784 
	C31.750603,178.746155 32.499203,178.589417 33.621841,178.565277 
z"/>
<path fill="#D5B88B" opacity="1.000000" stroke="none" 
	d="
M36.913540,280.764404 
	C36.115486,280.817017 35.573223,280.537994 35.030968,280.258972 
	C35.640564,279.266052 36.250160,278.273132 37.202419,277.206604 
	C37.419830,278.232880 37.294582,279.332825 36.913540,280.764404 
z"/>
<path fill="#E1E1E1" opacity="1.000000" stroke="none" 
	d="
M19.948063,198.004150 
	C19.078239,197.799362 18.208418,197.594559 17.130871,197.119049 
	C16.923147,196.848343 17.008270,196.420639 17.453690,196.210114 
	C18.890314,195.982910 19.881516,195.966248 20.880236,196.251160 
	C20.574524,197.036530 20.261293,197.520340 19.948063,198.004150 
z"/>
<path fill="#D6D6D6" opacity="1.000000" stroke="none" 
	d="
M20.872719,195.949585 
	C19.881516,195.966248 18.890314,195.982910 17.527321,196.004868 
	C17.414028,195.522568 17.672529,195.035004 18.046108,194.269424 
	C18.849365,193.996536 19.537544,194.001663 20.581203,194.331787 
	C20.915361,195.087738 20.894041,195.518661 20.872719,195.949585 
z"/>
<path fill="#E0C897" opacity="1.000000" stroke="none" 
	d="
M45.577957,271.074707 
	C46.311840,271.263275 46.755165,271.584930 47.198494,271.906555 
	C46.691395,272.249420 46.184299,272.592285 45.384666,272.966125 
	C45.157215,272.400696 45.222301,271.804230 45.577957,271.074707 
z"/>
<path fill="#E0C897" opacity="1.000000" stroke="none" 
	d="
M34.402618,285.010315 
	C33.880596,284.723297 33.599731,284.364349 33.318867,284.005371 
	C33.730183,283.952942 34.141502,283.900482 34.779419,283.954712 
	C34.885269,284.353699 34.764519,284.645996 34.402618,285.010315 
z"/>
<path fill="#FAFAFA" opacity="1.000000" stroke="none" 
	d="
M48.000969,122.001221 
	C51.371029,122.332802 54.741085,122.664383 58.624130,123.330627 
	C60.423801,123.773941 61.710487,123.882599 62.997169,123.991249 
	C66.382141,124.058617 70.084518,123.526283 70.702065,128.783691 
	C69.598137,131.560898 68.805573,133.788452 68.013000,136.016022 
	C63.910069,138.645645 59.807137,141.275269 55.280991,143.605103 
	C52.238369,142.538940 49.618961,141.772552 46.999554,141.006165 
	C46.253120,141.000122 45.506691,140.994080 44.333153,140.614243 
	C43.834267,138.661636 43.368938,136.975845 43.763683,135.523865 
	C45.001999,130.968994 46.564213,126.502151 48.000969,122.001221 
z"/>
<path fill="#F8F8F8" opacity="1.000000" stroke="none" 
	d="
M81.005699,152.997208 
	C80.829102,159.334518 75.106750,164.147324 66.709457,164.973541 
	C65.555382,165.087082 64.274307,165.323685 63.239971,164.963531 
	C60.603527,164.045517 56.905445,163.477051 55.820244,161.541763 
	C54.672028,159.494125 55.340923,155.690231 56.498600,153.265869 
	C58.091953,149.929153 61.464260,149.239685 65.115578,150.479294 
	C66.117744,150.819519 67.337311,150.519394 69.116180,150.244522 
	C74.443993,147.543701 77.650513,150.546768 81.005699,152.997208 
z"/>
<path fill="#F7F7F7" opacity="1.000000" stroke="none" 
	d="
M29.003939,157.004791 
	C29.495909,156.742844 29.987879,156.480911 31.082899,156.063568 
	C34.429562,153.806290 37.020760,151.445831 39.976418,149.703705 
	C41.634827,148.726212 43.896156,148.771622 45.885841,148.356171 
	C46.224319,150.049988 46.728096,151.730850 46.862183,153.440704 
	C47.058926,155.949524 46.991268,158.479065 47.026352,161.396851 
	C47.000378,162.850845 46.984322,163.907776 46.968262,164.964706 
	C41.127533,163.833420 35.286808,162.702118 29.218409,160.895447 
	C28.995138,159.148315 28.999538,158.076553 29.003939,157.004791 
z"/>
<path fill="#F7F7F7" opacity="1.000000" stroke="none" 
	d="
M36.995731,131.995224 
	C36.746830,132.801086 36.497929,133.606949 36.122341,135.078522 
	C35.983925,136.481796 35.972195,137.219376 35.960461,137.956940 
	C30.204021,140.610916 25.056028,143.871185 24.048687,151.125488 
	C20.142982,149.421387 18.774084,147.267899 19.517967,143.780045 
	C19.859600,142.178238 19.830921,140.497452 20.234356,138.227890 
	C22.026674,135.880920 23.390932,133.969681 25.115345,132.473541 
	C29.349068,128.800186 34.095654,128.703888 36.995731,131.995224 
z"/>
<path fill="#F0F0F0" opacity="1.000000" stroke="none" 
	d="
M47.036263,160.999786 
	C46.991268,158.479065 47.058926,155.949524 46.862183,153.440704 
	C46.728096,151.730850 46.224319,150.049988 45.885841,148.356171 
	C43.896156,148.771622 41.634827,148.726212 39.976418,149.703705 
	C37.020760,151.445831 34.429562,153.806290 31.337471,155.949524 
	C33.788929,151.075806 36.920170,146.566574 44.011414,145.982697 
	C45.509743,145.998154 46.249500,146.009705 46.989262,146.021240 
	C46.989262,146.021240 47.002071,146.001755 47.144688,146.288635 
	C48.187637,147.075134 49.087971,147.574783 49.988304,148.074432 
	C49.986980,148.499512 49.985657,148.924606 49.830883,150.032867 
	C48.797043,154.143951 47.916653,157.571869 47.036263,160.999786 
z"/>
<path fill="#F2F2F2" opacity="1.000000" stroke="none" 
	d="
M37.336166,131.917175 
	C34.095654,128.703888 29.349068,128.800186 25.115345,132.473541 
	C23.390932,133.969681 22.026674,135.880920 20.231901,137.806152 
	C19.359545,131.320755 22.577988,127.684296 28.861696,127.712959 
	C30.983593,127.722633 33.133907,126.919388 35.224438,127.083549 
	C38.166775,127.314606 40.139755,128.569031 37.336166,131.917175 
z"/>
<path fill="#F1F1F1" opacity="1.000000" stroke="none" 
	d="
M47.610909,121.998985 
	C46.564213,126.502151 45.001999,130.968994 43.763683,135.523865 
	C43.368938,136.975845 43.834267,138.661636 43.959946,140.610291 
	C39.894646,140.405731 38.786957,138.672226 40.732914,134.601044 
	C42.130783,131.676529 42.128529,128.106094 43.342506,125.059540 
	C43.870724,123.733948 45.882736,122.999619 47.610909,121.998985 
z"/>
<path fill="#F2F2F2" opacity="1.000000" stroke="none" 
	d="
M80.997932,152.615143 
	C77.650513,150.546768 74.443993,147.543701 69.381805,149.984100 
	C71.687172,148.447891 74.385971,146.903488 77.084778,145.359085 
	C78.386574,147.650421 79.688370,149.941742 80.997932,152.615143 
z"/>
<path fill="#DCDCDC" opacity="1.000000" stroke="none" 
	d="
M47.026352,161.396851 
	C47.916653,157.571869 48.797043,154.143951 49.832779,150.351669 
	C50.314625,152.242508 51.078106,154.540695 50.861546,156.742477 
	C50.563400,159.773712 49.540287,162.736374 48.734825,165.703201 
	C48.707355,165.804382 47.678066,165.633591 47.041996,165.277130 
	C46.984322,163.907776 47.000378,162.850845 47.026352,161.396851 
z"/>
<path fill="#F2F2F2" opacity="1.000000" stroke="none" 
	d="
M68.378975,136.005249 
	C68.805573,133.788452 69.598137,131.560898 70.712616,129.165039 
	C74.064827,132.570496 72.826996,134.747772 68.378975,136.005249 
z"/>
<path fill="#DCDCDC" opacity="1.000000" stroke="none" 
	d="
M63.271049,142.973389 
	C65.785309,142.386505 67.945656,141.855484 70.106003,141.324463 
	C70.239456,141.729401 70.372910,142.134338 70.506371,142.539276 
	C67.963264,143.326279 65.420158,144.113281 62.877060,144.900284 
	C62.890419,144.276611 62.903778,143.652954 63.271049,142.973389 
z"/>
<path fill="#F1F1F1" opacity="1.000000" stroke="none" 
	d="
M47.223637,141.276611 
	C49.618961,141.772552 52.238369,142.538940 54.928665,143.652954 
	C52.482269,143.182755 49.964993,142.364914 47.223637,141.276611 
z"/>
<path fill="#DCDCDC" opacity="1.000000" stroke="none" 
	d="
M78.102394,137.304337 
	C76.951782,138.304718 76.000847,139.052933 75.049919,139.801147 
	C74.734634,139.457565 74.419357,139.113998 74.104080,138.770432 
	C75.392326,137.668564 76.680580,136.566681 77.968834,135.464813 
	C78.079918,135.993927 78.190994,136.523056 78.102394,137.304337 
z"/>
<path fill="#DCDCDC" opacity="1.000000" stroke="none" 
	d="
M36.030640,138.266479 
	C35.972195,137.219376 35.983925,136.481796 36.001915,135.374985 
	C36.605362,136.262360 37.202549,137.518982 37.799736,138.775604 
	C37.233429,138.709076 36.667126,138.642532 36.030640,138.266479 
z"/>
<path fill="#F0F0F0" opacity="1.000000" stroke="none" 
	d="
M28.710938,157.164703 
	C28.999538,158.076553 28.995138,159.148315 28.982103,160.622864 
	C26.104040,160.194885 26.891968,158.815140 28.710938,157.164703 
z"/>
<path fill="#F1F1F1" opacity="1.000000" stroke="none" 
	d="
M62.679516,123.848160 
	C61.710487,123.882599 60.423801,123.773941 59.068214,123.333099 
	C60.120163,123.235634 61.241013,123.470352 62.679516,123.848160 
z"/>
<path fill="#DCDCDC" opacity="1.000000" stroke="none" 
	d="
M55.269180,146.529144 
	C55.093864,147.079865 54.721897,147.426331 54.349937,147.772797 
	C54.088871,147.469772 53.827801,147.166748 53.566734,146.863708 
	C54.068668,146.684097 54.570602,146.504486 55.269180,146.529144 
z"/>
<path fill="#DCDCDC" opacity="1.000000" stroke="none" 
	d="
M46.934578,145.696640 
	C46.249500,146.009705 45.509743,145.998154 44.401184,145.972336 
	C44.981560,145.762726 45.930725,145.567383 46.934578,145.696640 
z"/>
<path fill="#DCDCDC" opacity="1.000000" stroke="none" 
	d="
M49.931679,147.727539 
	C49.087971,147.574783 48.187637,147.075134 47.135208,146.293564 
	C47.947094,146.467957 48.911072,146.924301 49.931679,147.727539 
z"/>
<path fill="#F2F2F2" opacity="1.000000" stroke="none" 
	d="
M40.483913,130.514008 
	C40.471275,130.486160 40.496552,130.541870 40.483913,130.514008 
z"/>
<path fill="#B5B4B1" opacity="1.000000" stroke="none" 
	d="
M19.316177,122.206772 
	C19.055393,122.154282 19.038891,121.927582 19.002981,121.360672 
	C19.215315,121.034950 19.447058,121.049431 20.027065,121.109993 
	C20.103706,121.448242 19.832081,121.740402 19.316177,122.206772 
z"/>
<path fill="#F8F8F8" opacity="1.000000" stroke="none" 
	d="
M20.880236,196.251160 
	C20.894041,195.518661 20.915361,195.087738 20.925331,194.333145 
	C22.508081,191.188293 24.102184,188.367096 25.849983,185.230408 
	C28.673086,184.527863 31.429876,183.529831 33.991508,183.896225 
	C37.881092,184.452560 41.613598,186.038956 45.451454,187.039658 
	C52.781738,188.951019 54.381321,190.831039 55.088230,198.417618 
	C55.220184,199.833771 55.764050,201.211548 56.423473,203.812729 
	C58.233582,199.865341 59.427711,197.261230 61.067238,194.188553 
	C62.001617,192.803009 62.490604,191.886032 63.207458,190.790878 
	C63.625931,190.076599 63.816536,189.540497 64.268547,188.877472 
	C65.019806,188.168182 65.509659,187.585861 65.999512,187.003525 
	C69.393188,186.970337 72.835533,186.558456 76.169876,186.986938 
	C82.145554,187.754868 84.861824,191.990494 83.564102,197.948364 
	C82.453606,203.046677 81.195450,208.112854 79.659210,213.657104 
	C77.874199,216.745163 76.432564,219.369370 74.990936,221.993561 
	C73.809708,222.844208 72.628479,223.694839 70.881645,224.929626 
	C68.544380,225.536819 66.772720,225.759842 64.827652,225.678497 
	C61.186993,222.274292 57.294872,220.984314 52.820953,222.880951 
	C49.833916,224.147247 46.937027,225.626205 43.593967,227.070801 
	C39.447590,227.752319 35.707043,228.373032 31.594456,228.987549 
	C30.481226,229.014420 29.740038,229.047485 28.998848,229.080551 
	C27.918457,228.732010 26.838068,228.383469 25.420349,227.578613 
	C24.725201,226.078949 24.367384,225.035629 23.960968,223.642883 
	C22.615263,221.528427 21.318159,219.763382 20.003769,217.582870 
	C19.959867,211.777542 19.933252,206.387665 19.906637,200.997803 
	C19.926813,200.249329 19.946987,199.500839 19.957611,198.378265 
	C20.261293,197.520340 20.574524,197.036530 20.880236,196.251160 
z"/>
<path fill="#F3E0B0" opacity="1.000000" stroke="none" 
	d="
M63.007111,292.006866 
	C61.768227,294.769348 60.529339,297.531830 58.799950,300.608612 
	C57.873585,300.933380 57.437729,300.943878 56.738865,300.706055 
	C54.335808,299.950684 52.195751,299.443604 50.049660,298.614716 
	C50.036270,297.863892 50.028927,297.434906 50.279964,296.726166 
	C50.354103,291.363739 50.241081,286.277008 49.954506,281.200104 
	C49.818398,278.788818 49.351257,276.396179 49.034081,273.995117 
	C49.042469,272.300568 49.050854,270.605988 49.431023,268.358215 
	C52.511459,262.629028 50.927586,257.486298 48.940174,252.757690 
	C47.400288,249.093857 44.165092,249.234772 42.225826,252.774307 
	C40.821609,255.337265 40.095112,258.271545 39.066395,261.040222 
	C35.460327,272.637360 31.986116,284.278473 28.145443,295.797394 
	C27.299622,298.334167 25.153513,300.437439 23.156883,302.551453 
	C20.029757,293.324188 17.900600,284.333405 19.744663,274.692902 
	C21.563133,265.186218 22.562880,255.522934 23.921825,245.928345 
	C23.927149,245.197769 23.932470,244.467209 24.211521,243.108795 
	C24.616142,240.952774 24.747036,239.424606 24.877928,237.896423 
	C24.889692,237.174042 24.901455,236.451645 25.183578,235.176987 
	C25.968395,233.415955 26.482851,232.207184 26.997307,230.998444 
	C27.439880,230.990494 27.882452,230.982559 28.959461,231.250061 
	C38.574619,232.015991 47.552681,232.579880 56.539371,232.905334 
	C57.678848,232.946594 58.863556,231.738907 60.386677,231.068268 
	C61.467625,231.000610 62.189198,230.974548 63.096638,231.257782 
	C66.084190,233.108200 68.476036,234.856293 68.044907,238.650848 
	C67.843880,240.420227 68.045898,242.235382 68.050110,244.399963 
	C68.031319,245.511963 68.027641,246.253769 67.885849,247.287582 
	C67.519356,248.396500 67.290985,249.213425 67.051521,250.456604 
	C67.031250,252.589310 67.022087,254.295776 66.760742,256.244476 
	C66.663658,257.990021 66.818771,259.493347 66.975388,261.411163 
	C66.968903,263.204254 66.960907,264.582794 66.586060,266.072388 
	C65.824394,268.461334 65.429596,270.739258 65.028320,273.415680 
	C65.017853,274.877014 65.013878,275.939819 64.753632,277.249939 
	C64.344101,278.669952 64.190849,279.842743 64.030754,281.440887 
	C64.007576,283.568481 63.991238,285.270660 63.664673,287.036255 
	C63.221500,288.068695 63.088558,289.037720 62.957581,290.340210 
	C62.975399,291.118073 62.991257,291.562469 63.007111,292.006866 
z"/>
<path fill="#E5D0A3" opacity="1.000000" stroke="none" 
	d="
M23.565880,246.042358 
	C22.562880,255.522934 21.563133,265.186218 19.744663,274.692902 
	C17.900600,284.333405 20.029757,293.324188 22.854397,302.717346 
	C22.259695,302.648346 20.958273,302.325439 20.861004,301.785583 
	C19.494240,294.200134 17.047756,286.534668 17.353868,278.989685 
	C17.765688,268.839233 20.311398,258.772797 22.007685,248.681473 
	C22.156294,247.797379 22.797518,246.996124 23.565880,246.042358 
z"/>
<path fill="#E0C897" opacity="1.000000" stroke="none" 
	d="
M39.442459,261.011169 
	C40.095112,258.271545 40.821609,255.337265 42.225826,252.774307 
	C44.165092,249.234772 47.400288,249.093857 48.940174,252.757690 
	C50.927586,257.486298 52.511459,262.629028 49.433186,267.934845 
	C48.735977,264.978088 48.730835,261.805542 47.941082,258.842072 
	C47.561661,257.418365 45.700180,256.389618 44.509857,255.182007 
	C43.661629,256.383301 42.860306,257.621674 41.949085,258.773102 
	C41.317253,259.571472 40.534077,260.250031 39.442459,261.011169 
z"/>
<path fill="#E5D0A3" opacity="1.000000" stroke="none" 
	d="
M60.027306,231.109863 
	C58.863556,231.738907 57.678848,232.946594 56.539371,232.905334 
	C47.552681,232.579880 38.574619,232.015991 29.291439,231.247681 
	C28.986156,230.549606 28.983337,230.129349 28.989683,229.394806 
	C29.740038,229.047485 30.481226,229.014420 31.882273,229.261795 
	C41.703857,230.064789 50.865582,230.587326 60.027306,231.109863 
z"/>
<path fill="#E0C897" opacity="1.000000" stroke="none" 
	d="
M48.754822,274.291199 
	C49.351257,276.396179 49.818398,278.788818 49.954506,281.200104 
	C50.241081,286.277008 50.354103,291.363739 49.985146,296.599060 
	C48.628201,296.492950 47.824463,296.234192 47.020725,295.975433 
	C47.016739,292.621979 47.012753,289.268494 47.009415,285.457428 
	C47.498566,281.528961 47.987068,278.058136 48.754822,274.291199 
z"/>
<path fill="#E1E1E1" opacity="1.000000" stroke="none" 
	d="
M24.009567,223.992294 
	C24.367384,225.035629 24.725201,226.078949 25.097927,227.465271 
	C24.650452,227.843613 24.188066,227.878998 23.337334,227.609055 
	C22.629780,226.869583 22.310575,226.435440 21.991371,226.001282 
	C21.734869,225.505142 21.478365,225.009018 21.487236,224.255585 
	C22.504929,223.996292 23.257250,223.994293 24.009567,223.992294 
z"/>
<path fill="#E5D0A3" opacity="1.000000" stroke="none" 
	d="
M24.549282,238.008087 
	C24.747036,239.424606 24.616142,240.952774 24.208935,242.743500 
	C24.028627,241.377274 24.124632,239.748505 24.549282,238.008087 
z"/>
<path fill="#E5D0A3" opacity="1.000000" stroke="none" 
	d="
M26.657597,231.034546 
	C26.482851,232.207184 25.968395,233.415955 25.178982,234.815735 
	C25.375313,233.694717 25.846601,232.382706 26.657597,231.034546 
z"/>
<path fill="#D7D6D6" opacity="1.000000" stroke="none" 
	d="
M21.676086,226.056351 
	C22.310575,226.435440 22.629780,226.869583 22.991043,227.576691 
	C22.274580,227.916382 21.516060,227.983124 20.376663,228.047913 
	C20.450794,227.401123 20.905800,226.756271 21.676086,226.056351 
z"/>
<path fill="#D2BB89" opacity="1.000000" stroke="none" 
	d="
M47.012600,296.394531 
	C47.824463,296.234192 48.628201,296.492950 49.726761,296.878784 
	C50.028927,297.434906 50.036270,297.863892 50.070419,298.963684 
	C53.215157,304.658661 53.777027,304.766083 57.001869,300.954346 
	C57.437729,300.943878 57.873585,300.933380 58.635597,300.908081 
	C58.838993,301.200470 58.791069,301.576569 58.581711,301.804169 
	C56.813759,303.726196 54.695381,307.429199 53.288879,307.179535 
	C49.332096,306.477264 47.063381,303.145874 47.004227,298.801575 
	C46.995209,298.139069 47.003948,297.476257 47.012600,296.394531 
z"/>
<path fill="#E5D0A3" opacity="1.000000" stroke="none" 
	d="
M68.065224,244.029785 
	C68.045898,242.235382 67.843880,240.420227 68.044907,238.650848 
	C68.476036,234.856293 66.084190,233.108200 63.346405,231.021637 
	C64.938377,229.989410 66.466446,229.502655 68.044937,229.365173 
	C69.405533,231.477112 70.715714,233.239761 72.025894,235.002411 
	C72.012054,236.063797 71.998207,237.125183 71.694794,238.628510 
	C71.275169,239.715866 71.145111,240.361282 71.015060,241.006699 
	C71.007408,241.751617 70.999756,242.496521 70.619545,243.617004 
	C69.519730,244.004990 68.792480,244.017380 68.065224,244.029785 
z"/>
<path fill="#E0C897" opacity="1.000000" stroke="none" 
	d="
M65.009903,277.002655 
	C65.013878,275.939819 65.017853,274.877014 65.396530,273.411072 
	C66.509148,273.002472 67.247086,272.996948 67.985016,272.991455 
	C68.175476,279.646393 67.712074,286.153290 63.359646,291.933075 
	C62.991257,291.562469 62.975399,291.118073 63.213997,290.122009 
	C63.637268,288.704529 63.806084,287.838715 63.974899,286.972870 
	C63.991238,285.270660 64.007576,283.568481 64.357574,281.365417 
	C64.797447,279.577271 64.903671,278.289948 65.009903,277.002655 
z"/>
<path fill="#E0C897" opacity="1.000000" stroke="none" 
	d="
M72.291641,234.708466 
	C70.715714,233.239761 69.405533,231.477112 68.314316,229.221375 
	C69.353142,228.159546 70.172997,227.590790 70.992859,227.022018 
	C71.444534,227.019043 71.896225,227.016068 72.686432,227.034271 
	C72.869102,229.508484 72.713249,231.961502 72.291641,234.708466 
z"/>
<path fill="#E0C897" opacity="1.000000" stroke="none" 
	d="
M67.012924,256.002228 
	C67.022087,254.295776 67.031250,252.589310 67.415451,250.447830 
	C68.521347,250.005066 69.252228,249.997330 69.983093,249.989578 
	C69.589500,252.604782 69.195908,255.219971 68.384674,257.654175 
	C67.649002,256.982880 67.330963,256.492554 67.012924,256.002228 
z"/>
<path fill="#E5D0A3" opacity="1.000000" stroke="none" 
	d="
M67.992332,272.564209 
	C67.247086,272.996948 66.509148,273.002472 65.403015,273.012573 
	C65.429596,270.739258 65.824394,268.461334 66.718185,266.290131 
	C67.484093,266.599213 67.751007,266.801575 68.017921,267.003937 
	C68.011833,268.714966 68.005745,270.425964 67.992332,272.564209 
z"/>
<path fill="#E0C897" opacity="1.000000" stroke="none" 
	d="
M68.271118,266.743256 
	C67.751007,266.801575 67.484093,266.599213 67.085052,266.179108 
	C66.960907,264.582794 66.968903,263.204254 67.251114,261.409485 
	C67.708916,260.989136 67.892494,260.984955 68.076073,260.980743 
	C68.225487,262.814697 68.374901,264.648621 68.271118,266.743256 
z"/>
<path fill="#E0C897" opacity="1.000000" stroke="none" 
	d="
M68.050110,244.399963 
	C68.792480,244.017380 69.519730,244.004990 70.611000,243.989410 
	C70.748177,245.113831 70.521347,246.241455 69.891914,247.574127 
	C69.000870,247.517990 68.512421,247.256790 68.023972,246.995575 
	C68.027641,246.253769 68.031319,245.511963 68.050110,244.399963 
z"/>
<path fill="#E5D0A3" opacity="1.000000" stroke="none" 
	d="
M68.064850,260.617249 
	C67.892494,260.984955 67.708916,260.989136 67.249611,260.994965 
	C66.818771,259.493347 66.663658,257.990021 66.760742,256.244476 
	C67.330963,256.492554 67.649002,256.982880 68.014915,257.775208 
	C68.059731,258.802734 68.056679,259.528259 68.064850,260.617249 
z"/>
<path fill="#E5D0A3" opacity="1.000000" stroke="none" 
	d="
M67.885849,247.287567 
	C68.512421,247.256790 69.000870,247.517990 69.743210,247.891205 
	C69.997322,248.444733 69.997536,248.886261 69.990425,249.658676 
	C69.252228,249.997330 68.521347,250.005066 67.426544,250.021576 
	C67.290985,249.213425 67.519356,248.396500 67.885849,247.287567 
z"/>
<path fill="#E0C897" opacity="1.000000" stroke="none" 
	d="
M71.244278,240.822693 
	C71.145111,240.361282 71.275169,239.715866 71.681931,239.026367 
	C71.796921,239.534409 71.635208,240.086563 71.244278,240.822693 
z"/>
<path fill="#E8E8E8" opacity="1.000000" stroke="none" 
	d="
M70.997787,226.689301 
	C70.172997,227.590790 69.353142,228.159546 68.263901,228.872101 
	C66.466446,229.502655 64.938377,229.989410 63.160538,230.712311 
	C62.189198,230.974548 61.467625,231.000610 60.386681,231.068268 
	C50.865582,230.587326 41.703857,230.064789 32.254314,229.268005 
	C35.707043,228.373032 39.447590,227.752319 43.863937,227.327576 
	C48.966385,227.348969 53.398346,227.255814 57.817566,226.967377 
	C60.223232,226.810364 62.607265,226.321854 65.001060,225.982864 
	C66.772720,225.759842 68.544380,225.536819 70.672401,225.170563 
	C71.020081,225.470428 71.011406,225.913513 70.997787,226.689301 
z"/>
<path fill="#E8E8E8" opacity="1.000000" stroke="none" 
	d="
M65.985054,186.619751 
	C65.509659,187.585861 65.019806,188.168182 64.078453,188.673828 
	C63.411163,189.387787 63.195377,190.178436 62.979591,190.969070 
	C62.490604,191.886032 62.001617,192.803009 61.213726,193.860474 
	C58.485252,191.766754 56.055683,189.532547 53.312683,186.817291 
	C52.999096,185.889847 52.998940,185.443436 52.998779,184.997025 
	C53.441891,184.991562 53.885002,184.986115 54.840488,185.213959 
	C55.902618,185.631317 56.452374,185.815353 57.002129,185.999405 
	C58.193810,185.586884 59.373714,185.135452 60.579781,184.770508 
	C62.666557,184.139008 65.024895,182.626968 65.985054,186.619751 
z"/>
<path fill="#E8E8E8" opacity="1.000000" stroke="none" 
	d="
M75.291412,221.837860 
	C76.432564,219.369370 77.874199,216.745163 79.653732,214.056396 
	C78.525047,216.555267 77.058479,219.118713 75.291412,221.837860 
z"/>
<path fill="#E4E4E4" opacity="1.000000" stroke="none" 
	d="
M52.712326,185.043716 
	C52.998940,185.443436 52.999096,185.889847 52.998333,186.671158 
	C52.502411,186.685928 52.007412,186.365799 51.512421,186.045654 
	C51.816906,185.727249 52.121387,185.408829 52.712326,185.043716 
z"/>
<path fill="#E4E4E4" opacity="1.000000" stroke="none" 
	d="
M56.964924,185.718124 
	C56.452374,185.815353 55.902618,185.631317 55.172844,185.211884 
	C55.637791,185.129929 56.282757,185.283386 56.964924,185.718124 
z"/>
<path fill="#DDBD85" opacity="1.000000" stroke="none" 
	d="
M60.107834,113.708893 
	C49.301323,114.711227 38.650501,115.386055 27.564663,116.072197 
	C25.638762,114.518700 23.645494,113.192802 22.763599,111.338387 
	C21.030701,107.694527 23.675240,106.362640 26.629040,106.542313 
	C28.839754,106.676796 31.162222,107.651840 33.119926,108.793015 
	C40.603752,113.155441 47.084766,111.298927 50.665867,103.538414 
	C52.608723,99.328102 54.829094,98.881485 57.065620,102.893593 
	C58.805111,106.014069 59.245663,109.858635 60.107834,113.708893 
z"/>
<path fill="#E1E1E1" opacity="1.000000" stroke="none" 
	d="
M19.634476,201.237091 
	C19.933252,206.387665 19.959867,211.777542 19.743507,217.583496 
	C19.327192,218.000320 19.153854,218.001083 18.980518,218.001831 
	C15.910744,214.907913 16.127747,205.515305 19.634476,201.237091 
z"/>
<path fill="#E9EAE9" opacity="1.000000" stroke="none" 
	d="
M18.992123,218.361862 
	C19.153854,218.001083 19.327192,218.000320 19.760794,217.998962 
	C21.318159,219.763382 22.615263,221.528427 23.960968,223.642883 
	C23.257250,223.994293 22.504929,223.996292 21.376610,223.998840 
	C20.334982,222.240219 19.669353,220.481064 18.992123,218.361862 
z"/>
<path fill="#F1F1F1" opacity="1.000000" stroke="none" 
	d="
M64.827652,225.678497 
	C62.607265,226.321854 60.223232,226.810364 57.817566,226.967377 
	C53.398346,227.255814 48.966385,227.348969 44.269768,227.266785 
	C46.937027,225.626205 49.833916,224.147247 52.820953,222.880951 
	C57.294872,220.984314 61.186993,222.274292 64.827652,225.678497 
z"/>
<path fill="#D9D8D8" opacity="1.000000" stroke="none" 
	d="
M63.207458,190.790878 
	C63.195377,190.178436 63.411163,189.387787 63.817047,188.800781 
	C63.816536,189.540497 63.625931,190.076599 63.207458,190.790878 
z"/>
<path fill="#E0C897" opacity="1.000000" stroke="none" 
	d="
M56.738865,300.706055 
	C53.777027,304.766083 53.215157,304.658661 50.076458,299.285461 
	C52.195751,299.443604 54.335808,299.950684 56.738865,300.706055 
z"/>
<path fill="#E5D0A3" opacity="1.000000" stroke="none" 
	d="
M64.753632,277.249939 
	C64.903671,278.289948 64.797447,279.577271 64.364410,280.940033 
	C64.190849,279.842743 64.344101,278.669952 64.753632,277.249939 
z"/>
<path fill="#E5D0A3" opacity="1.000000" stroke="none" 
	d="
M63.664673,287.036255 
	C63.806084,287.838715 63.637268,288.704529 63.212036,289.788574 
	C63.088558,289.037720 63.221500,288.068695 63.664673,287.036255 
z"/>
</svg>