<svg version="1.1" id="Layer_1" xmlns="http://www.w3.org/2000/svg" xmlns:xlink="http://www.w3.org/1999/xlink" x="0px" y="0px"
	 width="100%" viewBox="0 0 91 405" enable-background="new 0 0 91 405" xml:space="preserve">
<path fill="#E3E3E3" opacity="1.000000" stroke="none" 
	d="
M87.327629,134.080475 
	C85.969177,139.039062 84.471535,143.964600 83.283188,148.963638 
	C81.234268,157.582825 74.866028,162.052185 67.381638,164.940552 
	C63.196117,166.555817 58.477802,167.060715 53.946545,167.452118 
	C45.242691,168.203949 36.503956,168.858475 27.774460,168.931961 
	C15.976853,169.031296 6.699514,162.660995 3.755211,152.956268 
	C3.149488,150.959747 3.318624,148.740387 2.946509,146.656616 
	C2.678785,145.157410 2.105139,143.712814 1.333977,142.621933 
	C1.000000,141.285645 1.000000,139.571289 1.000000,137.428467 
	C1.659582,136.120361 2.717450,135.320267 2.911645,134.347702 
	C3.892314,129.436295 4.648147,124.479996 6.015106,119.264343 
	C6.718555,118.978821 6.889748,118.968384 7.378558,118.904541 
	C9.172207,117.664787 10.648237,116.478447 12.107121,115.690880 
	C12.057693,117.726730 12.025413,119.363800 11.731705,121.278214 
	C11.647645,124.369759 11.825013,127.183960 11.702850,130.053513 
	C11.275970,130.704666 10.922327,131.764069 11.054353,131.828522 
	C14.373236,133.448578 17.718506,135.024979 21.139740,136.409958 
	C21.509998,136.559845 22.372234,135.494431 23.397268,134.992554 
	C25.866316,135.634064 27.944359,136.275742 30.009741,137.270905 
	C29.990730,138.095581 29.984379,138.566803 29.619904,139.193954 
	C24.709007,139.688126 20.129469,139.838684 15.620208,140.481918 
	C14.311893,140.668549 12.467244,142.070724 12.153250,143.256027 
	C11.412823,146.051056 11.669942,149.094849 11.109597,151.956970 
	C10.393153,155.616394 11.942344,158.100952 14.666110,160.073837 
	C21.542917,165.054932 29.436924,166.331314 37.665016,165.929123 
	C40.618538,165.784744 43.191784,164.928955 42.513687,160.759186 
	C42.334602,159.657974 44.081436,158.243576 45.196915,157.204941 
	C45.942860,158.463058 46.435802,159.489212 46.928745,160.515366 
	C47.266426,160.394913 47.604111,160.274460 47.941792,160.153992 
	C47.189499,156.907532 46.437210,153.661087 45.684917,150.414627 
	C45.234158,150.501846 44.783394,150.589050 44.332630,150.676270 
	C44.534481,152.143845 44.736332,153.611404 44.573029,155.004486 
	C41.008083,154.179962 40.001888,152.895340 40.429077,149.037628 
	C40.699867,146.592285 37.341919,143.630783 35.350159,141.106888 
	C34.580154,140.131180 33.088741,139.724762 32.392090,139.038483 
	C36.244625,139.008316 39.631062,138.998627 43.009811,138.995819 
	C43.002125,139.002686 43.002476,138.983337 43.225082,139.272079 
	C44.633873,141.707001 45.820057,143.853195 47.255310,146.267624 
	C48.981941,149.994278 50.369579,153.494537 51.955318,156.902603 
	C55.535301,164.596741 57.572678,165.778259 65.188828,162.620178 
	C69.911133,160.662064 75.817978,159.370483 77.774284,153.726074 
	C79.646324,148.324783 80.605843,142.607239 82.306839,136.973572 
	C83.440651,135.934982 84.234062,134.951508 85.315613,133.968857 
	C86.178391,134.006607 86.753006,134.043549 87.327629,134.080475 
z"/>
<path fill="#DBDAD9" opacity="1.000000" stroke="none" 
	d="
M1.000001,194.466858 
	C1.610726,193.706696 2.630256,193.543854 2.771682,193.100754 
	C5.481490,184.610596 7.605802,183.025909 16.536861,182.945297 
	C18.028072,182.931839 19.517763,182.749786 21.427258,183.039810 
	C20.230537,184.618088 18.614716,185.802200 16.998014,187.250519 
	C16.997873,187.690735 16.998615,187.866760 16.666155,188.030045 
	C15.888565,188.003601 15.444180,187.989899 14.791222,187.745789 
	C13.689551,187.958115 12.796454,188.400864 11.593552,188.900146 
	C10.521614,189.303619 9.759481,189.650528 8.681368,190.172867 
	C7.265848,193.901138 4.883132,197.617981 5.312210,200.975464 
	C6.503460,210.296890 8.537010,219.556839 10.978428,228.642029 
	C11.644003,231.118820 14.927425,232.892136 17.391193,235.006439 
	C19.513184,235.356491 21.253414,235.688385 22.995987,236.356003 
	C22.997728,237.140198 22.997126,237.588669 22.638271,238.078552 
	C21.567781,238.193741 20.855547,238.267517 19.757839,238.264328 
	C18.590021,238.128998 17.807676,238.070648 16.684711,237.853180 
	C12.647242,235.949768 11.845410,237.985672 11.879558,241.113159 
	C6.721935,232.388290 4.306989,222.803818 2.941302,212.872589 
	C2.774672,211.660843 2.123000,210.515808 1.348057,209.669922 
	C1.000000,204.977905 1.000000,199.955811 1.000001,194.466858 
z"/>
<path fill="#CEB588" opacity="1.000000" stroke="none" 
	d="
M11.893866,241.078918 
	C11.845410,237.985672 12.647242,235.949768 16.665009,238.224060 
	C16.234297,244.353241 17.772392,249.163528 21.943199,253.431488 
	C22.008224,254.505417 22.050045,255.222549 22.114407,256.336243 
	C23.385559,260.186676 24.634171,263.640594 25.884977,267.411499 
	C25.888945,268.151215 25.890717,268.573944 25.652462,269.280212 
	C25.037926,273.578217 24.959145,277.496124 28.870058,280.434357 
	C28.906115,281.179504 28.930429,281.605103 28.958370,282.430328 
	C31.419947,289.207001 33.490700,295.773834 36.486794,301.887177 
	C38.177158,305.336243 41.391037,308.038666 43.934418,311.308777 
	C43.950203,311.540131 43.996761,312.001556 44.035194,312.358124 
	C46.420292,315.509705 48.350456,318.872986 51.209675,320.968719 
	C55.679043,324.244690 57.235462,323.286926 56.944870,317.613892 
	C56.609722,311.070923 55.655403,304.559631 54.980103,297.612000 
	C53.652283,291.124237 52.314323,285.059052 50.973877,278.668152 
	C50.968895,277.908142 50.966404,277.473816 50.976891,276.594879 
	C51.300709,273.537384 51.432541,270.885956 51.984352,268.325012 
	C52.362091,266.571960 53.324802,264.944916 54.026005,263.261536 
	C55.419308,264.657928 57.092995,265.873230 58.139332,267.493683 
	C59.658131,269.845825 60.723999,272.490387 61.984955,275.342041 
	C61.985863,276.116150 61.984859,276.558533 61.712791,277.313141 
	C61.326122,281.532349 60.800922,285.483917 61.219944,289.332672 
	C61.577835,292.619904 63.019863,295.789093 63.984619,299.342041 
	C63.986286,300.115601 63.985676,300.557648 63.744621,301.226379 
	C63.677322,302.637573 63.850468,303.822083 64.027229,305.336548 
	C64.038872,306.106445 64.046906,306.546387 63.793251,306.991364 
	C63.357082,306.997650 63.182598,306.998840 62.844032,306.784027 
	C62.183868,306.399780 61.687790,306.231506 61.148163,305.634094 
	C59.121628,293.911621 57.138638,282.618286 55.155647,271.324951 
	C54.696983,271.398071 54.238323,271.471191 53.779659,271.544312 
	C54.063808,275.160645 54.087696,278.820374 54.681736,282.385071 
	C56.351704,292.406158 58.265297,302.386475 60.063850,312.386292 
	C60.698730,315.916168 61.278717,319.455902 61.883774,322.991150 
	C58.856010,328.410278 51.485710,328.581360 47.833115,323.586273 
	C44.424110,318.924286 40.223804,314.820404 37.003536,310.044891 
	C28.307850,297.149597 21.967974,283.131836 20.454901,267.522034 
	C19.580790,258.504120 15.318833,250.863663 12.467456,242.156464 
	C12.268053,241.462830 12.051209,241.257584 11.834362,241.052338 
	C11.834359,241.052338 11.908174,241.044662 11.893866,241.078918 
z"/>
<path fill="#CDB588" opacity="1.000000" stroke="none" 
	d="
M83.263390,235.967499 
	C82.236328,245.725632 81.209267,255.483749 79.803802,265.942749 
	C79.176956,275.735260 78.928505,284.826874 78.680061,293.918518 
	C78.632271,294.381836 78.584480,294.845123 78.167877,295.778503 
	C77.855881,297.794098 77.912704,299.339630 77.969528,300.885193 
	C77.006332,306.067200 76.043144,311.249237 74.707085,316.939331 
	C74.223358,317.910675 74.112518,318.373962 74.001663,318.837250 
	C73.800346,319.131836 73.599030,319.426453 72.937523,319.678650 
	C72.310234,319.095734 72.143135,318.555206 72.210434,317.826447 
	C72.619347,317.075989 72.793854,316.513733 72.973221,315.748291 
	C72.978073,315.545135 72.999176,315.138062 73.003677,314.685547 
	C73.678116,305.984528 74.366547,297.737518 75.010567,289.487030 
	C75.358398,285.031006 75.752129,280.573242 75.905098,276.108704 
	C76.089005,270.741180 76.038887,265.365631 76.084869,259.629639 
	C76.085457,258.537872 76.091270,257.809998 76.470146,256.944763 
	C77.237442,252.821487 78.031815,248.818176 77.859131,244.857040 
	C77.771217,242.840332 75.944641,240.899414 75.149773,238.676880 
	C78.018158,237.608856 80.640778,236.788177 83.263390,235.967499 
z"/>
<path fill="#B9B7B4" opacity="1.000000" stroke="none" 
	d="
M12.124268,115.292107 
	C10.648237,116.478447 9.172207,117.664787 7.425895,118.520775 
	C7.410696,116.927879 7.665778,115.665337 7.920860,114.402794 
	C7.920860,114.402794 7.959896,114.043045 8.387172,113.908752 
	C9.223049,113.257431 9.631650,112.740395 10.040253,112.223358 
	C11.392598,110.749718 12.744944,109.276077 14.612340,107.948975 
	C16.419075,107.786758 17.710760,107.478004 19.380943,107.120636 
	C22.845150,106.043251 25.930857,105.014488 29.394697,103.946274 
	C31.529694,103.578674 33.286556,103.250519 35.483284,102.939560 
	C38.271172,102.916985 40.619194,102.877205 43.398720,102.881714 
	C45.561817,102.892021 47.293407,102.858040 49.484180,102.860336 
	C56.285519,103.598129 62.627682,104.299637 69.333321,105.021271 
	C70.419922,105.052345 71.143051,105.063278 71.962372,105.403816 
	C74.743431,106.797478 77.428276,107.861534 80.113129,108.925583 
	C81.924149,110.763496 83.735168,112.601410 85.529411,114.864319 
	C85.387123,115.625725 85.513893,115.855865 85.892960,115.979721 
	C85.950325,117.032181 86.007698,118.084641 85.761391,119.537201 
	C84.978470,119.953331 84.499229,119.969353 83.950897,119.648254 
	C80.976913,116.822662 78.072014,114.334213 75.044060,111.513290 
	C66.791107,106.665367 58.106701,105.489937 48.635796,106.884171 
	C47.552498,106.884346 46.830288,106.877251 45.978691,106.523651 
	C43.339382,104.486649 40.949738,104.015114 38.480721,106.874161 
	C36.716404,106.900406 35.359100,106.916557 33.819359,106.736938 
	C33.051685,106.982018 32.466450,107.422874 31.482534,107.884163 
	C28.071171,108.624527 25.058485,109.344460 21.667011,110.047295 
	C18.520452,111.680519 15.752685,113.330833 12.762815,115.039688 
	C12.540716,115.098221 12.124269,115.292107 12.124268,115.292107 
z"/>
<path fill="#DBDAD9" opacity="1.000000" stroke="none" 
	d="
M83.489853,235.635406 
	C80.640778,236.788177 78.018158,237.608856 74.792328,238.674789 
	C73.469284,238.938736 72.749458,238.957428 71.693359,238.974762 
	C70.909492,238.987564 70.461899,239.001709 69.563904,238.994675 
	C66.410141,238.996689 63.706791,239.019882 60.888420,238.848251 
	C60.577755,238.422043 60.357502,238.217087 59.796204,238.010971 
	C58.972740,237.647293 58.465717,237.311203 58.415184,236.979736 
	C61.912128,236.981262 64.952576,236.978195 68.390442,236.983673 
	C76.518761,235.923462 79.528351,233.515915 80.020462,227.759247 
	C80.025604,227.338867 80.024742,227.170700 80.302246,226.771149 
	C85.008797,220.600830 82.936272,213.877701 82.489471,207.510864 
	C82.261581,204.263535 80.246109,201.141647 78.891708,197.652313 
	C76.162704,193.569946 73.580620,189.798309 71.219086,185.794296 
	C78.169914,185.631851 78.655441,192.317017 82.406860,195.983017 
	C83.280884,195.319687 84.154488,194.656662 85.028091,193.993652 
	C86.010719,199.701355 86.993355,205.409042 87.511665,211.584686 
	C83.996231,214.954147 84.122856,219.502945 87.326569,222.083893 
	C86.123146,226.490372 84.919731,230.896851 83.489853,235.635406 
z"/>
<path fill="#DBDAD9" opacity="1.000000" stroke="none" 
	d="
M28.041618,182.731339 
	C35.571999,182.643341 43.219864,181.035767 50.409737,184.867279 
	C48.762226,185.268509 47.183208,185.268509 45.291939,185.268509 
	C45.183815,187.058624 45.095825,188.515381 44.694427,190.126953 
	C41.917709,191.518677 39.454399,192.755600 36.679913,194.158142 
	C32.010155,196.824677 30.299194,196.115952 26.334133,190.059082 
	C27.882973,190.327469 29.074535,190.556015 31.211294,190.965836 
	C29.939646,187.662216 28.990633,185.196777 28.041618,182.731339 
z"/>
<path fill="#CAB184" opacity="1.000000" stroke="none" 
	d="
M80.081184,108.503654 
	C77.428276,107.861534 74.743431,106.797478 72.350937,105.366257 
	C73.392570,104.312279 74.908577,103.313141 74.775261,102.985832 
	C72.988754,98.599983 70.971931,94.307938 68.830551,89.684326 
	C67.101692,88.919975 65.554604,88.463882 63.664532,88.048279 
	C61.864632,88.705299 60.407711,89.321815 58.954620,89.544937 
	C60.349888,87.453316 61.810558,84.297638 63.118389,84.359764 
	C65.855560,84.489784 68.622864,86.117157 71.154167,87.530182 
	C72.379311,88.214081 73.099373,89.802780 74.048119,90.981827 
	C74.048119,90.981827 73.986725,90.990555 74.102196,91.121048 
	C74.349571,91.476593 74.483070,91.700699 74.618156,91.923866 
	C75.850563,94.672920 77.286339,97.352592 78.254799,100.191689 
	C79.120766,102.730339 79.471291,105.444824 80.081184,108.503654 
z"/>
<path fill="#CEB180" opacity="1.000000" stroke="none" 
	d="
M29.016563,103.985718 
	C25.930857,105.014488 22.845150,106.043251 19.160378,106.873337 
	C18.664301,105.382797 18.767292,104.090942 18.870281,102.799080 
	C18.870281,102.799080 18.903959,102.914803 19.115076,102.823853 
	C19.523750,102.416748 19.721308,102.100601 19.918867,101.784462 
	C19.918869,101.784462 19.912825,101.903191 20.209806,101.906311 
	C21.999931,100.111328 23.493076,98.313225 24.986219,96.515114 
	C29.065914,93.340172 33.145607,90.165222 37.749298,87.184204 
	C38.854191,87.920135 39.435093,88.462135 40.008591,89.003838 
	C40.001183,89.003532 40.002899,89.015564 39.689728,89.064789 
	C38.918575,89.743057 38.460598,90.372093 38.001312,91.000565 
	C38.000000,91.000000 38.001213,91.002747 37.630753,91.010452 
	C31.741575,93.579216 30.627008,98.940086 29.016563,103.985718 
z"/>
<path fill="#E1CFB4" opacity="1.000000" stroke="none" 
	d="
M61.950493,322.600220 
	C61.278717,319.455902 60.698730,315.916168 60.063850,312.386292 
	C58.265297,302.386475 56.351704,292.406158 54.681736,282.385071 
	C54.087696,278.820374 54.063808,275.160645 53.779659,271.544312 
	C54.238323,271.471191 54.696983,271.398071 55.155647,271.324951 
	C57.138638,282.618286 59.121628,293.911621 61.115814,305.991943 
	C61.166496,307.496796 61.205986,308.214630 61.236736,309.302063 
	C62.459656,312.859833 63.691311,316.047943 64.922958,319.236084 
	C64.025192,318.957062 63.127426,318.678009 62.017208,318.332916 
	C62.017208,319.639923 62.017208,320.924591 61.950493,322.600220 
z"/>
<path fill="#D0D0D0" opacity="1.000000" stroke="none" 
	d="
M84.987823,193.636658 
	C84.154488,194.656662 83.280884,195.319687 82.406860,195.983017 
	C78.655441,192.317017 78.169914,185.631851 70.855911,185.747406 
	C68.853767,185.595245 67.435349,185.257599 65.807739,184.673950 
	C64.399529,183.951019 63.200508,183.474091 62.003349,182.628235 
	C62.008698,181.767441 62.012180,181.275574 62.015663,180.783691 
	C64.373413,180.673569 66.731155,180.563461 69.598763,180.761871 
	C70.408974,181.028152 70.709320,180.985916 71.009666,180.943680 
	C72.195786,181.458557 73.381897,181.973419 74.795113,182.989258 
	C75.621758,183.679230 76.221306,183.868240 76.820862,184.057251 
	C78.731514,185.514252 80.642174,186.971268 82.542984,188.861786 
	C82.697456,189.531448 82.861786,189.767578 83.026108,190.003723 
	C83.026108,190.003723 83.216286,190.126022 83.214844,190.509949 
	C83.582863,191.258255 83.952339,191.622620 84.321823,191.986984 
	C84.530396,192.417877 84.738976,192.848755 84.987823,193.636658 
z"/>
<path fill="#D0D0D0" opacity="1.000000" stroke="none" 
	d="
M27.672791,182.591034 
	C28.990633,185.196777 29.939646,187.662216 31.211294,190.965836 
	C29.074535,190.556015 27.882973,190.327469 25.972820,190.002441 
	C22.502455,188.932724 19.750679,187.959518 16.998899,186.986328 
	C18.614716,185.802200 20.230537,184.618088 21.881775,183.060394 
	C23.712784,182.608124 25.508373,182.529434 27.672791,182.591034 
z"/>
<path fill="#D2C1A6" opacity="1.000000" stroke="none" 
	d="
M74.008591,90.612869 
	C73.099373,89.802780 72.379311,88.214081 71.154167,87.530182 
	C68.622864,86.117157 65.855560,84.489784 63.118389,84.359764 
	C61.810558,84.297638 60.349888,87.453316 58.963364,89.558762 
	C58.968277,89.965981 58.952766,89.966438 58.643364,90.020599 
	C57.886471,90.712502 57.438984,91.350250 56.995522,91.993370 
	C56.999542,91.998749 56.990746,91.994560 56.792255,92.105804 
	C56.342682,92.405060 56.171173,92.649017 56.026539,93.279770 
	C55.309929,94.554474 54.646019,95.498306 53.362473,97.323013 
	C53.201874,95.126129 53.125633,94.083206 53.304062,92.814262 
	C54.450508,89.017273 59.269783,86.739883 57.003719,82.128822 
	C60.364773,82.313667 63.724514,82.618797 67.087181,82.655342 
	C72.205154,82.710976 72.047562,87.384605 74.008591,90.612869 
z"/>
<path fill="#CEB588" opacity="1.000000" stroke="none" 
	d="
M64.904793,319.453369 
	C63.691311,316.047943 62.459656,312.859833 61.525780,309.321228 
	C62.213741,308.979706 62.603924,308.988617 63.255867,309.197235 
	C64.626587,309.944458 65.735550,310.492035 66.886856,311.356079 
	C66.978096,312.095490 67.026970,312.518402 67.103745,313.309631 
	C68.751518,314.448578 70.371399,315.219208 72.235718,315.984436 
	C72.480156,315.979034 72.968369,315.951477 72.968369,315.951477 
	C72.793854,316.513733 72.619347,317.075989 71.908905,317.823669 
	C70.607254,318.009094 69.841537,318.009094 68.808205,318.009094 
	C69.271629,318.927826 69.596893,319.572693 69.922165,320.217529 
	C68.843613,320.317078 67.765060,320.416626 66.187828,320.335907 
	C65.530869,320.054535 65.357826,320.003326 65.170029,320.002014 
	C65.170029,320.002014 64.886620,319.670624 64.904793,319.453369 
z"/>
<path fill="#CFB27C" opacity="1.000000" stroke="none" 
	d="
M56.562027,82.076431 
	C59.269783,86.739883 54.450508,89.017273 53.084801,92.685806 
	C52.404079,92.520462 52.197304,92.257561 51.992073,91.662262 
	C51.996311,90.886665 51.999001,90.443474 52.275383,89.854828 
	C52.369427,88.472694 52.189774,87.235992 51.787766,85.753906 
	C50.710922,85.337364 49.856434,85.166222 49.001534,84.641159 
	C48.999222,83.579391 48.997314,82.871552 48.995407,82.163712 
	C51.370384,82.117157 53.745361,82.070595 56.562027,82.076431 
z"/>
<path fill="#B3A997" opacity="1.000000" stroke="none" 
	d="
M78.991608,293.633118 
	C78.928505,284.826874 79.176956,275.735260 79.660553,266.329102 
	C79.698189,275.125610 79.500664,284.236664 78.991608,293.633118 
z"/>
<path fill="#C9C9C9" opacity="1.000000" stroke="none" 
	d="
M84.019989,119.985382 
	C84.499229,119.969353 84.978470,119.953331 85.817253,119.929680 
	C86.708435,124.364334 87.240082,128.806610 87.549683,133.664673 
	C86.753006,134.043549 86.178391,134.006607 85.302216,133.980881 
	C85.000656,133.992081 85.026482,134.004654 85.024551,133.561340 
	C84.981728,130.761780 84.940834,128.405533 84.915741,125.663300 
	C84.627693,123.513321 84.323837,121.749352 84.019989,119.985382 
z"/>
<path fill="#D3B684" opacity="1.000000" stroke="none" 
	d="
M48.624371,82.217422 
	C48.997314,82.871552 48.999222,83.579391 48.652115,84.690826 
	C45.540730,86.397659 42.778362,87.700897 40.015995,89.004143 
	C39.435093,88.462135 38.854191,87.920135 38.108200,87.127655 
	C41.379856,85.341827 44.816593,83.806480 48.624371,82.217422 
z"/>
<path fill="#DBDAD9" opacity="1.000000" stroke="none" 
	d="
M61.608345,180.647156 
	C62.012180,181.275574 62.008698,181.767441 61.630508,182.642914 
	C58.181965,184.367523 55.108131,185.708542 52.018616,186.683228 
	C51.981327,185.828522 51.959709,185.340134 51.938095,184.851746 
	C54.281197,181.816025 57.108418,179.813309 61.608345,180.647156 
z"/>
<path fill="#D0D0D0" opacity="1.000000" stroke="none" 
	d="
M87.522697,221.724487 
	C84.122856,219.502945 83.996231,214.954147 87.441475,212.021622 
	C87.796684,215.115433 87.757751,218.240250 87.522697,221.724487 
z"/>
<path fill="#D0D0D0" opacity="1.000000" stroke="none" 
	d="
M51.699760,184.901245 
	C51.959709,185.340134 51.981327,185.828522 51.788696,186.859726 
	C51.386288,187.937927 51.198124,188.473328 50.761917,189.016266 
	C50.513866,189.023834 50.018646,189.056976 49.725208,189.060822 
	C48.947800,189.352310 48.463829,189.639938 47.608269,189.937027 
	C46.493732,189.955032 45.750782,189.963577 45.007835,189.972137 
	C45.095825,188.515381 45.183815,187.058624 45.291939,185.268509 
	C47.183208,185.268509 48.762226,185.268509 50.659653,185.138611 
	C50.978054,185.008713 51.461430,184.950760 51.699760,184.901245 
z"/>
<path fill="#C6BAA6" opacity="1.000000" stroke="none" 
	d="
M18.555740,102.892838 
	C18.767292,104.090942 18.664301,105.382797 18.781878,106.921951 
	C17.710760,107.478004 16.419075,107.786758 14.913229,107.790543 
	C15.879778,105.985909 17.060488,104.486252 18.555740,102.892838 
z"/>
<path fill="#C6BAA6" opacity="1.000000" stroke="none" 
	d="
M24.695381,96.640030 
	C23.493076,98.313225 21.999931,100.111328 20.152266,101.891403 
	C21.333344,100.170563 22.868944,98.467751 24.695381,96.640030 
z"/>
<path fill="#C1A97F" opacity="1.000000" stroke="none" 
	d="
M70.228531,320.363495 
	C69.596893,319.572693 69.271629,318.927826 68.808205,318.009094 
	C69.841537,318.009094 70.607254,318.009094 71.674500,318.011871 
	C72.143135,318.555206 72.310234,319.095734 72.703697,319.815308 
	C72.131676,320.166077 71.333290,320.337769 70.228531,320.363495 
z"/>
<path fill="#B3A997" opacity="1.000000" stroke="none" 
	d="
M78.290771,300.687225 
	C77.912704,299.339630 77.855881,297.794098 78.059166,296.110474 
	C78.416847,297.478027 78.514427,298.983643 78.290771,300.687225 
z"/>
<path fill="#D5D5D5" opacity="1.000000" stroke="none" 
	d="
M7.585480,114.588882 
	C7.665778,115.665337 7.410696,116.927879 7.108277,118.574188 
	C6.889748,118.968384 6.718555,118.978821 6.290350,119.000664 
	C6.438925,117.599709 6.844512,116.187332 7.585480,114.588882 
z"/>
<path fill="#D5D5D5" opacity="1.000000" stroke="none" 
	d="
M9.798344,112.312073 
	C9.631650,112.740395 9.223049,113.257431 8.561249,113.859436 
	C8.724177,113.429871 9.140306,112.915329 9.798344,112.312073 
z"/>
<path fill="#DBDAD9" opacity="1.000000" stroke="none" 
	d="
M76.697662,183.798233 
	C76.221306,183.868240 75.621758,183.679230 75.011177,183.246063 
	C75.524925,183.181000 76.049698,183.360107 76.697662,183.798233 
z"/>
<path fill="#CEB588" opacity="1.000000" stroke="none" 
	d="
M74.237564,318.725037 
	C74.112518,318.373962 74.223358,317.910675 74.490311,317.264404 
	C74.588768,317.591888 74.531120,318.102356 74.237564,318.725037 
z"/>
<path fill="#DBDAD9" opacity="1.000000" stroke="none" 
	d="
M84.394836,191.709290 
	C83.952339,191.622620 83.582863,191.258255 83.181549,190.617996 
	C83.589081,190.705261 84.028465,191.068420 84.394836,191.709290 
z"/>
<path fill="#C1A97F" opacity="1.000000" stroke="none" 
	d="
M65.179993,320.207397 
	C65.357826,320.003326 65.530869,320.054535 65.787094,320.250549 
	C65.885040,320.345490 65.558273,320.594360 65.558273,320.594360 
	C65.558273,320.594360 65.189964,320.412811 65.179993,320.207397 
z"/>
<path fill="#DBDAD9" opacity="1.000000" stroke="none" 
	d="
M11.919201,241.282272 
	C12.051209,241.257584 12.268053,241.462830 12.366289,241.802826 
	C12.247683,241.937546 12.004035,241.512207 11.919201,241.282272 
z"/>
<path fill="#D2C1A6" opacity="1.000000" stroke="none" 
	d="
M74.597664,91.717789 
	C74.483070,91.700699 74.349571,91.476593 74.105576,91.090225 
	C74.232742,91.078423 74.427307,91.272690 74.597664,91.717789 
z"/>
<path fill="#DBDAD9" opacity="1.000000" stroke="none" 
	d="
M83.025024,189.745300 
	C82.861786,189.767578 82.697456,189.531448 82.645081,189.169785 
	C82.845993,189.191803 82.934967,189.339325 83.025024,189.745300 
z"/>
<path fill="#C6BAA6" opacity="1.000000" stroke="none" 
	d="
M19.652979,101.886299 
	C19.721308,102.100601 19.523750,102.416748 19.055042,102.829086 
	C18.984959,102.612892 19.186026,102.300514 19.652979,101.886299 
z"/>
<path fill="#DBDAD9" opacity="1.000000" stroke="none" 
	d="
M70.774384,180.736191 
	C70.709320,180.985916 70.408974,181.028152 70.023880,180.891342 
	C70.139122,180.651093 70.339104,180.589905 70.774384,180.736191 
z"/>
<path fill="#C9C9C9" opacity="1.000000" stroke="none" 
	d="
M85.935608,115.736526 
	C85.513893,115.855865 85.387123,115.625725 85.623978,115.176376 
	C85.735313,115.063438 85.978264,115.493340 85.935608,115.736526 
z"/>
<path fill="#F8F8F8" opacity="1.000000" stroke="none" 
	d="
M31.925991,139.058975 
	C33.088741,139.724762 34.580154,140.131180 35.350159,141.106888 
	C37.341919,143.630783 40.699867,146.592285 40.429077,149.037628 
	C40.001888,152.895340 41.008083,154.179962 44.577408,155.319397 
	C44.945930,156.130188 44.944920,156.551575 44.943909,156.972977 
	C44.081436,158.243576 42.334602,159.657974 42.513687,160.759186 
	C43.191784,164.928955 40.618538,165.784744 37.665016,165.929123 
	C29.436924,166.331314 21.542917,165.054932 14.666110,160.073837 
	C11.942344,158.100952 10.393153,155.616394 11.109597,151.956970 
	C11.669942,149.094849 11.412823,146.051056 12.153250,143.256027 
	C12.467244,142.070724 14.311893,140.668549 15.620208,140.481918 
	C20.129469,139.838684 24.709007,139.688126 29.945322,139.195343 
	C31.061241,139.046860 31.493618,139.052917 31.925991,139.058975 
z"/>
<path fill="#F7F7F7" opacity="1.000000" stroke="none" 
	d="
M81.966431,137.028687 
	C80.605843,142.607239 79.646324,148.324783 77.774284,153.726074 
	C75.817978,159.370483 69.911133,160.662064 65.188828,162.620178 
	C57.572678,165.778259 55.535301,164.596741 51.955318,156.902603 
	C50.369579,153.494537 48.981941,149.994278 47.319984,145.893127 
	C48.575260,144.504013 49.966000,143.258621 51.464447,143.111694 
	C54.941757,142.770767 58.471077,142.960312 62.291241,142.899506 
	C63.095654,142.264481 63.588139,141.664795 64.314835,141.067169 
	C64.549042,141.069229 65.016907,141.046158 65.325630,141.177643 
	C68.502441,143.723953 71.370522,146.138763 74.238609,148.553574 
	C74.549080,148.287888 74.859550,148.022202 75.170021,147.756516 
	C74.189766,146.400894 73.186813,145.061020 72.234001,143.686371 
	C70.267410,140.849136 70.317276,138.741348 74.281693,137.986252 
	C75.216446,137.808212 76.098869,137.355499 77.419479,137.029282 
	C79.211205,137.029175 80.588814,137.028931 81.966431,137.028687 
z"/>
<path fill="#FAFAFA" opacity="1.000000" stroke="none" 
	d="
M12.107121,115.690880 
	C12.124269,115.292107 12.540716,115.098221 13.132511,115.054306 
	C14.461546,114.984497 15.198786,114.958611 16.377361,114.952843 
	C19.263035,114.719421 22.117336,115.189125 24.076054,114.078850 
	C30.348927,110.523178 36.872311,111.278427 42.836914,113.482224 
	C45.824467,114.586060 48.543846,118.600868 49.702587,121.891411 
	C51.018646,125.628708 47.611092,128.078369 44.503479,130.017624 
	C39.478539,133.153351 34.373390,133.853363 28.949299,130.635178 
	C24.757668,127.523582 20.633713,124.755043 16.469313,122.048737 
	C16.117592,121.820160 15.494975,122.008438 14.680531,121.969193 
	C13.572943,121.623848 12.783038,121.312363 11.993134,121.000877 
	C12.025413,119.363800 12.057693,117.726730 12.107121,115.690880 
z"/>
<path fill="#EEEEEE" opacity="1.000000" stroke="none" 
	d="
M11.731707,121.278214 
	C12.783038,121.312363 13.572943,121.623848 14.689978,122.343216 
	C16.659229,130.625488 23.361870,129.912186 29.006348,130.994583 
	C34.373390,133.853363 39.478539,133.153351 44.503479,130.017624 
	C47.611092,128.078369 51.018646,125.628708 49.702587,121.891411 
	C48.543846,118.600868 45.824467,114.586060 42.836914,113.482224 
	C36.872311,111.278427 30.348927,110.523178 24.076054,114.078850 
	C22.117336,115.189125 19.263035,114.719421 16.561913,114.663773 
	C18.218685,112.924507 20.132242,111.494446 22.045799,110.064392 
	C25.058485,109.344460 28.071171,108.624527 31.796429,107.904549 
	C33.006599,107.580574 33.504200,107.256638 34.001797,106.932709 
	C35.359100,106.916557 36.716404,106.900406 38.931854,106.927910 
	C41.896027,106.937759 44.002052,106.903954 46.108078,106.870148 
	C46.830288,106.877251 47.552498,106.884346 48.882252,107.171509 
	C50.984951,107.648651 52.480106,107.845726 54.013512,108.356041 
	C54.367382,109.446495 54.683006,110.223701 54.653999,111.010635 
	C50.866856,111.471031 53.010380,113.084129 53.584187,114.413727 
	C58.957237,126.863998 58.777962,127.393341 47.783928,135.713974 
	C46.893356,136.387970 46.591797,137.840240 45.639931,138.943481 
	C44.509708,138.965164 43.756092,138.974243 43.002476,138.983337 
	C43.002476,138.983337 43.002125,139.002686 42.898857,138.611603 
	C38.537861,137.786148 34.280132,137.351791 30.022404,136.917419 
	C27.944359,136.275742 25.866316,135.634064 23.069206,134.847122 
	C18.900887,133.133957 15.451634,131.566055 12.002382,129.998169 
	C11.825013,127.183960 11.647645,124.369759 11.731707,121.278214 
z"/>
<path fill="#DCDCDC" opacity="1.000000" stroke="none" 
	d="
M43.225082,139.272079 
	C43.756092,138.974243 44.509708,138.965164 45.950729,139.104645 
	C47.757214,139.494080 48.876293,139.734955 50.396362,139.973068 
	C53.862087,139.310425 56.926823,138.650513 60.376038,137.985382 
	C62.507824,137.655457 64.255135,137.330780 66.001755,137.256256 
	C66.001122,137.673172 66.001167,137.839951 65.869362,138.301147 
	C65.497299,139.412430 65.257103,140.229294 65.016907,141.046158 
	C65.016907,141.046158 64.549042,141.069229 63.995293,141.093750 
	C62.954132,141.723801 62.466724,142.329315 61.979317,142.934830 
	C58.471077,142.960312 54.941757,142.770767 51.464447,143.111694 
	C49.966000,143.258621 48.575260,144.504013 47.070915,145.624878 
	C45.820057,143.853195 44.633873,141.707001 43.225082,139.272079 
z"/>
<path fill="#D9D9D9" opacity="1.000000" stroke="none" 
	d="
M82.306831,136.973572 
	C80.588814,137.028931 79.211205,137.029175 77.134338,136.758209 
	C74.288727,136.325424 72.142365,136.163864 69.826866,135.687546 
	C68.783463,133.676453 67.401047,132.055634 67.135498,130.268829 
	C66.483536,125.881859 66.346085,121.418427 66.245323,116.995552 
	C66.488998,117.005348 66.976357,117.024773 67.156555,117.341370 
	C68.231148,120.503769 69.715271,123.311478 69.901985,126.202965 
	C70.344315,133.053162 70.970612,133.973801 77.615974,134.006744 
	C80.086082,134.018982 82.556313,134.006088 85.026482,134.004654 
	C85.026482,134.004654 85.000656,133.992081 85.014061,133.980057 
	C84.234062,134.951508 83.440651,135.934982 82.306831,136.973572 
z"/>
<path fill="#DCDCDC" opacity="1.000000" stroke="none" 
	d="
M11.702851,130.053513 
	C15.451634,131.566055 18.900887,133.133957 22.678202,134.847290 
	C22.372234,135.494431 21.509998,136.559845 21.139740,136.409958 
	C17.718506,135.024979 14.373236,133.448578 11.054353,131.828522 
	C10.922327,131.764069 11.275970,130.704666 11.702851,130.053513 
z"/>
<path fill="#DCDCDC" opacity="1.000000" stroke="none" 
	d="
M30.009743,137.270905 
	C34.280132,137.351791 38.537861,137.786148 42.906540,138.604736 
	C39.631062,138.998627 36.244625,139.008316 32.392094,139.038483 
	C31.493618,139.052917 31.061241,139.046860 30.303448,139.039398 
	C29.984379,138.566803 29.990730,138.095581 30.009743,137.270905 
z"/>
<path fill="#DCDCDC" opacity="1.000000" stroke="none" 
	d="
M45.196915,157.204941 
	C44.944920,156.551575 44.945930,156.130188 44.942558,155.393875 
	C44.736332,153.611404 44.534481,152.143845 44.332630,150.676270 
	C44.783394,150.589050 45.234158,150.501846 45.684917,150.414627 
	C46.437210,153.661087 47.189499,156.907532 47.941792,160.153992 
	C47.604111,160.274460 47.266426,160.394913 46.928745,160.515366 
	C46.435802,159.489212 45.942860,158.463058 45.196915,157.204941 
z"/>
<path fill="#F9F9F9" opacity="1.000000" stroke="none" 
	d="
M50.018646,189.056976 
	C50.018646,189.056976 50.513866,189.023834 51.098518,189.170151 
	C56.461090,187.850952 61.239014,186.385437 66.016937,184.919922 
	C67.435349,185.257599 68.853767,185.595245 70.635361,185.979797 
	C73.580620,189.798309 76.162704,193.569946 78.890305,198.078522 
	C79.356735,201.899918 79.881744,204.979477 79.955818,208.069855 
	C80.107002,214.377670 80.015450,220.691315 80.023888,227.002548 
	C80.024742,227.170700 80.025604,227.338867 79.700722,227.807526 
	C78.251335,229.074432 77.127701,230.040878 75.593933,231.007233 
	C70.211441,231.680618 65.208878,232.196274 60.287903,233.138199 
	C59.051609,233.374847 58.077053,234.978867 56.527634,235.964539 
	C51.710335,236.591553 47.347610,237.208511 42.547539,237.901764 
	C39.747543,238.134491 37.384899,238.290909 34.583649,238.324402 
	C31.113914,238.077560 28.082785,237.953629 25.040688,237.526062 
	C24.351028,236.821732 23.672337,236.421005 22.993645,236.020279 
	C21.253414,235.688385 19.513184,235.356491 17.382759,234.636597 
	C15.637997,231.334167 13.761133,228.544418 13.030080,225.481201 
	C11.096970,217.381134 9.660116,209.162643 8.398172,201.046448 
	C14.595371,202.666946 17.790743,200.714828 17.989708,195.438812 
	C18.045334,193.963715 17.996893,192.484695 18.369198,191.055511 
	C24.056133,194.097351 29.370062,197.091141 35.376102,200.474869 
	C35.860870,198.529068 36.425980,196.260788 36.991089,193.992508 
	C39.454399,192.755600 41.917709,191.518677 44.694427,190.126953 
	C45.750782,189.963577 46.493732,189.955032 47.780022,190.156067 
	C48.888458,189.929413 49.453548,189.493195 50.018646,189.056976 
z"/>
<path fill="#EBEBEB" opacity="1.000000" stroke="none" 
	d="
M8.025746,200.991287 
	C9.660116,209.162643 11.096970,217.381134 13.030080,225.481201 
	C13.761133,228.544418 15.637997,231.334167 17.000999,234.618439 
	C14.927425,232.892136 11.644003,231.118820 10.978428,228.642029 
	C8.537010,219.556839 6.503460,210.296890 5.312210,200.975464 
	C4.883132,197.617981 7.265848,193.901138 8.683758,190.598602 
	C8.676668,194.229691 8.351208,197.610489 8.025746,200.991287 
z"/>
<path fill="#FEFEFE" opacity="1.000000" stroke="none" 
	d="
M8.398172,201.046448 
	C8.351208,197.610489 8.676668,194.229691 8.999739,190.423157 
	C9.759481,189.650528 10.521614,189.303619 11.937892,188.942963 
	C13.394624,188.611542 14.197210,188.293869 14.999796,187.976196 
	C15.444180,187.989899 15.888565,188.003601 16.695518,188.343155 
	C17.370789,189.448502 17.683489,190.227997 17.996191,191.007477 
	C17.996893,192.484695 18.045334,193.963715 17.989708,195.438812 
	C17.790743,200.714828 14.595371,202.666946 8.398172,201.046448 
z"/>
<path fill="#EBEBEB" opacity="1.000000" stroke="none" 
	d="
M18.369198,191.055511 
	C17.683489,190.227997 17.370789,189.448502 17.028725,188.355911 
	C16.998615,187.866760 16.997873,187.690735 16.998018,187.250519 
	C19.750679,187.959518 22.502455,188.932724 25.615545,189.962570 
	C30.299194,196.115952 32.010155,196.824677 36.679913,194.158142 
	C36.425980,196.260788 35.860870,198.529068 35.376102,200.474869 
	C29.370062,197.091141 24.056133,194.097351 18.369198,191.055511 
z"/>
<path fill="#E4CD9D" opacity="1.000000" stroke="none" 
	d="
M21.919996,253.074722 
	C17.772392,249.163528 16.234297,244.353241 17.005629,238.383179 
	C17.807676,238.070648 18.590021,238.128998 19.852615,238.590836 
	C22.891954,239.654251 25.451044,240.314194 27.727097,241.240341 
	C24.791468,241.991455 22.138876,242.476349 19.137163,243.025085 
	C20.189425,246.825104 21.054710,249.949921 21.919996,253.074722 
z"/>
<path fill="#CEB588" opacity="1.000000" stroke="none" 
	d="
M28.010132,240.974152 
	C25.451044,240.314194 22.891954,239.654251 20.238091,238.667801 
	C20.855547,238.267517 21.567781,238.193741 22.984337,238.087494 
	C24.142990,237.979889 24.597322,237.904785 25.051657,237.829681 
	C28.082785,237.953629 31.113914,238.077560 34.580040,238.640106 
	C35.007824,239.726471 35.000610,240.374207 34.556694,241.031097 
	C32.083374,241.018219 30.046753,240.996185 28.010132,240.974152 
z"/>
<path fill="#EBEBEB" opacity="1.000000" stroke="none" 
	d="
M25.040688,237.526062 
	C24.597322,237.904785 24.142990,237.979889 23.342590,238.046082 
	C22.997126,237.588669 22.997728,237.140198 22.995987,236.356003 
	C23.672337,236.421005 24.351028,236.821732 25.040688,237.526062 
z"/>
<path fill="#EBEBEB" opacity="1.000000" stroke="none" 
	d="
M14.791223,187.745789 
	C14.197210,188.293869 13.394624,188.611542 12.247698,188.886414 
	C12.796454,188.400864 13.689551,187.958115 14.791223,187.745789 
z"/>
<path fill="#F3E0B0" opacity="1.000000" stroke="none" 
	d="
M27.727095,241.240356 
	C30.046753,240.996185 32.083374,241.018219 34.780136,241.054779 
	C35.440273,241.069321 35.887650,241.110657 36.002426,241.454193 
	C42.351273,244.729141 48.495342,247.916122 55.152779,242.511307 
	C56.737694,241.224594 59.035648,240.816162 61.427200,240.009918 
	C63.939251,240.331848 66.038033,240.601044 68.118698,240.971909 
	C75.083061,242.213257 75.983772,243.293884 76.007027,250.206085 
	C76.014732,252.498184 76.065826,254.790131 76.097084,257.082153 
	C76.091270,257.809998 76.085457,258.537872 75.796249,259.911072 
	C74.675285,270.771484 73.885582,280.990845 72.982430,291.200134 
	C72.428780,297.458527 71.583977,303.692596 71.104431,309.955536 
	C70.885712,312.811920 69.309799,313.153046 67.075851,312.941315 
	C67.026970,312.518402 66.978096,312.095490 66.930054,310.959015 
	C66.911682,309.189178 66.892479,308.132935 66.903954,306.623474 
	C66.620544,299.549774 66.166359,292.932190 66.029137,286.308044 
	C65.870621,278.655914 66.083405,270.996490 65.959328,263.343109 
	C65.873413,258.043518 61.939987,253.832535 57.578278,254.016754 
	C51.087772,254.290894 44.122593,260.634644 45.182465,266.866516 
	C47.583931,280.986725 51.059628,294.921692 53.928917,308.966644 
	C54.643478,312.464386 54.713451,316.093781 55.079697,319.662659 
	C54.502728,319.838196 53.925758,320.013733 53.348789,320.189240 
	C51.889999,318.953278 50.414101,317.736786 48.976864,316.476196 
	C47.299210,315.004730 45.655308,313.494812 43.996761,312.001556 
	C43.996761,312.001556 43.950203,311.540131 43.918255,310.952820 
	C40.934330,305.107483 37.887379,299.899902 35.061047,294.575195 
	C32.881992,290.469940 30.979954,286.217651 28.954746,282.030731 
	C28.930429,281.605103 28.906115,281.179504 28.865307,280.032837 
	C27.863373,275.873413 26.877930,272.435028 25.892487,268.996643 
	C25.890717,268.573944 25.888945,268.151215 25.922512,266.992004 
	C24.669188,262.816895 23.380527,259.378296 22.091867,255.939697 
	C22.050045,255.222549 22.008224,254.505417 21.943199,253.431488 
	C21.054710,249.949921 20.189425,246.825104 19.137163,243.025085 
	C22.138876,242.476349 24.791468,241.991455 27.727095,241.240356 
z"/>
<path fill="#E4CD9D" opacity="1.000000" stroke="none" 
	d="
M44.035194,312.358124 
	C45.655308,313.494812 47.299210,315.004730 48.976864,316.476196 
	C50.414101,317.736786 51.889999,318.953278 53.348789,320.189240 
	C53.925758,320.013733 54.502728,319.838196 55.079697,319.662659 
	C54.713451,316.093781 54.643478,312.464386 53.928917,308.966644 
	C51.059628,294.921692 47.583931,280.986725 45.182465,266.866516 
	C44.122593,260.634644 51.087772,254.290894 57.578278,254.016754 
	C61.939987,253.832535 65.873413,258.043518 65.959328,263.343109 
	C66.083405,270.996490 65.870621,278.655914 66.029137,286.308044 
	C66.166359,292.932190 66.620544,299.549774 66.553925,306.602112 
	C65.467125,307.018097 64.761024,307.002197 64.054932,306.986298 
	C64.046906,306.546387 64.038872,306.106445 64.264557,305.107849 
	C64.327202,303.366028 64.156136,302.182861 63.985062,300.999695 
	C63.985676,300.557648 63.986286,300.115601 63.992752,298.887115 
	C63.327019,291.067413 62.655437,284.034149 61.983852,277.000885 
	C61.984859,276.558533 61.985863,276.116150 61.993233,274.894897 
	C61.263123,270.304199 60.999142,266.301727 59.573570,262.767883 
	C58.942810,261.204285 55.718430,259.495209 54.111832,259.849457 
	C52.478569,260.209564 50.859966,262.848114 50.189262,264.814453 
	C49.305805,267.404541 49.097710,270.313629 49.112358,273.082855 
	C49.119350,274.404968 50.309612,275.720825 50.963917,277.039520 
	C50.966404,277.473816 50.968895,277.908142 50.722767,278.934723 
	C51.027328,283.922546 51.373161,288.359039 52.229851,292.694580 
	C52.602676,294.581421 54.024536,296.260925 54.969955,298.034607 
	C55.655403,304.559631 56.609722,311.070923 56.944870,317.613892 
	C57.235462,323.286926 55.679043,324.244690 51.209675,320.968719 
	C48.350456,318.872986 46.420292,315.509705 44.035194,312.358124 
z"/>
<path fill="#D9BE8C" opacity="1.000000" stroke="none" 
	d="
M50.976891,276.594879 
	C50.309612,275.720825 49.119350,274.404968 49.112358,273.082855 
	C49.097710,270.313629 49.305805,267.404541 50.189262,264.814453 
	C50.859966,262.848114 52.478569,260.209564 54.111832,259.849457 
	C55.718430,259.495209 58.942810,261.204285 59.573570,262.767883 
	C60.999142,266.301727 61.263123,270.304199 61.991318,274.563141 
	C60.723999,272.490387 59.658131,269.845825 58.139332,267.493683 
	C57.092995,265.873230 55.419308,264.657928 54.026005,263.261536 
	C53.324802,264.944916 52.362091,266.571960 51.984352,268.325012 
	C51.432541,270.885956 51.300709,273.537384 50.976891,276.594879 
z"/>
<path fill="#E4CD9D" opacity="1.000000" stroke="none" 
	d="
M28.958370,282.430328 
	C30.979954,286.217651 32.881992,290.469940 35.061047,294.575195 
	C37.887379,299.899902 40.934330,305.107483 43.902470,310.721436 
	C41.391037,308.038666 38.177158,305.336243 36.486794,301.887177 
	C33.490700,295.773834 31.419947,289.207001 28.958370,282.430328 
z"/>
<path fill="#D9BE8C" opacity="1.000000" stroke="none" 
	d="
M61.712791,277.313141 
	C62.655437,284.034149 63.327019,291.067413 63.990471,298.555603 
	C63.019863,295.789093 61.577835,292.619904 61.219944,289.332672 
	C60.800922,285.483917 61.326122,281.532349 61.712791,277.313141 
z"/>
<path fill="#D9BE8C" opacity="1.000000" stroke="none" 
	d="
M54.980103,297.612000 
	C54.024536,296.260925 52.602676,294.581421 52.229851,292.694580 
	C51.373161,288.359039 51.027328,283.922546 50.725258,279.260437 
	C52.314323,285.059052 53.652283,291.124237 54.980103,297.612000 
z"/>
<path fill="#E4CD9D" opacity="1.000000" stroke="none" 
	d="
M25.652462,269.280212 
	C26.877930,272.435028 27.863373,275.873413 28.853567,279.713318 
	C24.959145,277.496124 25.037926,273.578217 25.652462,269.280212 
z"/>
<path fill="#E4CD9D" opacity="1.000000" stroke="none" 
	d="
M22.114407,256.336243 
	C23.380527,259.378296 24.669188,262.816895 25.920315,266.674988 
	C24.634171,263.640594 23.385559,260.186676 22.114407,256.336243 
z"/>
<path fill="#D9BE8C" opacity="1.000000" stroke="none" 
	d="
M63.793251,306.991364 
	C64.761024,307.002197 65.467125,307.018097 66.523247,307.055298 
	C66.892479,308.132935 66.911682,309.189178 66.887695,310.642517 
	C65.735550,310.492035 64.626587,309.944458 63.258629,308.864349 
	C63.002460,307.887848 63.005291,307.443939 63.008118,307.000000 
	C63.182598,306.998840 63.357082,306.997650 63.793251,306.991364 
z"/>
<path fill="#D9BE8C" opacity="1.000000" stroke="none" 
	d="
M63.744621,301.226379 
	C64.156136,302.182861 64.327202,303.366028 64.260941,304.777893 
	C63.850468,303.822083 63.677322,302.637573 63.744621,301.226379 
z"/>
<path fill="#C1A97F" opacity="1.000000" stroke="none" 
	d="
M62.844032,306.784027 
	C63.005291,307.443939 63.002460,307.887848 62.996864,308.664673 
	C62.603924,308.988617 62.213741,308.979706 61.534515,308.951630 
	C61.205986,308.214630 61.166496,307.496796 61.159363,306.421112 
	C61.687790,306.231506 62.183868,306.399780 62.844032,306.784027 
z"/>
<path fill="#E4CD9D" opacity="1.000000" stroke="none" 
	d="
M67.103745,313.309631 
	C69.309799,313.153046 70.885712,312.811920 71.104431,309.955536 
	C71.583977,303.692596 72.428780,297.458527 72.982430,291.200134 
	C73.885582,280.990845 74.675285,270.771484 75.801476,260.274963 
	C76.038887,265.365631 76.089005,270.741180 75.905098,276.108704 
	C75.752129,280.573242 75.358398,285.031006 75.010567,289.487030 
	C74.366547,297.737518 73.678116,305.984528 72.787468,314.759918 
	C72.303955,315.463043 72.112122,315.697357 71.991280,315.989807 
	C70.371399,315.219208 68.751518,314.448578 67.103745,313.309631 
z"/>
<path fill="#E4CD9D" opacity="1.000000" stroke="none" 
	d="
M76.470146,256.944763 
	C76.065826,254.790131 76.014732,252.498184 76.007027,250.206085 
	C75.983772,243.293884 75.083061,242.213257 68.118698,240.971909 
	C66.038033,240.601044 63.939251,240.331848 61.425499,239.769714 
	C61.002232,239.523361 61.003437,239.043076 61.003437,239.043076 
	C63.706791,239.019882 66.410141,238.996689 69.724098,239.194061 
	C70.899681,239.268448 71.464661,239.122284 72.029640,238.976120 
	C72.749458,238.957428 73.469284,238.938736 74.546555,238.922150 
	C75.944641,240.899414 77.771217,242.840332 77.859131,244.857040 
	C78.031815,248.818176 77.237442,252.821487 76.470146,256.944763 
z"/>
<path fill="#C1A97F" opacity="1.000000" stroke="none" 
	d="
M72.235718,315.984436 
	C72.112122,315.697357 72.303955,315.463043 72.782974,315.212463 
	C72.999176,315.138062 72.978073,315.545135 72.973221,315.748291 
	C72.968369,315.951477 72.480156,315.979034 72.235718,315.984436 
z"/>
<path fill="#DFBF86" opacity="1.000000" stroke="none" 
	d="
M40.008591,89.003838 
	C42.778362,87.700897 45.540730,86.397659 48.652519,85.044754 
	C49.856434,85.166222 50.710922,85.337364 51.543571,85.977394 
	C51.681713,87.630943 51.841702,88.815613 52.001690,90.000275 
	C51.999001,90.443474 51.996311,90.886665 51.629990,91.760101 
	C51.224388,94.236992 51.182419,96.283638 51.140446,98.330276 
	C53.222847,97.922668 55.964211,98.200600 57.250221,96.964470 
	C59.912571,94.405365 61.800892,91.041000 64.007515,88.007782 
	C65.554604,88.463882 67.101692,88.919975 68.825851,90.103241 
	C68.938339,95.553864 71.544945,100.283554 68.969841,105.001144 
	C62.627682,104.299637 56.285519,103.598129 49.372581,102.528450 
	C46.650642,100.608459 44.597485,99.901077 42.967213,102.837425 
	C40.619194,102.877205 38.271172,102.916985 35.470032,102.536819 
	C36.011677,98.412170 37.006443,94.707458 38.001213,91.002747 
	C38.001213,91.002747 38.000000,91.000000 38.312908,90.947388 
	C39.084843,90.268379 39.543869,89.641968 40.002899,89.015564 
	C40.002899,89.015564 40.001183,89.003532 40.008591,89.003838 
z"/>
<path fill="#E5E5E5" opacity="1.000000" stroke="none" 
	d="
M54.998627,111.000916 
	C54.683006,110.223701 54.367382,109.446495 54.433559,108.355392 
	C61.599277,109.309593 68.383194,110.577675 75.167114,111.845764 
	C78.072014,114.334213 80.976913,116.822662 83.950897,119.648254 
	C84.323837,121.749352 84.627693,123.513321 84.582458,125.562454 
	C82.199089,122.238632 81.424454,117.466698 75.945679,116.618668 
	C74.821877,115.538368 73.868607,114.364471 72.726036,114.135605 
	C66.843788,112.957321 60.912960,112.021614 54.999542,111.000610 
	C55.000000,111.000000 54.998627,111.000916 54.998627,111.000916 
z"/>
<path fill="#D3B684" opacity="1.000000" stroke="none" 
	d="
M37.630753,91.010452 
	C37.006443,94.707458 36.011677,98.412170 35.030167,102.519623 
	C33.286556,103.250519 31.529694,103.578674 29.394695,103.946274 
	C30.627008,98.940086 31.741575,93.579216 37.630753,91.010452 
z"/>
<path fill="#D5D5D5" opacity="1.000000" stroke="none" 
	d="
M75.044060,111.513290 
	C68.383194,110.577675 61.599277,109.309593 54.395309,108.042160 
	C52.480106,107.845726 50.984951,107.648651 49.243340,107.164238 
	C58.106701,105.489937 66.791107,106.665367 75.044060,111.513290 
z"/>
<path fill="#D3B684" opacity="1.000000" stroke="none" 
	d="
M69.333321,105.021271 
	C71.544945,100.283554 68.938339,95.553864 69.007629,90.411499 
	C70.971931,94.307938 72.988754,98.599983 74.775261,102.985832 
	C74.908577,103.313141 73.392570,104.312279 72.254730,105.036652 
	C71.143051,105.063278 70.419922,105.052345 69.333321,105.021271 
z"/>
<path fill="#D5D5D5" opacity="1.000000" stroke="none" 
	d="
M21.667009,110.047295 
	C20.132242,111.494446 18.218685,112.924507 16.120579,114.643646 
	C15.198786,114.958611 14.461546,114.984497 13.354610,114.995773 
	C15.752685,113.330833 18.520452,111.680519 21.667009,110.047295 
z"/>
<path fill="#D5D5D5" opacity="1.000000" stroke="none" 
	d="
M45.978691,106.523651 
	C44.002052,106.903954 41.896027,106.937759 39.338867,106.917816 
	C40.949738,104.015114 43.339382,104.486649 45.978691,106.523651 
z"/>
<path fill="#D3B684" opacity="1.000000" stroke="none" 
	d="
M43.398720,102.881714 
	C44.597485,99.901077 46.650642,100.608459 48.913399,102.492172 
	C47.293407,102.858040 45.561817,102.892021 43.398720,102.881714 
z"/>
<path fill="#D5D5D5" opacity="1.000000" stroke="none" 
	d="
M33.819359,106.736938 
	C33.504200,107.256638 33.006599,107.580574 32.195107,107.884117 
	C32.466450,107.422874 33.051685,106.982018 33.819359,106.736938 
z"/>
<path fill="#DCC392" opacity="1.000000" stroke="none" 
	d="
M60.888420,238.848251 
	C61.003437,239.043076 61.002232,239.523361 61.003933,239.763550 
	C59.035648,240.816162 56.737694,241.224594 55.152779,242.511307 
	C48.495342,247.916122 42.351273,244.729141 36.481220,241.415131 
	C41.134125,241.023285 45.434650,241.190491 49.705593,240.908981 
	C51.198479,240.810577 52.618504,239.606735 54.466621,238.871597 
	C56.611839,238.569855 58.362244,238.304214 60.112648,238.038574 
	C60.357502,238.217087 60.577755,238.422043 60.888420,238.848251 
z"/>
<path fill="#EBEBEB" opacity="1.000000" stroke="none" 
	d="
M80.302246,226.771149 
	C80.015450,220.691315 80.107002,214.377670 79.955818,208.069855 
	C79.881744,204.979477 79.356735,201.899918 79.037224,198.389252 
	C80.246109,201.141647 82.261581,204.263535 82.489471,207.510864 
	C82.936272,213.877701 85.008797,220.600830 80.302246,226.771149 
z"/>
<path fill="#F1F0F1" opacity="1.000000" stroke="none" 
	d="
M56.982208,235.954498 
	C58.077053,234.978867 59.051609,233.374847 60.287903,233.138199 
	C65.208878,232.196274 70.211441,231.680618 75.514038,231.354797 
	C74.298126,232.459137 72.660522,233.076767 71.233856,234.015121 
	C70.026787,234.809021 69.063957,235.974243 67.993027,236.975128 
	C64.952576,236.978195 61.912128,236.981262 58.210335,236.855164 
	C57.294880,236.516739 57.105953,236.259567 56.982208,235.954498 
z"/>
<path fill="#EBEBEB" opacity="1.000000" stroke="none" 
	d="
M56.527634,235.964539 
	C57.105953,236.259567 57.294880,236.516739 57.753841,236.850555 
	C58.465717,237.311203 58.972740,237.647293 59.796204,238.010971 
	C58.362244,238.304214 56.611839,238.569855 54.006847,238.840118 
	C49.763138,238.504974 46.374012,238.165207 42.984886,237.825470 
	C47.347610,237.208511 51.710335,236.591553 56.527634,235.964539 
z"/>
<path fill="#EBEBEB" opacity="1.000000" stroke="none" 
	d="
M68.390442,236.983673 
	C69.063957,235.974243 70.026787,234.809021 71.233856,234.015121 
	C72.660522,233.076767 74.298126,232.459137 75.924179,231.354889 
	C77.127701,230.040878 78.251335,229.074432 79.694717,228.059708 
	C79.528351,233.515915 76.518761,235.923462 68.390442,236.983673 
z"/>
<path fill="#CDB588" opacity="1.000000" stroke="none" 
	d="
M71.693359,238.974762 
	C71.464661,239.122284 70.899681,239.268448 70.174507,239.215240 
	C70.461899,239.001709 70.909492,238.987564 71.693359,238.974762 
z"/>
<path fill="#D6B882" opacity="1.000000" stroke="none" 
	d="
M63.664532,88.048279 
	C61.800892,91.041000 59.912571,94.405365 57.250221,96.964470 
	C55.964211,98.200600 53.222847,97.922668 51.140446,98.330276 
	C51.182419,96.283638 51.224388,94.236992 51.628445,92.092499 
	C52.197304,92.257561 52.404079,92.520462 52.830124,92.911819 
	C53.125633,94.083206 53.201874,95.126129 53.362473,97.323013 
	C54.646019,95.498306 55.309929,94.554474 56.221336,93.167595 
	C56.708416,92.528160 56.882389,92.284828 56.990746,91.994560 
	C56.990746,91.994560 56.999542,91.998749 57.311058,91.942825 
	C58.065968,91.246750 58.509365,90.606590 58.952766,89.966438 
	C58.952766,89.966438 58.968277,89.965981 58.959534,89.952164 
	C60.407711,89.321815 61.864632,88.705299 63.664532,88.048279 
z"/>
<path fill="#D3B684" opacity="1.000000" stroke="none" 
	d="
M39.689728,89.064789 
	C39.543869,89.641968 39.084843,90.268379 38.314217,90.947960 
	C38.460598,90.372093 38.918575,89.743057 39.689728,89.064789 
z"/>
<path fill="#EEEEEE" opacity="1.000000" stroke="none" 
	d="
M65.807739,184.673935 
	C61.239014,186.385437 56.461090,187.850952 51.346565,189.162598 
	C51.198124,188.473328 51.386288,187.937927 51.804371,187.226044 
	C55.108131,185.708542 58.181965,184.367523 61.628647,183.011841 
	C63.200508,183.474091 64.399529,183.951019 65.807739,184.673935 
z"/>
<path fill="#CAB184" opacity="1.000000" stroke="none" 
	d="
M58.643364,90.020599 
	C58.509365,90.606590 58.065968,91.246750 57.307034,91.937454 
	C57.438984,91.350250 57.886471,90.712502 58.643364,90.020599 
z"/>
<path fill="#CAB184" opacity="1.000000" stroke="none" 
	d="
M56.792255,92.105804 
	C56.882389,92.284828 56.708416,92.528160 56.274033,92.836731 
	C56.171173,92.649017 56.342682,92.405060 56.792255,92.105804 
z"/>
<path fill="#D6B882" opacity="1.000000" stroke="none" 
	d="
M52.275383,89.854828 
	C51.841702,88.815613 51.681713,87.630943 51.765923,86.222794 
	C52.189774,87.235992 52.369427,88.472694 52.275383,89.854828 
z"/>
<path fill="#F6F6F6" opacity="1.000000" stroke="none" 
	d="
M76.028885,116.960983 
	C81.424454,117.466698 82.199089,122.238632 84.566650,125.948456 
	C84.940834,128.405533 84.981728,130.761780 85.024551,133.561340 
	C82.556313,134.006088 80.086082,134.018982 77.615974,134.006744 
	C70.970612,133.973801 70.344315,133.053162 69.901985,126.202965 
	C69.715271,123.311478 68.231148,120.503769 67.333351,117.036957 
	C70.229591,116.597618 73.129234,116.779305 76.028885,116.960983 
z"/>
<path fill="#EEEEEE" opacity="1.000000" stroke="none" 
	d="
M49.725204,189.060822 
	C49.453548,189.493195 48.888458,189.929413 48.151611,190.146606 
	C48.463829,189.639938 48.947800,189.352310 49.725204,189.060822 
z"/>
<path fill="#E3E3E3" opacity="1.000000" stroke="none" 
	d="
M69.996002,136.002289 
	C72.142365,136.163864 74.288727,136.325424 76.720230,136.758057 
	C76.098869,137.355499 75.216446,137.808212 74.281693,137.986252 
	C70.317276,138.741348 70.267410,140.849136 72.234001,143.686371 
	C73.186813,145.061020 74.189766,146.400894 75.170021,147.756516 
	C74.859550,148.022202 74.549080,148.287888 74.238609,148.553574 
	C71.370522,146.138763 68.502441,143.723953 65.325630,141.177643 
	C65.257103,140.229294 65.497299,139.412430 66.241020,138.297974 
	C67.830688,137.331970 68.916840,136.663559 70.001648,135.997574 
	C70.000305,136.000000 69.996002,136.002289 69.996002,136.002289 
z"/>
<path fill="#E3E3E3" opacity="1.000000" stroke="none" 
	d="
M62.291241,142.899506 
	C62.466724,142.329315 62.954132,141.723801 63.761086,141.091705 
	C63.588139,141.664795 63.095654,142.264481 62.291241,142.899506 
z"/>
<path fill="#F3F3F3" opacity="1.000000" stroke="none" 
	d="
M28.949299,130.635178 
	C23.361870,129.912186 16.659229,130.625488 15.007660,122.377068 
	C15.494975,122.008438 16.117592,121.820160 16.469313,122.048737 
	C20.633713,124.755043 24.757668,127.523582 28.949299,130.635178 
z"/>
<path fill="#F3F3F3" opacity="1.000000" stroke="none" 
	d="
M49.995377,139.975815 
	C48.876293,139.734955 47.757214,139.494080 46.327332,139.092041 
	C46.591797,137.840240 46.893356,136.387970 47.783928,135.713974 
	C58.777962,127.393341 58.957237,126.863998 53.584187,114.413727 
	C53.010380,113.084129 50.866856,111.471031 54.653999,111.010635 
	C54.998627,111.000916 55.000000,111.000000 55.045151,111.346786 
	C55.728020,112.630447 56.280769,113.640678 57.016544,114.492882 
	C64.769661,123.472710 63.374115,131.166931 52.993874,137.058090 
	C51.820381,137.724091 50.986652,138.988754 49.995377,139.975815 
z"/>
<path fill="#EEEEEE" opacity="1.000000" stroke="none" 
	d="
M50.396362,139.973068 
	C50.986652,138.988754 51.820381,137.724091 52.993874,137.058090 
	C63.374115,131.166931 64.769661,123.472710 57.016544,114.492882 
	C56.280769,113.640678 55.728020,112.630447 55.044693,111.347397 
	C60.912960,112.021614 66.843788,112.957321 72.726036,114.135605 
	C73.868607,114.364471 74.821877,115.538368 75.945679,116.618668 
	C73.129234,116.779305 70.229591,116.597618 67.153152,116.720352 
	C66.976357,117.024773 66.488998,117.005348 66.245079,117.003616 
	C66.001160,117.001884 66.013939,116.998680 65.856628,116.791046 
	C65.135185,116.722183 64.571045,116.860939 63.753788,117.249954 
	C64.673225,124.731461 67.502457,132.246445 59.991562,137.990601 
	C56.926823,138.650513 53.862087,139.310425 50.396362,139.973068 
z"/>
<path fill="#E5E5E5" opacity="1.000000" stroke="none" 
	d="
M60.376038,137.985382 
	C67.502457,132.246445 64.673225,124.731461 64.088120,117.250504 
	C65.121696,117.000092 65.567818,116.999390 66.013939,116.998680 
	C66.013939,116.998680 66.001160,117.001884 66.001404,116.993820 
	C66.346085,121.418427 66.483536,125.881859 67.135498,130.268829 
	C67.401047,132.055634 68.783463,133.676453 69.826866,135.687546 
	C69.996002,136.002289 70.000305,136.000000 69.651810,136.004181 
	C68.203026,136.340942 67.102737,136.673523 66.002441,137.006088 
	C64.255135,137.330780 62.507824,137.655457 60.376038,137.985382 
z"/>
<path fill="#D9D9D9" opacity="1.000000" stroke="none" 
	d="
M66.001755,137.256256 
	C67.102737,136.673523 68.203026,136.340942 69.653160,136.001770 
	C68.916840,136.663559 67.830688,137.331970 66.372879,138.003540 
	C66.001167,137.839951 66.001122,137.673172 66.001755,137.256256 
z"/>
<path fill="#CEB180" opacity="1.000000" stroke="none" 
	d="
M42.547539,237.901764 
	C46.374012,238.165207 49.763138,238.504974 53.612030,238.876221 
	C52.618504,239.606735 51.198479,240.810577 49.705593,240.908981 
	C45.434650,241.190491 41.134125,241.023285 36.366440,241.071594 
	C35.887650,241.110657 35.440273,241.069321 35.216835,241.045624 
	C35.000610,240.374207 35.007824,239.726471 35.018646,238.763031 
	C37.384899,238.290909 39.747543,238.134491 42.547539,237.901764 
z"/>
<path fill="#D9D9D9" opacity="1.000000" stroke="none" 
	d="
M65.856628,116.791046 
	C65.567818,116.999390 65.121696,117.000092 64.341240,117.000252 
	C64.571045,116.860939 65.135185,116.722183 65.856628,116.791046 
z"/>
</svg>