<svg version="1.1" id="Layer_1" xmlns="http://www.w3.org/2000/svg" xmlns:xlink="http://www.w3.org/1999/xlink" x="0px" y="0px"
	 width="100%" viewBox="0 0 91 405" enable-background="new 0 0 91 405" xml:space="preserve">
<path fill="#DFDFDF" opacity="1.000000" stroke="none" 
	d="
M80.006516,189.147949 
	C86.764412,191.105316 89.414528,194.365051 90.041260,201.153702 
	C90.181473,202.672501 90.877136,204.140015 91.658539,205.315582 
	C92.000000,206.388885 92.000000,207.777786 92.000000,209.583344 
	C91.010368,212.027969 89.272774,214.014816 89.158699,216.090897 
	C88.623108,225.838211 85.312080,234.768204 81.091805,243.836456 
	C78.517952,244.249466 76.671364,244.509506 74.471115,244.806076 
	C73.156860,244.882736 72.196274,244.922852 71.087784,244.804321 
	C70.590874,244.759537 70.241875,244.873383 69.655624,244.999237 
	C69.418373,245.011246 68.947586,245.075104 68.623703,245.057892 
	C67.867317,245.053055 67.434807,245.065445 66.536652,245.017975 
	C54.708305,244.979477 43.345604,245.000809 31.531284,244.994568 
	C28.054974,244.983597 25.030279,245.000198 21.603127,244.998749 
	C19.477728,244.626953 17.754787,244.273193 15.985064,243.646652 
	C15.293709,243.242889 14.649138,243.111893 13.632471,242.981705 
	C12.536413,242.828720 11.812449,242.674927 11.047071,242.172775 
	C7.726193,232.828568 6.112840,223.592331 6.993002,213.748169 
	C6.995229,213.499695 6.992568,213.002716 7.006418,212.608398 
	C7.344371,210.141312 7.668472,208.068542 8.260415,205.779297 
	C9.025326,204.524094 9.379835,203.382309 10.043550,202.464005 
	C13.332559,197.913376 15.478575,192.115829 22.010311,191.425415 
	C9.473104,202.595505 8.889894,216.552185 11.645428,231.325241 
	C12.678505,236.863815 16.523729,239.654984 21.837179,239.952896 
	C36.748726,240.788986 51.672684,241.447220 66.599442,241.944519 
	C71.730759,242.115479 76.411636,240.437637 78.000099,234.937103 
	C80.554024,226.093414 82.701157,217.131088 84.914619,208.192749 
	C85.070107,207.564865 84.356949,206.721878 84.047409,205.549286 
	C83.735863,202.862640 83.524246,200.586380 83.093231,198.352463 
	C82.109581,193.254257 79.367416,192.461304 74.593597,195.990112 
	C71.298065,197.374710 67.954636,198.177231 65.536415,200.127167 
	C60.073673,204.532074 55.374462,203.691513 52.240044,197.070984 
	C53.483074,197.243927 54.401878,197.399551 55.453922,197.577728 
	C55.148884,196.284424 54.923054,195.326935 54.764893,194.656372 
	C57.998409,195.289764 61.067612,196.707672 63.820560,196.244766 
	C68.298653,195.491791 72.615952,193.627655 76.899155,191.969147 
	C78.116554,191.497757 78.980492,190.113556 80.006516,189.147949 
z"/>
<path fill="#E5E5E5" opacity="1.000000" stroke="none" 
	d="
M89.127083,142.949127 
	C90.952950,157.405243 87.842148,170.395111 69.659729,173.385498 
	C52.249039,176.248947 33.903164,176.886765 17.472265,166.777954 
	C12.448221,163.687012 9.605884,159.361435 7.865537,153.988770 
	C6.777513,150.629913 5.016377,147.370575 4.607637,143.941376 
	C4.137534,139.997345 4.826438,135.915176 5.313052,131.379028 
	C6.342198,129.287781 6.990410,127.667053 7.819091,126.144554 
	C8.789298,124.362045 9.916685,122.665085 10.985190,121.283722 
	C11.004954,122.105759 11.015422,122.575089 10.964640,123.427322 
	C10.597398,128.887177 10.291407,133.964142 9.784740,139.252777 
	C8.553483,139.521301 7.522901,139.578110 6.492319,139.634933 
	C6.397586,139.966324 6.302853,140.297714 6.208119,140.629105 
	C7.492118,141.103760 8.776116,141.578400 10.043877,142.453308 
	C10.550616,144.693436 11.067952,146.534943 11.598042,148.372772 
	C12.223720,150.542023 12.740467,152.752625 13.523750,154.863922 
	C14.433582,157.316330 14.961523,160.385056 16.741766,161.951157 
	C22.138374,166.698685 28.341307,170.061600 36.347733,168.960419 
	C39.451447,165.934418 42.209240,162.951874 44.932068,160.321899 
	C44.702518,161.881180 44.507935,163.087875 44.313354,164.294571 
	C44.672112,164.328049 45.030872,164.361542 45.389633,164.395035 
	C46.620888,160.903168 47.852142,157.411316 49.359543,154.095062 
	C49.686893,155.660767 49.751442,157.050537 49.786621,158.441025 
	C49.867058,161.620224 49.248947,165.047775 50.275879,167.881027 
	C50.841679,169.442062 54.277092,171.038605 56.218609,170.822296 
	C61.893280,170.190125 67.751884,169.377899 73.014610,167.305878 
	C81.022186,164.153168 82.360390,160.429550 80.839783,151.905838 
	C80.099922,147.758606 78.542503,145.191864 73.710838,145.915100 
	C72.212883,146.139313 70.566917,145.374710 69.005470,144.680328 
	C70.233849,143.213715 71.309929,141.896378 72.686638,141.096344 
	C75.184464,139.644836 77.935989,138.630997 80.439636,137.188080 
	C82.436096,136.037460 82.591667,134.744431 79.783035,133.751389 
	C79.696632,130.999741 79.846939,128.498489 79.991920,125.616127 
	C79.639725,123.516342 79.292862,121.797684 79.280380,120.098297 
	C82.060738,119.650482 82.617798,125.484367 85.962173,122.020401 
	C86.641953,124.417305 87.321739,126.814201 87.602669,129.615997 
	C86.663078,130.399368 86.122337,130.777847 85.581604,131.156326 
	C86.383095,131.439056 87.184578,131.721786 87.986069,132.004517 
	C88.322281,133.418259 88.658501,134.831985 88.619797,136.558746 
	C87.447197,136.417084 86.649521,135.962402 85.511566,135.313766 
	C85.758232,140.269775 85.983360,144.792862 86.208481,149.315948 
	C86.573181,149.287704 86.937881,149.259476 87.302582,149.231232 
	C87.910744,147.137192 88.518913,145.043167 89.127083,142.949127 
M43.673588,169.049072 
	C43.812840,169.540573 43.952091,170.032059 44.091339,170.523560 
	C44.578255,170.030853 45.065170,169.538147 45.552094,169.045441 
	C45.060959,168.908356 44.569824,168.771271 43.673588,169.049072 
M86.674568,158.070694 
	C86.495667,157.571350 86.316757,157.072021 86.137848,156.572678 
	C85.834793,156.832504 85.531738,157.092331 85.228683,157.352158 
	C85.574379,157.721786 85.920082,158.091400 86.674568,158.070694 
z"/>
<path fill="#CCB48A" opacity="1.000000" stroke="none" 
	d="
M74.824783,244.769562 
	C76.671364,244.509506 78.517952,244.249466 80.783180,244.014740 
	C78.174324,252.253967 74.901428,260.389252 72.232948,268.718170 
	C71.068787,272.351807 71.667610,276.543213 70.545807,280.198975 
	C68.225967,287.758972 65.289612,295.129761 62.065872,302.688385 
	C60.695454,302.529816 59.865982,302.261261 59.028038,301.654907 
	C58.999184,300.866608 58.978806,300.416107 58.966660,299.724854 
	C58.974888,299.484161 59.001148,299.003204 59.268936,298.874847 
	C59.717937,297.829620 59.899151,296.912781 60.107872,295.709656 
	C60.435200,294.959503 60.735020,294.495605 61.371613,293.958374 
	C62.117302,292.906555 62.526222,291.928070 62.950211,290.589722 
	C63.007710,289.510864 63.050137,288.791809 63.443115,287.963776 
	C65.866142,278.904938 67.938606,269.955109 70.022110,260.767395 
	C70.033150,260.529480 70.056412,260.053741 70.403099,259.963806 
	C72.108116,254.839127 73.466446,249.804337 74.824783,244.769562 
z"/>
<path fill="#CEB588" opacity="1.000000" stroke="none" 
	d="
M16.031849,243.919434 
	C17.754787,244.273193 19.477728,244.626953 21.589499,245.317047 
	C21.965187,246.078323 21.952044,246.503265 21.616104,246.940491 
	C20.862141,246.962418 20.430979,246.972046 19.752865,246.728043 
	C18.338673,246.323624 17.171431,246.172836 15.622370,246.076111 
	C11.786256,249.516998 12.023089,253.221161 15.834200,255.562164 
	C15.964332,266.293457 16.076620,276.598511 16.131102,287.334717 
	C16.125166,289.207611 16.177038,290.649323 16.252789,292.464661 
	C16.839214,296.223938 17.401762,299.609589 17.671509,303.055420 
	C17.256817,304.738312 17.134928,306.361053 16.985559,308.223114 
	C16.297340,308.289978 15.636600,308.117493 14.978129,307.631897 
	C14.984076,306.900513 14.987753,306.482330 14.993771,305.762115 
	C14.593832,304.650909 14.191552,303.841705 13.789269,303.032501 
	C13.666141,301.274872 13.543016,299.517242 13.583447,296.969788 
	C13.469013,289.402863 13.191022,282.625824 12.913033,275.848755 
	C12.265481,272.376556 11.500965,268.921265 10.995184,265.428528 
	C9.999692,258.554047 9.147861,251.658768 8.485785,244.250854 
	C9.519473,243.326782 10.303980,242.923965 11.088486,242.521133 
	C11.812449,242.674927 12.536413,242.828720 13.810501,243.219711 
	C14.917701,243.611084 15.474774,243.765259 16.031849,243.919434 
z"/>
<path fill="#D0B481" opacity="1.000000" stroke="none" 
	d="
M34.175159,87.024513 
	C38.889229,85.921234 43.660618,84.144432 47.731804,88.549164 
	C46.351257,89.268150 45.174965,89.633507 43.660294,89.850121 
	C39.363384,88.216751 38.274136,89.583893 39.724010,93.368813 
	C40.137024,94.446999 41.118515,95.453850 41.136414,96.505371 
	C41.169857,98.470070 40.688797,100.443542 40.421818,102.413361 
	C38.387844,101.871078 36.000206,101.817436 34.407890,100.664955 
	C32.337902,99.166733 31.038748,96.647041 29.132046,94.861481 
	C28.167288,93.958015 26.254829,92.947906 25.384558,93.341827 
	C24.265511,93.848358 23.762726,95.716362 22.644127,97.081009 
	C20.735205,101.350975 16.874041,104.971024 18.929653,110.374298 
	C17.172174,111.446571 15.596484,112.236816 13.844297,112.782364 
	C15.443155,107.027962 17.218510,101.518265 19.141163,95.682243 
	C20.762554,88.646103 25.861187,88.639153 31.132410,88.951385 
	C31.132410,88.951385 31.575727,89.017754 31.798531,89.456482 
	C32.525105,91.486679 33.028877,93.078148 33.532646,94.669609 
	C34.192272,94.500511 34.851894,94.331413 35.511517,94.162315 
	C35.066067,91.783051 34.620613,89.403778 34.175159,87.024513 
M36.948551,99.701492 
	C37.525681,99.174919 38.102810,98.648346 38.679943,98.121765 
	C38.016327,97.787506 37.352711,97.453247 36.689091,97.118996 
	C36.596462,97.862022 36.503834,98.605057 36.948551,99.701492 
z"/>
<path fill="#D8D8D8" opacity="1.000000" stroke="none" 
	d="
M79.567474,189.072906 
	C78.980492,190.113556 78.116554,191.497757 76.899155,191.969147 
	C72.615952,193.627655 68.298653,195.491791 63.820560,196.244766 
	C61.067612,196.707672 57.998409,195.289764 54.764893,194.656372 
	C54.923054,195.326935 55.148884,196.284424 55.453922,197.577728 
	C54.401878,197.399551 53.483074,197.243927 51.906578,196.911636 
	C49.150570,196.187012 47.052258,195.639069 44.933205,194.798386 
	C44.268719,194.351898 43.624977,194.198151 42.650890,194.045837 
	C41.880413,194.031311 41.440285,194.015350 41.042744,193.671112 
	C42.055836,191.971741 43.026333,190.600647 43.996834,189.229553 
	C44.730778,189.141373 45.464714,189.053192 46.868233,189.214050 
	C54.694393,189.638596 61.850979,189.814102 69.341774,189.988113 
	C70.451042,189.656601 71.226097,189.326584 72.001144,188.996567 
	C74.376907,188.996994 76.752678,188.997421 79.567474,189.072906 
z"/>
<path fill="#B5B0A8" opacity="1.000000" stroke="none" 
	d="
M14.020793,113.027054 
	C15.596484,112.236816 17.172174,111.446571 19.302776,110.358810 
	C21.246799,109.715775 22.635908,109.370270 24.466270,109.020355 
	C35.266640,108.655006 45.625751,108.294052 56.413090,107.957275 
	C58.551338,108.010628 60.261360,108.039810 62.252151,108.313126 
	C66.366371,109.376602 70.199837,110.195938 74.320816,111.002563 
	C74.799484,110.973366 74.990646,110.956886 75.181801,110.940407 
	C77.140518,112.657082 79.099236,114.373756 80.843636,116.738586 
	C79.747314,117.595688 78.865303,117.804626 77.623650,117.984100 
	C76.547249,117.875168 75.830490,117.795692 74.909576,117.452408 
	C73.484070,116.767525 72.262726,116.346451 71.041321,115.690849 
	C71.041260,115.456322 71.012733,114.986977 70.938637,114.631577 
	C66.184914,112.917252 61.505283,111.558319 56.504833,110.208458 
	C55.124287,110.405441 54.064564,110.593346 52.875504,110.415176 
	C52.196468,109.731743 51.656868,109.157059 51.095581,109.135033 
	C39.941940,108.697395 28.981993,109.950653 18.376007,113.483818 
	C16.706076,114.040115 15.428705,115.774818 13.858576,117.162918 
	C13.559436,117.613770 13.313388,117.780571 12.756275,117.629341 
	C11.368818,117.267967 10.234262,117.138824 9.099705,117.009682 
	C9.706614,116.188705 10.313523,115.367737 11.354181,114.256119 
	C12.532218,113.652664 13.276505,113.339859 14.020793,113.027054 
z"/>
<path fill="#D5D3D1" opacity="1.000000" stroke="none" 
	d="
M11.047071,242.172775 
	C10.303980,242.923965 9.519473,243.326782 8.431442,243.850922 
	C2.648807,232.282867 3.640984,219.778137 4.221301,207.516113 
	C4.435956,202.980469 7.504048,198.579865 9.616528,194.369507 
	C9.584645,195.997070 9.080125,197.352646 8.857627,198.753006 
	C8.476388,201.152496 8.271506,203.580017 7.992574,205.995758 
	C7.668472,208.068542 7.344371,210.141312 6.861027,212.703735 
	C6.798115,213.461121 6.894446,213.728897 6.990776,213.996658 
	C6.112840,223.592331 7.726193,232.828568 11.047071,242.172775 
z"/>
<path fill="#CEB27E" opacity="1.000000" stroke="none" 
	d="
M74.033295,111.015274 
	C70.199837,110.195938 66.366371,109.376602 62.261742,107.905304 
	C61.594555,101.015045 57.307201,95.844582 51.000195,93.999695 
	C51.000000,94.000000 51.000580,93.999390 50.962402,93.718735 
	C50.282841,93.289673 49.641457,93.141273 48.672859,92.931641 
	C46.896656,91.913223 45.447666,90.956047 43.998672,89.998863 
	C45.174965,89.633507 46.351257,89.268150 47.871902,88.918045 
	C51.608463,90.566772 55.000671,92.200249 58.867050,94.168167 
	C59.580906,94.717957 59.857178,94.864220 60.170033,94.941414 
	C60.170033,94.941414 60.050102,94.947037 60.155380,95.214424 
	C62.649704,97.970390 64.971367,100.528557 67.448181,102.926483 
	C69.602707,105.012390 71.932533,106.917229 74.184898,108.902077 
	C74.184898,108.902077 74.112648,108.942253 74.059662,109.260284 
	C74.015541,110.057304 74.024414,110.536293 74.033295,111.015274 
z"/>
<path fill="#D1B786" opacity="1.000000" stroke="none" 
	d="
M59.036514,301.992676 
	C59.865982,302.261261 60.695454,302.529816 61.826309,302.934509 
	C57.216248,314.339020 50.232601,324.191376 41.342453,332.597107 
	C40.980930,331.768494 40.967064,331.321198 41.006165,330.535950 
	C42.113853,328.553070 43.150337,326.896149 44.226494,325.265350 
	C48.465130,318.842224 52.716244,312.427338 57.114704,305.718323 
	C57.856632,304.282410 58.446575,303.137543 59.036514,301.992676 
z"/>
<path fill="#D2D2D2" opacity="1.000000" stroke="none" 
	d="
M8.260415,205.779297 
	C8.271506,203.580017 8.476388,201.152496 8.857627,198.753006 
	C9.080125,197.352646 9.584645,195.997070 9.944778,194.213562 
	C9.944595,193.457993 10.104960,193.198654 11.018093,192.995544 
	C13.053504,191.595505 14.479192,190.227692 15.904881,188.859879 
	C15.904881,188.859879 15.936134,188.947998 16.120184,188.858582 
	C16.598833,188.625381 16.827612,188.411285 16.990574,188.126831 
	C17.778561,187.742691 18.566545,187.358566 19.969330,186.946945 
	C21.050222,186.657715 21.516315,186.395966 21.982410,186.134232 
	C24.362650,186.083984 26.742887,186.033752 29.503006,186.353394 
	C29.253689,187.506424 28.624489,188.289581 27.648872,189.116135 
	C25.571205,189.809692 23.839954,190.459839 22.108707,191.109985 
	C15.478575,192.115829 13.332559,197.913376 10.043550,202.464005 
	C9.379835,203.382309 9.025326,204.524094 8.260415,205.779297 
z"/>
<path fill="#CDB283" opacity="1.000000" stroke="none" 
	d="
M40.953201,330.873932 
	C40.967064,331.321198 40.980930,331.768494 40.999310,332.551331 
	C40.512730,332.919189 40.021942,332.973602 39.530495,332.980408 
	C31.563498,333.090759 31.324505,332.906494 29.364763,325.202026 
	C23.572203,328.740265 20.482931,328.616364 18.468985,324.432373 
	C22.765326,325.129639 29.846018,322.365448 32.335800,319.002014 
	C33.111473,319.000397 33.554756,319.000214 33.999115,319.444275 
	C33.997303,322.259521 33.994408,324.630524 33.786926,327.200287 
	C34.048180,329.985107 35.286339,331.254517 38.296471,330.115143 
	C39.374416,330.448242 40.163807,330.661072 40.953201,330.873932 
z"/>
<path fill="#D1B786" opacity="1.000000" stroke="none" 
	d="
M32.003410,319.003387 
	C29.846018,322.365448 22.765326,325.129639 18.540318,324.056061 
	C17.782312,323.255219 17.388115,322.515472 17.038647,321.120514 
	C17.742142,319.964844 18.400902,319.464386 19.294205,318.975769 
	C19.528746,318.987579 19.999266,319.007324 19.999619,319.360413 
	C21.088276,323.231415 22.505791,322.154816 24.025757,319.657593 
	C24.700615,318.543365 25.350269,317.771667 26.361130,316.912109 
	C27.136969,315.203583 27.551601,313.582916 27.968086,311.634735 
	C27.971960,310.870392 27.973976,310.433563 28.231613,309.997925 
	C28.657644,309.998657 28.828058,309.998169 29.007366,310.339691 
	C29.640469,311.446686 30.264677,312.211731 30.869656,313.347595 
	C30.723906,315.574799 28.293600,317.922638 31.979052,318.977173 
	C31.987820,318.986755 32.003410,319.003387 32.003410,319.003387 
z"/>
<path fill="#DBDBDB" opacity="1.000000" stroke="none" 
	d="
M27.995289,189.072739 
	C28.624489,188.289581 29.253689,187.506424 29.944298,186.422821 
	C32.581776,186.726807 35.158939,187.326645 37.733551,187.937241 
	C39.543865,188.366577 41.350712,188.810547 43.577972,189.238770 
	C43.026333,190.600647 42.055836,191.971741 40.664032,193.619766 
	C36.160252,192.288712 32.077770,190.680725 27.995289,189.072739 
z"/>
<path fill="#C1C1C1" opacity="1.000000" stroke="none" 
	d="
M8.896566,117.296944 
	C10.234262,117.138824 11.368818,117.267967 12.652849,117.908401 
	C12.515899,118.933304 12.229472,119.446915 11.737263,120.073708 
	C11.277299,120.383430 11.092104,120.631470 10.975895,120.931015 
	C9.916685,122.665085 8.789298,124.362045 7.819091,126.144554 
	C6.990410,127.667053 6.342198,129.287781 5.252057,130.944168 
	C2.535624,125.518463 4.515939,121.240417 8.896566,117.296944 
z"/>
<path fill="#DAC08F" opacity="1.000000" stroke="none" 
	d="
M19.059668,318.963959 
	C18.400902,319.464386 17.742142,319.964844 17.020695,320.795105 
	C15.969656,318.331482 14.981305,315.538055 14.034915,312.082764 
	C13.910765,310.969879 13.744654,310.518860 13.578545,310.067841 
	C13.528178,309.620636 13.477808,309.173401 13.762744,308.390442 
	C14.389008,308.004974 14.681610,307.968445 14.975857,307.945038 
	C15.636600,308.117493 16.297340,308.289978 17.310711,308.229065 
	C18.096821,308.000458 18.530302,308.005280 18.968102,308.255035 
	C18.972418,308.499969 18.983843,308.989746 18.836676,309.088074 
	C18.788868,309.460266 18.888227,309.734192 18.989651,310.456909 
	C19.014368,313.591827 19.037020,316.277893 19.059668,318.963959 
z"/>
<path fill="#CEB384" opacity="1.000000" stroke="none" 
	d="
M13.844296,112.782364 
	C13.276505,113.339859 12.532218,113.652664 11.467535,113.958572 
	C13.094682,108.222870 15.042225,102.494064 17.369385,96.387802 
	C18.163956,96.009743 18.578909,96.009148 18.993862,96.008560 
	C17.218510,101.518265 15.443155,107.027962 13.844296,112.782364 
z"/>
<path fill="#DBDBDB" opacity="1.000000" stroke="none" 
	d="
M69.007561,189.989609 
	C61.850979,189.814102 54.694393,189.638596 47.238022,189.163574 
	C53.984341,188.581528 61.030445,188.298996 68.539413,188.395966 
	C69.004044,189.180206 69.005806,189.584900 69.007561,189.989609 
z"/>
<path fill="#C6BAA5" opacity="1.000000" stroke="none" 
	d="
M74.136047,108.536987 
	C71.932533,106.917229 69.602707,105.012390 67.448181,102.926483 
	C64.971367,100.528557 62.649704,97.970390 60.159515,95.154533 
	C62.369244,96.487900 64.916344,97.906036 66.932076,99.869659 
	C69.539055,102.409248 71.721794,105.384338 74.136047,108.536987 
z"/>
<path fill="#BBB09B" opacity="1.000000" stroke="none" 
	d="
M12.560247,276.038849 
	C13.191022,282.625824 13.469013,289.402863 13.548306,296.525696 
	C13.228443,296.759064 13.005452,296.650818 13.000677,296.533691 
	C12.724805,289.765900 12.467016,282.997375 12.560247,276.038849 
z"/>
<path fill="#E6E6E6" opacity="1.000000" stroke="none" 
	d="
M89.073059,142.526398 
	C88.518913,145.043167 87.910744,147.137192 87.302582,149.231232 
	C86.937881,149.259476 86.573181,149.287704 86.208481,149.315948 
	C85.983360,144.792862 85.758232,140.269775 85.511566,135.313766 
	C86.649521,135.962402 87.447197,136.417084 88.547302,136.936096 
	C88.906166,138.701523 88.962601,140.402603 89.073059,142.526398 
z"/>
<path fill="#C6B498" opacity="1.000000" stroke="none" 
	d="
M19.141163,95.682236 
	C18.578909,96.009148 18.163956,96.009743 17.437740,96.009399 
	C18.767519,90.727081 21.200129,86.335106 27.804539,87.019180 
	C28.831713,87.125580 29.798927,87.810860 30.963139,88.589912 
	C25.861187,88.639153 20.762554,88.646103 19.141163,95.682236 
z"/>
<path fill="#C5C5C5" opacity="1.000000" stroke="none" 
	d="
M77.983299,118.013565 
	C78.865303,117.804626 79.747314,117.595688 80.842880,117.114502 
	C82.632210,118.335884 84.207970,119.829521 85.872955,121.671776 
	C82.617798,125.484367 82.060738,119.650482 79.285767,120.093231 
	C78.956764,120.068886 78.940460,120.077835 78.852081,119.805344 
	C78.503563,119.026428 78.243431,118.520004 77.983299,118.013565 
z"/>
<path fill="#CEB384" opacity="1.000000" stroke="none" 
	d="
M34.039391,87.306885 
	C34.620613,89.403778 35.066067,91.783051 35.511517,94.162315 
	C34.851894,94.331413 34.192272,94.500511 33.532646,94.669609 
	C33.028877,93.078148 32.525105,91.486679 32.009636,89.531784 
	C32.633163,88.641983 33.268391,88.115616 34.039391,87.306885 
z"/>
<path fill="#D5D3D1" opacity="1.000000" stroke="none" 
	d="
M15.580311,188.943115 
	C14.479192,190.227692 13.053504,191.595505 11.252453,192.958862 
	C12.336639,191.645035 13.796190,190.335693 15.580311,188.943115 
z"/>
<path fill="#E6E6E6" opacity="1.000000" stroke="none" 
	d="
M87.998581,131.667999 
	C87.184578,131.721786 86.383095,131.439056 85.581604,131.156326 
	C86.122337,130.777847 86.663078,130.399368 87.528824,130.010803 
	C87.906258,130.444305 87.958672,130.887894 87.998581,131.667999 
z"/>
<path fill="#DFDFDF" opacity="1.000000" stroke="none" 
	d="
M69.341774,189.988113 
	C69.005806,189.584900 69.004044,189.180206 69.002739,188.471863 
	C69.857048,188.274475 70.710892,188.380753 71.782944,188.741791 
	C71.226097,189.326584 70.451042,189.656601 69.341774,189.988113 
z"/>
<path fill="#BBB09B" opacity="1.000000" stroke="none" 
	d="
M14.978128,307.631897 
	C14.681610,307.968445 14.389008,308.004974 13.877110,308.069763 
	C13.589455,307.046356 13.522739,306.007843 13.722389,304.800598 
	C14.322980,305.109314 14.657207,305.586731 14.991431,306.064117 
	C14.987753,306.482330 14.984076,306.900513 14.978128,307.631897 
z"/>
<path fill="#DAC08F" opacity="1.000000" stroke="none" 
	d="
M14.993773,305.762115 
	C14.657207,305.586731 14.322980,305.109314 13.875071,304.436920 
	C13.703994,304.038879 13.646600,303.835876 13.689240,303.332672 
	C14.191552,303.841705 14.593832,304.650909 14.993773,305.762115 
z"/>
<path fill="#DBDBDB" opacity="1.000000" stroke="none" 
	d="
M21.698997,186.087158 
	C21.516315,186.395966 21.050222,186.657715 20.310123,186.965149 
	C20.495943,186.687241 20.955763,186.363663 21.698997,186.087158 
z"/>
<path fill="#BBB09B" opacity="1.000000" stroke="none" 
	d="
M13.457869,310.300110 
	C13.744654,310.518860 13.910765,310.969879 14.058898,311.666931 
	C13.806344,311.452789 13.571769,310.992584 13.457869,310.300110 
z"/>
<path fill="#C6BAA5" opacity="1.000000" stroke="none" 
	d="
M74.320816,111.002563 
	C74.024414,110.536293 74.015541,110.057304 74.053268,109.219452 
	C74.418404,109.342377 74.736938,109.824173 75.118637,110.623192 
	C74.990646,110.956886 74.799484,110.973366 74.320816,111.002563 
z"/>
<path fill="#D5D3D1" opacity="1.000000" stroke="none" 
	d="
M16.722754,188.087769 
	C16.827612,188.411285 16.598833,188.625381 16.077152,188.840302 
	C16.051693,188.623886 16.253313,188.336288 16.722754,188.087769 
z"/>
<path fill="#C6BAA5" opacity="1.000000" stroke="none" 
	d="
M60.062393,94.706329 
	C59.857178,94.864220 59.580906,94.717957 59.205681,94.310562 
	C59.365013,94.236084 59.659885,94.353661 60.062393,94.706329 
z"/>
<path fill="#F8F8F8" opacity="1.000000" stroke="none" 
	d="
M27.648872,189.116135 
	C32.077770,190.680725 36.160252,192.288712 40.621445,193.948044 
	C41.440285,194.015350 41.880413,194.031311 42.832458,194.271606 
	C43.880898,194.694336 44.417419,194.892746 44.953941,195.091141 
	C47.052258,195.639069 49.150570,196.187012 51.582352,196.894287 
	C55.374462,203.691513 60.073673,204.532074 65.536415,200.127167 
	C67.954636,198.177231 71.298065,197.374710 74.560005,196.362381 
	C73.766098,200.092041 72.079895,203.513443 76.031013,206.414429 
	C78.905746,208.525055 81.487221,208.174316 84.047714,205.978912 
	C84.356949,206.721878 85.070107,207.564865 84.914619,208.192749 
	C82.701157,217.131088 80.554024,226.093414 78.000099,234.937103 
	C76.411636,240.437637 71.730759,242.115479 66.599442,241.944519 
	C51.672684,241.447220 36.748726,240.788986 21.837179,239.952896 
	C16.523729,239.654984 12.678505,236.863815 11.645428,231.325241 
	C8.889894,216.552185 9.473104,202.595505 22.010311,191.425415 
	C23.839954,190.459839 25.571205,189.809692 27.648872,189.116135 
z"/>
<path fill="#FDFDFD" opacity="1.000000" stroke="none" 
	d="
M84.047409,205.549286 
	C81.487221,208.174316 78.905746,208.525055 76.031013,206.414429 
	C72.079895,203.513443 73.766098,200.092041 74.932114,196.301208 
	C79.367416,192.461304 82.109581,193.254257 83.093231,198.352463 
	C83.524246,200.586380 83.735863,202.862640 84.047409,205.549286 
z"/>
<path fill="#D3B887" opacity="1.000000" stroke="none" 
	d="
M31.982901,245.022156 
	C43.345604,245.000809 54.708305,244.979477 66.537354,245.244064 
	C67.003708,245.529999 67.006256,245.983337 66.642151,245.991592 
	C65.187904,246.343735 64.097755,246.687622 62.596703,247.028839 
	C60.818451,247.057083 59.451103,247.087982 57.657768,247.084045 
	C50.488331,247.360138 43.744888,247.671082 36.642761,247.931580 
	C34.884201,247.544907 33.484325,247.208679 32.069336,246.563843 
	C32.030449,245.844223 32.006676,245.433182 31.982901,245.022156 
z"/>
<path fill="#E3CC9B" opacity="1.000000" stroke="none" 
	d="
M63.007607,247.031509 
	C64.097755,246.687622 65.187904,246.343735 66.924988,245.971588 
	C68.030472,245.653915 68.489029,245.364517 68.947586,245.075104 
	C68.947586,245.075104 69.418373,245.011246 69.991837,244.997055 
	C70.788757,244.976227 71.012222,244.969604 71.235687,244.962967 
	C72.196274,244.922852 73.156860,244.882736 74.471115,244.806091 
	C73.466446,249.804337 72.108116,254.839127 70.435242,259.565704 
	C72.787094,249.551422 72.786263,249.555283 63.794765,247.613724 
	C63.504028,247.550934 63.268742,247.231369 63.007607,247.031509 
z"/>
<path fill="#E3CC9B" opacity="1.000000" stroke="none" 
	d="
M31.531284,244.994568 
	C32.006676,245.433182 32.030449,245.844223 31.606693,246.602737 
	C28.085743,246.942886 25.012321,246.935532 21.938902,246.928192 
	C21.952044,246.503265 21.965187,246.078323 21.991955,245.335098 
	C25.030279,245.000198 28.054974,244.983597 31.531284,244.994568 
z"/>
<path fill="#D5D3D1" opacity="1.000000" stroke="none" 
	d="
M15.985064,243.646652 
	C15.474774,243.765259 14.917701,243.611084 14.182597,243.218903 
	C14.649138,243.111893 15.293709,243.242889 15.985064,243.646652 
z"/>
<path fill="#CCB48A" opacity="1.000000" stroke="none" 
	d="
M68.623703,245.057892 
	C68.489029,245.364517 68.030472,245.653915 67.289085,245.963318 
	C67.006256,245.983337 67.003708,245.529999 67.003006,245.303925 
	C67.434807,245.065445 67.867317,245.053055 68.623703,245.057892 
z"/>
<path fill="#D2D2D2" opacity="1.000000" stroke="none" 
	d="
M6.993003,213.748169 
	C6.894446,213.728897 6.798115,213.461121 6.847176,213.098038 
	C6.992568,213.002716 6.995229,213.499695 6.993003,213.748169 
z"/>
<path fill="#CCB48A" opacity="1.000000" stroke="none" 
	d="
M71.087784,244.804321 
	C71.012222,244.969604 70.788757,244.976227 70.229080,244.985046 
	C70.241875,244.873383 70.590874,244.759537 71.087784,244.804321 
z"/>
<path fill="#F8F8F8" opacity="1.000000" stroke="none" 
	d="
M68.988708,145.062836 
	C70.566917,145.374710 72.212883,146.139313 73.710838,145.915100 
	C78.542503,145.191864 80.099922,147.758606 80.839783,151.905838 
	C82.360390,160.429550 81.022186,164.153168 73.014610,167.305878 
	C67.751884,169.377899 61.893280,170.190125 56.218609,170.822296 
	C54.277092,171.038605 50.841679,169.442062 50.275879,167.881027 
	C49.248947,165.047775 49.867058,161.620224 49.786621,158.441025 
	C49.751442,157.050537 49.686893,155.660767 49.350960,153.871521 
	C49.066231,153.472366 49.056854,153.023453 49.384861,152.950836 
	C51.808544,150.260269 53.904221,147.642303 56.463036,145.020111 
	C60.947018,145.031555 64.967865,145.047195 68.988708,145.062836 
z"/>
<path fill="#FAFAFA" opacity="1.000000" stroke="none" 
	d="
M78.951385,120.073952 
	C79.292862,121.797684 79.639725,123.516342 79.625458,125.664322 
	C77.341331,127.624451 75.575211,129.435165 73.458977,130.621170 
	C70.198540,132.448395 66.612564,133.688309 63.316994,135.460571 
	C56.122536,139.329544 50.680447,138.716782 44.742638,133.262100 
	C41.417782,130.207779 41.034317,126.873253 43.321941,123.089867 
	C46.903660,117.166229 58.158321,114.698608 65.646294,117.740555 
	C68.870392,119.050323 72.530861,119.285927 76.168564,120.224686 
	C77.209518,120.319176 78.074989,120.198509 78.940460,120.077835 
	C78.940460,120.077835 78.956764,120.068886 78.951385,120.073952 
z"/>
<path fill="#F8F8F8" opacity="1.000000" stroke="none" 
	d="
M36.001816,169.003876 
	C28.341307,170.061600 22.138374,166.698685 16.741766,161.951157 
	C14.961523,160.385056 14.433582,157.316330 13.523750,154.863922 
	C12.740467,152.752625 12.223720,150.542023 11.598042,148.372772 
	C11.067952,146.534943 10.550616,144.693436 10.452768,142.447876 
	C12.249211,142.041870 13.620525,142.041534 15.221127,142.300385 
	C21.279821,145.415680 21.248884,145.396194 17.678881,151.065399 
	C17.303032,151.662231 17.560699,152.658005 17.534863,153.235901 
	C20.833944,151.050873 23.929127,149.000916 27.408905,147.022949 
	C31.158237,147.668884 34.578503,148.933304 37.875759,148.668137 
	C44.088596,148.168503 44.873901,148.512894 44.622803,155.043869 
	C41.519974,159.731384 38.760895,164.367630 36.001816,169.003876 
z"/>
<path fill="#EFEFEF" opacity="1.000000" stroke="none" 
	d="
M75.993088,120.009537 
	C72.530861,119.285927 68.870392,119.050323 65.646294,117.740555 
	C58.158321,114.698608 46.903660,117.166229 43.321941,123.089867 
	C41.034317,126.873253 41.417782,130.207779 44.742638,133.262100 
	C50.680447,138.716782 56.122536,139.329544 63.316994,135.460571 
	C66.612564,133.688309 70.198540,132.448395 73.458977,130.621170 
	C75.575211,129.435165 77.341331,127.624451 79.630783,126.045441 
	C79.846939,128.498489 79.696632,130.999741 79.610641,134.050842 
	C75.803375,136.401413 72.094330,138.912277 68.023811,139.844025 
	C61.135666,141.420761 54.019043,141.999359 46.833710,142.700287 
	C45.879898,141.822144 45.139698,141.155655 44.294376,140.673447 
	C33.795361,134.684296 32.482700,129.893143 38.348270,119.306122 
	C38.867462,118.369011 38.787281,117.099823 39.171867,115.674316 
	C41.908459,114.230476 44.458668,113.097183 47.433926,111.957794 
	C49.559513,111.959511 51.260056,111.967316 53.317192,112.030602 
	C54.841305,112.349991 56.008812,112.613899 57.527802,112.880310 
	C58.581856,112.905090 59.284428,112.927383 60.133690,113.165245 
	C60.848736,113.272346 61.417088,113.163895 62.315598,113.055412 
	C63.084930,113.085266 63.524097,113.115150 64.034325,113.484779 
	C66.417381,114.524811 68.729385,115.225098 71.041382,115.925385 
	C72.262726,116.346451 73.484070,116.767525 74.967300,117.759735 
	C75.483833,118.890419 75.738457,119.449982 75.993088,120.009537 
z"/>
<path fill="#DBDBDB" opacity="1.000000" stroke="none" 
	d="
M46.998474,142.997589 
	C54.019043,141.999359 61.135666,141.420761 68.023811,139.844025 
	C72.094330,138.912277 75.803375,136.401413 79.847366,134.301239 
	C82.591667,134.744431 82.436096,136.037460 80.439636,137.188080 
	C77.935989,138.630997 75.184464,139.644836 72.686638,141.096344 
	C71.309929,141.896378 70.233849,143.213715 69.005470,144.680344 
	C64.967865,145.047195 60.947018,145.031555 56.191505,144.753540 
	C52.806770,145.116837 49.905884,145.321289 47.674480,146.650024 
	C47.080738,147.003586 48.540119,150.805023 49.056854,153.023453 
	C49.056854,153.023453 49.066231,153.472366 49.074814,153.695908 
	C47.852142,157.411316 46.620888,160.903168 45.389633,164.395035 
	C45.030872,164.361542 44.672112,164.328049 44.313354,164.294571 
	C44.507935,163.087875 44.702518,161.881180 44.938354,159.908295 
	C44.975258,157.758926 44.970909,156.375763 44.966557,154.992599 
	C44.873901,148.512894 44.088596,148.168503 37.875759,148.668137 
	C34.578503,148.933304 31.158237,147.668884 27.387262,146.659302 
	C25.989986,144.464279 24.998949,142.704926 24.333851,141.108704 
	C26.773447,141.848312 28.887106,142.424759 31.331001,143.004120 
	C32.101341,143.009918 32.541447,143.012802 33.359566,143.067719 
	C35.487873,143.421295 37.238159,143.722855 39.240879,144.269226 
	C41.995033,144.008545 44.496754,143.503067 46.998474,142.997589 
z"/>
<path fill="#F8F8F8" opacity="1.000000" stroke="none" 
	d="
M9.985415,139.041107 
	C10.291407,133.964142 10.597398,128.887177 11.295724,123.411514 
	C12.458779,122.675293 13.229501,122.337799 14.407931,121.997955 
	C18.215210,121.330635 21.614780,120.665665 25.013298,120.333183 
	C25.017017,121.108963 25.021790,121.552261 24.987150,122.292465 
	C24.626656,123.069839 24.305571,123.550301 23.664593,124.205292 
	C22.574276,127.913765 21.803854,131.447708 20.855619,135.302826 
	C17.788002,136.762329 14.898195,137.900635 11.671363,139.032928 
	C10.884697,139.031662 10.435055,139.036377 9.985415,139.041107 
z"/>
<path fill="#F3F3F3" opacity="1.000000" stroke="none" 
	d="
M44.622803,155.043869 
	C44.970909,156.375763 44.975258,157.758926 44.973320,159.555710 
	C42.209240,162.951874 39.451447,165.934418 36.347733,168.960419 
	C38.760895,164.367630 41.519974,159.731384 44.622803,155.043869 
z"/>
<path fill="#DBDBDB" opacity="1.000000" stroke="none" 
	d="
M9.784739,139.252792 
	C10.435055,139.036377 10.884697,139.031662 11.955011,139.286041 
	C14.662760,139.785187 16.749834,140.025192 19.091530,140.294479 
	C17.562805,140.945816 16.277323,141.493500 14.991838,142.041199 
	C13.620525,142.041534 12.249211,142.041870 10.469006,142.047638 
	C8.776116,141.578400 7.492118,141.103760 6.208119,140.629105 
	C6.302853,140.297714 6.397586,139.966324 6.492319,139.634933 
	C7.522901,139.578110 8.553483,139.521301 9.784739,139.252792 
z"/>
<path fill="#E7E7E7" opacity="1.000000" stroke="none" 
	d="
M14.000223,122.000305 
	C13.229501,122.337799 12.458779,122.675293 11.356974,123.028603 
	C11.015422,122.575089 11.004954,122.105759 10.985191,121.283722 
	C11.092104,120.631470 11.277299,120.383430 12.000022,120.194061 
	C12.977648,120.466812 13.486732,120.732399 13.997131,121.248573 
	C13.999038,121.666206 13.999631,121.833252 14.000223,122.000305 
z"/>
<path fill="#DBDBDB" opacity="1.000000" stroke="none" 
	d="
M43.876137,168.841644 
	C44.569824,168.771271 45.060959,168.908356 45.552090,169.045441 
	C45.065170,169.538147 44.578255,170.030853 44.091343,170.523560 
	C43.952091,170.032059 43.812840,169.540573 43.876137,168.841644 
z"/>
<path fill="#E6E6E6" opacity="1.000000" stroke="none" 
	d="
M86.470177,158.265869 
	C85.920082,158.091400 85.574379,157.721786 85.228683,157.352158 
	C85.531738,157.092331 85.834793,156.832504 86.137848,156.572678 
	C86.316757,157.072021 86.495667,157.571350 86.470177,158.265869 
z"/>
<path fill="#F3E1B1" opacity="1.000000" stroke="none" 
	d="
M21.616104,246.940491 
	C25.012321,246.935532 28.085743,246.942886 31.621807,246.911346 
	C33.484325,247.208679 34.884201,247.544907 36.801025,248.233978 
	C39.477707,249.995743 41.963734,252.909927 43.734848,252.526016 
	C48.676327,251.454865 53.321568,249.017105 58.083759,247.118881 
	C59.451103,247.087982 60.818451,247.057083 62.596703,247.028839 
	C63.268742,247.231369 63.504028,247.550934 63.794765,247.613724 
	C72.786263,249.555283 72.787094,249.551422 70.088547,259.655640 
	C70.056412,260.053741 70.033150,260.529480 69.703209,260.943481 
	C67.279694,270.262573 65.186127,279.167694 63.092556,288.072784 
	C63.050137,288.791809 63.007710,289.510864 62.619541,290.671204 
	C61.860809,292.085602 61.447823,293.058655 61.034836,294.031708 
	C60.735020,294.495605 60.435200,294.959503 59.841385,295.917755 
	C59.365311,297.275818 59.183231,298.139526 59.001148,299.003204 
	C59.001148,299.003204 58.974888,299.484161 58.620129,299.807281 
	C57.489536,302.080750 56.713703,304.031067 55.605907,306.053894 
	C51.341537,311.701050 47.470078,317.320251 43.447617,322.829224 
	C41.768188,325.129333 39.833103,327.562775 36.965744,323.591614 
	C36.965294,321.786713 36.959911,320.398773 37.195160,318.828400 
	C37.607510,318.083588 37.779221,317.521149 37.967270,316.593506 
	C38.308849,314.815277 38.634090,313.402252 39.231384,311.742889 
	C41.996571,300.391235 44.693619,289.326477 46.909622,278.166168 
	C48.336548,270.979797 46.424927,265.017700 38.781536,262.185516 
	C38.023949,261.904785 37.345364,261.357574 36.694321,260.851471 
	C33.055603,258.022705 30.080563,259.269562 28.008688,262.703644 
	C26.877548,264.578491 26.126995,266.987061 26.093077,269.168732 
	C25.917622,280.454803 26.029020,291.745300 26.029015,303.361908 
	C26.026237,304.126465 26.034851,304.563385 25.774952,305.266907 
	C25.664116,307.689423 25.821791,309.845306 25.981060,312.417786 
	C25.988407,314.222900 25.994165,315.611450 25.999924,317.000000 
	C25.350269,317.771667 24.700615,318.543365 23.696896,319.647461 
	C22.603399,319.558014 21.891228,319.069794 21.110277,318.748932 
	C20.823713,318.631165 20.374355,318.909607 19.999264,319.007324 
	C19.999266,319.007324 19.528746,318.987579 19.294209,318.975769 
	C19.037020,316.277893 19.014368,313.591827 18.995317,310.202271 
	C18.993893,309.329102 18.988869,309.159424 18.983843,308.989746 
	C18.983843,308.989746 18.972418,308.499969 19.227470,308.005127 
	C18.976450,306.005249 18.470379,304.500275 17.964306,302.995270 
	C17.401762,299.609589 16.839214,296.223938 16.566984,292.362000 
	C18.419865,289.985504 21.138666,287.930145 16.188910,286.903564 
	C16.076620,276.598511 15.964332,266.293457 15.893029,255.169830 
	C15.951494,253.565964 15.968973,252.780640 16.247986,251.794281 
	C17.672949,250.056046 18.836378,248.518860 19.999811,246.981674 
	C20.430979,246.972046 20.862141,246.962418 21.616104,246.940491 
z"/>
<path fill="#E3CC9B" opacity="1.000000" stroke="none" 
	d="
M63.443111,287.963776 
	C65.186127,279.167694 67.279694,270.262573 69.692169,261.181396 
	C67.938606,269.955109 65.866142,278.904938 63.443111,287.963776 
z"/>
<path fill="#E3CC9B" opacity="1.000000" stroke="none" 
	d="
M55.937874,305.981415 
	C56.713703,304.031067 57.489536,302.080750 58.611900,300.047974 
	C58.978806,300.416107 58.999184,300.866608 59.028038,301.654907 
	C58.446575,303.137543 57.856632,304.282410 56.858673,305.712311 
	C56.279732,305.992035 56.108803,305.986725 55.937874,305.981415 
z"/>
<path fill="#E3CC9B" opacity="1.000000" stroke="none" 
	d="
M61.371609,293.958374 
	C61.447823,293.058655 61.860809,292.085602 62.604469,291.031067 
	C62.526222,291.928070 62.117302,292.906555 61.371609,293.958374 
z"/>
<path fill="#E3CC9B" opacity="1.000000" stroke="none" 
	d="
M59.268936,298.874847 
	C59.183231,298.139526 59.365311,297.275818 59.813881,296.204041 
	C59.899151,296.912781 59.717937,297.829620 59.268936,298.874847 
z"/>
<path fill="#E3CC9B" opacity="1.000000" stroke="none" 
	d="
M15.986452,251.995316 
	C15.968973,252.780640 15.951494,253.565964 15.875186,254.743607 
	C12.023089,253.221161 11.786256,249.516998 15.573715,246.434509 
	C15.933402,248.491013 15.959927,250.243164 15.986452,251.995316 
z"/>
<path fill="#E6D09F" opacity="1.000000" stroke="none" 
	d="
M16.247986,251.794281 
	C15.959927,250.243164 15.933402,248.491013 15.955533,246.380463 
	C17.171431,246.172836 18.338673,246.323624 19.752861,246.728043 
	C18.836378,248.518860 17.672949,250.056046 16.247986,251.794281 
z"/>
<path fill="#E6D09F" opacity="1.000000" stroke="none" 
	d="
M17.671507,303.055420 
	C18.470379,304.500275 18.976450,306.005249 19.223152,307.760193 
	C18.530302,308.005280 18.096821,308.000458 17.338188,307.989685 
	C17.134928,306.361053 17.256817,304.738312 17.671507,303.055420 
z"/>
<path fill="#E6D09F" opacity="1.000000" stroke="none" 
	d="
M16.131102,287.334717 
	C21.138666,287.930145 18.419865,289.985504 16.543106,291.988403 
	C16.177038,290.649323 16.125166,289.207611 16.131102,287.334717 
z"/>
<path fill="#DEBE86" opacity="1.000000" stroke="none" 
	d="
M43.660294,89.850121 
	C45.447666,90.956047 46.896656,91.913223 48.852478,93.164322 
	C49.906403,93.638618 50.453491,93.819000 51.000580,93.999390 
	C51.000580,93.999390 51.000000,94.000000 51.158875,94.303322 
	C54.500202,98.479080 56.888004,102.629822 55.984867,107.933098 
	C45.625751,108.294052 35.266640,108.655006 24.305935,108.681717 
	C23.467722,104.564285 23.231098,100.781090 22.994476,96.997894 
	C23.762726,95.716362 24.265511,93.848358 25.384558,93.341827 
	C26.254829,92.947906 28.167288,93.958015 29.132046,94.861481 
	C31.038748,96.647041 32.337902,99.166733 34.407890,100.664955 
	C36.000206,101.817436 38.387844,101.871078 40.421818,102.413361 
	C40.688797,100.443542 41.169857,98.470070 41.136414,96.505371 
	C41.118515,95.453850 40.137024,94.446999 39.724010,93.368813 
	C38.274136,89.583893 39.363384,88.216751 43.660294,89.850121 
z"/>
<path fill="#D5B784" opacity="1.000000" stroke="none" 
	d="
M22.644127,97.081009 
	C23.231098,100.781090 23.467722,104.564285 23.864681,108.686119 
	C22.635908,109.370270 21.246799,109.715775 19.484566,110.076782 
	C16.874041,104.971024 20.735205,101.350975 22.644127,97.081009 
z"/>
<path fill="#CEB384" opacity="1.000000" stroke="none" 
	d="
M36.679878,99.524788 
	C36.503834,98.605057 36.596462,97.862022 36.689095,97.118988 
	C37.352711,97.453247 38.016327,97.787506 38.679939,98.121765 
	C38.102810,98.648346 37.525681,99.174919 36.679878,99.524788 
z"/>
<path fill="#DBDBDB" opacity="1.000000" stroke="none" 
	d="
M44.933201,194.798386 
	C44.417419,194.892746 43.880898,194.694336 43.162804,194.270172 
	C43.624977,194.198151 44.268719,194.351898 44.933201,194.798386 
z"/>
<path fill="#C5C5C5" opacity="1.000000" stroke="none" 
	d="
M52.960594,111.975121 
	C51.260056,111.967316 49.559513,111.959511 47.134521,111.700668 
	C41.281990,111.980392 36.153912,112.511139 30.646633,113.029320 
	C29.511301,113.047813 28.755165,113.078880 27.599442,113.081787 
	C24.768419,114.019272 22.336983,114.984917 19.588123,115.957504 
	C18.847393,115.992523 18.424088,116.020584 17.655905,116.080963 
	C16.197292,116.397072 15.083558,116.680870 13.969826,116.964676 
	C15.428705,115.774818 16.706076,114.040115 18.376007,113.483818 
	C28.981993,109.950653 39.941940,108.697395 51.095581,109.135033 
	C51.656868,109.157059 52.196468,109.731743 52.865555,110.714767 
	C52.976830,111.578659 52.968712,111.776886 52.960594,111.975121 
z"/>
<path fill="#D7B781" opacity="1.000000" stroke="none" 
	d="
M56.413090,107.957275 
	C56.888004,102.629822 54.500202,98.479080 51.159065,94.303017 
	C57.307201,95.844582 61.594555,101.015045 61.980976,107.661163 
	C60.261360,108.039810 58.551338,108.010628 56.413090,107.957275 
z"/>
<path fill="#C5C5C5" opacity="1.000000" stroke="none" 
	d="
M59.987000,112.949684 
	C59.284428,112.927383 58.581856,112.905090 57.476761,112.546188 
	C56.991379,111.539520 56.908516,110.869453 56.825653,110.199387 
	C61.505283,111.558319 66.184914,112.917252 70.572800,114.597565 
	C68.175125,114.327637 66.069199,113.736336 63.963268,113.145035 
	C63.524097,113.115150 63.084930,113.085266 62.170036,112.842712 
	C61.125210,112.736588 60.556107,112.843140 59.987000,112.949684 
z"/>
<path fill="#E5E5E5" opacity="1.000000" stroke="none" 
	d="
M13.858573,117.162918 
	C15.083558,116.680870 16.197292,116.397072 17.595383,116.398712 
	C17.252707,117.788368 16.625673,118.892586 15.817732,120.227837 
	C15.089823,120.638580 14.542819,120.818283 13.995816,120.997986 
	C13.486732,120.732399 12.977648,120.466812 12.205804,120.080872 
	C12.229472,119.446915 12.515899,118.933304 12.905750,118.140625 
	C13.313388,117.780571 13.559436,117.613770 13.858573,117.162918 
z"/>
<path fill="#E5E5E5" opacity="1.000000" stroke="none" 
	d="
M64.034325,113.484779 
	C66.069199,113.736336 68.175125,114.327637 70.646896,114.952957 
	C71.012733,114.986977 71.041260,115.456322 71.041321,115.690857 
	C68.729385,115.225098 66.417381,114.524811 64.034325,113.484779 
z"/>
<path fill="#E5E5E5" opacity="1.000000" stroke="none" 
	d="
M76.168564,120.224686 
	C75.738457,119.449982 75.483833,118.890419 75.171471,118.023537 
	C75.830490,117.795692 76.547249,117.875168 77.623650,117.984108 
	C78.243431,118.520004 78.503563,119.026428 78.852081,119.805351 
	C78.074989,120.198509 77.209518,120.319176 76.168564,120.224686 
z"/>
<path fill="#E5E5E5" opacity="1.000000" stroke="none" 
	d="
M56.504833,110.208466 
	C56.908516,110.869453 56.991379,111.539520 57.125282,112.543701 
	C56.008812,112.613899 54.841305,112.349991 53.317192,112.030602 
	C52.968712,111.776886 52.976830,111.578659 52.994888,111.080833 
	C54.064564,110.593346 55.124287,110.405441 56.504833,110.208466 
z"/>
<path fill="#D7B781" opacity="1.000000" stroke="none" 
	d="
M50.962402,93.718735 
	C50.453491,93.819000 49.906403,93.638618 49.179691,93.225555 
	C49.641457,93.141273 50.282841,93.289673 50.962402,93.718735 
z"/>
<path fill="#E6D09F" opacity="1.000000" stroke="none" 
	d="
M55.605911,306.053894 
	C56.108803,305.986725 56.279732,305.992035 56.706688,306.003357 
	C52.716244,312.427338 48.465130,318.842224 44.226494,325.265350 
	C43.150337,326.896149 42.113853,328.553070 41.006165,330.535950 
	C40.163807,330.661072 39.374416,330.448242 38.267693,329.822449 
	C37.633518,328.939636 37.316681,328.469818 36.967117,327.683350 
	C36.943199,326.247314 36.952007,325.127960 36.960815,324.008575 
	C39.833103,327.562775 41.768188,325.129333 43.447617,322.829224 
	C47.470078,317.320251 51.341537,311.701050 55.605911,306.053894 
z"/>
<path fill="#D1B786" opacity="1.000000" stroke="none" 
	d="
M33.998035,319.000031 
	C33.554756,319.000214 33.111473,319.000397 32.335800,319.002014 
	C32.003410,319.003387 31.987820,318.986755 31.991493,318.561584 
	C32.677792,313.759796 33.360420,309.383240 34.292198,305.121521 
	C35.028927,305.491913 35.516495,305.747406 36.004227,306.440247 
	C35.997055,310.251343 35.989723,313.625061 35.984322,317.332458 
	C35.972061,318.110748 35.957878,318.555359 35.619434,318.998230 
	C34.862793,318.997650 34.430416,318.998840 33.998035,319.000031 
z"/>
<path fill="#DAC08F" opacity="1.000000" stroke="none" 
	d="
M33.999115,319.444275 
	C34.430416,318.998840 34.862793,318.997650 35.872459,319.002014 
	C36.618008,319.008636 36.786266,319.009735 36.954529,319.010803 
	C36.959911,320.398773 36.965294,321.786713 36.965744,323.591614 
	C36.952007,325.127960 36.943199,326.247314 36.648788,327.652527 
	C35.572632,327.626099 34.782074,327.313812 33.991516,327.001556 
	C33.994408,324.630524 33.997303,322.259521 33.999115,319.444275 
z"/>
<path fill="#D1B786" opacity="1.000000" stroke="none" 
	d="
M33.786926,327.200287 
	C34.782074,327.313812 35.572632,327.626099 36.681519,327.969177 
	C37.316681,328.469818 37.633518,328.939636 37.979137,329.702148 
	C35.286339,331.254517 34.048180,329.985107 33.786926,327.200287 
z"/>
<path fill="#DECDAE" opacity="1.000000" stroke="none" 
	d="
M34.043045,305.006653 
	C33.360420,309.383240 32.677792,313.759796 31.982725,318.552002 
	C28.293600,317.922638 30.723906,315.574799 30.893250,312.925690 
	C31.299818,309.440948 31.663561,306.749023 32.350883,304.043030 
	C33.106441,304.033020 33.538422,304.037048 33.979507,304.283142 
	C33.988613,304.525238 34.043045,305.006653 34.043045,305.006653 
z"/>
<path fill="#CDB283" opacity="1.000000" stroke="none" 
	d="
M32.027306,304.057068 
	C31.663561,306.749023 31.299818,309.440948 30.912479,312.554810 
	C30.264677,312.211731 29.640469,311.446686 29.007656,309.902100 
	C28.987120,307.070404 28.975187,305.018280 28.968277,302.638428 
	C28.974220,301.873474 28.975145,301.436157 29.191608,300.882843 
	C29.673738,300.564545 29.870396,300.308533 30.348976,300.080963 
	C31.142992,301.461121 31.585150,302.759094 32.027306,304.057068 
z"/>
<path fill="#DAC08F" opacity="1.000000" stroke="none" 
	d="
M28.963257,302.966125 
	C28.975187,305.018280 28.987120,307.070404 28.998760,309.560120 
	C28.828058,309.998169 28.657644,309.998657 27.985584,309.752625 
	C27.003780,308.004181 26.523621,306.502228 26.043465,305.000305 
	C26.034851,304.563385 26.026237,304.126465 26.393970,303.353027 
	C27.501297,302.999725 28.232277,302.982910 28.963257,302.966125 
z"/>
<path fill="#E6D09F" opacity="1.000000" stroke="none" 
	d="
M25.774952,305.266907 
	C26.523621,306.502228 27.003780,308.004181 27.729967,309.751434 
	C27.973976,310.433563 27.971960,310.870392 27.637596,311.644623 
	C26.863321,311.988434 26.421394,311.994812 25.979467,312.001221 
	C25.821791,309.845306 25.664116,307.689423 25.774952,305.266907 
z"/>
<path fill="#DAC08F" opacity="1.000000" stroke="none" 
	d="
M25.981060,312.417786 
	C26.421394,311.994812 26.863321,311.988434 27.635740,311.972168 
	C27.551601,313.582916 27.136969,315.203583 26.361130,316.912109 
	C25.994165,315.611450 25.988407,314.222900 25.981060,312.417786 
z"/>
<path fill="#E6D09F" opacity="1.000000" stroke="none" 
	d="
M19.999617,319.360413 
	C20.374355,318.909607 20.823713,318.631165 21.110277,318.748932 
	C21.891228,319.069794 22.603399,319.558014 23.671688,319.990051 
	C22.505791,322.154816 21.088276,323.231415 19.999617,319.360413 
z"/>
<path fill="#E6D09F" opacity="1.000000" stroke="none" 
	d="
M18.836676,309.088074 
	C18.988869,309.159424 18.993893,309.329102 18.993252,309.753418 
	C18.888227,309.734192 18.788868,309.460266 18.836676,309.088074 
z"/>
<path fill="#E3CC9B" opacity="1.000000" stroke="none" 
	d="
M57.657768,247.084045 
	C53.321568,249.017105 48.676327,251.454865 43.734848,252.526016 
	C41.963734,252.909927 39.477707,249.995743 37.159706,248.284439 
	C43.744888,247.671082 50.488331,247.360138 57.657768,247.084045 
z"/>
<path fill="#EDEDED" opacity="1.000000" stroke="none" 
	d="
M49.384861,152.950836 
	C48.540119,150.805023 47.080738,147.003586 47.674480,146.650024 
	C49.905884,145.321289 52.806770,145.116837 55.728367,144.757751 
	C53.904221,147.642303 51.808544,150.260269 49.384861,152.950836 
z"/>
<path fill="#E5E5E5" opacity="1.000000" stroke="none" 
	d="
M31.025829,113.041893 
	C36.153912,112.511139 41.281990,111.980392 46.709473,111.706757 
	C44.458668,113.097183 41.908459,114.230476 38.874191,115.811264 
	C37.258499,116.836754 36.126869,117.414742 34.646259,118.040741 
	C33.062302,119.332909 31.635601,120.439468 30.626387,121.845665 
	C26.776793,127.209496 27.834940,133.114441 28.651325,138.928680 
	C27.250149,138.267075 26.190353,137.674072 24.585154,136.775894 
	C24.341660,138.534760 24.174786,139.740158 24.007912,140.945557 
	C24.998949,142.704926 25.989986,144.464279 27.002666,146.587296 
	C23.929127,149.000916 20.833944,151.050873 17.534863,153.235901 
	C17.560699,152.658005 17.303032,151.662231 17.678881,151.065399 
	C21.248884,145.396194 21.279821,145.415680 15.221127,142.300385 
	C16.277323,141.493500 17.562805,140.945816 19.091530,140.294479 
	C16.749834,140.025192 14.662760,139.785187 12.292036,139.292053 
	C14.898195,137.900635 17.788002,136.762329 21.255451,135.287338 
	C26.110909,132.828049 23.039248,128.925171 24.342014,125.955223 
	C25.627947,124.936729 26.573231,123.962395 27.518517,122.988068 
	C26.687864,122.657234 25.857212,122.326393 25.026560,121.995552 
	C25.021790,121.552261 25.017017,121.108963 25.374100,120.327736 
	C26.826485,118.990685 27.917017,117.991562 29.252209,116.746605 
	C30.820484,116.146896 32.144104,115.793015 33.992279,115.298897 
	C32.690865,114.308723 31.858347,113.675308 31.025829,113.041893 
z"/>
<path fill="#F3F3F3" opacity="1.000000" stroke="none" 
	d="
M34.995239,117.992729 
	C36.126869,117.414742 37.258499,116.836754 38.687805,116.121819 
	C38.787281,117.099823 38.867462,118.369011 38.348270,119.306122 
	C32.482700,129.893143 33.795361,134.684296 44.294376,140.673447 
	C45.139698,141.155655 45.879898,141.822144 46.833710,142.700287 
	C44.496754,143.503067 41.995033,144.008545 39.182312,143.928497 
	C38.313705,142.767227 37.823421,142.100708 37.188217,141.629608 
	C29.733404,136.100754 28.427515,130.355530 32.815090,122.378166 
	C33.601135,120.948990 34.271477,119.456161 34.995239,117.992729 
z"/>
<path fill="#E5E5E5" opacity="1.000000" stroke="none" 
	d="
M60.133690,113.165245 
	C60.556107,112.843140 61.125210,112.736588 61.839878,112.842743 
	C61.417088,113.163895 60.848736,113.272346 60.133690,113.165245 
z"/>
<path fill="#EFEFEF" opacity="1.000000" stroke="none" 
	d="
M34.646263,118.040741 
	C34.271477,119.456161 33.601135,120.948990 32.815090,122.378166 
	C28.427515,130.355530 29.733404,136.100754 37.188217,141.629608 
	C37.823421,142.100708 38.313705,142.767227 38.929878,143.683685 
	C37.238159,143.722855 35.487873,143.421295 33.298683,142.729584 
	C31.906534,141.893570 30.953291,141.447693 29.887211,140.744858 
	C29.513817,139.991013 29.253262,139.494141 28.992706,138.997269 
	C27.834940,133.114441 26.776793,127.209496 30.626387,121.845665 
	C31.635601,120.439468 33.062302,119.332909 34.646263,118.040741 
z"/>
<path fill="#E7E7E7" opacity="1.000000" stroke="none" 
	d="
M28.651327,138.928680 
	C29.253262,139.494141 29.513817,139.991013 30.000919,141.000458 
	C30.485229,142.009079 30.742996,142.505157 31.000763,143.001221 
	C28.887106,142.424759 26.773447,141.848312 24.333851,141.108704 
	C24.174786,139.740158 24.341660,138.534760 24.585154,136.775894 
	C26.190353,137.674072 27.250149,138.267075 28.651327,138.928680 
z"/>
<path fill="#E5E5E5" opacity="1.000000" stroke="none" 
	d="
M31.331001,143.004120 
	C30.742996,142.505157 30.485229,142.009079 30.113756,141.257416 
	C30.953291,141.447693 31.906534,141.893570 32.920662,142.677567 
	C32.541447,143.012802 32.101341,143.009918 31.331001,143.004120 
z"/>
<path fill="#EFEFEF" opacity="1.000000" stroke="none" 
	d="
M29.007549,116.992439 
	C27.917017,117.991562 26.826485,118.990685 25.375153,119.995247 
	C21.614780,120.665665 18.215210,121.330635 14.407932,121.997955 
	C13.999631,121.833252 13.999038,121.666206 13.997130,121.248581 
	C14.542819,120.818283 15.089823,120.638580 16.162725,120.186897 
	C18.459124,118.943413 20.229624,117.971901 22.333313,117.000610 
	C23.110746,116.999664 23.554991,116.998505 24.416397,116.998276 
	C26.224892,116.996941 27.616219,116.994690 29.007549,116.992439 
z"/>
<path fill="#DBDBDB" opacity="1.000000" stroke="none" 
	d="
M24.001364,125.999390 
	C23.039248,128.925171 26.110909,132.828049 21.433262,134.966156 
	C21.803854,131.447708 22.574276,127.913765 23.669495,124.532974 
	C23.996647,125.123871 23.999004,125.561630 24.001364,125.999390 
z"/>
<path fill="#E7E7E7" opacity="1.000000" stroke="none" 
	d="
M24.342014,125.955223 
	C23.999004,125.561630 23.996647,125.123871 23.989388,124.358437 
	C24.305571,123.550301 24.626656,123.069839 24.987150,122.292465 
	C25.857212,122.326393 26.687864,122.657234 27.518517,122.988068 
	C26.573231,123.962395 25.627947,124.936729 24.342014,125.955223 
z"/>
<path fill="#E6D09F" opacity="1.000000" stroke="none" 
	d="
M28.968277,302.638428 
	C28.232277,302.982910 27.501297,302.999725 26.405361,303.025391 
	C26.029020,291.745300 25.917622,280.454803 26.093077,269.168732 
	C26.126995,266.987061 26.877548,264.578491 28.008688,262.703644 
	C30.080563,259.269562 33.055603,258.022705 36.694321,260.851471 
	C37.345364,261.357574 38.023949,261.904785 38.781536,262.185516 
	C46.424927,265.017700 48.336548,270.979797 46.909622,278.166168 
	C44.693619,289.326477 41.996571,300.391235 38.977306,311.472412 
	C39.828995,303.211395 41.012455,294.936035 42.630482,286.746552 
	C45.019859,274.652924 43.074898,268.842773 34.628765,264.377808 
	C29.222656,268.691559 27.136133,278.847473 29.981857,287.337128 
	C29.977846,288.107666 29.971617,288.547943 29.704823,289.269775 
	C29.288193,293.367157 29.132130,297.183014 28.976068,300.998871 
	C28.975145,301.436157 28.974220,301.873474 28.968277,302.638428 
z"/>
<path fill="#DAC08F" opacity="1.000000" stroke="none" 
	d="
M29.979641,287.006897 
	C27.136133,278.847473 29.222656,268.691559 34.628765,264.377808 
	C43.074898,268.842773 45.019859,274.652924 42.630482,286.746552 
	C41.012455,294.936035 39.828995,303.211395 38.705254,311.718811 
	C38.634090,313.402252 38.308849,314.815277 37.639957,316.603271 
	C36.858334,316.985077 36.420364,316.991943 35.982391,316.998779 
	C35.989723,313.625061 35.997055,310.251343 36.122757,306.160248 
	C35.835220,304.620056 35.429310,303.797272 35.059380,302.634460 
	C35.397469,301.198334 35.699577,300.102234 36.339043,298.942200 
	C37.118015,297.919525 37.559635,296.960693 38.264969,295.719971 
	C39.201057,292.248016 40.500572,289.034363 40.381268,285.874268 
	C40.243462,282.223938 42.864605,277.682190 38.002853,274.592285 
	C37.302101,272.546692 36.599655,270.908203 35.897209,269.269714 
	C34.950443,270.612457 33.556667,271.830475 33.140572,273.321320 
	C31.883221,277.826324 31.005398,282.437256 29.979641,287.006897 
z"/>
<path fill="#E6D09F" opacity="1.000000" stroke="none" 
	d="
M35.984318,317.332458 
	C36.420364,316.991943 36.858334,316.985077 37.623619,316.968506 
	C37.779221,317.521149 37.607510,318.083588 37.195160,318.828400 
	C36.786266,319.009735 36.618008,319.008636 36.196720,319.003784 
	C35.957878,318.555359 35.972061,318.110748 35.984318,317.332458 
z"/>
<path fill="#E7E7E7" opacity="1.000000" stroke="none" 
	d="
M29.252207,116.746605 
	C27.616219,116.994690 26.224892,116.996941 24.491192,116.662827 
	C25.432224,115.254288 26.715628,114.182121 27.999029,113.109947 
	C28.755165,113.078880 29.511301,113.047813 30.646633,113.029320 
	C31.858347,113.675308 32.690865,114.308723 33.992279,115.298897 
	C32.144104,115.793015 30.820484,116.146896 29.252207,116.746605 
z"/>
<path fill="#E5E5E5" opacity="1.000000" stroke="none" 
	d="
M27.599442,113.081787 
	C26.715628,114.182121 25.432224,115.254288 24.074028,116.661911 
	C23.554991,116.998505 23.110746,116.999664 22.142338,116.763840 
	C21.047295,116.334755 20.476421,116.142662 19.905548,115.950562 
	C22.336983,114.984917 24.768419,114.019272 27.599442,113.081787 
z"/>
<path fill="#E7E7E7" opacity="1.000000" stroke="none" 
	d="
M19.588123,115.957504 
	C20.476421,116.142662 21.047295,116.334755 21.809147,116.763618 
	C20.229624,117.971901 18.459124,118.943413 16.343632,119.955864 
	C16.625673,118.892586 17.252707,117.788368 17.940262,116.366394 
	C18.424088,116.020584 18.847393,115.992523 19.588123,115.957504 
z"/>
<path fill="#CDB283" opacity="1.000000" stroke="none" 
	d="
M35.023399,302.974457 
	C35.429310,303.797272 35.835220,304.620056 36.122597,305.722900 
	C35.516495,305.747406 35.028927,305.491913 34.292198,305.121521 
	C34.043045,305.006653 33.988613,304.525238 34.108398,304.062439 
	C34.493256,303.391235 34.758327,303.182831 35.023399,302.974457 
z"/>
<path fill="#D1B786" opacity="1.000000" stroke="none" 
	d="
M35.059380,302.634460 
	C34.758327,303.182831 34.493256,303.391235 34.099293,303.820374 
	C33.538422,304.037048 33.106441,304.033020 32.350887,304.043030 
	C31.585150,302.759094 31.142992,301.461121 30.348366,299.680634 
	C30.000116,298.130463 30.004337,297.062775 30.399738,295.976410 
	C32.527252,291.971405 34.263588,287.985107 36.152054,283.661865 
	C36.535194,281.874725 36.766197,280.424530 36.996994,278.613281 
	C37.331577,277.167908 37.666370,276.083649 38.001163,274.999359 
	C42.864605,277.682190 40.243462,282.223938 40.381268,285.874268 
	C40.500572,289.034363 39.201057,292.248016 38.005165,295.591431 
	C36.867954,295.383667 36.254257,295.022552 35.363766,294.498535 
	C35.617062,296.288361 35.809372,297.647247 36.001682,299.006104 
	C35.699577,300.102234 35.397469,301.198334 35.059380,302.634460 
z"/>
<path fill="#DAC08F" opacity="1.000000" stroke="none" 
	d="
M30.008558,295.995117 
	C30.004337,297.062775 30.000116,298.130463 29.996508,299.598450 
	C29.870396,300.308533 29.673738,300.564545 29.191608,300.882843 
	C29.132130,297.183014 29.288193,293.367157 29.969471,289.525269 
	C30.332645,291.664551 30.170603,293.829834 30.008558,295.995117 
z"/>
<path fill="#CDB283" opacity="1.000000" stroke="none" 
	d="
M30.399738,295.976410 
	C30.170603,293.829834 30.332645,291.664551 30.230038,289.243774 
	C29.971617,288.547943 29.977846,288.107666 29.981859,287.337128 
	C31.005398,282.437256 31.883221,277.826324 33.140572,273.321320 
	C33.556667,271.830475 34.950443,270.612457 35.897209,269.269714 
	C36.599655,270.908203 37.302101,272.546692 38.002853,274.592285 
	C37.666370,276.083649 37.331577,277.167908 36.651646,278.697449 
	C36.204311,280.761414 36.102116,282.380127 35.999916,283.998810 
	C34.263588,287.985107 32.527252,291.971405 30.399738,295.976410 
z"/>
<path fill="#CDB283" opacity="1.000000" stroke="none" 
	d="
M36.339039,298.942200 
	C35.809372,297.647247 35.617062,296.288361 35.363766,294.498535 
	C36.254257,295.022552 36.867954,295.383667 37.741451,295.873352 
	C37.559635,296.960693 37.118015,297.919525 36.339039,298.942200 
z"/>
<path fill="#DAC08F" opacity="1.000000" stroke="none" 
	d="
M36.152054,283.661865 
	C36.102116,282.380127 36.204311,280.761414 36.651855,279.058533 
	C36.766197,280.424530 36.535194,281.874725 36.152054,283.661865 
z"/>
</svg>