<svg version="1.1" id="Layer_1" xmlns="http://www.w3.org/2000/svg" xmlns:xlink="http://www.w3.org/1999/xlink" x="0px" y="0px"
	 width="100%" viewBox="0 0 91 405" enable-background="new 0 0 91 405" xml:space="preserve">
<path fill="#D5D5D5" opacity="1.000000" stroke="none" 
	d="
M20.669186,101.981247 
	C21.333632,100.131454 21.998074,98.281662 23.193153,96.508331 
	C24.553629,96.896324 25.383467,97.207870 26.213303,97.519417 
	C26.361555,97.080055 26.662689,96.266113 26.636063,96.255241 
	C25.499836,95.791519 24.334440,95.399261 23.172628,94.998230 
	C24.273283,91.163330 25.373938,87.328423 26.995049,83.302391 
	C27.515505,83.111259 27.927370,83.097389 28.043180,83.298187 
	C28.158991,83.498993 28.325752,83.931564 28.262247,84.223129 
	C28.437738,85.032471 28.676735,85.550240 29.041058,86.209145 
	C29.460712,86.230423 29.755041,86.110573 30.079067,85.793633 
	C30.108767,85.596542 30.163921,85.201744 30.459448,85.105759 
	C31.198513,84.366745 31.642050,83.723701 32.273163,82.868134 
	C32.977871,82.444168 33.495003,82.232735 34.347355,81.883118 
	C42.969517,77.182304 51.214714,76.884361 59.434399,81.940918 
	C59.819195,82.177635 60.399597,82.096390 61.048759,82.430969 
	C62.080135,83.854240 62.951653,85.009758 63.863609,86.533173 
	C63.962830,89.505920 64.967186,91.194618 67.894775,91.019882 
	C70.570938,100.541206 73.337608,110.038742 75.850189,119.603035 
	C76.380264,121.620773 75.979118,123.883141 75.609772,126.138947 
	C73.480736,121.017471 69.981636,120.244255 65.056686,121.713692 
	C59.674026,123.319710 54.620720,125.386261 48.618259,125.845062 
	C41.403469,126.396523 35.490318,125.287506 29.221542,122.326553 
	C26.854876,121.208694 23.550722,121.913651 20.699707,122.129044 
	C20.171961,122.168922 19.767712,123.843376 19.306463,124.763412 
	C20.146851,125.013885 21.319304,125.747856 21.773436,125.435951 
	C24.609203,123.488319 26.629976,125.404373 29.040016,126.430298 
	C32.963131,128.100327 38.195797,131.543167 40.868080,130.210861 
	C45.316051,127.993248 49.154354,129.482315 53.177769,128.908478 
	C56.361027,128.454468 59.638847,127.607880 62.495644,126.178223 
	C66.377533,124.235573 69.776428,122.884521 73.191658,126.841499 
	C73.562027,127.270607 74.870041,126.890442 75.743134,126.885658 
	C77.195198,133.051300 73.324196,137.194382 69.339104,140.286957 
	C55.213928,151.248642 41.194405,151.215912 26.506588,141.888657 
	C16.942745,135.815292 14.325148,127.465973 17.080702,116.049568 
	C17.848597,112.868141 18.362385,109.625389 19.666016,106.187988 
	C21.496998,105.352318 22.654711,104.739418 23.812424,104.126518 
	C22.764675,103.411430 21.716930,102.696335 20.669186,101.981247 
M63.000000,98.999695 
	C63.000000,98.999695 63.017998,98.985336 63.016682,98.191154 
	C63.008106,93.353493 60.429451,90.468956 55.473835,88.686607 
	C54.655060,87.785828 53.836281,86.885048 52.826599,85.300301 
	C51.552090,84.866020 50.277580,84.431740 48.209679,83.990578 
	C45.787937,84.637871 43.366199,85.285172 40.268024,86.056419 
	C38.176388,88.702812 36.084751,91.349213 33.864357,94.674583 
	C32.553684,97.091354 31.243010,99.508118 29.249931,102.071129 
	C28.481983,103.362846 27.714033,104.654556 26.235191,106.154671 
	C21.987360,111.544922 23.146830,114.866409 29.677902,116.184151 
	C31.132561,116.477646 32.525074,117.069183 33.957893,117.483025 
	C36.639809,118.257652 39.419823,119.866997 42.000584,119.599640 
	C50.086792,118.761948 58.115845,117.302475 66.120377,115.830170 
	C67.184853,115.634361 68.880768,113.246948 68.762589,113.100243 
	C67.289833,111.271942 70.752953,107.173203 65.526611,106.398018 
	C65.346596,104.601357 65.166580,102.804695 64.879044,100.389030 
	C64.258881,99.920357 63.638718,99.451675 63.000000,98.999695 
M43.645008,142.117554 
	C44.063644,142.111786 44.482277,142.106033 45.156418,142.777283 
	C48.406738,145.092422 50.947922,144.001419 53.741417,141.116272 
	C54.157925,141.103622 54.574436,141.090958 55.477222,141.480652 
	C58.582043,139.567947 61.830082,137.843201 64.716415,135.643768 
	C65.770958,134.840195 65.966209,132.908936 66.553467,131.492142 
	C64.904778,131.015884 63.213871,130.041428 61.616989,130.176727 
	C59.033966,130.395599 56.542397,131.522720 53.959908,131.950806 
	C45.864155,133.292755 37.830299,133.348328 29.941687,130.537018 
	C29.055096,130.221054 27.271317,130.503601 26.896240,131.116287 
	C26.318073,132.060760 26.071003,133.891159 26.625217,134.702362 
	C27.754992,136.355988 29.512829,137.580490 31.462418,139.451996 
	C32.299004,139.643768 33.135590,139.835541 34.287338,140.583481 
	C35.196507,141.046539 36.105671,141.509583 37.674751,141.997803 
	C38.114857,142.009216 38.554966,142.020645 39.454994,142.494186 
	C40.642330,142.369705 41.829666,142.245239 43.645008,142.117554 
M71.233047,114.492706 
	C71.524086,114.785194 71.815132,115.077675 72.106171,115.370163 
	C72.309761,115.008530 72.513351,114.646896 72.716934,114.285255 
	C72.262520,114.182693 71.808105,114.080139 71.233047,114.492706 
z"/>
<path fill="#D3D3D2" opacity="1.000000" stroke="none" 
	d="
M25.666542,251.060333 
	C23.108185,238.412033 21.397921,225.517029 17.806007,213.169388 
	C11.334048,190.921204 23.611242,171.411621 39.677853,163.479782 
	C49.488209,158.636551 58.206524,159.570526 67.867172,169.998871 
	C76.940887,179.793625 78.197105,191.649750 76.437706,204.152451 
	C75.108627,213.597122 73.610825,223.021698 71.978302,232.418762 
	C70.834877,239.000488 69.337738,245.520798 67.672577,252.240082 
	C66.929871,251.374680 66.513138,250.337738 65.654243,248.200577 
	C64.369797,250.799698 63.625736,252.305328 62.544991,253.920471 
	C57.906940,257.229156 53.064297,258.884583 47.773453,257.908020 
	C42.162712,256.872375 36.655807,255.274155 31.070257,253.951263 
	C31.036959,253.980865 31.078482,253.902115 31.012489,253.572632 
	C29.934710,250.705750 28.300100,249.674866 25.666542,251.060333 
M35.000000,249.000000 
	C35.000000,249.000000 34.981804,249.018021 35.121750,249.751053 
	C40.277721,253.445282 46.043354,254.736099 52.223339,253.632324 
	C53.600330,253.386383 54.760216,251.924896 56.000572,251.000153 
	C56.000572,251.000153 56.015553,251.021164 56.748898,250.998047 
	C58.807125,249.249527 61.991776,247.872879 62.714565,245.683487 
	C64.976860,238.830734 66.670479,231.733902 67.907021,224.613998 
	C69.264252,216.799225 70.167320,208.872559 70.667137,200.956680 
	C70.895897,197.333679 73.087166,193.072678 69.012772,189.311142 
	C69.024796,188.876785 69.036819,188.442413 69.504036,187.493729 
	C68.350060,184.654770 67.196083,181.815826 65.991875,178.245987 
	C64.029030,176.429504 62.066185,174.613007 60.028809,172.084793 
	C55.928204,164.532639 44.240513,164.472702 38.704033,172.480865 
	C38.141468,172.959518 37.578907,173.438156 36.560894,173.519821 
	C33.783688,176.109436 30.113670,178.227203 28.437490,181.398727 
	C25.891460,186.216080 24.729212,191.764786 22.994480,197.835342 
	C22.993389,199.224808 22.992298,200.614258 22.867229,202.758118 
	C23.412779,207.709930 23.883055,212.672775 24.603947,217.598923 
	C24.689230,218.181686 26.147207,218.563553 26.991869,219.861389 
	C26.998241,221.239349 27.004612,222.617310 26.996593,224.770142 
	C27.659634,226.514832 28.322674,228.259537 28.995497,230.668427 
	C28.999052,231.111420 29.002607,231.554413 28.992474,232.876663 
	C29.047960,234.499908 28.704266,236.269531 29.235518,237.718323 
	C30.692726,241.692261 29.005516,247.345703 35.000000,249.000000 
z"/>
<path fill="#CCB180" opacity="1.000000" stroke="none" 
	d="
M28.325752,83.931564 
	C28.325752,83.931564 28.158991,83.498993 28.227646,82.917236 
	C28.587479,79.377037 29.123861,76.418907 29.127768,73.460091 
	C29.145531,60.010963 29.040174,46.561272 28.859329,33.113400 
	C28.849844,32.408081 27.740948,31.717545 27.143879,31.020126 
	C26.762371,28.818514 26.380861,26.616903 25.945812,23.702061 
	C25.528049,21.340216 25.163824,19.691603 24.799603,18.042992 
	C24.701111,16.948854 24.602619,15.854715 24.910503,14.210498 
	C28.972408,7.531626 31.507902,7.173913 36.179680,12.807224 
	C39.294422,16.563034 41.681053,20.915020 44.543446,24.892313 
	C45.428654,26.122314 46.806747,26.997595 47.959171,28.035284 
	C48.030659,28.188313 48.102146,28.341343 47.877293,28.973663 
	C48.769020,31.944517 49.957088,34.436085 51.145157,36.927650 
	C51.145153,36.927650 51.051617,36.938961 51.141571,37.109921 
	C51.365112,37.577541 51.573544,37.805862 51.856815,37.965851 
	C54.756668,46.649250 57.759853,55.299992 60.518017,64.028168 
	C62.200451,69.352203 63.505726,74.795441 64.690903,80.586868 
	C64.401398,80.988594 63.944633,81.019737 63.665718,80.837791 
	C60.564747,77.465996 57.742695,74.276154 55.181297,70.796799 
	C55.375854,68.742722 55.710094,66.845955 55.178207,65.235199 
	C51.907433,55.330097 48.630569,45.417957 44.943985,35.663776 
	C43.520321,31.896976 41.019188,28.537399 38.968979,24.676796 
	C38.618496,23.574923 38.307972,22.788548 37.945633,21.654819 
	C36.059071,20.030643 34.224331,18.753824 32.389587,17.477003 
	C31.503582,19.781000 29.709522,22.160524 29.893751,24.375505 
	C30.575859,32.576450 32.236839,40.696896 32.896069,48.898544 
	C33.415070,55.355621 32.777821,61.900146 33.139408,68.378746 
	C33.246525,70.297997 35.000076,72.125351 35.848549,74.283569 
	C35.129154,75.715302 34.560375,76.858276 33.996506,78.000618 
	C34.001411,77.999985 34.000664,77.991005 33.698921,78.153938 
	C32.584419,79.874779 31.771656,81.432678 30.763817,83.127907 
	C30.325733,83.477509 30.130749,83.727272 29.705975,84.003815 
	C29.060698,83.972588 28.693224,83.952072 28.325752,83.931564 
z"/>
<path fill="#CEB68A" opacity="1.000000" stroke="none" 
	d="
M64.006935,276.022858 
	C62.010426,288.875061 59.368687,301.667633 58.173630,314.593933 
	C56.518070,332.501373 50.714130,349.296570 45.459034,366.202148 
	C43.176487,373.545044 38.377937,380.105865 34.351631,386.689087 
	C33.981331,385.914276 33.981552,385.472290 34.083572,384.779724 
	C34.116211,383.675964 34.047047,382.822784 34.031185,381.620056 
	C35.023010,379.148499 35.961529,377.026550 36.925949,374.680328 
	C36.951851,374.456085 37.014751,374.009033 37.222675,373.884003 
	C37.690166,373.547424 37.866623,373.280853 38.004295,372.589172 
	C39.048218,368.822601 40.047813,365.426117 41.388939,361.928650 
	C44.918217,351.802979 48.761932,341.929901 51.123386,331.714203 
	C53.914143,319.641327 55.450962,307.276917 57.477612,295.029968 
	C58.363617,289.675873 59.116177,284.299652 59.934509,278.611603 
	C59.953300,277.860657 59.966919,277.431580 60.210323,276.807739 
	C60.594105,276.044647 60.748100,275.476349 60.909569,274.517242 
	C60.939545,273.084320 60.962044,272.042175 61.238663,270.999939 
	C61.662155,270.996216 61.831528,270.992615 62.240974,271.229065 
	C62.989674,272.987030 63.498306,274.504944 64.006935,276.022858 
z"/>
<path fill="#D5BA8A" opacity="1.000000" stroke="none" 
	d="
M25.167599,362.988098 
	C25.904093,355.720795 26.634108,348.452850 27.381721,341.186707 
	C27.564285,339.412323 27.804556,337.643860 28.212877,335.115112 
	C28.563660,332.710907 28.719862,331.064331 28.887924,328.922943 
	C28.887903,314.810425 28.876024,301.192688 28.824549,287.289001 
	C28.813063,286.614929 28.841171,286.226837 29.255276,285.891846 
	C30.415991,285.954803 31.190708,285.964661 31.979471,286.411926 
	C32.327209,293.232086 33.086735,299.626740 32.908497,305.995117 
	C32.501602,320.533051 31.842428,335.072113 30.865183,349.582367 
	C30.404436,356.423553 28.975210,363.199524 27.741768,369.719421 
	C26.721676,367.285217 25.944637,365.136658 25.167599,362.988098 
z"/>
<path fill="#D3D3D3" opacity="1.000000" stroke="none" 
	d="
M75.704506,126.890060 
	C74.870041,126.890442 73.562027,127.270607 73.191658,126.841499 
	C69.776428,122.884521 66.377533,124.235573 62.495644,126.178223 
	C59.638847,127.607880 56.361027,128.454468 53.177769,128.908478 
	C49.154354,129.482315 45.316051,127.993248 40.868080,130.210861 
	C38.195797,131.543167 32.963131,128.100327 29.040016,126.430298 
	C26.629976,125.404373 24.609203,123.488319 21.773436,125.435951 
	C21.319304,125.747856 20.146851,125.013885 19.306463,124.763412 
	C19.767712,123.843376 20.171961,122.168922 20.699707,122.129044 
	C23.550722,121.913651 26.854876,121.208694 29.221542,122.326553 
	C35.490318,125.287506 41.403469,126.396523 48.618259,125.845062 
	C54.620720,125.386261 59.674026,123.319710 65.056686,121.713692 
	C69.981636,120.244255 73.480736,121.017471 75.523651,126.576675 
	C75.834778,126.908241 75.665878,126.894463 75.704506,126.890060 
z"/>
<path fill="#AEA9A1" opacity="1.000000" stroke="none" 
	d="
M54.920643,71.086304 
	C57.742695,74.276154 60.564747,77.465996 63.689880,81.175484 
	C64.633614,82.458092 65.274261,83.221054 65.914909,83.984024 
	C65.969948,84.413803 66.024986,84.843590 65.742813,85.612152 
	C64.878128,86.022377 64.350647,86.093826 63.823170,86.165276 
	C62.951653,85.009758 62.080135,83.854240 60.937180,82.103615 
	C56.112774,75.910347 50.854088,72.210938 43.161743,74.909622 
	C40.118095,75.977409 37.049065,76.972862 33.991592,78.001251 
	C34.560375,76.858276 35.129154,75.715302 36.154053,74.111359 
	C42.105583,68.453285 48.510559,69.751556 54.920643,71.086304 
z"/>
<path fill="#C7B59B" opacity="1.000000" stroke="none" 
	d="
M27.073681,31.482758 
	C27.740948,31.717545 28.849844,32.408081 28.859329,33.113400 
	C29.040174,46.561272 29.145531,60.010963 29.127768,73.460091 
	C29.123861,76.418907 28.587479,79.377037 28.111835,82.716431 
	C27.927370,83.097389 27.515505,83.111259 27.312252,83.077560 
	C27.188831,78.992722 27.268661,74.941566 27.603069,70.076447 
	C27.904680,65.838127 27.951710,62.413784 27.998739,58.989445 
	C27.666986,49.974758 27.335234,40.960072 27.073681,31.482758 
z"/>
<path fill="#CCBEA6" opacity="1.000000" stroke="none" 
	d="
M47.954269,27.657557 
	C46.806747,26.997595 45.428654,26.122314 44.543446,24.892313 
	C41.681053,20.915020 39.294422,16.563034 36.179680,12.807224 
	C31.507902,7.173913 28.972408,7.531626 25.043274,13.814720 
	C24.769667,12.051952 24.769667,10.134882 24.769667,8.746900 
	C32.478168,4.740129 36.765610,8.372259 40.189632,14.379943 
	C42.673664,18.738350 45.355652,22.983934 47.954269,27.657557 
z"/>
<path fill="#CCB07E" opacity="1.000000" stroke="none" 
	d="
M25.092751,363.369110 
	C25.944637,365.136658 26.721676,367.285217 27.744160,370.135498 
	C27.987791,372.225006 27.985979,373.612793 27.734699,375.300842 
	C26.183725,383.678558 27.624075,385.769104 33.981773,385.030304 
	C33.981552,385.472290 33.981331,385.914276 33.980854,386.687714 
	C31.747288,387.993896 29.513977,388.968628 27.280666,389.943359 
	C26.517624,387.945007 25.754581,385.946686 24.965889,383.069641 
	C24.924145,377.077271 24.908051,371.963623 24.891954,366.849945 
	C24.933939,365.816681 24.975922,364.783386 25.092751,363.369110 
z"/>
<path fill="#E4D5BE" opacity="1.000000" stroke="none" 
	d="
M28.864143,287.574951 
	C28.876024,301.192688 28.887903,314.810425 28.682617,328.804016 
	C28.256058,328.909790 27.980766,328.782654 27.639580,328.798431 
	C27.606787,315.572937 27.573996,302.347443 27.825329,288.624084 
	C28.329859,287.899811 28.581421,287.716064 28.864143,287.574951 
z"/>
<path fill="#CFB990" opacity="1.000000" stroke="none" 
	d="
M64.309753,275.745300 
	C63.498306,274.504944 62.989674,272.987030 62.240273,270.781799 
	C62.293560,264.666626 62.587620,259.238800 62.881680,253.810944 
	C63.625736,252.305328 64.369797,250.799698 65.654243,248.200577 
	C66.513138,250.337738 66.929871,251.374680 67.557800,252.652710 
	C67.171227,256.001007 66.573448,259.108215 65.588318,262.706238 
	C65.132088,264.462982 65.063202,265.728943 64.994308,266.994873 
	C64.867065,269.819183 64.739822,272.643463 64.309753,275.745300 
z"/>
<path fill="#9D907D" opacity="1.000000" stroke="none" 
	d="
M28.824549,287.289001 
	C28.581421,287.716064 28.329859,287.899811 27.881269,288.173767 
	C27.405233,278.074005 27.157385,267.926727 27.329758,257.571564 
	C28.110142,259.066681 28.754519,260.765137 28.781727,262.473419 
	C28.905754,270.260345 28.856342,278.050049 28.869280,285.838745 
	C28.841171,286.226837 28.813063,286.614929 28.824549,287.289001 
z"/>
<path fill="#CFB27A" opacity="1.000000" stroke="none" 
	d="
M29.255276,285.891846 
	C28.856342,278.050049 28.905754,270.260345 28.781727,262.473419 
	C28.754519,260.765137 28.110142,259.066681 27.414639,257.183044 
	C27.058249,256.548492 27.037201,256.094604 27.394073,255.162415 
	C28.874159,254.423447 29.976322,254.162781 31.078484,253.902130 
	C31.078482,253.902115 31.036959,253.980865 30.971622,254.363617 
	C30.632462,258.812683 30.358633,262.878998 30.059568,267.417664 
	C30.025324,271.958069 29.856993,276.035614 30.097267,280.088928 
	C30.176958,281.433289 31.307354,282.715332 31.960388,284.350830 
	C31.964075,285.108673 31.964750,285.541595 31.965425,285.974518 
	C31.190708,285.964661 30.415991,285.954803 29.255276,285.891846 
z"/>
<path fill="#B2A691" opacity="1.000000" stroke="none" 
	d="
M24.486998,366.942780 
	C24.908051,371.963623 24.924145,377.077271 24.927130,382.666595 
	C24.370192,381.429626 23.387539,379.720642 23.373240,378.003601 
	C23.342813,374.349823 23.815536,370.691864 24.486998,366.942780 
z"/>
<path fill="#DFC898" opacity="1.000000" stroke="none" 
	d="
M31.012489,253.572632 
	C29.976322,254.162781 28.874159,254.423447 27.462532,254.828186 
	C26.619244,253.910919 26.085417,252.849564 25.609066,251.424271 
	C28.300100,249.674866 29.934710,250.705750 31.012489,253.572632 
z"/>
<path fill="#B9B8B7" opacity="1.000000" stroke="none" 
	d="
M63.863609,86.533173 
	C64.350647,86.093826 64.878128,86.022377 65.802902,85.932579 
	C66.817238,87.377876 67.434288,88.841522 67.973053,90.662521 
	C64.967186,91.194618 63.962830,89.505920 63.863609,86.533173 
z"/>
<path fill="#CCBEA6" opacity="1.000000" stroke="none" 
	d="
M51.085228,36.546265 
	C49.957088,34.436085 48.769020,31.944517 47.800629,29.215141 
	C49.021973,31.373180 50.023636,33.769032 51.085228,36.546265 
z"/>
<path fill="#D3D3D3" opacity="1.000000" stroke="none" 
	d="
M20.545120,102.377258 
	C21.716930,102.696335 22.764675,103.411430 23.812424,104.126518 
	C22.654711,104.739418 21.496998,105.352318 19.926409,105.953201 
	C19.816040,104.885223 20.118547,103.829247 20.545120,102.377258 
z"/>
<path fill="#9D907D" opacity="1.000000" stroke="none" 
	d="
M27.463615,329.167725 
	C27.980766,328.782654 28.256058,328.909790 28.670757,329.298767 
	C28.719862,331.064331 28.563660,332.710907 28.244162,334.677490 
	C27.816458,333.177307 27.552053,331.357178 27.463615,329.167725 
z"/>
<path fill="#9D9484" opacity="1.000000" stroke="none" 
	d="
M27.648273,59.225189 
	C27.951710,62.413784 27.904680,65.838127 27.669687,69.615616 
	C27.420420,66.466156 27.359112,62.963547 27.648273,59.225189 
z"/>
<path fill="#CCBEA6" opacity="1.000000" stroke="none" 
	d="
M24.674622,18.396233 
	C25.163824,19.691603 25.528049,21.340216 25.970821,23.261726 
	C25.549461,21.939575 25.049551,20.344524 24.674622,18.396233 
z"/>
<path fill="#D3D3D3" opacity="1.000000" stroke="none" 
	d="
M23.107107,95.291931 
	C24.334440,95.399261 25.499836,95.791519 26.636063,96.255241 
	C26.662689,96.266113 26.361555,97.080055 26.213303,97.519417 
	C25.383467,97.207870 24.553629,96.896324 23.507153,96.359184 
	C23.207541,95.950943 23.124563,95.768295 23.107107,95.291931 
z"/>
<path fill="#DFC898" opacity="1.000000" stroke="none" 
	d="
M65.235512,266.737488 
	C65.063202,265.728943 65.132088,264.462982 65.511719,263.105377 
	C65.707207,264.169159 65.591957,265.324646 65.235512,266.737488 
z"/>
<path fill="#B9B8B7" opacity="1.000000" stroke="none" 
	d="
M65.974052,83.649185 
	C65.274261,83.221054 64.633614,82.458092 63.968796,81.357430 
	C63.944633,81.019737 64.401398,80.988594 64.630249,80.983704 
	C65.250465,81.757317 65.641830,82.535835 65.974052,83.649185 
z"/>
<path fill="#CCBEA6" opacity="1.000000" stroke="none" 
	d="
M51.881058,37.701527 
	C51.573544,37.805862 51.365112,37.577541 51.141132,37.062813 
	C51.335594,37.042233 51.620449,37.239719 51.881058,37.701527 
z"/>
<path fill="#F9F9F9" opacity="1.000000" stroke="none" 
	d="
M29.932339,101.924889 
	C31.243010,99.508118 32.553684,97.091354 34.272751,94.288612 
	C36.768917,91.245918 38.856686,88.589188 40.944458,85.932465 
	C43.366199,85.285172 45.787937,84.637871 48.664318,84.301506 
	C49.738861,85.081261 50.358768,85.550087 51.032234,86.367401 
	C54.383068,90.484177 57.680347,94.252472 60.993332,98.402023 
	C61.341431,100.520599 61.673824,102.257904 61.885662,104.364967 
	C58.974377,105.027420 56.187599,105.503090 53.391853,105.563416 
	C50.356064,105.628906 47.187748,104.700104 44.298985,105.290306 
	C39.290798,106.313522 34.596531,106.407669 30.002182,103.653351 
	C29.976933,102.846848 29.954636,102.385872 29.932339,101.924889 
z"/>
<path fill="#E3E3E3" opacity="1.000000" stroke="none" 
	d="
M66.019913,106.973755 
	C70.752953,107.173203 67.289833,111.271942 68.762589,113.100243 
	C68.880768,113.246948 67.184853,115.634361 66.120377,115.830170 
	C58.115845,117.302475 50.086792,118.761948 42.000584,119.599640 
	C39.419823,119.866997 36.639809,118.257652 33.957893,117.483025 
	C32.525074,117.069183 31.132561,116.477646 29.677902,116.184151 
	C23.146830,114.866409 21.987360,111.544922 26.608004,106.482994 
	C27.766254,108.519493 28.217655,111.421669 29.389277,111.749451 
	C40.022530,114.724251 50.816376,114.725594 61.663803,112.651512 
	C65.045540,112.004913 66.613480,110.438889 66.019913,106.973755 
z"/>
<path fill="#ECECEC" opacity="1.000000" stroke="none" 
	d="
M65.773262,106.685883 
	C66.613480,110.438889 65.045540,112.004913 61.663803,112.651512 
	C50.816376,114.725594 40.022530,114.724251 29.389277,111.749451 
	C28.217655,111.421669 27.766254,108.519493 26.963449,106.378799 
	C27.714033,104.654556 28.481983,103.362846 29.591135,101.998009 
	C29.954636,102.385872 29.976933,102.846848 29.764671,103.906235 
	C30.542332,106.002731 31.358973,108.563889 32.604633,108.793053 
	C35.909904,109.401138 39.400459,109.005257 42.817303,109.003006 
	C48.588905,108.999207 54.364761,109.105751 60.128700,108.892303 
	C61.350868,108.847054 62.529526,107.626816 63.728226,106.947929 
	C63.154221,105.963692 62.580219,104.979454 62.006218,103.995216 
	C61.673824,102.257904 61.341431,100.520599 61.001320,98.394562 
	C60.993607,98.005829 61.005886,97.995651 61.259869,98.114380 
	C62.015232,98.483856 62.516617,98.734596 63.017998,98.985336 
	C63.017998,98.985336 63.000000,98.999695 63.063179,99.301308 
	C63.746422,100.071297 64.366493,100.539665 64.986565,101.008034 
	C65.166580,102.804695 65.346596,104.601357 65.773262,106.685883 
z"/>
<path fill="#F9F9F9" opacity="1.000000" stroke="none" 
	d="
M38.995071,142.032059 
	C38.554966,142.020645 38.114857,142.009216 37.263657,141.656265 
	C35.892433,140.885590 34.932304,140.456451 33.972176,140.027328 
	C33.135590,139.835541 32.299004,139.643768 31.187637,138.861832 
	C29.317816,133.306274 32.778564,134.175140 35.604519,134.123260 
	C42.992550,133.987671 50.379219,133.772705 57.765720,133.564072 
	C58.989258,133.529510 60.209194,133.367371 61.430794,133.264175 
	C61.719120,133.745804 62.007450,134.227432 62.295776,134.709061 
	C59.860832,136.832138 57.425884,138.955215 54.990944,141.078293 
	C54.574436,141.090958 54.157925,141.103622 53.014328,141.094955 
	C49.825127,141.415848 47.363022,141.758057 44.900913,142.100266 
	C44.482277,142.106033 44.063644,142.111786 43.110146,141.863770 
	C41.381878,141.750671 40.188473,141.891357 38.995071,142.032059 
z"/>
<path fill="#ECECEC" opacity="1.000000" stroke="none" 
	d="
M55.234081,141.279480 
	C57.425884,138.955215 59.860832,136.832138 62.295776,134.709061 
	C62.007450,134.227432 61.719120,133.745804 61.430794,133.264175 
	C60.209194,133.367371 58.989258,133.529510 57.765720,133.564072 
	C50.379219,133.772705 42.992550,133.987671 35.604519,134.123260 
	C32.778564,134.175140 29.317816,133.306274 30.962383,138.626740 
	C29.512829,137.580490 27.754992,136.355988 26.625217,134.702362 
	C26.071003,133.891159 26.318073,132.060760 26.896240,131.116287 
	C27.271317,130.503601 29.055096,130.221054 29.941687,130.537018 
	C37.830299,133.348328 45.864155,133.292755 53.959908,131.950806 
	C56.542397,131.522720 59.033966,130.395599 61.616989,130.176727 
	C63.213871,130.041428 64.904778,131.015884 66.553467,131.492142 
	C65.966209,132.908936 65.770958,134.840195 64.716415,135.643768 
	C61.830082,137.843201 58.582043,139.567947 55.234081,141.279480 
z"/>
<path fill="#B9B8B7" opacity="1.000000" stroke="none" 
	d="
M33.996502,78.000618 
	C37.049065,76.972862 40.118095,75.977409 43.161743,74.909622 
	C50.854088,72.210938 56.112774,75.910347 60.777321,81.835861 
	C60.399597,82.096390 59.819195,82.177635 59.434399,81.940918 
	C51.214714,76.884361 42.969517,77.182304 34.338272,81.479691 
	C33.996201,80.139954 33.998432,79.065475 34.000664,77.991005 
	C34.000664,77.991005 34.001411,77.999985 33.996502,78.000618 
z"/>
<path fill="#ECECEC" opacity="1.000000" stroke="none" 
	d="
M60.985619,98.013290 
	C57.680347,94.252472 54.383068,90.484177 51.372192,86.359802 
	C52.111565,85.997238 52.564533,85.990753 53.017506,85.984268 
	C53.836281,86.885048 54.655060,87.785828 55.790443,89.178925 
	C57.739994,92.446053 59.372940,95.220848 61.005886,97.995651 
	C61.005886,97.995651 60.993607,98.005829 60.985619,98.013290 
z"/>
<path fill="#E3E3E3" opacity="1.000000" stroke="none" 
	d="
M61.259869,98.114380 
	C59.372940,95.220848 57.739994,92.446053 56.061447,89.325066 
	C60.429451,90.468956 63.008106,93.353493 63.017342,98.588242 
	C62.516617,98.734596 62.015232,98.483856 61.259869,98.114380 
z"/>
<path fill="#ECECEC" opacity="1.000000" stroke="none" 
	d="
M40.606239,85.994446 
	C38.856686,88.589188 36.768917,91.245918 34.337128,93.949127 
	C36.084751,91.349213 38.176388,88.702812 40.606239,85.994446 
z"/>
<path fill="#ECECEC" opacity="1.000000" stroke="none" 
	d="
M45.028664,142.438782 
	C47.363022,141.758057 49.825127,141.415848 52.701797,141.096863 
	C50.947922,144.001419 48.406738,145.092422 45.028664,142.438782 
z"/>
<path fill="#AEA9A1" opacity="1.000000" stroke="none" 
	d="
M33.698921,78.153938 
	C33.998432,79.065475 33.996201,80.139954 34.003052,81.617859 
	C33.495003,82.232735 32.977871,82.444168 31.991657,82.837677 
	C31.334681,83.010025 31.146788,83.000305 30.958895,82.990578 
	C31.771656,81.432678 32.584419,79.874779 33.698921,78.153938 
z"/>
<path fill="#E3E3E3" opacity="1.000000" stroke="none" 
	d="
M52.922050,85.642288 
	C52.564533,85.990753 52.111565,85.997238 51.318634,86.011322 
	C50.358768,85.550087 49.738861,85.081261 49.061016,84.304947 
	C50.277580,84.431740 51.552090,84.866020 52.922050,85.642288 
z"/>
<path fill="#ECECEC" opacity="1.000000" stroke="none" 
	d="
M39.225033,142.263123 
	C40.188473,141.891357 41.381878,141.750671 42.796143,141.865372 
	C41.829666,142.245239 40.642330,142.369705 39.225033,142.263123 
z"/>
<path fill="#D3D3D3" opacity="1.000000" stroke="none" 
	d="
M71.293365,114.235146 
	C71.808105,114.080139 72.262520,114.182693 72.716934,114.285255 
	C72.513351,114.646896 72.309761,115.008530 72.106171,115.370163 
	C71.815132,115.077675 71.524086,114.785194 71.293365,114.235146 
z"/>
<path fill="#ECECEC" opacity="1.000000" stroke="none" 
	d="
M34.129757,140.305405 
	C34.932304,140.456451 35.892433,140.885590 36.933701,141.643677 
	C36.105671,141.509583 35.196507,141.046539 34.129757,140.305405 
z"/>
<path fill="#B9B8B7" opacity="1.000000" stroke="none" 
	d="
M30.763815,83.127907 
	C31.146788,83.000305 31.334681,83.010025 31.804081,83.050201 
	C31.642050,83.723701 31.198513,84.366745 30.405376,84.809303 
	C30.031780,84.410721 30.007782,84.212624 29.983782,84.014534 
	C30.130749,83.727272 30.325733,83.477509 30.763815,83.127907 
z"/>
<path fill="#C7B59B" opacity="1.000000" stroke="none" 
	d="
M29.705975,84.003815 
	C30.007782,84.212624 30.031780,84.410721 30.109852,84.905289 
	C30.163921,85.201744 30.108767,85.596542 29.795109,85.807747 
	C29.292877,86.035301 29.104305,86.051659 28.915731,86.068016 
	C28.676735,85.550240 28.437738,85.032471 28.262247,84.223129 
	C28.693224,83.952072 29.060698,83.972588 29.705975,84.003815 
z"/>
<path fill="#E3E3E3" opacity="1.000000" stroke="none" 
	d="
M64.932800,100.698532 
	C64.366493,100.539665 63.746422,100.071297 63.072456,99.292953 
	C63.638718,99.451675 64.258881,99.920357 64.932800,100.698532 
z"/>
<path fill="#B9B8B7" opacity="1.000000" stroke="none" 
	d="
M29.041058,86.209145 
	C29.104305,86.051659 29.292877,86.035301 29.765409,86.004837 
	C29.755041,86.110573 29.460712,86.230423 29.041058,86.209145 
z"/>
<path fill="#DFC898" opacity="1.000000" stroke="none" 
	d="
M30.084805,266.945312 
	C30.358633,262.878998 30.632462,258.812683 31.004921,254.334015 
	C36.655807,255.274155 42.162712,256.872375 47.773453,257.908020 
	C53.064297,258.884583 57.906940,257.229156 62.544991,253.920471 
	C62.587620,259.238800 62.293560,264.666626 62.000198,270.541748 
	C61.831528,270.992615 61.662155,270.996216 60.989799,270.689453 
	C60.326565,268.574463 60.080910,266.772461 60.025368,264.964630 
	C59.934029,261.991394 58.632004,261.053467 55.580647,261.211639 
	C50.841068,261.457336 46.021320,261.478790 41.323406,260.891968 
	C34.485836,260.037903 33.811523,260.181915 34.053719,267.233185 
	C34.542656,281.468262 36.128494,295.713715 35.775551,309.917969 
	C35.290970,329.420013 33.526756,348.895111 32.088627,368.365356 
	C31.683706,373.847443 31.997107,374.743774 36.900055,374.904572 
	C35.961529,377.026550 35.023010,379.148499 33.657234,381.615570 
	C28.528439,381.866272 29.690586,377.352417 27.984165,375.000610 
	C27.985979,373.612793 27.987791,372.225006 27.987213,370.421143 
	C28.975210,363.199524 30.404436,356.423553 30.865183,349.582367 
	C31.842428,335.072113 32.501602,320.533051 32.908497,305.995117 
	C33.086735,299.626740 32.327209,293.232086 31.979471,286.411926 
	C31.964750,285.541595 31.964075,285.108673 31.975433,283.880676 
	C31.988991,279.028198 32.147057,274.961456 31.904388,270.918732 
	C31.822996,269.562744 30.720545,268.268036 30.084805,266.945312 
z"/>
<path fill="#EAEAEA" opacity="1.000000" stroke="none" 
	d="
M22.991207,202.003723 
	C22.992298,200.614258 22.993389,199.224808 23.285374,197.244141 
	C25.048700,194.766541 26.521135,192.880142 27.977734,191.414703 
	C25.748369,199.838684 27.534718,207.623886 29.321463,215.385986 
	C30.799622,221.807495 32.998722,228.117126 33.870499,234.611633 
	C35.218784,244.655914 36.030891,248.993668 47.489635,248.010483 
	C48.314507,247.939713 49.165421,247.899933 49.979149,248.018219 
	C53.818008,248.576309 56.493576,246.949631 57.926914,243.506851 
	C59.128448,240.620819 60.306904,237.648544 60.892067,234.598679 
	C62.071430,228.451859 62.873631,222.231125 63.770508,216.032059 
	C65.165245,206.391846 67.501808,196.785461 65.105034,186.778152 
	C65.422562,186.321274 65.665878,186.125854 66.268799,186.046631 
	C67.403275,186.738113 68.226059,187.373077 69.048843,188.008057 
	C69.036819,188.442413 69.024796,188.876785 69.010269,190.103210 
	C67.432495,203.493958 66.090866,216.127869 64.197044,228.678467 
	C63.001797,236.599548 62.569595,244.984085 56.015553,251.021164 
	C56.015553,251.021164 56.000572,251.000153 55.542797,251.003418 
	C48.383949,250.343796 41.682877,249.680923 34.981804,249.018036 
	C34.981804,249.018021 35.000000,249.000000 34.941795,248.637329 
	C34.158623,246.071106 33.490273,243.846909 32.695381,241.668869 
	C31.512564,238.427933 30.240337,235.219604 29.006161,231.997406 
	C29.002607,231.554413 28.999052,231.111420 29.231419,230.084747 
	C28.648552,227.665787 27.829765,225.830536 27.010981,223.995270 
	C27.004612,222.617310 26.998241,221.239349 26.991003,219.023972 
	C26.263847,213.287521 25.589750,208.379410 24.742523,203.501373 
	C24.641260,202.918350 23.597893,202.498962 22.991207,202.003723 
z"/>
<path fill="#E3E3E3" opacity="1.000000" stroke="none" 
	d="
M56.382225,251.009613 
	C62.569595,244.984085 63.001797,236.599548 64.197044,228.678467 
	C66.090866,216.127869 67.432495,203.493958 69.019577,190.428940 
	C73.087166,193.072678 70.895897,197.333679 70.667137,200.956680 
	C70.167320,208.872559 69.264252,216.799225 67.907021,224.613998 
	C66.670479,231.733902 64.976860,238.830734 62.714565,245.683487 
	C61.991776,247.872879 58.807125,249.249527 56.382225,251.009613 
z"/>
<path fill="#FDFDFD" opacity="1.000000" stroke="none" 
	d="
M65.957108,185.990097 
	C65.665878,186.125854 65.422562,186.321274 64.857498,186.781769 
	C64.487854,186.987213 63.992348,186.994339 63.595928,186.993149 
	C59.401119,187.052155 57.907524,184.988663 57.994591,181.405853 
	C58.038494,179.599182 57.989384,177.790268 57.982361,175.650116 
	C57.981682,174.874878 57.980984,174.431870 57.988548,173.741241 
	C57.996807,173.493607 57.999310,172.998047 58.351288,172.985901 
	C59.169956,172.914673 59.636646,172.855591 60.103336,172.796524 
	C62.066185,174.613007 64.029030,176.429504 65.992508,179.050507 
	C65.981125,181.900055 65.969116,183.945068 65.957108,185.990097 
z"/>
<path fill="#E3E3E3" opacity="1.000000" stroke="none" 
	d="
M27.993572,190.993744 
	C26.521135,192.880142 25.048700,194.766541 23.277721,196.827896 
	C24.729212,191.764786 25.891460,186.216080 28.437490,181.398727 
	C30.113670,178.227203 33.783688,176.109436 36.785198,173.991608 
	C37.009575,174.644897 37.009651,174.826416 36.732376,175.163513 
	C35.970253,176.213104 35.485485,177.107086 34.796307,178.126831 
	C34.336456,178.455734 34.139748,178.705215 33.796215,179.255493 
	C32.395741,181.008514 31.200825,182.507050 29.700737,184.190002 
	C28.931952,185.916977 28.468340,187.459534 28.003178,189.334061 
	C27.998943,190.108612 27.996260,190.551178 27.993572,190.993744 
z"/>
<path fill="#E3E3E3" opacity="1.000000" stroke="none" 
	d="
M60.066071,172.440659 
	C59.636646,172.855591 59.169956,172.914673 58.173214,172.684631 
	C54.291996,170.416763 51.203621,166.443634 46.743778,170.992859 
	C46.495171,170.993591 45.997974,170.997345 45.656006,171.042816 
	C44.209206,171.391174 43.104374,171.694061 41.620491,171.997070 
	C40.482174,171.990387 39.722908,171.983582 38.963642,171.976776 
	C44.240513,164.472702 55.928204,164.532639 60.066071,172.440659 
z"/>
<path fill="#E3E3E3" opacity="1.000000" stroke="none" 
	d="
M35.051777,249.384552 
	C41.682877,249.680923 48.383949,250.343796 55.552540,251.014877 
	C54.760216,251.924896 53.600330,253.386383 52.223339,253.632324 
	C46.043354,254.736099 40.277721,253.445282 35.051777,249.384552 
z"/>
<path fill="#E3E3E3" opacity="1.000000" stroke="none" 
	d="
M22.929218,202.380920 
	C23.597893,202.498962 24.641260,202.918350 24.742523,203.501373 
	C25.589750,208.379410 26.263847,213.287521 26.979504,218.612549 
	C26.147207,218.563553 24.689230,218.181686 24.603947,217.598923 
	C23.883055,212.672775 23.412779,207.709930 22.929218,202.380920 
z"/>
<path fill="#E3E3E3" opacity="1.000000" stroke="none" 
	d="
M28.999317,232.437042 
	C30.240337,235.219604 31.512564,238.427933 32.695381,241.668869 
	C33.490273,243.846909 34.158623,246.071106 34.932747,248.646530 
	C29.005516,247.345703 30.692726,241.692261 29.235518,237.718323 
	C28.704266,236.269531 29.047960,234.499908 28.999317,232.437042 
z"/>
<path fill="#E3E3E3" opacity="1.000000" stroke="none" 
	d="
M66.268799,186.046631 
	C65.969116,183.945068 65.981125,181.900055 66.017624,179.415955 
	C67.196083,181.815826 68.350060,184.654770 69.276443,187.750885 
	C68.226059,187.373077 67.403275,186.738113 66.268799,186.046631 
z"/>
<path fill="#E3E3E3" opacity="1.000000" stroke="none" 
	d="
M27.003786,224.382706 
	C27.829765,225.830536 28.648552,227.665787 29.226524,229.752640 
	C28.322674,228.259537 27.659634,226.514832 27.003786,224.382706 
z"/>
<path fill="#EAEAEA" opacity="1.000000" stroke="none" 
	d="
M38.833839,172.228821 
	C39.722908,171.983582 40.482174,171.990387 41.620796,172.248764 
	C42.000355,172.668106 42.000561,172.835892 41.730019,173.225128 
	C39.976093,173.967056 38.492908,174.487488 37.009727,175.007935 
	C37.009651,174.826416 37.009575,174.644897 37.012924,174.190094 
	C37.578907,173.438156 38.141468,172.959518 38.833839,172.228821 
z"/>
<path fill="#DFBF87" opacity="1.000000" stroke="none" 
	d="
M37.997448,22.002172 
	C38.307972,22.788548 38.618496,23.574923 38.968353,25.070198 
	C42.530834,35.570419 45.717281,45.500320 49.673870,55.113239 
	C53.465477,64.325325 52.751163,65.832024 42.892311,65.504906 
	C42.729523,65.499504 42.569145,65.400803 42.407032,65.398949 
	C35.487282,65.319969 35.112633,64.878036 34.984173,57.897373 
	C34.854305,50.840382 34.683849,43.781216 34.344456,36.731995 
	C34.102276,31.701912 33.551403,26.686691 33.094723,21.135342 
	C35.169426,21.502161 36.583435,21.752167 37.997448,22.002172 
z"/>
<path fill="#D8B983" opacity="1.000000" stroke="none" 
	d="
M37.945633,21.654819 
	C36.583435,21.752167 35.169426,21.502161 33.094723,21.135342 
	C33.551403,26.686691 34.102276,31.701912 34.344456,36.731995 
	C34.683849,43.781216 34.854305,50.840382 34.984173,57.897373 
	C35.112633,64.878036 35.487282,65.319969 42.407032,65.398949 
	C42.569145,65.400803 42.729523,65.499504 42.892311,65.504906 
	C52.751163,65.832024 53.465477,64.325325 49.673870,55.113239 
	C45.717281,45.500320 42.530834,35.570419 39.008316,25.385696 
	C41.019188,28.537399 43.520321,31.896976 44.943985,35.663776 
	C48.630569,45.417957 51.907433,55.330097 55.178207,65.235199 
	C55.710094,66.845955 55.375854,68.742722 55.181297,70.796799 
	C48.510559,69.751556 42.105583,68.453285 36.304676,73.822601 
	C35.000076,72.125351 33.246525,70.297997 33.139408,68.378746 
	C32.777821,61.900146 33.415070,55.355621 32.896069,48.898544 
	C32.236839,40.696896 30.575859,32.576450 29.893751,24.375505 
	C29.709522,22.160524 31.503582,19.781000 32.389587,17.477003 
	C34.224331,18.753824 36.059071,20.030643 37.945633,21.654819 
z"/>
<path fill="#F2E0B0" opacity="1.000000" stroke="none" 
	d="
M36.925957,374.680328 
	C31.997107,374.743774 31.683706,373.847443 32.088627,368.365356 
	C33.526756,348.895111 35.290970,329.420013 35.775551,309.917969 
	C36.128494,295.713715 34.542656,281.468262 34.053719,267.233185 
	C33.811523,260.181915 34.485836,260.037903 41.323406,260.891968 
	C46.021320,261.478790 50.841068,261.457336 55.580647,261.211639 
	C58.632004,261.053467 59.934029,261.991394 60.025368,264.964630 
	C60.080910,266.772461 60.326565,268.574463 60.735680,270.689575 
	C60.962044,272.042175 60.939545,273.084320 60.650112,274.585693 
	C60.248966,275.697449 60.114750,276.350006 59.980537,277.002533 
	C59.966919,277.431580 59.953300,277.860657 59.597130,278.730621 
	C58.155922,282.227081 56.638798,285.201599 56.028927,288.351776 
	C52.895020,304.539368 50.136890,320.800171 46.953495,336.977539 
	C45.298119,345.389862 43.035641,353.682770 41.047401,362.029602 
	C40.047813,365.426117 39.048218,368.822601 37.811821,372.730652 
	C37.332333,373.456940 37.145576,373.712555 37.014751,374.009033 
	C37.014751,374.009033 36.951851,374.456085 36.925957,374.680328 
z"/>
<path fill="#DFC898" opacity="1.000000" stroke="none" 
	d="
M41.388939,361.928650 
	C43.035641,353.682770 45.298119,345.389862 46.953495,336.977539 
	C50.136890,320.800171 52.895020,304.539368 56.028927,288.351776 
	C56.638798,285.201599 58.155922,282.227081 59.591957,279.052521 
	C59.116177,284.299652 58.363617,289.675873 57.477612,295.029968 
	C55.450962,307.276917 53.914143,319.641327 51.123386,331.714203 
	C48.761932,341.929901 44.918217,351.802979 41.388939,361.928650 
z"/>
<path fill="#D5BA8A" opacity="1.000000" stroke="none" 
	d="
M27.734699,375.300842 
	C29.690586,377.352417 28.528439,381.866272 33.603928,381.965149 
	C34.047047,382.822784 34.116211,383.675964 34.083572,384.779724 
	C27.624075,385.769104 26.183725,383.678558 27.734699,375.300842 
z"/>
<path fill="#DFC898" opacity="1.000000" stroke="none" 
	d="
M60.210320,276.807739 
	C60.114750,276.350006 60.248966,275.697449 60.642639,274.976471 
	C60.748100,275.476349 60.594105,276.044647 60.210320,276.807739 
z"/>
<path fill="#DFC898" opacity="1.000000" stroke="none" 
	d="
M37.222675,373.884003 
	C37.145576,373.712555 37.332333,373.456940 37.767494,373.100739 
	C37.866623,373.280853 37.690166,373.547424 37.222675,373.884003 
z"/>
<path fill="#D5BA8A" opacity="1.000000" stroke="none" 
	d="
M30.059566,267.417664 
	C30.720545,268.268036 31.822996,269.562744 31.904388,270.918732 
	C32.147057,274.961456 31.988991,279.028198 31.972420,283.555725 
	C31.307354,282.715332 30.176958,281.433289 30.097267,280.088928 
	C29.856993,276.035614 30.025324,271.958069 30.059566,267.417664 
z"/>
<path fill="#F3F3F3" opacity="1.000000" stroke="none" 
	d="
M61.885662,104.364967 
	C62.580219,104.979454 63.154221,105.963692 63.728226,106.947929 
	C62.529526,107.626816 61.350868,108.847054 60.128700,108.892303 
	C54.364761,109.105751 48.588905,108.999207 42.817303,109.003006 
	C39.400459,109.005257 35.909904,109.401138 32.604633,108.793053 
	C31.358973,108.563889 30.542332,106.002731 29.767624,104.251755 
	C34.596531,106.407669 39.290798,106.313522 44.298985,105.290306 
	C47.187748,104.700104 50.356064,105.628906 53.391853,105.563416 
	C56.187599,105.503090 58.974377,105.027420 61.885662,104.364967 
z"/>
<path fill="#F1F1F1" opacity="1.000000" stroke="none" 
	d="
M36.732372,175.163513 
	C38.492908,174.487488 39.976093,173.967056 42.098534,173.222168 
	C43.824520,172.330933 44.911247,171.664139 45.997978,170.997345 
	C45.997974,170.997345 46.495171,170.993591 47.141968,170.998413 
	C51.185940,171.998444 54.583115,172.993652 57.980286,173.988861 
	C57.980984,174.431870 57.981682,174.874878 57.556694,175.654846 
	C51.572811,175.219101 45.947376,173.752991 41.147129,178.361969 
	C31.801615,187.335114 27.578480,197.804962 31.409246,210.731659 
	C32.020084,212.792877 32.561222,214.878799 33.035698,216.975677 
	C34.787113,224.715805 36.398129,232.489136 38.257107,240.202957 
	C39.508457,245.395432 43.723774,245.025772 47.831932,245.060760 
	C51.446224,245.091537 54.662399,244.571747 55.802963,240.685425 
	C57.381115,235.308090 59.162174,229.898483 59.867981,224.376373 
	C61.270695,213.401794 61.976803,202.338898 63.031139,191.318268 
	C63.170681,189.859665 63.663269,188.434814 63.992348,186.994339 
	C63.992348,186.994339 64.487854,186.987213 64.735382,186.983582 
	C67.501808,196.785461 65.165245,206.391846 63.770508,216.032059 
	C62.873631,222.231125 62.071430,228.451859 60.892067,234.598679 
	C60.306904,237.648544 59.128448,240.620819 57.926914,243.506851 
	C56.493576,246.949631 53.818008,248.576309 49.979149,248.018219 
	C49.165421,247.899933 48.314507,247.939713 47.489635,248.010483 
	C36.030891,248.993668 35.218784,244.655914 33.870499,234.611633 
	C32.998722,228.117126 30.799622,221.807495 29.321463,215.385986 
	C27.534718,207.623886 25.748369,199.838684 27.977737,191.414703 
	C27.996260,190.551178 27.998943,190.108612 28.261395,189.106827 
	C29.016075,187.033600 29.510990,185.519592 30.005907,184.005585 
	C31.200825,182.507050 32.395741,181.008514 34.000072,179.129120 
	C34.664322,178.544907 34.861401,178.295853 35.000721,178.001083 
	C35.485485,177.107086 35.970253,176.213104 36.732372,175.163513 
z"/>
<path fill="#F8F8F8" opacity="1.000000" stroke="none" 
	d="
M63.595928,186.993149 
	C63.663269,188.434814 63.170681,189.859665 63.031139,191.318268 
	C61.976803,202.338898 61.270695,213.401794 59.867981,224.376373 
	C59.162174,229.898483 57.381115,235.308090 55.802963,240.685425 
	C54.662399,244.571747 51.446224,245.091537 47.831932,245.060760 
	C43.723774,245.025772 39.508457,245.395432 38.257107,240.202957 
	C36.398129,232.489136 34.787113,224.715805 33.035698,216.975677 
	C32.561222,214.878799 32.020084,212.792877 31.409246,210.731659 
	C27.578480,197.804962 31.801615,187.335114 41.147129,178.361969 
	C45.947376,173.752991 51.572811,175.219101 57.556671,175.987091 
	C57.989384,177.790268 58.038494,179.599182 57.994591,181.405853 
	C57.907524,184.988663 59.401119,187.052155 63.595928,186.993149 
z"/>
<path fill="#EBEBEB" opacity="1.000000" stroke="none" 
	d="
M57.988548,173.741241 
	C54.583115,172.993652 51.185940,171.998444 47.390579,170.997681 
	C51.203621,166.443634 54.291996,170.416763 57.821236,172.696793 
	C57.999310,172.998047 57.996807,173.493607 57.988548,173.741241 
z"/>
<path fill="#EAEAEA" opacity="1.000000" stroke="none" 
	d="
M29.700735,184.190002 
	C29.510990,185.519592 29.016075,187.033600 28.262945,188.774841 
	C28.468340,187.459534 28.931952,185.916977 29.700735,184.190002 
z"/>
<path fill="#EBEBEB" opacity="1.000000" stroke="none" 
	d="
M34.796307,178.126831 
	C34.861401,178.295853 34.664322,178.544907 34.205627,178.874634 
	C34.139748,178.705215 34.336456,178.455734 34.796307,178.126831 
z"/>
<path fill="#EBEBEB" opacity="1.000000" stroke="none" 
	d="
M45.656006,171.042816 
	C44.911247,171.664139 43.824520,172.330933 42.369278,173.000687 
	C42.000561,172.835892 42.000355,172.668106 41.999847,172.248657 
	C43.104374,171.694061 44.209206,171.391174 45.656006,171.042816 
z"/>
</svg>