<svg version="1.1" id="Layer_1" xmlns="http://www.w3.org/2000/svg" xmlns:xlink="http://www.w3.org/1999/xlink" x="0px" y="0px"
	 width="100%" viewBox="0 0 91 405" enable-background="new 0 0 91 405" xml:space="preserve">
<path fill="#D3D3D3" opacity="1.000000" stroke="none" 
	d="
M74.270515,109.017212 
	C75.387459,116.065872 76.534485,123.109962 77.606743,130.165405 
	C78.044479,133.045715 78.836494,135.998917 78.571198,138.835129 
	C77.827522,146.785736 76.116570,151.528152 63.445915,150.577179 
	C64.061447,149.029465 64.897400,147.572754 66.153885,146.890198 
	C71.402748,144.038940 70.960495,139.169388 71.029312,134.365158 
	C71.087936,130.272339 68.477455,128.224472 65.182076,127.305450 
	C61.563808,126.296387 57.699036,125.445305 53.997112,125.630951 
	C48.333286,125.914978 42.526882,126.522430 37.137905,128.164154 
	C32.441891,129.594757 31.042274,134.139572 32.115597,138.789200 
	C32.931694,142.324554 34.337528,145.872955 39.404266,146.000656 
	C40.870235,146.002213 41.936489,145.997620 43.379478,145.999451 
	C44.509716,145.981140 45.263210,145.956421 46.458939,145.951080 
	C49.261032,145.991959 51.620892,146.013443 53.981209,146.415665 
	C53.991505,147.811676 54.001347,148.826950 54.011189,149.842224 
	C47.178551,149.566269 40.314392,149.577866 33.532974,148.834625 
	C31.564978,148.618912 29.833891,146.241699 27.883430,144.273407 
	C27.642759,143.384186 27.426582,143.160187 27.124136,143.019424 
	C27.124136,143.019424 26.969976,142.616943 26.873688,142.164246 
	C26.547596,141.478928 26.317795,141.246277 26.087997,141.013641 
	C26.050718,135.646042 26.013441,130.278427 26.380013,124.373238 
	C26.853111,122.555969 26.922361,121.276283 26.991615,119.996605 
	C27.045456,117.456184 27.099295,114.915771 27.924366,112.176239 
	C29.794436,111.985161 30.893269,111.993187 31.944870,112.363953 
	C31.597090,114.151009 31.296543,115.575333 30.714630,117.048965 
	C30.134930,117.413422 29.836599,117.728577 29.538271,118.043732 
	C30.023123,118.362679 30.507971,118.681633 31.150328,119.283615 
	C32.919884,119.214447 34.888306,119.335953 36.086922,118.434204 
	C44.730476,111.931572 53.957916,111.480476 63.768639,115.150650 
	C65.847633,115.928391 68.048843,116.379433 70.990440,117.204437 
	C70.990440,114.552269 70.990440,112.772400 70.989532,110.660812 
	C70.987167,109.886818 70.985695,109.444550 71.312927,109.001816 
	C72.517914,109.006638 73.394218,109.011925 74.270515,109.017212 
M53.035603,116.934868 
	C53.429470,116.538795 53.823338,116.142723 54.217213,115.746651 
	C52.734989,115.591812 51.252766,115.436974 49.770542,115.282135 
	C49.749397,115.684280 49.728256,116.086433 49.707111,116.488579 
	C50.586372,116.652245 51.465637,116.815910 53.035603,116.934868 
M58.787544,116.242096 
	C58.157047,117.494530 57.526550,118.746971 56.896053,119.999405 
	C57.377480,120.134041 57.858906,120.268684 58.340328,120.403320 
	C58.662762,119.104591 58.985195,117.805862 58.787544,116.242096 
M29.739658,125.488022 
	C29.939316,125.201729 30.138973,124.915443 30.338633,124.629150 
	C30.041834,124.813057 29.745035,124.996956 29.739658,125.488022 
M53.829880,119.472733 
	C53.895664,119.814545 53.961452,120.156349 54.027241,120.498161 
	C54.104176,120.158478 54.181110,119.818794 53.829880,119.472733 
M73.170227,126.527428 
	C73.104431,126.185593 73.038643,125.843765 72.972862,125.501930 
	C72.895920,125.841637 72.818985,126.181343 73.170227,126.527428 
z"/>
<path fill="#D2B88A" opacity="1.000000" stroke="none" 
	d="
M69.810081,238.891098 
	C69.528671,241.648178 69.247261,244.405273 68.504059,247.684967 
	C67.031731,253.473679 66.021202,258.739777 65.010674,264.005890 
	C63.305450,272.185242 61.415707,280.331604 59.945969,288.553070 
	C58.421623,297.080017 57.548969,305.725861 55.943542,314.235260 
	C54.138062,323.804962 51.831985,333.280212 49.381763,342.571289 
	C48.870529,341.121674 48.721210,339.897339 48.509621,338.162415 
	C45.627193,339.893890 42.421379,343.407623 42.370312,336.987122 
	C43.820824,335.992126 44.911907,335.002655 46.258041,333.764587 
	C47.371960,331.227844 48.575298,329.006714 49.035191,326.641052 
	C52.716805,307.702942 56.373634,288.758392 59.792191,269.771515 
	C61.454254,260.540314 62.590324,251.214371 64.221214,241.717514 
	C66.255302,240.632843 68.032692,239.761963 69.810081,238.891098 
z"/>
<path fill="#CDB487" opacity="1.000000" stroke="none" 
	d="
M34.189758,83.003891 
	C34.930576,75.702538 35.463135,68.372505 36.463654,61.106915 
	C37.786972,51.497181 39.577892,41.952244 40.938778,32.347004 
	C41.285698,29.898407 40.724731,26.616566 43.993980,26.764257 
	C46.397312,26.872828 49.881828,28.455696 50.837093,30.391779 
	C53.574726,35.940296 55.270405,42.002907 57.180336,48.286560 
	C56.003174,47.927574 54.597530,47.344948 54.118107,46.326374 
	C52.604412,43.110386 51.678596,39.602486 50.012428,36.481327 
	C49.388214,35.312012 47.407803,34.727116 45.925228,34.250813 
	C45.540436,34.127190 44.280155,35.336414 44.140682,36.070065 
	C43.308712,40.446396 42.668007,44.859833 42.000080,49.266418 
	C41.158672,54.817558 40.269608,60.363857 39.585087,65.934853 
	C39.393867,67.491112 39.851536,69.127098 40.118084,71.791542 
	C48.361675,63.208424 48.353844,63.227161 57.977951,67.250336 
	C58.579636,67.501862 59.755863,67.366798 60.111904,66.944954 
	C60.480297,66.508476 60.091724,65.493065 60.179344,64.747955 
	C60.403934,62.838127 60.709042,60.937771 60.981953,59.033630 
	C61.649906,60.176151 62.565144,61.243439 62.939911,62.475166 
	C64.110641,66.322983 65.077141,70.232941 65.733963,74.536644 
	C63.908489,74.015961 62.204113,73.322136 61.082912,72.095337 
	C56.883366,67.500252 50.402431,66.345352 45.694805,70.364761 
	C42.520283,73.075195 40.312122,76.900261 37.558113,80.129860 
	C36.612408,81.238884 35.322445,82.054329 34.189758,83.003891 
z"/>
<path fill="#D6BD92" opacity="1.000000" stroke="none" 
	d="
M36.006218,288.982819 
	C35.658001,287.950317 35.039749,286.927307 35.003193,285.883881 
	C34.621544,274.991638 34.481117,264.088776 33.944111,253.205139 
	C33.738041,249.028732 32.686321,244.894058 32.311779,240.104599 
	C33.573158,238.973770 35.013668,237.812515 35.426754,238.104553 
	C36.848080,239.109390 37.910183,240.622360 38.834656,242.185059 
	C38.276829,244.164276 37.639389,245.927383 37.770470,247.631393 
	C38.391720,255.707748 39.526302,263.753265 39.917160,271.836914 
	C40.789551,289.879425 41.328075,307.938141 41.732147,326.304291 
	C41.305748,330.058746 41.303593,333.516479 40.919563,336.931213 
	C40.762016,338.332123 39.780491,339.640381 39.173790,340.990784 
	C38.774818,334.336548 38.375843,327.682312 38.026443,320.113770 
	C38.071018,317.062958 38.203369,314.915649 38.036545,312.791870 
	C37.412823,304.851349 36.691154,296.918518 36.006218,288.982819 
z"/>
<path fill="#D6D6D5" opacity="1.000000" stroke="none" 
	d="
M39.109150,241.941727 
	C37.910183,240.622360 36.848080,239.109390 35.426754,238.104553 
	C35.013668,237.812515 33.573158,238.973770 32.379715,239.682968 
	C29.523283,229.044464 26.167776,218.305847 27.423611,206.489624 
	C28.595280,207.488419 29.546717,208.846375 29.940641,210.350342 
	C30.506609,212.511108 30.666470,214.778259 30.999922,217.332733 
	C31.001123,218.109604 31.002085,218.553757 31.006134,219.331772 
	C31.337353,220.443970 31.665485,221.222290 31.997929,222.332092 
	C32.007183,223.105423 32.012127,223.547272 32.013908,224.379578 
	C32.279049,233.510635 44.184914,240.432983 53.571297,239.261246 
	C64.051285,237.952988 68.799278,233.119202 68.988876,223.658157 
	C68.993599,222.883881 68.994797,222.441299 69.277626,221.750977 
	C70.035492,218.666077 70.511719,215.828888 70.990707,212.618134 
	C70.994240,211.497086 70.995010,210.749603 71.254410,209.751465 
	C72.451927,209.379135 73.390816,209.257507 74.329697,209.135864 
	C74.232246,212.462326 74.134796,215.788773 73.826904,219.641663 
	C73.389664,220.434250 73.415047,220.697052 73.692619,220.956543 
	C73.630989,221.405823 73.569351,221.855087 73.092285,222.768951 
	C71.809074,227.544891 70.941299,231.856262 70.073532,236.167633 
	C70.030495,236.852310 69.987465,237.537003 69.877258,238.556396 
	C68.032692,239.761963 66.255302,240.632843 63.839035,241.784302 
	C60.133301,242.742081 57.066452,243.419296 53.582970,244.071899 
	C51.775455,244.066559 50.384586,244.085831 48.597565,244.067108 
	C45.170662,243.333313 42.139904,242.637512 39.109150,241.941727 
z"/>
<path fill="#BEBDBD" opacity="1.000000" stroke="none" 
	d="
M34.121716,83.392288 
	C35.322445,82.054329 36.612408,81.238884 37.558113,80.129860 
	C40.312122,76.900261 42.520283,73.075195 45.694805,70.364761 
	C50.402431,66.345352 56.883366,67.500252 61.082912,72.095337 
	C62.204113,73.322136 63.908489,74.015961 65.721588,74.937256 
	C67.036964,76.979050 68.795212,79.062096 68.735687,81.091843 
	C68.628349,84.752281 73.659744,87.771637 69.292114,91.743820 
	C67.731987,90.321213 66.972389,88.745697 65.903862,87.418983 
	C63.570988,84.522430 63.066124,79.685486 57.627586,79.737541 
	C56.948452,79.754074 56.559616,79.731522 55.938641,79.401016 
	C53.134789,78.715874 50.563080,78.338669 47.800621,77.735847 
	C46.069645,78.332695 44.529419,79.155159 42.643078,80.024811 
	C40.500523,82.095764 38.733547,84.146721 36.898544,86.134903 
	C35.360180,87.801659 33.742416,89.395134 32.159805,91.021049 
	C32.791092,88.607597 33.422382,86.194138 34.121716,83.392288 
z"/>
<path fill="#D6B781" opacity="1.000000" stroke="none" 
	d="
M60.959953,58.773087 
	C60.709042,60.937771 60.403934,62.838127 60.179344,64.747955 
	C60.091724,65.493065 60.480297,66.508476 60.111904,66.944954 
	C59.755863,67.366798 58.579636,67.501862 57.977951,67.250336 
	C48.353844,63.227161 48.361675,63.208424 40.118084,71.791542 
	C39.851536,69.127098 39.393867,67.491112 39.585087,65.934853 
	C40.269608,60.363857 41.158672,54.817558 42.000080,49.266418 
	C42.668007,44.859833 43.308712,40.446396 44.140682,36.070065 
	C44.280155,35.336414 45.540436,34.127190 45.925228,34.250813 
	C47.407803,34.727116 49.388214,35.312012 50.012428,36.481327 
	C51.678596,39.602486 52.604412,43.110386 54.118107,46.326374 
	C54.597530,47.344948 56.003174,47.927574 57.421776,48.622086 
	C57.858601,48.534466 57.830158,48.567379 57.624336,48.995350 
	C57.837692,52.417019 54.390846,56.623993 60.097088,57.958458 
	C60.377377,58.143154 60.657665,58.327850 60.959953,58.773087 
M46.542950,43.280663 
	C46.035160,47.325317 45.228706,51.368687 45.211353,55.415443 
	C45.206486,56.550278 47.655426,58.745319 48.746796,58.608154 
	C50.775745,58.353149 54.470795,58.830421 53.861523,54.874828 
	C53.360577,51.622532 52.635044,48.313160 51.339630,45.318672 
	C50.798721,44.068298 48.524471,43.567760 46.542950,43.280663 
z"/>
<path fill="#E0E0E0" opacity="1.000000" stroke="none" 
	d="
M75.152222,170.093857 
	C77.383469,174.627182 78.111740,179.179016 76.917480,184.307327 
	C75.972183,188.366547 76.285202,192.718811 75.349548,196.763016 
	C74.305748,194.188797 73.951851,191.792511 73.562782,189.158096 
	C72.990364,191.651627 72.491493,193.824768 71.746552,195.811172 
	C70.680511,195.075424 69.860542,194.526413 69.048660,193.586151 
	C69.383308,191.134796 69.709885,189.074692 70.253433,187.173294 
	C70.973320,186.548203 71.476227,185.764420 71.981339,184.537979 
	C71.985565,181.733704 71.987595,179.372070 71.989998,176.611115 
	C72.101936,172.259338 68.974541,172.387985 66.482918,172.059006 
	C54.783630,170.514359 43.151928,170.072540 31.993958,174.619171 
	C31.998270,173.495560 32.000458,172.746475 32.001274,171.998688 
	C31.999897,172.000000 31.996996,172.003052 32.365730,171.951889 
	C37.808716,170.446121 42.471127,168.568207 48.219276,168.495392 
	C56.575516,168.389557 64.660789,167.418777 72.408676,171.440369 
	C72.664955,171.573410 73.480682,170.628632 74.223892,170.191452 
	C74.668274,170.230316 74.914963,170.196045 75.152222,170.093857 
z"/>
<path fill="#E0E0E0" opacity="1.000000" stroke="none" 
	d="
M39.004543,145.994507 
	C34.337528,145.872955 32.931694,142.324554 32.115597,138.789200 
	C31.042274,134.139572 32.441891,129.594757 37.137905,128.164154 
	C42.526882,126.522430 48.333286,125.914978 53.997112,125.630951 
	C57.699036,125.445305 61.563808,126.296387 65.182076,127.305450 
	C68.477455,128.224472 71.087936,130.272339 71.029312,134.365158 
	C70.960495,139.169388 71.402748,144.038940 66.153885,146.890198 
	C64.897400,147.572754 64.061447,149.029465 63.011120,150.497971 
	C60.271854,150.570770 57.553551,150.275711 54.423218,149.911438 
	C54.001347,148.826950 53.991505,147.811676 54.380558,146.393295 
	C55.843861,145.968445 56.908272,145.946686 58.308525,145.947662 
	C59.092716,145.974823 59.541058,145.979294 60.374756,145.987579 
	C66.388313,144.980865 67.952591,142.823746 68.249031,135.760193 
	C69.037277,131.249847 66.477745,129.619568 62.848412,129.056564 
	C59.758167,128.577179 56.618717,127.849907 53.538429,127.999962 
	C48.552601,128.242828 43.567486,128.951584 38.653374,129.852554 
	C37.611427,130.043579 36.875965,131.906281 35.746338,133.265060 
	C35.776119,135.582748 35.835464,137.698334 36.401428,139.668396 
	C37.027195,141.846603 38.116894,143.891525 39.004543,145.994507 
z"/>
<path fill="#D4D4D4" opacity="1.000000" stroke="none" 
	d="
M32.030342,91.382690 
	C33.742416,89.395134 35.360180,87.801659 36.898544,86.134903 
	C38.733547,84.146721 40.500523,82.095764 42.647247,80.402443 
	C42.996841,81.486900 42.996159,82.240921 42.923050,83.338158 
	C41.562073,86.450531 40.273521,89.219688 38.642136,92.070366 
	C37.534382,94.102631 36.769463,96.053360 36.004242,98.336624 
	C36.003464,99.112534 36.002991,99.555908 35.745335,100.267494 
	C35.324154,102.022835 35.160152,103.509972 34.993698,105.328621 
	C34.987812,106.102165 34.984375,106.544189 34.640945,107.062531 
	C33.531338,108.759636 32.761723,110.380432 31.992104,112.001221 
	C30.893269,111.993187 29.794436,111.985161 28.283691,111.965096 
	C29.214815,105.216820 30.557848,98.480576 32.030342,91.382690 
z"/>
<path fill="#E0E0E0" opacity="1.000000" stroke="none" 
	d="
M30.999680,217.000000 
	C30.666470,214.778259 30.506609,212.511108 29.940641,210.350342 
	C29.546717,208.846375 28.595280,207.488419 27.496330,206.029785 
	C27.056597,198.974350 27.013432,191.954391 27.422031,184.462891 
	C28.908348,183.986923 29.942896,183.982468 30.985317,184.398560 
	C31.003105,186.218796 31.013021,187.618469 31.020187,189.481049 
	C32.002487,198.956589 32.987534,207.969238 33.601475,216.989532 
	C32.486805,216.998123 31.743242,216.999054 30.999680,217.000000 
z"/>
<path fill="#D0B585" opacity="1.000000" stroke="none" 
	d="
M39.098083,341.434509 
	C39.780491,339.640381 40.762016,338.332123 40.919563,336.931213 
	C41.303593,333.516479 41.305748,330.058746 41.734024,326.741913 
	C42.013813,328.904419 42.021248,330.943329 42.019058,333.383667 
	C42.009911,334.854279 42.010395,335.923462 42.010880,336.992676 
	C42.421379,343.407623 45.627193,339.893890 48.509621,338.162415 
	C48.721210,339.897339 48.870529,341.121674 49.031242,342.732605 
	C48.167519,345.445862 47.597309,347.967743 46.286301,350.015350 
	C45.648438,351.011536 43.055580,351.947968 42.349281,351.460449 
	C40.874668,350.442566 39.707825,348.586639 39.092464,346.836609 
	C38.572685,345.358398 39.009148,343.543915 39.098083,341.434509 
z"/>
<path fill="#E0E0E0" opacity="1.000000" stroke="none" 
	d="
M31.149681,169.497849 
	C34.259998,165.525070 38.435097,163.950043 43.370369,163.974335 
	C50.137417,164.007645 56.935944,163.592194 63.658794,164.136749 
	C66.994972,164.406967 70.192337,166.390869 73.460663,167.942383 
	C73.468826,168.285263 73.517868,168.214859 73.151054,168.125504 
	C59.055580,165.775116 45.309086,163.148621 31.814014,169.881500 
	C31.451094,169.658127 31.300386,169.577988 31.149681,169.497849 
z"/>
<path fill="#DCDCDC" opacity="1.000000" stroke="none" 
	d="
M57.917889,79.698448 
	C63.066124,79.685486 63.570988,84.522430 65.903862,87.418983 
	C66.972389,88.745697 67.731987,90.321213 68.966446,91.940407 
	C69.536804,93.158524 69.772408,94.220139 69.781898,95.870346 
	C69.351532,97.660553 69.147285,98.862160 68.579849,100.047272 
	C67.486542,100.018311 66.756432,100.005836 66.022797,99.597717 
	C65.047806,97.433937 64.076340,95.665802 63.084114,93.521240 
	C62.698586,91.436623 62.333817,89.728439 61.932888,87.660492 
	C60.570450,84.766640 59.244167,82.232544 57.917889,79.698448 
z"/>
<path fill="#E0E0E0" opacity="1.000000" stroke="none" 
	d="
M74.689209,208.901810 
	C73.390816,209.257507 72.451927,209.379135 70.996422,209.644653 
	C69.989182,209.524124 69.498566,209.259720 69.005981,208.583405 
	C69.012482,204.790726 69.020943,201.409958 69.272705,198.123260 
	C70.340179,198.143188 71.164352,198.069016 72.198654,198.232651 
	C73.223190,198.649765 74.037598,198.829056 74.852013,199.008347 
	C74.917580,202.228149 74.983154,205.447952 74.689209,208.901810 
z"/>
<path fill="#D4D4D4" opacity="1.000000" stroke="none" 
	d="
M68.943039,100.063774 
	C69.147285,98.862160 69.351532,97.660553 69.825806,96.210312 
	C71.583649,100.071541 73.071487,104.181396 74.414917,108.654236 
	C73.394218,109.011925 72.517914,109.006638 71.059021,108.733109 
	C70.308769,106.983978 70.141113,105.503098 69.949371,103.722267 
	C69.598763,102.945045 69.272232,102.467773 68.946396,101.668953 
	C68.945732,100.919525 68.944382,100.491653 68.943039,100.063774 
z"/>
<path fill="#D6D6D5" opacity="1.000000" stroke="none" 
	d="
M30.977444,183.978012 
	C29.942896,183.982468 28.908348,183.986923 27.485920,183.998535 
	C27.047838,181.951904 26.997631,179.898148 27.172787,177.347107 
	C27.633268,176.572922 27.589867,176.307617 27.267944,176.053940 
	C27.497505,175.547470 27.727064,175.040985 28.364624,174.187408 
	C29.064106,173.100250 29.355589,172.360199 29.647072,171.620163 
	C29.647074,171.620163 29.966890,171.947617 30.185160,171.894928 
	C30.936502,171.893967 31.469576,171.945679 32.002647,171.997391 
	C32.000458,172.746475 31.998270,173.495560 31.729874,174.921982 
	C31.301592,178.392212 31.139519,181.185120 30.977444,183.978012 
z"/>
<path fill="#EAE1D2" opacity="1.000000" stroke="none" 
	d="
M36.022957,289.449890 
	C36.691154,296.918518 37.412823,304.851349 38.036545,312.791870 
	C38.203369,314.915649 38.071018,317.062958 38.023201,319.675812 
	C37.639191,319.480865 37.043674,318.819977 37.016685,318.136658 
	C36.645229,308.731903 36.352066,299.324036 36.022957,289.449890 
z"/>
<path fill="#B5A88F" opacity="1.000000" stroke="none" 
	d="
M65.394844,263.921509 
	C66.021202,258.739777 67.031731,253.473679 68.376106,248.087341 
	C67.732964,253.257111 66.755989,258.547119 65.394844,263.921509 
z"/>
<path fill="#C8C8C8" opacity="1.000000" stroke="none" 
	d="
M70.451828,236.068909 
	C70.941299,231.856262 71.809074,227.544891 72.990433,223.094025 
	C72.479385,227.293076 71.654755,231.631638 70.451828,236.068909 
z"/>
<path fill="#CDB487" opacity="1.000000" stroke="none" 
	d="
M60.051048,57.553085 
	C54.390846,56.623993 57.837692,52.417019 57.641434,48.986572 
	C58.577904,51.415787 59.291454,54.281754 60.051048,57.553085 
z"/>
<path fill="#D6D6D5" opacity="1.000000" stroke="none" 
	d="
M74.942688,198.701187 
	C74.037598,198.829056 73.223190,198.649765 72.200867,197.899902 
	C71.992851,196.885544 71.992737,196.441727 71.992615,195.997925 
	C72.491493,193.824768 72.990364,191.651627 73.562782,189.158096 
	C73.951851,191.792511 74.305748,194.188797 74.962585,196.859680 
	C75.188133,197.554199 75.110756,197.974106 74.942688,198.701187 
z"/>
<path fill="#E4E4E4" opacity="1.000000" stroke="none" 
	d="
M26.723408,120.239784 
	C26.922361,121.276283 26.853111,122.555969 26.461704,123.911026 
	C26.244766,122.818596 26.349985,121.650780 26.723408,120.239784 
z"/>
<path fill="#E0E0E0" opacity="1.000000" stroke="none" 
	d="
M29.367228,171.756592 
	C29.355589,172.360199 29.064106,173.100250 28.448502,173.916595 
	C28.445381,173.292938 28.766382,172.592972 29.367228,171.756592 
z"/>
<path fill="#E0E0E0" opacity="1.000000" stroke="none" 
	d="
M32.001274,171.998688 
	C31.469576,171.945679 30.936502,171.893967 30.013334,171.743835 
	C30.029655,171.073868 30.436073,170.502319 30.996086,169.714325 
	C31.300386,169.577988 31.451094,169.658127 31.806396,170.210846 
	C32.006325,171.123306 32.001659,171.563171 31.996996,172.003052 
	C31.996996,172.003052 31.999897,172.000000 32.001274,171.998688 
z"/>
<path fill="#C8C8C8" opacity="1.000000" stroke="none" 
	d="
M75.370590,169.786209 
	C74.914963,170.196045 74.668274,170.230316 74.157486,169.855896 
	C73.774506,169.081726 73.646187,168.648300 73.517868,168.214859 
	C73.517868,168.214859 73.468826,168.285263 73.428047,168.296570 
	C74.121170,168.698105 74.855064,169.088333 75.370590,169.786209 
z"/>
<path fill="#E0E0E0" opacity="1.000000" stroke="none" 
	d="
M73.838074,220.742279 
	C73.415047,220.697052 73.389664,220.434250 73.752762,220.093414 
	C73.920540,220.188477 73.952034,220.358231 73.838074,220.742279 
z"/>
<path fill="#F0F0F0" opacity="1.000000" stroke="none" 
	d="
M27.138849,176.268219 
	C27.589867,176.307617 27.633268,176.572922 27.248661,176.912323 
	C27.069370,176.810699 27.039564,176.646606 27.138849,176.268219 
z"/>
<path fill="#E4E4E4" opacity="1.000000" stroke="none" 
	d="
M27.093563,143.292236 
	C27.426582,143.160187 27.642759,143.384186 27.869448,143.908997 
	C27.665152,143.939392 27.364071,143.752213 27.093563,143.292236 
z"/>
<path fill="#E4E4E4" opacity="1.000000" stroke="none" 
	d="
M26.059492,141.294525 
	C26.317795,141.246277 26.547596,141.478928 26.861628,141.949097 
	C26.640902,141.982880 26.335945,141.779144 26.059492,141.294525 
z"/>
<path fill="#E5E5E5" opacity="1.000000" stroke="none" 
	d="
M69.973450,104.022217 
	C70.141113,105.503098 70.308769,106.983978 70.730331,108.733566 
	C70.985695,109.444550 70.987167,109.886818 70.648788,110.734970 
	C67.599297,113.851402 64.859383,112.319359 62.229771,111.080284 
	C55.270981,107.801262 48.415901,107.515800 41.480175,111.203705 
	C39.569492,112.219681 37.391319,112.732597 35.335884,113.476341 
	C35.217567,111.312965 35.099251,109.149590 34.980934,106.986214 
	C34.984375,106.544189 34.987812,106.102165 35.225967,105.162216 
	C35.973839,104.109528 36.486996,103.554764 37.003265,103.380341 
	C36.963623,107.601517 38.417027,108.511742 41.856564,106.516228 
	C47.001690,103.531158 52.262707,102.166283 58.317795,104.432076 
	C61.261589,105.533630 64.926025,107.166809 68.321983,104.001595 
	C69.092857,104.009529 69.533157,104.015877 69.973450,104.022217 
z"/>
<path fill="#DCDCDC" opacity="1.000000" stroke="none" 
	d="
M34.640945,107.062531 
	C35.099251,109.149590 35.217567,111.312965 35.335884,113.476341 
	C37.391319,112.732597 39.569492,112.219681 41.480175,111.203705 
	C48.415901,107.515800 55.270981,107.801262 62.229771,111.080284 
	C64.859383,112.319359 67.599297,113.851402 70.649696,111.066689 
	C70.990440,112.772400 70.990440,114.552269 70.990440,117.204437 
	C68.048843,116.379433 65.847633,115.928391 63.768639,115.150650 
	C53.957916,111.480476 44.730476,111.931572 36.086922,118.434204 
	C34.888306,119.335953 32.919884,119.214447 31.152758,118.950127 
	C30.997120,117.888954 30.996557,117.444305 30.995998,116.999649 
	C31.296543,115.575333 31.597090,114.151009 31.944870,112.363953 
	C32.761723,110.380432 33.531338,108.759636 34.640945,107.062531 
z"/>
<path fill="#EAEAEA" opacity="1.000000" stroke="none" 
	d="
M39.404266,146.000656 
	C38.116894,143.891525 37.027195,141.846603 36.401428,139.668396 
	C35.835464,137.698334 35.776119,135.582748 36.126488,133.210876 
	C44.540737,129.344101 52.550560,130.666229 60.582794,131.648987 
	C63.789082,132.041275 66.884415,132.226837 68.005981,135.999420 
	C67.952591,142.823746 66.388313,144.980865 60.447128,145.651382 
	C60.757893,143.875931 61.381634,142.440475 62.127701,140.797562 
	C62.452026,140.331055 62.703457,140.135590 63.357666,139.912720 
	C63.987724,138.375748 64.476662,136.914597 64.375267,135.495667 
	C64.353027,135.184418 62.239315,134.936920 61.072479,134.811447 
	C58.815926,134.568756 56.550526,134.341492 54.283852,134.274185 
	C50.069290,134.149063 45.829472,133.897903 41.650532,134.267960 
	C40.661060,134.355576 39.871067,136.695786 38.990875,138.250092 
	C38.994587,138.667252 38.996731,138.834106 39.118256,139.210114 
	C39.437157,139.680618 39.687557,139.877151 40.028008,140.325287 
	C40.712479,141.426727 41.357773,142.211716 42.131317,143.289017 
	C42.507290,144.385223 42.755013,145.189117 43.002739,145.993027 
	C41.936489,145.997620 40.870235,146.002213 39.404266,146.000656 
z"/>
<path fill="#F9F9F9" opacity="1.000000" stroke="none" 
	d="
M63.004318,140.003708 
	C62.703457,140.135590 62.452026,140.331055 61.777554,140.844925 
	C60.194279,142.708145 59.083477,144.316544 57.972679,145.924942 
	C56.908272,145.946686 55.843861,145.968445 54.380104,146.012558 
	C51.620892,146.013443 49.261032,145.991959 46.437569,145.582184 
	C44.650333,144.461517 43.326698,143.729126 42.003067,142.996719 
	C41.357773,142.211716 40.712479,141.426727 39.910114,140.114960 
	C39.553303,139.326126 39.301910,139.130371 38.998875,139.000946 
	C38.996731,138.834106 38.994587,138.667252 39.375023,138.083374 
	C46.425587,137.454193 53.094887,137.104141 59.760235,137.167816 
	C60.850529,137.178238 61.923397,139.012436 63.004318,140.003708 
z"/>
<path fill="#D4D4D4" opacity="1.000000" stroke="none" 
	d="
M52.690254,116.957222 
	C51.465637,116.815910 50.586372,116.652245 49.707111,116.488579 
	C49.728256,116.086433 49.749397,115.684280 49.770542,115.282135 
	C51.252766,115.436974 52.734989,115.591812 54.217209,115.746643 
	C53.823338,116.142723 53.429470,116.538795 52.690254,116.957222 
z"/>
<path fill="#D4D4D4" opacity="1.000000" stroke="none" 
	d="
M59.047585,116.374619 
	C58.985195,117.805862 58.662762,119.104591 58.340328,120.403320 
	C57.858906,120.268684 57.377480,120.134041 56.896053,119.999405 
	C57.526550,118.746971 58.157047,117.494530 59.047585,116.374619 
z"/>
<path fill="#F2F2F2" opacity="1.000000" stroke="none" 
	d="
M42.131313,143.289017 
	C43.326698,143.729126 44.650333,144.461517 45.995338,145.562805 
	C45.263210,145.956421 44.509716,145.981140 43.379478,145.999451 
	C42.755013,145.189117 42.507290,144.385223 42.131313,143.289017 
z"/>
<path fill="#D4D4D4" opacity="1.000000" stroke="none" 
	d="
M29.593948,125.334442 
	C29.745035,124.996956 30.041834,124.813057 30.338633,124.629150 
	C30.138973,124.915443 29.939316,125.201729 29.593948,125.334442 
z"/>
<path fill="#D4D4D4" opacity="1.000000" stroke="none" 
	d="
M30.714630,117.048965 
	C30.996557,117.444305 30.997120,117.888954 30.995251,118.667099 
	C30.507971,118.681633 30.023123,118.362679 29.538271,118.043732 
	C29.836599,117.728577 30.134930,117.413422 30.714630,117.048965 
z"/>
<path fill="#D4D4D4" opacity="1.000000" stroke="none" 
	d="
M54.043961,119.475922 
	C54.181110,119.818794 54.104176,120.158478 54.027241,120.498161 
	C53.961452,120.156349 53.895664,119.814545 54.043961,119.475922 
z"/>
<path fill="#D4D4D4" opacity="1.000000" stroke="none" 
	d="
M72.956139,126.524239 
	C72.818985,126.181343 72.895920,125.841637 72.972855,125.501930 
	C73.038643,125.843765 73.104431,126.185593 72.956139,126.524239 
z"/>
<path fill="#E1CA9A" opacity="1.000000" stroke="none" 
	d="
M42.028679,332.982269 
	C42.021248,330.943329 42.013813,328.904419 42.004501,326.427856 
	C41.328075,307.938141 40.789551,289.879425 39.917160,271.836914 
	C39.526302,263.753265 38.391720,255.707748 37.770470,247.631393 
	C37.639389,245.927383 38.276829,244.164276 38.834656,242.185059 
	C42.139904,242.637512 45.170662,243.333313 48.486176,244.421295 
	C47.587769,245.212479 46.401852,245.958496 45.221916,245.949173 
	C40.602016,245.912613 39.641075,248.411636 40.069435,252.427475 
	C40.824051,259.501892 41.564610,266.588348 41.950855,273.689362 
	C42.761562,288.594116 43.303162,303.513428 44.066544,318.421082 
	C44.142738,319.909119 44.984341,321.357971 45.470707,322.825012 
	C46.057259,322.795837 46.643810,322.766663 47.230362,322.737518 
	C47.818962,320.437561 48.613983,318.167938 48.957024,315.831970 
	C49.942471,309.121429 50.369320,302.308777 51.697769,295.672821 
	C54.462482,281.862305 57.713032,268.149719 60.668056,254.376312 
	C61.919289,248.544312 61.148727,247.484177 55.554142,245.796036 
	C54.922531,245.605469 54.512421,244.680786 53.999603,244.096512 
	C57.066452,243.419296 60.133301,242.742081 63.582329,241.998077 
	C62.590324,251.214371 61.454254,260.540314 59.792191,269.771515 
	C56.373634,288.758392 52.716805,307.702942 49.035191,326.641052 
	C48.575298,329.006714 47.371960,331.227844 45.916622,333.717926 
	C44.222992,333.607361 43.125835,333.294830 42.028679,332.982269 
z"/>
<path fill="#D6BD92" opacity="1.000000" stroke="none" 
	d="
M42.019054,333.383667 
	C43.125835,333.294830 44.222992,333.607361 45.661568,333.966553 
	C44.911907,335.002655 43.820824,335.992126 42.370312,336.987122 
	C42.010395,335.923462 42.009911,334.854279 42.019054,333.383667 
z"/>
<path fill="#F2DFAF" opacity="1.000000" stroke="none" 
	d="
M53.582962,244.071899 
	C54.512421,244.680786 54.922531,245.605469 55.554142,245.796036 
	C61.148727,247.484177 61.919289,248.544312 60.668056,254.376312 
	C57.713032,268.149719 54.462482,281.862305 51.697769,295.672821 
	C50.369320,302.308777 49.942471,309.121429 48.957024,315.831970 
	C48.613983,318.167938 47.818962,320.437561 47.230362,322.737518 
	C46.643810,322.766663 46.057259,322.795837 45.470707,322.825012 
	C44.984341,321.357971 44.142738,319.909119 44.066544,318.421082 
	C43.303162,303.513428 42.761562,288.594116 41.950855,273.689362 
	C41.564610,266.588348 40.824051,259.501892 40.069435,252.427475 
	C39.641075,248.411636 40.602016,245.912613 45.221916,245.949173 
	C46.401852,245.958496 47.587769,245.212479 48.882324,244.459305 
	C50.384586,244.085831 51.775455,244.066559 53.582962,244.071899 
z"/>
<path fill="#E0E0E0" opacity="1.000000" stroke="none" 
	d="
M68.985344,223.989838 
	C68.799278,233.119202 64.051285,237.952988 53.571297,239.261246 
	C44.184914,240.432983 32.279049,233.510635 32.328426,224.417206 
	C33.429699,224.376450 34.213299,224.688492 35.056831,225.359711 
	C36.737434,226.489578 38.358101,227.260239 40.112503,228.286240 
	C40.820644,229.035660 41.395042,229.529770 42.031174,230.334290 
	C42.732620,231.088287 43.372337,231.531845 44.384598,231.980804 
	C45.502213,231.998032 46.247280,232.009842 47.102386,232.392303 
	C50.294842,234.314713 53.344555,235.474731 56.382561,232.022293 
	C57.500843,232.005280 58.246296,231.994537 59.350731,231.944229 
	C64.174149,231.162491 64.956177,227.475845 66.390137,224.011414 
	C67.502502,224.002579 68.243927,223.996216 68.985344,223.989838 
z"/>
<path fill="#E0E0E0" opacity="1.000000" stroke="none" 
	d="
M70.987946,212.991714 
	C70.511719,215.828888 70.035492,218.666077 69.060532,221.537277 
	C68.382942,220.045425 68.204071,218.519547 68.020226,216.596130 
	C68.019775,215.138702 68.024292,214.078812 68.398895,213.014862 
	C69.508636,213.004456 70.248299,212.998077 70.987946,212.991714 
z"/>
<path fill="#E7E7E7" opacity="1.000000" stroke="none" 
	d="
M68.025192,216.993668 
	C68.204071,218.519547 68.382942,220.045425 68.778900,221.785004 
	C68.994797,222.441299 68.993599,222.883881 68.988876,223.658142 
	C68.243927,223.996216 67.502502,224.002579 66.394493,223.628632 
	C66.693665,221.163437 67.359421,219.078552 68.025192,216.993668 
z"/>
<path fill="#E7E7E7" opacity="1.000000" stroke="none" 
	d="
M70.990707,212.618134 
	C70.248299,212.998077 69.508636,213.004456 68.394928,212.663025 
	C68.349899,211.208572 68.678925,210.101944 69.007950,208.995316 
	C69.498566,209.259720 69.989182,209.524124 70.737793,209.895325 
	C70.995010,210.749603 70.994240,211.497086 70.990707,212.618134 
z"/>
<path fill="#E0E0E0" opacity="1.000000" stroke="none" 
	d="
M31.993616,222.000610 
	C31.665485,221.222290 31.337353,220.443970 31.378860,219.332520 
	C32.494175,219.003128 33.239853,219.006882 33.988892,219.383911 
	C33.994049,220.504410 33.995842,221.251587 33.663673,221.998627 
	C32.884346,221.999176 32.438980,221.999893 31.993616,222.000610 
z"/>
<path fill="#E7E7E7" opacity="1.000000" stroke="none" 
	d="
M31.997927,222.332092 
	C32.438980,221.999893 32.884346,221.999176 33.833771,222.228424 
	C34.557522,223.305756 34.777210,224.153137 34.996895,225.000519 
	C34.213299,224.688492 33.429699,224.376450 32.331585,224.026764 
	C32.012127,223.547272 32.007183,223.105423 31.997927,222.332092 
z"/>
<path fill="#E7E7E7" opacity="1.000000" stroke="none" 
	d="
M33.985527,219.010620 
	C33.239853,219.006882 32.494175,219.003128 31.375772,218.998642 
	C31.002085,218.553757 31.001123,218.109604 30.999920,217.332733 
	C31.743242,216.999054 32.486805,216.998123 33.610527,217.327759 
	C33.988964,218.109116 33.987247,218.559860 33.985527,219.010620 
z"/>
<path fill="#F9F9F9" opacity="1.000000" stroke="none" 
	d="
M61.969048,88.020256 
	C62.333817,89.728439 62.698586,91.436623 62.898117,93.837326 
	C61.223190,95.212219 59.759212,96.326790 58.194855,96.492226 
	C54.227482,96.911797 50.171818,96.609039 46.237190,97.182953 
	C43.924225,97.520317 42.323978,97.864983 42.031582,94.645386 
	C42.387821,93.208046 42.700897,92.111824 43.349014,90.943939 
	C46.418289,87.768723 50.116554,85.054741 48.064728,79.676147 
	C48.036873,78.875900 48.014122,78.418678 47.991371,77.961464 
	C50.563080,78.338669 53.134789,78.715874 55.919418,79.779465 
	C58.077904,82.983978 60.023476,85.502121 61.969048,88.020256 
z"/>
<path fill="#EDEDED" opacity="1.000000" stroke="none" 
	d="
M61.932888,87.660492 
	C60.023476,85.502121 58.077904,82.983978 56.151558,80.087402 
	C56.559616,79.731522 56.948452,79.754074 57.627586,79.737541 
	C59.244167,82.232544 60.570450,84.766640 61.932888,87.660492 
z"/>
<path fill="#DCDCDC" opacity="1.000000" stroke="none" 
	d="
M47.800621,77.735847 
	C48.014122,78.418678 48.036873,78.875900 47.738934,79.725929 
	C46.611626,81.078659 45.805008,82.038567 44.664604,82.998047 
	C43.885700,82.996719 43.440586,82.995827 42.995476,82.994934 
	C42.996159,82.240921 42.996841,81.486900 42.993355,80.355255 
	C44.529419,79.155159 46.069645,78.332695 47.800621,77.735847 
z"/>
<path fill="#DEBE86" opacity="1.000000" stroke="none" 
	d="
M46.790646,43.003475 
	C48.524471,43.567760 50.798721,44.068298 51.339630,45.318672 
	C52.635044,48.313160 53.360577,51.622532 53.861523,54.874828 
	C54.470795,58.830421 50.775745,58.353149 48.746796,58.608154 
	C47.655426,58.745319 45.206486,56.550278 45.211353,55.415443 
	C45.228706,51.368687 46.035160,47.325317 46.790646,43.003475 
z"/>
<path fill="#E7E7E7" opacity="1.000000" stroke="none" 
	d="
M30.985317,184.398560 
	C31.139519,181.185120 31.301592,178.392212 31.727753,175.296509 
	C43.151928,170.072540 54.783630,170.514359 66.482918,172.059006 
	C68.974541,172.387985 72.101936,172.259338 71.618210,176.608002 
	C70.501854,176.999603 69.757675,176.995010 68.700073,176.819244 
	C66.595772,176.103058 64.804886,175.558029 62.637657,174.845306 
	C55.918869,174.452209 49.576797,174.061127 43.233883,174.046936 
	C36.583748,174.032059 33.340092,177.509979 32.917610,184.074356 
	C32.809383,185.755966 31.682066,187.371994 31.022940,189.018143 
	C31.013021,187.618469 31.003105,186.218796 30.985317,184.398560 
z"/>
<path fill="#F0F0F0" opacity="1.000000" stroke="none" 
	d="
M69.005989,208.583405 
	C68.678925,210.101944 68.349899,211.208572 68.024841,212.667053 
	C68.024292,214.078812 68.019775,215.138702 68.020218,216.596130 
	C67.359421,219.078552 66.693665,221.163437 66.023544,223.631104 
	C64.956177,227.475845 64.174149,231.162491 59.403496,231.591736 
	C63.834030,223.853439 65.682350,215.703110 66.130615,206.937729 
	C66.472153,200.259445 68.005104,193.642075 69.265152,186.999756 
	C69.693680,187.006134 69.865067,187.010361 70.036453,187.014603 
	C69.709885,189.074692 69.383308,191.134796 69.035950,193.991241 
	C69.019905,195.868118 69.024651,196.948654 69.029404,198.029175 
	C69.020943,201.409958 69.012482,204.790726 69.005989,208.583405 
z"/>
<path fill="#D6D6D5" opacity="1.000000" stroke="none" 
	d="
M73.151054,168.125504 
	C73.646187,168.648300 73.774506,169.081726 73.969231,169.850708 
	C73.480682,170.628632 72.664955,171.573410 72.408676,171.440369 
	C64.660789,167.418777 56.575516,168.389557 48.219276,168.495392 
	C42.471127,168.568207 37.808716,170.446121 32.365730,171.951889 
	C32.001659,171.563171 32.006325,171.123306 32.018608,170.354095 
	C45.309086,163.148621 59.055580,165.775116 73.151054,168.125504 
z"/>
<path fill="#F0F0F0" opacity="1.000000" stroke="none" 
	d="
M69.013489,176.990402 
	C69.757675,176.995010 70.501854,176.999603 71.617828,177.007324 
	C71.987595,179.372070 71.985565,181.733704 71.611572,184.543640 
	C70.498833,184.995468 69.758057,184.998947 69.005714,185.001404 
	C68.994141,185.000381 68.973587,184.997559 68.981537,184.553467 
	C68.997482,181.736389 69.005486,179.363388 69.013489,176.990402 
z"/>
<path fill="#E7E7E7" opacity="1.000000" stroke="none" 
	d="
M69.272705,198.123260 
	C69.024651,196.948654 69.019905,195.868118 69.027870,194.382507 
	C69.860542,194.526413 70.680511,195.075424 71.746552,195.811172 
	C71.992737,196.441727 71.992851,196.885544 71.990738,197.662094 
	C71.164352,198.069016 70.340179,198.143188 69.272705,198.123260 
z"/>
<path fill="#E7E7E7" opacity="1.000000" stroke="none" 
	d="
M69.017288,185.002441 
	C69.758057,184.998947 70.498833,184.995468 71.609375,184.986298 
	C71.476227,185.764420 70.973320,186.548203 70.253433,187.173294 
	C69.865067,187.010361 69.693680,187.006134 69.264236,186.667252 
	C69.009880,185.889206 69.013588,185.445816 69.017288,185.002441 
z"/>
<path fill="#E4E4E4" opacity="1.000000" stroke="none" 
	d="
M68.249031,135.760193 
	C66.884415,132.226837 63.789082,132.041275 60.582794,131.648987 
	C52.550560,130.666229 44.540737,129.344101 36.379448,132.944611 
	C36.875965,131.906281 37.611427,130.043579 38.653374,129.852554 
	C43.567486,128.951584 48.552601,128.242828 53.538429,127.999962 
	C56.618717,127.849907 59.758167,128.577179 62.848412,129.056564 
	C66.477745,129.619568 69.037277,131.249847 68.249031,135.760193 
z"/>
<path fill="#F2F2F2" opacity="1.000000" stroke="none" 
	d="
M58.308525,145.947662 
	C59.083477,144.316544 60.194279,142.708145 61.655228,141.052383 
	C61.381634,142.440475 60.757893,143.875931 60.061775,145.647583 
	C59.541058,145.979294 59.092716,145.974823 58.308525,145.947662 
z"/>
<path fill="#E5E5E5" opacity="1.000000" stroke="none" 
	d="
M42.923050,83.338158 
	C43.440586,82.995827 43.885700,82.996719 44.655495,83.379288 
	C44.324772,86.179184 43.669369,88.597389 43.013969,91.015602 
	C42.700897,92.111824 42.387821,93.208046 41.685661,94.733200 
	C40.860241,96.437065 40.423908,97.711990 39.700291,99.118805 
	C38.620613,99.501266 37.828217,99.751839 36.777496,100.001038 
	C36.346954,99.999535 36.174736,99.999405 36.002518,99.999283 
	C36.002991,99.555908 36.003464,99.112534 36.354420,98.259064 
	C37.464924,95.895599 38.224949,93.942215 38.984978,91.988838 
	C40.273521,89.219688 41.562073,86.450531 42.923050,83.338158 
z"/>
<path fill="#DCDCDC" opacity="1.000000" stroke="none" 
	d="
M38.642139,92.070366 
	C38.224949,93.942215 37.464924,95.895599 36.354721,97.926537 
	C36.769463,96.053360 37.534382,94.102631 38.642139,92.070366 
z"/>
<path fill="#DCDCDC" opacity="1.000000" stroke="none" 
	d="
M35.745335,100.267494 
	C36.174736,99.999405 36.346954,99.999535 36.768139,100.375656 
	C37.011452,101.501091 37.005802,102.250542 37.000153,103.000000 
	C36.486996,103.554764 35.973839,104.109528 35.228416,104.830704 
	C35.160152,103.509972 35.324154,102.022835 35.745335,100.267494 
z"/>
<path fill="#F0F0F0" opacity="1.000000" stroke="none" 
	d="
M31.020191,189.481049 
	C31.682066,187.371994 32.809383,185.755966 32.917610,184.074356 
	C33.340092,177.509979 36.583748,174.032059 43.233883,174.046936 
	C49.576797,174.061127 55.918869,174.452209 62.599846,175.160034 
	C62.622265,176.423965 62.306149,177.205460 61.523331,177.989914 
	C55.102196,178.322784 49.147293,178.905563 43.193485,178.894592 
	C39.159283,178.887177 37.372520,180.694016 36.942947,184.367676 
	C35.219070,199.110168 35.959496,213.685638 39.978764,228.030914 
	C38.358101,227.260239 36.737434,226.489578 35.056835,225.359711 
	C34.777210,224.153137 34.557522,223.305756 34.167732,222.228577 
	C33.995842,221.251587 33.994049,220.504410 33.988892,219.383911 
	C33.987247,218.559860 33.988964,218.109116 33.981632,217.320129 
	C32.987534,207.969238 32.002487,198.956589 31.020191,189.481049 
z"/>
<path fill="#EDEDED" opacity="1.000000" stroke="none" 
	d="
M37.003265,103.380341 
	C37.005802,102.250542 37.011452,101.501091 37.026459,100.377014 
	C37.828217,99.751839 38.620613,99.501266 39.719467,99.490295 
	C41.362953,100.196014 42.721935,101.110313 44.032990,101.046097 
	C48.347366,100.834808 52.636696,100.139336 56.950691,99.883614 
	C59.963146,99.705040 63.000229,99.942009 66.026314,99.993362 
	C66.756432,100.005836 67.486542,100.018311 68.579849,100.047272 
	C68.944382,100.491653 68.945732,100.919525 68.728577,101.858871 
	C68.337181,102.913567 68.164291,103.456779 67.991402,104.000000 
	C64.926025,107.166809 61.261589,105.533630 58.317795,104.432076 
	C52.262707,102.166283 47.001690,103.531158 41.856564,106.516228 
	C38.417027,108.511742 36.963623,107.601517 37.003265,103.380341 
z"/>
<path fill="#F2F2F2" opacity="1.000000" stroke="none" 
	d="
M66.022797,99.597717 
	C63.000229,99.942009 59.963146,99.705040 56.950691,99.883614 
	C52.636696,100.139336 48.347366,100.834808 44.032990,101.046097 
	C42.721935,101.110313 41.362953,100.196014 40.006752,99.358406 
	C40.423908,97.711990 40.860241,96.437065 41.642494,95.074310 
	C42.323978,97.864983 43.924225,97.520317 46.237190,97.182953 
	C50.171818,96.609039 54.227482,96.911797 58.194855,96.492226 
	C59.759212,96.326790 61.223190,95.212219 62.918877,94.213760 
	C64.076340,95.665802 65.047806,97.433937 66.022797,99.597717 
z"/>
<path fill="#DCDCDC" opacity="1.000000" stroke="none" 
	d="
M68.321983,104.001595 
	C68.164291,103.456779 68.337181,102.913567 68.727890,102.180420 
	C69.272232,102.467773 69.598763,102.945045 69.949371,103.722275 
	C69.533157,104.015877 69.092857,104.009529 68.321983,104.001595 
z"/>
<path fill="#F2F2F2" opacity="1.000000" stroke="none" 
	d="
M63.357666,139.912720 
	C61.923397,139.012436 60.850529,137.178238 59.760235,137.167816 
	C53.094887,137.104141 46.425587,137.454193 39.373459,137.833069 
	C39.871067,136.695786 40.661060,134.355576 41.650532,134.267960 
	C45.829472,133.897903 50.069290,134.149063 54.283852,134.274185 
	C56.550526,134.341492 58.815926,134.568756 61.072479,134.811447 
	C62.239315,134.936920 64.353027,135.184418 64.375267,135.495667 
	C64.476662,136.914597 63.987724,138.375748 63.357666,139.912720 
z"/>
<path fill="#F2F2F2" opacity="1.000000" stroke="none" 
	d="
M39.118256,139.210114 
	C39.301910,139.130371 39.553303,139.326126 39.870941,139.798523 
	C39.687557,139.877151 39.437157,139.680618 39.118256,139.210114 
z"/>
<path fill="#F8F8F8" opacity="1.000000" stroke="none" 
	d="
M40.112503,228.286240 
	C35.959496,213.685638 35.219070,199.110168 36.942947,184.367676 
	C37.372520,180.694016 39.159283,178.887177 43.193485,178.894592 
	C49.147293,178.905563 55.102196,178.322784 61.526588,178.415894 
	C61.081264,184.563431 64.361824,185.534546 68.973587,184.997559 
	C68.973587,184.997559 68.994141,185.000381 69.005714,185.001404 
	C69.013588,185.445816 69.009880,185.889206 69.007095,186.665100 
	C68.005104,193.642075 66.472153,200.259445 66.130615,206.937729 
	C65.682350,215.703110 63.834030,223.853439 59.044521,231.631287 
	C58.246296,231.994537 57.500843,232.005280 55.931572,232.010315 
	C52.402622,232.010269 49.697487,232.015961 46.992352,232.021652 
	C46.247280,232.009842 45.502213,231.998032 44.324566,231.670609 
	C43.251141,230.911285 42.610294,230.467575 41.969444,230.023865 
	C41.395042,229.529770 40.820644,229.035660 40.112503,228.286240 
z"/>
<path fill="#E7E7E7" opacity="1.000000" stroke="none" 
	d="
M47.102386,232.392303 
	C49.697487,232.015961 52.402622,232.010269 55.558746,232.016571 
	C53.344555,235.474731 50.294842,234.314713 47.102386,232.392303 
z"/>
<path fill="#F0F0F0" opacity="1.000000" stroke="none" 
	d="
M42.031174,230.334290 
	C42.610294,230.467575 43.251141,230.911285 43.952023,231.665222 
	C43.372337,231.531845 42.732620,231.088287 42.031174,230.334290 
z"/>
<path fill="#EDEDED" opacity="1.000000" stroke="none" 
	d="
M43.349014,90.943939 
	C43.669369,88.597389 44.324772,86.179184 44.989285,83.379723 
	C45.805008,82.038567 46.611626,81.078659 47.744038,80.068970 
	C50.116554,85.054741 46.418289,87.768723 43.349014,90.943939 
z"/>
<path fill="#FDFDFD" opacity="1.000000" stroke="none" 
	d="
M68.981537,184.553467 
	C64.361824,185.534546 61.081264,184.563431 61.993290,178.412933 
	C62.306149,177.205460 62.622265,176.423965 62.976189,175.327728 
	C64.804886,175.558029 66.595772,176.103058 68.700073,176.819244 
	C69.005486,179.363388 68.997482,181.736389 68.981537,184.553467 
z"/>
</svg>