<svg version="1.1" id="Layer_1" xmlns="http://www.w3.org/2000/svg" xmlns:xlink="http://www.w3.org/1999/xlink" x="0px" y="0px"
	 width="100%" viewBox="0 0 91 405" enable-background="new 0 0 91 405" xml:space="preserve">
<path fill="#D1D1D1" opacity="1.000000" stroke="none" 
	d="
M73.174881,244.944275 
	C73.516861,244.926575 73.777298,245.063721 73.971405,246.000488 
	C75.509544,252.566055 77.016861,258.491028 78.602219,264.395081 
	C78.680260,264.685699 79.439568,264.793427 79.881653,264.986328 
	C79.939568,266.359528 79.997482,267.732727 79.813530,269.786499 
	C79.761261,272.666595 79.950859,274.866119 80.140457,277.065674 
	C80.103668,279.424561 80.066872,281.783447 79.607483,284.661438 
	C78.462456,287.469879 77.740021,289.759186 76.704987,291.979309 
	C75.923431,291.271698 75.454475,290.633331 74.984474,289.663116 
	C74.664619,288.552612 74.345802,287.773926 74.030518,286.663208 
	C74.042038,285.888367 74.050034,285.445557 74.298843,284.745483 
	C74.691994,283.324646 74.844330,282.161102 75.003967,280.665283 
	C75.017990,279.889893 75.024719,279.446808 75.294098,278.694092 
	C75.588440,274.824280 77.881004,270.948578 74.091789,267.555176 
	C74.066689,266.458191 74.046364,265.726929 74.037346,264.623230 
	C74.065659,263.506104 74.082664,262.761444 74.334747,261.742004 
	C73.466408,252.759827 69.836395,245.483063 62.180889,240.788147 
	C56.106472,237.062881 49.746029,235.047165 42.567654,238.179749 
	C35.213200,241.389160 30.534693,247.266113 26.252033,253.592056 
	C23.074133,258.286163 23.024523,265.842316 25.924179,269.399750 
	C25.925154,270.150482 25.921329,270.579834 25.731617,271.195496 
	C25.976248,271.963379 26.406771,272.544891 26.853157,273.513428 
	C26.882494,274.932983 26.895962,275.965546 26.666964,277.295593 
	C26.949303,281.728699 27.474106,285.864349 28.008127,290.390442 
	C29.939976,295.455170 31.755732,300.177246 33.815624,304.790253 
	C35.831913,309.305664 38.979778,312.728546 44.376415,314.000671 
	C45.498371,314.012543 46.246368,314.018372 47.225376,314.257019 
	C48.640770,314.339600 49.825153,314.189362 51.407600,314.037415 
	C52.867184,314.037842 53.928696,314.040009 55.265076,314.285828 
	C60.048470,314.760864 64.399391,314.593140 67.011215,309.759796 
	C67.018761,309.517151 67.022690,309.031647 67.331230,308.967224 
	C68.096062,308.269989 68.552353,307.637146 69.013779,306.760010 
	C69.018921,306.515717 69.019226,306.027008 69.343445,305.951782 
	C70.775299,304.915710 71.882927,303.954895 73.273842,303.121582 
	C74.331619,303.499817 75.106117,303.750519 75.920540,304.285065 
	C75.988258,304.757965 76.016060,304.947052 76.043869,305.136108 
	C74.204948,309.610046 72.366028,314.083984 70.003349,318.777130 
	C69.311890,318.996338 69.144180,318.996338 68.916679,318.670166 
	C68.049385,318.120880 67.032814,317.464661 66.465355,317.738647 
	C55.820522,322.878235 45.393322,321.324982 34.790169,316.675629 
	C32.673340,312.650787 30.789753,308.865967 28.877754,304.763672 
	C27.775753,304.277283 26.702164,304.108398 25.628574,303.939514 
	C24.031708,296.110535 22.000507,288.338745 20.960760,280.436462 
	C19.931711,272.615448 19.155397,264.606232 19.747044,256.791504 
	C20.048836,252.805267 23.148010,248.719849 25.789932,245.303452 
	C28.829290,241.373077 32.558929,237.896988 36.352016,234.647644 
	C42.043888,229.771744 48.929523,230.436005 55.653423,231.584305 
	C57.672611,231.929138 59.505028,233.367615 61.792999,234.857056 
	C65.153023,237.579208 68.143044,239.749374 71.133072,241.919540 
	C71.133064,241.919540 71.051117,241.946518 71.047508,242.274261 
	C71.754227,243.382751 72.464554,244.163513 73.174881,244.944275 
z"/>
<path fill="#DBDBDB" opacity="1.000000" stroke="none" 
	d="
M19.920181,195.030945 
	C19.249640,186.802689 18.357344,178.560425 22.021429,170.334991 
	C23.511732,170.525330 24.444759,170.951294 25.377787,171.377258 
	C25.653419,170.898834 25.929052,170.420425 26.204683,169.942017 
	C25.044100,169.267929 23.883516,168.593842 22.722939,167.919769 
	C23.492622,161.830383 24.223118,155.735443 25.086004,149.659317 
	C25.184002,148.969238 26.025991,148.384842 26.686668,147.639862 
	C26.850336,147.528275 27.060783,147.812027 27.047714,148.036224 
	C27.057024,148.566574 27.105946,148.868439 27.177788,149.594803 
	C26.837488,153.517136 26.500811,157.010681 26.036345,161.830185 
	C28.777258,160.206039 30.819595,158.995850 33.157265,157.847137 
	C33.650925,157.941940 33.849258,157.975266 34.037376,158.422867 
	C34.011189,160.218781 33.995213,161.600403 33.635117,163.071075 
	C31.861103,167.440445 30.431211,171.720749 28.998322,176.331238 
	C28.990368,177.101410 28.985411,177.541412 28.617817,178.090027 
	C27.838781,179.035767 27.006395,179.906738 27.071321,180.704712 
	C27.627195,187.536545 28.015989,194.409195 29.122711,201.160141 
	C29.963522,206.289017 33.870815,208.654343 39.149673,209.070557 
	C45.559216,209.575912 50.791164,206.467743 55.843746,203.557785 
	C60.740242,200.737717 66.339432,197.499420 69.030937,192.917923 
	C72.156021,187.598404 72.904472,180.677292 73.756432,174.326843 
	C74.106819,171.715073 72.035492,168.778427 71.095261,165.653931 
	C72.038399,164.178665 72.951988,163.039017 74.039963,162.170746 
	C75.000702,162.695374 75.787056,162.948639 76.573402,163.201920 
	C76.416718,162.488190 76.260033,161.774475 76.077438,160.718826 
	C76.080574,159.921234 76.109612,159.465546 76.500153,159.012741 
	C77.344223,159.037811 77.826805,159.060028 78.309380,159.082245 
	C79.041306,164.760483 79.773232,170.438705 80.082474,176.552917 
	C78.915031,177.285629 78.170280,177.582352 76.161064,178.382874 
	C78.453819,178.748718 79.358978,178.893143 80.264130,179.037582 
	C79.197861,184.381805 78.131592,189.726013 76.621918,195.115143 
	C76.178513,195.160034 75.975227,194.977875 75.965683,194.644714 
	C75.256264,193.840347 74.556404,193.369125 73.856537,192.897903 
	C73.221527,194.280075 70.631935,195.723221 74.285919,197.130066 
	C74.800377,197.351822 75.012794,197.424545 75.225220,197.497284 
	C73.410011,199.343369 71.594803,201.189468 69.264481,202.802963 
	C67.947327,202.234879 67.161774,201.823761 66.326302,201.641663 
	C66.193817,201.612808 65.836426,202.615921 65.583008,203.141907 
	C66.440224,203.444962 67.297440,203.748001 68.154663,204.051025 
	C63.279922,209.753067 57.015453,213.136353 49.417519,215.042267 
	C48.982643,215.064178 48.938080,214.968109 49.025146,214.644623 
	C49.902637,213.478485 50.693054,212.635864 51.483475,211.793243 
	C46.950069,212.098602 42.133423,210.611710 38.667316,215.002808 
	C37.888958,215.003967 37.444176,215.001678 36.946594,214.653595 
	C33.104897,209.695190 30.923811,209.387070 28.938828,213.184006 
	C27.664280,212.169250 26.389727,211.154495 24.942850,209.604126 
	C24.418730,208.717834 24.066935,208.367172 23.715141,208.016510 
	C23.494658,207.586304 23.274170,207.156113 23.129948,206.226913 
	C22.995426,205.528000 22.784637,205.328064 22.573849,205.128143 
	C21.868486,202.666534 21.163124,200.204926 20.885015,197.284836 
	C22.269787,195.692123 23.227303,194.557892 24.184820,193.423660 
	C23.840696,193.174225 23.496572,192.924774 23.152447,192.675323 
	C22.075026,193.460526 20.997602,194.245728 19.920181,195.030945 
M61.439671,207.277115 
	C61.804016,206.838943 62.168362,206.400757 62.532703,205.962570 
	C62.348972,205.695526 62.165241,205.428482 61.981510,205.161423 
	C60.431770,205.956284 58.882034,206.751129 57.332298,207.545975 
	C57.520756,207.981384 57.709209,208.416809 57.897663,208.852219 
	C58.907307,208.450638 59.916950,208.049042 61.439671,207.277115 
M22.287512,177.867615 
	C22.812965,177.532242 23.338417,177.196869 23.863873,176.861496 
	C23.502878,176.470200 23.141886,176.078918 22.780886,175.687637 
	C22.562304,176.218628 22.343719,176.749634 22.287512,177.867615 
M75.117447,187.679611 
	C75.340897,188.211411 75.564346,188.743195 75.787796,189.274994 
	C76.148018,188.880951 76.508240,188.486923 76.868462,188.092896 
	C76.338646,187.758713 75.808830,187.424530 75.117447,187.679611 
M53.598072,209.718109 
	C53.997429,210.048950 54.382801,210.401749 54.816891,210.678009 
	C54.862370,210.706940 55.195675,210.283615 55.395447,210.070114 
	C54.924591,209.825485 54.453735,209.580872 53.598072,209.718109 
M24.348654,201.950546 
	C24.580400,202.431198 24.812147,202.911865 25.043888,203.392517 
	C25.263948,203.200134 25.697927,202.880508 25.670921,202.835098 
	C25.405998,202.389725 25.064304,201.990005 24.348654,201.950546 
z"/>
<path fill="#D6BD90" opacity="1.000000" stroke="none" 
	d="
M32.861935,157.785645 
	C30.819595,158.995850 28.777258,160.206039 26.036345,161.830185 
	C26.500811,157.010681 26.837488,153.517136 27.344425,149.425720 
	C27.363382,148.489227 27.212082,148.150635 27.060783,147.812027 
	C27.060783,147.812027 26.850336,147.528275 26.946749,147.379852 
	C28.207060,140.457809 29.366722,133.683472 30.544168,126.912209 
	C30.624718,126.448982 30.916159,126.019447 30.978964,125.556534 
	C32.663158,113.143005 34.336136,100.727936 35.986717,88.309898 
	C36.094955,87.495575 36.009743,86.655533 36.441269,85.303207 
	C37.839703,81.575592 38.926422,78.401863 39.760639,75.163094 
	C41.921684,66.773071 43.971500,58.354401 46.299103,49.719170 
	C48.348175,45.977779 50.163853,42.464390 51.979530,38.951000 
	C52.759014,37.701412 53.538494,36.451824 54.941078,35.054138 
	C56.367489,34.584648 57.170795,34.263252 58.014622,34.266819 
	C58.371128,35.397961 58.687119,36.204140 58.859612,37.321320 
	C56.486828,41.432369 54.257538,45.232414 52.021690,49.272018 
	C52.015133,49.511578 51.986996,49.990040 51.632526,50.046593 
	C50.120350,51.801941 48.327553,53.357750 47.907688,55.222664 
	C45.119106,67.608673 42.199638,79.990707 40.132641,92.507782 
	C36.929966,111.902191 34.301479,131.393494 31.644140,150.873001 
	C31.342962,153.080765 32.422588,155.476868 32.861935,157.785645 
z"/>
<path fill="#CDB181" opacity="1.000000" stroke="none" 
	d="
M66.099678,325.164337 
	C63.093681,332.865143 60.087685,340.565979 56.609352,348.763794 
	C55.769505,350.125824 55.069092,350.999023 55.090038,351.854523 
	C55.202457,356.445435 53.214268,359.784851 48.869595,360.975372 
	C44.682495,362.122742 42.208973,359.048615 39.981819,355.714905 
	C39.994644,354.904449 40.000248,354.441345 40.256081,353.983521 
	C40.673191,353.990875 40.840076,353.992981 41.180008,354.309509 
	C43.166451,355.352722 45.053036,356.735809 46.763515,356.544464 
	C47.668961,356.443207 48.268135,353.604004 49.332283,351.924377 
	C49.772976,350.565948 49.886955,349.283936 50.003006,347.603149 
	C50.671391,344.135925 51.337708,341.067535 52.315571,337.807556 
	C54.185692,335.895020 54.988121,333.984863 52.054817,333.164520 
	C48.451366,332.156677 44.694477,331.697510 40.749908,330.792511 
	C39.329639,328.722137 38.163372,326.860443 36.945446,324.632843 
	C36.599606,322.826416 36.305428,321.385925 36.306274,320.114197 
	C45.693790,330.029602 55.656670,326.882050 65.748543,321.427216 
	C65.916405,323.213745 66.008041,324.189056 66.099678,325.164337 
z"/>
<path fill="#D1B584" opacity="1.000000" stroke="none" 
	d="
M36.011250,319.945435 
	C36.305428,321.385925 36.599606,322.826416 36.540268,324.661011 
	C35.501793,325.630859 34.182072,326.267609 34.230633,326.772858 
	C34.687698,331.528442 35.378384,336.261597 36.003983,341.392242 
	C37.339504,345.848236 38.672680,349.913239 40.005856,353.978210 
	C40.000248,354.441345 39.994644,354.904449 39.686150,355.560242 
	C38.549698,355.477356 37.716133,355.201843 36.882576,354.926331 
	C32.134121,345.642181 28.977514,335.880646 27.952127,325.462494 
	C27.860992,324.536530 27.361471,323.650818 27.428778,322.253174 
	C27.703106,319.483185 27.555361,317.207397 27.508059,314.929504 
	C27.438425,311.576263 25.269552,307.911011 28.906170,305.081177 
	C30.789753,308.865967 32.673340,312.650787 34.814499,316.999420 
	C35.385128,318.357330 35.698189,319.151367 36.011250,319.945435 
z"/>
<path fill="#D8BD8A" opacity="1.000000" stroke="none" 
	d="
M76.138657,159.009872 
	C76.109612,159.465546 76.080574,159.921234 75.707703,160.708344 
	C74.872803,161.069748 74.381729,161.099701 73.730820,160.854309 
	C72.880394,160.135040 72.189804,159.691101 71.503242,159.016983 
	C71.390587,158.497086 71.204498,158.262405 71.112457,157.721527 
	C71.352722,155.585571 71.719040,153.767609 71.461304,152.042892 
	C69.047035,135.887177 66.453964,119.757935 64.097885,103.594017 
	C63.640148,100.453712 63.985371,97.196365 64.217766,93.993774 
	C64.647011,93.993378 64.818703,93.992218 65.156494,94.209167 
	C65.824852,94.618126 66.327110,94.808960 66.829376,94.999802 
	C66.829376,94.999802 66.981285,95.437424 66.896530,95.942810 
	C67.148338,97.298470 67.484917,98.148743 67.821487,98.999008 
	C67.868790,100.398033 67.916092,101.797058 67.672356,103.925491 
	C67.587555,107.745956 67.611015,110.862244 68.033684,113.923416 
	C69.400688,123.823959 70.848221,133.715027 72.455124,143.578720 
	C72.656319,144.813736 73.997643,145.862991 74.810699,146.998322 
	C74.859566,147.446884 74.908424,147.895462 74.792648,148.802979 
	C74.561142,149.629257 74.731644,149.845367 75.139519,149.910278 
	C75.139519,149.910278 75.087570,149.999557 75.058472,150.342499 
	C75.015152,151.477325 75.000938,152.269226 74.993744,153.382706 
	C75.314522,154.460556 75.628281,155.216797 75.945084,156.353882 
	C76.011635,157.493088 76.075150,158.251480 76.138657,159.009872 
z"/>
<path fill="#B8B5B0" opacity="1.000000" stroke="none" 
	d="
M36.306274,320.114197 
	C35.698189,319.151367 35.385128,318.357330 35.047737,317.239471 
	C45.393322,321.324982 55.820522,322.878235 66.465355,317.738647 
	C67.032814,317.464661 68.049385,318.120880 68.990555,318.867615 
	C69.293060,319.622314 69.503815,319.805145 69.756508,319.939667 
	C68.740280,321.594177 67.724052,323.248718 66.403748,325.033783 
	C66.008041,324.189056 65.916405,323.213745 65.748543,321.427216 
	C55.656670,326.882050 45.693790,330.029602 36.306274,320.114197 
z"/>
<path fill="#D6BE91" opacity="1.000000" stroke="none" 
	d="
M74.890266,146.576096 
	C73.997643,145.862991 72.656319,144.813736 72.455124,143.578720 
	C70.848221,133.715027 69.400688,123.823959 68.033684,113.923416 
	C67.611015,110.862244 67.587555,107.745956 67.608261,104.341904 
	C68.536095,105.961189 69.585564,107.841805 69.880783,109.834190 
	C71.672630,121.926605 73.292519,134.044495 74.890266,146.576096 
z"/>
<path fill="#DFD0B9" opacity="1.000000" stroke="none" 
	d="
M46.065716,49.947166 
	C43.971500,58.354401 41.921684,66.773071 39.760639,75.163094 
	C38.926422,78.401863 37.839703,81.575592 36.521069,84.875580 
	C38.771706,73.576653 41.369301,62.181095 44.393219,50.416111 
	C45.234936,50.013512 45.650326,49.980339 46.065716,49.947166 
z"/>
<path fill="#D7C8B1" opacity="1.000000" stroke="none" 
	d="
M36.599773,355.083252 
	C37.716133,355.201843 38.549698,355.477356 39.678932,355.907562 
	C42.208973,359.048615 44.682495,362.122742 48.869595,360.975372 
	C53.214268,359.784851 55.202457,356.445435 55.090038,351.854523 
	C55.069092,350.999023 55.769505,350.125824 56.485828,349.149353 
	C56.573746,351.752258 56.860958,354.685883 55.889008,357.115814 
	C55.016636,359.296722 52.953419,362.225464 51.070820,362.505310 
	C47.853439,362.983612 44.115700,362.216309 41.080986,360.875610 
	C39.057953,359.981812 37.875580,357.185211 36.599773,355.083252 
z"/>
<path fill="#DAC8AD" opacity="1.000000" stroke="none" 
	d="
M68.853241,30.992489 
	C68.239441,41.705856 67.625641,52.419228 66.716843,63.564400 
	C66.421844,63.996208 65.993484,63.993347 65.974319,63.556053 
	C65.642021,60.373615 65.328888,57.628464 65.017052,54.488571 
	C65.022018,52.778088 65.025688,51.462353 65.299973,49.857574 
	C66.037682,43.380798 66.504761,37.193062 67.285400,31.002642 
	C68.017044,30.997467 68.435143,30.994978 68.853241,30.992489 
z"/>
<path fill="#BBB4AE" opacity="1.000000" stroke="none" 
	d="
M28.877760,304.763672 
	C25.269552,307.911011 27.438425,311.576263 27.508059,314.929504 
	C27.555361,317.207397 27.703106,319.483185 27.473392,321.837585 
	C26.539991,316.178467 25.939133,310.441681 25.483423,304.322174 
	C26.702164,304.108398 27.775753,304.277283 28.877760,304.763672 
z"/>
<path fill="#D3C7B8" opacity="1.000000" stroke="none" 
	d="
M68.899017,30.631245 
	C68.435143,30.994978 68.017044,30.997467 66.950607,30.845497 
	C62.354675,28.773315 60.001698,30.940788 57.974102,33.941853 
	C57.170795,34.263252 56.367489,34.584648 55.238697,34.920456 
	C56.417049,32.883774 57.653385,30.544012 59.485023,28.846649 
	C62.521992,26.032318 66.020264,26.728132 68.899017,30.631245 
z"/>
<path fill="#E6E6E6" opacity="1.000000" stroke="none" 
	d="
M79.950836,264.569336 
	C79.439568,264.793427 78.680260,264.685699 78.602219,264.395081 
	C77.016861,258.491028 75.509544,252.566055 74.025574,246.224335 
	C78.806488,251.024948 78.404137,257.916168 79.950836,264.569336 
z"/>
<path fill="#E6E6E6" opacity="1.000000" stroke="none" 
	d="
M77.017586,292.048523 
	C77.740021,289.759186 78.462456,287.469879 79.528564,285.097534 
	C78.843536,291.603607 77.814835,298.192688 76.415001,304.958923 
	C76.016060,304.947052 75.988258,304.757965 75.951965,303.910645 
	C75.935287,302.501160 75.927109,301.750000 75.941025,300.599945 
	C76.314590,298.117371 76.666046,296.033661 77.017044,293.632690 
	C77.016914,292.893127 77.017250,292.470825 77.017586,292.048523 
z"/>
<path fill="#D3D2D1" opacity="1.000000" stroke="none" 
	d="
M29.047749,213.469330 
	C30.923811,209.387070 33.104897,209.695190 36.635212,214.698059 
	C35.890141,215.449860 35.403656,215.811417 34.917175,216.172974 
	C34.486481,216.126404 34.055782,216.079819 33.157661,215.769470 
	C32.390652,215.362228 32.091064,215.218781 31.791473,215.075317 
	C30.913206,214.635086 30.034939,214.194855 29.047749,213.469330 
z"/>
<path fill="#B3AB9C" opacity="1.000000" stroke="none" 
	d="
M46.299103,49.719170 
	C45.650326,49.980339 45.234936,50.013512 44.507584,50.052193 
	C46.565845,46.423004 48.936062,42.788300 51.642906,39.052299 
	C50.163853,42.464390 48.348175,45.977779 46.299103,49.719170 
z"/>
<path fill="#E8DFD1" opacity="1.000000" stroke="none" 
	d="
M65.993484,63.993347 
	C65.993484,63.993347 66.421844,63.996208 66.635925,64.003036 
	C66.899727,71.625961 66.909058,79.242714 67.031944,86.857643 
	C67.057739,88.456253 67.501183,90.048126 67.142838,91.830299 
	C66.342918,92.017433 66.152336,92.017365 65.961868,91.546654 
	C65.972481,82.048462 65.982986,73.020905 65.993484,63.993347 
z"/>
<path fill="#E6E6E6" opacity="1.000000" stroke="none" 
	d="
M35.145184,216.538635 
	C35.403656,215.811417 35.890141,215.449860 36.688007,215.043854 
	C37.444176,215.001678 37.888958,215.003967 39.119598,215.003510 
	C42.916325,214.989899 45.927204,214.979004 48.938080,214.968109 
	C48.938080,214.968109 48.982643,215.064178 49.035519,215.067047 
	C44.516663,215.681381 39.944931,216.292831 35.145184,216.538635 
z"/>
<path fill="#E6E6E6" opacity="1.000000" stroke="none" 
	d="
M70.988411,241.605133 
	C68.143044,239.749374 65.153023,237.579208 62.034225,235.072372 
	C64.884888,236.920700 67.864319,239.105698 70.988411,241.605133 
z"/>
<path fill="#D3D2D1" opacity="1.000000" stroke="none" 
	d="
M76.500153,159.012741 
	C76.075150,158.251480 76.011635,157.493088 76.223198,156.173553 
	C75.994423,154.761963 75.490570,153.911545 74.986725,153.061111 
	C75.000938,152.269226 75.015152,151.477325 75.056915,150.290894 
	C76.259430,152.751556 77.434387,155.606796 78.459366,158.772125 
	C77.826805,159.060028 77.344223,159.037811 76.500153,159.012741 
z"/>
<path fill="#E6E6E6" opacity="1.000000" stroke="none" 
	d="
M80.482574,276.863464 
	C79.950859,274.866119 79.761261,272.666595 79.854034,270.197815 
	C80.365829,272.172821 80.595261,274.417023 80.482574,276.863464 
z"/>
<path fill="#D3D2D1" opacity="1.000000" stroke="none" 
	d="
M22.566345,168.153046 
	C23.883516,168.593842 25.044100,169.267929 26.204683,169.942017 
	C25.929052,170.420425 25.653419,170.898834 25.377787,171.377258 
	C24.444759,170.951294 23.511732,170.525330 22.256649,170.037109 
	C22.092983,169.445358 22.251369,168.915833 22.566345,168.153046 
z"/>
<path fill="#D3D2D1" opacity="1.000000" stroke="none" 
	d="
M19.973743,195.390289 
	C20.997602,194.245728 22.075026,193.460526 23.152447,192.675323 
	C23.496572,192.924774 23.840696,193.174225 24.184820,193.423660 
	C23.227303,194.557892 22.269787,195.692123 21.009022,196.929840 
	C20.479618,196.605438 20.253462,196.177536 19.973743,195.390289 
z"/>
<path fill="#D3D2D1" opacity="1.000000" stroke="none" 
	d="
M68.384888,203.998047 
	C67.297440,203.748001 66.440224,203.444962 65.583008,203.141907 
	C65.836426,202.615921 66.193817,201.612808 66.326302,201.641663 
	C67.161774,201.823761 67.947327,202.234879 68.905205,202.860977 
	C69.060059,203.499054 68.911415,203.763535 68.384888,203.998047 
z"/>
<path fill="#D3D2D1" opacity="1.000000" stroke="none" 
	d="
M80.397209,178.699036 
	C79.358978,178.893143 78.453819,178.748718 76.161064,178.382874 
	C78.170280,177.582352 78.915031,177.285629 79.956848,176.973816 
	C80.346031,177.425995 80.438156,177.893250 80.397209,178.699036 
z"/>
<path fill="#D6BE91" opacity="1.000000" stroke="none" 
	d="
M65.961754,92.017288 
	C66.152336,92.017365 66.342918,92.017433 66.818298,92.041084 
	C67.061859,92.801773 67.020615,93.538872 66.904373,94.637886 
	C66.327110,94.808960 65.824852,94.618126 65.188980,93.922501 
	C65.357506,92.950905 65.659630,92.484093 65.961754,92.017288 
z"/>
<path fill="#D6BE91" opacity="1.000000" stroke="none" 
	d="
M67.896881,98.649292 
	C67.484917,98.148743 67.148338,97.298470 66.929337,96.172104 
	C67.355370,96.697189 67.663818,97.498390 67.896881,98.649292 
z"/>
<path fill="#E6E6E6" opacity="1.000000" stroke="none" 
	d="
M73.101768,244.618103 
	C72.464554,244.163513 71.754227,243.382751 71.062332,242.233749 
	C71.730057,242.674301 72.379356,243.483124 73.101768,244.618103 
z"/>
<path fill="#DBDBDB" opacity="1.000000" stroke="none" 
	d="
M76.280640,195.250549 
	C76.147697,195.980438 75.912628,196.619781 75.451385,197.378204 
	C75.012794,197.424545 74.800377,197.351822 74.346939,196.823120 
	C74.729034,195.904083 75.352135,195.440979 75.975227,194.977875 
	C75.975227,194.977875 76.178513,195.160034 76.280640,195.250549 
z"/>
<path fill="#E6E6E6" opacity="1.000000" stroke="none" 
	d="
M23.646889,208.286957 
	C24.066935,208.367172 24.418730,208.717834 24.818558,209.326202 
	C24.437273,209.241745 24.007956,208.899582 23.646889,208.286957 
z"/>
<path fill="#DBDBDB" opacity="1.000000" stroke="none" 
	d="
M31.898129,215.337952 
	C32.091064,215.218781 32.390652,215.362228 32.837563,215.708740 
	C32.658184,215.808060 32.331486,215.704330 31.898129,215.337952 
z"/>
<path fill="#D3D2D2" opacity="1.000000" stroke="none" 
	d="
M69.876854,319.718994 
	C69.503815,319.805145 69.293060,319.622314 69.050354,319.193756 
	C69.144180,318.996338 69.311890,318.996338 69.731155,318.996063 
	C69.987534,319.163300 69.992371,319.330780 69.876854,319.718994 
z"/>
<path fill="#E6E6E6" opacity="1.000000" stroke="none" 
	d="
M22.587013,205.389923 
	C22.784637,205.328064 22.995426,205.528000 23.098106,205.865051 
	C22.860062,205.885345 22.730120,205.768524 22.587013,205.389923 
z"/>
<path fill="#D6BE91" opacity="1.000000" stroke="none" 
	d="
M75.082138,149.681335 
	C74.731644,149.845367 74.561142,149.629257 74.737190,149.138611 
	C74.846375,149.015305 75.024765,149.452377 75.082138,149.681335 
z"/>
<path fill="#F9F9F9" opacity="1.000000" stroke="none" 
	d="
M26.909428,276.998138 
	C26.895962,275.965546 26.882494,274.932983 26.904140,273.160095 
	C26.955910,271.947357 26.972565,271.474884 27.330891,270.999908 
	C28.128090,270.990814 28.583616,270.984222 29.277721,270.986267 
	C29.516302,270.994904 29.993959,271.022400 30.151680,271.364868 
	C30.865650,273.614349 31.290815,275.571899 32.002743,277.418915 
	C34.129753,282.937256 35.722492,288.802826 38.739494,293.798645 
	C42.006863,299.209015 47.603909,300.684387 54.035343,299.557007 
	C63.234932,297.944366 72.305641,285.846436 67.098480,272.714539 
	C67.516739,271.283600 67.782486,270.120422 68.037933,268.631287 
	C68.021683,267.870026 68.015732,267.434753 68.239670,266.778931 
	C67.643333,265.041138 66.817123,263.523865 65.804199,261.784149 
	C65.077003,261.378723 64.536514,261.195709 63.927753,260.678589 
	C61.573090,258.562988 59.286701,256.781494 57.376686,255.010681 
	C62.169830,256.680511 66.586594,258.339630 71.259689,259.998749 
	C71.686913,259.998474 71.857796,259.998230 72.028564,260.326813 
	C72.027092,261.094055 72.025749,261.532501 72.026871,262.321533 
	C72.694908,263.446655 73.360474,264.221191 74.026039,264.995697 
	C74.046364,265.726929 74.066689,266.458191 74.041168,267.975525 
	C73.665779,272.173523 73.336250,275.585449 72.779610,279.186340 
	C72.377541,279.927826 72.202568,280.480316 72.025894,281.403656 
	C72.020058,282.516327 72.015923,283.258118 71.756729,284.268433 
	C69.670738,290.360931 67.839790,296.184937 66.004425,302.004456 
	C66.000000,302.000000 66.008919,302.006134 65.712936,302.170898 
	C62.275223,305.217407 59.133503,308.099152 55.564434,310.984650 
	C53.427082,310.986664 51.717079,310.984924 49.922775,310.644226 
	C46.340366,307.820068 42.859467,305.310089 39.333519,302.865051 
	C38.295429,302.145172 37.129845,301.609192 35.833382,300.766876 
	C35.105316,300.349274 34.566559,300.153717 34.024117,299.632751 
	C34.007980,298.873474 33.995533,298.439697 33.936615,297.634521 
	C31.563242,290.508118 29.236334,283.753143 26.909428,276.998138 
z"/>
<path fill="#E7E7E7" opacity="1.000000" stroke="none" 
	d="
M72.024399,261.970917 
	C72.025749,261.532501 72.027092,261.094055 72.249565,260.109863 
	C71.989204,258.700562 71.507713,257.837097 70.975510,256.635651 
	C70.282364,254.865677 69.639931,253.433655 68.940948,251.691574 
	C68.258659,250.917953 67.632919,250.454391 66.953720,249.649521 
	C63.936386,246.869858 60.972515,244.431534 57.947281,241.683990 
	C57.252121,240.926559 56.618317,240.478348 55.653671,240.024750 
	C54.881680,240.014526 54.440525,240.009720 53.841988,239.805313 
	C53.122387,239.732178 52.560169,239.858658 51.554680,239.985321 
	C44.963703,238.928391 40.388111,241.777115 36.499802,246.053329 
	C34.201859,248.580521 32.151386,251.332748 29.680878,254.045990 
	C28.915359,254.739120 28.458593,255.370056 27.996460,256.246216 
	C27.991093,256.491455 27.988333,256.982025 27.679558,257.044617 
	C26.922306,257.740967 26.473829,258.374756 26.020277,259.457611 
	C26.028500,262.597595 26.041796,265.288544 26.028042,268.255035 
	C25.973789,268.713196 25.946587,268.895752 25.919384,269.078339 
	C23.024523,265.842316 23.074133,258.286163 26.252033,253.592056 
	C30.534693,247.266113 35.213200,241.389160 42.567654,238.179749 
	C49.746029,235.047165 56.106472,237.062881 62.180889,240.788147 
	C69.836395,245.483063 73.466408,252.759827 73.987450,261.734131 
	C72.944847,261.991058 72.484619,261.980988 72.024399,261.970917 
z"/>
<path fill="#E7E7E7" opacity="1.000000" stroke="none" 
	d="
M50.007080,310.983215 
	C51.717079,310.984924 53.427082,310.986664 55.937325,310.981201 
	C61.384262,309.593597 65.454880,307.617676 66.008919,302.006134 
	C66.008919,302.006134 66.000000,302.000000 66.361786,301.944000 
	C68.145622,298.948761 69.557938,296.004791 70.993042,293.071960 
	C71.988091,291.038422 73.014557,289.020294 74.026993,286.995270 
	C74.345802,287.773926 74.664619,288.552612 74.643616,289.751770 
	C73.553757,292.134094 72.803711,294.095856 72.045639,296.424438 
	C72.038551,297.528046 72.039490,298.264862 71.771774,299.220032 
	C70.675156,301.634613 69.847191,303.830811 69.019226,306.027008 
	C69.019226,306.027008 69.018921,306.515717 68.700920,306.816895 
	C67.929512,307.755951 67.476105,308.393799 67.022690,309.031647 
	C67.022690,309.031647 67.018761,309.517151 66.624557,309.770081 
	C62.483639,311.362732 58.736923,312.702423 54.990211,314.042145 
	C53.928696,314.040009 52.867184,314.037842 51.181137,313.793182 
	C49.369194,313.708527 48.181778,313.866364 46.994362,314.024170 
	C46.246368,314.018372 45.498371,314.012543 44.324844,313.658508 
	C41.931179,310.542480 39.963043,307.774689 38.293251,305.164307 
	C42.396755,307.208893 46.201916,309.096039 50.007080,310.983215 
z"/>
<path fill="#E1E1E1" opacity="1.000000" stroke="none" 
	d="
M37.994911,305.006897 
	C39.963043,307.774689 41.931179,310.542480 43.950882,313.652466 
	C38.979778,312.728546 35.831913,309.305664 33.815624,304.790253 
	C31.755732,300.177246 29.939976,295.455170 28.350140,290.476959 
	C30.449650,292.783997 32.216366,295.394958 33.983086,298.005890 
	C33.995533,298.439697 34.007980,298.873474 34.070595,299.947815 
	C34.742855,301.061096 35.364944,301.533783 36.126930,302.274170 
	C36.842850,303.363556 37.418884,304.185211 37.994911,305.006897 
z"/>
<path fill="#E7E7E7" opacity="1.000000" stroke="none" 
	d="
M33.936615,297.634521 
	C32.216366,295.394958 30.449650,292.783997 28.340923,290.086548 
	C27.474106,285.864349 26.949303,281.728699 26.666962,277.295593 
	C29.236334,283.753143 31.563242,290.508118 33.936615,297.634521 
z"/>
<path fill="#F5F5F5" opacity="1.000000" stroke="none" 
	d="
M25.924179,269.399750 
	C25.946587,268.895752 25.973789,268.713196 26.389416,268.244873 
	C27.829531,266.886139 29.285219,265.991547 29.853342,264.705048 
	C31.271511,261.493591 33.356426,259.689606 36.979828,260.322845 
	C36.985409,261.102875 36.985218,261.548492 36.620762,262.048737 
	C32.377190,262.871246 31.632288,265.582397 31.650192,268.994476 
	C30.550919,269.665619 29.795029,270.321625 29.039143,270.977631 
	C28.583616,270.984222 28.128090,270.990814 27.063019,271.000092 
	C26.274817,271.004913 26.096163,271.007050 25.917507,271.009155 
	C25.921329,270.579834 25.925154,270.150482 25.924179,269.399750 
z"/>
<path fill="#F3F3F3" opacity="1.000000" stroke="none" 
	d="
M74.030518,286.663208 
	C73.014557,289.020294 71.988091,291.038422 70.993042,293.071960 
	C69.557938,296.004791 68.145622,298.948761 66.366211,301.948486 
	C67.839790,296.184937 69.670738,290.360931 72.015121,284.387207 
	C73.038376,284.492615 73.548203,284.747681 74.058029,285.002777 
	C74.050034,285.445557 74.042038,285.888367 74.030518,286.663208 
z"/>
<path fill="#E7E7E7" opacity="1.000000" stroke="none" 
	d="
M73.006714,278.997345 
	C73.336250,275.585449 73.665779,272.173523 74.045944,268.341278 
	C77.881004,270.948578 75.588440,274.824280 74.956192,278.694336 
	C73.905991,279.001953 73.456352,278.999634 73.006714,278.997345 
z"/>
<path fill="#E1E1E1" opacity="1.000000" stroke="none" 
	d="
M55.265076,314.285828 
	C58.736923,312.702423 62.483639,311.362732 66.617004,310.012726 
	C64.399391,314.593140 60.048470,314.760864 55.265076,314.285828 
z"/>
<path fill="#E1E1E1" opacity="1.000000" stroke="none" 
	d="
M72.053650,296.057648 
	C72.803711,294.095856 73.553757,292.134094 74.644669,290.083618 
	C75.454475,290.633331 75.923431,291.271698 76.704987,291.979309 
	C77.017250,292.470825 77.016914,292.893127 76.664001,293.656372 
	C74.892159,294.684113 73.472900,295.370880 72.053650,296.057648 
z"/>
<path fill="#E1E1E1" opacity="1.000000" stroke="none" 
	d="
M69.343445,305.951782 
	C69.847191,303.830811 70.675156,301.634613 72.004387,299.448547 
	C72.673386,300.304443 72.841118,301.150177 73.002769,302.245422 
	C72.996689,302.494934 72.990555,302.994049 72.990555,302.994049 
	C71.882927,303.954895 70.775299,304.915710 69.343445,305.951782 
z"/>
<path fill="#E7E7E7" opacity="1.000000" stroke="none" 
	d="
M74.298843,284.745483 
	C73.548203,284.747681 73.038376,284.492615 72.270172,284.118713 
	C72.015923,283.258118 72.020058,282.516327 72.396454,281.394745 
	C73.511375,281.009155 74.254021,281.003357 74.996674,280.997559 
	C74.844330,282.161102 74.691994,283.324646 74.298843,284.745483 
z"/>
<path fill="#E1E1E1" opacity="1.000000" stroke="none" 
	d="
M47.225376,314.257019 
	C48.181778,313.866364 49.369194,313.708527 50.783073,313.794922 
	C49.825153,314.189362 48.640770,314.339600 47.225376,314.257019 
z"/>
<path fill="#D3D2D2" opacity="1.000000" stroke="none" 
	d="
M73.273834,303.121582 
	C72.990555,302.994049 72.996689,302.494934 73.286743,302.117676 
	C74.357498,301.493195 75.138206,301.246002 75.918922,300.998810 
	C75.927109,301.750000 75.935287,302.501160 75.912048,303.626770 
	C75.106117,303.750519 74.331619,303.499817 73.273834,303.121582 
z"/>
<path fill="#F3F3F3" opacity="1.000000" stroke="none" 
	d="
M72.026871,262.321533 
	C72.484619,261.980988 72.944847,261.991058 73.752365,262.008942 
	C74.082664,262.761444 74.065659,263.506104 74.037346,264.623230 
	C73.360474,264.221191 72.694908,263.446655 72.026871,262.321533 
z"/>
<path fill="#F3F3F3" opacity="1.000000" stroke="none" 
	d="
M75.003967,280.665283 
	C74.254021,281.003357 73.511375,281.009155 72.398163,281.023865 
	C72.202568,280.480316 72.377541,279.927826 72.779610,279.186340 
	C73.456352,278.999634 73.905991,279.001953 74.693542,279.003967 
	C75.024719,279.446808 75.017990,279.889893 75.003967,280.665283 
z"/>
<path fill="#E7E7E7" opacity="1.000000" stroke="none" 
	d="
M25.731617,271.195496 
	C26.096163,271.007050 26.274817,271.004913 26.721344,271.002625 
	C26.972565,271.474884 26.955910,271.947357 26.888273,272.773132 
	C26.406771,272.544891 25.976248,271.963379 25.731617,271.195496 
z"/>
<path fill="#E1E1E1" opacity="1.000000" stroke="none" 
	d="
M67.331238,308.967224 
	C67.476105,308.393799 67.929512,307.755951 68.695778,307.061188 
	C68.552353,307.637146 68.096062,308.269989 67.331238,308.967224 
z"/>
<path fill="#E3CC9B" opacity="1.000000" stroke="none" 
	d="
M33.157265,157.847137 
	C32.422588,155.476868 31.342962,153.080765 31.644140,150.873001 
	C34.301479,131.393494 36.929966,111.902191 40.132641,92.507782 
	C42.199638,79.990707 45.119106,67.608673 47.907688,55.222664 
	C48.327553,53.357750 50.120350,51.801941 51.626907,50.433327 
	C48.998306,63.263744 45.402847,75.655540 43.186054,88.289246 
	C39.729084,107.990860 37.248100,127.862717 34.261570,147.648560 
	C33.483913,152.800568 34.245876,153.795578 39.885693,154.237183 
	C39.499229,154.965866 39.227127,155.443588 38.634056,155.951935 
	C37.885345,156.025513 37.457600,156.068466 36.846252,155.939240 
	C36.059448,156.472122 35.456245,157.177170 34.650452,157.905991 
	C34.447861,157.929764 34.047588,158.008575 34.047588,158.008575 
	C33.849258,157.975266 33.650925,157.941940 33.157265,157.847137 
z"/>
<path fill="#E6E6E5" opacity="1.000000" stroke="none" 
	d="
M71.065712,165.989548 
	C72.035492,168.778427 74.106819,171.715073 73.756432,174.326843 
	C72.904472,180.677292 72.156021,187.598404 69.030937,192.917923 
	C66.339432,197.499420 60.740242,200.737717 55.843746,203.557785 
	C50.791164,206.467743 45.559216,209.575912 39.149673,209.070557 
	C33.870815,208.654343 29.963522,206.289017 29.122711,201.160141 
	C28.015989,194.409195 27.627195,187.536545 27.071321,180.704712 
	C27.006395,179.906738 27.838781,179.035767 28.625755,178.546860 
	C29.657791,182.267471 30.319250,185.639862 30.967628,189.418640 
	C30.892225,192.951782 27.805864,196.407654 31.969852,199.455521 
	C33.174652,205.543900 37.509903,208.330643 43.398056,206.594116 
	C47.340145,205.431503 51.084232,203.556702 54.855942,201.864670 
	C67.283600,196.289383 74.251053,181.115173 70.008026,168.620834 
	C70.006683,167.502029 70.006226,166.756210 70.270767,166.006195 
	C70.712418,165.997864 70.889069,165.993713 71.065712,165.989548 
z"/>
<path fill="#EFEFEF" opacity="1.000000" stroke="none" 
	d="
M30.980711,189.012253 
	C30.319250,185.639862 29.657791,182.267471 28.988394,178.438248 
	C28.985411,177.541412 28.990368,177.101410 29.346741,176.252319 
	C31.125183,171.556152 32.552208,167.269089 33.979233,162.982025 
	C33.995213,161.600403 34.011189,160.218781 34.037376,158.422867 
	C34.047588,158.008575 34.447861,157.929764 34.972176,157.896515 
	C36.007610,157.279312 36.518734,156.695358 37.029858,156.111420 
	C37.457600,156.068466 37.885345,156.025513 38.821648,156.190430 
	C39.887005,156.599075 40.443802,156.799850 40.832905,157.306244 
	C39.775246,159.740417 38.885281,161.868973 37.638390,164.097534 
	C35.520542,171.464417 33.759621,178.731293 31.774181,186.185272 
	C31.373323,186.917801 31.196983,187.463226 31.013802,188.259659 
	C30.998211,188.677887 30.989460,188.845078 30.980711,189.012253 
z"/>
<path fill="#D3D2D1" opacity="1.000000" stroke="none" 
	d="
M49.025146,214.644623 
	C45.927204,214.979004 42.916325,214.989899 39.453171,215.000092 
	C42.133423,210.611710 46.950069,212.098602 51.483475,211.793243 
	C50.693054,212.635864 49.902637,213.478485 49.025146,214.644623 
z"/>
<path fill="#E6E6E5" opacity="1.000000" stroke="none" 
	d="
M33.635117,163.071075 
	C32.552208,167.269089 31.125183,171.556152 29.349737,175.922134 
	C30.431211,171.720749 31.861103,167.440445 33.635117,163.071075 
z"/>
<path fill="#EFEFEF" opacity="1.000000" stroke="none" 
	d="
M71.095261,165.653931 
	C70.889069,165.993713 70.712418,165.997864 70.231003,165.688690 
	C69.286415,164.583176 68.646599,163.790985 68.003105,162.665863 
	C67.996498,161.889038 67.993561,161.445114 68.256332,160.881851 
	C69.514435,160.257385 70.506821,159.752274 71.499214,159.247162 
	C72.189804,159.691101 72.880394,160.135040 73.728271,161.046326 
	C73.885559,161.513672 73.865578,161.899384 73.865578,161.899384 
	C72.951988,163.039017 72.038399,164.178665 71.095261,165.653931 
z"/>
<path fill="#D3D2D1" opacity="1.000000" stroke="none" 
	d="
M61.183132,207.462280 
	C59.916950,208.049042 58.907307,208.450638 57.897663,208.852219 
	C57.709209,208.416809 57.520756,207.981384 57.332298,207.545975 
	C58.882034,206.751129 60.431770,205.956284 61.981510,205.161423 
	C62.165241,205.428482 62.348972,205.695526 62.532703,205.962570 
	C62.168362,206.400757 61.804016,206.838943 61.183132,207.462280 
z"/>
<path fill="#D3D2D1" opacity="1.000000" stroke="none" 
	d="
M75.965683,194.644714 
	C75.352135,195.440979 74.729034,195.904083 74.044907,196.674103 
	C70.631935,195.723221 73.221527,194.280075 73.856537,192.897903 
	C74.556404,193.369125 75.256264,193.840347 75.965683,194.644714 
z"/>
<path fill="#D3D2D1" opacity="1.000000" stroke="none" 
	d="
M74.039963,162.170746 
	C73.865578,161.899384 73.885559,161.513672 73.888107,161.321655 
	C74.381729,161.099701 74.872803,161.069748 75.733612,161.050262 
	C76.260033,161.774475 76.416718,162.488190 76.573402,163.201920 
	C75.787056,162.948639 75.000702,162.695374 74.039963,162.170746 
z"/>
<path fill="#D3D2D1" opacity="1.000000" stroke="none" 
	d="
M22.206324,177.574127 
	C22.343719,176.749634 22.562304,176.218628 22.780888,175.687637 
	C23.141886,176.078918 23.502878,176.470200 23.863873,176.861496 
	C23.338417,177.196869 22.812965,177.532242 22.206324,177.574127 
z"/>
<path fill="#D3D2D1" opacity="1.000000" stroke="none" 
	d="
M75.198227,187.384979 
	C75.808830,187.424530 76.338646,187.758713 76.868462,188.092896 
	C76.508240,188.486923 76.148018,188.880951 75.787796,189.274994 
	C75.564346,188.743195 75.340897,188.211411 75.198227,187.384979 
z"/>
<path fill="#D3D2D1" opacity="1.000000" stroke="none" 
	d="
M53.790474,209.527176 
	C54.453735,209.580872 54.924591,209.825485 55.395443,210.070114 
	C55.195675,210.283615 54.862370,210.706940 54.816891,210.678009 
	C54.382801,210.401749 53.997429,210.048950 53.790474,209.527176 
z"/>
<path fill="#D3D2D1" opacity="1.000000" stroke="none" 
	d="
M24.546535,201.763931 
	C25.064304,201.990005 25.405998,202.389725 25.670921,202.835098 
	C25.697927,202.880508 25.263948,203.200134 25.043892,203.392517 
	C24.812147,202.911865 24.580400,202.431198 24.546535,201.763931 
z"/>
<path fill="#D3D2D1" opacity="1.000000" stroke="none" 
	d="
M27.047712,148.036224 
	C27.212082,148.150635 27.363382,148.489227 27.348045,148.996918 
	C27.105946,148.868439 27.057024,148.566574 27.047712,148.036224 
z"/>
<path fill="#F3E0B1" opacity="1.000000" stroke="none" 
	d="
M40.000053,153.986221 
	C34.245876,153.795578 33.483913,152.800568 34.261570,147.648560 
	C37.248100,127.862717 39.729084,107.990860 43.186054,88.289246 
	C45.402847,75.655540 48.998306,63.263744 51.981377,50.376774 
	C51.986996,49.990040 52.015133,49.511578 52.362427,49.215889 
	C55.092175,46.681232 57.474625,44.442268 60.993935,41.134914 
	C60.993935,44.716633 60.994209,46.660915 60.993885,48.605198 
	C60.991367,63.846485 60.141582,79.147797 61.216084,94.312759 
	C62.371178,110.615112 65.184464,126.811455 67.591484,143.006912 
	C68.357979,148.164185 68.580162,152.579529 62.663094,154.888000 
	C61.554543,154.541016 60.737125,154.328461 59.462265,154.099762 
	C55.032490,154.097092 51.060154,154.110580 46.645729,154.086365 
	C44.135780,154.027847 42.067917,154.007034 40.000053,153.986221 
z"/>
<path fill="#E3CC9B" opacity="1.000000" stroke="none" 
	d="
M62.954224,155.022461 
	C68.580162,152.579529 68.357979,148.164185 67.591484,143.006912 
	C65.184464,126.811455 62.371178,110.615112 61.216084,94.312759 
	C60.141582,79.147797 60.991367,63.846485 60.993885,48.605198 
	C60.994209,46.660915 60.993935,44.716633 60.993935,41.134914 
	C57.474625,44.442268 55.092175,46.681232 52.368988,48.976326 
	C54.257538,45.232414 56.486828,41.432369 59.191776,37.312748 
	C60.110435,36.983028 60.553436,36.972885 61.219131,37.209248 
	C62.293789,37.636711 63.145748,37.817665 63.997089,38.456055 
	C64.340759,42.657867 64.685059,46.402241 65.029358,50.146614 
	C65.025688,51.462353 65.022018,52.778088 64.685913,54.721832 
	C63.901577,57.015491 63.102859,58.672211 63.059715,60.348381 
	C62.899811,66.561218 62.988964,72.780464 62.788799,79.158249 
	C62.727211,79.879730 62.861385,80.440277 62.995113,81.441315 
	C63.316521,85.918877 63.638371,89.955940 63.960220,93.993004 
	C63.985371,97.196365 63.640148,100.453712 64.097885,103.594017 
	C66.453964,119.757935 69.047035,135.887177 71.461304,152.042892 
	C71.719040,153.767609 71.352722,155.585571 70.725693,157.703308 
	C69.141983,157.963486 68.108475,157.880630 66.865028,157.547516 
	C65.445015,156.860931 64.234947,156.424637 63.007874,155.746826 
	C62.990868,155.505310 62.954224,155.022461 62.954224,155.022461 
z"/>
<path fill="#D1B888" opacity="1.000000" stroke="none" 
	d="
M65.299973,49.857574 
	C64.685059,46.402241 64.340759,42.657867 64.001732,38.207970 
	C64.006996,37.502449 64.011887,37.006184 64.237991,36.783501 
	C64.257309,35.596466 64.050514,34.632114 63.843719,33.667770 
	C63.226460,34.108356 62.609200,34.548943 61.769943,35.173904 
	C61.364109,35.893101 61.180271,36.427921 60.996437,36.962738 
	C60.553436,36.972885 60.110435,36.983028 59.335274,37.001743 
	C58.687119,36.204140 58.371128,35.397961 58.014622,34.266819 
	C60.001698,30.940788 62.354675,28.773315 66.637054,30.848183 
	C66.504761,37.193062 66.037682,43.380798 65.299973,49.857574 
z"/>
<path fill="#D8B982" opacity="1.000000" stroke="none" 
	d="
M36.001637,341.001221 
	C35.378384,336.261597 34.687698,331.528442 34.230633,326.772858 
	C34.182072,326.267609 35.501793,325.630859 36.591927,325.026947 
	C38.163372,326.860443 39.329639,328.722137 40.919060,331.100464 
	C43.624615,332.746674 45.965775,333.774231 48.168030,335.042938 
	C49.554295,335.841553 50.732491,337.001343 52.004025,337.999115 
	C51.337708,341.067535 50.671391,344.135925 49.756268,347.856934 
	C49.340160,349.673309 49.172863,350.837067 49.005569,352.000854 
	C48.268135,353.604004 47.668961,356.443207 46.763515,356.544464 
	C45.053036,356.735809 43.166451,355.352722 41.599827,354.310181 
	C44.226345,354.001892 46.739342,354.150177 46.942841,350.782196 
	C47.254562,345.622864 47.763802,340.349457 42.488571,337.018219 
	C40.925514,336.031219 39.223938,335.263580 37.585846,334.395416 
	C37.360596,336.027985 37.193550,337.671875 36.880074,339.287323 
	C36.762608,339.892670 36.304459,340.431854 36.001637,341.001221 
z"/>
<path fill="#DEBE86" opacity="1.000000" stroke="none" 
	d="
M36.003983,341.392242 
	C36.304459,340.431854 36.762608,339.892670 36.880074,339.287323 
	C37.193550,337.671875 37.360596,336.027985 37.585846,334.395416 
	C39.223938,335.263580 40.925514,336.031219 42.488571,337.018219 
	C47.763802,340.349457 47.254562,345.622864 46.942841,350.782196 
	C46.739342,354.150177 44.226345,354.001892 41.426781,353.995789 
	C40.840076,353.992981 40.673191,353.990875 40.256081,353.983521 
	C38.672680,349.913239 37.339504,345.848236 36.003983,341.392242 
z"/>
<path fill="#D1B584" opacity="1.000000" stroke="none" 
	d="
M52.315575,337.807556 
	C50.732491,337.001343 49.554295,335.841553 48.168030,335.042938 
	C45.965775,333.774231 43.624615,332.746674 41.173061,331.309143 
	C44.694477,331.697510 48.451366,332.156677 52.054817,333.164520 
	C54.988121,333.984863 54.185692,335.895020 52.315575,337.807556 
z"/>
<path fill="#D1B584" opacity="1.000000" stroke="none" 
	d="
M49.332279,351.924377 
	C49.172863,350.837067 49.340160,349.673309 49.754196,348.255737 
	C49.886955,349.283936 49.772976,350.565948 49.332279,351.924377 
z"/>
<path fill="#D2B681" opacity="1.000000" stroke="none" 
	d="
M64.217773,93.993774 
	C63.638371,89.955940 63.316521,85.918877 63.195011,81.282066 
	C63.258419,80.120651 63.121490,79.558975 62.984558,78.997307 
	C62.988964,72.780464 62.899811,66.561218 63.059715,60.348381 
	C63.102859,58.672211 63.901577,57.015491 64.684616,55.116577 
	C65.328888,57.628464 65.642021,60.373615 65.974319,63.556053 
	C65.982986,73.020905 65.972481,82.048462 65.961868,91.546654 
	C65.659630,92.484093 65.357506,92.950905 65.022888,93.704384 
	C64.818703,93.992218 64.647011,93.993378 64.217773,93.993774 
z"/>
<path fill="#F0F0F0" opacity="1.000000" stroke="none" 
	d="
M67.074974,157.797791 
	C68.108475,157.880630 69.141983,157.963486 70.562241,158.064560 
	C71.204498,158.262405 71.390587,158.497086 71.503242,159.016983 
	C70.506821,159.752274 69.514435,160.257385 68.013138,160.636978 
	C67.361153,159.606888 67.218063,158.702347 67.074974,157.797791 
z"/>
<path fill="#D6BE91" opacity="1.000000" stroke="none" 
	d="
M74.993744,153.382706 
	C75.490570,153.911545 75.994423,154.761963 76.220154,155.792725 
	C75.628281,155.216797 75.314522,154.460556 74.993744,153.382706 
z"/>
<path fill="#D1D1D1" opacity="1.000000" stroke="none" 
	d="
M75.941025,300.599945 
	C75.138206,301.246002 74.357498,301.493195 73.292816,301.868164 
	C72.841118,301.150177 72.673386,300.304443 72.273041,299.230164 
	C72.039490,298.264862 72.038551,297.528046 72.045624,296.424438 
	C73.472900,295.370880 74.892159,294.684113 76.664459,293.973633 
	C76.666046,296.033661 76.314590,298.117371 75.941025,300.599945 
z"/>
<path fill="#FAFAFA" opacity="1.000000" stroke="none" 
	d="
M36.974052,259.988434 
	C33.356426,259.689606 31.271511,261.493591 29.853342,264.705048 
	C29.285219,265.991547 27.829531,266.886139 26.416468,267.969299 
	C26.041796,265.288544 26.028500,262.597595 26.327694,259.395172 
	C27.089567,258.249786 27.538948,257.615906 27.988331,256.982025 
	C27.988333,256.982025 27.991093,256.491455 28.307014,256.187500 
	C29.078501,255.250259 29.534065,254.617020 29.989630,253.983780 
	C32.151386,251.332748 34.201859,248.580521 36.499802,246.053329 
	C40.388111,241.777115 44.963703,238.928391 51.711769,240.187042 
	C52.874542,240.260696 53.436958,240.132812 53.999374,240.004929 
	C54.440525,240.009720 54.881680,240.014526 55.717545,240.331146 
	C56.744389,241.093018 57.376522,241.543106 58.008648,241.993195 
	C60.972515,244.431534 63.936386,246.869858 67.008858,249.960602 
	C67.744133,251.075882 68.370811,251.538757 68.997498,252.001633 
	C69.639931,253.433655 70.282364,254.865677 70.966919,257.014282 
	C71.007149,258.486816 71.005257,259.242798 71.003357,259.998779 
	C66.586594,258.339630 62.169830,256.680511 57.103424,254.791168 
	C54.969357,254.040237 53.484928,253.519501 51.904228,252.645844 
	C48.580826,250.003708 46.030674,250.813278 43.665470,254.047180 
	C42.553581,255.062912 41.775810,256.030243 40.688698,257.056763 
	C39.918606,257.742645 39.457859,258.369324 38.704681,259.028870 
	C37.932854,259.370636 37.453453,259.679535 36.974052,259.988434 
z"/>
<path fill="#F5F5F5" opacity="1.000000" stroke="none" 
	d="
M66.945984,272.982300 
	C72.305641,285.846436 63.234932,297.944366 54.035343,299.557007 
	C47.603909,300.684387 42.006863,299.209015 38.739494,293.798645 
	C35.722492,288.802826 34.129753,282.937256 32.002743,277.418915 
	C31.290815,275.571899 30.865650,273.614349 30.588097,271.360596 
	C34.926842,271.635986 38.986889,272.258087 43.418228,272.850616 
	C45.523861,272.539917 47.258202,272.258820 49.381920,271.990967 
	C52.181080,272.668671 54.590866,273.333130 57.427879,274.007324 
	C60.885403,273.672150 63.915691,273.327240 66.945984,272.982300 
M65.985619,283.239655 
	C65.211121,281.849945 64.530365,279.321198 63.647484,279.248535 
	C55.722500,278.596375 47.763489,278.318359 39.809769,278.110962 
	C38.938057,278.088196 37.562222,279.003815 37.224358,279.817932 
	C34.562046,286.232910 41.734661,297.421204 48.744991,297.987030 
	C57.246204,298.673187 63.287601,293.789429 65.985619,283.239655 
z"/>
<path fill="#F6F6F6" opacity="1.000000" stroke="none" 
	d="
M52.000500,252.998779 
	C53.484928,253.519501 54.969357,254.040237 56.727051,254.780487 
	C59.286701,256.781494 61.573090,258.562988 63.684471,260.682068 
	C63.509472,261.019623 63.022758,261.021484 62.661858,260.965027 
	C55.631447,257.254730 48.799675,254.484741 40.998039,256.997559 
	C41.775810,256.030243 42.553581,255.062912 44.059135,253.986572 
	C47.191441,253.584625 49.595970,253.291702 52.000500,252.998779 
z"/>
<path fill="#DEDEDE" opacity="1.000000" stroke="none" 
	d="
M67.098480,272.714539 
	C63.915691,273.327240 60.885403,273.672150 57.426842,273.607513 
	C56.998898,272.131561 56.999218,271.065155 57.150482,269.714935 
	C58.535255,267.958160 59.769089,266.485260 61.292152,264.972504 
	C62.047401,264.613647 62.513428,264.294617 63.307007,264.049744 
	C63.580761,265.420166 63.796169,266.807861 63.395897,267.986481 
	C63.011520,269.118286 61.989201,270.033417 60.489944,272.074951 
	C63.948647,270.648285 65.998444,269.802765 68.048233,268.957275 
	C67.782486,270.120422 67.516739,271.283600 67.098480,272.714539 
z"/>
<path fill="#E4E4E4" opacity="1.000000" stroke="none" 
	d="
M43.046940,272.880188 
	C38.986889,272.258087 34.926842,271.635986 30.430376,271.018127 
	C29.993959,271.022400 29.516302,270.994904 29.277721,270.986267 
	C29.795029,270.321625 30.550919,269.665619 31.982885,269.000458 
	C33.102295,268.990936 33.545628,268.990570 34.405846,268.992554 
	C36.881973,268.663147 38.941216,268.331390 41.352898,268.093994 
	C42.152538,269.752319 42.599743,271.316254 43.046940,272.880188 
z"/>
<path fill="#F3F3F3" opacity="1.000000" stroke="none" 
	d="
M38.293255,305.164307 
	C37.418884,304.185211 36.842850,303.363556 36.135498,302.019775 
	C36.010345,301.328064 36.016518,301.158508 36.022690,300.988953 
	C37.129845,301.609192 38.295429,302.145172 39.333519,302.865051 
	C42.859467,305.310089 46.340366,307.820068 49.922775,310.644226 
	C46.201916,309.096039 42.396755,307.208893 38.293255,305.164307 
z"/>
<path fill="#E7E7E7" opacity="1.000000" stroke="none" 
	d="
M68.037933,268.631287 
	C65.998444,269.802765 63.948647,270.648285 60.489944,272.074951 
	C61.989201,270.033417 63.011520,269.118286 63.395897,267.986481 
	C63.796169,266.807861 63.580761,265.420166 63.312752,263.680725 
	C63.001553,262.498871 63.012154,261.760193 63.022758,261.021484 
	C63.022758,261.021484 63.509472,261.019623 63.752754,261.016174 
	C64.536514,261.195709 65.077003,261.378723 65.814926,262.137756 
	C66.678169,264.142334 67.343979,265.570923 68.009789,266.999481 
	C68.015732,267.434753 68.021683,267.870026 68.037933,268.631287 
z"/>
<path fill="#F3F3F3" opacity="1.000000" stroke="none" 
	d="
M65.712936,302.170898 
	C65.454880,307.617676 61.384262,309.593597 56.364674,310.977417 
	C59.133503,308.099152 62.275223,305.217407 65.712936,302.170898 
z"/>
<path fill="#F1F1F1" opacity="1.000000" stroke="none" 
	d="
M68.239670,266.778931 
	C67.343979,265.570923 66.678169,264.142334 66.001633,262.360168 
	C66.817123,263.523865 67.643333,265.041138 68.239670,266.778931 
z"/>
<path fill="#F3F3F3" opacity="1.000000" stroke="none" 
	d="
M71.259689,259.998749 
	C71.005257,259.242798 71.007149,258.486816 71.017639,257.352234 
	C71.507713,257.837097 71.989204,258.700562 72.249687,259.781006 
	C71.857796,259.998230 71.686913,259.998474 71.259689,259.998749 
z"/>
<path fill="#E7E7E7" opacity="1.000000" stroke="none" 
	d="
M35.833382,300.766876 
	C36.016518,301.158508 36.010345,301.328064 35.995605,301.752075 
	C35.364944,301.533783 34.742855,301.061096 34.074280,300.273285 
	C34.566559,300.153717 35.105316,300.349274 35.833382,300.766876 
z"/>
<path fill="#F3F3F3" opacity="1.000000" stroke="none" 
	d="
M53.841988,239.805313 
	C53.436958,240.132812 52.874542,240.260696 52.155037,240.186859 
	C52.560169,239.858658 53.122387,239.732178 53.841988,239.805313 
z"/>
<path fill="#F3F3F3" opacity="1.000000" stroke="none" 
	d="
M57.947289,241.683990 
	C57.376522,241.543106 56.744389,241.093018 56.048386,240.336548 
	C56.618317,240.478348 57.252121,240.926559 57.947289,241.683990 
z"/>
<path fill="#F3F3F3" opacity="1.000000" stroke="none" 
	d="
M68.940948,251.691574 
	C68.370811,251.538757 67.744133,251.075882 67.062317,250.301926 
	C67.632919,250.454391 68.258659,250.917953 68.940948,251.691574 
z"/>
<path fill="#F5F5F5" opacity="1.000000" stroke="none" 
	d="
M29.680878,254.045990 
	C29.534065,254.617020 29.078501,255.250259 28.312382,255.942245 
	C28.458593,255.370056 28.915359,254.739120 29.680878,254.045990 
z"/>
<path fill="#F5F5F5" opacity="1.000000" stroke="none" 
	d="
M27.679556,257.044617 
	C27.538948,257.615906 27.089567,258.249786 26.332767,258.946106 
	C26.473829,258.374756 26.922306,257.740967 27.679556,257.044617 
z"/>
<path fill="#EAEAEA" opacity="1.000000" stroke="none" 
	d="
M41.000458,267.999634 
	C38.941216,268.331390 36.881973,268.663147 34.418812,268.631195 
	C35.004936,266.176361 35.994987,264.085236 36.985031,261.994110 
	C36.985218,261.548492 36.985409,261.102875 36.979828,260.322845 
	C37.453453,259.679535 37.932854,259.370636 38.911674,259.160278 
	C39.669586,259.470001 39.864941,259.728821 39.802361,260.277039 
	C40.071857,263.012390 40.536160,265.506012 41.000458,267.999634 
z"/>
<path fill="#F1F1F1" opacity="1.000000" stroke="none" 
	d="
M36.620766,262.048737 
	C35.994987,264.085236 35.004936,266.176361 34.001923,268.628845 
	C33.545628,268.990570 33.102295,268.990936 32.326271,268.985321 
	C31.632288,265.582397 32.377190,262.871246 36.620766,262.048737 
z"/>
<path fill="#E6E6E5" opacity="1.000000" stroke="none" 
	d="
M39.885693,154.237183 
	C42.067917,154.007034 44.135780,154.027847 46.526512,154.413727 
	C44.899788,155.519409 42.950191,156.260010 41.000595,157.000610 
	C40.443802,156.799850 39.887005,156.599075 39.142620,156.159805 
	C39.227127,155.443588 39.499229,154.965866 39.885693,154.237183 
z"/>
<path fill="#D3D2D1" opacity="1.000000" stroke="none" 
	d="
M36.846252,155.939240 
	C36.518734,156.695358 36.007610,157.279312 35.174767,157.872742 
	C35.456245,157.177170 36.059448,156.472122 36.846252,155.939240 
z"/>
<path fill="#EFEFEF" opacity="1.000000" stroke="none" 
	d="
M70.008919,168.993805 
	C74.251053,181.115173 67.283600,196.289383 54.855942,201.864670 
	C51.084232,203.556702 47.340145,205.431503 43.398056,206.594116 
	C37.509903,208.330643 33.174652,205.543900 32.349277,199.433197 
	C33.478077,199.025406 34.236027,199.020065 34.995186,199.344818 
	C34.998219,200.115189 35.000038,200.555466 35.055279,201.343201 
	C36.730240,203.663208 38.031212,207.072479 41.333672,203.003998 
	C42.111401,203.003067 42.555824,203.003372 43.247711,203.243408 
	C46.561443,202.540283 49.905869,202.092896 52.639755,200.558029 
	C59.715824,196.585358 66.558159,192.260025 67.572083,182.929108 
	C68.080414,178.250977 69.177887,173.636871 70.008919,168.993805 
z"/>
<path fill="#F0F0F0" opacity="1.000000" stroke="none" 
	d="
M70.008026,168.620834 
	C69.177887,173.636871 68.080414,178.250977 67.572083,182.929108 
	C66.558159,192.260025 59.715824,196.585358 52.639755,200.558029 
	C49.905869,202.092896 46.561443,202.540283 43.474743,202.979111 
	C46.296158,201.152893 49.220215,199.980896 51.963882,198.479309 
	C59.129749,194.557510 65.075066,189.763992 65.698196,180.611191 
	C66.099602,174.715332 67.212669,168.867905 68.006775,162.998779 
	C68.646599,163.790985 69.286415,164.583176 69.965996,165.692871 
	C70.006226,166.756210 70.006683,167.502029 70.008026,168.620834 
z"/>
<path fill="#FDFDFD" opacity="1.000000" stroke="none" 
	d="
M34.993973,199.014740 
	C34.236027,199.020065 33.478077,199.025406 32.340702,199.053055 
	C27.805864,196.407654 30.892225,192.951782 30.967628,189.418640 
	C30.989460,188.845078 30.998211,188.677887 31.320412,188.197388 
	C32.090160,187.257278 32.546455,186.630478 33.127190,185.797760 
	C33.454124,185.334152 33.704735,185.137878 34.409470,185.005005 
	C39.002407,184.835190 40.959923,187.187286 39.836014,190.889908 
	C38.947121,193.818283 36.660107,196.322281 34.993973,199.014740 
z"/>
<path fill="#F8F8F8" opacity="1.000000" stroke="none" 
	d="
M34.995186,199.344833 
	C36.660107,196.322281 38.947121,193.818283 39.836014,190.889908 
	C40.959923,187.187286 39.002407,184.835190 34.408463,184.578583 
	C34.347237,181.888458 34.598785,179.607315 35.058716,177.368988 
	C35.977119,172.899399 37.009815,168.453308 37.995316,163.997513 
	C38.885281,161.868973 39.775246,159.740417 40.832905,157.306244 
	C42.950191,156.260010 44.899788,155.519409 46.968601,154.451447 
	C51.060154,154.110580 55.032490,154.097092 59.563782,154.419037 
	C61.090115,155.165756 62.057499,155.577042 63.024879,155.988327 
	C64.234947,156.424637 65.445015,156.860931 66.865028,157.547516 
	C67.218063,158.702347 67.361153,159.606888 67.747429,160.756317 
	C67.993561,161.445114 67.996498,161.889038 68.003113,162.665863 
	C67.212669,168.867905 66.099602,174.715332 65.698196,180.611191 
	C65.075066,189.763992 59.129749,194.557510 51.963882,198.479309 
	C49.220215,199.980896 46.296158,201.152893 43.227276,202.739380 
	C42.555824,203.003372 42.111401,203.003067 40.971390,202.992935 
	C38.517815,202.320633 36.759834,201.658188 35.001854,200.995728 
	C35.000038,200.555466 34.998219,200.115189 34.995186,199.344833 
z"/>
<path fill="#F3F3F3" opacity="1.000000" stroke="none" 
	d="
M37.638386,164.097534 
	C37.009815,168.453308 35.977119,172.899399 35.058716,177.368988 
	C34.598785,179.607315 34.347237,181.888458 34.002453,184.576645 
	C33.704735,185.137878 33.454124,185.334152 32.876163,185.796326 
	C32.333370,185.999939 32.166035,185.999054 31.998703,185.998169 
	C33.759621,178.731293 35.520542,171.464417 37.638386,164.097534 
z"/>
<path fill="#F8F8F8" opacity="1.000000" stroke="none" 
	d="
M31.774181,186.185272 
	C32.166035,185.999054 32.333370,185.999939 32.751728,186.002243 
	C32.546455,186.630478 32.090160,187.257278 31.327251,187.946365 
	C31.196983,187.463226 31.373323,186.917801 31.774181,186.185272 
z"/>
<path fill="#E6E6E5" opacity="1.000000" stroke="none" 
	d="
M63.007874,155.746826 
	C62.057499,155.577042 61.090115,155.165756 60.021217,154.435196 
	C60.737125,154.328461 61.554543,154.541016 62.663094,154.888000 
	C62.954224,155.022461 62.990868,155.505310 63.007874,155.746826 
z"/>
<path fill="#D6BD90" opacity="1.000000" stroke="none" 
	d="
M64.011887,37.006184 
	C64.011887,37.006184 64.006996,37.502449 64.002350,37.750534 
	C63.145748,37.817665 62.293789,37.636711 61.219131,37.209248 
	C61.180271,36.427921 61.364109,35.893101 61.903900,35.434540 
	C62.843864,36.009254 63.427876,36.507717 64.011887,37.006184 
z"/>
<path fill="#D8BD8A" opacity="1.000000" stroke="none" 
	d="
M62.788799,79.158249 
	C63.121490,79.558975 63.258419,80.120651 63.195454,80.841568 
	C62.861385,80.440277 62.727211,79.879730 62.788799,79.158249 
z"/>
<path fill="#D8BD8A" opacity="1.000000" stroke="none" 
	d="
M64.237991,36.783501 
	C63.427876,36.507717 62.843864,36.009254 62.125896,35.250160 
	C62.609200,34.548943 63.226460,34.108356 63.843719,33.667770 
	C64.050514,34.632114 64.257309,35.596466 64.237991,36.783501 
z"/>
<path fill="#F1F1F1" opacity="1.000000" stroke="none" 
	d="
M39.997162,260.035309 
	C39.864941,259.728821 39.669586,259.470001 39.204105,259.127441 
	C39.457859,258.369324 39.918606,257.742645 40.688698,257.056763 
	C48.799675,254.484741 55.631447,257.254730 62.661858,260.965027 
	C63.012154,261.760193 63.001553,262.498871 62.985203,263.606567 
	C62.513428,264.294617 62.047401,264.613647 61.027313,264.721100 
	C58.784210,263.978577 56.788204,263.851196 55.462337,262.842773 
	C51.068005,259.500458 46.597298,260.464050 41.775497,261.827087 
	C41.030830,261.117615 40.513996,260.576477 39.997162,260.035309 
z"/>
<path fill="#F9F9F9" opacity="1.000000" stroke="none" 
	d="
M51.904228,252.645844 
	C49.595970,253.291702 47.191441,253.584625 44.393250,253.938171 
	C46.030674,250.813278 48.580826,250.003708 51.904228,252.645844 
z"/>
<path fill="#F1F1F1" opacity="1.000000" stroke="none" 
	d="
M65.965759,283.660889 
	C63.287601,293.789429 57.246204,298.673187 48.744991,297.987030 
	C41.734661,297.421204 34.562046,286.232910 37.224358,279.817932 
	C37.562222,279.003815 38.938057,278.088196 39.809769,278.110962 
	C47.763489,278.318359 55.722500,278.596375 63.647484,279.248535 
	C64.530365,279.321198 65.211121,281.849945 65.965759,283.660889 
M43.809513,292.578003 
	C48.581123,297.935516 57.132225,296.760681 60.853569,290.234833 
	C62.765160,286.882660 61.636452,284.777893 58.039799,284.084259 
	C55.130810,283.523254 52.152309,283.104156 49.196453,283.047241 
	C41.493847,282.898834 40.414772,284.654755 43.809513,292.578003 
z"/>
<path fill="#DCDCDC" opacity="1.000000" stroke="none" 
	d="
M39.802361,260.277039 
	C40.513996,260.576477 41.030830,261.117615 41.935120,262.130249 
	C44.643913,264.635040 44.410938,269.331421 48.997578,269.375671 
	C48.996269,270.491058 48.994408,271.234406 48.992546,271.977722 
	C47.258202,272.258820 45.523861,272.539917 43.418232,272.850586 
	C42.599743,271.316254 42.152538,269.752319 41.352898,268.093994 
	C40.536160,265.506012 40.071857,263.012390 39.802361,260.277039 
z"/>
<path fill="#E2E2E2" opacity="1.000000" stroke="none" 
	d="
M49.381920,271.990967 
	C48.994408,271.234406 48.996269,270.491058 49.399559,269.387848 
	C52.200500,269.351593 54.600021,269.675171 56.999542,269.998779 
	C56.999218,271.065155 56.998898,272.131561 56.999611,273.597778 
	C54.590866,273.333130 52.181080,272.668671 49.381920,271.990967 
z"/>
<path fill="#EAEAEA" opacity="1.000000" stroke="none" 
	d="
M57.150482,269.714935 
	C54.600021,269.675171 52.200500,269.351593 49.399002,269.015808 
	C44.410938,269.331421 44.643913,264.635040 42.162949,262.298523 
	C46.597298,260.464050 51.068005,259.500458 55.462337,262.842773 
	C56.788204,263.851196 58.784210,263.978577 60.738083,264.760925 
	C59.769089,266.485260 58.535255,267.958160 57.150482,269.714935 
z"/>
<path fill="#F0F0F0" opacity="1.000000" stroke="none" 
	d="
M35.055279,201.343201 
	C36.759834,201.658188 38.517815,202.320633 40.638077,202.994156 
	C38.031212,207.072479 36.730240,203.663208 35.055279,201.343201 
z"/>
<path fill="#EBEBEB" opacity="1.000000" stroke="none" 
	d="
M43.626350,292.229797 
	C40.414772,284.654755 41.493847,282.898834 49.196453,283.047241 
	C52.152309,283.104156 55.130810,283.523254 58.039799,284.084259 
	C61.636452,284.777893 62.765160,286.882660 60.853569,290.234833 
	C57.132225,296.760681 48.581123,297.935516 43.626350,292.229797 
z"/>
</svg>