<svg version="1.1" id="Layer_1" xmlns="http://www.w3.org/2000/svg" xmlns:xlink="http://www.w3.org/1999/xlink" x="0px" y="0px"
	 width="100%" viewBox="0 0 91 405" enable-background="new 0 0 91 405" xml:space="preserve">
<path fill="#D5BD90" opacity="1.000000" stroke="none" 
	d="
M19.995369,192.032486 
	C20.797726,182.961945 17.711597,174.380539 16.756989,165.587936 
	C15.408445,153.167007 13.567873,140.471786 18.334923,128.030579 
	C20.374889,122.706612 20.741514,116.751511 21.978619,111.107330 
	C23.521441,104.068321 28.037140,100.468346 35.586655,100.414825 
	C40.714600,104.466942 40.902779,109.721771 40.945820,115.464333 
	C40.916195,118.548721 40.898132,121.191887 40.542736,123.973732 
	C38.646702,126.303871 37.872414,128.404373 40.906853,130.072021 
	C40.918228,130.079422 40.907578,130.071396 40.901108,130.526917 
	C40.638180,141.607117 42.175423,151.652496 50.737312,160.864883 
	C52.097427,156.605560 53.164780,153.263031 54.388096,149.625778 
	C56.254940,146.657883 58.401451,144.060852 56.065315,140.560089 
	C56.074463,140.441376 56.097710,140.204391 56.431381,140.026321 
	C57.820515,138.933136 59.598598,138.158112 59.807804,137.078934 
	C60.774178,132.093964 61.304054,127.024376 61.987450,121.602951 
	C61.961193,116.094177 61.937859,110.967560 61.914520,105.840942 
	C62.367493,103.956711 62.820465,102.072479 63.623489,100.487579 
	C63.973537,104.275269 63.973537,107.763618 63.973537,111.251968 
	C64.234589,111.220757 64.495644,111.189537 64.756699,111.158325 
	C66.465424,107.057388 68.174156,102.956451 70.206627,98.078537 
	C75.656151,102.858528 76.162971,108.275520 77.878731,113.121033 
	C78.364365,114.492538 79.276382,115.713074 79.993561,117.471329 
	C79.778870,140.031235 80.920387,162.259720 73.314850,183.604218 
	C73.046600,184.357040 72.769600,185.650497 73.131798,185.968460 
	C73.837425,186.587891 74.993729,186.693924 75.963379,187.012589 
	C75.641747,188.782684 75.320114,190.552765 74.692955,192.925446 
	C72.913094,194.057114 71.438759,194.586197 69.653854,195.056824 
	C68.546288,194.750977 67.749290,194.503616 66.683151,194.093033 
	C65.635239,193.705399 64.856461,193.480972 63.791054,193.200226 
	C63.312206,193.175186 63.119991,193.206467 62.511116,193.183105 
	C58.752987,192.833862 55.411526,192.539246 51.643250,192.149765 
	C49.483608,192.077316 47.750786,192.099747 45.633648,192.069305 
	C43.834415,192.355331 42.419495,192.694199 40.675133,193.018524 
	C39.533405,193.252945 38.721111,193.501938 37.540627,193.748779 
	C36.438755,193.804047 35.705074,193.861465 34.601509,193.886658 
	C33.497623,193.961105 32.763622,194.067795 31.649277,194.135178 
	C29.198370,194.765732 27.127804,195.435608 24.673294,196.081833 
	C21.891687,196.038834 19.494028,196.019485 17.096367,196.000137 
	C17.062643,195.833313 17.028921,195.666504 17.424034,195.261780 
	C18.567038,194.026733 19.281204,193.029617 19.995369,192.032486 
M55.559544,165.075256 
	C53.637012,166.364426 51.352039,169.027359 49.872616,168.637054 
	C47.333221,167.967087 44.015984,165.813416 43.266613,163.542892 
	C39.643642,152.565689 35.643608,141.590088 35.977779,129.710709 
	C36.136971,124.051620 36.214897,118.373329 35.910084,112.726379 
	C35.787514,110.455643 34.539745,108.245628 33.804089,106.007980 
	C33.220570,106.055641 32.637054,106.103294 32.053539,106.150955 
	C30.919352,108.298111 29.413408,110.331032 28.712763,112.611397 
	C24.859303,125.153137 21.682076,137.927628 22.141302,151.112930 
	C22.509506,161.684830 23.783304,172.259232 25.305864,182.737976 
	C25.823689,186.301804 27.731615,190.185043 32.696423,190.139557 
	C37.288643,190.097473 41.885086,189.916733 46.472050,190.053253 
	C52.105324,190.220901 57.729755,190.672256 63.359840,190.965881 
	C66.311806,191.119797 69.186699,191.022949 69.948235,187.269623 
	C71.682510,178.722092 74.091957,170.239578 74.952057,161.603653 
	C76.216095,148.911865 76.854095,136.106171 76.773369,123.355247 
	C76.736740,117.569885 74.437798,111.771721 72.890198,106.053772 
	C72.670868,105.243401 70.883537,104.429138 69.829201,104.438446 
	C69.225327,104.443779 68.284027,106.045235 68.112938,107.034981 
	C67.747581,109.148521 68.011940,111.374023 67.619125,113.479179 
	C65.436142,125.178047 63.304901,136.891571 60.796204,148.522476 
	C59.628841,153.934616 57.649559,159.171631 55.559544,165.075256 
M72.556206,190.510910 
	C72.556206,190.510910 72.480400,190.550018 72.556206,190.510910 
z"/>
<path fill="#E6E6E6" opacity="1.000000" stroke="none" 
	d="
M80.457443,306.480255 
	C80.457443,306.480255 80.362366,306.819763 79.901993,306.961548 
	C79.221046,307.149078 79.000488,307.194794 78.836044,306.898254 
	C78.892151,305.745087 78.892151,304.934235 78.892151,304.382050 
	C73.650238,309.526428 68.781082,315.449829 60.601421,315.960724 
	C54.368500,316.350037 48.096348,316.076538 41.855541,316.381927 
	C31.329229,316.896942 21.538731,315.253204 13.202112,307.443878 
	C13.119557,308.475769 13.057472,309.251801 12.995386,310.027832 
	C5.165344,301.998505 8.463441,292.043701 9.061033,282.935608 
	C9.351509,278.508362 13.048046,274.237396 15.496792,270.068420 
	C16.076651,269.081238 17.817410,268.737610 19.065750,268.193329 
	C20.097589,267.743439 21.347321,267.655609 22.233103,267.029205 
	C33.901501,258.777924 47.169537,259.917664 60.339245,260.417938 
	C61.836037,260.474762 63.390350,260.675293 64.826569,260.373749 
	C70.235741,259.238007 74.575218,260.395050 77.548401,265.427094 
	C78.193581,266.519104 79.468666,267.238922 80.764915,268.713745 
	C81.708710,272.596069 82.957977,275.916229 82.844231,279.189026 
	C82.613541,285.826416 81.645134,292.438202 80.674957,299.142914 
	C80.398529,301.643616 80.427986,304.061920 80.457443,306.480255 
M71.002525,291.334229 
	C70.999115,290.891998 70.995705,290.449799 71.658531,289.874878 
	C72.095230,288.944366 72.531937,288.013824 73.676292,286.959137 
	C80.368683,282.571350 81.222092,270.234711 74.817543,267.045990 
	C71.058319,265.174347 66.844131,263.514435 62.734932,263.237366 
	C58.274879,262.936676 53.334961,263.557251 49.343166,265.387543 
	C47.611660,266.181458 47.728668,271.006927 46.290062,274.000519 
	C45.811321,274.016418 45.332584,274.032318 44.263470,273.681458 
	C43.498905,271.801392 42.734337,269.921356 42.657059,267.869873 
	C42.900875,266.728912 43.144695,265.587921 43.388515,264.446960 
	C42.777451,264.418640 42.166389,264.390350 41.555328,264.362061 
	C41.691490,265.584869 41.827656,266.807678 41.237267,267.845306 
	C36.920467,263.999146 32.338161,266.712402 28.003222,267.575562 
	C20.410711,269.087402 15.991298,274.124054 14.281531,281.593689 
	C13.546604,284.804443 14.240932,287.444397 17.922220,287.893524 
	C21.300215,288.305603 23.405302,286.806488 23.667126,283.000427 
	C24.109936,283.001099 24.552748,283.001770 25.508005,283.486969 
	C26.990347,284.493652 28.592562,285.364899 29.923256,286.542847 
	C31.424576,287.871918 32.681602,289.476929 33.394447,291.102478 
	C33.129105,291.852142 32.863762,292.601776 32.598423,293.351440 
	C33.722271,292.529724 34.846119,291.707977 36.280937,290.286957 
	C37.514400,289.514557 38.747864,288.742157 39.989838,288.729401 
	C39.992439,289.487671 39.995045,290.245972 39.477154,291.414001 
	C36.948421,294.488037 32.468578,296.923035 35.227123,301.995667 
	C33.820930,302.658844 32.414734,303.322021 30.395231,303.682587 
	C29.364534,301.976471 28.057127,300.372925 27.376856,298.536957 
	C26.616226,296.484131 26.424274,294.220551 26.238821,291.442688 
	C25.693808,290.496429 25.082724,288.708954 24.614918,288.745728 
	C22.253531,288.931152 19.784945,289.253906 17.630829,290.175568 
	C15.223689,291.205505 13.113728,292.929932 10.874438,294.352112 
	C11.177050,294.810577 11.479660,295.269012 11.782270,295.727448 
	C12.520568,295.484161 13.258864,295.240845 14.105328,295.766602 
	C14.310485,296.399353 14.630428,297.019226 14.703059,297.666840 
	C15.440436,304.241516 18.181126,308.993744 25.362181,310.143707 
	C28.280657,310.611053 31.416597,311.028503 33.927944,312.418427 
	C37.543621,314.419495 38.914227,311.780792 39.264748,309.756775 
	C39.500046,308.398132 37.173744,306.595825 36.001728,304.240936 
	C36.005615,303.489136 36.009502,302.737305 36.738319,302.005615 
	C39.156761,303.672699 41.575203,305.339783 44.121670,307.757050 
	C45.412357,308.501465 46.804176,310.008331 47.975510,309.852966 
	C52.155083,309.298645 56.310669,308.352509 60.359257,307.160431 
	C61.458942,306.836670 62.150246,305.125854 63.718887,303.933411 
	C65.171997,301.969238 66.625107,300.005066 68.794556,297.992676 
	C71.775604,296.822296 72.491661,294.815979 71.002525,291.334229 
z"/>
<path fill="#DBDAD9" opacity="1.000000" stroke="none" 
	d="
M17.024193,196.386551 
	C19.494028,196.019485 21.891687,196.038834 24.660320,196.396332 
	C25.019587,197.155930 25.007883,197.577393 24.749113,198.218338 
	C24.332600,199.290878 24.163151,200.143936 23.991337,201.371643 
	C23.984678,202.495544 23.980387,203.244827 23.704922,204.227081 
	C22.622126,207.306519 21.810501,210.152985 20.996006,213.332123 
	C20.990334,214.108383 20.987532,214.551956 20.672825,215.179810 
	C17.125937,221.679626 14.742595,228.319702 16.198298,235.431366 
	C16.693359,237.849945 19.334423,239.829224 21.324083,242.013428 
	C22.092241,242.020538 22.531199,242.023483 23.052162,242.360443 
	C24.801579,244.623871 26.124678,244.543701 27.427557,242.025360 
	C28.884180,242.017563 29.943542,242.011307 31.337978,241.939362 
	C32.128365,240.930130 32.583683,239.986572 33.409027,239.035645 
	C35.518383,238.362350 37.257713,237.696457 39.232468,237.279465 
	C41.461090,238.672470 43.685421,239.548370 45.394863,241.021683 
	C48.159977,243.404846 50.890163,243.757614 54.430832,242.028687 
	C56.571751,242.027802 58.284595,242.030258 60.284416,242.292542 
	C64.088943,243.083115 67.700623,243.967331 70.370651,239.989594 
	C71.808128,239.630508 72.904213,239.315491 74.300140,238.835251 
	C75.070045,237.449402 75.540115,236.228790 76.025040,234.641998 
	C76.701721,232.514526 77.363548,230.753204 78.406006,228.994080 
	C79.801231,228.999435 80.815819,229.002594 81.830414,229.005737 
	C82.603439,236.833252 77.858086,241.865646 72.154457,246.899094 
	C69.644157,247.352112 67.817612,247.665054 65.881363,247.593170 
	C60.948254,246.805634 56.123734,246.415695 51.301891,245.994965 
	C48.858929,245.781815 45.819386,246.346390 44.099380,245.104904 
	C39.859280,242.044449 36.377583,242.826111 32.201881,245.075394 
	C24.270590,249.347672 15.358210,245.418335 13.932055,236.534302 
	C13.157057,231.706558 14.487761,226.503372 15.132738,221.503601 
	C15.388003,219.524826 16.106079,217.785950 13.044385,218.011871 
	C14.346930,210.932236 15.649474,203.852600 17.024193,196.386551 
M17.662914,207.632141 
	C17.213745,209.150024 16.764576,210.667908 16.315407,212.185791 
	C16.825310,212.276291 17.335215,212.366776 17.845118,212.457260 
	C17.993284,210.840363 18.141449,209.223450 17.662914,207.632141 
z"/>
<path fill="#CBAE83" opacity="1.000000" stroke="none" 
	d="
M54.873016,330.134094 
	C54.064781,330.134094 53.256550,330.134094 52.409039,330.134094 
	C54.346138,336.594757 46.673595,344.802277 38.841946,346.107788 
	C31.566965,347.320465 23.558168,343.536896 21.558475,337.292084 
	C20.921141,335.301727 21.646591,332.906128 21.180756,330.822906 
	C20.347155,327.095093 19.082747,323.463654 18.340584,319.239258 
	C21.742155,315.672699 23.623312,319.260773 25.999115,320.356537 
	C25.148577,322.074585 24.312738,323.431061 23.519379,324.718567 
	C24.268625,327.374023 24.911921,330.079529 25.798359,332.702911 
	C27.414970,337.487183 31.546038,340.806549 35.965652,340.596863 
	C40.771435,340.368774 44.081879,338.019867 45.003719,332.752380 
	C45.006092,332.504791 45.007618,332.009583 45.347710,331.964355 
	C46.942257,330.963348 48.292755,330.108948 49.431099,329.030579 
	C51.761101,326.823273 53.578320,327.211426 55.053699,329.945862 
	C54.993103,330.008240 54.873016,330.134094 54.873016,330.134094 
z"/>
<path fill="#B5B3AF" opacity="1.000000" stroke="none" 
	d="
M26.013813,319.994934 
	C23.623312,319.260773 21.742155,315.672699 18.398335,318.838623 
	C16.417797,316.258423 14.721670,313.526123 13.010466,310.410828 
	C13.057472,309.251801 13.119557,308.475769 13.202112,307.443878 
	C21.538731,315.253204 31.329229,316.896942 41.855541,316.381927 
	C48.096348,316.076538 54.368500,316.350037 60.601421,315.960724 
	C68.781082,315.449829 73.650238,309.526428 78.892151,304.382050 
	C78.892151,304.934235 78.892151,305.745087 78.750641,307.094238 
	C78.697632,308.410431 78.786140,309.188385 78.526390,309.987915 
	C76.092682,311.998779 74.007240,313.988068 71.623291,316.141418 
	C64.707741,321.360901 57.023514,322.255096 48.641006,321.999695 
	C47.146576,321.989258 46.060345,321.997375 44.537651,321.996948 
	C42.059967,322.006958 40.018745,322.025482 37.582573,322.025787 
	C36.135143,321.992340 35.082661,321.977112 33.840698,321.739502 
	C33.098900,321.361786 32.546581,321.206421 31.777771,320.795044 
	C30.695154,320.413147 29.829029,320.287354 28.594965,320.127197 
	C27.489290,320.060181 26.751553,320.027557 26.013813,319.994934 
z"/>
<path fill="#D5D4D4" opacity="1.000000" stroke="none" 
	d="
M12.771238,218.238876 
	C16.106079,217.785950 15.388003,219.524826 15.132738,221.503601 
	C14.487761,226.503372 13.157057,231.706558 13.932055,236.534302 
	C15.358210,245.418335 24.270590,249.347672 32.201881,245.075394 
	C36.377583,242.826111 39.859280,242.044449 44.099380,245.104904 
	C45.819386,246.346390 48.858929,245.781815 51.301891,245.994965 
	C56.123734,246.415695 60.948254,246.805634 65.413757,247.600143 
	C60.908016,247.997513 56.756748,248.109970 52.613419,247.976288 
	C49.013535,247.860138 45.089954,248.291626 41.902660,247.008026 
	C36.597286,244.871445 32.906067,247.093277 29.018848,249.830154 
	C23.917374,250.011353 18.347822,251.635223 14.702082,246.373657 
	C10.339671,240.077835 6.489089,233.408493 8.482798,225.324661 
	C9.091066,222.858322 11.119860,220.742325 12.771238,218.238876 
z"/>
<path fill="#CDB386" opacity="1.000000" stroke="none" 
	d="
M76.194199,186.703781 
	C74.993729,186.693924 73.837425,186.587891 73.131798,185.968460 
	C72.769600,185.650497 73.046600,184.357040 73.314850,183.604218 
	C80.920387,162.259720 79.778870,140.031235 79.997330,117.469612 
	C80.000389,116.999420 80.003662,116.992676 80.367783,116.992859 
	C81.457886,116.988289 82.183868,116.983521 82.918076,117.401703 
	C82.619026,123.212944 82.212570,128.599091 82.095268,133.991516 
	C82.073967,134.970779 83.235962,135.975800 83.851692,136.968918 
	C83.243416,146.635208 81.808334,156.342560 82.285713,165.954941 
	C82.675064,173.795013 77.005440,179.233002 76.194199,186.703781 
z"/>
<path fill="#CCB17F" opacity="1.000000" stroke="none" 
	d="
M71.921799,315.977356 
	C74.007240,313.988068 76.092682,311.998779 78.555161,310.430237 
	C78.857422,314.209625 78.782661,317.568268 78.707893,320.926880 
	C78.340218,326.258728 78.273361,331.927460 73.042763,335.038300 
	C70.341827,336.644653 66.913651,337.028229 63.252842,337.718750 
	C62.456932,337.257294 62.182049,337.124817 61.866966,337.075775 
	C61.866966,337.075775 61.952496,337.043304 61.919018,336.740417 
	C60.933903,335.613983 59.982262,334.790466 58.958145,333.643982 
	C57.969116,332.879059 57.052570,332.437103 56.136024,331.995148 
	C56.136024,331.995148 55.989319,331.596222 55.987530,331.106995 
	C55.991146,330.431305 55.996548,330.244781 56.313507,329.904144 
	C57.799740,329.972260 58.984783,330.150665 60.147156,330.425079 
	C63.548222,331.228149 66.848465,331.730682 69.383354,328.001007 
	C74.314018,326.731293 74.045799,322.542053 74.739014,319.173706 
	C74.911209,318.336975 72.919090,317.054810 71.921799,315.977356 
z"/>
<path fill="#CFB889" opacity="1.000000" stroke="none" 
	d="
M79.996620,117.001129 
	C79.276382,115.713074 78.364365,114.492538 77.878731,113.121033 
	C76.162971,108.275520 75.656151,102.858528 70.206627,98.078537 
	C68.174156,102.956451 66.465424,107.057388 64.756699,111.158325 
	C64.495644,111.189537 64.234589,111.220757 63.973537,111.251968 
	C63.973537,107.763618 63.973537,104.275269 63.950027,100.319000 
	C64.411865,98.294319 64.819855,95.436172 65.395683,95.401955 
	C68.156807,95.237854 70.839439,90.275314 73.517120,94.547562 
	C76.017258,98.536537 77.721237,103.024506 79.585022,107.934990 
	C79.597488,111.382317 79.800575,114.187500 80.003662,116.992676 
	C80.003662,116.992676 80.000389,116.999420 79.996620,117.001129 
z"/>
<path fill="#B0A594" opacity="1.000000" stroke="none" 
	d="
M61.513069,105.865433 
	C61.937859,110.967560 61.961193,116.094177 61.734100,121.497665 
	C61.001736,121.510902 60.519798,121.247269 60.027199,120.569366 
	C59.374939,117.076256 58.733349,113.997414 58.056435,110.517456 
	C57.371983,106.372101 56.722855,102.627853 56.063484,98.561630 
	C55.716045,97.492195 55.378849,96.744736 54.894104,95.711914 
	C54.171410,94.510262 53.596256,93.593987 52.975826,92.301613 
	C50.241131,88.206223 46.889645,90.188713 43.691261,90.852676 
	C48.612476,85.031898 51.191261,85.666054 55.592308,91.662964 
	C58.851940,96.104561 59.234718,101.181725 61.513069,105.865433 
z"/>
<path fill="#DBDAD9" opacity="1.000000" stroke="none" 
	d="
M69.964424,195.115295 
	C71.438759,194.586197 72.913094,194.057114 74.616539,193.319641 
	C75.688164,195.357819 76.690704,197.559113 77.341713,199.859863 
	C78.972427,205.623001 80.443871,211.431198 81.522644,217.609131 
	C80.046188,217.997925 79.026299,217.998917 77.742767,217.789581 
	C76.652100,213.720001 75.825066,209.860718 74.996994,205.666626 
	C74.666252,204.554321 74.336571,203.776855 73.994095,202.618073 
	C72.642342,199.862930 71.303383,197.489120 69.964424,195.115295 
z"/>
<path fill="#E9E9E9" opacity="1.000000" stroke="none" 
	d="
M29.443064,249.898697 
	C32.906067,247.093277 36.597286,244.871445 41.902660,247.008026 
	C45.089954,248.291626 49.013535,247.860138 52.613419,247.976288 
	C56.756748,248.109970 60.908016,247.997513 65.523453,247.984985 
	C67.817612,247.665054 69.644157,247.352112 71.872894,247.064880 
	C70.006561,252.003723 64.839722,250.551025 61.499237,250.681137 
	C54.209965,250.965073 46.411530,253.180771 39.455139,248.484482 
	C38.819344,248.055267 37.300243,249.047607 36.166988,249.217575 
	C34.076622,249.531036 31.968187,249.724045 29.443064,249.898697 
z"/>
<path fill="#B49A77" opacity="1.000000" stroke="none" 
	d="
M43.457493,90.911392 
	C46.889645,90.188713 50.241131,88.206223 52.616600,92.211357 
	C48.186092,91.070076 45.550293,92.765732 43.224590,96.199524 
	C40.305519,100.509415 41.896912,104.174728 44.034801,108.293060 
	C44.001919,109.085289 43.989960,109.538071 43.735329,110.214897 
	C42.647564,111.966995 41.802471,113.495049 40.957382,115.023102 
	C40.902779,109.721771 40.714600,104.466942 35.979034,100.510147 
	C36.836498,99.159508 37.746941,98.108459 38.590603,97.006287 
	C39.836224,95.378983 41.034340,93.715309 42.557808,91.757721 
	C42.862930,91.448311 43.021782,91.407829 43.021782,91.407829 
	C43.021782,91.407829 43.223724,90.970108 43.457493,90.911392 
z"/>
<path fill="#F7F7F7" opacity="1.000000" stroke="none" 
	d="
M80.980835,299.060547 
	C81.645134,292.438202 82.613541,285.826416 82.844231,279.189026 
	C82.957977,275.916229 81.708710,272.596069 81.052399,268.938049 
	C82.254227,269.664764 84.484871,270.697235 84.546097,271.845367 
	C85.025780,280.839813 86.332352,289.945709 82.171982,298.910950 
	C81.371582,299.110565 81.176208,299.085571 80.980835,299.060547 
z"/>
<path fill="#E5AD9A" opacity="1.000000" stroke="none" 
	d="
M83.928329,136.524048 
	C83.235962,135.975800 82.073967,134.970779 82.095268,133.991516 
	C82.212570,128.599091 82.619026,123.212944 82.953636,117.123680 
	C82.997467,116.236488 83.013947,116.050270 83.030434,115.864044 
	C83.674156,117.388206 85.281433,119.392403 84.801094,120.356575 
	C82.199310,125.579071 84.673676,130.886368 83.928329,136.524048 
z"/>
<path fill="#DBDAD9" opacity="1.000000" stroke="none" 
	d="
M82.110214,219.953369 
	C82.065308,222.039108 82.020409,224.124863 81.524323,226.604309 
	C80.061218,227.002518 79.049294,227.007050 78.023155,226.581360 
	C78.018974,224.430115 78.028999,222.709076 78.394867,220.983826 
	C79.870537,220.637543 80.990372,220.295456 82.110214,219.953369 
z"/>
<path fill="#D5BD90" opacity="1.000000" stroke="none" 
	d="
M82.903732,115.543320 
	C83.013947,116.050270 82.997467,116.236488 82.945419,116.700729 
	C82.183868,116.983521 81.457886,116.988289 80.367783,116.992859 
	C79.800575,114.187500 79.597488,111.382317 79.626114,108.304062 
	C80.830902,110.428185 81.803970,112.825394 82.903732,115.543320 
z"/>
<path fill="#A1A19F" opacity="1.000000" stroke="none" 
	d="
M80.674957,299.142914 
	C81.176208,299.085571 81.371582,299.110565 81.862373,299.132446 
	C81.795586,301.471100 81.433372,303.812836 80.764297,306.317444 
	C80.427986,304.061920 80.398529,301.643616 80.674957,299.142914 
z"/>
<path fill="#A1A19F" opacity="1.000000" stroke="none" 
	d="
M79.005302,320.633850 
	C78.782661,317.568268 78.857422,314.209625 78.903419,310.408661 
	C78.786140,309.188385 78.697632,308.410431 78.694534,307.436523 
	C79.000488,307.194794 79.221046,307.149078 79.779144,307.087952 
	C79.845345,311.495331 79.574028,315.918091 79.005302,320.633850 
z"/>
<path fill="#D5D4D4" opacity="1.000000" stroke="none" 
	d="
M82.060699,219.626175 
	C80.990372,220.295456 79.870537,220.637543 78.382126,220.610687 
	C78.011169,219.494461 78.008797,218.747192 78.006409,217.999908 
	C79.026299,217.998917 80.046188,217.997925 81.448517,217.995636 
	C81.891037,218.429199 81.951111,218.864105 82.060699,219.626175 
z"/>
<path fill="#CBAE83" opacity="1.000000" stroke="none" 
	d="
M59.030624,333.966919 
	C59.982262,334.790466 60.933903,335.613983 61.900810,336.782349 
	C61.015045,336.812958 60.114010,336.498718 59.119537,335.652344 
	C59.006222,334.758057 58.986347,334.395905 58.982658,334.017212 
	C58.998844,334.000702 59.030621,333.966919 59.030624,333.966919 
z"/>
<path fill="#D5D4D4" opacity="1.000000" stroke="none" 
	d="
M78.037361,227.011566 
	C79.049294,227.007050 80.061218,227.002518 81.451920,226.996155 
	C81.882240,227.443283 81.933800,227.892242 81.907883,228.673477 
	C80.815819,229.002594 79.801231,228.999435 78.399445,228.664047 
	C78.020630,227.891724 78.028999,227.451645 78.037361,227.011566 
z"/>
<path fill="#D5D4D4" opacity="1.000000" stroke="none" 
	d="
M19.733978,192.223251 
	C19.281204,193.029617 18.567038,194.026733 17.490900,195.015396 
	C17.910149,194.142624 18.691366,193.278320 19.733978,192.223251 
z"/>
<path fill="#CBAE83" opacity="1.000000" stroke="none" 
	d="
M56.121429,332.285858 
	C57.052570,332.437103 57.969116,332.879059 58.958141,333.643982 
	C59.030621,333.966919 58.998844,334.000702 58.666153,334.003448 
	C57.910267,334.000854 57.487068,333.995514 57.063877,333.990173 
	C56.744865,333.518951 56.425846,333.047760 56.121429,332.285858 
z"/>
<path fill="#CCB17F" opacity="1.000000" stroke="none" 
	d="
M56.982342,334.309631 
	C57.487068,333.995514 57.910267,334.000854 58.649967,334.019958 
	C58.986347,334.395905 59.006222,334.758057 59.049297,335.391418 
	C58.348602,335.318085 57.624706,334.973572 56.982342,334.309631 
z"/>
<path fill="#CBAE83" opacity="1.000000" stroke="none" 
	d="
M56.001953,330.058289 
	C55.996548,330.244781 55.991146,330.431305 55.956989,330.896667 
	C55.635265,330.993896 55.342293,330.812225 54.961166,330.382324 
	C54.873016,330.134094 54.993103,330.008240 55.273857,329.997314 
	C55.554607,329.986420 56.001953,330.058289 56.001953,330.058289 
z"/>
<path fill="#B0A594" opacity="1.000000" stroke="none" 
	d="
M42.955997,91.378098 
	C43.021782,91.407829 42.862930,91.448311 42.880051,91.478493 
	C42.897171,91.508675 42.890213,91.348373 42.955997,91.378098 
z"/>
<path fill="#CBAE83" opacity="1.000000" stroke="none" 
	d="
M61.965691,337.319489 
	C62.182049,337.124817 62.456932,337.257294 62.835159,337.654694 
	C62.673939,337.745209 62.369179,337.654205 61.965691,337.319489 
z"/>
<path fill="#F1DEAE" opacity="1.000000" stroke="none" 
	d="
M55.798931,164.781647 
	C57.649559,159.171631 59.628841,153.934616 60.796204,148.522476 
	C63.304901,136.891571 65.436142,125.178047 67.619125,113.479179 
	C68.011940,111.374023 67.747581,109.148521 68.112938,107.034981 
	C68.284027,106.045235 69.225327,104.443779 69.829201,104.438446 
	C70.883537,104.429138 72.670868,105.243401 72.890198,106.053772 
	C74.437798,111.771721 76.736740,117.569885 76.773369,123.355247 
	C76.854095,136.106171 76.216095,148.911865 74.952057,161.603653 
	C74.091957,170.239578 71.682510,178.722092 69.948235,187.269623 
	C69.186699,191.022949 66.311806,191.119797 63.359840,190.965881 
	C57.729755,190.672256 52.105324,190.220901 46.472050,190.053253 
	C41.885086,189.916733 37.288643,190.097473 32.696423,190.139557 
	C27.731615,190.185043 25.823689,186.301804 25.305864,182.737976 
	C23.783304,172.259232 22.509506,161.684830 22.141302,151.112930 
	C21.682076,137.927628 24.859303,125.153137 28.712763,112.611397 
	C29.413408,110.331032 30.919352,108.298111 32.053539,106.150955 
	C32.637054,106.103294 33.220570,106.055641 33.804089,106.007980 
	C34.539745,108.245628 35.787514,110.455643 35.910084,112.726379 
	C36.214897,118.373329 36.136971,124.051620 35.977779,129.710709 
	C35.643608,141.590088 39.643642,152.565689 43.266613,163.542892 
	C44.015984,165.813416 47.333221,167.967087 49.872616,168.637054 
	C51.352039,169.027359 53.637012,166.364426 55.798931,164.781647 
z"/>
<path fill="#F8F8F8" opacity="1.000000" stroke="none" 
	d="
M34.971394,193.918884 
	C35.705074,193.861465 36.438755,193.804047 37.747368,194.041656 
	C39.217232,194.552063 40.112160,194.767456 41.422737,194.989197 
	C43.223534,194.991943 44.608673,194.988327 46.406715,194.989716 
	C48.890484,194.690353 51.874126,196.128647 52.070061,192.244644 
	C55.411526,192.539246 58.752987,192.833862 62.549332,193.393204 
	C63.168026,193.870743 63.331837,194.083572 63.495644,194.296387 
	C63.689651,193.949768 63.883667,193.603149 64.077682,193.256546 
	C64.856461,193.480972 65.635239,193.705399 66.707062,194.450134 
	C68.450386,200.157990 70.073280,205.305099 71.299973,210.544983 
	C72.416481,215.314148 73.102692,220.184052 73.602203,224.948914 
	C70.221657,224.306671 67.142159,223.004181 64.230537,223.308395 
	C59.587688,223.793503 59.014378,227.875549 59.085674,231.654663 
	C59.163788,235.794617 62.491829,234.879974 65.015152,234.983978 
	C67.006721,235.066071 69.004417,234.999771 70.803253,235.326294 
	C64.833107,236.291321 59.059097,236.929428 53.285084,237.567535 
	C45.702412,229.730042 38.302959,231.373962 30.830982,237.682724 
	C25.844755,231.478683 29.135668,225.582870 31.118841,220.033630 
	C34.163288,211.514832 35.673412,202.918152 34.971394,193.918884 
z"/>
<path fill="#EEEFEF" opacity="1.000000" stroke="none" 
	d="
M30.999741,237.998169 
	C38.302959,231.373962 45.702412,229.730042 53.285084,237.567535 
	C59.059097,236.929428 64.833107,236.291321 71.118195,235.143005 
	C72.412361,231.425064 73.195473,228.217300 73.978584,225.009552 
	C73.102692,220.184052 72.416481,215.314148 71.299973,210.544983 
	C70.073280,205.305099 68.450386,200.157990 66.976212,194.613342 
	C67.749290,194.503616 68.546288,194.750977 69.653854,195.056824 
	C71.303383,197.489120 72.642342,199.862930 73.756294,202.826904 
	C74.020203,204.278503 74.509125,205.139969 74.998047,206.001450 
	C75.825066,209.860718 76.652100,213.720001 77.742767,217.789581 
	C78.008797,218.747192 78.011169,219.494461 78.026291,220.614899 
	C78.028999,222.709076 78.018974,224.430115 78.023155,226.581360 
	C78.028999,227.451645 78.020630,227.891724 78.018814,228.661835 
	C77.363548,230.753204 76.701721,232.514526 75.673676,234.718567 
	C74.871735,236.441025 74.436020,237.720749 74.000305,239.000473 
	C72.904213,239.315491 71.808128,239.630508 69.961105,239.990662 
	C66.139267,240.701447 63.068352,241.367081 59.997437,242.032715 
	C58.284595,242.030258 56.571751,242.027802 54.163097,241.760101 
	C50.884056,240.158356 48.408615,238.497711 45.682407,237.591141 
	C43.619888,236.905273 41.237228,237.182129 38.997040,237.030548 
	C37.257713,237.696457 35.518383,238.362350 33.069817,239.022583 
	C31.909122,239.016571 31.457666,239.016220 31.004066,239.010727 
	C31.001923,239.005585 31.000000,239.000000 31.000000,238.749542 
	C30.999914,238.332108 30.999826,238.165146 30.999741,237.998169 
z"/>
<path fill="#EBEBEA" opacity="1.000000" stroke="none" 
	d="
M24.996180,197.998856 
	C25.007883,197.577393 25.019587,197.155930 25.044266,196.419983 
	C27.127804,195.435608 29.198370,194.765732 31.630106,194.502045 
	C30.982832,199.828903 30.197495,204.808945 28.907927,209.654800 
	C27.388247,215.365402 25.393158,220.948044 23.674351,226.607452 
	C21.329588,234.327972 24.011225,238.820236 31.000000,239.000000 
	C31.000000,239.000000 31.001923,239.005585 31.002672,239.383972 
	C31.003250,240.509918 31.003078,241.257492 31.002907,242.005051 
	C29.943542,242.011307 28.884180,242.017563 27.021255,242.016235 
	C25.135183,242.014572 24.052670,242.020493 22.970156,242.026428 
	C22.531199,242.023483 22.092241,242.020538 21.279287,241.649170 
	C16.923077,234.004059 16.966328,226.749832 20.737652,219.362244 
	C21.344128,218.174240 20.928093,216.464233 20.984730,214.995529 
	C20.987532,214.551956 20.990334,214.108383 21.345165,213.255554 
	C22.456829,209.895554 23.216459,206.944824 23.976093,203.994095 
	C23.980387,203.244827 23.984678,202.495544 24.307117,201.317688 
	C24.748903,199.925690 24.872541,198.962280 24.996180,197.998856 
z"/>
<path fill="#F3F3F3" opacity="1.000000" stroke="none" 
	d="
M31.000000,238.749542 
	C24.011225,238.820236 21.329588,234.327972 23.674351,226.607452 
	C25.393158,220.948044 27.388247,215.365402 28.907927,209.654800 
	C30.197495,204.808945 30.982832,199.828903 32.010448,194.541351 
	C32.763622,194.067795 33.497623,193.961105 34.601509,193.886642 
	C35.673412,202.918152 34.163288,211.514832 31.118841,220.033630 
	C29.135668,225.582870 25.844755,231.478683 30.830982,237.682724 
	C30.999826,238.165146 30.999914,238.332108 31.000000,238.749542 
z"/>
<path fill="#AB885B" opacity="1.000000" stroke="none" 
	d="
M54.232132,149.920517 
	C53.164780,153.263031 52.097427,156.605560 50.737312,160.864883 
	C42.175423,151.652496 40.638180,141.607117 41.264610,130.500504 
	C42.118252,129.998062 42.601929,129.977554 43.294533,130.155762 
	C43.659767,130.901566 43.816067,131.448639 43.662243,132.064484 
	C43.903038,136.087067 44.453960,140.040878 45.051361,144.360855 
	C47.394501,151.482956 47.689037,151.650421 54.232132,149.920517 
z"/>
<path fill="#B29267" opacity="1.000000" stroke="none" 
	d="
M43.085602,129.957062 
	C42.601929,129.977554 42.118252,129.998062 41.271080,130.044983 
	C40.907578,130.071396 40.918228,130.079422 40.940628,129.630005 
	C40.935375,127.398750 40.907726,125.616898 40.880074,123.835045 
	C40.898132,121.191887 40.916195,118.548721 40.945816,115.464333 
	C41.802471,113.495049 42.647564,111.966995 43.964569,110.430832 
	C43.986195,116.934166 43.535900,123.445610 43.085602,129.957062 
z"/>
<path fill="#B79C75" opacity="1.000000" stroke="none" 
	d="
M60.037865,120.983627 
	C60.519798,121.247269 61.001736,121.510902 61.737022,121.879822 
	C61.304054,127.024376 60.774178,132.093964 59.807804,137.078934 
	C59.598598,138.158112 57.820515,138.933136 56.368446,139.954865 
	C55.971836,140.061493 55.825577,139.948166 55.919598,139.581055 
	C56.591011,136.750412 57.168404,134.286880 57.785149,131.439667 
	C58.158337,129.034882 58.492165,127.013786 59.112450,124.767738 
	C59.611889,123.356392 59.824879,122.170013 60.037865,120.983627 
z"/>
<path fill="#B49263" opacity="1.000000" stroke="none" 
	d="
M54.388092,149.625778 
	C47.689037,151.650421 47.394501,151.482956 45.396812,144.435455 
	C49.726936,149.497314 52.306324,149.165955 55.083672,142.673737 
	C55.499508,141.820923 55.777840,141.249863 56.056171,140.678802 
	C58.401451,144.060852 56.254940,146.657883 54.388092,149.625778 
z"/>
<path fill="#CBAE7E" opacity="1.000000" stroke="none" 
	d="
M56.065315,140.560089 
	C55.777840,141.249863 55.499508,141.820923 54.709007,142.741150 
	C48.762699,144.631180 47.389324,143.933350 45.985744,138.762497 
	C45.559948,137.193848 45.347702,135.567245 45.379219,134.053070 
	C47.668865,138.545715 50.063488,142.175705 55.825577,139.948166 
	C55.825577,139.948166 55.971836,140.061493 56.034775,140.132935 
	C56.097710,140.204391 56.074463,140.441376 56.065315,140.560089 
z"/>
<path fill="#EBEBEA" opacity="1.000000" stroke="none" 
	d="
M51.643250,192.149765 
	C51.874126,196.128647 48.890484,194.690353 46.409195,194.631012 
	C46.005169,193.552246 46.011566,192.837219 46.017960,192.122177 
	C47.750786,192.099747 49.483608,192.077316 51.643250,192.149765 
z"/>
<path fill="#E6E6E6" opacity="1.000000" stroke="none" 
	d="
M45.633652,192.069305 
	C46.011566,192.837219 46.005169,193.552246 45.996296,194.626007 
	C44.608673,194.988327 43.223534,194.991943 41.420189,194.664337 
	C41.002846,193.899765 41.003712,193.466431 41.004570,193.033081 
	C42.419495,192.694199 43.834415,192.355331 45.633652,192.069305 
z"/>
<path fill="#B49A77" opacity="1.000000" stroke="none" 
	d="
M40.542740,123.973732 
	C40.907726,125.616898 40.935375,127.398750 40.929253,129.622620 
	C37.872414,128.404373 38.646702,126.303871 40.542740,123.973732 
z"/>
<path fill="#EBEBEA" opacity="1.000000" stroke="none" 
	d="
M40.675137,193.018524 
	C41.003712,193.466431 41.002846,193.899765 41.004536,194.657990 
	C40.112160,194.767456 39.217232,194.552063 38.115562,194.043793 
	C38.721111,193.501938 39.533405,193.252945 40.675137,193.018524 
z"/>
<path fill="#E6E6E6" opacity="1.000000" stroke="none" 
	d="
M63.791054,193.200226 
	C63.883667,193.603149 63.689651,193.949768 63.495644,194.296387 
	C63.331837,194.083572 63.168026,193.870743 62.965996,193.447845 
	C63.119991,193.206467 63.312206,193.175186 63.791054,193.200226 
z"/>
<path fill="#CDB386" opacity="1.000000" stroke="none" 
	d="
M72.518303,190.530457 
	C72.480400,190.550018 72.556206,190.510910 72.518303,190.530457 
z"/>
<path fill="#F8F8F8" opacity="1.000000" stroke="none" 
	d="
M47.006058,274.001221 
	C47.728668,271.006927 47.611660,266.181458 49.343166,265.387543 
	C53.334961,263.557251 58.274879,262.936676 62.734932,263.237366 
	C66.844131,263.514435 71.058319,265.174347 74.817543,267.045990 
	C81.222092,270.234711 80.368683,282.571350 72.995819,286.998657 
	C71.878189,287.028412 71.441032,287.018646 70.669861,287.003937 
	C69.890709,286.999023 69.445580,286.999054 68.615128,286.939148 
	C64.852516,285.986053 61.475250,285.092865 57.710712,284.097260 
	C58.966953,282.291656 59.817295,281.069489 60.667641,279.847290 
	C60.492138,279.547577 60.316639,279.247864 60.141136,278.948151 
	C58.424259,279.627838 56.707382,280.307495 54.669960,280.816345 
	C52.255268,280.084778 50.161121,279.523987 48.010277,278.602844 
	C47.637741,276.828766 47.321896,275.414978 47.006058,274.001221 
M63.516769,277.191162 
	C63.232841,277.596100 62.948917,278.001007 62.664997,278.405945 
	C63.083202,278.511261 63.501408,278.616577 63.919621,278.721893 
	C63.971363,278.251129 64.023102,277.780365 63.516769,277.191162 
z"/>
<path fill="#F7F7F7" opacity="1.000000" stroke="none" 
	d="
M39.981323,287.969757 
	C38.747864,288.742157 37.514400,289.514557 35.805286,290.614655 
	C34.901386,290.948883 34.473133,290.955414 34.044884,290.961914 
	C32.681602,289.476929 31.424576,287.871918 29.923256,286.542847 
	C28.592562,285.364899 26.990347,284.493652 25.102238,282.910583 
	C23.871878,280.102905 23.047285,277.871582 22.222692,275.640228 
	C21.707369,275.781311 21.192043,275.922424 20.676720,276.063507 
	C21.452103,278.375641 22.227486,280.687805 23.002869,282.999969 
	C23.405302,286.806488 21.300215,288.305603 17.922220,287.893524 
	C14.240932,287.444397 13.546604,284.804443 14.281531,281.593689 
	C15.991298,274.124054 20.410711,269.087402 28.003222,267.575562 
	C32.338161,266.712402 36.920467,263.999146 41.618732,267.923676 
	C42.000198,268.002045 41.969769,268.041290 41.969769,268.041290 
	C42.734337,269.921356 43.498905,271.801392 44.594978,274.187256 
	C44.939049,275.126160 44.951611,275.559296 44.764713,276.154999 
	C44.723656,276.875488 44.882061,277.433350 45.035378,278.368378 
	C45.048214,279.499542 45.066139,280.253571 44.815025,281.240234 
	C44.016281,283.303864 43.486576,285.134888 42.626953,286.976624 
	C41.525127,287.314850 40.753227,287.642303 39.981323,287.969757 
z"/>
<path fill="#F7F7F7" opacity="1.000000" stroke="none" 
	d="
M43.993645,307.006866 
	C41.575203,305.339783 39.156761,303.672699 36.369160,302.002808 
	C36.000000,302.000000 36.014492,301.986603 36.014492,301.986603 
	C32.468578,296.923035 36.948421,294.488037 40.091618,291.159546 
	C42.819828,289.950165 44.933578,288.995270 47.491821,288.034180 
	C50.624523,288.017853 53.312733,288.007721 56.440750,287.999695 
	C59.920166,288.334991 62.959778,288.668121 65.999329,289.437592 
	C66.000252,291.915253 66.001244,293.956573 65.637436,296.046478 
	C61.477932,297.638489 56.615784,298.064362 56.616364,304.003448 
	C52.148224,305.013397 48.070930,306.010132 43.993645,307.006866 
z"/>
<path fill="#F7F7F7" opacity="1.000000" stroke="none" 
	d="
M25.984840,292.048706 
	C26.424274,294.220551 26.616226,296.484131 27.376856,298.536957 
	C28.057127,300.372925 29.364534,301.976471 31.063667,303.839355 
	C32.823696,304.327362 33.915287,304.658630 35.002235,305.378174 
	C33.724976,307.110962 32.455524,309.614166 31.179232,309.617645 
	C20.506809,309.646851 15.466178,303.082336 18.373301,292.913483 
	C21.174288,292.588715 23.579563,292.318695 25.984840,292.048706 
z"/>
<path fill="#EEEEEE" opacity="1.000000" stroke="none" 
	d="
M17.977592,292.968262 
	C15.466178,303.082336 20.506809,309.646851 31.179232,309.617645 
	C32.455524,309.614166 33.724976,307.110962 35.248867,305.377991 
	C35.500141,304.989594 35.993553,304.992035 35.993557,304.992035 
	C37.173744,306.595825 39.500046,308.398132 39.264748,309.756775 
	C38.914227,311.780792 37.543621,314.419495 33.927944,312.418427 
	C31.416597,311.028503 28.280657,310.611053 25.362181,310.143707 
	C18.181126,308.993744 15.440436,304.241516 14.703059,297.666840 
	C14.630428,297.019226 14.310485,296.399353 14.221465,295.086426 
	C15.550934,293.926941 16.764265,293.447601 17.977592,292.968262 
z"/>
<path fill="#EFEFEF" opacity="1.000000" stroke="none" 
	d="
M44.057655,307.381958 
	C48.070930,306.010132 52.148224,305.013397 57.045338,304.007996 
	C59.586433,304.016785 61.307713,304.034241 63.028984,304.051666 
	C62.150246,305.125854 61.458942,306.836670 60.359257,307.160431 
	C56.310669,308.352509 52.155083,309.298645 47.975510,309.852966 
	C46.804176,310.008331 45.412357,308.501465 44.057655,307.381958 
z"/>
<path fill="#FDFDFD" opacity="1.000000" stroke="none" 
	d="
M63.373940,303.992554 
	C61.307713,304.034241 59.586433,304.016785 57.436180,303.994812 
	C56.615784,298.064362 61.477932,297.638489 65.970413,296.046936 
	C67.112328,295.999176 67.556465,295.999573 68.004700,296.340210 
	C68.031929,297.133911 68.055084,297.587402 68.078232,298.040894 
	C66.625107,300.005066 65.171997,301.969238 63.373940,303.992554 
z"/>
<path fill="#DCDCDC" opacity="1.000000" stroke="none" 
	d="
M18.373304,292.913513 
	C16.764265,293.447601 15.550934,293.926941 14.167382,294.701904 
	C13.258864,295.240845 12.520568,295.484161 11.782270,295.727448 
	C11.479660,295.269012 11.177050,294.810577 10.874438,294.352112 
	C13.113728,292.929932 15.223689,291.205505 17.630829,290.175568 
	C19.784945,289.253906 22.253531,288.931152 24.614918,288.745728 
	C25.082724,288.708954 25.693808,290.496429 26.111830,291.745697 
	C23.579563,292.318695 21.174288,292.588715 18.373304,292.913513 
z"/>
<path fill="#EFEFEF" opacity="1.000000" stroke="none" 
	d="
M68.000610,296.000000 
	C67.556465,295.999573 67.112328,295.999176 66.335205,295.998291 
	C66.001244,293.956573 66.000252,291.915253 66.375160,289.436707 
	C67.502693,289.001282 68.254318,289.003082 69.335297,289.005463 
	C70.103073,289.008911 70.541504,289.011810 70.978531,289.262939 
	C70.977112,289.511230 70.992302,290.007568 70.992302,290.007568 
	C70.995705,290.449799 70.999115,290.891998 70.716919,291.822571 
	C69.621086,293.540588 68.810844,294.770294 68.000610,296.000000 
z"/>
<path fill="#DEDEDE" opacity="1.000000" stroke="none" 
	d="
M47.047325,288.040344 
	C44.933578,288.995270 42.819828,289.950165 40.351868,290.954651 
	C39.995045,290.245972 39.992439,289.487671 39.985580,288.349579 
	C40.753227,287.642303 41.525127,287.314850 42.998940,286.988434 
	C44.816334,287.339783 45.931828,287.690063 47.047325,288.040344 
z"/>
<path fill="#E8E8E8" opacity="1.000000" stroke="none" 
	d="
M23.334997,283.000183 
	C22.227486,280.687805 21.452103,278.375641 20.676720,276.063507 
	C21.192043,275.922424 21.707369,275.781311 22.222692,275.640228 
	C23.047285,277.871582 23.871878,280.102905 24.846012,282.668335 
	C24.552748,283.001770 24.109936,283.001099 23.334997,283.000183 
z"/>
<path fill="#DEDEDE" opacity="1.000000" stroke="none" 
	d="
M45.084064,281.007599 
	C45.066139,280.253571 45.048214,279.499542 45.236687,278.208557 
	C45.283447,277.111877 45.123810,276.552124 44.964176,275.992401 
	C44.951611,275.559296 44.939049,275.126160 44.890167,274.370636 
	C45.332584,274.032318 45.811321,274.016418 46.648056,274.000854 
	C47.321896,275.414978 47.637741,276.828766 47.991894,278.939453 
	C48.029724,280.084869 48.029251,280.533325 47.852154,281.200684 
	C46.811707,281.282257 45.947884,281.144928 45.084064,281.007599 
z"/>
<path fill="#EFEFEF" opacity="1.000000" stroke="none" 
	d="
M68.004700,296.340210 
	C68.810844,294.770294 69.621086,293.540588 70.719223,292.154205 
	C72.491661,294.815979 71.775604,296.822296 68.436394,298.016785 
	C68.055084,297.587402 68.031929,297.133911 68.004700,296.340210 
z"/>
<path fill="#DEDEDE" opacity="1.000000" stroke="none" 
	d="
M35.997643,304.616486 
	C35.993553,304.992035 35.500141,304.989594 35.253510,304.989746 
	C33.915287,304.658630 32.823696,304.327362 31.370321,303.990662 
	C32.414734,303.322021 33.820930,302.658844 35.620808,301.991150 
	C36.014492,301.986603 36.000000,302.000000 36.006695,301.992737 
	C36.009502,302.737305 36.005615,303.489136 35.997643,304.616486 
z"/>
<path fill="#DEDEDE" opacity="1.000000" stroke="none" 
	d="
M41.982010,268.016266 
	C41.827656,266.807678 41.691490,265.584869 41.555328,264.362061 
	C42.166389,264.390350 42.777451,264.418640 43.388515,264.446960 
	C43.144695,265.587921 42.900875,266.728912 42.313416,267.955566 
	C41.969769,268.041290 42.000198,268.002045 41.982010,268.016266 
z"/>
<path fill="#DEDEDE" opacity="1.000000" stroke="none" 
	d="
M33.719666,291.032227 
	C34.473133,290.955414 34.901386,290.948883 35.649803,290.914307 
	C34.846119,291.707977 33.722271,292.529724 32.598419,293.351440 
	C32.863762,292.601776 33.129105,291.852142 33.719666,291.032227 
z"/>
<path fill="#DEDEDE" opacity="1.000000" stroke="none" 
	d="
M71.325417,289.941223 
	C70.992302,290.007568 70.977112,289.511230 70.986526,288.927704 
	C70.998596,287.899078 71.001236,287.453979 71.003883,287.008881 
	C71.441032,287.018646 71.878189,287.028412 72.641983,287.060730 
	C72.531937,288.013824 72.095230,288.944366 71.325417,289.941223 
z"/>
<path fill="#E6E6E6" opacity="1.000000" stroke="none" 
	d="
M20.672825,215.179810 
	C20.928093,216.464233 21.344128,218.174240 20.737652,219.362244 
	C16.966328,226.749832 16.923077,234.004059 20.950087,241.644989 
	C19.334423,239.829224 16.693359,237.849945 16.198298,235.431366 
	C14.742595,228.319702 17.125937,221.679626 20.672825,215.179810 
z"/>
<path fill="#E6E6E6" opacity="1.000000" stroke="none" 
	d="
M39.232468,237.279449 
	C41.237228,237.182129 43.619888,236.905273 45.682407,237.591141 
	C48.408615,238.497711 50.884056,240.158356 53.735016,241.763458 
	C50.890163,243.757614 48.159977,243.404846 45.394863,241.021683 
	C43.685421,239.548370 41.461090,238.672470 39.232468,237.279449 
z"/>
<path fill="#E6E6E6" opacity="1.000000" stroke="none" 
	d="
M60.284416,242.292542 
	C63.068352,241.367081 66.139267,240.701447 69.619720,240.034729 
	C67.700623,243.967331 64.088943,243.083115 60.284416,242.292542 
z"/>
<path fill="#E6E6E6" opacity="1.000000" stroke="none" 
	d="
M23.704922,204.227081 
	C23.216459,206.944824 22.456829,209.895554 21.348038,212.922867 
	C21.810501,210.152985 22.622126,207.306519 23.704922,204.227081 
z"/>
<path fill="#D5D4D4" opacity="1.000000" stroke="none" 
	d="
M17.976265,207.619354 
	C18.141449,209.223450 17.993284,210.840363 17.845118,212.457260 
	C17.335215,212.366776 16.825310,212.276291 16.315407,212.185791 
	C16.764576,210.667908 17.213745,209.150024 17.976265,207.619354 
z"/>
<path fill="#E6E6E6" opacity="1.000000" stroke="none" 
	d="
M23.052162,242.360443 
	C24.052670,242.020493 25.135183,242.014572 26.623997,242.017792 
	C26.124678,244.543701 24.801579,244.623871 23.052162,242.360443 
z"/>
<path fill="#E6E6E6" opacity="1.000000" stroke="none" 
	d="
M74.300140,238.835251 
	C74.436020,237.720749 74.871735,236.441025 75.658813,235.084747 
	C75.540115,236.228790 75.070045,237.449402 74.300140,238.835251 
z"/>
<path fill="#E6E6E6" opacity="1.000000" stroke="none" 
	d="
M31.337978,241.939362 
	C31.003078,241.257492 31.003250,240.509918 31.004818,239.389114 
	C31.457666,239.016220 31.909122,239.016571 32.699787,239.029968 
	C32.583683,239.986572 32.128365,240.930130 31.337978,241.939362 
z"/>
<path fill="#E6E6E6" opacity="1.000000" stroke="none" 
	d="
M24.749113,198.218338 
	C24.872541,198.962280 24.748903,199.925690 24.309483,200.943054 
	C24.163151,200.143936 24.332600,199.290878 24.749113,198.218338 
z"/>
<path fill="#DDBD85" opacity="1.000000" stroke="none" 
	d="
M71.623291,316.141418 
	C72.919090,317.054810 74.911209,318.336975 74.739014,319.173706 
	C74.045799,322.542053 74.314018,326.731293 69.029190,328.033844 
	C64.944374,327.586761 61.511234,327.375427 58.237225,326.540283 
	C51.059711,324.709351 47.736427,325.954590 45.007618,332.009583 
	C45.007618,332.009583 45.006092,332.504791 44.664536,332.817017 
	C43.281132,334.149872 42.308723,335.255371 41.184517,336.175323 
	C37.672764,339.049164 33.127129,338.540314 30.404568,335.011597 
	C40.159069,337.201691 44.217030,333.567871 42.333218,324.998474 
	C43.445835,324.662598 44.223679,324.331909 45.373314,323.999573 
	C46.846474,323.338043 47.947842,322.678131 49.049210,322.018250 
	C57.023514,322.255096 64.707741,321.360901 71.623291,316.141418 
z"/>
<path fill="#D7B883" opacity="1.000000" stroke="none" 
	d="
M30.001146,334.998779 
	C33.127129,338.540314 37.672764,339.049164 41.184517,336.175323 
	C42.308723,335.255371 43.281132,334.149872 44.662163,333.064636 
	C44.081879,338.019867 40.771435,340.368774 35.965652,340.596863 
	C31.546038,340.806549 27.414970,337.487183 25.798359,332.702911 
	C24.911921,330.079529 24.268625,327.374023 23.519379,324.718567 
	C24.312738,323.431061 25.148577,322.074585 25.999115,320.356537 
	C26.751553,320.027557 27.489290,320.060181 28.669552,320.420776 
	C30.072805,320.849487 31.033535,320.950287 31.994263,321.051086 
	C32.546581,321.206421 33.098900,321.361786 33.743378,322.104858 
	C32.888702,323.129395 31.978920,323.809387 30.988514,323.960327 
	C27.010935,324.566528 26.183558,326.595123 27.999886,330.332947 
	C28.002375,331.109863 28.004082,331.553833 28.038364,332.316223 
	C28.714191,333.422729 29.357441,334.210754 30.000345,334.999390 
	C30.000000,335.000000 30.001146,334.998779 30.001146,334.998779 
z"/>
<path fill="#D7B883" opacity="1.000000" stroke="none" 
	d="
M45.347710,331.964355 
	C47.736427,325.954590 51.059711,324.709351 58.237225,326.540283 
	C61.511234,327.375427 64.944374,327.586761 68.659515,328.048187 
	C66.848465,331.730682 63.548222,331.228149 60.147156,330.425079 
	C58.984783,330.150665 57.799740,329.972260 56.313507,329.904144 
	C56.001953,330.058289 55.554607,329.986420 55.334450,329.934967 
	C53.578320,327.211426 51.761101,326.823273 49.431099,329.030579 
	C48.292755,330.108948 46.942257,330.963348 45.347710,331.964355 
z"/>
<path fill="#DDBD85" opacity="1.000000" stroke="none" 
	d="
M27.999102,330.000000 
	C26.183558,326.595123 27.010935,324.566528 30.988514,323.960327 
	C31.978920,323.809387 32.888702,323.129395 33.932861,322.327209 
	C35.082661,321.977112 36.135143,321.992340 37.588043,322.394684 
	C37.992039,323.521942 37.995609,324.262085 37.702972,325.271027 
	C34.197754,326.872314 29.043482,324.101715 27.999102,330.000000 
z"/>
<path fill="#D7B883" opacity="1.000000" stroke="none" 
	d="
M37.999180,325.002197 
	C37.995609,324.262085 37.992039,323.521942 37.982994,322.412933 
	C40.018745,322.025482 42.059967,322.006958 44.545601,322.329468 
	C44.993851,323.114105 44.997688,323.557648 45.001526,324.001221 
	C44.223679,324.331909 43.445835,324.662598 41.933353,324.997711 
	C40.132202,325.002136 39.065693,325.002167 37.999180,325.002197 
z"/>
<path fill="#CBAE83" opacity="1.000000" stroke="none" 
	d="
M45.373318,323.999573 
	C44.997688,323.557648 44.993851,323.114105 44.982063,322.338013 
	C46.060345,321.997375 47.146576,321.989258 48.641010,321.999695 
	C47.947842,322.678131 46.846474,323.338043 45.373318,323.999573 
z"/>
<path fill="#CBAE83" opacity="1.000000" stroke="none" 
	d="
M31.777771,320.795044 
	C31.033535,320.950287 30.072805,320.849487 29.037489,320.455109 
	C29.829029,320.287354 30.695154,320.413147 31.777771,320.795044 
z"/>
<path fill="#F1DEAE" opacity="1.000000" stroke="none" 
	d="
M58.825993,124.992699 
	C58.492165,127.013786 58.158337,129.034882 57.449020,131.545288 
	C50.312424,135.202286 48.241932,134.293564 47.258301,126.873413 
	C46.677505,122.492081 47.344776,117.952858 46.877518,113.545418 
	C46.671650,111.603584 45.040035,109.812912 44.055725,107.953606 
	C41.896912,104.174728 40.305519,100.509415 43.224590,96.199524 
	C45.550293,92.765732 48.186092,91.070076 52.661880,92.587456 
	C53.596256,93.593987 54.171410,94.510262 54.872749,96.044838 
	C55.357204,97.403297 55.715466,98.143456 56.073727,98.883614 
	C56.722855,102.627853 57.371983,106.372101 58.023552,110.988190 
	C58.292656,116.237587 58.559322,120.615143 58.825993,124.992699 
z"/>
<path fill="#D5BD90" opacity="1.000000" stroke="none" 
	d="
M59.112450,124.767738 
	C58.559322,120.615143 58.292656,116.237587 58.058872,111.389297 
	C58.733349,113.997414 59.374939,117.076256 60.027199,120.569366 
	C59.824879,122.170013 59.611889,123.356392 59.112450,124.767738 
z"/>
<path fill="#D5BD90" opacity="1.000000" stroke="none" 
	d="
M56.063484,98.561630 
	C55.715466,98.143456 55.357204,97.403297 55.020298,96.330215 
	C55.378849,96.744736 55.716045,97.492195 56.063484,98.561630 
z"/>
<path fill="#E6E6E6" opacity="1.000000" stroke="none" 
	d="
M74.996994,205.666626 
	C74.509125,205.139969 74.020203,204.278503 73.769089,203.208206 
	C74.336571,203.776855 74.666252,204.554321 74.996994,205.666626 
z"/>
<path fill="#D5BD90" opacity="1.000000" stroke="none" 
	d="
M44.034801,108.293060 
	C45.040035,109.812912 46.671650,111.603584 46.877518,113.545418 
	C47.344776,117.952858 46.677505,122.492081 47.258301,126.873413 
	C48.241932,134.293564 50.312424,135.202286 57.409668,131.928986 
	C57.168404,134.286880 56.591011,136.750412 55.919598,139.581055 
	C50.063488,142.175705 47.668865,138.545715 45.341919,133.759827 
	C44.632820,132.919022 44.302593,132.457382 43.972366,131.995728 
	C43.816067,131.448639 43.659767,130.901566 43.294533,130.155762 
	C43.535900,123.445610 43.986195,116.934166 44.207245,110.206787 
	C43.989960,109.538071 44.001919,109.085289 44.034801,108.293060 
z"/>
<path fill="#FDFDFD" opacity="1.000000" stroke="none" 
	d="
M73.602203,224.948914 
	C73.195473,228.217300 72.412361,231.425064 71.314323,234.816101 
	C69.004417,234.999771 67.006721,235.066071 65.015152,234.983978 
	C62.491829,234.879974 59.163788,235.794617 59.085674,231.654663 
	C59.014378,227.875549 59.587688,223.793503 64.230537,223.308395 
	C67.142159,223.004181 70.221657,224.306671 73.602203,224.948914 
z"/>
<path fill="#BF9F6E" opacity="1.000000" stroke="none" 
	d="
M43.662239,132.064484 
	C44.302593,132.457382 44.632820,132.919022 45.000343,133.673920 
	C45.347702,135.567245 45.559948,137.193848 45.985744,138.762497 
	C47.389324,143.933350 48.762699,144.631180 54.571503,143.022903 
	C52.306324,149.165955 49.726936,149.497314 45.350334,144.069275 
	C44.453960,140.040878 43.903038,136.087067 43.662239,132.064484 
z"/>
<path fill="#DEDEDE" opacity="1.000000" stroke="none" 
	d="
M69.005951,289.004883 
	C68.254318,289.003082 67.502693,289.001282 66.375229,289.000336 
	C62.959778,288.668121 59.920166,288.334991 56.395748,287.651855 
	C55.245701,285.855133 54.580460,284.408356 54.045551,282.712006 
	C54.447422,281.970642 54.718964,281.478912 54.990505,280.987183 
	C56.707382,280.307495 58.424259,279.627838 60.141136,278.948151 
	C60.316639,279.247864 60.492138,279.547577 60.667641,279.847290 
	C59.817295,281.069489 58.966953,282.291656 57.710712,284.097260 
	C61.475250,285.092865 64.852516,285.986053 68.615341,287.273315 
	C69.002586,288.113190 69.004265,288.559052 69.005951,289.004883 
z"/>
<path fill="#EEEEEE" opacity="1.000000" stroke="none" 
	d="
M54.669960,280.816345 
	C54.718964,281.478912 54.447422,281.970642 53.689461,282.707367 
	C51.478283,282.295471 49.753532,281.638641 48.028778,280.981812 
	C48.029251,280.533325 48.029724,280.084869 48.048584,279.299805 
	C50.161121,279.523987 52.255268,280.084778 54.669960,280.816345 
z"/>
<path fill="#DEDEDE" opacity="1.000000" stroke="none" 
	d="
M63.795807,277.250366 
	C64.023102,277.780365 63.971363,278.251129 63.919617,278.721893 
	C63.501408,278.616577 63.083202,278.511261 62.664993,278.405945 
	C62.948917,278.001007 63.232841,277.596100 63.795807,277.250366 
z"/>
<path fill="#E6E6E6" opacity="1.000000" stroke="none" 
	d="
M69.335297,289.005463 
	C69.004265,288.559052 69.002586,288.113190 69.000679,287.333221 
	C69.445580,286.999054 69.890709,286.999023 70.669861,287.003937 
	C71.001236,287.453979 70.998596,287.899078 70.987946,288.679443 
	C70.541504,289.011810 70.103073,289.008911 69.335297,289.005463 
z"/>
<path fill="#E6E6E6" opacity="1.000000" stroke="none" 
	d="
M47.852158,281.200684 
	C49.753532,281.638641 51.478283,282.295471 53.559128,282.956970 
	C54.580460,284.408356 55.245701,285.855133 55.955944,287.649719 
	C53.312733,288.007721 50.624523,288.017853 47.491814,288.034180 
	C45.931828,287.690063 44.816334,287.339783 43.328857,286.977722 
	C43.486576,285.134888 44.016281,283.303864 44.815025,281.240234 
	C45.947884,281.144928 46.811707,281.282257 47.852158,281.200684 
z"/>
<path fill="#E6E6E6" opacity="1.000000" stroke="none" 
	d="
M44.764713,276.154999 
	C45.123810,276.552124 45.283447,277.111877 45.241776,277.831421 
	C44.882061,277.433350 44.723656,276.875488 44.764713,276.154999 
z"/>
<path fill="#E0C087" opacity="1.000000" stroke="none" 
	d="
M37.702972,325.271027 
	C39.065693,325.002167 40.132202,325.002136 41.598579,325.002869 
	C44.217030,333.567871 40.159069,337.201691 30.404568,335.011597 
	C30.001146,334.998779 30.000000,335.000000 29.991699,334.651184 
	C29.324196,333.534149 28.664993,332.765961 28.005789,331.997772 
	C28.004082,331.553833 28.002375,331.109863 27.999886,330.332947 
	C29.043482,324.101715 34.197754,326.872314 37.702972,325.271027 
z"/>
<path fill="#DDBD85" opacity="1.000000" stroke="none" 
	d="
M28.038368,332.316223 
	C28.664993,332.765961 29.324196,333.534149 29.992043,334.650574 
	C29.357441,334.210754 28.714191,333.422729 28.038368,332.316223 
z"/>
</svg>