<svg version="1.1" id="Layer_1" xmlns="http://www.w3.org/2000/svg" xmlns:xlink="http://www.w3.org/1999/xlink" x="0px" y="0px"
	 width="100%" viewBox="0 0 91 405" enable-background="new 0 0 91 405" xml:space="preserve">
<path fill="#D4D4D4" opacity="1.000000" stroke="none" 
	d="
M26.939823,310.155792 
	C21.028030,299.970276 18.367819,288.972565 20.628199,277.412964 
	C21.264755,274.157593 24.613897,270.972870 27.476309,268.716705 
	C32.162125,265.023285 37.215969,261.595551 42.572777,259.002167 
	C50.421467,255.202347 57.929062,257.465912 64.884445,262.062103 
	C65.396477,262.400482 65.945374,262.682678 66.462479,263.013855 
	C81.213860,272.461548 83.905998,280.487091 77.753662,297.377045 
	C75.240456,304.276520 72.419731,311.063995 69.166443,317.747070 
	C64.973000,316.779663 63.983379,319.368164 62.978024,321.956329 
	C62.977562,321.975708 62.943188,321.974091 62.589821,321.980225 
	C61.156345,321.672516 60.076237,321.358673 59.161770,320.748383 
	C65.946457,316.373840 69.176865,309.836609 72.008324,302.616394 
	C73.014153,299.157074 74.004692,296.080109 74.976181,292.620300 
	C73.758179,291.366547 72.680214,290.097656 71.340340,289.690338 
	C63.501747,287.307373 55.486984,284.978851 47.278461,286.172729 
	C42.385208,286.884430 37.743328,289.324402 32.572769,290.988342 
	C30.771460,290.988068 29.385836,290.986847 27.797916,290.783661 
	C26.878733,290.931366 26.161842,291.281036 25.444954,291.630676 
	C25.959618,292.089874 26.474281,292.549072 26.989569,293.382385 
	C26.989851,294.504852 26.989510,295.253143 26.797585,296.187988 
	C27.065996,296.919220 27.525990,297.463928 28.230362,298.263916 
	C28.645164,299.680969 28.815592,300.842743 28.781376,302.194397 
	C29.053352,303.254944 29.529970,304.125610 30.337349,304.998810 
	C31.108084,305.004639 31.548058,305.007935 31.985603,305.421326 
	C32.851540,308.424744 33.325634,311.249115 34.678776,313.558411 
	C36.819962,317.212677 39.549973,320.521912 41.682442,323.937683 
	C40.203884,323.607178 39.073708,323.316162 37.644363,322.961914 
	C36.884060,322.292725 36.422928,321.686798 35.904312,320.740967 
	C33.130054,315.930359 30.413277,311.459595 27.538925,306.729523 
	C27.344566,307.841064 27.142195,308.998444 26.939823,310.155792 
M45.831135,273.045288 
	C46.871216,273.045441 47.911301,273.045624 49.205273,273.776123 
	C54.998070,275.198486 60.756248,276.797729 66.603462,277.942017 
	C68.509529,278.315033 71.901176,278.149933 72.440575,277.107056 
	C73.950020,274.188751 72.483994,271.752014 68.842171,270.278473 
	C67.585693,269.818298 66.329224,269.358093 64.921432,268.199738 
	C62.327930,267.094849 59.734428,265.989929 56.921368,264.243164 
	C55.947765,263.828369 54.974167,263.413574 53.112766,262.977539 
	C50.743393,262.989441 48.374020,263.001373 45.252331,263.005890 
	C43.455151,263.967743 41.657967,264.929596 39.188919,266.010162 
	C37.792561,266.673431 36.396202,267.336700 34.444561,268.267303 
	C33.608822,269.157379 32.773083,270.047455 31.241514,271.089935 
	C28.401241,273.959198 28.778717,276.192871 32.326603,277.511139 
	C34.461620,278.304382 43.346462,275.185547 45.831135,273.045288 
M29.469587,283.767975 
	C30.248234,284.447693 31.347780,285.864716 31.753708,285.688049 
	C34.494595,284.495117 37.088623,282.964752 39.730175,281.543579 
	C39.553162,281.153931 39.376148,280.764282 39.199135,280.374634 
	C36.113876,281.318909 33.028622,282.263184 29.469587,283.767975 
M63.681648,280.825806 
	C62.383766,280.429993 61.085884,280.034149 59.787998,279.638336 
	C59.642761,280.118591 59.497520,280.598877 59.352280,281.079163 
	C60.689926,281.897034 61.974380,282.833221 63.393032,283.470947 
	C63.914917,283.705566 64.753723,283.235229 65.447975,283.086426 
	C65.053268,282.444641 64.658562,281.802826 63.681648,280.825806 
M43.652508,278.977539 
	C43.192638,279.082062 42.732765,279.186615 42.272903,279.291138 
	C42.478580,279.658508 42.684258,280.025909 42.889931,280.393311 
	C43.184902,280.096283 43.479877,279.799255 43.652508,278.977539 
M70.251930,312.534454 
	C70.060318,312.808350 69.868706,313.082275 69.677101,313.356171 
	C69.961723,313.180511 70.246346,313.004852 70.251930,312.534454 
z"/>
<path fill="#D9D8D8" opacity="1.000000" stroke="none" 
	d="
M73.837357,171.036087 
	C75.516251,179.698227 77.490845,188.316498 78.784950,197.035751 
	C79.917664,204.667587 81.087448,212.456757 80.670433,220.090622 
	C80.444641,224.224060 77.629463,228.790771 74.738289,232.062744 
	C70.865517,236.445618 65.779449,239.753891 61.228642,243.540756 
	C54.636692,249.026154 47.895348,246.798889 42.183685,242.711655 
	C35.357365,237.826752 29.349115,231.782471 23.103266,226.111801 
	C21.039707,224.238281 19.973326,222.109497 20.779116,218.818375 
	C21.418207,216.208115 20.149378,213.179398 20.017511,210.323090 
	C19.518324,199.510361 24.267134,190.013367 27.754549,180.206741 
	C28.631212,177.741577 29.573265,175.299667 30.818855,172.427902 
	C31.430494,171.674637 31.708548,171.340530 32.275120,170.899536 
	C33.390442,169.898132 34.217239,169.003616 35.366219,168.082397 
	C36.117741,168.014771 36.547085,167.973862 37.276024,167.991364 
	C37.771667,168.104279 37.967720,168.158783 38.127144,168.600311 
	C37.050892,172.310715 36.019436,175.636688 34.970116,178.957031 
	C31.741552,189.173080 28.066528,199.278076 25.495535,209.656738 
	C24.503878,213.659882 24.369162,219.799454 26.702469,222.329742 
	C32.907421,229.058548 40.557865,234.496735 47.894562,240.106720 
	C49.518925,241.348785 53.092480,242.346817 54.273586,241.461884 
	C59.217884,237.757477 63.593449,233.293976 68.450432,228.934021 
	C70.178024,226.892563 71.632568,225.025696 73.464401,223.063675 
	C74.500206,220.292603 75.879166,217.558487 75.668701,214.952759 
	C75.217369,209.365173 74.536240,203.660583 72.883949,198.334381 
	C69.668510,187.969330 70.253677,176.509323 64.187981,167.032822 
	C64.665131,166.972672 64.855400,166.946991 65.340851,167.083893 
	C67.757454,168.497849 69.878868,169.749222 72.306488,171.004822 
	C73.020912,171.018051 73.429138,171.027069 73.837357,171.036087 
z"/>
<path fill="#CEB280" opacity="1.000000" stroke="none" 
	d="
M33.123817,327.996918 
	C33.089821,327.529297 33.055828,327.061707 33.314259,326.032104 
	C33.737915,324.644104 33.869152,323.818115 34.253090,323.205750 
	C35.795238,324.917419 37.154812,326.361176 38.362785,327.922272 
	C46.383450,338.287537 61.197227,330.395813 65.092865,321.587952 
	C65.895737,320.964874 66.537895,320.587799 67.180061,320.210724 
	C70.042877,325.759277 66.797813,330.863892 65.450638,335.807495 
	C62.641216,346.117035 58.760395,356.133667 55.368191,366.286835 
	C55.063610,367.198517 55.111271,368.227905 54.583752,369.674286 
	C53.324081,371.629150 52.315102,373.044739 51.658539,374.608337 
	C49.798580,379.037964 48.043583,383.476044 41.796738,382.008575 
	C40.920116,381.246002 40.043491,380.483398 39.050308,379.040405 
	C38.285583,374.792786 37.239166,371.245087 37.063393,367.654755 
	C36.520279,356.561218 36.447899,345.443909 35.849354,334.354401 
	C35.732666,332.192505 34.072216,330.113922 33.123817,327.996918 
M56.995415,349.329681 
	C56.996517,348.886444 56.997620,348.443237 57.540955,347.517792 
	C58.061142,346.140137 58.835964,344.798065 59.034557,343.375519 
	C59.262718,341.741180 58.980621,340.035645 58.920174,338.361023 
	C57.228779,338.731262 55.547714,339.160583 53.843681,339.458557 
	C50.971455,339.960785 48.089283,340.678986 45.202301,340.723541 
	C43.417576,340.751099 41.616203,339.700287 39.001308,338.874176 
	C39.001308,341.841156 38.915569,343.959106 39.022484,346.067322 
	C39.163864,348.855316 39.666714,351.637817 39.637783,354.418762 
	C39.584499,359.541077 38.889133,364.684723 39.223457,369.769348 
	C39.358212,371.818817 41.814243,375.525818 42.664234,375.375336 
	C45.116219,374.941010 48.207752,373.453552 49.371819,371.420074 
	C51.537884,367.636200 52.517136,363.172913 53.995327,358.245880 
	C53.998928,357.499084 54.002529,356.752319 54.685513,355.827728 
	C55.454937,353.883331 56.224358,351.938904 56.995415,349.329681 
z"/>
<path fill="#D2BA8E" opacity="1.000000" stroke="none" 
	d="
M72.000282,171.000610 
	C69.878868,169.749222 67.757454,168.497849 65.326958,166.758881 
	C65.005707,165.836197 64.993538,165.401108 65.229965,164.966293 
	C65.478561,164.966553 65.975761,164.965805 66.300308,165.112503 
	C67.418121,164.111359 68.910545,162.953369 68.894066,161.817276 
	C68.761917,152.706940 67.940041,143.593552 68.101273,134.494781 
	C68.412811,116.913841 65.356499,99.839073 60.875076,83.002350 
	C59.394268,77.438942 56.399563,72.278481 54.067795,66.547394 
	C53.664230,64.130302 53.289921,62.099606 52.895313,59.708622 
	C51.931332,57.887173 50.987648,56.426010 49.892796,54.652985 
	C48.848621,52.225277 47.955616,50.109440 47.362427,47.925529 
	C47.520924,46.176422 47.379608,44.495388 47.238293,42.814350 
	C48.255299,43.280949 49.871059,43.492672 50.195225,44.254196 
	C52.955128,50.737755 55.494480,57.315659 58.070763,63.876743 
	C59.770916,68.206573 61.733406,72.465080 63.026649,76.915848 
	C65.164780,84.274345 66.857422,91.762283 68.864853,100.009323 
	C69.450043,103.599869 69.908165,106.376755 70.366287,109.153641 
	C70.366287,109.153641 70.745132,109.221550 70.821457,109.765320 
	C70.938232,114.485306 70.978683,118.661514 71.004768,123.315605 
	C71.327026,139.529190 71.663658,155.264908 72.000282,171.000610 
z"/>
<path fill="#D0B789" opacity="1.000000" stroke="none" 
	d="
M47.230675,42.840874 
	C47.379608,44.495388 47.520924,46.176422 47.194691,47.648239 
	C45.482422,46.295368 44.237698,45.151718 42.809975,43.690022 
	C41.312099,43.118347 39.997231,42.864727 38.682358,42.611107 
	C38.514847,44.378067 37.985695,46.199516 38.242275,47.902584 
	C39.367615,55.372128 41.362484,62.768887 41.812405,70.265831 
	C42.274830,77.971115 41.385887,85.766968 40.889942,93.510490 
	C40.811890,94.729187 39.683964,95.880653 39.030464,96.591415 
	C39.012779,91.630150 39.167923,87.130821 38.895878,82.657478 
	C38.819256,81.397575 37.489990,80.213844 36.735271,78.995178 
	C36.637238,78.513504 36.539204,78.031830 36.667072,76.887306 
	C37.022171,74.159630 37.151367,72.094795 37.280563,70.029968 
	C37.316822,69.542679 37.353085,69.055389 37.636955,67.862030 
	C37.368595,64.100563 36.852631,61.045158 36.336662,57.989754 
	C35.324265,53.180561 30.829069,49.227722 33.167721,43.182461 
	C33.722729,42.452614 33.865490,42.187023 33.945427,41.887653 
	C33.945427,41.887653 33.966782,41.963722 34.273472,41.881706 
	C34.759148,41.053822 34.938137,40.307957 35.117126,39.562092 
	C35.117123,39.562092 35.219421,39.235500 35.796577,39.396202 
	C39.288998,40.008820 42.204262,40.460739 45.119522,40.912663 
	C45.119522,40.912663 45.029114,40.966694 45.098839,41.255524 
	C45.856117,41.968533 46.543667,42.392708 47.231216,42.816887 
	C47.231216,42.816887 47.223057,42.867397 47.230675,42.840874 
z"/>
<path fill="#D0B586" opacity="1.000000" stroke="none" 
	d="
M36.573517,79.236015 
	C37.489990,80.213844 38.819256,81.397575 38.895878,82.657478 
	C39.167923,87.130821 39.012779,91.630150 39.029945,97.053162 
	C39.023640,107.993111 39.006836,117.999519 38.766693,128.199097 
	C38.373272,128.947800 38.203186,129.503357 38.035446,130.499542 
	C38.021938,133.295593 38.006092,135.651001 37.754303,138.237717 
	C37.352470,139.325302 37.186573,140.181580 37.023613,141.433960 
	C37.019455,142.886368 37.012363,143.942688 36.753830,145.274170 
	C36.341885,147.045242 36.181381,148.541138 36.024963,150.406555 
	C36.024822,151.515152 36.020588,152.254211 35.754959,153.294769 
	C35.337837,156.078323 35.182110,158.560410 35.029690,161.407791 
	C35.028866,162.503677 35.024738,163.234283 35.013695,164.378708 
	C35.019199,165.898056 35.031620,167.003586 35.044037,168.109100 
	C34.217239,169.003616 33.390442,169.898132 32.280933,170.460205 
	C32.187157,168.347076 32.479313,166.570251 32.546364,164.784973 
	C32.781384,158.527542 32.938854,152.267212 33.125771,146.007980 
	C33.749996,138.643204 34.374214,131.278427 35.419327,123.311859 
	C36.213963,121.179985 36.898327,119.652626 36.911736,118.119392 
	C37.008991,106.995544 37.006115,95.870293 36.936218,84.746101 
	C36.926189,83.149277 36.386276,81.555786 36.091583,79.960747 
	C36.198307,79.799454 36.305035,79.638153 36.573517,79.236015 
z"/>
<path fill="#B9AB96" opacity="1.000000" stroke="none" 
	d="
M33.053017,328.419678 
	C34.072216,330.113922 35.732666,332.192505 35.849354,334.354401 
	C36.447899,345.443909 36.520279,356.561218 37.063393,367.654755 
	C37.239166,371.245087 38.285583,374.792786 38.933136,378.770081 
	C33.517178,374.913727 34.721428,368.621765 34.383343,363.026337 
	C33.922855,355.405212 34.441776,347.730072 34.254646,340.085083 
	C34.162716,336.329407 33.426735,332.589508 33.053017,328.419678 
z"/>
<path fill="#B7AA98" opacity="1.000000" stroke="none" 
	d="
M35.733704,80.207001 
	C36.386276,81.555786 36.926189,83.149277 36.936218,84.746101 
	C37.006115,95.870293 37.008991,106.995544 36.911736,118.119392 
	C36.898327,119.652626 36.213963,121.179985 35.476799,122.849976 
	C35.200855,108.810997 35.288338,94.632126 35.733704,80.207001 
z"/>
<path fill="#D8CAB2" opacity="1.000000" stroke="none" 
	d="
M72.306488,171.004822 
	C71.663658,155.264908 71.327026,139.529190 71.237434,123.357086 
	C71.785385,123.024422 72.094971,123.074303 72.413231,123.070328 
	C72.478233,125.422882 72.543236,127.775436 72.510269,130.690979 
	C72.366455,131.603714 72.508644,131.855927 72.838875,132.010574 
	C72.902351,142.823318 72.920959,153.636688 73.071022,164.448227 
	C73.097763,166.374817 73.669815,168.293854 73.913712,170.626221 
	C73.429138,171.027069 73.020912,171.018051 72.306488,171.004822 
z"/>
<path fill="#D1D1D1" opacity="1.000000" stroke="none" 
	d="
M34.000389,322.992126 
	C33.869152,323.818115 33.737915,324.644104 33.377609,325.684631 
	C31.083567,320.903412 29.018600,315.907684 26.946728,310.533875 
	C27.142195,308.998444 27.344566,307.841064 27.538925,306.729523 
	C30.413277,311.459595 33.130054,315.930359 35.578514,320.720459 
	C34.874496,321.025360 34.438797,321.010834 33.955505,320.883270 
	C33.907917,320.770203 33.596176,320.766388 33.596176,320.766388 
	C33.596176,320.766388 33.995579,321.003693 33.980583,321.335022 
	C33.977192,322.108307 33.988789,322.550201 34.000389,322.992126 
z"/>
<path fill="#C6B8A0" opacity="1.000000" stroke="none" 
	d="
M32.918869,146.362350 
	C32.938854,152.267212 32.781384,158.527542 32.546364,164.784973 
	C32.479313,166.570251 32.187157,168.347076 31.992413,170.567108 
	C31.708548,171.340530 31.430494,171.674637 30.936905,172.056900 
	C31.384901,163.642273 32.048435,155.179504 32.918869,146.362350 
z"/>
<path fill="#BEB29C" opacity="1.000000" stroke="none" 
	d="
M41.947060,382.351807 
	C48.043583,383.476044 49.798580,379.037964 51.658539,374.608337 
	C52.315102,373.044739 53.324081,371.629150 54.521294,370.081238 
	C53.392303,373.887390 52.368561,378.025055 50.299694,381.549133 
	C48.474648,384.657898 45.114048,384.194794 41.947060,382.351807 
z"/>
<path fill="#BEB4A3" opacity="1.000000" stroke="none" 
	d="
M72.549484,122.638138 
	C72.094971,123.074303 71.785385,123.024422 71.251801,122.879211 
	C70.978683,118.661514 70.938232,114.485306 70.850342,109.955582 
	C71.430511,113.803375 72.058121,118.004662 72.549484,122.638138 
z"/>
<path fill="#D1D1D1" opacity="1.000000" stroke="none" 
	d="
M67.543167,320.199951 
	C66.537895,320.587799 65.895737,320.964874 64.769119,321.628326 
	C63.849274,321.922089 63.413879,321.929535 62.978485,321.936951 
	C63.983379,319.368164 64.973000,316.779663 68.815918,317.837372 
	C68.660667,318.785065 68.283478,319.487122 67.543167,320.199951 
z"/>
<path fill="#D2BA8E" opacity="1.000000" stroke="none" 
	d="
M44.943062,40.588509 
	C42.204262,40.460739 39.288998,40.008820 35.958309,39.340294 
	C39.049145,36.013157 41.741520,39.483917 44.943062,40.588509 
z"/>
<path fill="#B7AA98" opacity="1.000000" stroke="none" 
	d="
M36.330109,58.404861 
	C36.852631,61.045158 37.368595,64.100563 37.744125,67.511589 
	C37.176983,64.851463 36.750267,61.835712 36.330109,58.404861 
z"/>
<path fill="#BEB4A3" opacity="1.000000" stroke="none" 
	d="
M70.493095,108.754539 
	C69.908165,106.376755 69.450043,103.599869 69.003204,100.386551 
	C69.549629,102.751900 70.084763,105.553665 70.493095,108.754539 
z"/>
<path fill="#B7AA98" opacity="1.000000" stroke="none" 
	d="
M37.002918,70.310379 
	C37.151367,72.094795 37.022171,74.159630 36.772469,76.528252 
	C36.676399,74.751625 36.700836,72.671211 37.002918,70.310379 
z"/>
<path fill="#D2BA8E" opacity="1.000000" stroke="none" 
	d="
M34.888355,39.732616 
	C34.938137,40.307957 34.759148,41.053822 34.236298,41.868332 
	C34.148151,41.259033 34.403866,40.581085 34.888355,39.732616 
z"/>
<path fill="#D2BA8E" opacity="1.000000" stroke="none" 
	d="
M47.094414,42.552460 
	C46.543667,42.392708 45.856117,41.968533 45.125946,41.210373 
	C45.708088,41.346935 46.332848,41.817482 47.094414,42.552460 
z"/>
<path fill="#D2BA8E" opacity="1.000000" stroke="none" 
	d="
M33.698135,41.976944 
	C33.865490,42.187023 33.722729,42.452614 33.342133,42.830025 
	C33.261692,42.672489 33.356270,42.369366 33.698135,41.976944 
z"/>
<path fill="#BEB4A3" opacity="1.000000" stroke="none" 
	d="
M72.876358,131.741669 
	C72.508644,131.855927 72.366455,131.603714 72.516861,131.134598 
	C72.718895,131.167770 72.816368,131.320282 72.876358,131.741669 
z"/>
<path fill="#F9F9F9" opacity="1.000000" stroke="none" 
	d="
M46.004646,263.013275 
	C48.374020,263.001373 50.743393,262.989441 53.634926,263.326660 
	C55.151695,264.078888 56.146309,264.481964 57.140923,264.885040 
	C59.734428,265.989929 62.327930,267.094849 64.954422,268.944672 
	C64.092247,270.407776 63.187809,271.757904 62.303375,271.744904 
	C54.717575,271.633636 47.123573,271.432892 39.561737,270.863953 
	C37.978241,270.744781 36.517281,268.997192 34.999847,268.000000 
	C36.396202,267.336700 37.792561,266.673431 39.907791,265.936218 
	C42.419319,264.912628 44.211983,263.962952 46.004646,263.013275 
z"/>
<path fill="#E7E7E7" opacity="1.000000" stroke="none" 
	d="
M28.986019,302.004547 
	C28.815592,300.842743 28.645164,299.680969 28.236210,297.929077 
	C27.999893,296.892639 28.002102,296.446320 28.334211,295.814453 
	C32.130783,294.795410 35.588982,293.924530 39.065720,293.135376 
	C49.433128,290.782104 59.710335,291.664215 69.861053,294.343964 
	C70.511436,294.515656 70.621284,296.734863 70.583801,297.936829 
	C60.907391,297.299469 51.614666,296.159210 42.358837,296.405487 
	C38.046822,296.520203 31.914263,295.331299 29.780380,301.991150 
	C29.339060,301.998077 29.162539,302.001312 28.986019,302.004547 
z"/>
<path fill="#E1E1E1" opacity="1.000000" stroke="none" 
	d="
M70.982605,298.001587 
	C70.621284,296.734863 70.511436,294.515656 69.861053,294.343964 
	C59.710335,291.664215 49.433128,290.782104 39.065720,293.135376 
	C35.588982,293.924530 32.130783,294.795410 28.080399,295.814697 
	C27.327513,296.000763 27.158339,296.001099 26.989166,296.001465 
	C26.989510,295.253143 26.989851,294.504852 27.109003,293.125854 
	C27.485277,291.991974 27.742741,291.488800 28.000208,290.985596 
	C29.385836,290.986847 30.771460,290.988068 32.972878,290.978149 
	C38.473537,289.996704 43.263271,287.880554 47.821167,288.297638 
	C56.946308,289.132721 65.944580,291.354126 74.995232,293.003174 
	C74.004692,296.080109 73.014153,299.157074 71.635803,302.616760 
	C70.502579,303.000275 69.757156,303.001038 69.079422,302.664398 
	C69.758942,300.885193 70.370773,299.443390 70.982605,298.001587 
z"/>
<path fill="#EFEFEF" opacity="1.000000" stroke="none" 
	d="
M34.722206,268.133667 
	C36.517281,268.997192 37.978241,270.744781 39.561737,270.863953 
	C47.123573,271.432892 54.717575,271.633636 62.303375,271.744904 
	C63.187809,271.757904 64.092247,270.407776 65.030090,269.293762 
	C66.329224,269.358093 67.585693,269.818298 68.925354,271.012573 
	C68.927635,274.380371 68.503258,276.243469 64.928207,275.506287 
	C59.657570,274.419525 54.282166,273.840851 48.951382,273.045776 
	C47.911301,273.045624 46.871216,273.045441 45.027283,273.092072 
	C42.483315,273.425232 40.731003,274.002747 39.005928,273.930420 
	C36.357513,273.819458 32.846909,275.295319 31.937344,270.937531 
	C32.773083,270.047455 33.608822,269.157379 34.722206,268.133667 
z"/>
<path fill="#B5B1AD" opacity="1.000000" stroke="none" 
	d="
M62.978024,321.956329 
	C63.413879,321.929535 63.849274,321.922089 64.608414,321.874298 
	C61.197227,330.395813 46.383450,338.287537 38.362785,327.922272 
	C37.154812,326.361176 35.795238,324.917419 34.253090,323.205750 
	C33.988789,322.550201 33.977192,322.108307 33.982780,321.333191 
	C33.999969,321.000000 34.003098,320.996338 34.003098,320.996338 
	C34.438797,321.010834 34.874496,321.025360 35.635994,321.060364 
	C36.422928,321.686798 36.884060,322.292725 37.721115,323.310974 
	C44.654400,330.507477 56.420647,329.679138 62.943188,321.974091 
	C62.943188,321.974091 62.977562,321.975708 62.978024,321.956329 
z"/>
<path fill="#DCDCDC" opacity="1.000000" stroke="none" 
	d="
M74.976181,292.620300 
	C65.944580,291.354126 56.946308,289.132721 47.821167,288.297638 
	C43.263271,287.880554 38.473537,289.996704 33.388557,290.977234 
	C37.743328,289.324402 42.385208,286.884430 47.278461,286.172729 
	C55.486984,284.978851 63.501747,287.307373 71.340340,289.690338 
	C72.680214,290.097656 73.758179,291.366547 74.976181,292.620300 
z"/>
<path fill="#D1D1D1" opacity="1.000000" stroke="none" 
	d="
M62.589821,321.980225 
	C56.420647,329.679138 44.654400,330.507477 38.020287,323.374207 
	C39.073708,323.316162 40.203884,323.607178 42.020882,323.935913 
	C43.780796,323.664276 44.853893,323.354980 46.379341,323.052612 
	C49.221313,323.040497 51.610931,323.021484 54.045708,323.268677 
	C54.528870,323.765381 54.966881,323.995850 55.404892,324.226318 
	C55.275547,323.492310 55.146210,322.758301 55.014488,321.774292 
	C55.012432,321.357635 55.012753,321.190948 55.348812,321.027252 
	C56.132679,321.028381 56.580807,321.026550 57.356850,321.027466 
	C58.121883,321.035065 58.559010,321.039948 58.996132,321.044830 
	C60.076237,321.358673 61.156345,321.672516 62.589821,321.980225 
z"/>
<path fill="#E6E6E6" opacity="1.000000" stroke="none" 
	d="
M49.078327,273.410950 
	C54.282166,273.840851 59.657570,274.419525 64.928207,275.506287 
	C68.503258,276.243469 68.927635,274.380371 69.022766,271.351990 
	C72.483994,271.752014 73.950020,274.188751 72.440575,277.107056 
	C71.901176,278.149933 68.509529,278.315033 66.603462,277.942017 
	C60.756248,276.797729 54.998070,275.198486 49.078327,273.410950 
z"/>
<path fill="#E1E1E1" opacity="1.000000" stroke="none" 
	d="
M45.926987,323.045715 
	C44.853893,323.354980 43.780796,323.664276 42.369255,323.975342 
	C39.549973,320.521912 36.819962,317.212677 34.678776,313.558411 
	C33.325634,311.249115 32.851540,308.424744 32.233864,305.418030 
	C32.484550,305.004700 32.979713,305.013397 33.034409,305.343079 
	C34.040974,306.466431 34.992847,307.260101 35.992702,308.364197 
	C36.363579,309.447510 36.686474,310.220398 37.054276,311.345825 
	C39.730381,314.801697 42.361576,317.904999 45.214619,321.200806 
	C45.599972,321.944061 45.763477,322.494873 45.926987,323.045715 
z"/>
<path fill="#DFDFE0" opacity="1.000000" stroke="none" 
	d="
M59.161774,320.748383 
	C58.559010,321.039948 58.121883,321.035065 57.394447,320.682526 
	C59.398399,317.220032 61.692669,314.105164 63.992203,310.994385 
	C63.997467,310.998444 63.990437,310.986298 64.340012,310.936676 
	C66.130302,308.258636 67.571022,305.630188 69.011742,303.001770 
	C69.757156,303.001038 70.502579,303.000275 71.620514,302.999146 
	C69.176865,309.836609 65.946457,316.373840 59.161774,320.748383 
z"/>
<path fill="#E6E6E6" opacity="1.000000" stroke="none" 
	d="
M31.589428,271.013733 
	C32.846909,275.295319 36.357513,273.819458 39.005928,273.930420 
	C40.731003,274.002747 42.483315,273.425232 44.637245,273.091675 
	C43.346462,275.185547 34.461620,278.304382 32.326603,277.511139 
	C28.778717,276.192871 28.401241,273.959198 31.589428,271.013733 
z"/>
<path fill="#D1D1D1" opacity="1.000000" stroke="none" 
	d="
M29.706474,283.487732 
	C33.028622,282.263184 36.113876,281.318909 39.199135,280.374634 
	C39.376148,280.764282 39.553162,281.153931 39.730175,281.543579 
	C37.088623,282.964752 34.494595,284.495117 31.753708,285.688049 
	C31.347780,285.864716 30.248234,284.447693 29.706474,283.487732 
z"/>
<path fill="#D1D1D1" opacity="1.000000" stroke="none" 
	d="
M63.972755,280.993408 
	C64.658562,281.802826 65.053268,282.444641 65.447975,283.086426 
	C64.753723,283.235229 63.914917,283.705566 63.393032,283.470947 
	C61.974380,282.833221 60.689926,281.897034 59.352280,281.079163 
	C59.497520,280.598877 59.642761,280.118591 59.787998,279.638336 
	C61.085884,280.034149 62.383766,280.429993 63.972755,280.993408 
z"/>
<path fill="#EFEFEF" opacity="1.000000" stroke="none" 
	d="
M45.628487,263.009583 
	C44.211983,263.962952 42.419319,264.912628 40.243721,265.876892 
	C41.657967,264.929596 43.455151,263.967743 45.628487,263.009583 
z"/>
<path fill="#DCDCDC" opacity="1.000000" stroke="none" 
	d="
M27.797913,290.783661 
	C27.742741,291.488800 27.485277,291.991974 27.108377,292.751709 
	C26.474281,292.549072 25.959618,292.089874 25.444954,291.630676 
	C26.161842,291.281036 26.878733,290.931366 27.797913,290.783661 
z"/>
<path fill="#E7E7E7" opacity="1.000000" stroke="none" 
	d="
M32.979713,305.013397 
	C32.979713,305.013397 32.484550,305.004700 32.236290,305.007965 
	C31.548058,305.007935 31.108084,305.004639 30.343681,304.659851 
	C30.034023,303.866577 30.048794,303.414764 30.402637,302.983368 
	C31.487711,303.673676 32.233711,304.343536 32.979713,305.013397 
z"/>
<path fill="#D1D1D1" opacity="1.000000" stroke="none" 
	d="
M43.713676,279.239868 
	C43.479877,279.799255 43.184902,280.096283 42.889931,280.393311 
	C42.684258,280.025909 42.478580,279.658508 42.272896,279.291138 
	C42.732765,279.186615 43.192638,279.082062 43.713676,279.239868 
z"/>
<path fill="#EFEFEF" opacity="1.000000" stroke="none" 
	d="
M57.031143,264.564087 
	C56.146309,264.481964 55.151695,264.078888 54.078823,263.337280 
	C54.974167,263.413574 55.947765,263.828369 57.031143,264.564087 
z"/>
<path fill="#DCDCDC" opacity="1.000000" stroke="none" 
	d="
M30.063566,302.962921 
	C30.048794,303.414764 30.034023,303.866577 30.012920,304.657349 
	C29.529970,304.125610 29.053352,303.254944 28.781376,302.194397 
	C29.162539,302.001312 29.339060,301.998077 29.779503,302.235229 
	C30.043428,302.475647 30.063566,302.962921 30.063566,302.962921 
z"/>
<path fill="#D1D1D1" opacity="1.000000" stroke="none" 
	d="
M70.391449,312.681824 
	C70.246346,313.004852 69.961723,313.180511 69.677094,313.356171 
	C69.868706,313.082275 70.060318,312.808350 70.391449,312.681824 
z"/>
<path fill="#DCDCDC" opacity="1.000000" stroke="none" 
	d="
M26.797585,296.187988 
	C27.158339,296.001099 27.327513,296.000763 27.750498,296.000244 
	C28.002102,296.446320 27.999893,296.892639 27.991835,297.673828 
	C27.525990,297.463928 27.065996,296.919220 26.797585,296.187988 
z"/>
<path fill="#F8F8F8" opacity="1.000000" stroke="none" 
	d="
M68.177391,229.108597 
	C63.593449,233.293976 59.217884,237.757477 54.273586,241.461884 
	C53.092480,242.346817 49.518925,241.348785 47.894562,240.106720 
	C40.557865,234.496735 32.907421,229.058548 26.702469,222.329742 
	C24.369162,219.799454 24.503878,213.659882 25.495535,209.656738 
	C28.066528,199.278076 31.741552,189.173080 34.970116,178.957031 
	C36.019436,175.636688 37.050892,172.310715 38.356598,168.437836 
	C39.074020,167.555801 39.525368,167.223236 40.410179,166.930130 
	C43.893024,166.636368 46.942410,166.303162 50.207733,166.187515 
	C51.333473,165.970673 52.243271,165.536285 53.528770,165.093552 
	C54.905804,165.107010 55.907135,165.128784 57.004059,165.441101 
	C58.086319,165.803787 59.072975,165.875961 60.390903,166.002930 
	C61.781815,166.394241 62.841461,166.730759 63.901108,167.067276 
	C70.253677,176.509323 69.668510,187.969330 72.883949,198.334381 
	C74.536240,203.660583 75.217369,209.365173 75.668701,214.952759 
	C75.879166,217.558487 74.500206,220.292603 73.436157,222.593430 
	C72.406067,217.845810 72.109482,213.391632 71.048080,209.127853 
	C70.267883,205.993713 67.517197,204.906113 64.875984,207.009903 
	C58.198441,212.328781 60.277836,225.549713 68.177391,229.108597 
z"/>
<path fill="#E4CD9C" opacity="1.000000" stroke="none" 
	d="
M39.976715,166.890686 
	C39.525368,167.223236 39.074020,167.555801 38.393223,168.050812 
	C37.967720,168.158783 37.771667,168.104279 37.277840,167.630219 
	C36.326912,166.128723 35.673763,165.046799 35.020611,163.964874 
	C35.024738,163.234283 35.028866,162.503677 35.385387,161.284561 
	C35.830635,158.195114 35.923492,155.594208 36.016354,152.993286 
	C36.020588,152.254211 36.024822,151.515152 36.359081,150.306320 
	C36.794498,148.224045 36.899887,146.611511 37.005276,144.998993 
	C37.012363,143.942688 37.019455,142.886368 37.327381,141.359955 
	C37.748890,139.928696 37.869568,138.967545 37.990242,138.006393 
	C38.006092,135.651001 38.021938,133.295593 38.303856,130.440674 
	C38.709961,129.296082 38.849998,128.651001 38.990036,128.005936 
	C39.006836,117.999519 39.023640,107.993111 39.040955,97.524948 
	C39.683964,95.880653 40.811890,94.729187 40.889942,93.510490 
	C41.385887,85.766968 42.274830,77.971115 41.812405,70.265831 
	C41.362484,62.768887 39.367615,55.372128 38.242275,47.902584 
	C37.985695,46.199516 38.514847,44.378067 38.682358,42.611107 
	C39.997231,42.864727 41.312099,43.118347 42.458214,43.705223 
	C38.394058,46.887104 42.090202,49.716522 42.389450,52.510315 
	C43.068909,58.853725 44.653431,65.163948 44.696407,71.495628 
	C44.750000,79.392372 43.449886,87.288193 43.043449,95.200294 
	C42.245842,110.727180 41.552341,126.261398 41.036316,141.799911 
	C40.779995,149.518234 41.011986,157.252777 40.903648,165.226212 
	C40.515057,165.945190 40.245888,166.417938 39.976715,166.890686 
z"/>
<path fill="#FEFEFE" opacity="1.000000" stroke="none" 
	d="
M68.450432,228.934021 
	C60.277836,225.549713 58.198441,212.328781 64.875984,207.009903 
	C67.517197,204.906113 70.267883,205.993713 71.048080,209.127853 
	C72.109482,213.391632 72.406067,217.845810 73.058868,222.688583 
	C71.632568,225.025696 70.178024,226.892563 68.450432,228.934021 
z"/>
<path fill="#E4CD9C" opacity="1.000000" stroke="none" 
	d="
M56.908463,165.150574 
	C55.907135,165.128784 54.905804,165.107010 53.135246,165.039429 
	C51.579861,164.967911 50.793709,164.942200 49.805725,164.699203 
	C49.041740,164.305527 48.479591,164.129150 48.188679,163.680389 
	C54.259415,160.827286 59.723988,161.798096 64.981369,164.966034 
	C64.993538,165.401108 65.005707,165.836197 65.031769,166.596298 
	C64.855400,166.946991 64.665131,166.972672 64.187981,167.032822 
	C62.841461,166.730759 61.781815,166.394241 60.384369,165.769287 
	C60.046570,165.480850 60.011909,165.014038 60.144630,164.909271 
	C60.137695,164.576996 59.998047,164.349457 59.528999,164.122208 
	C58.435894,164.465179 57.672176,164.807877 56.908463,165.150574 
z"/>
<path fill="#D0B789" opacity="1.000000" stroke="none" 
	d="
M35.013695,164.378708 
	C35.673763,165.046799 36.326912,166.128723 36.978249,167.571793 
	C36.547085,167.973862 36.117741,168.014771 35.366215,168.082397 
	C35.031620,167.003586 35.019199,165.898056 35.013695,164.378708 
z"/>
<path fill="#D8B882" opacity="1.000000" stroke="none" 
	d="
M53.990417,358.992462 
	C52.517136,363.172913 51.537884,367.636200 49.371819,371.420074 
	C48.207752,373.453552 45.116219,374.941010 42.664234,375.375336 
	C41.814243,375.525818 39.358212,371.818817 39.223457,369.769348 
	C38.889133,364.684723 39.584499,359.541077 39.637783,354.418762 
	C39.666714,351.637817 39.163864,348.855316 39.022484,346.067322 
	C38.915569,343.959106 39.001308,341.841156 39.001308,338.874176 
	C41.616203,339.700287 43.417576,340.751099 45.202301,340.723541 
	C48.089283,340.678986 50.971455,339.960785 53.843681,339.458557 
	C55.547714,339.160583 57.228779,338.731262 58.920174,338.361023 
	C58.980621,340.035645 59.262718,341.741180 59.034557,343.375519 
	C58.835964,344.798065 58.061142,346.140137 56.907841,347.700989 
	C47.728371,343.570801 42.032562,346.901550 41.988022,356.203033 
	C41.972176,359.512604 42.041752,362.844482 41.680550,366.122986 
	C41.428249,368.412994 40.067451,370.925873 43.433037,371.798309 
	C46.844746,372.682709 47.845722,370.234344 48.998718,367.579559 
	C50.308624,364.563446 52.296989,361.842010 53.990417,358.992462 
z"/>
<path fill="#DFBF86" opacity="1.000000" stroke="none" 
	d="
M53.992874,358.619171 
	C52.296989,361.842010 50.308624,364.563446 48.998718,367.579559 
	C47.845722,370.234344 46.844746,372.682709 43.433037,371.798309 
	C40.067451,370.925873 41.428249,368.412994 41.680550,366.122986 
	C42.041752,362.844482 41.972176,359.512604 41.988022,356.203033 
	C42.032562,346.901550 47.728371,343.570801 56.636723,347.942078 
	C56.997620,348.443237 56.996517,348.886444 56.653786,349.747925 
	C55.543480,352.112610 54.774807,354.059052 54.006130,356.005524 
	C54.002529,356.752319 53.998928,357.499084 53.992874,358.619171 
z"/>
<path fill="#D8B882" opacity="1.000000" stroke="none" 
	d="
M54.345821,355.916626 
	C54.774807,354.059052 55.543480,352.112610 56.652969,350.080322 
	C56.224358,351.938904 55.454937,353.883331 54.345821,355.916626 
z"/>
<path fill="#F3E1B1" opacity="1.000000" stroke="none" 
	d="
M65.229965,164.966293 
	C59.723988,161.798096 54.259415,160.827286 47.877769,163.687164 
	C46.878830,163.971893 46.462036,163.977448 45.704628,163.986420 
	C44.564743,164.319305 43.765472,164.648804 42.642181,164.979401 
	C41.886459,164.980331 41.454765,164.980164 41.023071,164.979980 
	C41.011986,157.252777 40.779995,149.518234 41.036316,141.799911 
	C41.552341,126.261398 42.245842,110.727180 43.043449,95.200294 
	C43.449886,87.288193 44.750000,79.392372 44.696407,71.495628 
	C44.653431,65.163948 43.068909,58.853725 42.389450,52.510315 
	C42.090202,49.716522 38.394058,46.887104 42.641212,44.023273 
	C44.237698,45.151718 45.482422,46.295368 46.894878,47.716309 
	C47.955616,50.109440 48.848621,52.225277 49.923691,55.009590 
	C51.042374,57.141682 51.978992,58.605297 52.915611,60.068913 
	C53.289921,62.099606 53.664230,64.130302 54.089245,66.926392 
	C54.481247,68.802048 54.806282,69.917610 55.166271,71.021782 
	C60.253456,86.625290 64.719788,102.324127 65.108322,118.940773 
	C65.289604,126.693703 66.664894,134.419571 66.828033,142.171829 
	C66.987740,149.760483 66.294579,157.367081 65.975761,164.965805 
	C65.975761,164.965805 65.478561,164.966553 65.229965,164.966293 
z"/>
<path fill="#E4CD9C" opacity="1.000000" stroke="none" 
	d="
M66.300308,165.112503 
	C66.294579,157.367081 66.987740,149.760483 66.828033,142.171829 
	C66.664894,134.419571 65.289604,126.693703 65.108322,118.940773 
	C64.719788,102.324127 60.253456,86.625290 55.166271,71.021782 
	C54.806282,69.917610 54.481247,68.802048 54.118500,67.312782 
	C56.399563,72.278481 59.394268,77.438942 60.875076,83.002350 
	C65.356499,99.839073 68.412811,116.913841 68.101273,134.494781 
	C67.940041,143.593552 68.761917,152.706940 68.894066,161.817276 
	C68.910545,162.953369 67.418121,164.111359 66.300308,165.112503 
z"/>
<path fill="#E4CD9C" opacity="1.000000" stroke="none" 
	d="
M52.895313,59.708622 
	C51.978992,58.605297 51.042374,57.141682 50.074860,55.321457 
	C50.987648,56.426010 51.931332,57.887173 52.895313,59.708622 
z"/>
<path fill="#D0B789" opacity="1.000000" stroke="none" 
	d="
M35.754959,153.294769 
	C35.923492,155.594208 35.830635,158.195114 35.382080,160.919266 
	C35.182110,158.560410 35.337837,156.078323 35.754959,153.294769 
z"/>
<path fill="#D0B789" opacity="1.000000" stroke="none" 
	d="
M36.753830,145.274170 
	C36.899887,146.611511 36.794498,148.224045 36.354996,149.936798 
	C36.181381,148.541138 36.341885,147.045242 36.753830,145.274170 
z"/>
<path fill="#D0B789" opacity="1.000000" stroke="none" 
	d="
M37.754303,138.237717 
	C37.869568,138.967545 37.748890,139.928696 37.324448,140.963837 
	C37.186573,140.181580 37.352470,139.325302 37.754303,138.237717 
z"/>
<path fill="#D0B789" opacity="1.000000" stroke="none" 
	d="
M38.766693,128.199097 
	C38.849998,128.651001 38.709961,129.296082 38.301514,130.000031 
	C38.203186,129.503357 38.373272,128.947800 38.766693,128.199097 
z"/>
<path fill="#B5B1AD" opacity="1.000000" stroke="none" 
	d="
M33.997772,321.001831 
	C33.995579,321.003693 33.596176,320.766388 33.596176,320.766388 
	C33.596176,320.766388 33.907917,320.770203 33.955505,320.883270 
	C34.003098,320.996338 33.999969,321.000000 33.997772,321.001831 
z"/>
<path fill="#F0F0F0" opacity="1.000000" stroke="none" 
	d="
M30.402637,302.983368 
	C30.063566,302.962921 30.043428,302.475647 30.044304,302.231567 
	C31.914263,295.331299 38.046822,296.520203 42.358837,296.405487 
	C51.614666,296.159210 60.907391,297.299469 70.583801,297.936829 
	C70.370773,299.443390 69.758942,300.885193 69.079422,302.664368 
	C67.571022,305.630188 66.130302,308.258636 64.398743,310.560608 
	C64.720993,308.528503 65.574547,306.866241 65.892250,305.107208 
	C66.401901,302.285431 65.434975,300.920227 62.102718,301.110718 
	C55.377716,301.495148 48.621094,301.588348 41.885426,301.440704 
	C36.615520,301.325226 35.059204,302.806213 35.944717,308.053772 
	C34.992847,307.260101 34.040974,306.466431 33.034409,305.343079 
	C32.233711,304.343536 31.487711,303.673676 30.402637,302.983368 
z"/>
<path fill="#FAFAFA" opacity="1.000000" stroke="none" 
	d="
M35.992699,308.364197 
	C35.059204,302.806213 36.615520,301.325226 41.885426,301.440704 
	C48.621094,301.588348 55.377716,301.495148 62.102718,301.110718 
	C65.434975,300.920227 66.401901,302.285431 65.892250,305.107208 
	C65.574547,306.866241 64.720993,308.528503 64.049171,310.610229 
	C63.990437,310.986298 63.997467,310.998444 63.652145,311.045837 
	C60.542244,314.403595 57.777660,317.713959 55.013077,321.024292 
	C55.012753,321.190948 55.012432,321.357635 54.794411,321.878540 
	C54.303131,322.428314 54.111076,322.684845 54.000553,323.002441 
	C51.610931,323.021484 49.221313,323.040497 46.379341,323.052612 
	C45.763477,322.494873 45.599972,321.944061 45.208313,320.835144 
	C42.323235,317.182434 39.666302,314.087860 37.009369,310.993286 
	C36.686474,310.220398 36.363579,309.447510 35.992699,308.364197 
z"/>
<path fill="#F0F0F0" opacity="1.000000" stroke="none" 
	d="
M55.348812,321.027252 
	C57.777660,317.713959 60.542244,314.403595 63.646881,311.041809 
	C61.692669,314.105164 59.398399,317.220032 57.066536,320.679810 
	C56.580807,321.026550 56.132679,321.028381 55.348812,321.027252 
z"/>
<path fill="#D4D4D4" opacity="1.000000" stroke="none" 
	d="
M54.045708,323.268677 
	C54.111076,322.684845 54.303131,322.428314 54.796791,322.128540 
	C55.146210,322.758301 55.275547,323.492310 55.404892,324.226318 
	C54.966881,323.995850 54.528870,323.765381 54.045708,323.268677 
z"/>
<path fill="#F0F0F0" opacity="1.000000" stroke="none" 
	d="
M37.054276,311.345825 
	C39.666302,314.087860 42.323235,317.182434 44.986473,320.642670 
	C42.361576,317.904999 39.730381,314.801697 37.054276,311.345825 
z"/>
<path fill="#D8CBB4" opacity="1.000000" stroke="none" 
	d="
M46.045246,163.983002 
	C46.462036,163.977448 46.878830,163.971893 47.606529,163.959549 
	C48.479591,164.129150 49.041740,164.305527 49.801399,164.963013 
	C49.996536,165.619415 49.994164,165.794678 49.991791,165.969955 
	C46.942410,166.303162 43.893024,166.636368 40.410179,166.930130 
	C40.245888,166.417938 40.515057,165.945190 40.903648,165.226212 
	C41.454765,164.980164 41.886459,164.980331 42.982552,164.979401 
	C44.446384,164.646530 45.245815,164.314774 46.045246,163.983002 
z"/>
<path fill="#D9D8D8" opacity="1.000000" stroke="none" 
	d="
M57.004059,165.441101 
	C57.672176,164.807877 58.435894,164.465179 59.566154,164.345001 
	C59.932705,164.567505 60.011909,165.014038 60.011909,165.014038 
	C60.011909,165.014038 60.046570,165.480850 60.053101,165.714493 
	C59.072975,165.875961 58.086319,165.803787 57.004059,165.441101 
z"/>
<path fill="#D9D8D8" opacity="1.000000" stroke="none" 
	d="
M50.207733,166.187515 
	C49.994164,165.794678 49.996536,165.619415 50.003235,165.180328 
	C50.793709,164.942200 51.579861,164.967911 52.759537,165.047760 
	C52.243271,165.536285 51.333473,165.970673 50.207733,166.187515 
z"/>
<path fill="#D8CBB4" opacity="1.000000" stroke="none" 
	d="
M60.144630,164.909271 
	C60.011909,165.014038 59.932705,164.567505 59.895550,164.344727 
	C59.998047,164.349457 60.137695,164.576996 60.144630,164.909271 
z"/>
<path fill="#E4CD9C" opacity="1.000000" stroke="none" 
	d="
M45.704628,163.986420 
	C45.245815,164.314774 44.446384,164.646530 43.306580,164.978287 
	C43.765472,164.648804 44.564743,164.319305 45.704628,163.986420 
z"/>
</svg>