<svg version="1.1" id="Layer_1" xmlns="http://www.w3.org/2000/svg" xmlns:xlink="http://www.w3.org/1999/xlink" x="0px" y="0px"
	 width="100%" viewBox="0 0 91 405" enable-background="new 0 0 91 405" xml:space="preserve">
<path fill="#CECECE" opacity="1.000000" stroke="none" 
	d="
M26.958660,310.139313 
	C25.633226,306.342957 24.274426,302.557770 22.997744,298.745087 
	C22.437910,297.073212 22.045650,295.345245 21.533438,293.171448 
	C21.575790,292.390900 21.459455,292.163635 21.140572,292.018341 
	C21.078609,291.588348 21.016647,291.158325 21.146740,290.193878 
	C20.837137,288.792023 20.335476,287.924652 19.833818,287.057251 
	C19.535879,285.653442 19.237936,284.249603 19.223083,282.324768 
	C20.661844,281.543274 21.817514,281.282806 22.981432,281.392395 
	C23.004078,282.503876 23.018478,283.245239 23.075237,284.365173 
	C26.008650,290.945587 28.535631,297.357330 31.940418,303.263031 
	C33.710861,306.333923 36.730442,308.956757 39.727211,310.980011 
	C43.517773,313.539276 49.503674,312.233185 52.286865,309.029480 
	C52.526356,309.023773 53.005291,309.010498 53.347481,308.959564 
	C57.462151,303.606506 61.234634,298.304382 65.316757,292.810577 
	C66.089836,289.744568 66.553268,286.870270 67.069283,283.635864 
	C67.420158,281.857941 67.718452,280.440063 68.346680,278.940948 
	C69.111649,277.904510 69.546700,276.949341 69.985992,275.619751 
	C69.994011,274.496521 69.997803,273.747650 70.005432,272.667114 
	C70.013496,271.893219 70.017708,271.451050 70.244781,270.786499 
	C71.087814,267.142212 69.217072,268.814697 67.710892,269.088379 
	C60.126797,270.466339 52.536186,272.608459 44.913216,272.762024 
	C36.160740,272.938293 27.371933,271.310638 17.960733,270.405212 
	C17.626982,264.144104 17.303804,258.081360 17.269094,251.848053 
	C19.039171,249.817017 20.520781,247.956558 22.002390,246.096085 
	C22.002390,246.096085 22.429640,245.975830 23.042240,245.979675 
	C24.436579,245.990051 25.218315,245.996597 25.926495,246.338409 
	C24.636086,247.767685 23.408115,248.849594 22.204338,249.957794 
	C17.233082,254.534393 18.215187,261.221191 24.328415,263.669403 
	C35.609310,268.187164 47.245941,267.887115 59.002171,266.086487 
	C69.384377,264.496338 73.407089,258.982880 70.549416,248.862244 
	C73.014114,250.854324 74.955589,252.423508 76.897064,253.992706 
	C76.944885,254.752548 76.992706,255.512375 76.772659,256.786743 
	C76.301758,257.548523 76.155556,257.825714 76.066200,258.132904 
	C76.066200,258.132904 76.053978,258.055115 75.766296,258.103210 
	C75.360458,259.118713 75.242294,260.086151 75.124130,261.053589 
	C74.377457,274.779083 72.878944,288.348572 67.266388,301.132080 
	C66.498672,302.880707 66.242020,304.853668 65.122131,306.745789 
	C62.401886,308.263611 60.080128,309.523438 58.255558,311.295288 
	C51.658043,317.702209 43.314857,319.238251 35.727779,314.584473 
	C32.610218,312.672211 30.184792,309.631561 27.317009,306.986572 
	C27.205902,307.964081 27.082283,309.051697 26.958660,310.139313 
z"/>
<path fill="#D9D9D9" opacity="1.000000" stroke="none" 
	d="
M66.115982,152.955093 
	C66.407700,153.421539 66.699417,153.888000 66.728531,154.728638 
	C64.808807,158.195129 65.732613,159.837524 69.234756,160.031433 
	C70.656937,167.386978 72.079117,174.742523 73.189148,182.642242 
	C73.215523,183.787735 73.554047,184.389084 73.892570,184.990417 
	C73.940193,186.013535 73.987816,187.036636 74.134315,188.673477 
	C74.359818,189.610062 74.581100,189.842987 74.897064,189.985977 
	C74.938614,191.706711 74.980171,193.427444 74.780846,195.787415 
	C74.981194,197.280533 75.422424,198.134384 75.863655,198.988251 
	C75.918869,199.396576 75.974083,199.804886 76.130188,200.751221 
	C76.358269,201.608826 76.578003,201.840775 76.890289,201.985031 
	C76.936363,207.021713 76.982437,212.058411 76.761108,217.698883 
	C76.299255,218.564163 76.151802,218.849884 76.051361,219.159882 
	C72.442223,225.634491 66.400658,228.983124 59.556385,229.842163 
	C47.585094,231.344666 35.561615,229.631424 25.163113,223.686234 
	C19.762751,220.598663 15.082995,214.964859 13.972856,207.771790 
	C12.710033,199.589432 14.351085,192.211121 17.428696,184.405563 
	C20.422815,176.811783 20.594913,168.105316 22.403378,159.397324 
	C23.522654,157.950455 24.244678,156.993668 25.234861,155.913879 
	C26.025253,155.519684 26.547487,155.248505 27.412037,155.075104 
	C28.080185,156.170380 28.862848,157.274857 28.658360,158.148209 
	C27.237951,164.214600 25.511574,170.209152 24.080885,176.273361 
	C22.613359,182.493713 21.370691,188.767136 20.020821,195.390076 
	C20.007179,196.508560 20.002327,197.254288 19.731319,198.312408 
	C17.488226,211.190811 22.718761,219.880325 34.779846,223.334076 
	C39.377304,224.650558 44.191109,225.623550 48.949570,225.851929 
	C53.881424,226.088623 58.930958,225.609253 63.810760,224.761993 
	C70.124031,223.665848 73.230751,216.269730 71.744240,207.669144 
	C70.361420,199.668488 69.220993,191.625122 68.032043,183.591965 
	C66.290031,171.821930 65.212463,159.900909 60.225597,148.958038 
	C60.934959,148.952286 61.340332,148.952332 62.069744,148.957245 
	C62.609531,148.950729 62.825283,148.939346 63.022263,148.972870 
	C63.003498,149.017792 62.959499,149.104630 62.983894,149.459503 
	C64.044189,150.861267 65.080086,151.908188 66.115982,152.955093 
z"/>
<path fill="#CDB281" opacity="1.000000" stroke="none" 
	d="
M64.814018,309.980713 
	C64.005768,316.398376 63.290920,322.829559 62.365429,329.230255 
	C61.229973,337.083069 60.103477,344.945801 58.612831,352.735321 
	C57.733887,357.328308 56.900024,362.195892 54.699940,366.200562 
	C52.136574,370.866486 46.308159,371.454041 42.452797,369.294647 
	C39.373840,367.570068 37.283134,362.898621 36.164665,359.117798 
	C34.209682,352.509277 33.338585,345.580139 32.333473,338.101868 
	C31.432812,329.275299 30.211975,321.132141 29.287296,313.147217 
	C40.295582,324.718994 52.540886,323.199524 61.594597,311.788971 
	C62.302685,310.896576 63.724121,310.570160 64.814018,309.980713 
M52.724049,348.824921 
	C54.147022,342.948914 55.697063,337.098297 56.880161,331.174377 
	C57.102833,330.059387 56.146545,328.294678 55.180321,327.526733 
	C54.676838,327.126556 52.764095,327.990112 51.835732,328.723267 
	C48.122204,331.656097 44.330078,331.617584 40.230618,329.660370 
	C38.580486,328.872559 36.733582,328.496887 34.542278,327.794586 
	C35.316490,332.149536 35.781662,335.689941 36.637917,339.133026 
	C36.985928,340.532471 38.184380,341.720428 38.999081,343.752136 
	C39.001995,344.499603 39.004910,345.247040 39.001736,346.858459 
	C39.001492,347.521912 38.870327,348.217285 39.022900,348.843506 
	C39.832069,352.164581 40.271866,355.685699 41.752724,358.686981 
	C42.501740,360.204987 46.419216,361.952240 46.777676,361.575012 
	C48.864170,359.379517 50.319401,356.584106 51.997231,353.328217 
	C51.997032,352.886322 51.996838,352.444427 52.002369,351.335693 
	C52.002701,350.891174 52.003029,350.446625 52.002533,349.503967 
	C52.002533,349.503967 52.005581,349.005798 52.724049,348.824921 
z"/>
<path fill="#D4BA8A" opacity="1.000000" stroke="none" 
	d="
M32.129639,40.982258 
	C32.759449,38.569324 33.389256,36.156391 34.409622,33.280704 
	C35.429195,32.081326 36.193211,31.421890 36.665623,30.595715 
	C40.089909,24.607155 42.221844,24.367020 47.033237,29.553228 
	C48.671913,31.319561 50.239208,33.152115 51.839119,34.954407 
	C52.565372,38.643291 53.291622,42.332172 54.022194,46.890800 
	C54.773067,53.435539 55.489529,59.114960 56.323227,64.777122 
	C56.390003,65.230644 57.265156,65.565132 57.809647,66.291016 
	C57.841663,67.077492 57.828678,67.527893 57.622986,68.223816 
	C57.634319,69.663177 57.838360,70.857018 58.028885,72.485977 
	C59.023911,85.092896 60.030411,97.264862 61.048512,109.435867 
	C61.088955,109.919334 61.101517,110.502678 61.372406,110.845787 
	C61.750607,111.324799 62.360107,111.621193 62.870636,111.995728 
	C63.572899,119.406975 64.249779,126.820755 64.987839,134.228439 
	C65.372459,138.088669 65.917366,141.933289 66.276138,145.795517 
	C66.381378,146.928497 66.096497,148.097748 65.630859,149.609680 
	C64.500694,149.680878 63.730099,149.392746 62.959503,149.104630 
	C62.959499,149.104630 63.003498,149.017792 63.011711,148.538071 
	C61.997669,142.375092 60.975410,136.691818 59.954418,130.682053 
	C59.952591,129.920349 59.949501,129.485168 59.967281,128.583008 
	C59.929161,124.798775 60.096149,121.459290 59.772640,118.168007 
	C58.254543,102.723404 57.025272,87.232285 54.859123,71.875381 
	C53.206322,60.157917 50.305290,48.616520 47.924698,36.710529 
	C47.589371,35.954033 47.288879,35.483803 46.944054,34.645264 
	C45.339931,32.866970 43.780148,31.456987 42.220364,30.047005 
	C40.851871,31.851162 38.509018,33.536160 38.271454,35.478626 
	C36.606297,49.093971 35.315529,62.756783 34.024498,76.415695 
	C32.919674,88.104546 32.010647,99.811966 30.885695,111.498718 
	C30.798731,112.402161 29.688488,113.207100 29.036922,113.651382 
	C28.420454,111.485168 27.820919,109.725395 27.187172,107.561676 
	C27.092976,106.077606 27.032990,104.997475 26.973003,103.917351 
	C27.651115,95.241196 28.329226,86.565048 29.437504,77.321732 
	C30.243626,76.068665 30.901896,75.403152 30.953117,74.693802 
	C31.698790,64.367371 32.389893,54.036633 32.999672,43.701359 
	C33.051956,42.815189 32.435463,41.889561 32.129639,40.982258 
z"/>
<path fill="#DADADA" opacity="1.000000" stroke="none" 
	d="
M76.960770,253.619919 
	C74.955589,252.423508 73.014114,250.854324 70.549416,248.862244 
	C73.407089,258.982880 69.384377,264.496338 59.002171,266.086487 
	C47.245941,267.887115 35.609310,268.187164 24.328415,263.669403 
	C18.215187,261.221191 17.233082,254.534393 22.204338,249.957794 
	C23.408115,248.849594 24.636086,247.767685 25.926342,246.030762 
	C25.996233,244.977737 25.992718,244.567657 25.989201,244.157578 
	C28.377314,243.762939 30.765427,243.368301 33.898666,243.257233 
	C40.782585,243.314453 46.921375,243.088120 53.060169,242.861786 
	C56.080452,242.902725 59.100735,242.943665 62.664375,243.237244 
	C63.378803,243.720596 63.599216,243.885315 63.868973,243.984009 
	C66.597206,245.091202 69.595917,245.802521 71.971596,247.425720 
	C74.023735,248.827820 75.367531,251.266617 76.960770,253.619919 
M37.479225,248.955978 
	C37.479225,248.955978 36.993313,248.975113 36.513027,248.950546 
	C36.513027,248.950546 36.032215,248.940552 35.808388,248.248276 
	C31.986738,245.691895 29.415895,246.706207 27.494453,250.992249 
	C27.494453,250.992249 26.999542,250.999390 26.296757,251.105560 
	C25.034908,253.366974 22.681187,255.715012 22.851585,257.862793 
	C22.991638,259.628052 26.016865,262.401520 27.957022,262.576141 
	C37.158222,263.404419 46.425602,263.710052 55.669910,263.719635 
	C58.510239,263.722565 61.571274,262.617035 64.143524,261.275604 
	C68.314186,259.100586 70.145844,253.884521 67.766365,251.447311 
	C64.053688,247.644547 59.385521,246.014038 53.163769,246.993484 
	C51.769520,247.011627 50.375271,247.029770 48.187645,247.027313 
	C47.129543,247.043564 46.071438,247.059814 44.484737,246.546158 
	C42.998253,246.374130 41.511772,246.202103 39.362961,246.150787 
	C38.896721,247.074127 38.430477,247.997482 37.479225,248.955978 
z"/>
<path fill="#DADADA" opacity="1.000000" stroke="none" 
	d="
M22.973185,281.022339 
	C21.817514,281.282806 20.661844,281.543274 19.172560,281.941040 
	C17.219908,273.856720 15.495062,265.653290 14.074010,257.397583 
	C13.800467,255.808411 14.718458,254.014145 15.724889,252.148041 
	C16.568880,251.993942 16.774752,252.006271 16.980625,252.018616 
	C17.303804,258.081360 17.626982,264.144104 17.960733,270.405212 
	C27.371933,271.310638 36.160740,272.938293 44.913216,272.762024 
	C52.536186,272.608459 60.126797,270.466339 67.710892,269.088379 
	C69.217072,268.814697 71.087814,267.142212 69.909180,270.789246 
	C68.567078,271.343323 67.783432,271.672272 66.679810,272.179260 
	C59.989147,275.888184 53.066669,276.337677 45.670341,276.007477 
	C44.557713,276.342377 43.778412,276.672241 42.666100,277.002258 
	C41.889061,277.002380 41.445034,277.002380 40.745213,276.757141 
	C39.324631,276.342468 38.159843,276.173065 36.561401,276.003479 
	C32.085056,275.335144 28.042360,274.666962 23.776176,273.772583 
	C22.558695,274.041046 21.564701,274.535736 20.570711,275.030426 
	C21.047045,275.686951 21.523375,276.343475 22.115839,277.255127 
	C22.489120,278.008057 22.746265,278.505859 23.002216,279.339996 
	C22.991741,280.125000 22.982462,280.573669 22.973185,281.022339 
z"/>
<path fill="#B4B1AC" opacity="1.000000" stroke="none" 
	d="
M64.884048,309.618286 
	C63.724121,310.570160 62.302685,310.896576 61.594597,311.788971 
	C52.540886,323.199524 40.295582,324.718994 29.230419,312.848206 
	C28.281916,311.937683 27.686443,311.484375 27.090977,311.031067 
	C27.090981,311.031067 26.970217,310.593323 26.964439,310.366333 
	C27.082283,309.051697 27.205902,307.964081 27.317009,306.986572 
	C30.184792,309.631561 32.610218,312.672211 35.727779,314.584473 
	C43.314857,319.238251 51.658043,317.702209 58.255558,311.295288 
	C60.080128,309.523438 62.401886,308.263611 64.786835,306.907043 
	C65.036797,307.782104 64.995438,308.519012 64.884048,309.618286 
z"/>
<path fill="#C2B5A0" opacity="1.000000" stroke="none" 
	d="
M62.942497,111.532196 
	C62.360107,111.621193 61.750607,111.324799 61.372406,110.845787 
	C61.101517,110.502678 61.088955,109.919334 61.048512,109.435867 
	C60.030411,97.264862 59.023911,85.092896 58.243645,72.465256 
	C58.471916,72.009415 58.901974,71.966225 58.977962,72.146133 
	C59.153019,72.573204 59.306679,72.779747 59.514931,72.945663 
	C59.977573,76.596382 60.440216,80.247093 61.011135,84.538330 
	C61.175415,85.475960 61.314484,85.727066 61.536625,85.932159 
	C62.029205,94.310997 62.521782,102.689835 62.942497,111.532196 
z"/>
<path fill="#B4A690" opacity="1.000000" stroke="none" 
	d="
M26.570763,104.041199 
	C27.032990,104.997475 27.092976,106.077606 27.125477,107.951744 
	C27.061956,115.810295 27.025923,122.874840 26.972355,130.342941 
	C26.373089,133.163406 25.791359,135.580292 25.173611,138.320496 
	C25.083246,139.073349 25.028898,139.502914 24.721245,139.956604 
	C24.129408,139.992020 23.790878,140.003281 23.452349,140.014557 
	C24.039257,128.546280 24.615156,117.077400 25.250299,105.611801 
	C25.277868,105.114120 25.850040,104.646606 26.570763,104.041199 
z"/>
<path fill="#DECBB2" opacity="1.000000" stroke="none" 
	d="
M32.053215,41.411057 
	C32.435463,41.889561 33.051956,42.815189 32.999672,43.701359 
	C32.389893,54.036633 31.698790,64.367371 30.953117,74.693802 
	C30.901896,75.403152 30.243626,76.068665 29.517204,76.869873 
	C30.103424,65.270081 31.040106,53.554970 32.053215,41.411057 
z"/>
<path fill="#C7BAA9" opacity="1.000000" stroke="none" 
	d="
M51.899864,34.597260 
	C50.239208,33.152115 48.671913,31.319561 47.033237,29.553228 
	C42.221844,24.367020 40.089909,24.607155 36.665623,30.595715 
	C36.193211,31.421890 35.429195,32.081326 34.471992,32.893898 
	C36.385468,24.790352 41.241814,21.784168 45.996494,25.980722 
	C48.479893,28.172609 50.003502,31.451935 51.899864,34.597260 
z"/>
<path fill="#DDCDB3" opacity="1.000000" stroke="none" 
	d="
M26.969503,311.448883 
	C27.686443,311.484375 28.281916,311.937683 28.934263,312.690002 
	C30.211975,321.132141 31.432812,329.275299 32.394203,337.703552 
	C30.372520,329.281342 28.610277,320.574036 26.969503,311.448883 
z"/>
<path fill="#E7E7E7" opacity="1.000000" stroke="none" 
	d="
M52.829514,242.491425 
	C46.921375,243.088120 40.782585,243.314453 34.324547,243.276337 
	C40.203152,242.714920 46.401001,242.417984 52.829514,242.491425 
z"/>
<path fill="#BBB3A5" opacity="1.000000" stroke="none" 
	d="
M23.372807,140.475266 
	C23.790878,140.003281 24.129408,139.992020 24.730120,140.360687 
	C25.021791,141.812393 25.051281,142.884186 25.046013,144.363190 
	C25.024519,145.859039 25.037785,146.947678 25.031994,148.430191 
	C24.997524,151.228348 24.982113,153.632614 24.966705,156.036896 
	C24.244678,156.993668 23.522654,157.950455 22.457075,158.973160 
	C22.506769,153.004730 22.900015,146.970352 23.372807,140.475266 
z"/>
<path fill="#CCBA9F" opacity="1.000000" stroke="none" 
	d="
M57.764648,65.954941 
	C57.265156,65.565132 56.390003,65.230644 56.323227,64.777122 
	C55.489529,59.114960 54.773067,53.435539 54.041870,47.310143 
	C55.053028,50.588451 56.048836,54.317165 57.058681,58.667461 
	C57.138790,59.575359 57.293762,59.800484 57.537636,59.964409 
	C57.579792,60.729057 57.621948,61.493702 57.572212,62.782616 
	C57.685211,63.518139 57.890102,63.729401 58.094994,63.940662 
	C58.094994,63.940662 58.001667,63.979172 57.982235,64.286163 
	C57.896751,65.047089 57.830700,65.501015 57.764648,65.954941 
z"/>
<path fill="#D4D4D3" opacity="1.000000" stroke="none" 
	d="
M69.378242,159.667877 
	C65.732613,159.837524 64.808807,158.195129 66.780624,155.033386 
	C67.449051,154.956451 67.721313,155.101685 68.066231,155.837494 
	C68.582825,156.515823 68.945290,156.756302 69.307747,156.996780 
	C69.379074,157.765961 69.450401,158.535141 69.378242,159.667877 
z"/>
<path fill="#CACACA" opacity="1.000000" stroke="none" 
	d="
M17.269093,251.848053 
	C16.774752,252.006271 16.568880,251.993942 16.057333,251.933945 
	C17.600710,249.933456 19.449762,247.980637 21.650600,246.061951 
	C20.520781,247.956558 19.039171,249.817017 17.269093,251.848053 
z"/>
<path fill="#D4D4D3" opacity="1.000000" stroke="none" 
	d="
M62.983894,149.459503 
	C63.730099,149.392746 64.500694,149.680878 65.580307,150.000488 
	C65.930077,150.762054 65.970825,151.492172 66.063774,152.588684 
	C65.080086,151.908188 64.044189,150.861267 62.983894,149.459503 
z"/>
<path fill="#CCBA9F" opacity="1.000000" stroke="none" 
	d="
M58.901974,71.966225 
	C58.901974,71.966225 58.471916,72.009415 58.257160,72.030136 
	C57.838360,70.857018 57.634319,69.663177 57.758778,68.265007 
	C58.087280,68.060684 58.368355,68.057037 58.368355,68.057037 
	C58.477737,68.615051 58.587120,69.173073 58.773811,70.385536 
	C58.896904,71.347145 58.913857,71.655891 58.901974,71.966225 
z"/>
<path fill="#DADADA" opacity="1.000000" stroke="none" 
	d="
M19.891636,287.400330 
	C20.335476,287.924652 20.837137,288.792023 21.084457,289.872375 
	C20.536564,289.304688 20.243010,288.524048 19.891636,287.400330 
z"/>
<path fill="#E9E9E9" opacity="1.000000" stroke="none" 
	d="
M75.930405,198.659729 
	C75.422424,198.134384 74.981194,197.280533 74.759888,196.217865 
	C75.318916,196.783127 75.658035,197.557175 75.930405,198.659729 
z"/>
<path fill="#DADADA" opacity="1.000000" stroke="none" 
	d="
M75.434021,260.907928 
	C75.242294,260.086151 75.360458,259.118713 75.804474,258.112854 
	C76.001518,258.970367 75.872719,259.866333 75.434021,260.907928 
z"/>
<path fill="#B5AA94" opacity="1.000000" stroke="none" 
	d="
M58.510323,67.715866 
	C58.368355,68.057037 58.087280,68.060684 57.951485,68.019485 
	C57.828678,67.527893 57.841663,67.077492 57.809647,66.291016 
	C57.830700,65.501015 57.896751,65.047089 58.020996,64.253746 
	C58.270222,65.067787 58.461254,66.221237 58.510323,67.715866 
z"/>
<path fill="#E9E9E9" opacity="1.000000" stroke="none" 
	d="
M73.944847,184.699219 
	C73.554047,184.389084 73.215523,183.787735 73.100266,183.010834 
	C73.548065,183.359528 73.772598,183.883774 73.944847,184.699219 
z"/>
<path fill="#E7E7E7" opacity="1.000000" stroke="none" 
	d="
M25.665470,244.162750 
	C25.992718,244.567657 25.996233,244.977737 25.999901,245.695480 
	C25.218315,245.996597 24.436579,245.990051 23.264078,245.973358 
	C23.696123,245.364792 24.518930,244.766342 25.665470,244.162750 
z"/>
<path fill="#B5AA94" opacity="1.000000" stroke="none" 
	d="
M58.977962,72.146133 
	C58.913857,71.655891 58.896904,71.347145 58.841949,70.807831 
	C59.141830,71.157013 59.450874,71.738358 59.637428,72.632675 
	C59.306679,72.779747 59.153019,72.573204 58.977962,72.146133 
z"/>
<path fill="#D9D9D9" opacity="1.000000" stroke="none" 
	d="
M69.409943,156.745850 
	C68.945290,156.756302 68.582825,156.515823 68.134338,156.067963 
	C68.536247,156.072021 69.024185,156.283463 69.409943,156.745850 
z"/>
<path fill="#DADADA" opacity="1.000000" stroke="none" 
	d="
M21.090996,292.266266 
	C21.459455,292.163635 21.575790,292.390900 21.404190,292.818542 
	C21.226343,292.796021 21.133883,292.655090 21.090996,292.266266 
z"/>
<path fill="#B5AA94" opacity="1.000000" stroke="none" 
	d="
M57.629681,59.745689 
	C57.293762,59.800484 57.138790,59.575359 57.062630,59.080093 
	C57.349201,59.014664 57.572266,59.233269 57.629681,59.745689 
z"/>
<path fill="#E9E9E9" opacity="1.000000" stroke="none" 
	d="
M74.929253,189.707397 
	C74.581100,189.842987 74.359818,189.610062 74.141113,189.058838 
	C74.353165,189.029922 74.657303,189.229370 74.929253,189.707397 
z"/>
<path fill="#E9E9E9" opacity="1.000000" stroke="none" 
	d="
M76.925629,201.706970 
	C76.578003,201.840775 76.358269,201.608826 76.139206,201.062439 
	C76.351883,201.033401 76.656425,201.231155 76.925629,201.706970 
z"/>
<path fill="#DADADA" opacity="1.000000" stroke="none" 
	d="
M76.320297,258.042725 
	C76.155556,257.825714 76.301758,257.548523 76.694870,257.161133 
	C76.781425,257.331512 76.677917,257.642029 76.320297,258.042725 
z"/>
<path fill="#E9E9E9" opacity="1.000000" stroke="none" 
	d="
M76.312500,219.067413 
	C76.151802,218.849884 76.299255,218.564163 76.690796,218.162598 
	C76.783127,218.339981 76.678383,218.657471 76.312500,219.067413 
z"/>
<path fill="#B5AA94" opacity="1.000000" stroke="none" 
	d="
M61.628830,85.702499 
	C61.314484,85.727066 61.175415,85.475960 61.115971,84.960495 
	C61.457745,84.867165 61.660580,85.110733 61.628830,85.702499 
z"/>
<path fill="#E7E7E7" opacity="1.000000" stroke="none" 
	d="
M63.916649,243.709396 
	C63.599216,243.885315 63.378803,243.720596 63.113998,243.303406 
	C63.334946,243.222885 63.649635,243.328842 63.916649,243.709396 
z"/>
<path fill="#B5AA94" opacity="1.000000" stroke="none" 
	d="
M58.074196,63.671555 
	C57.890102,63.729401 57.685211,63.518139 57.572891,63.166962 
	C57.794777,63.152180 57.924088,63.277309 58.074196,63.671555 
z"/>
<path fill="#DFDFDF" opacity="1.000000" stroke="none" 
	d="
M46.003670,276.002441 
	C53.066669,276.337677 59.989147,275.888184 66.971176,272.309967 
	C68.388870,272.508057 69.195229,272.753418 70.001595,272.998810 
	C69.997803,273.747650 69.994011,274.496521 69.656013,275.698669 
	C68.886787,277.108704 68.451767,278.065460 68.016754,279.022217 
	C67.718452,280.440063 67.420158,281.857941 66.797668,283.872559 
	C65.984695,287.313629 65.495911,290.157928 65.007126,293.002258 
	C61.234634,298.304382 57.462151,303.606506 53.392868,308.606171 
	C54.098736,306.641449 55.305271,305.066284 56.060406,303.298309 
	C57.504498,299.917267 58.691708,296.426514 59.990269,292.651306 
	C59.997089,291.880890 59.999165,291.440460 60.239899,290.776825 
	C60.667145,289.715485 60.855728,288.877289 61.369408,287.953125 
	C62.462273,286.577271 63.230034,285.287415 64.296379,283.822601 
	C65.085014,281.724091 65.575073,279.800568 66.065140,277.877014 
	C64.379120,278.066315 62.696800,278.302094 61.006432,278.436981 
	C53.356014,279.047424 45.710957,279.915100 38.048733,280.119781 
	C33.047131,280.253387 28.019423,279.409637 23.003410,279.003662 
	C22.746265,278.505859 22.489120,278.008057 22.169067,276.949890 
	C22.737331,275.592621 23.368502,274.795685 23.999668,273.998779 
	C28.042360,274.666962 32.085056,275.335144 36.640228,276.329407 
	C38.435478,276.771088 39.718243,276.886749 41.001011,277.002380 
	C41.445034,277.002380 41.889061,277.002380 42.882423,277.226379 
	C44.289062,276.967712 45.146366,276.485077 46.003670,276.002441 
z"/>
<path fill="#E6E6E6" opacity="1.000000" stroke="none" 
	d="
M23.002214,279.340027 
	C28.019423,279.409637 33.047131,280.253387 38.048733,280.119781 
	C45.710957,279.915100 53.356014,279.047424 61.006432,278.436981 
	C62.696800,278.302094 64.379120,278.066315 66.065140,277.877014 
	C65.575073,279.800568 65.085014,281.724091 64.197769,283.468262 
	C62.492588,282.937286 61.003231,281.992523 59.905376,282.328217 
	C51.291527,284.961914 42.649754,285.738495 33.713280,284.160004 
	C31.268028,283.728119 28.578003,284.682007 25.711365,284.869965 
	C24.625910,284.488831 23.829390,284.237732 23.032873,283.986633 
	C23.018478,283.245239 23.004078,282.503876 22.981432,281.392395 
	C22.982462,280.573669 22.991741,280.125000 23.002214,279.340027 
z"/>
<path fill="#DFDFDF" opacity="1.000000" stroke="none" 
	d="
M23.075233,284.365173 
	C23.829390,284.237732 24.625910,284.488831 25.723450,285.249878 
	C27.336435,288.189087 28.648397,290.618347 30.025589,293.350708 
	C30.701141,294.132050 31.311466,294.610382 31.930145,295.452637 
	C31.970690,296.544098 32.002876,297.271545 31.868202,298.220886 
	C35.788513,308.212128 41.973953,311.432343 52.047375,309.035187 
	C49.503674,312.233185 43.517773,313.539276 39.727211,310.980011 
	C36.730442,308.956757 33.710861,306.333923 31.940418,303.263031 
	C28.535631,297.357330 26.008650,290.945587 23.075233,284.365173 
z"/>
<path fill="#E7E7E7" opacity="1.000000" stroke="none" 
	d="
M52.286865,309.029480 
	C41.973953,311.432343 35.788513,308.212128 32.151936,298.370850 
	C33.729774,298.870178 34.857010,299.441406 36.047890,300.320221 
	C36.741020,301.085205 37.370510,301.542603 38.125797,302.204926 
	C38.455627,302.665680 38.706509,302.861481 39.057640,303.347290 
	C41.870808,304.914001 44.788376,307.391663 47.355686,307.070404 
	C51.927475,306.498260 54.610821,302.865967 55.163548,297.721283 
	C56.874767,295.952026 58.430149,294.466644 59.985527,292.981293 
	C58.691708,296.426514 57.504498,299.917267 56.060406,303.298309 
	C55.305271,305.066284 54.098736,306.641449 53.050678,308.657104 
	C53.005291,309.010498 52.526356,309.023773 52.286865,309.029480 
z"/>
<path fill="#DBDBDB" opacity="1.000000" stroke="none" 
	d="
M65.316765,292.810577 
	C65.495911,290.157928 65.984695,287.313629 66.745102,284.232605 
	C66.553268,286.870270 66.089836,289.744568 65.316765,292.810577 
z"/>
<path fill="#DBDBDB" opacity="1.000000" stroke="none" 
	d="
M68.346680,278.940948 
	C68.451767,278.065460 68.886787,277.108704 69.651779,276.073059 
	C69.546700,276.949341 69.111649,277.904510 68.346680,278.940948 
z"/>
<path fill="#DBDBDB" opacity="1.000000" stroke="none" 
	d="
M70.005432,272.667114 
	C69.195229,272.753418 68.388870,272.508057 67.291138,272.131958 
	C67.783432,271.672272 68.567078,271.343323 69.686325,271.011627 
	C70.017708,271.451050 70.013496,271.893219 70.005432,272.667114 
z"/>
<path fill="#F8F8F8" opacity="1.000000" stroke="none" 
	d="
M61.745705,148.952362 
	C61.340332,148.952332 60.934959,148.952286 59.919907,149.038879 
	C59.027805,149.650711 58.406807,150.259949 58.513233,150.688599 
	C60.416954,158.356506 62.823856,165.924530 64.279755,173.672409 
	C66.228821,184.044785 67.455856,194.552856 68.642830,204.904922 
	C67.874847,204.148239 67.440910,203.498856 67.041962,202.828629 
	C65.526810,200.283295 64.022957,197.731201 62.514877,195.181641 
	C60.787163,197.606308 58.416222,199.799133 57.444191,202.496155 
	C53.446407,213.588531 53.602806,213.644897 63.708847,218.252747 
	C57.528172,218.340302 51.596123,218.552673 45.753410,217.928604 
	C30.002258,216.246231 22.137218,212.602570 20.590519,198.771530 
	C20.559671,198.495697 20.202435,198.256363 19.997473,198.000000 
	C20.002327,197.254288 20.007179,196.508560 20.371628,195.300583 
	C21.283381,194.253998 22.150919,193.756363 22.339067,193.071976 
	C24.292454,185.966492 26.285641,178.866028 27.972519,171.694717 
	C30.010225,163.031937 30.987471,154.003967 37.968353,147.352676 
	C38.691204,146.663940 38.723083,145.250015 39.482712,144.127686 
	C41.261547,144.060791 42.633247,144.038773 44.206234,144.237488 
	C45.272858,144.302490 46.138191,144.146744 47.425072,143.993942 
	C49.257191,143.986923 50.667763,143.976944 52.412498,144.103943 
	C54.796753,144.885727 56.846848,145.530518 59.042793,146.359436 
	C59.409504,146.775024 59.669941,146.946289 60.197075,147.201172 
	C60.864697,147.880753 61.305202,148.416565 61.745705,148.952362 
z"/>
<path fill="#ECECEC" opacity="1.000000" stroke="none" 
	d="
M19.731319,198.312408 
	C20.202435,198.256363 20.559671,198.495697 20.590519,198.771530 
	C22.137218,212.602570 30.002258,216.246231 45.753410,217.928604 
	C51.596123,218.552673 57.528172,218.340302 64.094910,218.251404 
	C69.616104,217.557861 69.786011,213.917938 69.804741,210.375763 
	C69.814194,208.586212 69.280846,206.793777 68.992920,205.002655 
	C67.455856,194.552856 66.228821,184.044785 64.279755,173.672409 
	C62.823856,165.924530 60.416954,158.356506 58.513233,150.688599 
	C58.406807,150.259949 59.027805,149.650711 59.615921,149.044678 
	C65.212463,159.900909 66.290031,171.821930 68.032043,183.591965 
	C69.220993,191.625122 70.361420,199.668488 71.744240,207.669144 
	C73.230751,216.269730 70.124031,223.665848 63.810760,224.761993 
	C58.930958,225.609253 53.881424,226.088623 48.949570,225.851929 
	C44.191109,225.623550 39.377304,224.650558 34.779846,223.334076 
	C22.718761,219.880325 17.488226,211.190811 19.731319,198.312408 
z"/>
<path fill="#ECECEC" opacity="1.000000" stroke="none" 
	d="
M39.075569,144.172577 
	C38.723083,145.250015 38.691204,146.663940 37.968353,147.352676 
	C30.987471,154.003967 30.010225,163.031937 27.972519,171.694717 
	C26.285641,178.866028 24.292454,185.966492 22.339067,193.071976 
	C22.150919,193.756363 21.283381,194.253998 20.380417,194.927826 
	C21.370691,188.767136 22.613359,182.493713 24.080885,176.273361 
	C25.511574,170.209152 27.237951,164.214600 28.658360,158.148209 
	C28.862848,157.274857 28.080185,156.170380 27.518288,154.747894 
	C27.946501,152.357666 28.610777,150.392426 29.613472,148.329742 
	C32.625237,146.821304 35.298576,145.410263 38.248947,144.035492 
	C38.709171,144.105362 38.892368,144.138962 39.075569,144.172577 
z"/>
<path fill="#E1CA99" opacity="1.000000" stroke="none" 
	d="
M62.069748,148.957245 
	C61.305202,148.416565 60.864697,147.880753 60.091782,146.975403 
	C59.543789,146.318314 59.256310,146.174805 58.896942,146.175308 
	C56.846848,145.530518 54.796753,144.885727 52.311111,143.770416 
	C50.242432,143.176590 48.609299,143.053284 46.607063,142.931274 
	C45.499722,142.929764 44.761478,142.926971 43.748398,142.699219 
	C42.291557,142.328201 41.109554,142.182144 40.203873,141.767731 
	C45.002972,141.339478 49.606106,140.589935 54.025002,141.192215 
	C58.114578,141.749603 60.047447,140.896667 59.975029,136.671310 
	C59.942684,134.784164 59.958950,132.896164 59.953152,131.008560 
	C60.975410,136.691818 61.997669,142.375092 63.030479,148.493149 
	C62.825283,148.939346 62.609531,148.950729 62.069748,148.957245 
z"/>
<path fill="#D5BB8A" opacity="1.000000" stroke="none" 
	d="
M29.275055,148.427170 
	C28.610777,150.392426 27.946501,152.357666 27.175974,154.650131 
	C26.547487,155.248505 26.025253,155.519684 25.234859,155.913879 
	C24.982113,153.632614 24.997524,151.228348 25.353230,148.332962 
	C25.489273,146.546555 25.285021,145.251266 25.080769,143.955963 
	C25.051281,142.884186 25.021791,141.812393 24.983425,140.336548 
	C25.028898,139.502914 25.083246,139.073349 25.492218,138.267395 
	C26.898020,137.593811 27.949202,137.296600 29.002148,137.461639 
	C29.094296,141.424988 29.184677,144.926071 29.275055,148.427170 
z"/>
<path fill="#DFBF86" opacity="1.000000" stroke="none" 
	d="
M51.996643,352.002533 
	C51.996838,352.444427 51.997032,352.886322 51.629028,353.677032 
	C50.784573,354.141052 50.114311,354.093842 49.861370,354.395966 
	C46.432102,358.492065 44.786175,356.838959 43.225552,352.721832 
	C42.305702,350.295166 40.445255,348.225006 39.007828,345.994507 
	C39.004910,345.247040 39.001995,344.499603 38.999687,342.962524 
	C39.092678,339.083801 38.216427,335.339081 43.754604,336.851471 
	C46.438419,337.584351 50.616264,336.531097 51.809540,338.072906 
	C53.194695,339.862671 52.044094,343.612213 52.001713,346.511230 
	C51.989559,347.342560 52.003571,348.174255 52.005581,349.005798 
	C52.005581,349.005798 52.002533,349.503967 51.725025,349.803772 
	C51.153767,350.416687 50.860016,350.729858 50.566265,351.042999 
	C51.043060,351.362854 51.519852,351.682678 51.996643,352.002533 
z"/>
<path fill="#D8B982" opacity="1.000000" stroke="none" 
	d="
M52.364815,348.915344 
	C52.003571,348.174255 51.989559,347.342560 52.001713,346.511230 
	C52.044094,343.612213 53.194695,339.862671 51.809540,338.072906 
	C50.616264,336.531097 46.438419,337.584351 43.754604,336.851471 
	C38.216427,335.339081 39.092678,339.083801 38.998085,342.588745 
	C38.184380,341.720428 36.985928,340.532471 36.637917,339.133026 
	C35.781662,335.689941 35.316490,332.149536 34.542278,327.794586 
	C36.733582,328.496887 38.580486,328.872559 40.230618,329.660370 
	C44.330078,331.617584 48.122204,331.656097 51.835732,328.723267 
	C52.764095,327.990112 54.676838,327.126556 55.180321,327.526733 
	C56.146545,328.294678 57.102833,330.059387 56.880161,331.174377 
	C55.697063,337.098297 54.147022,342.948914 52.364815,348.915344 
z"/>
<path fill="#D8B983" opacity="1.000000" stroke="none" 
	d="
M39.004784,346.426483 
	C40.445255,348.225006 42.305702,350.295166 43.225552,352.721832 
	C44.786175,356.838959 46.432102,358.492065 49.861370,354.395966 
	C50.114311,354.093842 50.784573,354.141052 51.624397,354.008667 
	C50.319401,356.584106 48.864170,359.379517 46.777676,361.575012 
	C46.419216,361.952240 42.501740,360.204987 41.752724,358.686981 
	C40.271866,355.685699 39.832069,352.164581 39.022900,348.843506 
	C38.870327,348.217285 39.001492,347.521912 39.004784,346.426483 
z"/>
<path fill="#D8B983" opacity="1.000000" stroke="none" 
	d="
M51.999508,351.669128 
	C51.519852,351.682678 51.043060,351.362854 50.566265,351.042999 
	C50.860016,350.729858 51.153767,350.416687 51.725437,350.052826 
	C52.003029,350.446625 52.002701,350.891174 51.999508,351.669128 
z"/>
<path fill="#F2E0B0" opacity="1.000000" stroke="none" 
	d="
M59.954418,130.682053 
	C59.958950,132.896164 59.942684,134.784164 59.975029,136.671310 
	C60.047447,140.896667 58.114578,141.749603 54.025002,141.192215 
	C49.606106,140.589935 45.002972,141.339478 39.998974,141.764282 
	C39.517750,142.029205 39.106861,142.004288 38.688988,142.002625 
	C33.861309,142.345032 31.706377,140.403137 32.002129,135.891220 
	C32.737148,124.678009 33.317238,113.452888 34.201641,102.251671 
	C35.344868,87.772255 36.688370,73.308212 38.016026,58.844006 
	C38.649677,51.940651 39.208298,45.016258 40.244877,38.168602 
	C41.045120,32.882183 42.270985,32.505493 46.988392,35.013573 
	C47.288879,35.483803 47.589371,35.954033 47.680771,36.991707 
	C47.378929,38.364170 47.070625,39.213192 47.224648,39.967850 
	C52.491825,65.775490 55.895176,91.806511 57.134228,118.134087 
	C57.307163,121.808693 58.972118,125.413078 59.946411,129.049973 
	C59.949501,129.485168 59.952591,129.920349 59.954418,130.682053 
z"/>
<path fill="#E1CA99" opacity="1.000000" stroke="none" 
	d="
M46.944054,34.645264 
	C42.270985,32.505493 41.045120,32.882183 40.244877,38.168602 
	C39.208298,45.016258 38.649677,51.940651 38.016026,58.844006 
	C36.688370,73.308212 35.344868,87.772255 34.201641,102.251671 
	C33.317238,113.452888 32.737148,124.678009 32.002129,135.891220 
	C31.706377,140.403137 33.861309,142.345032 38.542465,142.250793 
	C38.533188,143.000168 38.252556,143.499710 37.971924,143.999237 
	C35.298576,145.410263 32.625237,146.821304 29.613476,148.329742 
	C29.184677,144.926071 29.094296,141.424988 29.017239,137.082367 
	C29.026516,134.161270 29.022467,132.081711 29.019115,129.535202 
	C29.031162,124.064774 29.042511,119.061302 29.053858,114.057823 
	C29.688488,113.207100 30.798731,112.402161 30.885695,111.498718 
	C32.010647,99.811966 32.919674,88.104546 34.024498,76.415695 
	C35.315529,62.756783 36.606297,49.093971 38.271454,35.478626 
	C38.509018,33.536160 40.851871,31.851162 42.220364,30.047005 
	C43.780148,31.456987 45.339931,32.866970 46.944054,34.645264 
z"/>
<path fill="#E1CA99" opacity="1.000000" stroke="none" 
	d="
M59.967278,128.583008 
	C58.972118,125.413078 57.307163,121.808693 57.134228,118.134087 
	C55.895176,91.806511 52.491825,65.775490 47.224648,39.967850 
	C47.070625,39.213192 47.378929,38.364170 47.715607,37.277969 
	C50.305290,48.616520 53.206322,60.157917 54.859123,71.875381 
	C57.025272,87.232285 58.254543,102.723404 59.772640,118.168007 
	C60.096149,121.459290 59.929161,124.798775 59.967278,128.583008 
z"/>
<path fill="#D0B480" opacity="1.000000" stroke="none" 
	d="
M29.036922,113.651382 
	C29.042511,119.061302 29.031162,124.064774 28.680660,129.532135 
	C27.890968,129.977142 27.440428,129.958267 26.989889,129.939392 
	C27.025923,122.874840 27.061956,115.810295 27.159687,108.355682 
	C27.820919,109.725395 28.420454,111.485168 29.036922,113.651382 
z"/>
<path fill="#E2E2E2" opacity="1.000000" stroke="none" 
	d="
M53.999718,246.989227 
	C59.385521,246.014038 64.053688,247.644547 67.766365,251.447311 
	C70.145844,253.884521 68.314186,259.100586 64.143524,261.275604 
	C61.571274,262.617035 58.510239,263.722565 55.669910,263.719635 
	C46.425602,263.710052 37.158222,263.404419 27.957022,262.576141 
	C26.016865,262.401520 22.991638,259.628052 22.851585,257.862793 
	C22.681187,255.715012 25.034908,253.366974 26.632755,251.462311 
	C26.654226,253.441940 25.895451,255.143860 26.165615,256.662720 
	C26.382067,257.879639 27.825016,259.801666 28.762852,259.824829 
	C38.654499,260.069366 48.555290,260.090393 58.450691,259.958099 
	C61.976582,259.910980 64.869682,258.058990 64.669151,254.265640 
	C64.473083,250.556747 61.564114,249.051941 57.574936,249.021835 
	C56.122635,249.006073 55.066273,248.995667 54.008652,248.652740 
	C54.004833,247.876556 54.002277,247.432892 53.999718,246.989227 
z"/>
<path fill="#F9F9F9" opacity="1.000000" stroke="none" 
	d="
M54.009903,248.985260 
	C55.066273,248.995667 56.122635,249.006073 57.617599,249.335052 
	C58.372173,250.434662 58.688145,251.215668 58.986763,252.394104 
	C58.101376,253.823715 57.258595,255.726028 56.361359,255.752075 
	C48.325817,255.985245 40.280689,255.888092 31.677490,255.888092 
	C33.046185,253.876892 34.024265,252.439667 35.251534,251.001617 
	C35.500717,251.000778 35.999077,250.998672 36.344509,250.988800 
	C37.461479,250.322723 38.233017,249.666504 39.250626,249.003967 
	C39.496689,248.997650 39.988754,248.982895 40.378010,248.989182 
	C42.182621,248.355667 43.597980,247.715866 45.013336,247.076065 
	C46.071438,247.059814 47.129543,247.043564 48.774723,247.336853 
	C50.911171,248.092682 52.460537,248.538971 54.009903,248.985260 
z"/>
<path fill="#EBEBEB" opacity="1.000000" stroke="none" 
	d="
M59.004120,251.996689 
	C58.688145,251.215668 58.372173,250.434662 58.013538,249.340424 
	C61.564114,249.051941 64.473083,250.556747 64.669151,254.265640 
	C64.869682,258.058990 61.976582,259.910980 58.450691,259.958099 
	C48.555290,260.090393 38.654499,260.069366 28.762852,259.824829 
	C27.825016,259.801666 26.382067,257.879639 26.165615,256.662720 
	C25.895451,255.143860 26.654226,253.441940 26.984150,251.409225 
	C26.999542,250.999390 27.494453,250.992249 28.111261,250.934723 
	C31.162785,250.231628 33.597500,249.586090 36.032215,248.940552 
	C36.032215,248.940552 36.513027,248.950546 36.641407,249.222260 
	C36.512882,249.995529 36.255974,250.497101 35.999073,250.998672 
	C35.999077,250.998672 35.500717,251.000778 34.877380,251.010834 
	C32.772068,251.968872 30.909882,252.622910 29.896713,253.933380 
	C28.355309,255.927094 28.769791,257.908661 31.768841,257.939545 
	C40.512947,258.029572 49.261574,258.063873 58.000751,257.831451 
	C59.301121,257.796875 60.560112,256.206268 61.838245,255.335556 
	C60.893543,254.222595 59.948833,253.109634 59.004120,251.996689 
z"/>
<path fill="#E2E2E2" opacity="1.000000" stroke="none" 
	d="
M35.920303,248.594421 
	C33.597500,249.586090 31.162785,250.231628 28.358730,250.932220 
	C29.415895,246.706207 31.986738,245.691895 35.920303,248.594421 
z"/>
<path fill="#EBEBEB" opacity="1.000000" stroke="none" 
	d="
M44.749039,246.811111 
	C43.597980,247.715866 42.182621,248.355667 40.380894,248.620087 
	C40.004780,247.506485 40.015034,246.768280 40.025291,246.030090 
	C41.511772,246.202103 42.998253,246.374130 44.749039,246.811111 
z"/>
<path fill="#EBEBEB" opacity="1.000000" stroke="none" 
	d="
M54.008648,248.652740 
	C52.460537,248.538971 50.911171,248.092682 49.171410,247.347168 
	C50.375271,247.029770 51.769520,247.011627 53.581741,246.991364 
	C54.002277,247.432892 54.004833,247.876556 54.008648,248.652740 
z"/>
<path fill="#E2E2E2" opacity="1.000000" stroke="none" 
	d="
M39.694122,246.090424 
	C40.015034,246.768280 40.004780,247.506485 39.991638,248.613800 
	C39.988754,248.982895 39.496689,248.997650 38.990150,248.985901 
	C38.310486,248.956390 38.137360,248.938599 37.964237,248.920822 
	C38.430477,247.997482 38.896721,247.074127 39.694122,246.090424 
z"/>
<path fill="#F1F1F1" opacity="1.000000" stroke="none" 
	d="
M37.721733,248.938400 
	C38.137360,248.938599 38.310486,248.956390 38.744083,248.992218 
	C38.233017,249.666504 37.461479,250.322723 36.344505,250.988800 
	C36.255974,250.497101 36.512882,249.995529 36.881550,249.234543 
	C36.993313,248.975113 37.479225,248.955978 37.721733,248.938400 
z"/>
<path fill="#DBDBDB" opacity="1.000000" stroke="none" 
	d="
M23.776180,273.772583 
	C23.368502,274.795685 22.737331,275.592621 22.052933,276.694763 
	C21.523375,276.343475 21.047045,275.686951 20.570711,275.030426 
	C21.564701,274.535736 22.558695,274.041046 23.776180,273.772583 
z"/>
<path fill="#DBDBDB" opacity="1.000000" stroke="none" 
	d="
M40.745213,276.757141 
	C39.718243,276.886749 38.435478,276.771088 37.073883,276.329559 
	C38.159843,276.173065 39.324631,276.342468 40.745213,276.757141 
z"/>
<path fill="#DBDBDB" opacity="1.000000" stroke="none" 
	d="
M45.670341,276.007477 
	C45.146366,276.485077 44.289062,276.967712 43.215439,277.226227 
	C43.778412,276.672241 44.557713,276.342377 45.670341,276.007477 
z"/>
<path fill="#D4BA8A" opacity="1.000000" stroke="none" 
	d="
M26.972355,130.342957 
	C27.440428,129.958267 27.890968,129.977142 28.679964,129.999084 
	C29.022467,132.081711 29.026516,134.161270 29.015472,136.620117 
	C27.949202,137.296600 26.898020,137.593811 25.528233,137.944107 
	C25.791359,135.580292 26.373089,133.163406 26.972355,130.342957 
z"/>
<path fill="#D4BC96" opacity="1.000000" stroke="none" 
	d="
M25.046013,144.363190 
	C25.285021,145.251266 25.489273,146.546555 25.372288,147.939087 
	C25.037785,146.947678 25.024519,145.859039 25.046013,144.363190 
z"/>
<path fill="#FAFAFA" opacity="1.000000" stroke="none" 
	d="
M39.004246,302.997253 
	C38.706509,302.861481 38.455627,302.665680 38.066414,301.894928 
	C37.248901,300.924225 36.616573,300.468414 35.984245,300.012634 
	C34.857010,299.441406 33.729774,298.870178 32.318802,298.148987 
	C32.002876,297.271545 31.970690,296.544098 32.022961,295.060242 
	C33.407459,293.538422 34.632080,292.358551 36.025265,292.105072 
	C38.101986,291.727142 40.301815,292.088379 42.441883,291.983948 
	C48.297062,291.698212 54.148388,291.333466 60.001240,291.000000 
	C59.999165,291.440460 59.997089,291.880890 59.990273,292.651306 
	C58.430149,294.466644 56.874767,295.952026 54.815971,297.770905 
	C53.619278,298.515503 52.759636,298.783844 52.262646,299.363251 
	C50.487133,301.433289 49.147156,304.893341 47.052578,305.402893 
	C44.703861,305.974213 41.714729,303.913025 39.004246,302.997253 
z"/>
<path fill="#EDEDED" opacity="1.000000" stroke="none" 
	d="
M29.960360,293.047638 
	C28.648397,290.618347 27.336435,288.189087 26.012388,285.379883 
	C28.578003,284.682007 31.268028,283.728119 33.713280,284.160004 
	C42.649754,285.738495 51.291527,284.961914 59.905376,282.328217 
	C61.003231,281.992523 62.492588,282.937286 63.899189,283.643188 
	C63.230034,285.287415 62.462273,286.577271 61.167564,287.636566 
	C59.292885,286.968048 57.915211,286.079742 56.602383,286.166992 
	C49.392284,286.646179 42.206032,287.696289 34.995262,287.869202 
	C31.010382,287.964752 29.480206,289.209656 29.960360,293.047638 
z"/>
<path fill="#F3F3F3" opacity="1.000000" stroke="none" 
	d="
M30.025589,293.350708 
	C29.480206,289.209656 31.010382,287.964752 34.995262,287.869202 
	C42.206032,287.696289 49.392284,286.646179 56.602383,286.166992 
	C57.915211,286.079742 59.292885,286.968048 60.842468,287.722565 
	C60.855728,288.877289 60.667145,289.715485 60.239899,290.776825 
	C54.148388,291.333466 48.297062,291.698212 42.441883,291.983948 
	C40.301815,292.088379 38.101986,291.727142 36.025265,292.105072 
	C34.632080,292.358551 33.407459,293.538422 32.014606,294.696259 
	C31.311466,294.610382 30.701141,294.132050 30.025589,293.350708 
z"/>
<path fill="#F3F3F3" opacity="1.000000" stroke="none" 
	d="
M39.057640,303.347290 
	C41.714729,303.913025 44.703861,305.974213 47.052578,305.402893 
	C49.147156,304.893341 50.487133,301.433289 52.262646,299.363251 
	C52.759636,298.783844 53.619278,298.515503 54.660133,298.054810 
	C54.610821,302.865967 51.927475,306.498260 47.355686,307.070404 
	C44.788376,307.391663 41.870808,304.914001 39.057640,303.347290 
z"/>
<path fill="#F3F3F3" opacity="1.000000" stroke="none" 
	d="
M36.047890,300.320221 
	C36.616573,300.468414 37.248901,300.924225 37.940617,301.690002 
	C37.370510,301.542603 36.741020,301.085205 36.047890,300.320221 
z"/>
<path fill="#FEFEFE" opacity="1.000000" stroke="none" 
	d="
M68.642822,204.904922 
	C69.280846,206.793777 69.814194,208.586212 69.804741,210.375763 
	C69.786011,213.917938 69.616104,217.557861 64.384277,217.994781 
	C53.602806,213.644897 53.446407,213.588531 57.444191,202.496155 
	C58.416222,199.799133 60.787163,197.606308 62.514877,195.181641 
	C64.022957,197.731201 65.526810,200.283295 67.041962,202.828629 
	C67.440910,203.498856 67.874847,204.148239 68.642822,204.904922 
z"/>
<path fill="#DBD9D7" opacity="1.000000" stroke="none" 
	d="
M38.248947,144.035492 
	C38.252556,143.499710 38.533188,143.000168 38.960342,142.252472 
	C39.106861,142.004288 39.517750,142.029205 39.722649,142.032654 
	C41.109554,142.182144 42.291557,142.328201 43.740784,142.972626 
	C44.006989,143.652908 44.005966,143.834824 44.004944,144.016754 
	C42.633247,144.038773 41.261547,144.060791 39.482712,144.127686 
	C38.892368,144.138962 38.709171,144.105362 38.248947,144.035492 
z"/>
<path fill="#DBD9D7" opacity="1.000000" stroke="none" 
	d="
M46.976170,142.929993 
	C48.609299,143.053284 50.242432,143.176590 51.976948,143.633423 
	C50.667763,143.976944 49.257191,143.986923 47.420433,143.728683 
	C46.988220,143.283646 46.982193,143.106827 46.976170,142.929993 
z"/>
<path fill="#ECECEC" opacity="1.000000" stroke="none" 
	d="
M46.607063,142.931274 
	C46.982193,143.106827 46.988220,143.283646 46.998886,143.725739 
	C46.138191,144.146744 45.272858,144.302490 44.206234,144.237488 
	C44.005966,143.834824 44.006989,143.652908 44.015625,143.197571 
	C44.761478,142.926971 45.499722,142.929764 46.607063,142.931274 
z"/>
<path fill="#D9D9D9" opacity="1.000000" stroke="none" 
	d="
M59.042793,146.359436 
	C59.256310,146.174805 59.543789,146.318314 59.864662,146.831604 
	C59.669941,146.946289 59.409504,146.775024 59.042793,146.359436 
z"/>
<path fill="#F1F1F1" opacity="1.000000" stroke="none" 
	d="
M58.986763,252.394104 
	C59.948833,253.109634 60.893543,254.222595 61.838245,255.335556 
	C60.560112,256.206268 59.301121,257.796875 58.000751,257.831451 
	C49.261574,258.063873 40.512947,258.029572 31.768841,257.939545 
	C28.769791,257.908661 28.355309,255.927094 29.896713,253.933380 
	C30.909882,252.622910 32.772068,251.968872 34.628197,251.011658 
	C34.024265,252.439667 33.046185,253.876892 31.677490,255.888092 
	C40.280689,255.888092 48.325817,255.985245 56.361359,255.752075 
	C57.258595,255.726028 58.101376,253.823715 58.986763,252.394104 
z"/>
</svg>