<svg version="1.1" id="Layer_1" xmlns="http://www.w3.org/2000/svg" xmlns:xlink="http://www.w3.org/1999/xlink" x="0px" y="0px"
	 width="100%" viewBox="0 0 91 405" enable-background="new 0 0 91 405" xml:space="preserve">
<path fill="#D2B789" opacity="1.000000" stroke="none" 
	d="
M27.044338,172.315643 
	C27.239317,167.654617 26.991867,162.924042 27.711395,158.345459 
	C29.961006,144.030411 32.789742,129.805237 34.964676,115.480049 
	C36.171829,107.529152 36.206253,99.400490 37.406269,91.448074 
	C37.937489,87.927742 39.892670,84.571251 41.476009,81.272163 
	C44.122486,75.757935 43.825233,68.978767 49.706791,64.755074 
	C52.489258,62.756920 57.248440,61.773037 59.236473,64.958130 
	C62.445152,70.098846 65.558662,75.008568 65.358261,81.812561 
	C65.156189,88.673241 65.944679,96.020508 68.401474,102.336876 
	C69.967583,106.363342 67.863815,111.311295 72.219070,114.800507 
	C73.734695,116.014748 72.804619,120.304886 72.957710,123.192024 
	C73.311737,129.868301 73.645103,136.545670 73.715904,143.920258 
	C73.644119,148.528763 73.578896,152.475998 74.111008,156.340988 
	C74.741341,160.919464 75.886620,165.427017 76.842186,170.318024 
	C76.863701,171.373947 76.851730,172.077148 76.521286,172.748840 
	C74.465324,171.153000 72.727829,169.588684 70.999390,167.621033 
	C71.004433,166.143448 71.000420,165.069214 70.997223,163.580688 
	C70.679337,160.774734 70.360626,158.383072 70.260559,155.753784 
	C70.319740,154.343521 70.160278,153.170837 69.999496,151.583115 
	C69.989876,149.786575 69.981575,148.405075 69.982910,146.584259 
	C69.654411,143.431702 69.316261,140.718475 68.978333,137.675873 
	C68.974304,136.907394 68.970047,136.468323 68.977631,135.622803 
	C68.339691,133.465317 67.689903,131.714264 67.037750,129.635010 
	C67.038940,128.868866 67.042496,128.430893 67.221535,127.802505 
	C66.955536,127.056374 66.514053,126.500664 66.078369,125.585663 
	C66.376808,123.828178 66.669441,122.429977 66.973175,120.666626 
	C66.357567,119.195900 65.730858,118.090332 65.126381,116.650078 
	C65.407959,115.228577 65.667297,114.141777 65.936737,112.711807 
	C65.326302,111.575287 64.705765,110.781921 64.067673,109.658554 
	C64.052200,108.887878 64.054291,108.447205 64.263245,107.781708 
	C63.999512,106.694443 63.528923,105.832001 62.852699,104.779099 
	C62.476093,104.064209 62.305126,103.539795 62.330917,102.812637 
	C62.702118,102.075035 62.876556,101.540169 63.258698,100.780487 
	C62.990112,99.696121 62.513824,98.836594 62.022285,97.985596 
	C62.007038,97.994133 61.977940,98.013496 61.996227,97.637329 
	C62.023853,96.508759 62.033188,95.756363 62.251003,94.792259 
	C62.295666,93.719513 62.131855,92.858467 61.970005,91.628738 
	C61.956676,90.524384 61.941383,89.788704 61.941879,88.652489 
	C60.991444,86.159088 60.025219,84.066238 59.035889,81.734467 
	C59.012787,81.495552 58.962845,81.018112 58.945435,80.727753 
	C58.636391,79.955254 58.344757,79.473106 58.045921,78.583191 
	C57.038242,75.423981 56.037758,72.672539 54.953888,69.618904 
	C53.904034,69.526917 52.937569,69.737129 51.836590,70.151283 
	C51.493004,70.611214 51.242546,70.816780 50.624489,71.065155 
	C49.553600,72.797409 48.808926,74.436440 48.048111,76.480644 
	C47.676445,79.254967 47.320923,81.624115 46.749306,84.180649 
	C46.329601,84.895363 46.125988,85.422684 45.588875,86.062042 
	C44.840778,87.452888 44.426182,88.731697 44.044338,90.323257 
	C44.031166,92.075134 43.985245,93.514259 43.619637,95.052246 
	C42.881222,96.112206 42.462494,97.073326 42.038490,98.430832 
	C42.022652,99.884338 42.012093,100.941444 41.786888,102.201950 
	C41.699764,103.267418 41.827282,104.129501 41.957478,105.362061 
	C41.954266,106.471985 41.948383,107.211426 41.591576,108.078087 
	C40.841507,110.148155 40.442360,112.091011 40.038105,114.430817 
	C40.028454,115.886787 40.023914,116.945786 39.766163,118.307877 
	C37.402096,134.834839 35.291245,151.058701 33.150673,167.630310 
	C31.404924,169.857513 32.252831,175.328857 27.044338,172.315643 
z"/>
<path fill="#D8D8D7" opacity="1.000000" stroke="none" 
	d="
M27.024754,172.699936 
	C32.252831,175.328857 31.404924,169.857513 33.446686,167.530365 
	C34.520046,166.706879 35.267681,166.331085 36.308407,165.804260 
	C38.464504,163.790741 40.327503,161.928238 42.532944,160.070312 
	C43.559441,160.042496 44.243507,160.010117 45.341537,159.922272 
	C49.614784,159.302780 53.600227,157.353958 56.641094,160.935333 
	C54.139877,160.991806 52.082718,161.011932 49.656799,161.028793 
	C46.864365,162.690598 44.440701,164.355652 41.869751,166.282242 
	C41.140247,167.355118 40.558022,168.166443 39.672318,169.047318 
	C38.913891,169.745819 38.458946,170.374786 38.001999,171.001862 
	C38.000000,171.000000 38.003872,171.002945 37.709358,171.171234 
	C32.019512,178.706909 28.025909,186.606796 28.029821,196.422333 
	C28.004366,197.869156 27.985460,198.921387 27.613224,200.095551 
	C23.412582,209.215134 24.695898,218.116180 27.313395,227.175858 
	C29.445044,234.553925 34.173889,238.542816 41.533550,238.874725 
	C50.458385,239.277237 59.417923,239.110733 68.356674,238.920090 
	C72.860870,238.824036 76.452522,236.735443 77.699203,232.092316 
	C78.424034,229.392776 79.124382,226.494019 78.895737,223.763626 
	C77.764313,210.253098 77.030746,196.641815 74.654434,183.334335 
	C73.623741,177.562454 68.982437,172.435303 65.822853,166.736450 
	C65.035385,165.358810 64.406189,164.260025 64.123955,163.164703 
	C65.932808,163.818741 67.394714,164.469315 68.932884,165.423264 
	C69.669540,166.492569 70.329933,167.258469 70.990334,168.024384 
	C72.727829,169.588684 74.465324,171.153000 76.569168,173.169861 
	C78.343765,176.769638 79.752014,179.916885 81.160263,183.064117 
	C81.525444,184.922348 81.809067,186.801804 82.284904,188.631256 
	C82.594406,189.821228 83.593315,190.943085 83.580322,192.087463 
	C83.504349,198.777176 83.292465,205.467896 82.980606,212.151459 
	C82.792007,216.193283 82.339722,220.222824 82.003738,225.079163 
	C80.676735,230.951111 79.351891,236.001785 78.027054,241.052444 
	C78.027054,241.052444 78.001541,241.001114 77.738434,241.070236 
	C76.962845,241.669434 76.450363,242.199509 75.937889,242.729599 
	C65.530891,245.564301 55.018211,245.733429 44.386417,244.223923 
	C40.479233,243.669189 36.491718,243.703079 32.550350,243.359467 
	C28.984159,243.048569 25.756491,242.326645 25.724245,237.600250 
	C25.718227,236.718201 24.539927,235.844131 23.853245,234.196899 
	C22.523607,227.244492 21.243353,221.061600 19.963097,214.878693 
	C19.975893,213.552002 19.988689,212.225311 20.001890,210.068527 
	C20.227621,207.599426 20.579611,205.965988 20.652229,204.320251 
	C20.809450,200.757095 20.823626,197.187637 20.896305,193.620758 
	C22.586510,188.356369 24.309200,183.102051 25.946699,177.821320 
	C26.424341,176.281006 26.659084,174.665344 27.024754,172.699936 
z"/>
<path fill="#D0B382" opacity="1.000000" stroke="none" 
	d="
M73.872818,317.961823 
	C73.928261,318.399902 73.983704,318.837952 73.808907,319.830139 
	C73.742538,321.271912 73.906418,322.159576 74.070297,323.047241 
	C74.832184,329.077637 72.585571,334.466095 70.623055,339.961731 
	C68.600021,345.626862 67.252716,351.556915 64.920288,357.079865 
	C63.283005,360.956757 60.490139,364.345642 57.888248,368.467407 
	C54.985146,367.706421 51.947983,367.280182 49.231201,366.110046 
	C45.313522,364.422760 43.932178,361.070526 42.300907,356.967834 
	C38.552052,347.539337 34.398800,338.471008 33.753166,328.087036 
	C33.551781,324.848053 31.234171,321.740631 30.379833,318.262390 
	C31.899679,318.007782 32.925007,318.063782 34.014889,318.440521 
	C35.083378,320.400360 36.087311,322.039459 37.112862,324.025513 
	C37.770157,324.903625 38.405827,325.434723 39.025291,325.981689 
	C39.009083,325.997559 39.034351,325.968201 39.065697,326.315674 
	C46.235916,337.846527 59.537846,337.883057 67.158249,326.517822 
	C67.928635,325.221161 68.473541,324.146240 69.223228,322.935791 
	C69.685852,322.576050 69.843513,322.295563 70.031586,321.684357 
	C70.472412,320.671631 70.782639,319.933289 71.328217,319.140442 
	C71.563553,319.085938 72.030136,318.960541 72.228195,318.829651 
	C72.678108,318.496765 72.871521,318.249084 73.223007,317.968323 
	C73.439514,317.980835 73.872818,317.961823 73.872818,317.961823 
M52.174488,360.517975 
	C53.917732,359.981384 56.557434,359.981964 57.254570,358.818573 
	C60.978016,352.604523 64.087990,346.057465 64.447998,338.171051 
	C60.503021,339.856506 56.964233,342.549591 53.428272,342.545868 
	C49.914864,342.542206 46.404297,339.826538 42.080189,337.947052 
	C43.168690,346.788818 45.301571,354.309265 52.174488,360.517975 
z"/>
<path fill="#CFCFCF" opacity="1.000000" stroke="none" 
	d="
M76.223724,259.391113 
	C83.658066,261.301819 86.341644,266.721069 84.480659,275.704498 
	C83.957031,278.232117 83.856819,280.847412 82.991089,283.537109 
	C81.539917,282.337585 80.660042,281.023468 79.780174,279.709351 
	C79.476089,280.488037 79.172005,281.266693 78.867920,282.045380 
	C60.821568,290.060608 42.777859,291.826233 24.897224,279.788361 
	C24.058702,282.098907 23.500143,283.638000 22.706066,284.862274 
	C21.906416,278.924347 21.379713,273.296936 20.730970,267.683624 
	C20.649521,266.978851 19.924675,266.348450 19.497938,265.683594 
	C22.061674,263.161011 24.625410,260.638397 27.876358,258.051941 
	C29.027050,258.024536 29.490530,258.061035 29.948336,258.459259 
	C28.920097,260.465607 27.940544,262.138855 26.867441,263.749817 
	C22.468077,270.354187 26.330429,277.223358 35.670128,279.991272 
	C47.883259,283.610748 60.011135,281.647369 72.097092,279.653717 
	C77.459755,278.769104 80.304329,273.911652 79.112495,268.717529 
	C78.386658,265.554321 77.202187,262.496368 76.223724,259.391113 
z"/>
<path fill="#D6D6D6" opacity="1.000000" stroke="none" 
	d="
M22.941584,285.177094 
	C23.500143,283.638000 24.058702,282.098907 24.897224,279.788361 
	C42.777859,291.826233 60.821568,290.060608 78.867920,282.045380 
	C79.172005,281.266693 79.476089,280.488037 79.780174,279.709351 
	C80.660042,281.023468 81.539917,282.337585 82.704025,283.823578 
	C84.973579,291.671448 79.870140,297.638580 77.623489,304.806335 
	C76.454468,305.143738 75.730858,305.076599 75.018326,304.625244 
	C75.345100,302.487000 75.660805,300.732941 75.979454,298.579468 
	C76.318344,296.123047 76.654289,294.066040 77.138969,291.678741 
	C77.410980,290.053986 77.534256,288.759583 77.667656,287.358734 
	C71.156952,288.889374 65.485466,290.633087 59.682995,291.494751 
	C49.969730,292.937164 40.577160,291.708374 31.935081,286.533020 
	C31.028954,285.990387 28.990110,285.738770 28.629728,286.218414 
	C27.879238,287.217255 27.328411,288.984894 27.697493,290.107025 
	C30.334156,298.123444 32.719955,306.289093 36.241505,313.919952 
	C38.032391,317.800598 42.011463,320.671448 45.296616,324.044495 
	C46.078255,324.410400 46.564651,324.730621 47.043846,325.284149 
	C47.036636,325.517456 47.023560,325.984131 46.765091,326.129120 
	C46.001827,326.865112 45.497025,327.456085 44.628082,328.023041 
	C42.520744,327.322052 40.777550,326.645111 39.034355,325.968201 
	C39.034351,325.968201 39.009083,325.997559 38.982147,325.663025 
	C38.333893,324.778503 37.712566,324.228516 37.091244,323.678558 
	C36.087311,322.039459 35.083378,320.400360 33.982708,318.062988 
	C31.904100,311.470612 29.818119,305.608643 27.986202,299.668304 
	C27.126667,296.881104 25.969273,294.809570 22.682966,294.905090 
	C22.009701,292.805634 21.336433,290.706177 20.842911,288.216492 
	C21.662300,286.943176 22.301943,286.060150 22.941584,285.177094 
z"/>
<path fill="#DADADA" opacity="1.000000" stroke="none" 
	d="
M76.251457,259.152283 
	C77.202187,262.496368 78.386658,265.554321 79.112495,268.717529 
	C80.304329,273.911652 77.459755,278.769104 72.097092,279.653717 
	C60.011135,281.647369 47.883259,283.610748 35.670128,279.991272 
	C26.330429,277.223358 22.468077,270.354187 26.867441,263.749817 
	C27.940544,262.138855 28.920097,260.465607 30.352440,258.416138 
	C31.841105,258.008362 32.919991,258.005402 33.941513,258.349792 
	C32.911659,260.011627 31.730053,261.220093 31.001671,262.658173 
	C27.187317,270.188995 28.210876,274.613190 36.083031,276.754059 
	C47.649967,279.899689 59.282368,278.095917 70.862823,276.507355 
	C74.811043,275.965790 76.986244,272.978394 76.601295,269.597778 
	C76.334312,267.253204 73.623154,265.186951 72.001183,262.748932 
	C71.998322,262.501526 71.993896,262.006714 71.836136,261.730774 
	C70.782677,260.973785 69.886978,260.492737 68.605453,260.006836 
	C66.471802,259.687531 64.723969,259.373016 62.595695,259.047699 
	C61.452553,259.073395 60.689865,259.109924 59.494629,259.127289 
	C57.037163,259.084045 55.012241,259.059937 52.990829,258.660980 
	C53.001495,257.537689 53.008644,256.789246 53.413689,256.100311 
	C57.364182,256.690918 61.110268,258.705933 64.086945,254.820038 
	C64.524368,254.799896 64.961792,254.779739 65.790520,255.246246 
	C69.268639,256.784180 72.355461,257.835510 75.442276,258.886810 
	C75.730637,258.584930 76.009605,258.593811 76.251457,259.152283 
z"/>
<path fill="#CCCCCC" opacity="1.000000" stroke="none" 
	d="
M44.992226,328.047089 
	C45.497025,327.456085 46.001827,326.865112 46.996910,326.120361 
	C47.487198,325.966614 47.950993,325.940125 48.215958,325.954163 
	C48.657799,325.969727 48.834679,325.971313 49.389297,325.988129 
	C50.523590,326.013031 51.280148,326.022705 52.356731,326.029419 
	C53.442268,325.736877 54.207779,325.447327 55.308929,325.127655 
	C56.092060,325.056915 56.539551,325.016357 57.351852,324.980469 
	C60.480015,322.993652 63.243362,321.002197 66.354843,318.953796 
	C67.806068,317.266632 68.909172,315.636414 70.021606,313.765656 
	C70.030922,313.525146 70.034935,313.043793 70.376785,312.944946 
	C71.485809,310.901825 72.252983,308.957520 73.013412,307.007690 
	C73.006660,307.002167 73.021973,307.021423 73.325684,306.953735 
	C74.088684,306.260498 74.547966,305.634979 75.007248,305.009460 
	C75.730858,305.076599 76.454468,305.143738 77.391624,305.125427 
	C76.771660,308.123871 75.938133,311.207733 74.655426,314.729126 
	C73.806335,316.096313 73.406425,317.026062 73.006516,317.955780 
	C72.871521,318.249084 72.678108,318.496765 72.108055,318.709656 
	C71.557526,318.878693 71.325203,319.036835 71.092873,319.194977 
	C70.782639,319.933289 70.472412,320.671631 69.846573,321.836914 
	C69.295647,322.492126 69.124809,322.761261 69.018448,323.071350 
	C68.473541,324.146240 67.928635,325.221161 66.769180,326.569641 
	C65.109138,326.902496 64.063644,326.961761 62.622246,327.030548 
	C57.153194,327.992371 52.080044,328.944672 46.709198,329.840485 
	C45.938408,329.205017 45.465317,328.626068 44.992226,328.047089 
z"/>
<path fill="#CBC9C7" opacity="1.000000" stroke="none" 
	d="
M22.394661,295.117706 
	C25.969273,294.809570 27.126667,296.881104 27.986202,299.668304 
	C29.818119,305.608643 31.904100,311.470612 33.918152,317.742249 
	C32.925007,318.063782 31.899679,318.007782 30.489901,317.973816 
	C28.481543,314.117432 25.351110,310.132080 25.616812,306.387726 
	C25.945564,301.754791 24.177628,298.715363 22.394661,295.117706 
z"/>
<path fill="#F0F0F0" opacity="1.000000" stroke="none" 
	d="
M63.842861,254.457855 
	C61.110268,258.705933 57.364182,256.690918 52.947556,256.086395 
	C46.055313,256.676147 40.027096,257.339294 33.998875,258.002441 
	C32.919991,258.005402 31.841105,258.008362 30.358112,258.054443 
	C29.490530,258.061035 29.027050,258.024536 28.214775,257.976440 
	C29.406101,253.430435 33.545933,254.180634 36.790230,254.081604 
	C45.717953,253.809113 54.661495,254.054916 63.842861,254.457855 
z"/>
<path fill="#F3F3F3" opacity="1.000000" stroke="none" 
	d="
M22.706066,284.862274 
	C22.301943,286.060150 21.662300,286.943176 20.707394,287.886353 
	C18.723688,280.823853 16.672462,273.724976 19.275993,266.017517 
	C19.924675,266.348450 20.649521,266.978851 20.730970,267.683624 
	C21.379713,273.296936 21.906416,278.924347 22.706066,284.862274 
z"/>
<path fill="#EEEEEE" opacity="1.000000" stroke="none" 
	d="
M19.537712,214.928528 
	C21.243353,221.061600 22.523607,227.244492 23.871578,233.819763 
	C22.491455,232.038635 20.237061,230.022827 19.774462,227.656708 
	C18.970524,223.544601 19.273474,219.216110 19.537712,214.928528 
z"/>
<path fill="#C4B59C" opacity="1.000000" stroke="none" 
	d="
M76.808701,169.965317 
	C75.886620,165.427017 74.741341,160.919464 74.111008,156.340988 
	C73.578896,152.475998 73.644119,148.528763 73.655975,144.320312 
	C74.816650,150.601273 75.726044,157.186066 76.742981,163.754196 
	C77.011818,165.490585 77.612122,167.175674 77.865562,169.364838 
	C77.383507,169.885345 77.096107,169.925323 76.808701,169.965317 
z"/>
<path fill="#E0E0E0" opacity="1.000000" stroke="none" 
	d="
M78.387756,240.968994 
	C79.351891,236.001785 80.676735,230.951111 81.990601,225.484589 
	C84.967613,229.192169 83.288864,237.409821 78.387756,240.968994 
z"/>
<path fill="#F8F8F8" opacity="1.000000" stroke="none" 
	d="
M20.564522,193.855347 
	C20.823626,197.187637 20.809450,200.757095 20.652229,204.320251 
	C20.579611,205.965988 20.227621,207.599426 19.987083,209.670685 
	C19.310490,209.255661 18.003986,208.332062 18.093683,207.573578 
	C18.627708,203.057861 19.484404,198.580322 20.564522,193.855347 
z"/>
<path fill="#E3E2E1" opacity="1.000000" stroke="none" 
	d="
M76.842194,170.318024 
	C77.096107,169.925323 77.383507,169.885345 78.081924,169.703857 
	C79.605316,173.948135 80.717682,178.333923 81.495155,182.891907 
	C79.752014,179.916885 78.343765,176.769638 76.887634,173.201385 
	C76.851730,172.077148 76.863701,171.373947 76.842194,170.318024 
z"/>
<path fill="#F0F0F0" opacity="1.000000" stroke="none" 
	d="
M75.274338,258.546814 
	C72.355461,257.835510 69.268639,256.784180 66.092766,255.380219 
	C69.037933,256.087311 72.072166,257.147095 75.274338,258.546814 
z"/>
<path fill="#C0BEBA" opacity="1.000000" stroke="none" 
	d="
M74.393585,322.916107 
	C73.906418,322.159576 73.742538,321.271912 73.804779,320.162964 
	C76.622353,321.049042 76.665756,321.228943 74.393585,322.916107 
z"/>
<path fill="#C0BEBA" opacity="1.000000" stroke="none" 
	d="
M73.223015,317.968323 
	C73.406425,317.026062 73.806335,316.096313 74.518692,315.073914 
	C74.592033,315.771149 74.352936,316.561096 73.993324,317.656433 
	C73.872818,317.961823 73.439514,317.980835 73.223015,317.968323 
z"/>
<path fill="#E0E0E0" opacity="1.000000" stroke="none" 
	d="
M76.212250,242.639893 
	C76.450363,242.199509 76.962845,241.669434 77.764107,241.083008 
	C77.530800,241.534485 77.008705,242.042343 76.212250,242.639893 
z"/>
<path fill="#F3E1B1" opacity="1.000000" stroke="none" 
	d="
M44.927570,159.977737 
	C44.243507,160.010117 43.559441,160.042496 42.132050,160.036728 
	C38.487316,159.740463 38.195641,158.229843 38.521393,155.530441 
	C39.060287,151.064835 38.896011,146.514389 39.029911,141.671478 
	C39.034786,140.905655 39.037777,140.468048 39.390636,139.905060 
	C40.141968,137.841431 40.543430,135.903198 40.951180,133.594238 
	C40.962608,132.481979 40.967751,131.740463 41.225243,130.699432 
	C41.638927,128.258057 41.800262,126.116173 41.964134,123.602516 
	C41.966293,122.487167 41.965904,121.743599 42.219696,120.699936 
	C42.631592,118.253159 42.789307,116.106461 42.954689,113.633293 
	C42.963009,112.870979 42.963654,112.435143 43.218758,111.699448 
	C43.630821,109.252747 43.788429,107.105896 43.956238,104.590164 
	C43.967564,103.481125 43.968685,102.740952 44.199440,101.770714 
	C44.309143,100.358292 44.189213,99.175934 44.059715,97.669601 
	C44.056026,96.914116 44.061909,96.482597 44.399475,95.940353 
	C45.457939,93.866264 46.184719,91.902893 46.929382,89.573235 
	C46.954967,88.471771 46.962669,87.736603 47.190392,86.797119 
	C47.262077,85.726288 47.113739,84.859779 46.965401,83.993263 
	C47.320923,81.624115 47.676445,79.254967 48.367718,76.372635 
	C49.452545,74.230286 50.201626,72.601105 50.950706,70.971931 
	C51.242546,70.816780 51.493004,70.611214 52.219940,70.168701 
	C53.504295,69.961815 54.270782,69.941460 55.037273,69.921104 
	C56.037758,72.672539 57.038242,75.423981 57.852924,78.765297 
	C58.099033,79.909492 58.530941,80.463799 58.962845,81.018112 
	C58.962845,81.018112 59.012787,81.495552 59.008549,82.071823 
	C58.995277,83.098686 58.986244,83.549286 58.768028,84.209793 
	C58.720905,85.278458 58.882957,86.137222 59.048225,87.322174 
	C59.057014,88.083282 59.062584,88.518204 59.055130,89.290871 
	C59.368771,90.420677 59.695435,91.212738 60.022728,92.373177 
	C60.038387,93.478165 60.053417,94.214767 60.061810,95.297974 
	C60.696095,96.434212 61.337017,97.223854 61.977943,98.013496 
	C61.977940,98.013496 62.007038,97.994133 62.000401,98.364182 
	C61.985878,99.491440 61.977993,100.248650 61.785191,101.178864 
	C61.778236,101.906372 61.956200,102.460869 62.134159,103.015373 
	C62.305126,103.539795 62.476093,104.064209 62.825592,105.158310 
	C62.996346,106.486732 62.988575,107.245491 62.796227,108.169907 
	C62.747593,108.891541 62.883526,109.447525 63.020374,110.373260 
	C63.034370,111.481110 63.047447,112.219200 63.047676,113.321732 
	C63.365665,114.793022 63.696507,115.899872 64.025421,117.402298 
	C64.037300,118.850151 64.051117,119.902428 64.053070,121.351013 
	C64.399879,123.539818 64.758560,125.332329 65.114456,127.308929 
	C65.111664,127.493019 65.131187,127.863586 65.099380,128.275116 
	C65.695786,130.470001 66.323997,132.253326 66.954407,134.363281 
	C66.954475,135.125305 66.952339,135.560715 66.712219,136.307327 
	C66.660744,139.411224 66.847244,142.203949 67.033493,145.325775 
	C67.034973,146.093750 67.036682,146.532593 67.024963,147.390381 
	C67.355827,149.869186 67.700119,151.929077 68.036880,154.319687 
	C68.032394,155.090958 68.035461,155.531479 68.024483,156.362762 
	C68.025261,160.401703 66.388306,161.617996 62.981850,160.120209 
	C61.626190,159.524139 60.340187,158.768188 58.979580,158.185120 
	C53.706303,155.925308 48.088867,156.659988 44.927570,159.977737 
z"/>
<path fill="#DEC796" opacity="1.000000" stroke="none" 
	d="
M39.040768,140.030441 
	C39.037777,140.468048 39.034786,140.905655 38.776451,141.973724 
	C37.685844,150.387894 36.850582,158.171600 36.015312,165.955292 
	C35.267681,166.331085 34.520046,166.706879 33.476402,167.182617 
	C35.291245,151.058701 37.402096,134.834839 39.984749,118.516724 
	C40.959541,119.281670 41.462528,120.140854 41.965515,121.000031 
	C41.965904,121.743599 41.966293,122.487167 41.619438,123.723907 
	C41.172428,126.477699 41.072659,128.738312 40.972889,130.998932 
	C40.967751,131.740463 40.962608,132.481979 40.603760,133.722168 
	C39.846962,136.157364 39.443863,138.093903 39.040768,140.030441 
z"/>
<path fill="#E6D2A4" opacity="1.000000" stroke="none" 
	d="
M45.341537,159.922272 
	C48.088867,156.659988 53.706303,155.925308 58.979580,158.185120 
	C60.340187,158.768188 61.626190,159.524139 62.981850,160.120209 
	C66.388306,161.617996 68.025261,160.401703 68.357590,156.368683 
	C69.150459,155.986374 69.596191,155.988892 70.041916,155.991394 
	C70.360626,158.383072 70.679337,160.774734 70.690170,163.629395 
	C69.873741,164.434875 69.365189,164.777374 68.856628,165.119873 
	C67.394714,164.469315 65.932808,163.818741 63.794334,163.068237 
	C61.759537,162.642715 60.401318,162.317108 58.858498,161.758636 
	C58.123940,161.341568 57.573978,161.157349 57.045631,160.959885 
	C57.067238,160.946625 57.085155,160.898972 57.085155,160.898972 
	C53.600227,157.353958 49.614784,159.302780 45.341537,159.922272 
z"/>
<path fill="#DEC695" opacity="1.000000" stroke="none" 
	d="
M67.038399,146.971436 
	C67.036682,146.532593 67.034973,146.093750 67.267548,145.036331 
	C67.993935,142.280258 68.486023,140.142761 68.978111,138.005264 
	C69.316261,140.718475 69.654411,143.431702 69.616158,146.578156 
	C68.505966,146.998077 67.772186,146.984756 67.038399,146.971436 
z"/>
<path fill="#E6D2A4" opacity="1.000000" stroke="none" 
	d="
M68.978333,137.675873 
	C68.486023,140.142761 67.993935,142.280258 67.267792,144.707214 
	C66.847244,142.203949 66.660744,139.411224 67.049049,136.311798 
	C68.071167,136.013153 68.518478,136.021194 68.965790,136.029236 
	C68.970047,136.468323 68.974304,136.907394 68.978333,137.675873 
z"/>
<path fill="#E6D2A4" opacity="1.000000" stroke="none" 
	d="
M67.024963,147.390381 
	C67.772186,146.984756 68.505966,146.998077 69.606506,147.017487 
	C69.981575,148.405075 69.989876,149.786575 69.777573,151.756256 
	C69.052780,152.892609 68.548599,153.440781 68.044418,153.988953 
	C67.700119,151.929077 67.355827,149.869186 67.024963,147.390381 
z"/>
<path fill="#E8D3A4" opacity="1.000000" stroke="none" 
	d="
M42.219696,120.699936 
	C41.462528,120.140854 40.959541,119.281670 40.237961,118.213638 
	C40.023914,116.945786 40.028454,115.886787 40.400833,114.421814 
	C41.494785,113.997147 42.220901,113.978455 42.947021,113.959770 
	C42.789307,116.106461 42.631592,118.253159 42.219696,120.699936 
z"/>
<path fill="#DEC695" opacity="1.000000" stroke="none" 
	d="
M58.977211,83.999878 
	C58.986244,83.549286 58.995277,83.098686 59.031654,82.310738 
	C60.025219,84.066238 60.991444,86.159088 61.585464,88.637093 
	C60.498226,88.999199 59.783188,88.976158 59.068153,88.953125 
	C59.062584,88.518204 59.057014,88.083282 59.253181,87.111542 
	C59.295685,85.716438 59.136448,84.858162 58.977211,83.999878 
z"/>
<path fill="#DEC796" opacity="1.000000" stroke="none" 
	d="
M42.954689,113.633293 
	C42.220901,113.978455 41.494785,113.997147 40.405937,114.024849 
	C40.442360,112.091011 40.841507,110.148155 41.611389,108.442505 
	C42.309513,109.786240 42.636909,110.892776 42.964302,111.999306 
	C42.963654,112.435143 42.963009,112.870979 42.954689,113.633293 
z"/>
<path fill="#E8D3A4" opacity="1.000000" stroke="none" 
	d="
M43.218758,111.699448 
	C42.636909,110.892776 42.309513,109.786240 41.962311,108.315292 
	C41.948383,107.211426 41.954266,106.471985 42.290314,105.361374 
	C43.062332,104.979820 43.504189,104.969437 43.946041,104.959045 
	C43.788429,107.105896 43.630821,109.252747 43.218758,111.699448 
z"/>
<path fill="#E8D3A4" opacity="1.000000" stroke="none" 
	d="
M46.911499,89.939529 
	C46.184719,91.902893 45.457939,93.866264 44.366600,95.665695 
	C43.981129,95.318970 43.960224,95.136185 43.939323,94.953392 
	C43.985245,93.514259 44.031166,92.075134 44.407768,90.319839 
	C45.462795,89.982300 46.187145,89.960915 46.911499,89.939529 
z"/>
<path fill="#E8D3A4" opacity="1.000000" stroke="none" 
	d="
M44.069283,97.993591 
	C44.189213,99.175934 44.309143,100.358292 43.871780,101.771660 
	C42.876831,102.001305 42.439182,101.999924 42.001534,101.998550 
	C42.012093,100.941444 42.022652,99.884338 42.375038,98.422638 
	C43.167667,98.009888 43.618473,98.001740 44.069283,97.993591 
z"/>
<path fill="#DEC695" opacity="1.000000" stroke="none" 
	d="
M68.977631,135.622803 
	C68.518478,136.021194 68.071167,136.013153 67.287033,136.000610 
	C66.952339,135.560715 66.954475,135.125305 66.970367,133.955856 
	C67.002792,132.135620 67.021461,131.049423 67.040123,129.963211 
	C67.689903,131.714264 68.339691,133.465317 68.977631,135.622803 
z"/>
<path fill="#E6D2A4" opacity="1.000000" stroke="none" 
	d="
M67.037750,129.635010 
	C67.021461,131.049423 67.002792,132.135620 66.968163,133.629242 
	C66.323997,132.253326 65.695786,130.470001 65.293640,128.286926 
	C65.519707,127.887207 65.911804,127.876076 66.195023,127.908630 
	C66.667511,127.958427 66.856781,127.975677 67.046051,127.992935 
	C67.042496,128.430893 67.038940,128.868866 67.037750,129.635010 
z"/>
<path fill="#E6D2A4" opacity="1.000000" stroke="none" 
	d="
M65.117241,127.124840 
	C64.758560,125.332329 64.399879,123.539818 64.414230,121.363373 
	C65.512192,120.996880 66.237129,121.014336 66.962067,121.031784 
	C66.669441,122.429977 66.376808,123.828178 66.046921,125.885620 
	C65.995689,126.745033 65.981712,126.945190 65.755356,127.130249 
	C65.542969,127.115158 65.117241,127.124840 65.117241,127.124840 
z"/>
<path fill="#DEC695" opacity="1.000000" stroke="none" 
	d="
M66.973175,120.666626 
	C66.237129,121.014336 65.512192,120.996880 64.426086,120.967072 
	C64.051117,119.902428 64.037300,118.850151 64.294510,117.399017 
	C64.745071,116.995033 64.924606,116.989906 65.104141,116.984772 
	C65.730858,118.090332 66.357567,119.195900 66.973175,120.666626 
z"/>
<path fill="#DEC796" opacity="1.000000" stroke="none" 
	d="
M46.929382,89.573242 
	C46.187145,89.960915 45.462795,89.982300 44.375015,90.007095 
	C44.426182,88.731697 44.840778,87.452888 45.732704,86.268349 
	C46.420364,86.626892 46.673809,86.839828 46.970371,87.001434 
	C46.962669,87.736603 46.954967,88.471771 46.929382,89.573242 
z"/>
<path fill="#DEC695" opacity="1.000000" stroke="none" 
	d="
M68.036880,154.319687 
	C68.548599,153.440781 69.052780,152.892609 69.778893,152.171295 
	C70.160278,153.170837 70.319740,154.343521 70.260559,155.753784 
	C69.596191,155.988892 69.150459,155.986374 68.371628,155.977936 
	C68.035461,155.531479 68.032394,155.090958 68.036880,154.319687 
z"/>
<path fill="#E6D2A4" opacity="1.000000" stroke="none" 
	d="
M65.126381,116.650078 
	C64.924606,116.989906 64.745071,116.995033 64.296440,117.003448 
	C63.696507,115.899872 63.365665,114.793022 63.405510,113.334335 
	C64.493004,113.006653 65.209816,113.030807 65.926636,113.054970 
	C65.667297,114.141777 65.407959,115.228577 65.126381,116.650078 
z"/>
<path fill="#DEC796" opacity="1.000000" stroke="none" 
	d="
M50.624489,71.065155 
	C50.201626,72.601105 49.452545,74.230286 48.383858,75.967468 
	C48.808926,74.436440 49.553600,72.797409 50.624489,71.065155 
z"/>
<path fill="#DEC796" opacity="1.000000" stroke="none" 
	d="
M41.786888,102.201942 
	C42.439182,101.999924 42.876831,102.001305 43.642143,102.001732 
	C43.968685,102.740952 43.967564,103.481125 43.956238,104.590164 
	C43.504189,104.969437 43.062332,104.979820 42.287643,104.990891 
	C41.827282,104.129501 41.699764,103.267418 41.786888,102.201942 
z"/>
<path fill="#DEC695" opacity="1.000000" stroke="none" 
	d="
M60.068451,94.951370 
	C60.053417,94.214767 60.038387,93.478165 60.346989,92.372406 
	C61.103092,92.001297 61.535568,91.999359 61.968040,91.997421 
	C62.131855,92.858467 62.295666,93.719513 61.920929,94.786484 
	C60.944405,94.978729 60.506428,94.965050 60.068451,94.951370 
z"/>
<path fill="#DEC695" opacity="1.000000" stroke="none" 
	d="
M65.936737,112.711807 
	C65.209816,113.030807 64.493004,113.006653 63.418358,112.969887 
	C63.047447,112.219200 63.034370,111.481110 63.286736,110.371429 
	C63.729866,109.996071 63.907547,109.992317 64.085228,109.988564 
	C64.705765,110.781921 65.326302,111.575287 65.936737,112.711807 
z"/>
<path fill="#E6D2A4" opacity="1.000000" stroke="none" 
	d="
M61.970005,91.628738 
	C61.535568,91.999359 61.103092,92.001297 60.346359,92.004013 
	C59.695435,91.212738 59.368771,90.420677 59.055130,89.290878 
	C59.783188,88.976158 60.498226,88.999199 61.569672,89.037636 
	C61.941383,89.788704 61.956676,90.524384 61.970005,91.628738 
z"/>
<path fill="#DEC695" opacity="1.000000" stroke="none" 
	d="
M68.932892,165.423279 
	C69.365189,164.777374 69.873741,164.434875 70.689354,164.043671 
	C71.000420,165.069214 71.004433,166.143448 70.999390,167.621033 
	C70.329933,167.258469 69.669540,166.492569 68.932892,165.423279 
z"/>
<path fill="#DEC796" opacity="1.000000" stroke="none" 
	d="
M54.953888,69.618904 
	C54.270782,69.941460 53.504295,69.961815 52.354454,69.964752 
	C52.937569,69.737129 53.904034,69.526917 54.953888,69.618904 
z"/>
<path fill="#DEC796" opacity="1.000000" stroke="none" 
	d="
M44.059711,97.669609 
	C43.618473,98.001740 43.167667,98.009888 42.380318,98.026245 
	C42.462494,97.073326 42.881222,96.112206 43.619633,95.052246 
	C43.960224,95.136185 43.981129,95.318970 44.034912,95.776428 
	C44.061909,96.482597 44.056026,96.914116 44.059711,97.669609 
z"/>
<path fill="#E8D3A4" opacity="1.000000" stroke="none" 
	d="
M47.190392,86.797119 
	C46.673809,86.839828 46.420364,86.626892 46.066200,86.156319 
	C46.125988,85.422684 46.329601,84.895363 46.749306,84.180649 
	C47.113739,84.859779 47.262077,85.726288 47.190392,86.797119 
z"/>
<path fill="#E6D2A4" opacity="1.000000" stroke="none" 
	d="
M60.061813,95.297974 
	C60.506428,94.965050 60.944405,94.978729 61.712456,94.998184 
	C62.033188,95.756363 62.023853,96.508759 61.996231,97.637329 
	C61.337017,97.223854 60.696095,96.434212 60.061813,95.297974 
z"/>
<path fill="#DEC695" opacity="1.000000" stroke="none" 
	d="
M61.970108,101.005867 
	C61.977993,100.248650 61.985878,99.491440 62.015648,98.355637 
	C62.513824,98.836594 62.990112,99.696121 62.988182,100.779320 
	C62.330006,101.003944 62.150055,101.004906 61.970108,101.005867 
z"/>
<path fill="#DEC695" opacity="1.000000" stroke="none" 
	d="
M62.980797,108.004242 
	C62.988575,107.245491 62.996346,106.486732 63.031227,105.348770 
	C63.528923,105.832001 63.999512,106.694443 63.994019,107.779869 
	C63.338890,108.003319 63.159843,108.003777 62.980797,108.004242 
z"/>
<path fill="#E6D2A4" opacity="1.000000" stroke="none" 
	d="
M58.945435,80.727753 
	C58.530941,80.463799 58.099033,79.909492 57.860123,79.173073 
	C58.344757,79.473106 58.636391,79.955254 58.945435,80.727753 
z"/>
<path fill="#E6D2A4" opacity="1.000000" stroke="none" 
	d="
M61.785191,101.178864 
	C62.150055,101.004906 62.330006,101.003944 62.780479,101.004150 
	C62.876556,101.540169 62.702118,102.075035 62.330917,102.812637 
	C61.956200,102.460869 61.778236,101.906372 61.785191,101.178864 
z"/>
<path fill="#E6D2A4" opacity="1.000000" stroke="none" 
	d="
M62.796227,108.169907 
	C63.159843,108.003777 63.338890,108.003319 63.787155,108.004700 
	C64.054291,108.447205 64.052200,108.887878 64.067673,109.658554 
	C63.907547,109.992317 63.729866,109.996071 63.285820,110.001663 
	C62.883526,109.447525 62.747593,108.891541 62.796227,108.169907 
z"/>
<path fill="#DEC695" opacity="1.000000" stroke="none" 
	d="
M65.967735,127.145340 
	C65.981712,126.945190 65.995689,126.745033 66.041122,126.244904 
	C66.514053,126.500664 66.955536,127.056374 67.221542,127.802505 
	C66.856781,127.975677 66.667511,127.958427 66.210968,127.726883 
	C65.943695,127.512573 65.967735,127.145340 65.967735,127.145340 
z"/>
<path fill="#F8F8F8" opacity="1.000000" stroke="none" 
	d="
M59.043098,161.991516 
	C60.401318,162.317108 61.759537,162.642715 63.447376,163.064789 
	C64.406189,164.260025 65.035385,165.358810 65.838470,167.106491 
	C70.102585,175.944016 73.324669,184.370438 73.747299,193.676834 
	C74.032677,199.961090 74.810753,206.228668 74.938354,212.512421 
	C75.022743,216.668625 74.345078,220.840286 73.757225,224.689163 
	C73.011566,220.959091 72.796448,217.466980 71.876953,214.171417 
	C71.538788,212.959381 69.636719,211.780151 68.245544,211.456757 
	C67.659134,211.320435 66.237434,213.311508 65.740974,214.553604 
	C64.645172,217.295181 63.895573,220.175156 62.669830,222.807037 
	C60.484158,222.077240 58.650208,221.157272 56.779339,221.074783 
	C51.823631,220.856293 46.851807,221.024185 41.886669,220.993576 
	C35.437599,220.953827 31.739536,218.053879 29.986746,211.970551 
	C29.672485,210.879868 28.685974,209.982895 28.008728,208.546234 
	C27.993919,205.388535 27.980238,202.681076 27.966555,199.973618 
	C27.985460,198.921387 28.004366,197.869156 28.373451,196.308014 
	C30.004208,192.114807 31.210499,188.402557 32.584080,184.753296 
	C34.319393,180.143005 36.191036,175.584045 38.003872,171.002945 
	C38.003872,171.002945 38.000000,171.000000 38.308399,170.936829 
	C39.069798,170.241699 39.522797,169.609741 39.975796,168.977768 
	C40.558022,168.166443 41.140247,167.355118 42.235718,166.266998 
	C45.174500,164.337494 47.600033,162.684769 50.025562,161.032043 
	C52.082718,161.011932 54.139877,160.991806 56.641094,160.935333 
	C57.085155,160.898972 57.067238,160.946625 57.081409,161.234085 
	C57.744755,161.678192 58.393929,161.834854 59.043098,161.991516 
z"/>
<path fill="#E8E8E8" opacity="1.000000" stroke="none" 
	d="
M74.008583,225.005035 
	C74.345078,220.840286 75.022743,216.668625 74.938354,212.512421 
	C74.810753,206.228668 74.032677,199.961090 73.747299,193.676834 
	C73.324669,184.370438 70.102585,175.944016 65.996735,167.385345 
	C68.982437,172.435303 73.623741,177.562454 74.654434,183.334335 
	C77.030746,196.641815 77.764313,210.253098 78.895737,223.763626 
	C79.124382,226.494019 78.424034,229.392776 77.699203,232.092316 
	C76.452522,236.735443 72.860870,238.824036 68.356674,238.920090 
	C59.417923,239.110733 50.458385,239.277237 41.533550,238.874725 
	C34.173889,238.542816 29.445044,234.553925 27.313395,227.175858 
	C24.695898,218.116180 23.412582,209.215134 27.613224,200.095551 
	C27.980238,202.681076 27.993919,205.388535 28.003757,208.996231 
	C28.004576,212.594711 28.009237,215.292953 28.013199,218.396271 
	C28.083519,225.278198 31.024403,231.053268 37.105572,232.011032 
	C46.238544,233.449448 55.706875,232.758560 65.429405,233.048615 
	C73.355568,235.138763 74.023026,234.636917 74.015015,226.965942 
	C74.014336,226.312302 74.010796,225.658676 74.008583,225.005035 
z"/>
<path fill="#E8D3A4" opacity="1.000000" stroke="none" 
	d="
M36.308411,165.804260 
	C36.850582,158.171600 37.685844,150.387894 38.774567,142.301941 
	C38.896011,146.514389 39.060287,151.064835 38.521393,155.530441 
	C38.195641,158.229843 38.487316,159.740463 41.789612,160.032166 
	C40.327503,161.928238 38.464504,163.790741 36.308411,165.804260 
z"/>
<path fill="#E8E8E8" opacity="1.000000" stroke="none" 
	d="
M37.709358,171.171234 
	C36.191036,175.584045 34.319393,180.143005 32.584080,184.753296 
	C31.210499,188.402557 30.004208,192.114807 28.380001,195.913422 
	C28.025909,186.606796 32.019512,178.706909 37.709358,171.171234 
z"/>
<path fill="#E8E8E8" opacity="1.000000" stroke="none" 
	d="
M49.656799,161.028793 
	C47.600033,162.684769 45.174500,164.337494 42.383003,166.005463 
	C44.440701,164.355652 46.864365,162.690598 49.656799,161.028793 
z"/>
<path fill="#E8E8E8" opacity="1.000000" stroke="none" 
	d="
M39.672318,169.047318 
	C39.522797,169.609741 39.069798,170.241699 38.310402,170.938705 
	C38.458946,170.374786 38.913891,169.745819 39.672318,169.047318 
z"/>
<path fill="#DDBD85" opacity="1.000000" stroke="none" 
	d="
M51.840523,360.353180 
	C45.301571,354.309265 43.168690,346.788818 42.080189,337.947052 
	C46.404297,339.826538 49.914864,342.542206 53.428272,342.545868 
	C56.964233,342.549591 60.503021,339.856506 64.447998,338.171051 
	C64.087990,346.057465 60.978016,352.604523 57.254570,358.818573 
	C56.557434,359.981964 53.917732,359.981384 51.840523,360.353180 
z"/>
<path fill="#B1AEA8" opacity="1.000000" stroke="none" 
	d="
M44.628082,328.023041 
	C45.465317,328.626068 45.938408,329.205017 47.017349,330.117188 
	C50.877792,330.591980 54.216003,331.228638 57.357075,330.698120 
	C59.393036,330.354248 61.141090,328.305725 63.018150,327.021027 
	C64.063644,326.961761 65.109138,326.902496 66.543701,326.791382 
	C59.537846,337.883057 46.235916,337.846527 39.065697,326.315674 
	C40.777550,326.645111 42.520744,327.322052 44.628082,328.023041 
z"/>
<path fill="#B1AEA8" opacity="1.000000" stroke="none" 
	d="
M37.112862,324.025513 
	C37.712566,324.228516 38.333893,324.778503 38.998356,325.647156 
	C38.405827,325.434723 37.770157,324.903625 37.112862,324.025513 
z"/>
<path fill="#C0BEBA" opacity="1.000000" stroke="none" 
	d="
M69.223228,322.935791 
	C69.124809,322.761261 69.295647,322.492126 69.715973,322.111328 
	C69.843513,322.295563 69.685852,322.576050 69.223228,322.935791 
z"/>
<path fill="#C0BEBA" opacity="1.000000" stroke="none" 
	d="
M71.328217,319.140442 
	C71.325203,319.036835 71.557526,318.878693 71.909988,318.840546 
	C72.030136,318.960541 71.563553,319.085938 71.328217,319.140442 
z"/>
<path fill="#DDDDDD" opacity="1.000000" stroke="none" 
	d="
M45.001373,323.998779 
	C42.011463,320.671448 38.032391,317.800598 36.241505,313.919952 
	C32.719955,306.289093 30.334156,298.123444 27.697493,290.107025 
	C27.328411,288.984894 27.879238,287.217255 28.629728,286.218414 
	C28.990110,285.738770 31.028954,285.990387 31.935081,286.533020 
	C40.577160,291.708374 49.969730,292.937164 59.682995,291.494751 
	C65.485466,290.633087 71.156952,288.889374 77.667656,287.358734 
	C77.534256,288.759583 77.410980,290.053986 76.784851,291.622833 
	C74.511551,291.985931 72.593246,291.659515 70.994148,292.229187 
	C58.580315,296.651367 46.402115,297.072571 34.415203,290.794220 
	C33.394272,290.259491 32.034344,290.371918 30.831903,290.183685 
	C30.369259,290.611420 29.906614,291.039124 29.443970,291.466858 
	C31.290678,294.648682 33.137390,297.830505 35.004894,301.360535 
	C35.678932,303.139130 36.332172,304.569550 36.753922,306.263489 
	C36.988117,308.481079 37.081264,310.633423 37.994377,312.349426 
	C40.120083,316.344269 42.640743,320.128937 45.001373,323.998779 
z"/>
<path fill="#E4E4E4" opacity="1.000000" stroke="none" 
	d="
M34.984097,301.012360 
	C33.137390,297.830505 31.290678,294.648682 29.443970,291.466858 
	C29.906614,291.039124 30.369259,290.611420 30.831903,290.183685 
	C32.034344,290.371918 33.394272,290.259491 34.415203,290.794220 
	C46.402115,297.072571 58.580315,296.651367 70.994148,292.229187 
	C72.593246,291.659515 74.511551,291.985931 76.636108,291.953156 
	C76.654289,294.066040 76.318344,296.123047 75.610245,298.586182 
	C74.498299,298.998413 73.758492,299.004517 72.824509,298.709839 
	C71.127571,298.193878 69.486160,297.474945 68.144302,297.844299 
	C58.528019,300.491058 49.045998,301.740326 39.491657,297.427521 
	C36.418797,296.040466 34.742825,297.615723 34.984097,301.012360 
z"/>
<path fill="#E4E4E4" opacity="1.000000" stroke="none" 
	d="
M45.296616,324.044495 
	C42.640743,320.128937 40.120083,316.344269 37.994377,312.349426 
	C37.081264,310.633423 36.988117,308.481079 37.085835,306.265320 
	C38.091007,306.008423 38.532776,306.013153 38.991699,306.377502 
	C40.014008,308.817291 41.019161,310.897461 42.069992,313.333252 
	C43.078583,315.605621 43.969082,317.563263 45.023163,319.428497 
	C46.279373,321.651367 47.675850,323.794952 49.011566,325.972900 
	C48.834679,325.971313 48.657799,325.969727 48.098152,325.776245 
	C47.531143,325.360168 47.309700,325.182343 47.051052,325.050842 
	C46.564651,324.730621 46.078255,324.410400 45.296616,324.044495 
z"/>
<path fill="#DDDDDD" opacity="1.000000" stroke="none" 
	d="
M73.018692,299.010590 
	C73.758492,299.004517 74.498299,298.998413 75.607300,298.985596 
	C75.660805,300.732941 75.345100,302.487000 75.018318,304.625244 
	C74.547966,305.634979 74.088684,306.260498 73.316345,306.572662 
	C72.991394,305.498260 72.979492,304.737183 72.974197,303.562683 
	C72.993431,301.769714 73.006058,300.390137 73.018692,299.010590 
z"/>
<path fill="#EDEDED" opacity="1.000000" stroke="none" 
	d="
M47.043846,325.284149 
	C47.309700,325.182343 47.531143,325.360168 47.833191,325.762207 
	C47.950993,325.940125 47.487198,325.966614 47.255379,325.975372 
	C47.023560,325.984131 47.036636,325.517456 47.043846,325.284149 
z"/>
<path fill="#E0E0E0" opacity="1.000000" stroke="none" 
	d="
M33.941513,258.349823 
	C40.027096,257.339294 46.055313,256.676147 52.549664,256.026886 
	C53.008644,256.789246 53.001495,257.537689 52.567585,258.666290 
	C49.441936,259.388611 46.743050,259.730774 43.650600,260.052155 
	C41.506634,260.355957 39.756229,260.680573 37.635826,261.016632 
	C32.436169,262.179657 30.726599,266.240417 31.452230,270.056702 
	C31.834730,272.068359 35.948238,274.577850 38.516426,274.746948 
	C47.238770,275.321228 56.049351,275.374939 64.776947,274.833344 
	C74.688515,274.218201 75.818901,271.937927 72.004044,262.996338 
	C73.623154,265.186951 76.334312,267.253204 76.601295,269.597778 
	C76.986244,272.978394 74.811043,275.965790 70.862823,276.507355 
	C59.282368,278.095917 47.649967,279.899689 36.083031,276.754059 
	C28.210876,274.613190 27.187317,270.188995 31.001671,262.658173 
	C31.730053,261.220093 32.911659,260.011627 33.941513,258.349823 
z"/>
<path fill="#E6E6E6" opacity="1.000000" stroke="none" 
	d="
M72.001175,262.748932 
	C75.818901,271.937927 74.688515,274.218201 64.776947,274.833344 
	C56.049351,275.374939 47.238770,275.321228 38.516426,274.746948 
	C35.948238,274.577850 31.834730,272.068359 31.452230,270.056702 
	C30.726599,266.240417 32.436169,262.179657 37.633858,261.389709 
	C37.998638,262.497467 37.995388,263.243591 37.994911,263.993774 
	C37.997684,263.997833 38.002209,264.002441 37.654671,264.062134 
	C36.534428,265.414581 35.761730,266.707306 34.785927,268.244629 
	C35.860008,269.648834 37.109337,271.775940 38.418842,271.813629 
	C48.138691,272.093536 57.871460,272.019348 67.597160,271.865906 
	C68.648163,271.849365 70.500412,270.664032 70.540413,269.941132 
	C70.611450,268.657562 69.578064,267.312897 68.813042,265.761719 
	C67.753136,265.012390 66.886902,264.495148 65.999710,263.627838 
	C64.977882,261.871338 63.977013,260.464935 62.976143,259.058502 
	C64.723969,259.373016 66.471802,259.687531 68.691986,260.331421 
	C70.107529,261.109406 71.050713,261.558075 71.993896,262.006714 
	C71.993896,262.006714 71.998322,262.501526 72.001175,262.748932 
z"/>
<path fill="#F9F9F9" opacity="1.000000" stroke="none" 
	d="
M44.044167,260.072937 
	C46.743050,259.730774 49.441936,259.388611 52.564072,259.041138 
	C55.012241,259.059937 57.037163,259.084045 59.531029,259.462830 
	C61.667507,261.210846 63.335045,262.604187 65.128571,264.315521 
	C64.746231,265.407501 64.250320,266.845947 63.727718,266.855713 
	C56.005116,266.999969 48.276226,267.048859 40.557438,266.824310 
	C39.679070,266.798798 38.852692,264.986328 38.002209,264.002441 
	C38.002209,264.002441 37.997684,263.997833 38.341473,263.938965 
	C40.471565,262.611053 42.257866,261.342010 44.044167,260.072937 
z"/>
<path fill="#EDEDED" opacity="1.000000" stroke="none" 
	d="
M65.002586,263.997559 
	C63.335045,262.604187 61.667507,261.210846 59.963570,259.481934 
	C60.689865,259.109924 61.452553,259.073395 62.595695,259.047699 
	C63.977013,260.464935 64.977882,261.871338 65.745087,263.634338 
	C65.341820,263.993134 65.172203,263.995331 65.002586,263.997559 
z"/>
<path fill="#E0E0E0" opacity="1.000000" stroke="none" 
	d="
M71.836136,261.730774 
	C71.050713,261.558075 70.107529,261.109406 69.077805,260.336212 
	C69.886978,260.492737 70.782677,260.973785 71.836136,261.730774 
z"/>
<path fill="#F8F8F8" opacity="1.000000" stroke="none" 
	d="
M42.024323,312.977600 
	C41.019161,310.897461 40.014008,308.817291 39.080154,306.042725 
	C40.671135,304.821838 42.411591,303.532227 43.673359,303.897308 
	C50.117706,305.761658 56.371567,306.567627 62.985165,304.348480 
	C66.397408,303.203583 69.261772,304.498444 68.749115,309.232574 
	C66.637886,311.898041 64.724792,314.292755 62.898796,316.752106 
	C60.886517,319.462372 58.954205,322.232025 56.987045,324.975800 
	C56.539551,325.016357 56.092060,325.056915 55.099098,324.867676 
	C53.705669,324.447723 52.857723,324.257599 51.848457,323.765808 
	C48.466198,319.968597 45.245262,316.473083 42.024323,312.977600 
z"/>
<path fill="#E4E4E4" opacity="1.000000" stroke="none" 
	d="
M57.351856,324.980469 
	C58.954205,322.232025 60.886517,319.462372 62.898796,316.752106 
	C64.724792,314.292755 66.637886,311.898041 69.004501,309.010864 
	C70.653481,307.023315 71.810539,305.499725 72.967590,303.976135 
	C72.979492,304.737183 72.991394,305.498260 73.012634,306.640381 
	C73.021973,307.021423 73.006660,307.002167 72.716133,307.181519 
	C71.628716,309.255188 70.831825,311.149506 70.034935,313.043793 
	C70.034935,313.043793 70.030922,313.525146 69.687973,313.842102 
	C68.232246,315.776276 67.119476,317.393494 66.006714,319.010742 
	C63.243362,321.002197 60.480015,322.993652 57.351856,324.980469 
z"/>
<path fill="#EDEDED" opacity="1.000000" stroke="none" 
	d="
M42.070000,313.333252 
	C45.245262,316.473083 48.466198,319.968597 51.850666,324.092224 
	C52.021702,325.157715 52.029205,325.595062 52.036705,326.032379 
	C51.280148,326.022705 50.523590,326.013031 49.389297,325.988129 
	C47.675850,323.794952 46.279373,321.651367 45.023163,319.428497 
	C43.969082,317.563263 43.078583,315.605621 42.070000,313.333252 
z"/>
<path fill="#C0BEBA" opacity="1.000000" stroke="none" 
	d="
M62.622246,327.030548 
	C61.141090,328.305725 59.393036,330.354248 57.357075,330.698120 
	C54.216003,331.228638 50.877792,330.591980 47.315048,330.173676 
	C52.080044,328.944672 57.153194,327.992371 62.622246,327.030548 
z"/>
<path fill="#DDDDDD" opacity="1.000000" stroke="none" 
	d="
M66.354836,318.953796 
	C67.119476,317.393494 68.232246,315.776276 69.678650,314.082581 
	C68.909172,315.636414 67.806068,317.266632 66.354836,318.953796 
z"/>
<path fill="#DDDDDD" opacity="1.000000" stroke="none" 
	d="
M70.376785,312.944946 
	C70.831825,311.149506 71.628716,309.255188 72.722885,307.187073 
	C72.252983,308.957520 71.485809,310.901825 70.376785,312.944946 
z"/>
<path fill="#DDDDDD" opacity="1.000000" stroke="none" 
	d="
M52.356735,326.029419 
	C52.029205,325.595062 52.021702,325.157715 52.011986,324.393951 
	C52.857723,324.257599 53.705669,324.447723 54.763451,324.897827 
	C54.207779,325.447327 53.442268,325.736877 52.356735,326.029419 
z"/>
<path fill="#E8D3A4" opacity="1.000000" stroke="none" 
	d="
M41.225243,130.699432 
	C41.072659,128.738312 41.172428,126.477699 41.616898,124.095688 
	C41.800262,126.116173 41.638927,128.258057 41.225243,130.699432 
z"/>
<path fill="#E8D3A4" opacity="1.000000" stroke="none" 
	d="
M39.390636,139.905060 
	C39.443863,138.093903 39.846962,136.157364 40.597477,134.092896 
	C40.543430,135.903198 40.141968,137.841431 39.390636,139.905060 
z"/>
<path fill="#E6D2A4" opacity="1.000000" stroke="none" 
	d="
M58.768028,84.209793 
	C59.136448,84.858162 59.295685,85.716438 59.249966,86.785355 
	C58.882957,86.137222 58.720905,85.278458 58.768028,84.209793 
z"/>
<path fill="#D2B789" opacity="1.000000" stroke="none" 
	d="
M65.755356,127.130249 
	C65.967735,127.145340 65.943695,127.512573 65.927750,127.694321 
	C65.911804,127.876076 65.519707,127.887207 65.325447,127.875397 
	C65.131187,127.863586 65.111664,127.493019 65.114456,127.308929 
	C65.117241,127.124840 65.542969,127.115158 65.755356,127.130249 
z"/>
<path fill="#E8E8E8" opacity="1.000000" stroke="none" 
	d="
M58.858498,161.758636 
	C58.393929,161.834854 57.744755,161.678192 57.059799,161.247345 
	C57.573978,161.157349 58.123940,161.341568 58.858498,161.758636 
z"/>
<path fill="#F3F3F3" opacity="1.000000" stroke="none" 
	d="
M28.013897,217.991196 
	C28.009237,215.292953 28.004576,212.594711 28.004883,209.446472 
	C28.685974,209.982895 29.672485,210.879868 29.986746,211.970551 
	C31.739536,218.053879 35.437599,220.953827 41.886669,220.993576 
	C46.851807,221.024185 51.823631,220.856293 56.779339,221.074783 
	C58.650208,221.157272 60.484158,222.077240 62.669018,223.207275 
	C63.001606,224.866302 63.000118,225.933456 62.610691,226.985626 
	C56.605541,226.979767 50.983910,227.132385 45.372295,226.959656 
	C39.144741,226.767975 32.957191,226.267578 29.992311,219.304184 
	C29.733358,218.695999 28.691889,218.420975 28.013897,217.991196 
z"/>
<path fill="#FDFDFD" opacity="1.000000" stroke="none" 
	d="
M62.998631,227.000610 
	C63.000118,225.933456 63.001606,224.866302 63.003910,223.398895 
	C63.895573,220.175156 64.645172,217.295181 65.740974,214.553604 
	C66.237434,213.311508 67.659134,211.320435 68.245544,211.456757 
	C69.636719,211.780151 71.538788,212.959381 71.876953,214.171417 
	C72.796448,217.466980 73.011566,220.959091 73.757225,224.689163 
	C74.010796,225.658676 74.014336,226.312302 74.015015,226.965942 
	C74.023026,234.636917 73.355568,235.138763 65.367508,232.702759 
	C64.272079,230.521103 63.635353,228.760849 62.998631,227.000610 
z"/>
<path fill="#EEEEEE" opacity="1.000000" stroke="none" 
	d="
M62.610691,226.985626 
	C63.635353,228.760849 64.272079,230.521103 64.970703,232.627197 
	C55.706875,232.758560 46.238544,233.449448 37.105572,232.011032 
	C31.024403,231.053268 28.083519,225.278198 28.013199,218.396271 
	C28.691889,218.420975 29.733358,218.695999 29.992311,219.304184 
	C32.957191,226.267578 39.144741,226.767975 45.372295,226.959656 
	C50.983910,227.132385 56.605541,226.979767 62.610691,226.985626 
z"/>
<path fill="#EDEDED" opacity="1.000000" stroke="none" 
	d="
M72.974197,303.562683 
	C71.810539,305.499725 70.653481,307.023315 69.241028,308.768616 
	C69.261772,304.498444 66.397408,303.203583 62.985165,304.348480 
	C56.371567,306.567627 50.117706,305.761658 43.673359,303.897308 
	C42.411591,303.532227 40.671135,304.821838 39.063004,305.683105 
	C38.532776,306.013153 38.091007,306.008423 37.317329,306.001831 
	C36.332172,304.569550 35.678932,303.139130 35.004894,301.360535 
	C34.742825,297.615723 36.418797,296.040466 39.491657,297.427521 
	C49.045998,301.740326 58.528019,300.491058 68.144302,297.844299 
	C69.486160,297.474945 71.127571,298.193878 72.824501,298.709839 
	C73.006058,300.390137 72.993431,301.769714 72.974197,303.562683 
z"/>
<path fill="#EDEDED" opacity="1.000000" stroke="none" 
	d="
M43.650604,260.052155 
	C42.257866,261.342010 40.471565,262.611053 38.338699,263.934906 
	C37.995388,263.243591 37.998638,262.497467 38.003853,261.378235 
	C39.756229,260.680573 41.506634,260.355957 43.650604,260.052155 
z"/>
<path fill="#F3F3F3" opacity="1.000000" stroke="none" 
	d="
M65.128571,264.315521 
	C65.172203,263.995331 65.341820,263.993134 65.766052,263.984406 
	C66.886902,264.495148 67.753136,265.012390 68.785759,266.144775 
	C66.942719,267.835052 65.040268,269.333527 62.896084,269.875305 
	C60.365448,270.514679 57.593033,270.674744 54.983128,270.429260 
	C48.301373,269.800873 41.651596,268.832489 34.989029,268.000061 
	C35.761730,266.707306 36.534428,265.414581 37.654671,264.062134 
	C38.852692,264.986328 39.679070,266.798798 40.557438,266.824310 
	C48.276226,267.048859 56.005116,266.999969 63.727718,266.855713 
	C64.250320,266.845947 64.746231,265.407501 65.128571,264.315521 
z"/>
<path fill="#EDEDED" opacity="1.000000" stroke="none" 
	d="
M34.785927,268.244629 
	C41.651596,268.832489 48.301373,269.800873 54.983128,270.429260 
	C57.593033,270.674744 60.365448,270.514679 62.896084,269.875305 
	C65.040268,269.333527 66.942719,267.835052 68.979431,266.376862 
	C69.578064,267.312897 70.611450,268.657562 70.540413,269.941132 
	C70.500412,270.664032 68.648163,271.849365 67.597160,271.865906 
	C57.871460,272.019348 48.138691,272.093536 38.418842,271.813629 
	C37.109337,271.775940 35.860008,269.648834 34.785927,268.244629 
z"/>
</svg>