<svg version="1.1" id="Layer_1" xmlns="http://www.w3.org/2000/svg" xmlns:xlink="http://www.w3.org/1999/xlink" x="0px" y="0px"
	 width="100%" viewBox="0 0 91 405" enable-background="new 0 0 91 405" xml:space="preserve">
<path fill="#F8F8F8" opacity="1.000000" stroke="none" 
	d="
M28.865646,227.074646 
	C28.016998,226.701218 27.168348,226.327805 26.142288,225.341324 
	C25.285383,223.534836 24.605885,222.341400 24.098896,220.804504 
	C25.632483,219.644958 26.921669,218.333115 28.370611,218.123001 
	C30.865141,217.761292 33.948097,218.247803 33.548622,214.542175 
	C33.161633,210.952347 32.504463,206.884369 27.372538,207.051407 
	C25.246052,207.120651 23.135309,207.673615 21.022064,207.583435 
	C21.351759,202.879333 21.569273,198.586868 22.027176,194.320190 
	C22.704319,188.010666 24.092031,181.918259 29.117800,177.448151 
	C30.596960,176.132507 32.368164,175.145233 34.379234,174.005096 
	C35.501068,173.998886 36.249195,173.995010 37.195770,174.244064 
	C38.267952,174.006973 39.141685,173.516968 40.388306,173.019470 
	C41.507565,173.010574 42.253937,173.009140 43.289799,173.295029 
	C44.889854,173.720032 46.243725,174.139069 47.503239,173.945160 
	C52.167561,173.227097 55.578186,175.134979 58.223518,178.739975 
	C64.020752,186.640259 66.096939,195.992523 66.088608,205.303192 
	C66.080986,213.819000 61.510616,216.393082 53.202084,215.735031 
	C51.200577,215.576508 49.058811,217.188797 46.617928,217.992950 
	C44.166378,219.996597 42.078442,221.994019 39.747742,224.002502 
	C39.504982,224.013580 39.019512,224.037064 38.718498,224.045105 
	C37.945683,224.372833 37.473881,224.692520 36.660225,225.043884 
	C33.834126,225.741898 31.349886,226.408279 28.865646,227.074646 
z"/>
<path fill="#D1B88A" opacity="1.000000" stroke="none" 
	d="
M43.113270,117.842926 
	C47.529358,114.269791 46.963974,109.049583 47.278381,104.294907 
	C47.713360,97.716843 48.368523,96.023315 54.437984,95.406250 
	C56.840714,95.161957 59.803459,97.010857 61.985153,98.619965 
	C69.912186,104.466553 75.725937,111.605896 76.082161,122.197678 
	C76.294998,128.525803 78.045837,134.851440 77.817184,141.131302 
	C77.588806,147.403519 75.728531,153.612747 74.640770,159.859528 
	C74.333443,161.624496 74.226463,163.424347 73.715256,165.861404 
	C73.284645,167.345673 73.166382,168.176743 73.027008,169.006104 
	C73.005890,169.004379 73.007347,169.046722 72.605255,169.038666 
	C71.131676,169.056610 70.060204,169.082596 68.656357,169.077606 
	C67.879738,169.019547 67.435486,168.992447 66.839050,168.730148 
	C67.472191,166.661469 68.817993,164.867783 68.951385,162.988068 
	C69.782684,151.273544 71.095970,139.518173 70.760277,127.819084 
	C70.478821,118.010155 67.076225,108.739990 59.312546,101.832542 
	C57.915173,100.589287 56.328403,98.285721 54.641460,102.168709 
	C54.213074,104.283882 54.056076,106.116508 53.535488,108.046318 
	C52.446903,111.080971 51.680485,114.008980 51.007046,116.958237 
	C50.098110,120.938797 49.597534,125.058022 48.216331,128.861588 
	C47.708755,130.259354 45.265808,131.477463 43.561455,131.707077 
	C42.645115,131.830505 40.800484,129.848145 40.459568,128.534439 
	C39.544704,125.008972 39.214230,121.331841 38.624378,117.539482 
	C40.817219,117.687714 41.965244,117.765320 43.113270,117.842926 
z"/>
<path fill="#D9D9D9" opacity="1.000000" stroke="none" 
	d="
M66.991234,168.965363 
	C67.435486,168.992447 67.879738,169.019547 68.717735,169.394867 
	C69.835785,170.969193 70.560089,172.195297 71.284393,173.421387 
	C71.737656,173.067551 72.190918,172.713699 72.644188,172.359863 
	C72.765236,171.255478 72.886292,170.151108 73.007339,169.046722 
	C73.007347,169.046722 73.005890,169.004379 73.222366,169.007278 
	C73.438843,169.010178 73.830620,169.013428 73.830620,169.013428 
	C74.479164,170.767456 75.127701,172.521484 75.445999,174.696320 
	C72.152214,178.264099 72.188919,179.642471 75.182808,183.128891 
	C75.480980,181.819504 75.809189,180.378204 76.137405,178.936905 
	C76.938538,181.941101 77.739670,184.945312 78.174187,188.444092 
	C75.458984,191.617035 76.395103,193.552078 79.187286,195.349503 
	C79.913040,196.119843 80.645607,196.606247 81.378166,197.092636 
	C81.419067,198.778549 81.459976,200.464478 81.027710,202.572052 
	C79.771881,203.529816 78.989220,204.065948 78.206558,204.602081 
	C79.220352,205.089798 80.234154,205.577499 81.247940,206.065216 
	C81.317833,206.523987 81.387726,206.982758 80.856331,207.721100 
	C78.913063,208.941116 77.571083,209.881561 76.229111,210.822021 
	C77.089638,211.863388 77.950165,212.904770 78.810684,213.946152 
	C77.606712,215.658752 76.402748,217.371353 74.589180,219.158997 
	C73.643959,219.676407 73.308342,220.118759 72.972733,220.561096 
	C65.510529,223.974655 58.171753,227.711029 50.522602,230.635651 
	C47.645786,231.735535 44.049065,230.952576 40.248886,230.749115 
	C39.471695,230.253494 39.186977,230.120773 38.863071,230.072113 
	C38.863071,230.072113 38.947140,230.048294 38.900333,229.723526 
	C36.546364,228.984177 34.239201,228.569595 31.932037,228.155014 
	C31.007647,228.010727 30.083256,227.866440 29.012255,227.398407 
	C31.349886,226.408279 33.834126,225.741898 36.832382,225.265900 
	C37.904102,224.983185 38.461803,224.510117 39.019508,224.037064 
	C39.019512,224.037064 39.504982,224.013580 40.136024,224.006927 
	C43.513973,222.993515 46.260883,221.986725 49.411407,220.984253 
	C55.648579,222.902924 60.109097,219.949661 64.983109,217.327759 
	C69.312080,214.999084 71.584000,211.740417 71.920151,207.279770 
	C72.746193,196.318146 68.384331,186.313828 65.457390,176.078278 
	C64.761848,173.645996 63.124908,171.482910 62.343021,169.134140 
	C64.173782,169.036652 65.582512,169.001007 66.991234,168.965363 
z"/>
<path fill="#CEB68A" opacity="1.000000" stroke="none" 
	d="
M18.149559,173.037292 
	C17.289309,165.413589 16.432390,157.789520 15.565862,150.166550 
	C15.401552,148.721069 15.199154,147.279922 15.336649,145.132156 
	C15.435830,139.709091 15.138725,134.992676 15.009534,130.271652 
	C14.869278,125.146317 14.885266,120.016716 14.833122,114.888969 
	C16.014570,112.076920 17.191103,109.262794 18.378359,106.453194 
	C22.376255,96.992355 34.380222,89.589394 45.470661,94.611328 
	C44.852310,98.754997 44.207901,103.073288 43.056946,107.425613 
	C41.815701,108.250336 41.081001,109.041023 40.612705,109.544998 
	C39.552715,107.876671 38.317013,105.931778 37.068954,103.583725 
	C37.102787,99.679237 36.791065,96.610832 31.635815,99.019501 
	C29.892027,100.179146 28.304880,101.134972 27.123878,102.454338 
	C18.000954,112.646049 16.750265,124.816368 18.385323,137.712372 
	C19.957401,150.111633 21.446178,162.521454 22.615477,174.953369 
	C20.889450,174.332489 19.519503,173.684891 18.149559,173.037292 
z"/>
<path fill="#CDB17F" opacity="1.000000" stroke="none" 
	d="
M72.840630,298.976227 
	C69.201141,308.326782 66.882126,318.441589 57.939949,324.723083 
	C57.275757,325.189636 56.669186,325.811462 55.933231,326.090576 
	C51.351135,327.828339 46.388302,327.518005 41.610252,328.598724 
	C32.373104,330.687988 30.423449,328.565826 26.960802,319.481232 
	C25.199123,314.859283 23.150885,310.346558 21.149849,305.102509 
	C22.125618,304.206696 23.217669,303.714630 24.234520,303.838684 
	C26.153908,304.072998 28.030024,304.661804 30.009491,305.435974 
	C31.086607,306.158325 32.078358,306.547974 33.433285,306.948730 
	C34.523113,306.964264 35.249763,306.968689 36.126621,307.197296 
	C36.857018,307.284302 37.437206,307.147095 38.473427,307.009125 
	C46.987572,305.815674 55.095524,304.871185 63.071377,303.269043 
	C65.271423,302.827087 67.077713,300.424927 69.217018,298.887878 
	C69.369362,298.853546 69.681290,298.837738 70.079224,298.887878 
	C71.264984,298.950775 72.052811,298.963501 72.840630,298.976227 
M44.334198,312.002838 
	C43.890076,312.003082 43.445950,312.003357 42.284565,311.686310 
	C39.910381,311.147797 37.553379,310.507172 35.156433,310.104034 
	C33.329880,309.796814 31.452650,309.790863 29.597965,309.650909 
	C29.699142,311.688416 29.221310,314.007202 30.041395,315.695496 
	C31.183323,318.046326 33.296818,319.925201 34.996700,322.502441 
	C34.996700,322.502441 35.000805,322.998779 35.087505,323.637421 
	C35.725407,324.091187 36.363308,324.544983 37.681911,325.298706 
	C43.155254,327.594635 45.594547,323.093628 48.566654,320.216614 
	C53.897404,322.729187 54.742287,322.698578 58.574574,319.713928 
	C59.049946,318.809296 59.525314,317.904663 60.004635,316.503357 
	C60.004635,316.503357 60.006409,316.006714 60.721165,315.876892 
	C61.763878,313.395111 62.929054,310.951447 63.725933,308.393097 
	C63.855225,307.977966 62.129681,306.326660 61.636665,306.476990 
	C56.049026,308.181000 50.534489,310.124695 44.334198,312.002838 
z"/>
<path fill="#EDEDED" opacity="1.000000" stroke="none" 
	d="
M14.989878,291.004547 
	C14.025686,288.580170 13.061494,286.155792 12.472692,283.360779 
	C13.565352,282.326782 14.282622,281.663391 15.010444,280.998199 
	C15.020995,280.996399 15.042311,280.993896 15.377741,281.049744 
	C18.425600,284.186279 20.911797,287.508575 23.894283,290.300781 
	C31.787752,297.690613 42.710880,296.711761 49.151443,288.282532 
	C51.280563,285.495972 51.455299,283.197083 48.462299,280.578278 
	C45.641178,278.109833 43.456768,274.913727 41.278687,271.737976 
	C47.438931,270.120728 52.631752,271.469360 58.015343,274.234680 
	C61.685253,276.119720 63.580173,277.945648 62.609692,282.009827 
	C58.527214,282.368439 57.850639,284.874390 57.659382,288.014404 
	C56.518417,289.033905 55.715714,290.005798 54.577850,291.040192 
	C53.812550,292.058533 53.382401,293.014374 52.613716,294.015411 
	C50.179626,295.717407 48.084076,297.374146 45.625053,299.033630 
	C44.534691,299.045746 43.807796,299.055176 42.708355,299.046539 
	C39.866528,299.037537 37.397251,299.046631 34.515171,299.052612 
	C27.704611,298.890564 22.594025,296.077332 18.178263,291.599457 
	C17.555159,290.967590 16.073915,291.181915 14.989878,291.004547 
z"/>
<path fill="#E5E5E5" opacity="1.000000" stroke="none" 
	d="
M25.056625,246.221008 
	C33.144249,242.544846 41.144958,242.298172 49.731476,245.189133 
	C55.029202,246.972778 61.024151,246.587463 66.648125,247.523972 
	C74.447273,248.822662 79.352600,254.559479 80.114708,262.314575 
	C80.441170,265.636719 81.361458,268.900482 81.596878,272.601257 
	C80.455170,273.673309 79.728508,274.334808 78.595490,274.998230 
	C77.106018,274.981415 76.022888,274.962708 74.966423,274.570953 
	C75.588112,272.362976 76.606178,270.544952 76.680214,268.689240 
	C76.794731,265.819122 76.342766,262.913116 75.971207,260.042999 
	C75.807732,258.780273 75.426941,257.477692 74.843834,256.348694 
	C71.871864,250.594269 66.670807,249.737152 60.862122,249.930145 
	C57.634045,250.037399 56.029366,251.082962 54.732426,254.363571 
	C53.328094,257.915833 50.333160,260.839233 48.021561,263.625610 
	C49.248627,258.634460 50.486061,254.054581 51.723495,249.474701 
	C51.273319,249.314270 50.823143,249.153824 50.372967,248.993393 
	C47.593662,255.591690 44.814362,262.190002 41.943310,269.006104 
	C40.290398,269.006104 38.650810,269.006104 37.017769,268.623474 
	C39.336857,264.171265 41.027912,259.510315 44.158955,256.219452 
	C46.654968,253.596054 45.451134,251.583344 44.764156,249.586731 
	C44.356720,248.402542 42.158440,247.116394 40.765972,247.117035 
	C35.513809,247.119476 30.261881,247.630417 25.009369,247.662384 
	C25.024790,246.989532 25.040707,246.605270 25.056625,246.221008 
M40.584206,264.516174 
	C40.584206,264.516174 40.479168,264.577332 40.584206,264.516174 
z"/>
<path fill="#DEC798" opacity="1.000000" stroke="none" 
	d="
M37.081306,103.986885 
	C38.317013,105.931778 39.552715,107.876671 40.612705,109.544998 
	C41.081001,109.041023 41.815701,108.250336 42.752937,107.675423 
	C42.930790,110.960953 42.906105,114.030701 42.997345,117.471695 
	C41.965244,117.765320 40.817219,117.687714 38.624378,117.539482 
	C39.214230,121.331841 39.544704,125.008972 40.459568,128.534439 
	C40.800484,129.848145 42.645115,131.830505 43.561455,131.707077 
	C45.265808,131.477463 47.708755,130.259354 48.216331,128.861588 
	C49.597534,125.058022 50.098110,120.938797 51.007046,116.958237 
	C51.680485,114.008980 52.446903,111.080971 53.572090,108.484306 
	C56.168037,118.139580 54.514580,127.155289 51.809143,136.074982 
	C50.582096,140.120483 49.117294,144.739777 44.155117,144.623947 
	C39.389317,144.512695 38.874859,139.715225 38.080414,136.033783 
	C36.651028,129.410065 35.328915,122.755447 34.243088,116.068100 
	C33.542164,111.751266 33.540447,107.400597 37.081306,103.986885 
z"/>
<path fill="#D7D6D5" opacity="1.000000" stroke="none" 
	d="
M17.821041,173.263641 
	C19.519503,173.684891 20.889450,174.332489 22.950172,174.840530 
	C24.779089,174.488693 25.917231,174.276428 26.981167,174.404755 
	C24.936176,177.135498 21.723734,179.295166 21.229296,181.959290 
	C19.792486,189.701035 19.338495,197.637024 18.750999,205.515594 
	C18.617628,207.304199 19.502861,209.168747 19.929478,211.412964 
	C19.903049,213.140137 20.152903,214.541916 19.777010,215.748795 
	C18.558498,219.661041 20.662390,220.798569 23.926388,221.147980 
	C24.605885,222.341400 25.285383,223.534836 25.988405,225.091675 
	C26.011930,225.455093 25.817043,225.383713 25.448166,225.281097 
	C24.743597,225.354706 24.407902,225.530930 24.072208,225.707138 
	C13.552728,223.546875 12.321367,215.878647 13.231671,206.931259 
	C14.106050,198.336975 15.334678,189.778534 16.424288,181.206451 
	C16.751703,178.630646 17.134886,176.061935 17.821041,173.263641 
z"/>
<path fill="#E5E5E5" opacity="1.000000" stroke="none" 
	d="
M57.997643,287.966797 
	C57.850639,284.874390 58.527214,282.368439 62.954910,281.953125 
	C64.789200,280.263702 65.901375,278.640625 67.008446,277.427856 
	C66.671242,280.227386 66.339149,282.616638 65.697731,285.148163 
	C63.264458,287.211578 61.140507,289.132721 58.863831,291.191956 
	C66.063744,295.250702 76.145325,291.173157 78.219109,284.190979 
	C78.751930,282.397034 78.007118,279.029144 81.839417,279.664520 
	C82.545296,285.949951 79.156776,290.707611 75.549164,295.374695 
	C74.893211,294.756195 74.610176,294.285645 74.327141,293.815094 
	C73.885376,294.504059 73.443619,295.192993 72.639511,295.923828 
	C71.411865,296.923035 70.546577,297.880371 69.681290,298.837738 
	C69.681290,298.837738 69.369362,298.853546 68.832260,298.876617 
	C67.529907,298.910919 66.764671,298.922150 65.886620,298.723022 
	C65.566971,298.257446 65.307785,298.077606 64.987991,297.608582 
	C64.445984,296.564117 63.912251,295.884247 63.378521,295.204346 
	C62.918259,296.133087 62.457996,297.061798 61.783085,298.245789 
	C59.384930,298.676453 57.201427,298.851837 54.808159,298.738647 
	C54.049683,296.956757 53.500973,295.463470 52.952255,293.970184 
	C53.382401,293.014374 53.812550,292.058533 54.929501,291.016998 
	C56.410084,289.943115 57.203861,288.954956 57.997643,287.966797 
z"/>
<path fill="#B9B7B3" opacity="1.000000" stroke="none" 
	d="
M65.999428,298.933411 
	C66.764671,298.922150 67.529907,298.910919 68.679916,298.910950 
	C67.077713,300.424927 65.271423,302.827087 63.071377,303.269043 
	C55.095524,304.871185 46.987572,305.815674 38.323734,306.785400 
	C37.137478,306.699371 36.556942,306.836243 35.976410,306.973083 
	C35.249763,306.968689 34.523113,306.964264 33.353622,306.610138 
	C31.915232,305.874725 30.919678,305.488983 29.924126,305.103271 
	C28.030024,304.661804 26.153908,304.072998 24.234520,303.838684 
	C23.217669,303.714630 22.125618,304.206696 20.988281,304.777283 
	C19.627575,302.675995 18.346102,300.217987 17.272127,297.225952 
	C18.520929,296.512512 20.106096,295.803284 20.523373,296.231689 
	C29.229147,305.169189 40.346893,303.210541 50.900696,302.659180 
	C55.984612,302.393585 60.969627,300.234863 65.999428,298.933411 
z"/>
<path fill="#F7F7F7" opacity="1.000000" stroke="none" 
	d="
M81.905830,279.402222 
	C78.007118,279.029144 78.751930,282.397034 78.219109,284.190979 
	C76.145325,291.173157 66.063744,295.250702 58.863831,291.191956 
	C61.140507,289.132721 63.264458,287.211578 66.048279,285.087097 
	C67.814026,282.274078 68.919907,279.664429 70.452095,277.044769 
	C73.920860,277.359344 76.963318,277.683960 80.464233,278.027740 
	C81.228447,278.056061 81.534218,278.065216 81.839981,278.074341 
	C81.884071,278.429535 81.928162,278.784729 81.905830,279.402222 
z"/>
<path fill="#E9E9E9" opacity="1.000000" stroke="none" 
	d="
M24.728695,246.317566 
	C25.040707,246.605270 25.024790,246.989532 24.738583,247.865204 
	C23.500916,249.230453 22.486490,250.057999 21.573902,250.985733 
	C16.177338,256.471893 14.898215,263.622101 21.819958,269.359650 
	C19.765188,271.439117 17.877747,273.214691 15.604940,274.991272 
	C14.191956,274.992950 13.164337,274.993652 12.136719,274.994385 
	C12.456236,269.740082 12.161123,264.353699 13.254939,259.265900 
	C14.545726,253.261917 18.525991,248.828796 24.728695,246.317566 
z"/>
<path fill="#D3D3D3" opacity="1.000000" stroke="none" 
	d="
M65.886620,298.723022 
	C60.969627,300.234863 55.984612,302.393585 50.900696,302.659180 
	C40.346893,303.210541 29.229147,305.169189 20.523373,296.231689 
	C20.106096,295.803284 18.520929,296.512512 17.206593,296.864594 
	C16.276161,295.272858 15.618762,293.508514 14.975620,291.374329 
	C16.073915,291.181915 17.555159,290.967590 18.178263,291.599457 
	C22.594025,296.077332 27.704611,298.890564 34.624855,299.421509 
	C37.963467,301.418396 40.723171,302.429199 43.080906,299.064606 
	C43.807796,299.055176 44.534691,299.045746 45.710430,299.403381 
	C49.322659,302.031769 52.241375,301.376831 55.017921,299.027222 
	C57.201427,298.851837 59.384930,298.676453 62.158012,298.250610 
	C63.497150,297.991150 64.246712,297.982147 64.996269,297.973145 
	C65.307785,298.077606 65.566971,298.257446 65.886620,298.723022 
z"/>
<path fill="#D9C4A5" opacity="1.000000" stroke="none" 
	d="
M14.484198,115.105316 
	C14.885266,120.016716 14.869278,125.146317 15.009534,130.271652 
	C15.138725,134.992676 15.435830,139.709091 15.402377,144.696838 
	C12.143948,136.512421 12.809820,127.806274 13.408736,119.113373 
	C13.496548,117.838837 13.885602,116.585052 14.484198,115.105316 
z"/>
<path fill="#D1CFCD" opacity="1.000000" stroke="none" 
	d="
M79.124756,213.766403 
	C77.950165,212.904770 77.089638,211.863388 76.229111,210.822021 
	C77.571083,209.881561 78.913063,208.941116 80.638626,208.001358 
	C80.494415,209.863586 79.966614,211.725128 79.124756,213.766403 
z"/>
<path fill="#D1CFCD" opacity="1.000000" stroke="none" 
	d="
M76.085434,178.543518 
	C75.809189,180.378204 75.480980,181.819504 75.182808,183.128891 
	C72.188919,179.642471 72.152214,178.264099 75.478012,175.054230 
	C75.904663,176.044266 75.969063,177.097198 76.085434,178.543518 
z"/>
<path fill="#E2E2E2" opacity="1.000000" stroke="none" 
	d="
M12.064589,275.419434 
	C13.164337,274.993652 14.191956,274.992950 15.610867,274.997253 
	C16.002159,275.002289 16.011860,275.012451 15.866796,275.331665 
	C15.494720,276.777740 15.267710,277.904663 15.037872,279.358643 
	C15.037467,280.121796 15.039888,280.557831 15.042311,280.993896 
	C15.042311,280.993896 15.020995,280.996399 14.655410,281.001068 
	C13.579738,281.005798 12.869652,281.005859 12.159565,281.005890 
	C12.103863,279.285431 12.048160,277.564972 12.064589,275.419434 
z"/>
<path fill="#D1CFCD" opacity="1.000000" stroke="none" 
	d="
M79.194084,195.065552 
	C76.395103,193.552078 75.458984,191.617035 78.178543,188.865509 
	C78.896912,189.671906 79.244301,190.551483 79.527924,191.857239 
	C79.350655,192.628113 79.484428,192.861084 79.865486,192.982361 
	C79.916466,193.430908 79.967438,193.879471 79.800552,194.685410 
	C79.582695,195.042801 79.194084,195.065552 79.194084,195.065552 
z"/>
<path fill="#E4E4E4" opacity="1.000000" stroke="none" 
	d="
M32.118759,228.489655 
	C34.239201,228.569595 36.546364,228.984177 38.888729,229.765640 
	C36.717781,229.696442 34.511631,229.260361 32.118759,228.489655 
z"/>
<path fill="#D1CFCD" opacity="1.000000" stroke="none" 
	d="
M81.390610,205.773972 
	C80.234154,205.577499 79.220352,205.089798 78.206558,204.602081 
	C78.989220,204.065948 79.771881,203.529816 80.897110,202.974121 
	C81.337540,203.797287 81.435410,204.639999 81.390610,205.773972 
z"/>
<path fill="#D3D3D3" opacity="1.000000" stroke="none" 
	d="
M73.001862,295.881958 
	C73.443619,295.192993 73.885376,294.504059 74.327141,293.815094 
	C74.610176,294.285645 74.893211,294.756195 75.224472,295.557953 
	C74.714073,296.579987 74.155449,297.270813 73.306274,297.659790 
	C73.011116,296.865967 73.006485,296.373962 73.001862,295.881958 
z"/>
<path fill="#B9B7B3" opacity="1.000000" stroke="none" 
	d="
M72.639503,295.923828 
	C73.006485,296.373962 73.011116,296.865967 73.030884,297.725250 
	C73.046036,298.092529 72.993164,298.546143 72.916901,298.761169 
	C72.052811,298.963501 71.264984,298.950775 70.079224,298.887878 
	C70.546577,297.880371 71.411865,296.923035 72.639503,295.923828 
z"/>
<path fill="#E9E9E9" opacity="1.000000" stroke="none" 
	d="
M79.001839,274.996338 
	C79.728508,274.334808 80.455170,273.673309 81.523956,273.007050 
	C81.910271,273.447540 81.954460,273.892792 81.616760,274.669464 
	C80.821129,275.001953 80.407402,275.002991 79.745758,275.002014 
	C79.497833,275.000000 79.001831,274.996338 79.001839,274.996338 
z"/>
<path fill="#E9E9E9" opacity="1.000000" stroke="none" 
	d="
M12.089053,281.336670 
	C12.869652,281.005859 13.579738,281.005798 14.644858,281.002869 
	C14.282622,281.663391 13.565352,282.326782 12.508051,282.997009 
	C12.118193,282.558380 12.068367,282.112885 12.089053,281.336670 
z"/>
<path fill="#E5E5E5" opacity="1.000000" stroke="none" 
	d="
M79.993675,275.004028 
	C80.407402,275.002991 80.821129,275.001953 81.545143,274.999023 
	C81.906387,275.824341 81.957336,276.651581 81.924133,277.776581 
	C81.534218,278.065216 81.228447,278.056061 80.461746,277.651947 
	C79.998436,276.505981 79.996056,275.754974 79.993675,275.004028 
z"/>
<path fill="#B8B8B8" opacity="1.000000" stroke="none" 
	d="
M79.187286,195.349503 
	C79.194084,195.065552 79.582695,195.042801 79.776505,195.024872 
	C80.527809,195.525482 81.085304,196.044052 81.510483,196.827621 
	C80.645607,196.606247 79.913040,196.119843 79.187286,195.349503 
z"/>
<path fill="#D1CFCD" opacity="1.000000" stroke="none" 
	d="
M73.901001,168.650391 
	C73.830620,169.013428 73.438843,169.010178 73.243484,169.009003 
	C73.166382,168.176743 73.284645,167.345673 73.631119,166.297455 
	C73.896683,166.815994 73.934036,167.551666 73.901001,168.650391 
z"/>
<path fill="#D1CFCD" opacity="1.000000" stroke="none" 
	d="
M73.260040,220.558304 
	C73.308342,220.118759 73.643959,219.676407 74.272842,219.214767 
	C74.226524,219.648819 73.886932,220.102158 73.260040,220.558304 
z"/>
<path fill="#F8F8F8" opacity="1.000000" stroke="none" 
	d="
M24.399395,225.841064 
	C24.407902,225.530930 24.743597,225.354706 25.370598,225.212158 
	C25.350130,225.488876 25.038355,225.731934 24.399395,225.841064 
z"/>
<path fill="#D9D9D9" opacity="1.000000" stroke="none" 
	d="
M79.918930,192.732864 
	C79.484428,192.861084 79.350655,192.628113 79.577667,192.170471 
	C79.784920,192.199478 79.878654,192.341415 79.918930,192.732864 
z"/>
<path fill="#E4E4E4" opacity="1.000000" stroke="none" 
	d="
M38.957214,230.323242 
	C39.186977,230.120773 39.471695,230.253494 39.847221,230.669693 
	C39.668598,230.770874 39.359978,230.672623 38.957214,230.323242 
z"/>
<path fill="#E9E9E9" opacity="1.000000" stroke="none" 
	d="
M61.920986,169.195999 
	C63.124908,171.482910 64.761848,173.645996 65.457390,176.078278 
	C68.384331,186.313828 72.746193,196.318146 71.920151,207.279770 
	C71.584000,211.740417 69.312080,214.999084 64.983109,217.327759 
	C60.109097,219.949661 55.648579,222.902924 49.404129,220.632812 
	C48.322674,219.513611 47.652111,218.750168 46.981544,217.986725 
	C49.058811,217.188797 51.200577,215.576508 53.202084,215.735031 
	C61.510616,216.393082 66.080986,213.819000 66.088608,205.303192 
	C66.096939,195.992523 64.020752,186.640259 58.223518,178.739975 
	C55.578186,175.134979 52.167561,173.227097 47.503239,173.945160 
	C46.243725,174.139069 44.889854,173.720032 43.286278,172.959122 
	C42.999294,171.888245 43.005329,171.440598 43.458694,170.985504 
	C46.591930,170.966187 49.277832,170.954300 52.136944,171.173920 
	C52.873711,170.937225 53.437271,170.469055 54.001190,169.751007 
	C54.001553,169.501129 54.003860,169.001373 54.444740,169.035339 
	C57.230743,169.111526 59.575863,169.153763 61.920986,169.195999 
z"/>
<path fill="#FDFDFD" opacity="1.000000" stroke="none" 
	d="
M24.098896,220.804504 
	C20.662390,220.798569 18.558498,219.661041 19.777010,215.748795 
	C20.152903,214.541916 19.903049,213.140137 20.204952,211.216415 
	C20.652601,209.739014 20.835005,208.872803 21.017410,208.006592 
	C23.135309,207.673615 25.246052,207.120651 27.372538,207.051407 
	C32.504463,206.884369 33.161633,210.952347 33.548622,214.542175 
	C33.948097,218.247803 30.865141,217.761292 28.370611,218.123001 
	C26.921669,218.333115 25.632483,219.644958 24.098896,220.804504 
z"/>
<path fill="#E9E9E9" opacity="1.000000" stroke="none" 
	d="
M21.022066,207.583435 
	C20.835005,208.872803 20.652601,209.739014 20.194719,210.801788 
	C19.502861,209.168747 18.617628,207.304199 18.750999,205.515594 
	C19.338495,197.637024 19.792486,189.701035 21.229296,181.959290 
	C21.723734,179.295166 24.936176,177.135498 27.296137,174.388489 
	C29.068205,173.977066 30.451099,173.922501 32.193115,173.923325 
	C33.036667,173.988297 33.521099,173.997879 34.005531,174.007462 
	C32.368164,175.145233 30.596960,176.132507 29.117800,177.448151 
	C24.092031,181.918259 22.704319,188.010666 22.027176,194.320190 
	C21.569273,198.586868 21.351759,202.879333 21.022066,207.583435 
z"/>
<path fill="#E4E4E4" opacity="1.000000" stroke="none" 
	d="
M46.617931,217.992950 
	C47.652111,218.750168 48.322674,219.513611 49.000515,220.628494 
	C46.260883,221.986725 43.513973,222.993515 40.378784,223.995865 
	C42.078442,221.994019 44.166378,219.996597 46.617931,217.992950 
z"/>
<path fill="#D7D6D5" opacity="1.000000" stroke="none" 
	d="
M34.379234,174.005096 
	C33.521099,173.997879 33.036667,173.988297 32.322029,173.574356 
	C33.756496,172.827896 35.421173,172.485779 37.067036,172.451477 
	C37.031258,173.169907 37.014290,173.580536 36.997322,173.991150 
	C36.249195,173.995010 35.501068,173.998886 34.379234,174.005096 
z"/>
<path fill="#E9E9E9" opacity="1.000000" stroke="none" 
	d="
M37.195770,174.244064 
	C37.014290,173.580536 37.031258,173.169907 37.383125,172.402771 
	C38.142372,171.992538 38.566719,171.938843 39.099167,172.125381 
	C39.476646,172.586060 39.746029,172.806503 40.015411,173.026947 
	C39.141685,173.516968 38.267952,174.006973 37.195770,174.244064 
z"/>
<path fill="#D7D6D5" opacity="1.000000" stroke="none" 
	d="
M40.388306,173.019470 
	C39.746029,172.806503 39.476646,172.586060 39.335831,171.861099 
	C40.646717,171.235367 41.829041,171.114166 43.011360,170.992950 
	C43.005329,171.440598 42.999294,171.888245 42.996784,172.671799 
	C42.253937,173.009140 41.507565,173.010574 40.388306,173.019470 
z"/>
<path fill="#E4E4E4" opacity="1.000000" stroke="none" 
	d="
M38.718494,224.045105 
	C38.461803,224.510117 37.904102,224.983185 37.174240,225.234238 
	C37.473881,224.692520 37.945683,224.372833 38.718494,224.045105 
z"/>
<path fill="#F3E0B0" opacity="1.000000" stroke="none" 
	d="
M37.068954,103.583725 
	C33.540447,107.400597 33.542164,111.751266 34.243088,116.068100 
	C35.328915,122.755447 36.651028,129.410065 38.080414,136.033783 
	C38.874859,139.715225 39.389317,144.512695 44.155117,144.623947 
	C49.117294,144.739777 50.582096,140.120483 51.809143,136.074982 
	C54.514580,127.155289 56.168037,118.139580 53.935677,108.387131 
	C54.056076,106.116508 54.213074,104.283882 54.995609,102.240776 
	C63.225079,107.261833 66.008820,115.499336 66.728584,123.745110 
	C67.757332,135.530685 67.127838,147.475601 66.924507,159.347641 
	C66.829880,164.873047 64.338684,166.721710 58.671875,167.093521 
	C56.747936,167.219742 54.888958,168.335999 53.000084,169.249100 
	C52.999878,169.498352 53.000191,169.996704 52.757256,169.981842 
	C52.514320,169.966965 52.029648,169.921677 51.835320,169.604172 
	C46.866043,169.435745 41.993580,169.027008 37.334965,169.841476 
	C24.790733,172.034561 23.025499,170.760239 22.994730,157.956161 
	C22.993134,157.291824 23.042999,156.623001 22.984049,155.963837 
	C22.381861,149.230530 21.530775,142.510101 21.201180,135.763977 
	C20.701271,125.531921 19.913185,115.203468 27.539820,106.609695 
	C29.453938,104.452858 30.523098,101.546150 31.980579,98.984062 
	C36.791065,96.610832 37.102787,99.679237 37.068954,103.583725 
z"/>
<path fill="#E5CE9E" opacity="1.000000" stroke="none" 
	d="
M53.000294,168.999847 
	C54.888958,168.335999 56.747936,167.219742 58.671875,167.093521 
	C64.338684,166.721710 66.829880,164.873047 66.924507,159.347641 
	C67.127838,147.475601 67.757332,135.530685 66.728584,123.745110 
	C66.008820,115.499336 63.225079,107.261833 55.266998,101.958237 
	C56.328403,98.285721 57.915173,100.589287 59.312546,101.832542 
	C67.076225,108.739990 70.478821,118.010155 70.760277,127.819084 
	C71.095970,139.518173 69.782684,151.273544 68.951385,162.988068 
	C68.817993,164.867783 67.472191,166.661469 66.839050,168.730148 
	C65.582512,169.001007 64.173782,169.036652 62.343021,169.134140 
	C59.575863,169.153763 57.230743,169.111526 54.192883,169.034683 
	C53.500145,169.000076 53.000294,168.999847 53.000294,168.999847 
z"/>
<path fill="#D1CFCD" opacity="1.000000" stroke="none" 
	d="
M72.605247,169.038666 
	C72.886292,170.151108 72.765236,171.255478 72.644188,172.359863 
	C72.190918,172.713699 71.737656,173.067551 71.284393,173.421387 
	C70.560089,172.195297 69.835785,170.969193 69.050102,169.425842 
	C70.060204,169.082596 71.131676,169.056610 72.605247,169.038666 
z"/>
<path fill="#E0C99A" opacity="1.000000" stroke="none" 
	d="
M31.635815,99.019501 
	C30.523098,101.546150 29.453938,104.452858 27.539820,106.609695 
	C19.913185,115.203468 20.701271,125.531921 21.201180,135.763977 
	C21.530775,142.510101 22.381861,149.230530 22.984049,155.963837 
	C23.042999,156.623001 22.993134,157.291824 22.994730,157.956161 
	C23.025499,170.760239 24.790733,172.034561 37.334965,169.841476 
	C41.993580,169.027008 46.866043,169.435745 51.815060,169.859604 
	C51.980671,170.602509 51.972206,170.772461 51.963737,170.942429 
	C49.277832,170.954300 46.591930,170.966187 43.458694,170.985504 
	C41.829041,171.114166 40.646717,171.235367 39.227730,171.620865 
	C38.566719,171.938843 38.142372,171.992538 37.401939,172.094940 
	C35.421173,172.485779 33.756496,172.827896 31.962910,173.518967 
	C30.451099,173.922501 29.068205,173.977066 27.370340,174.047882 
	C25.917231,174.276428 24.779089,174.488693 23.306253,174.813812 
	C21.446178,162.521454 19.957401,150.111633 18.385323,137.712372 
	C16.750265,124.816368 18.000954,112.646049 27.123878,102.454338 
	C28.304880,101.134972 29.892027,100.179146 31.635815,99.019501 
z"/>
<path fill="#DEBE86" opacity="1.000000" stroke="none" 
	d="
M43.001831,312.003632 
	C43.445950,312.003357 43.890076,312.003082 44.946434,312.286560 
	C48.138176,312.421265 50.716183,312.193085 53.297592,312.144135 
	C56.262157,312.087860 60.053078,310.767914 60.006409,316.006714 
	C60.006409,316.006714 60.004635,316.503357 59.660049,316.807800 
	C58.876438,318.074280 58.437412,319.036346 57.998383,319.998413 
	C54.742287,322.698578 53.897404,322.729187 48.566654,320.216614 
	C45.594547,323.093628 43.155254,327.594635 37.297455,324.829834 
	C36.275600,323.906891 35.638206,323.452820 35.000809,322.998779 
	C35.000805,322.998779 34.996700,322.502441 34.992302,321.882355 
	C33.816505,315.240082 34.773003,314.150208 41.191151,313.767853 
	C41.827484,313.729950 42.399799,312.617401 43.001831,312.003632 
z"/>
<path fill="#D8B983" opacity="1.000000" stroke="none" 
	d="
M42.643196,311.844971 
	C42.399799,312.617401 41.827484,313.729950 41.191151,313.767853 
	C34.773003,314.150208 33.816505,315.240082 34.991188,321.634155 
	C33.296818,319.925201 31.183323,318.046326 30.041395,315.695496 
	C29.221310,314.007202 29.699142,311.688416 29.597965,309.650909 
	C31.452650,309.790863 33.329880,309.796814 35.156433,310.104034 
	C37.553379,310.507172 39.910381,311.147797 42.643196,311.844971 
z"/>
<path fill="#D8B983" opacity="1.000000" stroke="none" 
	d="
M60.363785,315.941803 
	C60.053078,310.767914 56.262157,312.087860 53.297592,312.144135 
	C50.716183,312.193085 48.138176,312.421265 45.279526,312.287292 
	C50.534489,310.124695 56.049026,308.181000 61.636665,306.476990 
	C62.129681,306.326660 63.855225,307.977966 63.725933,308.393097 
	C62.929054,310.951447 61.763878,313.395111 60.363785,315.941803 
z"/>
<path fill="#BBAC92" opacity="1.000000" stroke="none" 
	d="
M30.009491,305.435974 
	C30.919678,305.488983 31.915232,305.874725 32.990448,306.598999 
	C32.078358,306.547974 31.086607,306.158325 30.009491,305.435974 
z"/>
<path fill="#D8B983" opacity="1.000000" stroke="none" 
	d="
M58.286476,319.856171 
	C58.437412,319.036346 58.876438,318.074280 59.658073,317.056091 
	C59.525314,317.904663 59.049946,318.809296 58.286476,319.856171 
z"/>
<path fill="#D8B983" opacity="1.000000" stroke="none" 
	d="
M35.044159,323.318115 
	C35.638206,323.452820 36.275600,323.906891 36.957100,324.679871 
	C36.363308,324.544983 35.725407,324.091187 35.044159,323.318115 
z"/>
<path fill="#BBAC92" opacity="1.000000" stroke="none" 
	d="
M36.126617,307.197266 
	C36.556942,306.836243 37.137478,306.699371 37.867706,306.786194 
	C37.437206,307.147095 36.857018,307.284302 36.126617,307.197266 
z"/>
<path fill="#FAFAFA" opacity="1.000000" stroke="none" 
	d="
M15.377740,281.049744 
	C15.039888,280.557831 15.037467,280.121796 15.378910,279.289856 
	C16.499065,277.282837 17.275358,275.671692 18.425688,274.000244 
	C24.311619,271.336182 30.007843,270.356812 36.416367,272.001221 
	C38.219036,272.022278 39.605644,272.029999 40.992256,272.037720 
	C43.456768,274.913727 45.641178,278.109833 48.462299,280.578278 
	C51.455299,283.197083 51.280563,285.495972 49.151443,288.282532 
	C42.710880,296.711761 31.787752,297.690613 23.894283,290.300781 
	C20.911797,287.508575 18.425600,284.186279 15.377740,281.049744 
z"/>
<path fill="#DCDCDC" opacity="1.000000" stroke="none" 
	d="
M41.278687,271.737976 
	C39.605644,272.029999 38.219036,272.022278 36.303238,271.736389 
	C35.513863,270.942780 35.253666,270.427307 35.286179,269.897827 
	C36.056328,269.591278 36.533772,269.298676 37.011215,269.006104 
	C38.650810,269.006104 40.290398,269.006104 41.943310,269.006104 
	C44.814362,262.190002 47.593662,255.591690 50.372967,248.993393 
	C50.823143,249.153824 51.273319,249.314270 51.723495,249.474701 
	C50.486061,254.054581 49.248627,258.634460 48.024574,263.999390 
	C48.735821,266.008118 49.166546,267.961578 50.176952,268.331421 
	C55.016502,270.102905 60.013012,271.445557 65.226776,272.960693 
	C65.682274,272.985565 65.864723,272.990387 66.128464,273.379242 
	C69.119759,274.156860 72.029762,274.550415 74.939766,274.944000 
	C76.022888,274.962708 77.106018,274.981415 78.595490,274.998230 
	C79.001831,274.996338 79.497833,275.000000 79.745758,275.002014 
	C79.996056,275.754974 79.998436,276.505981 80.003296,277.632751 
	C76.963318,277.683960 73.920860,277.359344 70.075165,277.026733 
	C68.519135,277.018311 67.766342,277.017944 67.013550,277.017578 
	C65.901375,278.640625 64.789200,280.263702 63.331806,281.943420 
	C63.580173,277.945648 61.685253,276.119720 58.015343,274.234680 
	C52.631752,271.469360 47.438931,270.120728 41.278687,271.737976 
z"/>
<path fill="#E7E7E7" opacity="1.000000" stroke="none" 
	d="
M54.808159,298.738647 
	C52.241375,301.376831 49.322659,302.031769 46.073898,299.400665 
	C48.084076,297.374146 50.179626,295.717407 52.613716,294.015411 
	C53.500973,295.463470 54.049683,296.956757 54.808159,298.738647 
z"/>
<path fill="#E7E7E7" opacity="1.000000" stroke="none" 
	d="
M42.708355,299.046539 
	C40.723171,302.429199 37.963467,301.418396 35.037659,299.424591 
	C37.397251,299.046631 39.866528,299.037537 42.708355,299.046539 
z"/>
<path fill="#DCDCDC" opacity="1.000000" stroke="none" 
	d="
M57.659378,288.014404 
	C57.203861,288.954956 56.410084,289.943115 55.264656,290.954468 
	C55.715714,290.005798 56.518417,289.033905 57.659378,288.014404 
z"/>
<path fill="#F7F7F7" opacity="1.000000" stroke="none" 
	d="
M74.966423,274.570953 
	C72.029762,274.550415 69.119759,274.156860 66.429520,273.215210 
	C67.721878,269.348358 68.794472,266.029602 69.867065,262.710876 
	C69.471519,262.492432 69.075966,262.274017 68.680420,262.055573 
	C67.827026,263.193329 66.572327,264.216187 66.206665,265.493561 
	C65.518257,267.898376 65.342590,270.449982 64.953751,272.940582 
	C60.013012,271.445557 55.016502,270.102905 50.176952,268.331421 
	C49.166546,267.961578 48.735821,266.008118 48.034943,264.410645 
	C50.333160,260.839233 53.328094,257.915833 54.732426,254.363571 
	C56.029366,251.082962 57.634045,250.037399 60.862122,249.930145 
	C66.670807,249.737152 71.871864,250.594269 74.843834,256.348694 
	C75.426941,257.477692 75.807732,258.780273 75.971207,260.042999 
	C76.342766,262.913116 76.794731,265.819122 76.680214,268.689240 
	C76.606178,270.544952 75.588112,272.362976 74.966423,274.570953 
z"/>
<path fill="#F8F8F8" opacity="1.000000" stroke="none" 
	d="
M37.017769,268.623474 
	C36.533772,269.298676 36.056328,269.591278 34.984459,269.623016 
	C30.255787,269.260010 26.121536,269.157867 21.987286,269.055725 
	C14.898215,263.622101 16.177338,256.471893 21.573902,250.985733 
	C22.486490,250.057999 23.500916,249.230453 24.739080,248.153793 
	C30.261881,247.630417 35.513809,247.119476 40.765972,247.117035 
	C42.158440,247.116394 44.356720,248.402542 44.764156,249.586731 
	C45.451134,251.583344 46.654968,253.596054 44.158955,256.219452 
	C41.027912,259.510315 39.336857,264.171265 37.017769,268.623474 
z"/>
<path fill="#DCDCDC" opacity="1.000000" stroke="none" 
	d="
M40.531685,264.546753 
	C40.479168,264.577332 40.584206,264.516174 40.531685,264.546753 
z"/>
<path fill="#EEEEEE" opacity="1.000000" stroke="none" 
	d="
M67.008446,277.427856 
	C67.766342,277.017944 68.519135,277.018311 69.648865,277.036743 
	C68.919907,279.664429 67.814026,282.274078 66.357605,284.944794 
	C66.339149,282.616638 66.671242,280.227386 67.008446,277.427856 
z"/>
<path fill="#E7E7E7" opacity="1.000000" stroke="none" 
	d="
M64.987991,297.608582 
	C64.246712,297.982147 63.497150,297.991150 62.372665,297.995361 
	C62.457996,297.061798 62.918259,296.133087 63.378521,295.204346 
	C63.912251,295.884247 64.445984,296.564117 64.987991,297.608582 
z"/>
<path fill="#E2E2E2" opacity="1.000000" stroke="none" 
	d="
M21.819958,269.359619 
	C26.121536,269.157867 30.255787,269.260010 34.691757,269.637024 
	C35.253666,270.427307 35.513863,270.942780 35.887184,271.723083 
	C30.007843,270.356812 24.311619,271.336182 18.156288,274.086731 
	C17.012520,274.493195 16.512192,274.752838 16.011862,275.012451 
	C16.011860,275.012451 16.002159,275.002289 15.996233,274.996277 
	C17.877747,273.214691 19.765188,271.439117 21.819958,269.359619 
z"/>
<path fill="#EDEDED" opacity="1.000000" stroke="none" 
	d="
M15.866798,275.331665 
	C16.512192,274.752838 17.012520,274.493195 17.782249,274.147064 
	C17.275358,275.671692 16.499065,277.282837 15.381737,278.962769 
	C15.267710,277.904663 15.494720,276.777740 15.866798,275.331665 
z"/>
<path fill="#D9D9D9" opacity="1.000000" stroke="none" 
	d="
M52.136944,171.173920 
	C51.972206,170.772461 51.980671,170.602509 52.009392,170.177109 
	C52.029648,169.921677 52.514320,169.966965 53.007370,169.982910 
	C53.667229,169.999557 53.834034,170.000229 54.000832,170.000900 
	C53.437271,170.469055 52.873711,170.937225 52.136944,171.173920 
z"/>
<path fill="#E0C99A" opacity="1.000000" stroke="none" 
	d="
M54.001194,169.751007 
	C53.834034,170.000229 53.667229,169.999557 53.250305,169.997787 
	C53.000191,169.996704 52.999878,169.498352 53.000084,169.249100 
	C53.000294,168.999847 53.500145,169.000076 53.752003,169.000732 
	C54.003860,169.001373 54.001553,169.501129 54.001194,169.751007 
z"/>
<path fill="#E9E9E9" opacity="1.000000" stroke="none" 
	d="
M65.226784,272.960693 
	C65.342590,270.449982 65.518257,267.898376 66.206665,265.493561 
	C66.572327,264.216187 67.827026,263.193329 68.680420,262.055573 
	C69.075966,262.274017 69.471519,262.492432 69.867065,262.710876 
	C68.794472,266.029602 67.721878,269.348358 66.348228,272.831116 
	C65.864723,272.990387 65.682274,272.985565 65.226784,272.960693 
z"/>
</svg>