<svg version="1.1" id="Layer_1" xmlns="http://www.w3.org/2000/svg" xmlns:xlink="http://www.w3.org/1999/xlink" x="0px" y="0px"
	 width="100%" viewBox="0 0 91 405" enable-background="new 0 0 91 405" xml:space="preserve">
<path fill="#D9D9D9" opacity="1.000000" stroke="none" 
	d="
M23.177158,312.984009 
	C23.119864,312.549652 23.062569,312.115265 23.250706,311.295166 
	C23.785534,310.585815 24.074930,310.262207 24.364330,309.938568 
	C23.538799,309.641449 22.713268,309.344360 21.887737,309.047272 
	C21.600002,308.570801 21.312263,308.094360 21.310886,307.250122 
	C21.831264,306.438904 22.065283,305.995453 22.299303,305.552032 
	C21.586428,305.363434 20.873550,305.174835 20.160673,304.986237 
	C17.348593,296.031403 13.417055,287.104004 16.141390,277.523743 
	C17.143240,274.000671 19.469580,270.243805 22.302034,267.987091 
	C27.207428,264.078796 32.721889,260.655273 38.480358,258.199707 
	C42.071861,256.668182 46.610077,256.794159 50.670773,257.041382 
	C59.433422,257.574951 65.621750,263.726379 72.593651,268.073090 
	C73.556114,268.673126 73.896156,270.271484 74.441071,271.964600 
	C74.864929,273.344299 75.372070,274.167084 75.879211,274.989868 
	C75.925354,278.693237 75.971489,282.396637 75.630173,286.626953 
	C75.219681,288.128967 75.196648,289.104004 75.173615,290.079041 
	C74.957054,300.066681 73.535286,309.792572 68.310226,318.974426 
	C67.320290,319.361969 66.950584,319.602264 66.580879,319.842560 
	C66.955727,320.235474 67.330582,320.628357 67.705429,321.021271 
	C67.376602,322.024384 67.047775,323.027496 66.289627,323.955750 
	C65.254211,323.805634 64.280113,323.452057 64.095757,323.695831 
	C59.300220,330.036255 52.357437,328.494476 45.816322,329.130737 
	C37.133953,329.975311 32.006153,326.544495 29.049955,318.507996 
	C28.174126,316.127014 27.420813,312.346252 23.177158,312.984009 
M69.372032,278.591125 
	C63.604015,264.679901 50.790985,259.834961 37.597206,266.497162 
	C29.304834,270.684418 22.594860,276.552582 22.378531,286.306641 
	C22.243057,292.414886 23.954809,298.768341 25.905832,304.657928 
	C27.654667,309.937164 30.346041,315.094238 33.536858,319.666443 
	C40.319168,329.385071 56.017418,329.721008 61.076504,320.199066 
	C67.812805,307.520447 70.745026,293.810577 69.372032,278.591125 
z"/>
<path fill="#C9AC7B" opacity="1.000000" stroke="none" 
	d="
M66.000565,57.195770 
	C67.095413,57.464111 68.190262,57.732452 69.630493,58.484978 
	C70.411179,61.524681 71.016090,64.065521 71.238945,66.639450 
	C71.518280,69.865654 71.713943,73.133072 71.516579,76.356422 
	C71.341446,79.216583 70.579651,82.040825 69.910217,85.238022 
	C69.181114,90.193932 68.194405,94.789246 68.156342,99.392403 
	C68.100426,106.155853 68.643761,112.930573 69.131584,119.686066 
	C69.213875,120.825531 70.302238,121.892342 70.925758,122.992722 
	C71.277466,127.039375 71.629173,131.086029 71.569672,135.699860 
	C70.779633,137.961060 70.091843,139.651627 70.072960,141.349640 
	C69.964012,151.146042 70.059013,160.944611 69.966148,170.741348 
	C69.949585,172.489761 69.376427,174.232880 68.785553,175.846069 
	C67.645554,175.218536 66.780281,174.723404 65.719147,174.143677 
	C65.523293,174.059082 65.113426,173.940445 64.996094,173.723785 
	C64.644562,173.236496 64.349579,173.120468 63.698647,173.105408 
	C62.901966,172.759537 62.400433,172.467316 61.932468,171.699432 
	C61.622803,167.151184 61.279568,163.078613 60.943504,158.592361 
	C60.942696,156.806229 60.934719,155.433762 60.946915,153.619446 
	C60.630520,150.451492 60.293953,147.725388 59.960365,144.546173 
	C59.962070,141.072998 59.960796,138.052917 59.977631,134.695724 
	C60.006493,133.908981 60.017242,133.459381 60.410500,132.932922 
	C61.528000,131.190689 62.845272,129.543396 62.897625,127.856819 
	C63.129585,120.384033 62.890629,112.898056 63.024220,105.420456 
	C63.215981,94.687057 61.852356,83.853973 65.748260,73.354721 
	C66.663231,70.888924 65.773399,67.768730 65.790802,64.950073 
	C65.806770,62.364971 65.926537,59.780514 66.000565,57.195770 
z"/>
<path fill="#D6D6D6" opacity="1.000000" stroke="none" 
	d="
M65.915001,174.228271 
	C66.780281,174.723404 67.645554,175.218536 68.925781,176.067719 
	C69.990875,176.668335 70.641029,176.914886 71.291183,177.161453 
	C72.045815,179.414032 73.234993,181.620636 73.478958,183.927231 
	C74.471336,193.310013 75.173958,202.723450 75.533813,212.589752 
	C71.972687,215.924072 72.140884,217.261047 75.832474,219.001648 
	C76.315964,224.292633 74.837212,228.469818 69.891701,231.312454 
	C63.984184,234.708069 58.360939,238.594116 52.538300,242.142593 
	C46.329704,245.926239 40.255188,243.422943 35.862572,239.568817 
	C29.248035,233.765167 23.833794,226.592880 17.914278,219.997940 
	C12.736465,214.229340 14.870216,206.318008 17.627460,200.835144 
	C21.345900,193.440887 25.203159,186.116440 29.439285,178.380829 
	C30.587076,177.998962 31.296431,177.998322 32.256737,178.112244 
	C32.994839,178.483185 33.481987,178.739563 33.972473,179.326660 
	C33.974594,180.098114 33.973373,180.538818 33.630203,181.074005 
	C31.322405,185.104385 29.344139,189.034180 27.393858,192.977814 
	C24.919390,197.981369 22.467640,202.996155 19.752911,208.292450 
	C19.338177,210.386780 19.176630,212.194778 19.058315,214.347687 
	C21.720205,217.802933 24.338865,220.913239 27.123009,224.314987 
	C31.622091,228.800400 35.850693,233.113419 40.368565,237.098511 
	C41.402298,238.010345 43.432972,237.791962 45.432579,238.085876 
	C47.572109,238.047180 49.283867,238.016388 51.198944,238.200058 
	C52.276939,237.621872 53.151619,236.829208 54.280724,235.895294 
	C55.018440,235.165100 55.501740,234.576157 56.230278,233.982086 
	C56.475513,233.976959 56.966099,233.978409 57.319233,233.942001 
	C59.116352,232.607040 60.560333,231.308487 62.305195,229.859314 
	C65.090385,227.476273 67.574707,225.243881 70.313103,222.687729 
	C69.871422,214.516708 69.320915,206.652756 68.422417,198.828781 
	C67.927071,194.515259 66.847305,190.268845 66.031235,185.563751 
	C66.027687,183.419708 66.023911,181.704102 66.029610,179.572968 
	C65.997726,177.514404 65.956360,175.871338 65.915001,174.228271 
z"/>
<path fill="#CBB080" opacity="1.000000" stroke="none" 
	d="
M62.839806,332.971008 
	C62.560326,335.039948 62.280853,337.108917 61.628147,339.692657 
	C60.516418,345.396118 59.618359,350.569366 59.114346,355.780701 
	C58.898849,358.008881 59.056564,360.481720 59.821617,362.556946 
	C62.083549,368.692535 60.318939,375.740173 55.022530,379.643188 
	C55.003563,378.508209 54.996666,377.751648 54.992062,376.596008 
	C54.994720,375.132202 54.995090,374.067566 55.006836,372.737701 
	C55.026405,372.295715 55.034603,372.118958 55.392159,371.939148 
	C56.391258,371.417480 57.041004,370.898834 57.690758,370.380219 
	C56.801014,369.931122 55.911270,369.482056 54.970600,368.689941 
	C53.947590,367.230469 52.975510,366.114075 52.002617,364.581116 
	C51.999805,362.775909 51.997795,361.387268 52.244499,359.726898 
	C53.000145,357.295715 53.507076,355.136200 54.361763,352.880035 
	C56.439514,350.634674 57.149216,348.607819 54.004280,346.652191 
	C52.527199,344.972137 51.275166,343.114349 49.572365,342.494080 
	C45.025066,340.837708 40.263306,339.780701 35.626522,338.356110 
	C31.677797,337.142914 30.830227,334.351715 32.951000,329.964111 
	C32.984005,329.953674 33.052868,329.946381 33.183502,330.259094 
	C38.930603,337.636169 45.829632,340.004669 54.401196,336.379181 
	C57.194805,335.197601 60.025875,334.104553 62.839806,332.971008 
z"/>
<path fill="#C9B086" opacity="1.000000" stroke="none" 
	d="
M65.632362,57.111870 
	C65.926537,59.780514 65.806770,62.364971 65.790802,64.950073 
	C65.773399,67.768730 66.663231,70.888924 65.748260,73.354721 
	C61.852356,83.853973 63.215981,94.687057 63.024220,105.420456 
	C62.890629,112.898056 63.129585,120.384033 62.897625,127.856819 
	C62.845272,129.543396 61.528000,131.190689 60.401680,132.463226 
	C60.004688,122.776779 60.050877,113.482605 59.947006,104.190109 
	C59.927608,102.454399 59.306561,100.725410 58.905960,98.601990 
	C58.593220,95.820168 58.337677,93.429665 58.406708,90.946503 
	C59.124119,89.876892 59.516956,88.899948 59.917984,87.530190 
	C59.939640,86.089157 59.953102,85.040924 60.227280,83.720001 
	C61.320713,79.065186 62.521221,74.711166 62.858913,70.291237 
	C63.090252,67.263313 62.563370,63.761887 57.653412,66.149033 
	C56.819046,66.554695 55.238216,65.425003 54.002251,65.004639 
	C57.756222,62.345749 61.510189,59.686855 65.632362,57.111870 
z"/>
<path fill="#D6BC8B" opacity="1.000000" stroke="none" 
	d="
M53.685966,65.130310 
	C55.238216,65.425003 56.819046,66.554695 57.653412,66.149033 
	C62.563370,63.761887 63.090252,67.263313 62.858913,70.291237 
	C62.521221,74.711166 61.320713,79.065186 59.973755,83.406540 
	C59.310406,82.409050 59.207870,81.442230 59.003338,80.497482 
	C58.424282,77.822830 57.803471,75.157227 57.199104,72.488052 
	C55.484272,75.180206 53.766621,77.870583 52.064259,80.570602 
	C51.991253,80.686378 52.059345,80.891121 52.037292,81.451950 
	C51.309040,85.878815 50.605202,89.908165 49.565331,94.052811 
	C47.821617,99.128128 46.455467,104.100510 44.983543,109.041382 
	C44.474327,110.750679 43.702328,112.381691 42.865723,113.824104 
	C42.148773,113.416763 41.616455,113.233780 41.071777,112.653015 
	C41.362865,109.896835 41.666313,107.538429 42.233238,104.890137 
	C43.671600,98.740280 44.846485,92.880295 46.167603,86.671692 
	C47.441593,82.942833 48.707371,79.600494 49.649513,76.169304 
	C50.298073,73.807297 50.498051,71.322113 50.898514,68.891983 
	C51.722237,67.679985 52.545956,66.467979 53.685966,65.130310 
M54.547600,68.508324 
	C54.547600,68.508324 54.482414,68.539879 54.547600,68.508324 
z"/>
<path fill="#D1B482" opacity="1.000000" stroke="none" 
	d="
M54.014008,352.976715 
	C53.507076,355.136200 53.000145,357.295715 51.983585,359.414703 
	C51.312096,356.918549 51.277153,354.445007 50.934509,352.014832 
	C50.764751,350.810822 50.319580,348.983826 49.500034,348.644775 
	C45.351357,346.928375 41.038834,345.608032 36.783741,344.148834 
	C36.324905,344.478241 35.866070,344.807617 35.407234,345.137024 
	C36.270164,347.091339 37.133099,349.045685 37.996998,351.459503 
	C37.977924,355.338501 37.957882,358.758026 37.607346,362.056519 
	C35.890366,359.637054 34.503887,357.338593 33.117409,355.040100 
	C31.747396,345.680756 30.377388,336.321442 29.358406,326.565186 
	C30.778954,327.437073 31.848473,328.705811 32.917992,329.974579 
	C30.830227,334.351715 31.677797,337.142914 35.626522,338.356110 
	C40.263306,339.780701 45.025066,340.837708 49.572365,342.494080 
	C51.275166,343.114349 52.527199,344.972137 54.003883,347.075012 
	C54.020012,349.581787 54.017006,351.279266 54.014008,352.976715 
z"/>
<path fill="#CBCBCA" opacity="1.000000" stroke="none" 
	d="
M32.950996,329.964111 
	C31.848473,328.705811 30.778954,327.437073 29.380135,326.133972 
	C27.112301,321.975128 25.173767,317.850616 23.206196,313.355042 
	C27.420813,312.346252 28.174126,316.127014 29.049955,318.507996 
	C32.006153,326.544495 37.133953,329.975311 45.816322,329.130737 
	C52.357437,328.494476 59.300220,330.036255 64.095757,323.695831 
	C64.280113,323.452057 65.254211,323.805634 66.034454,324.164185 
	C65.431419,325.928223 64.654236,327.408997 63.171387,328.971527 
	C59.734379,330.041229 57.002270,331.027039 54.271851,332.017517 
	C46.868916,334.703003 40.096031,330.941803 33.052868,329.946381 
	C33.052868,329.946381 32.984005,329.953674 32.950996,329.964111 
z"/>
<path fill="#BDB3A1" opacity="1.000000" stroke="none" 
	d="
M41.969765,105.180023 
	C41.666313,107.538429 41.362865,109.896835 41.038490,113.064194 
	C39.075008,124.515236 37.039734,135.141571 35.227356,145.805786 
	C34.260372,151.495651 33.678375,157.250916 32.699421,162.992554 
	C31.927372,163.219482 31.378521,163.430527 30.829672,163.641571 
	C31.406038,158.046326 31.683876,152.400574 32.620033,146.866180 
	C34.657726,134.819733 37.008266,122.825706 39.292347,110.821945 
	C39.623360,109.082336 40.293221,107.407211 41.171875,105.394806 
	C41.537472,105.087364 41.969765,105.180023 41.969765,105.180023 
z"/>
<path fill="#B7B4B0" opacity="1.000000" stroke="none" 
	d="
M33.183502,330.259094 
	C40.096031,330.941803 46.868916,334.703003 54.271851,332.017517 
	C57.002270,331.027039 59.734379,330.041229 62.858459,329.086792 
	C63.160255,330.149414 63.069309,331.178619 62.909088,332.589417 
	C60.025875,334.104553 57.194805,335.197601 54.401196,336.379181 
	C45.829632,340.004669 38.930603,337.636169 33.183502,330.259094 
z"/>
<path fill="#B5A17E" opacity="1.000000" stroke="none" 
	d="
M55.034603,380.021606 
	C60.318939,375.740173 62.083549,368.692535 59.821617,362.556946 
	C59.056564,360.481720 58.898849,358.008881 59.114346,355.780701 
	C59.618359,350.569366 60.516418,345.396118 61.571487,340.096924 
	C61.956081,350.548553 61.790531,361.119049 62.168732,371.670105 
	C62.452579,379.588776 59.836056,382.352081 51.384659,381.271912 
	C52.636852,380.456238 53.835728,380.238922 55.034603,380.021606 
z"/>
<path fill="#B7A792" opacity="1.000000" stroke="none" 
	d="
M71.444992,176.704742 
	C70.641029,176.914886 69.990875,176.668335 69.200500,176.200119 
	C69.376427,174.232880 69.949585,172.489761 69.966148,170.741348 
	C70.059013,160.944611 69.964012,151.146042 70.072960,141.349640 
	C70.091843,139.651627 70.779633,137.961060 71.526680,136.131500 
	C71.977699,139.969635 72.169441,143.944626 72.121536,147.916733 
	C72.007614,157.361221 71.780296,166.804352 71.444992,176.704742 
z"/>
<path fill="#AAA298" opacity="1.000000" stroke="none" 
	d="
M71.013054,122.629547 
	C70.302238,121.892342 69.213875,120.825531 69.131584,119.686066 
	C68.643761,112.930573 68.100426,106.155853 68.156342,99.392403 
	C68.194405,94.789246 69.181114,90.193932 70.084305,85.254166 
	C70.424995,84.913223 70.770210,84.974617 70.770210,84.974617 
	C70.854317,96.271049 70.936935,107.567505 71.024826,118.863907 
	C71.033653,119.998184 71.074409,121.132217 71.013054,122.629547 
z"/>
<path fill="#D1B482" opacity="1.000000" stroke="none" 
	d="
M55.022530,379.643188 
	C53.835728,380.238922 52.636852,380.456238 51.175064,380.929138 
	C47.770905,380.640869 44.462360,380.352661 43.268097,375.772156 
	C41.292744,371.095306 39.615364,367.024200 38.282272,363.033325 
	C40.012699,365.257080 41.309452,367.465424 42.806068,369.528778 
	C45.009201,372.566284 46.047028,376.941559 51.390488,376.992676 
	C52.856991,376.995117 53.923382,376.995117 54.989769,376.995117 
	C54.996666,377.751648 55.003563,378.508209 55.022530,379.643188 
z"/>
<path fill="#BFB5A5" opacity="1.000000" stroke="none" 
	d="
M70.946808,84.612854 
	C70.770210,84.974617 70.424995,84.913223 70.250908,84.897072 
	C70.579651,82.040825 71.341446,79.216583 71.516579,76.356422 
	C71.713943,73.133072 71.518280,69.865654 71.238945,66.639450 
	C71.016090,64.065521 70.411179,61.524681 69.983047,58.542587 
	C74.775909,63.830963 73.849731,70.704102 73.582443,77.314537 
	C73.487762,79.656029 71.983925,81.940559 70.946808,84.612854 
z"/>
<path fill="#DCCDB3" opacity="1.000000" stroke="none" 
	d="
M37.937981,362.953064 
	C39.615364,367.024200 41.292744,371.095306 42.999538,375.529175 
	C36.756252,370.663940 34.484020,363.406555 32.983505,355.432861 
	C34.503887,357.338593 35.890366,359.637054 37.605217,362.249451 
	C37.933586,362.563354 37.937977,362.953064 37.937981,362.953064 
z"/>
<path fill="#DBC9AB" opacity="1.000000" stroke="none" 
	d="
M42.233238,104.890137 
	C41.969765,105.180023 41.537472,105.087364 41.321693,105.039398 
	C42.072613,99.265480 43.039307,93.539536 44.392525,87.410698 
	C45.193150,87.011978 45.607262,87.016144 46.021370,87.020309 
	C44.846485,92.880295 43.671600,98.740280 42.233238,104.890137 
z"/>
<path fill="#E9DDCA" opacity="1.000000" stroke="none" 
	d="
M46.167603,86.671684 
	C45.607262,87.016144 45.193150,87.011978 44.468708,87.000946 
	C46.179806,81.068108 48.201237,75.142151 50.560589,69.054085 
	C50.498051,71.322113 50.298073,73.807297 49.649513,76.169304 
	C48.707371,79.600494 47.441593,82.942833 46.167603,86.671684 
z"/>
<path fill="#D4D4D4" opacity="1.000000" stroke="none" 
	d="
M75.908081,218.577698 
	C72.140884,217.261047 71.972687,215.924072 75.458145,213.026093 
	C75.882599,214.716782 75.933136,216.435272 75.908081,218.577698 
z"/>
<path fill="#D9D8D6" opacity="1.000000" stroke="none" 
	d="
M32.005783,177.997681 
	C31.296431,177.998322 30.587076,177.998962 29.523048,177.999390 
	C29.357803,175.600876 29.547235,173.202560 30.141361,170.423111 
	C30.546053,170.041977 30.952297,170.009247 30.968739,170.410873 
	C31.035097,171.882660 31.085014,172.952835 31.147533,174.314178 
	C31.727087,175.023453 32.294044,175.441528 32.789543,176.139221 
	C32.480656,176.945114 32.243217,177.471405 32.005783,177.997681 
z"/>
<path fill="#C7B494" opacity="1.000000" stroke="none" 
	d="
M30.952299,170.009247 
	C30.952297,170.009247 30.546053,170.041977 30.344149,170.070984 
	C30.137127,168.172577 30.132011,166.245163 30.478283,163.979675 
	C31.378521,163.430527 31.927372,163.219482 32.712261,163.375671 
	C32.282967,165.831680 31.617634,167.920471 30.952299,170.009247 
z"/>
<path fill="#CBCBCA" opacity="1.000000" stroke="none" 
	d="
M21.937599,309.351685 
	C22.713268,309.344360 23.538799,309.641449 24.364330,309.938568 
	C24.074930,310.262207 23.785534,310.585815 23.194519,310.969971 
	C22.591089,310.572357 22.289276,310.114227 21.937599,309.351685 
z"/>
<path fill="#CBCBCA" opacity="1.000000" stroke="none" 
	d="
M20.099895,305.281708 
	C20.873550,305.174835 21.586428,305.363434 22.299303,305.552032 
	C22.065283,305.995453 21.831264,306.438904 21.312519,306.937714 
	C20.698233,306.521149 20.368675,306.049164 20.099895,305.281708 
z"/>
<path fill="#E8E8E8" opacity="1.000000" stroke="none" 
	d="
M75.488663,289.925415 
	C75.196648,289.104004 75.219681,288.128967 75.551270,287.082733 
	C75.841110,287.931610 75.822403,288.851715 75.488663,289.925415 
z"/>
<path fill="#E8E8E8" opacity="1.000000" stroke="none" 
	d="
M75.918915,274.667114 
	C75.372070,274.167084 74.864929,273.344299 74.545715,272.292114 
	C75.141968,272.823242 75.550285,273.583771 75.918915,274.667114 
z"/>
<path fill="#CBCBCA" opacity="1.000000" stroke="none" 
	d="
M67.867905,320.727905 
	C67.330582,320.628357 66.955727,320.235474 66.580879,319.842560 
	C66.950584,319.602264 67.320290,319.361969 67.976234,319.117859 
	C68.185112,319.554230 68.107742,319.994385 67.867905,320.727905 
z"/>
<path fill="#F7F7F7" opacity="1.000000" stroke="none" 
	d="
M69.512611,278.981232 
	C70.745026,293.810577 67.812805,307.520447 61.076504,320.199066 
	C56.017418,329.721008 40.319168,329.385071 33.536858,319.666443 
	C30.346041,315.094238 27.654667,309.937164 25.905832,304.657928 
	C23.954809,298.768341 22.243057,292.414886 22.378531,286.306641 
	C22.594860,276.552582 29.304834,270.684418 37.597206,266.497162 
	C50.790985,259.834961 63.604015,264.679901 69.512611,278.981232 
M31.586843,302.337921 
	C33.505932,305.783997 35.368057,309.263275 37.355663,312.669373 
	C41.850601,320.372223 51.368420,321.665070 55.355122,314.664429 
	C58.060654,309.913513 59.176613,304.257385 61.600281,298.670319 
	C62.398823,297.115814 63.197365,295.561340 63.997734,293.118683 
	C63.160458,289.743408 63.417908,284.957275 61.260529,283.283356 
	C56.611588,279.676208 50.722927,275.539429 45.338486,275.535156 
	C38.283958,275.529541 32.266380,280.807617 27.344807,287.136749 
	C27.560595,288.588287 27.250612,290.603668 28.090040,291.386414 
	C30.684738,293.805969 31.531231,296.023773 29.211506,299.075562 
	C28.590038,299.893158 28.594545,301.186615 28.163490,302.824799 
	C29.502750,302.430664 30.248493,302.211182 31.586843,302.337921 
z"/>
<path fill="#EDEDED" opacity="1.000000" stroke="none" 
	d="
M65.719147,174.143677 
	C65.956360,175.871338 65.997726,177.514404 65.676193,179.527100 
	C60.206028,175.523758 54.196712,174.634399 47.702084,174.940292 
	C41.493546,175.232727 39.930351,176.857224 38.875744,183.045807 
	C38.202297,186.997711 36.667873,190.946686 34.798065,194.519424 
	C31.439938,200.936005 27.501694,207.046997 23.883759,213.330551 
	C22.514175,215.709198 23.000671,217.476776 26.034496,218.377106 
	C26.749233,220.471939 27.404587,222.218460 27.784267,223.978302 
	C27.324903,224.002274 27.141214,224.012909 26.957525,224.023560 
	C24.338865,220.913239 21.720205,217.802933 19.390194,214.274704 
	C20.780659,211.897339 21.882475,209.937866 23.036530,207.623627 
	C24.058100,205.178604 25.027435,203.088364 26.333485,200.926239 
	C29.529022,196.068680 32.666954,191.420013 35.114883,186.432663 
	C36.153126,184.317368 35.743462,181.491379 35.991432,178.657654 
	C35.990635,177.885742 35.990269,177.444611 36.234295,176.755219 
	C36.660900,175.373413 36.843109,174.239868 37.274422,172.861115 
	C38.666988,172.402374 39.810452,172.188812 41.213959,172.222015 
	C42.999596,172.014938 44.525188,171.561081 46.481529,171.081161 
	C48.925255,171.071548 50.938236,171.087997 53.073227,171.447037 
	C55.167847,171.766373 57.140461,171.743118 59.279499,171.694824 
	C59.445927,171.669800 59.732315,171.492935 60.079758,171.647369 
	C60.917767,171.926239 61.408333,172.050674 61.898903,172.175095 
	C62.400433,172.467316 62.901966,172.759537 63.850067,173.281067 
	C64.526665,173.733902 64.798927,173.877258 65.113426,173.940445 
	C65.113426,173.940445 65.523293,174.059082 65.719147,174.143677 
z"/>
<path fill="#E4CD9C" opacity="1.000000" stroke="none" 
	d="
M52.061710,81.054420 
	C52.059345,80.891121 51.991253,80.686378 52.064259,80.570602 
	C53.766621,77.870583 55.484272,75.180206 57.199104,72.488052 
	C57.803471,75.157227 58.424282,77.822830 59.003338,80.497482 
	C59.207870,81.442230 59.310406,82.409050 59.713036,83.679245 
	C59.953102,85.040924 59.939640,86.089157 59.598194,87.632339 
	C58.874184,89.097923 58.478161,90.068542 58.082134,91.039169 
	C58.337677,93.429665 58.593220,95.820168 58.648796,98.926880 
	C58.313000,110.595833 58.134373,121.548546 58.125538,132.501389 
	C58.124855,133.344727 59.320129,134.189011 59.959526,135.032852 
	C59.960796,138.052917 59.962070,141.072998 59.715919,144.827332 
	C59.286381,147.059845 59.104263,148.558105 58.560543,149.919998 
	C57.468670,144.980209 56.184635,140.185516 56.108597,135.371765 
	C55.846508,118.779686 55.971310,102.180801 56.038540,85.584877 
	C56.050163,82.714783 55.710186,80.532867 52.061710,81.054420 
z"/>
<path fill="#D6BC8B" opacity="1.000000" stroke="none" 
	d="
M59.977631,134.695724 
	C59.320129,134.189011 58.124855,133.344727 58.125538,132.501389 
	C58.134373,121.548546 58.313000,110.595833 58.706001,99.318207 
	C59.306561,100.725410 59.927608,102.454399 59.947006,104.190109 
	C60.050877,113.482605 60.004688,122.776779 60.019176,132.540070 
	C60.017242,133.459381 60.006493,133.908981 59.977631,134.695724 
z"/>
<path fill="#D6BC8B" opacity="1.000000" stroke="none" 
	d="
M61.932472,171.699432 
	C61.408333,172.050674 60.917767,171.926239 60.031544,171.601517 
	C59.635891,171.401215 59.475296,171.165939 59.357044,171.102661 
	C59.238792,171.039398 59.019691,170.884674 59.032192,170.512802 
	C59.054504,168.095505 59.064316,166.050079 59.065613,163.605789 
	C59.062386,162.144516 59.067680,161.082108 59.311996,159.902695 
	C60.012791,159.525803 60.474564,159.265915 60.936333,159.006027 
	C61.279568,163.078613 61.622803,167.151184 61.932472,171.699432 
z"/>
<path fill="#D6BC8B" opacity="1.000000" stroke="none" 
	d="
M58.922150,150.056366 
	C59.104263,148.558105 59.286381,147.059845 59.712944,145.280426 
	C60.293953,147.725388 60.630520,150.451492 60.618713,153.604950 
	C59.830498,154.025513 59.390656,154.018738 58.956993,153.615326 
	C58.949505,152.164597 58.935825,151.110474 58.922150,150.056366 
z"/>
<path fill="#E4CD9C" opacity="1.000000" stroke="none" 
	d="
M58.950813,154.011963 
	C59.390656,154.018738 59.830498,154.025513 60.598545,154.046783 
	C60.934719,155.433762 60.942696,156.806229 60.943504,158.592361 
	C60.474564,159.265915 60.012791,159.525803 59.052643,159.640503 
	C58.686447,157.667526 58.818630,155.839737 58.950813,154.011963 
z"/>
<path fill="#D6D6D6" opacity="1.000000" stroke="none" 
	d="
M64.996094,173.723785 
	C64.798927,173.877258 64.526665,173.733902 64.145218,173.334717 
	C64.349579,173.120468 64.644562,173.236496 64.996094,173.723785 
z"/>
<path fill="#F8F8F8" opacity="1.000000" stroke="none" 
	d="
M25.975117,218.028793 
	C23.000671,217.476776 22.514175,215.709198 23.883759,213.330551 
	C27.501694,207.046997 31.439938,200.936005 34.798065,194.519424 
	C36.667873,190.946686 38.202297,186.997711 38.875744,183.045807 
	C39.930351,176.857224 41.493546,175.232727 47.702084,174.940292 
	C54.196712,174.634399 60.206028,175.523758 65.666718,179.942596 
	C66.023911,181.704102 66.027687,183.419708 65.759636,185.873505 
	C65.324631,187.915024 64.878853,189.255447 65.044151,190.515717 
	C66.111191,198.651001 67.276764,206.774002 68.487946,214.889404 
	C68.894600,217.614227 69.528816,220.305099 70.059021,223.011490 
	C67.574707,225.243881 65.090385,227.476273 61.961319,229.897369 
	C59.866413,231.383499 58.416256,232.680954 56.966095,233.978409 
	C56.966099,233.978409 56.475513,233.976959 55.886757,233.991699 
	C54.521061,234.657394 53.744125,235.308350 52.711487,236.096497 
	C51.969063,236.817642 51.482342,237.401611 50.995625,237.985580 
	C49.283867,238.016388 47.572109,238.047180 45.276886,237.780167 
	C40.126373,233.323044 35.559322,229.163742 31.375504,224.990952 
	C35.704174,224.611633 37.159847,222.136887 36.966721,218.525894 
	C36.774189,214.926041 36.499165,211.314957 35.941505,207.758774 
	C35.746990,206.518341 34.601868,205.426971 33.890877,204.267532 
	C32.655033,205.166763 30.867163,205.802185 30.287516,207.015045 
	C28.591890,210.562912 27.377861,214.340942 25.975117,218.028793 
z"/>
<path fill="#EDEDED" opacity="1.000000" stroke="none" 
	d="
M70.313103,222.687729 
	C69.528816,220.305099 68.894600,217.614227 68.487946,214.889404 
	C67.276764,206.774002 66.111191,198.651001 65.044151,190.515717 
	C64.878853,189.255447 65.324631,187.915024 65.759415,186.301941 
	C66.847305,190.268845 67.927071,194.515259 68.422417,198.828781 
	C69.320915,206.652756 69.871422,214.516708 70.313103,222.687729 
z"/>
<path fill="#E0DFDD" opacity="1.000000" stroke="none" 
	d="
M25.996769,200.998123 
	C25.027435,203.088364 24.058100,205.178604 22.664513,207.629211 
	C21.495541,207.995102 20.750816,208.000610 20.006096,208.006104 
	C22.467640,202.996155 24.919390,197.981369 27.393858,192.977814 
	C29.344139,189.034180 31.322405,185.104385 33.626080,181.467743 
	C31.308197,188.177399 28.652483,194.587769 25.996769,200.998123 
z"/>
<path fill="#EBEBEB" opacity="1.000000" stroke="none" 
	d="
M30.992279,225.004425 
	C35.559322,229.163742 40.126373,233.323044 44.849117,237.788055 
	C43.432972,237.791962 41.402298,238.010345 40.368565,237.098511 
	C35.850693,233.113419 31.622091,228.800400 27.123009,224.314987 
	C27.141214,224.012909 27.324903,224.002274 28.093025,224.022507 
	C29.449066,224.370377 30.220675,224.687408 30.992279,225.004425 
z"/>
<path fill="#E9E9E9" opacity="1.000000" stroke="none" 
	d="
M26.333483,200.926239 
	C28.652483,194.587769 31.308197,188.177399 33.968033,181.373291 
	C33.973373,180.538818 33.974594,180.098114 34.310089,179.327087 
	C35.093529,178.993988 35.542694,178.991196 35.991856,178.988403 
	C35.743462,181.491379 36.153126,184.317368 35.114883,186.432663 
	C32.666954,191.420013 29.529022,196.068680 26.333483,200.926239 
z"/>
<path fill="#E9E9E9" opacity="1.000000" stroke="none" 
	d="
M19.752909,208.292450 
	C20.750816,208.000610 21.495541,207.995102 22.612278,207.984009 
	C21.882475,209.937866 20.780659,211.897339 19.346962,213.929779 
	C19.176630,212.194778 19.338177,210.386780 19.752909,208.292450 
z"/>
<path fill="#DFDFDF" opacity="1.000000" stroke="none" 
	d="
M57.319229,233.942001 
	C58.416256,232.680954 59.866413,231.383499 61.660446,230.048004 
	C60.560333,231.308487 59.116352,232.607040 57.319229,233.942001 
z"/>
<path fill="#E0DFDD" opacity="1.000000" stroke="none" 
	d="
M35.991432,178.657654 
	C35.542694,178.991196 35.093529,178.993988 34.306751,178.996368 
	C33.481987,178.739563 32.994839,178.483185 32.256737,178.112244 
	C32.243217,177.471405 32.480656,176.945114 32.821510,176.155060 
	C32.924934,175.891296 32.931084,175.959091 33.255074,176.001648 
	C34.382671,176.363953 35.186283,176.683716 35.989899,177.003464 
	C35.990269,177.444611 35.990635,177.885742 35.991432,178.657654 
z"/>
<path fill="#DFDFDF" opacity="1.000000" stroke="none" 
	d="
M51.198936,238.200058 
	C51.482342,237.401611 51.969063,236.817642 52.976376,236.116791 
	C53.673409,236.012085 53.849854,236.024307 54.026299,236.036545 
	C53.151619,236.829208 52.276939,237.621872 51.198936,238.200058 
z"/>
<path fill="#EBEBEB" opacity="1.000000" stroke="none" 
	d="
M54.280720,235.895294 
	C53.849854,236.024307 53.673409,236.012085 53.232079,235.979584 
	C53.744125,235.308350 54.521061,234.657394 55.641518,233.996826 
	C55.501740,234.576157 55.018440,235.165100 54.280720,235.895294 
z"/>
<path fill="#D8B882" opacity="1.000000" stroke="none" 
	d="
M54.992065,376.596008 
	C53.923382,376.995117 52.856991,376.995117 51.393257,376.553345 
	C50.331280,371.205261 49.433456,366.316864 49.054127,361.388580 
	C48.410500,353.026520 46.471123,351.054871 37.996033,351.000000 
	C37.133099,349.045685 36.270164,347.091339 35.407234,345.137024 
	C35.866070,344.807617 36.324905,344.478241 36.783741,344.148834 
	C41.038834,345.608032 45.351357,346.928375 49.500034,348.644775 
	C50.319580,348.983826 50.764751,350.810822 50.934509,352.014832 
	C51.277153,354.445007 51.312096,356.918549 51.734871,359.686401 
	C51.997795,361.387268 51.999805,362.775909 52.001656,364.988831 
	C52.999489,368.209717 53.997475,370.606293 54.995461,373.002899 
	C54.995090,374.067566 54.994720,375.132202 54.992065,376.596008 
z"/>
<path fill="#D1B482" opacity="1.000000" stroke="none" 
	d="
M55.006836,372.737701 
	C53.997475,370.606293 52.999489,368.209717 52.002464,365.405396 
	C52.975510,366.114075 53.947590,367.230469 54.971962,369.053589 
	C55.030437,370.487549 55.036621,371.214874 55.042805,371.942169 
	C55.034603,372.118958 55.026405,372.295715 55.006836,372.737701 
z"/>
<path fill="#B5A17E" opacity="1.000000" stroke="none" 
	d="
M54.361755,352.880035 
	C54.017006,351.279266 54.020012,349.581787 54.023411,347.461517 
	C57.149216,348.607819 56.439514,350.634674 54.361755,352.880035 
z"/>
<path fill="#B5A17E" opacity="1.000000" stroke="none" 
	d="
M55.392159,371.939148 
	C55.036621,371.214874 55.030437,370.487549 55.022888,369.396606 
	C55.911270,369.482056 56.801014,369.931122 57.690758,370.380219 
	C57.041004,370.898834 56.391258,371.417480 55.392159,371.939148 
z"/>
<path fill="#D6BC8B" opacity="1.000000" stroke="none" 
	d="
M58.406708,90.946503 
	C58.478161,90.068542 58.874184,89.097923 59.589996,88.025146 
	C59.516956,88.899948 59.124119,89.876892 58.406708,90.946503 
z"/>
<path fill="#F3E0B0" opacity="1.000000" stroke="none" 
	d="
M58.956997,153.615326 
	C58.818630,155.839737 58.686447,157.667526 58.813622,159.757507 
	C59.067680,161.082108 59.062386,162.144516 58.787666,163.822113 
	C56.883595,168.186356 53.930218,169.146820 50.024315,169.112610 
	C47.677437,169.092041 45.320045,170.270996 42.640793,170.940491 
	C41.876816,170.973434 41.439426,170.976761 40.722206,170.745468 
	C39.654087,167.296097 37.809223,163.924911 38.258102,160.893341 
	C40.341316,146.824188 43.069386,132.850769 45.548557,118.839874 
	C47.016811,110.542145 48.451553,102.238495 49.901363,93.937508 
	C50.605202,89.908165 51.309040,85.878815 52.037292,81.451950 
	C55.710186,80.532867 56.050163,82.714783 56.038540,85.584877 
	C55.971310,102.180801 55.846508,118.779686 56.108597,135.371765 
	C56.184635,140.185516 57.468670,144.980209 58.560543,149.919998 
	C58.935825,151.110474 58.949505,152.164597 58.956997,153.615326 
z"/>
<path fill="#E4CD9C" opacity="1.000000" stroke="none" 
	d="
M49.565331,94.052811 
	C48.451553,102.238495 47.016811,110.542145 45.548557,118.839874 
	C43.069386,132.850769 40.341316,146.824188 38.258102,160.893341 
	C37.809223,163.924911 39.654087,167.296097 40.705551,170.994156 
	C40.968727,171.477463 40.953915,171.975235 40.953915,171.975235 
	C39.810452,172.188812 38.666988,172.402374 36.920319,172.840057 
	C35.615852,173.114380 34.914597,173.164581 34.165840,172.785400 
	C35.635605,161.392120 37.045975,150.412064 38.704521,139.469620 
	C39.992569,130.971558 41.590286,122.520447 43.050362,114.048470 
	C43.702328,112.381691 44.474327,110.750679 44.983543,109.041382 
	C46.455467,104.100510 47.821617,99.128128 49.565331,94.052811 
z"/>
<path fill="#D2B785" opacity="1.000000" stroke="none" 
	d="
M42.865726,113.824104 
	C41.590286,122.520447 39.992569,130.971558 38.704521,139.469620 
	C37.045975,150.412064 35.635605,161.392120 34.019112,172.954620 
	C33.717583,173.777237 33.479095,173.951736 32.859112,174.059021 
	C32.054184,174.035217 31.594559,174.029114 31.134932,174.023010 
	C31.085014,172.952835 31.035097,171.882660 30.968739,170.410873 
	C31.617634,167.920471 32.282967,165.831680 32.935459,163.359787 
	C33.678375,157.250916 34.260372,151.495651 35.227356,145.805786 
	C37.039734,135.141571 39.075008,124.515236 41.050850,113.461975 
	C41.616455,113.233780 42.148773,113.416763 42.865726,113.824104 
z"/>
<path fill="#C9B086" opacity="1.000000" stroke="none" 
	d="
M54.515007,68.524101 
	C54.482414,68.539879 54.547600,68.508324 54.515007,68.524101 
z"/>
<path fill="#DFBE86" opacity="1.000000" stroke="none" 
	d="
M37.997002,351.459503 
	C46.471123,351.054871 48.410500,353.026520 49.054127,361.388580 
	C49.433456,366.316864 50.331280,371.205261 50.993145,376.550903 
	C46.047028,376.941559 45.009201,372.566284 42.806068,369.528778 
	C41.309452,367.465424 40.012699,365.257080 38.282272,363.033325 
	C37.937977,362.953064 37.933586,362.563354 37.935715,362.370422 
	C37.957882,358.758026 37.977924,355.338501 37.997002,351.459503 
z"/>
<path fill="#C7B494" opacity="1.000000" stroke="none" 
	d="
M31.147533,174.314178 
	C31.594559,174.029114 32.054184,174.035217 32.807144,174.371826 
	C33.044014,175.121246 32.987549,175.540176 32.931084,175.959091 
	C32.931084,175.959091 32.924934,175.891296 32.892967,175.875458 
	C32.294044,175.441528 31.727087,175.023453 31.147533,174.314178 
z"/>
<path fill="#E9E9E9" opacity="1.000000" stroke="none" 
	d="
M63.995903,294.006836 
	C63.197365,295.561340 62.398823,297.115814 60.844479,298.836945 
	C57.286747,298.906494 54.483967,298.709381 51.683064,298.733185 
	C45.797886,298.783173 39.904316,298.807617 34.037640,299.196381 
	C32.966137,299.267395 32.005863,301.016998 30.994240,301.991730 
	C30.248493,302.211182 29.502750,302.430664 28.163490,302.824799 
	C28.594545,301.186615 28.590038,299.893158 29.211506,299.075562 
	C31.531231,296.023773 30.684738,293.805969 28.090040,291.386414 
	C27.250612,290.603668 27.560595,288.588287 27.827635,287.339844 
	C29.487055,287.170563 30.992306,287.137268 31.785154,286.368896 
	C35.911636,282.369873 40.743206,279.833069 46.440880,280.819275 
	C50.739765,281.563324 54.821320,283.563049 58.840328,285.297241 
	C57.216454,287.140930 55.315903,288.483490 54.442566,290.315704 
	C53.873085,291.510468 54.795982,293.416565 55.386692,295.051453 
	C58.877201,297.738953 61.455772,296.018494 63.995903,294.006836 
z"/>
<path fill="#F2F2F2" opacity="1.000000" stroke="none" 
	d="
M31.290543,302.164825 
	C32.005863,301.016998 32.966137,299.267395 34.037640,299.196381 
	C39.904316,298.807617 45.797886,298.783173 51.683064,298.733185 
	C54.483967,298.709381 57.286747,298.906494 60.546066,299.004822 
	C59.176613,304.257385 58.060654,309.913513 55.355122,314.664429 
	C51.368420,321.665070 41.850601,320.372223 37.355663,312.669373 
	C35.368057,309.263275 33.505932,305.783997 31.290543,302.164825 
M44.702202,303.999664 
	C42.363167,304.437469 37.918514,302.933746 38.581749,306.570709 
	C39.195610,309.936951 42.210323,313.884216 45.267540,315.519226 
	C48.813339,317.415619 52.079506,314.220917 53.989285,310.871429 
	C56.460274,306.537628 54.985401,304.078003 50.083996,304.003998 
	C48.598637,303.981567 47.112663,303.999908 44.702202,303.999664 
z"/>
<path fill="#F1F1F1" opacity="1.000000" stroke="none" 
	d="
M63.996819,293.562744 
	C61.455772,296.018494 58.877201,297.738953 55.383812,294.719543 
	C55.371315,293.566101 55.698044,292.791931 56.410843,292.012024 
	C59.608982,292.148041 61.156143,290.965820 60.986519,287.649658 
	C60.318523,286.537170 59.659061,285.770538 58.999603,285.003906 
	C54.821320,283.563049 50.739765,281.563324 46.440880,280.819275 
	C40.743206,279.833069 35.911636,282.369873 31.785154,286.368896 
	C30.992306,287.137268 29.487055,287.170563 28.154797,287.266968 
	C32.266380,280.807617 38.283958,275.529541 45.338486,275.535156 
	C50.722927,275.539429 56.611588,279.676208 61.260529,283.283356 
	C63.417908,284.957275 63.160458,289.743408 63.996819,293.562744 
z"/>
<path fill="#FEFEFE" opacity="1.000000" stroke="none" 
	d="
M31.375507,224.990952 
	C30.220675,224.687408 29.449066,224.370377 28.368700,224.009155 
	C27.404587,222.218460 26.749233,220.471939 26.034498,218.377106 
	C27.377861,214.340942 28.591890,210.562912 30.287516,207.015045 
	C30.867163,205.802185 32.655033,205.166763 33.890877,204.267532 
	C34.601868,205.426971 35.746990,206.518341 35.941505,207.758774 
	C36.499165,211.314957 36.774189,214.926041 36.966721,218.525894 
	C37.159847,222.136887 35.704174,224.611633 31.375507,224.990952 
z"/>
<path fill="#E4CD9C" opacity="1.000000" stroke="none" 
	d="
M42.967381,170.910873 
	C45.320045,170.270996 47.677437,169.092041 50.024315,169.112610 
	C53.930218,169.146820 56.883595,168.186356 58.796181,164.220978 
	C59.064316,166.050079 59.054504,168.095505 58.600212,170.551437 
	C56.420891,171.009445 54.686054,171.056946 52.951218,171.104446 
	C50.938236,171.087997 48.925255,171.071548 46.097431,171.034943 
	C44.510853,170.980133 43.739117,170.945511 42.967381,170.910873 
z"/>
<path fill="#E9E9E9" opacity="1.000000" stroke="none" 
	d="
M33.255074,176.001648 
	C32.987549,175.540176 33.044014,175.121246 33.152443,174.389526 
	C33.479095,173.951736 33.717583,173.777237 34.066608,173.384033 
	C34.914597,173.164581 35.615852,173.114380 36.671211,173.085236 
	C36.843109,174.239868 36.660900,175.373413 36.234291,176.755219 
	C35.186283,176.683716 34.382671,176.363953 33.255074,176.001648 
z"/>
<path fill="#E0DFDD" opacity="1.000000" stroke="none" 
	d="
M53.073227,171.447037 
	C54.686054,171.056946 56.420891,171.009445 58.587708,170.923309 
	C59.019691,170.884674 59.238792,171.039398 59.253670,171.232422 
	C59.268543,171.425430 59.113071,171.719864 59.113071,171.719849 
	C57.140461,171.743118 55.167847,171.766373 53.073227,171.447037 
z"/>
<path fill="#E0DFDD" opacity="1.000000" stroke="none" 
	d="
M42.640793,170.940491 
	C43.739117,170.945511 44.510853,170.980133 45.666687,171.061005 
	C44.525188,171.561081 42.999596,172.014938 41.213959,172.222015 
	C40.953915,171.975235 40.968727,171.477463 40.985382,171.228775 
	C41.439426,170.976761 41.876816,170.973434 42.640793,170.940491 
z"/>
<path fill="#C9AC7B" opacity="1.000000" stroke="none" 
	d="
M59.279499,171.694824 
	C59.113071,171.719864 59.268543,171.425430 59.371918,171.295685 
	C59.475296,171.165939 59.635891,171.401215 59.684105,171.447083 
	C59.732315,171.492935 59.445927,171.669800 59.279499,171.694824 
z"/>
<path fill="#DEDEDE" opacity="1.000000" stroke="none" 
	d="
M58.840324,285.297241 
	C59.659061,285.770538 60.318523,286.537170 60.689476,287.788391 
	C58.942242,289.521240 57.483509,290.769531 56.024780,292.017792 
	C55.698044,292.791931 55.371315,293.566101 55.047462,294.672119 
	C54.795982,293.416565 53.873085,291.510468 54.442566,290.315704 
	C55.315903,288.483490 57.216454,287.140930 58.840324,285.297241 
z"/>
<path fill="#ECECEC" opacity="1.000000" stroke="none" 
	d="
M45.164585,303.999634 
	C47.112663,303.999908 48.598637,303.981567 50.083996,304.003998 
	C54.985401,304.078003 56.460274,306.537628 53.989285,310.871429 
	C52.079506,314.220917 48.813339,317.415619 45.267540,315.519226 
	C42.210323,313.884216 39.195610,309.936951 38.581749,306.570709 
	C37.918514,302.933746 42.363167,304.437469 45.164585,303.999634 
z"/>
<path fill="#E9E9E9" opacity="1.000000" stroke="none" 
	d="
M56.410847,292.012024 
	C57.483509,290.769531 58.942242,289.521240 60.698017,288.134247 
	C61.156143,290.965820 59.608982,292.148041 56.410847,292.012024 
z"/>
</svg>