<svg version="1.1" id="Layer_1" xmlns="http://www.w3.org/2000/svg" xmlns:xlink="http://www.w3.org/1999/xlink" x="0px" y="0px"
	 width="100%" viewBox="0 0 91 405" enable-background="new 0 0 91 405" xml:space="preserve">
<path fill="#CEB081" opacity="1.000000" stroke="none" 
	d="
M67.906342,315.959259 
	C67.615242,319.989136 67.840630,324.146912 66.883766,328.011963 
	C65.976891,331.675110 63.759136,335.000854 62.251907,338.532196 
	C60.998089,341.469757 59.711777,344.426453 58.849209,347.489929 
	C57.695248,351.588287 57.456345,356.007812 55.881699,359.908813 
	C53.722206,365.258667 50.750919,370.292267 47.913883,375.341370 
	C47.588840,375.919861 45.590813,376.229248 44.893005,375.803589 
	C42.653851,374.437592 40.285500,372.967712 38.685860,370.963989 
	C37.281216,369.204498 36.793934,366.690399 36.000484,364.474121 
	C35.570873,363.274170 35.348217,362.000153 35.459839,360.267334 
	C36.239609,358.456268 36.923801,357.127655 36.885494,355.820251 
	C36.732594,350.601715 36.402138,345.386505 36.041092,340.176727 
	C35.852394,337.453918 35.463665,334.744995 35.165279,332.029785 
	C34.883026,328.573395 34.600773,325.117035 34.167175,320.924286 
	C34.780369,316.800476 36.153099,318.846832 37.334507,319.845123 
	C48.346916,329.150848 60.028454,326.353180 65.988602,312.986084 
	C65.995186,313.001221 65.973740,312.971497 66.248093,313.110107 
	C67.071419,313.522583 67.620399,313.796417 68.169388,314.070251 
	C68.169388,314.070251 68.045822,314.544128 67.850739,314.875671 
	C67.478165,315.520630 67.561729,315.771301 67.906342,315.959259 
M54.670940,346.838074 
	C55.442436,345.221558 56.213932,343.605072 56.986191,341.326538 
	C56.986774,340.885162 56.987354,340.443817 57.487648,339.493256 
	C58.435532,336.624847 59.383415,333.756439 60.331303,330.888031 
	C59.859447,330.541779 59.387592,330.195526 58.915741,329.849243 
	C53.613129,332.471954 48.293274,334.700592 42.336315,332.575134 
	C41.929550,332.430023 40.168919,334.216614 40.154564,335.122528 
	C40.010090,344.241669 39.942039,353.369141 40.211918,362.483643 
	C40.300400,365.471832 41.931927,367.117859 45.611633,366.156982 
	C50.759975,364.812592 51.269569,361.257874 51.112869,356.265045 
	C52.079346,353.179993 53.045822,350.094940 54.670940,346.838074 
z"/>
<path fill="#D2D2D2" opacity="1.000000" stroke="none" 
	d="
M77.053955,290.167175 
	C76.867218,290.898590 76.680473,291.629974 76.073929,292.817200 
	C75.372490,294.492126 75.090858,295.711273 74.809235,296.930420 
	C74.659058,297.907501 74.508881,298.884552 74.236862,300.327118 
	C74.115028,300.792603 74.100914,300.859406 74.100906,300.859406 
	C72.482880,304.361206 70.864845,307.863037 68.811455,311.564606 
	C67.575310,312.166748 66.774521,312.569122 65.973740,312.971497 
	C65.973740,312.971497 65.995186,313.001221 65.648285,313.043152 
	C64.854347,313.297363 64.341812,313.429474 63.969784,313.733490 
	C52.570927,323.049469 49.180237,323.190796 36.473709,315.165161 
	C35.603649,314.615631 34.098427,315.071716 32.888596,315.060150 
	C30.180851,311.793854 26.139400,309.591644 26.559433,304.124603 
	C26.776588,301.298157 24.872250,298.308716 23.926216,294.575623 
	C23.762712,292.792084 23.490599,291.829926 23.454062,290.858887 
	C23.242344,285.231964 23.086130,279.602936 23.219749,274.138855 
	C29.275919,279.001251 33.018322,278.923706 39.350536,273.932159 
	C41.465725,273.246674 43.231300,272.611542 45.168106,272.283325 
	C48.278885,273.446167 51.172775,274.568024 54.170891,275.082764 
	C57.137329,275.592041 60.771667,274.507263 63.119717,275.853821 
	C68.334473,278.844299 72.994751,280.017792 77.953094,276.390137 
	C77.990395,279.556854 78.092773,282.328583 78.195160,285.100311 
	C78.161537,285.500305 78.127914,285.900299 77.859200,286.828918 
	C77.434059,288.294098 77.244003,289.230652 77.053955,290.167175 
M41.397816,315.613739 
	C43.261726,316.080231 45.125633,316.546722 47.825748,317.026855 
	C50.194866,316.664368 52.563980,316.301880 55.673191,315.962524 
	C56.837013,315.415955 58.163528,315.072449 59.139133,314.290924 
	C67.586372,307.524048 71.283897,298.038696 74.247116,287.395599 
	C73.615166,286.559998 73.147636,285.279907 72.319832,284.973694 
	C70.009911,284.119171 67.519859,283.768311 65.155983,283.039886 
	C56.203423,280.281219 47.245098,278.857300 38.064766,282.094055 
	C35.603741,282.961761 33.013428,283.523438 30.440432,283.997437 
	C27.283459,284.579010 25.535301,285.922974 26.631128,289.422455 
	C27.767862,293.052582 28.261635,297.033569 30.091652,300.263306 
	C33.096882,305.567047 34.507652,312.230103 41.397816,315.613739 
z"/>
<path fill="#D6BE8F" opacity="1.000000" stroke="none" 
	d="
M44.002445,46.135597 
	C45.114986,46.507305 46.714146,46.534824 47.260384,47.307091 
	C50.580193,52.000614 54.429226,56.539684 56.625828,61.752213 
	C59.379772,68.287308 60.044857,75.337616 64.099136,81.843071 
	C67.476143,87.261795 66.754059,95.179794 68.126236,101.934196 
	C68.587982,104.207123 70.394302,106.235954 70.719574,108.500793 
	C71.217262,111.966202 70.963524,115.539513 70.883698,119.871918 
	C70.577293,124.995819 70.415932,129.314819 70.194427,134.102478 
	C70.427002,145.005630 70.669640,155.442169 71.088837,165.871597 
	C71.131378,166.930267 72.236938,167.946243 72.849197,168.982025 
	C72.899841,169.724106 72.950485,170.466171 72.565102,171.573364 
	C71.417297,171.963882 70.705536,171.989288 69.744659,171.878052 
	C69.021736,171.425095 68.547928,171.108795 68.005997,170.485962 
	C66.946838,169.138824 65.955818,168.098236 64.977798,166.783203 
	C64.994339,166.326019 64.997887,166.143250 65.363708,165.952515 
	C66.427513,164.940613 67.129051,163.936707 67.793213,162.556274 
	C67.481010,155.794312 67.206177,149.408859 66.956757,142.576324 
	C66.658165,139.085129 66.334160,136.041046 66.012245,132.580566 
	C65.702423,129.448380 65.390518,126.732559 65.304489,123.735046 
	C65.355118,121.635048 65.179855,119.816750 65.006912,117.583267 
	C64.991837,115.784279 64.974449,114.400490 64.973648,112.648605 
	C64.360344,111.150024 63.730461,110.019539 63.104599,108.577423 
	C63.104275,107.850281 63.099926,107.434776 63.297806,106.790115 
	C63.034584,105.668648 62.569134,104.776337 62.097652,103.455872 
	C62.038597,101.027596 61.985577,99.027466 61.919792,96.735252 
	C61.613007,95.960159 61.318989,95.477142 61.019493,94.623032 
	C60.987385,93.510117 60.960754,92.768318 60.896385,91.717407 
	C60.270515,90.901184 59.682396,90.394081 59.099255,89.575256 
	C59.099026,88.847908 59.093815,88.432281 59.260933,87.818192 
	C58.987339,87.042320 58.541412,86.464905 58.087902,85.500626 
	C58.035892,84.082893 57.991467,83.052025 57.915962,81.666336 
	C56.953281,79.838661 56.021683,78.365807 55.083412,76.498642 
	C52.025875,67.756790 48.975014,59.409245 46.137329,50.848785 
	C45.567055,49.757069 44.783604,48.878265 43.999821,47.688812 
	C44.000473,46.963978 44.001461,46.549786 44.002445,46.135597 
z"/>
<path fill="#D0B78A" opacity="1.000000" stroke="none" 
	d="
M43.632111,45.949944 
	C44.001461,46.549786 44.000473,46.963978 43.969082,47.711735 
	C43.938675,48.045303 43.877136,48.091057 43.481266,48.075714 
	C36.422951,47.811840 39.806705,52.137733 39.633625,55.060791 
	C39.891800,57.761204 40.450550,60.381744 41.013374,63.327942 
	C41.029243,64.087097 41.041039,64.520607 41.038780,65.419525 
	C41.029041,69.935013 41.033352,73.985092 41.032593,78.411514 
	C41.060036,79.543159 41.092548,80.298454 41.110886,81.372772 
	C41.096321,82.117172 41.095936,82.542549 41.069893,83.437943 
	C41.040142,92.276802 41.036049,100.645645 41.023224,109.469742 
	C41.338665,115.947212 41.662834,121.969429 41.957169,127.973526 
	C41.927338,127.955406 41.859310,127.939758 41.564388,127.961029 
	C40.843227,128.655029 40.416992,129.327759 39.992729,130.400894 
	C40.002750,131.870560 40.010799,132.939804 40.015144,134.408493 
	C39.990028,135.873062 39.968616,136.938217 39.620850,138.086487 
	C38.878349,139.126495 38.462200,140.083405 38.100574,141.336777 
	C38.747421,142.091644 39.339752,142.550034 39.934490,143.376511 
	C39.918007,144.480423 39.899117,145.216248 39.518169,145.986588 
	C38.452896,147.361389 37.749683,148.701675 37.041740,150.467255 
	C37.027531,152.594635 37.018044,154.296722 36.752888,156.312897 
	C36.409855,160.170914 34.137199,164.019455 37.949097,167.243774 
	C37.952244,167.467224 37.974182,167.913651 37.709869,168.088806 
	C36.279575,169.468597 35.113598,170.673218 33.642509,171.883240 
	C32.930435,171.874588 32.523472,171.860535 32.098568,171.399567 
	C32.037762,167.593765 31.994898,164.234879 31.952038,160.875992 
	C33.207436,147.161774 34.462837,133.447556 36.171555,119.024902 
	C36.720554,110.503693 36.816231,102.690910 36.911911,94.878136 
	C35.311516,87.693398 35.747410,80.616615 36.604012,73.288300 
	C37.215000,68.061211 34.729588,62.521790 34.010952,57.070984 
	C33.583832,53.831314 32.811558,49.917503 34.167355,47.347618 
	C35.800880,44.251308 39.783253,43.933830 43.632111,45.949944 
z"/>
<path fill="#D5D5D5" opacity="1.000000" stroke="none" 
	d="
M78.018188,275.995117 
	C72.994751,280.017792 68.334473,278.844299 63.119717,275.853821 
	C60.771667,274.507263 57.137329,275.592041 54.170891,275.082764 
	C51.172775,274.568024 48.278885,273.446167 45.333702,272.012451 
	C46.220387,271.252716 47.172634,270.771637 47.995487,270.936462 
	C54.232944,272.186066 60.413193,273.758301 66.684853,274.776978 
	C68.519936,275.075073 71.138763,274.446411 72.348534,273.212891 
	C73.057983,272.489532 71.868195,269.668945 71.190575,267.924652 
	C70.879799,267.124634 69.745461,266.644531 68.799164,265.798401 
	C68.082748,265.377197 67.551773,265.176971 66.935677,264.650635 
	C65.902855,263.881134 64.955162,263.437714 63.760586,262.791626 
	C62.355236,261.766510 61.196770,260.944092 59.641075,260.067078 
	C57.837414,259.529327 56.460388,258.767792 55.018993,258.615479 
	C50.778767,258.167480 46.130806,255.977325 42.522163,260.921387 
	C40.094601,261.945770 38.026676,262.951111 35.682991,264.108826 
	C34.261955,265.165436 33.116680,266.069702 31.608116,267.046143 
	C30.603619,268.715942 29.145473,270.592621 29.567232,271.826996 
	C29.936630,272.908142 32.362141,273.525787 33.981316,273.873322 
	C35.588295,274.218262 37.322514,273.970367 39.000927,273.982483 
	C33.018322,278.923706 29.275919,279.001251 23.239357,273.723267 
	C22.949331,272.034485 22.948317,270.925415 22.947300,269.816376 
	C28.962505,263.909515 34.907970,257.906921 43.963951,255.006592 
	C49.175617,254.609802 53.594032,254.292023 58.012444,253.974258 
	C62.846035,257.232147 67.765480,260.372620 72.467400,263.810608 
	C74.149643,265.040619 75.306099,266.989716 76.924835,269.184692 
	C77.383957,270.165436 77.620796,270.572113 77.857635,270.978760 
	C78.595459,271.765381 79.333282,272.552002 79.743004,273.730408 
	C78.949333,274.746521 78.483765,275.370819 78.018188,275.995117 
z"/>
<path fill="#DBDBDB" opacity="1.000000" stroke="none" 
	d="
M69.993767,172.014709 
	C70.705536,171.989288 71.417297,171.963882 72.485214,171.938004 
	C73.316864,173.779160 73.792366,175.620773 74.179947,177.857849 
	C74.144836,179.207748 74.197655,180.162201 74.250473,181.116638 
	C75.018463,184.444061 75.729691,187.785858 76.566498,191.095871 
	C78.213371,197.610229 80.448181,204.026535 81.473389,210.633362 
	C82.518456,217.368057 81.131287,223.724625 73.748085,227.682724 
	C71.827713,228.664703 70.416649,229.333191 68.974792,229.986099 
	C68.943993,229.970535 68.882492,229.939163 68.784195,229.663910 
	C68.812119,228.266052 68.938347,227.143448 69.296417,225.760361 
	C73.643585,222.601028 72.964722,218.201859 73.338593,213.770996 
	C73.507729,209.557251 74.043785,205.508331 73.258728,201.734253 
	C71.714478,194.310455 69.479988,187.027161 67.444870,179.709717 
	C66.285019,175.539413 64.955063,171.416428 64.016937,167.215332 
	C64.543037,167.124893 64.753914,167.091263 64.964790,167.057632 
	C65.955818,168.098236 66.946838,169.138824 67.983398,170.885559 
	C68.182678,172.834198 68.336418,174.076721 68.490158,175.319229 
	C68.849716,175.292816 69.209274,175.266403 69.568832,175.239975 
	C69.710480,174.164886 69.852119,173.089798 69.993767,172.014709 
M78.894417,219.220764 
	C78.593956,218.211365 78.293503,217.201950 77.705788,215.227493 
	C75.751694,219.890961 75.751694,219.890961 78.894417,219.220764 
M71.482910,183.846588 
	C71.167534,183.906464 70.852150,183.966339 70.536774,184.026230 
	C70.849739,184.097885 71.162697,184.169540 71.482910,183.846588 
z"/>
<path fill="#DFDFDF" opacity="1.000000" stroke="none" 
	d="
M33.947624,171.877853 
	C35.113598,170.673218 36.279575,169.468597 38.006531,168.170868 
	C38.765472,168.130646 38.963436,168.183533 39.119339,168.610733 
	C35.336693,180.070114 31.348919,191.080338 27.959824,202.271866 
	C26.265558,207.866684 23.571323,214.348450 27.548101,219.509796 
	C33.726913,227.529144 41.552135,234.038467 51.111160,238.491425 
	C52.212601,240.386185 56.311554,239.163544 54.974087,242.916016 
	C52.071148,242.537796 49.168209,242.159561 46.221985,241.158676 
	C44.302738,238.329849 42.426777,236.123688 39.792473,233.025696 
	C39.332890,235.420197 39.157902,236.331909 38.982910,237.243652 
	C35.771515,235.098251 32.188915,233.340363 29.442562,230.709518 
	C25.999249,227.411011 23.241915,223.396393 20.599937,219.344604 
	C21.972752,218.023941 22.934128,217.049545 23.895508,216.075165 
	C22.646074,215.381470 21.396637,214.687790 20.147198,213.994110 
	C20.051630,212.542160 19.956064,211.090210 20.319672,209.313538 
	C21.180531,208.986359 21.582216,208.983887 22.065380,209.277466 
	C22.231485,209.716019 22.294479,209.879608 22.406954,209.994980 
	C22.514759,210.105530 22.771046,210.260147 22.796009,210.234375 
	C23.188875,209.829239 23.746077,209.457184 23.898676,208.964020 
	C26.673285,199.997360 29.501236,191.044800 32.080128,182.021286 
	C33.020481,178.730988 33.343151,175.264145 33.947624,171.877853 
z"/>
<path fill="#B7B5B1" opacity="1.000000" stroke="none" 
	d="
M32.906685,315.454590 
	C34.098427,315.071716 35.603649,314.615631 36.473709,315.165161 
	C49.180237,323.190796 52.570927,323.049469 63.969784,313.733490 
	C64.341812,313.429474 64.854347,313.297363 65.641708,313.028015 
	C60.028454,326.353180 48.346916,329.150848 37.334507,319.845123 
	C36.153099,318.846832 34.780369,316.800476 34.022934,320.515625 
	C33.661613,319.178589 33.293194,317.513824 32.906685,315.454590 
z"/>
<path fill="#D9D8D8" opacity="1.000000" stroke="none" 
	d="
M33.642509,171.883240 
	C33.343151,175.264145 33.020481,178.730988 32.080128,182.021286 
	C29.501236,191.044800 26.673285,199.997360 23.898676,208.964020 
	C23.746077,209.457184 23.188875,209.829239 22.796009,210.234375 
	C22.771046,210.260147 22.514759,210.105530 22.406954,209.994980 
	C22.294479,209.879608 22.231485,209.716019 22.057243,208.924774 
	C21.922842,207.003098 21.617224,205.673218 21.880432,204.467529 
	C22.801563,200.248062 23.918917,196.071442 24.961739,191.878540 
	C25.283806,190.799698 25.605873,189.720856 26.378119,188.208374 
	C28.591036,182.465317 30.353773,177.155884 32.116508,171.846466 
	C32.523472,171.860535 32.930435,171.874588 33.642509,171.883240 
z"/>
<path fill="#E0B39B" opacity="1.000000" stroke="none" 
	d="
M72.926590,168.621368 
	C72.236938,167.946243 71.131378,166.930267 71.088837,165.871597 
	C70.669640,155.442169 70.427002,145.005630 70.504135,134.247131 
	C71.550224,133.952972 72.226463,133.982819 72.902695,134.012650 
	C73.123436,144.383591 73.361969,154.754242 73.537498,165.125946 
	C73.555130,166.167557 73.190964,167.215637 72.926590,168.621368 
z"/>
<path fill="#DBDBDB" opacity="1.000000" stroke="none" 
	d="
M55.350281,242.964569 
	C56.311554,239.163544 52.212601,240.386185 51.503975,238.444931 
	C54.008205,237.219589 56.266605,236.463745 58.387199,235.426224 
	C61.931965,233.691925 65.388702,231.777679 68.882492,229.939163 
	C68.882492,229.939163 68.943993,229.970535 69.179672,230.210358 
	C69.981552,230.646271 70.547752,230.842392 71.113953,231.038513 
	C68.734467,233.405304 66.354973,235.772110 63.323929,238.135468 
	C62.113136,238.840515 61.553905,239.549026 60.994675,240.257538 
	C59.238609,241.176056 57.482544,242.094589 55.350281,242.964569 
z"/>
<path fill="#E9E8E7" opacity="1.000000" stroke="none" 
	d="
M32.098564,171.399567 
	C30.353773,177.155884 28.591036,182.465317 26.496700,187.880554 
	C27.095438,181.956802 27.940758,175.912323 28.991886,169.903870 
	C29.519325,166.888931 30.421392,163.939499 31.553036,160.918213 
	C31.994898,164.234879 32.037762,167.593765 32.098564,171.399567 
z"/>
<path fill="#D3D3D3" opacity="1.000000" stroke="none" 
	d="
M36.560982,95.023071 
	C36.816231,102.690910 36.720554,110.503693 36.371399,118.641281 
	C35.522648,114.114723 34.570969,109.271347 34.461704,104.409042 
	C34.392815,101.343346 35.584068,98.249329 36.560982,95.023071 
z"/>
<path fill="#F9F9F9" opacity="1.000000" stroke="none" 
	d="
M22.546490,269.903625 
	C22.948317,270.925415 22.949331,272.034485 22.930740,273.559082 
	C23.086130,279.602936 23.242344,285.231964 23.454062,290.858887 
	C23.490599,291.829926 23.762712,292.792084 23.912487,294.217407 
	C18.890245,293.257355 21.008871,288.488434 20.577911,285.693329 
	C19.794296,280.610901 17.947649,274.809448 22.546490,269.903625 
z"/>
<path fill="#EAEAEA" opacity="1.000000" stroke="none" 
	d="
M24.635994,192.023453 
	C23.918917,196.071442 22.801563,200.248062 21.880432,204.467529 
	C21.617224,205.673218 21.922842,207.003098 21.975763,208.628723 
	C21.582216,208.983887 21.180531,208.986359 20.477406,208.989365 
	C19.482393,202.873566 20.651617,197.215042 24.635994,192.023453 
z"/>
<path fill="#F8F3EA" opacity="1.000000" stroke="none" 
	d="
M72.958992,133.551331 
	C72.226463,133.982819 71.550224,133.952972 70.564285,133.778473 
	C70.415932,129.314819 70.577293,124.995819 70.894127,120.288528 
	C71.707863,122.186844 72.592522,124.438126 72.956451,126.770645 
	C73.277779,128.830017 73.018311,130.980011 72.958992,133.551331 
z"/>
<path fill="#E5E5E5" opacity="1.000000" stroke="none" 
	d="
M77.953102,276.390137 
	C78.483765,275.370819 78.949333,274.746521 79.722748,274.059265 
	C79.682327,277.675781 79.334061,281.355255 78.590477,285.067505 
	C78.092773,282.328583 77.990395,279.556854 77.953102,276.390137 
z"/>
<path fill="#F6F6F6" opacity="1.000000" stroke="none" 
	d="
M57.877663,253.597382 
	C53.594032,254.292023 49.175617,254.609802 44.326256,254.950409 
	C47.253330,254.040131 50.578930,252.944275 53.987556,252.265091 
	C55.130497,252.037354 56.485050,252.871674 57.877663,253.597382 
z"/>
<path fill="#DDD1BB" opacity="1.000000" stroke="none" 
	d="
M35.093544,332.492493 
	C35.463665,334.744995 35.852394,337.453918 36.041092,340.176727 
	C36.402138,345.386505 36.732594,350.601715 36.885494,355.820251 
	C36.923801,357.127655 36.239609,358.456268 35.515709,359.856750 
	C35.097683,354.709961 35.036957,349.481598 35.010029,344.253113 
	C34.990631,340.487244 35.016262,336.721161 35.093544,332.492493 
z"/>
<path fill="#D9D8D8" opacity="1.000000" stroke="none" 
	d="
M39.083839,237.539795 
	C39.157902,236.331909 39.332890,235.420197 39.792473,233.025696 
	C42.426777,236.123688 44.302738,238.329849 46.055149,240.839874 
	C43.682652,240.041153 41.433712,238.938553 39.083839,237.539795 
z"/>
<path fill="#D9D8D8" opacity="1.000000" stroke="none" 
	d="
M20.091034,214.409637 
	C21.396637,214.687790 22.646074,215.381470 23.895508,216.075165 
	C22.934128,217.049545 21.972752,218.023941 20.631960,219.004517 
	C20.179987,217.615540 20.107428,216.220337 20.091034,214.409637 
z"/>
<path fill="#D9D8D8" opacity="1.000000" stroke="none" 
	d="
M71.413048,230.928070 
	C70.547752,230.842392 69.981552,230.646271 69.210464,230.225922 
	C70.416649,229.333191 71.827713,228.664703 73.596733,227.990677 
	C73.207169,228.929291 72.459656,229.873459 71.413048,230.928070 
z"/>
<path fill="#E5E5E5" opacity="1.000000" stroke="none" 
	d="
M75.083954,296.775177 
	C75.090858,295.711273 75.372490,294.492126 75.908020,293.159302 
	C75.894173,294.237061 75.626419,295.428497 75.083954,296.775177 
z"/>
<path fill="#DFDFDF" opacity="1.000000" stroke="none" 
	d="
M74.555931,181.045441 
	C74.197655,180.162201 74.144836,179.207748 74.381287,178.165985 
	C74.734169,179.043854 74.797783,180.009064 74.555931,181.045441 
z"/>
<path fill="#B7B5B1" opacity="1.000000" stroke="none" 
	d="
M66.248093,313.110107 
	C66.774521,312.569122 67.575310,312.166748 68.650269,311.866241 
	C68.859718,312.575348 68.795013,313.182556 68.449844,313.930023 
	C67.620399,313.796417 67.071419,313.522583 66.248093,313.110107 
z"/>
<path fill="#DFDFDF" opacity="1.000000" stroke="none" 
	d="
M61.288193,240.405060 
	C61.553905,239.549026 62.113136,238.840515 62.976448,238.116791 
	C62.714256,238.918549 62.147984,239.735565 61.288193,240.405060 
z"/>
<path fill="#E5E5E5" opacity="1.000000" stroke="none" 
	d="
M77.349915,290.022034 
	C77.244003,289.230652 77.434059,288.294098 77.907532,287.127106 
	C78.009270,287.890045 77.827576,288.883453 77.349915,290.022034 
z"/>
<path fill="#E5E5E5" opacity="1.000000" stroke="none" 
	d="
M74.241341,300.761536 
	C74.100914,300.859406 74.115028,300.792603 74.083527,300.798279 
	C74.265762,300.921448 74.479515,301.038940 74.693268,301.156433 
	C74.589424,300.992188 74.485596,300.827942 74.241341,300.761536 
z"/>
<path fill="#E5E5E5" opacity="1.000000" stroke="none" 
	d="
M77.909912,270.718842 
	C77.620796,270.572113 77.383957,270.165436 77.085190,269.522583 
	C77.336227,269.677246 77.649208,270.068085 77.909912,270.718842 
z"/>
<path fill="#B7B5B1" opacity="1.000000" stroke="none" 
	d="
M67.964058,315.722961 
	C67.561729,315.771301 67.478165,315.520630 67.781494,315.110535 
	C67.907341,315.013855 68.021767,315.486694 67.964058,315.722961 
z"/>
<path fill="#DEBE86" opacity="1.000000" stroke="none" 
	d="
M56.987938,340.002441 
	C56.987354,340.443817 56.986774,340.885162 56.657120,341.744385 
	C55.556129,343.778107 54.784210,345.394012 54.012299,347.009888 
	C53.045822,350.094940 52.079346,353.179993 50.762642,356.804810 
	C49.671162,358.427612 49.071209,359.654053 48.153648,360.558167 
	C46.947731,361.746460 45.491764,362.680969 44.143326,363.724609 
	C43.429798,362.224945 42.181786,360.753448 42.101101,359.220459 
	C41.839737,354.254913 41.829960,349.256805 42.110809,344.293152 
	C42.201275,342.694336 43.305290,339.958099 44.265087,339.809784 
	C48.451176,339.163025 52.833439,336.777679 56.987938,340.002441 
z"/>
<path fill="#D7B781" opacity="1.000000" stroke="none" 
	d="
M57.237793,339.747864 
	C52.833439,336.777679 48.451176,339.163025 44.265087,339.809784 
	C43.305290,339.958099 42.201275,342.694336 42.110809,344.293152 
	C41.829960,349.256805 41.839737,354.254913 42.101101,359.220459 
	C42.181786,360.753448 43.429798,362.224945 44.143326,363.724609 
	C45.491764,362.680969 46.947731,361.746460 48.153648,360.558167 
	C49.071209,359.654053 49.671162,358.427612 50.704651,357.170959 
	C51.269569,361.257874 50.759975,364.812592 45.611633,366.156982 
	C41.931927,367.117859 40.300400,365.471832 40.211918,362.483643 
	C39.942039,353.369141 40.010090,344.241669 40.154564,335.122528 
	C40.168919,334.216614 41.929550,332.430023 42.336315,332.575134 
	C48.293274,334.700592 53.613129,332.471954 58.915741,329.849243 
	C59.387592,330.195526 59.859447,330.541779 60.331303,330.888031 
	C59.383415,333.756439 58.435532,336.624847 57.237793,339.747864 
z"/>
<path fill="#D7B781" opacity="1.000000" stroke="none" 
	d="
M54.341618,346.923981 
	C54.784210,345.394012 55.556129,343.778107 56.656738,342.075378 
	C56.213932,343.605072 55.442436,345.221558 54.341618,346.923981 
z"/>
<path fill="#F9F9F9" opacity="1.000000" stroke="none" 
	d="
M54.933098,315.939392 
	C52.563980,316.301880 50.194866,316.664368 47.359879,316.676178 
	C42.942951,311.870178 38.991901,307.414825 35.030647,302.593140 
	C34.992828,301.494354 34.965206,300.761902 35.198303,299.776611 
	C37.421421,298.350861 39.328960,296.291870 41.356209,296.166351 
	C48.211967,295.741882 55.112171,296.099701 61.991211,295.957092 
	C65.003433,295.894623 66.292778,297.061584 65.939156,300.348816 
	C64.246155,302.790802 62.633522,304.904358 60.670113,307.067444 
	C59.209377,308.740509 58.099426,310.364044 56.702888,312.166534 
	C55.921906,313.543457 55.427502,314.741425 54.933098,315.939392 
z"/>
<path fill="#E2E2E2" opacity="1.000000" stroke="none" 
	d="
M55.303146,315.950958 
	C55.427502,314.741425 55.921906,313.543457 56.995903,312.012329 
	C58.723965,310.125397 59.872429,308.571655 61.020893,307.017883 
	C62.633522,304.904358 64.246155,302.790802 66.280991,300.250000 
	C67.471390,297.548157 68.239594,295.273590 69.234604,292.749573 
	C68.617256,291.398743 67.898903,289.471893 66.909859,289.321198 
	C54.186531,287.382202 41.478569,286.826843 29.007244,290.613770 
	C29.175264,288.997437 29.345793,287.775208 29.433701,287.145142 
	C32.938236,286.660187 35.824867,286.275909 38.706692,285.858398 
	C42.894745,285.251770 47.156593,283.796051 51.248722,284.179138 
	C58.880856,284.893646 66.413467,286.671234 73.987495,288.006409 
	C71.283897,298.038696 67.586372,307.524048 59.139133,314.290924 
	C58.163528,315.072449 56.837013,315.415955 55.303146,315.950958 
z"/>
<path fill="#DCDCDC" opacity="1.000000" stroke="none" 
	d="
M74.117310,287.700989 
	C66.413467,286.671234 58.880856,284.893646 51.248722,284.179138 
	C47.156593,283.796051 42.894745,285.251770 38.706692,285.858398 
	C35.824867,286.275909 32.938236,286.660187 29.433701,287.145142 
	C29.345793,287.775208 29.175264,288.997437 29.019012,290.986938 
	C30.682360,294.509491 32.331432,297.264862 34.219742,300.025635 
	C34.458984,300.031067 34.937584,300.029449 34.937584,300.029449 
	C34.965206,300.761902 34.992828,301.494354 35.069252,302.958557 
	C37.078171,307.460602 39.038277,311.230927 40.998390,315.001221 
	C34.507652,312.230103 33.096882,305.567047 30.091652,300.263306 
	C28.261635,297.033569 27.767862,293.052582 26.631128,289.422455 
	C25.535301,285.922974 27.283459,284.579010 30.440432,283.997437 
	C33.013428,283.523438 35.603741,282.961761 38.064766,282.094055 
	C47.245098,278.857300 56.203423,280.281219 65.155983,283.039886 
	C67.519859,283.768311 70.009911,284.119171 72.319832,284.973694 
	C73.147636,285.279907 73.615166,286.559998 74.117310,287.700989 
z"/>
<path fill="#E2E2E2" opacity="1.000000" stroke="none" 
	d="
M68.984604,266.019348 
	C69.745461,266.644531 70.879799,267.124634 71.190575,267.924652 
	C71.868195,269.668945 73.057983,272.489532 72.348534,273.212891 
	C71.138763,274.446411 68.519936,275.075073 66.684853,274.776978 
	C60.413193,273.758301 54.232944,272.186066 47.995487,270.936462 
	C47.172634,270.771637 46.220387,271.252716 45.162472,271.705536 
	C43.231300,272.611542 41.465725,273.246674 39.350536,273.932159 
	C37.322514,273.970367 35.588295,274.218262 33.981316,273.873322 
	C32.362141,273.525787 29.936630,272.908142 29.567232,271.826996 
	C29.145473,270.592621 30.603619,268.715942 31.711119,267.409607 
	C34.818069,271.205872 38.397720,269.554749 41.777847,269.645691 
	C48.600613,269.829193 55.523453,269.858978 62.192757,271.096252 
	C67.929222,272.160492 68.788017,272.147430 68.984604,266.019348 
z"/>
<path fill="#E8E8E8" opacity="1.000000" stroke="none" 
	d="
M41.198101,315.307495 
	C39.038277,311.230927 37.078171,307.460602 35.079456,303.324890 
	C38.991901,307.414825 42.942951,311.870178 46.941772,316.669373 
	C45.125633,316.546722 43.261726,316.080231 41.198101,315.307495 
z"/>
<path fill="#F3E1B1" opacity="1.000000" stroke="none" 
	d="
M63.095577,107.019264 
	C63.099926,107.434776 63.104275,107.850281 63.075294,108.955170 
	C63.680332,110.768600 64.318695,111.892654 64.957054,113.016701 
	C64.974449,114.400490 64.991837,115.784279 64.763992,117.855438 
	C64.705368,120.367447 64.891983,122.192101 65.078606,124.016747 
	C65.390518,126.732559 65.702423,129.448380 65.755859,132.890472 
	C65.347664,136.848007 63.376755,140.356873 66.931343,143.023422 
	C67.206177,149.408859 67.481010,155.794312 67.481789,162.578949 
	C66.471184,163.320175 65.734634,163.662216 64.560020,164.002930 
	C56.692184,162.851837 49.286041,162.241760 42.005005,164.578247 
	C41.641182,162.113815 41.298332,160.039993 40.942402,157.567352 
	C40.611794,154.775299 40.294262,152.382065 39.988358,149.744873 
	C39.999985,149.500900 40.022579,149.012711 40.379196,148.897827 
	C41.142559,146.844238 41.549305,144.905548 41.957878,142.628616 
	C41.926777,141.839630 41.893845,141.388885 41.879105,140.575684 
	C41.904060,139.487610 41.910824,138.761993 42.160141,137.806107 
	C42.271572,136.383682 42.140446,135.191498 42.007851,133.598145 
	C41.995087,132.126541 41.983791,131.056107 41.974640,129.644180 
	C41.937626,128.848373 41.898468,128.394058 41.859310,127.939758 
	C41.859310,127.939758 41.927338,127.955406 42.335846,127.851067 
	C43.161652,126.254692 43.892479,124.772202 43.938248,123.268860 
	C44.083225,118.506432 43.972260,113.736214 43.963959,108.503365 
	C43.971169,102.691788 43.974674,97.345848 44.199677,91.797852 
	C44.273479,90.730560 44.125790,89.865334 43.980476,88.625168 
	C43.982494,87.500351 43.982136,86.750465 44.230347,85.721718 
	C44.636208,83.949829 44.793503,82.456810 44.958897,80.597015 
	C44.967247,79.495399 44.967503,78.760544 44.997799,77.607468 
	C45.011620,73.123734 44.995396,69.058235 44.973495,64.662582 
	C44.646454,63.554394 44.325085,62.776352 44.001953,61.598373 
	C43.686527,57.431961 43.372864,53.665485 43.364609,49.960350 
	C44.421391,50.368359 45.172771,50.715031 45.924149,51.061703 
	C48.975014,59.409245 52.025875,67.756790 55.102779,76.862625 
	C56.068226,79.087662 57.007633,80.554413 57.947044,82.021156 
	C57.991467,83.052025 58.035892,84.082893 58.095615,85.812927 
	C58.436813,87.013603 58.762711,87.515129 59.088608,88.016647 
	C59.093815,88.432281 59.099026,88.847908 59.125328,89.893753 
	C59.742325,91.024818 60.338226,91.525665 60.934128,92.026512 
	C60.960754,92.768318 60.987385,93.510117 60.828079,94.805695 
	C61.072289,95.915428 61.502422,96.471382 61.932556,97.027336 
	C61.985577,99.027466 62.038597,101.027596 62.072617,103.806931 
	C62.400940,105.397171 62.748257,106.208221 63.095577,107.019264 
z"/>
<path fill="#E1CB9E" opacity="1.000000" stroke="none" 
	d="
M42.025974,164.968826 
	C49.286041,162.241760 56.692184,162.851837 64.561256,164.329178 
	C65.000854,165.091339 65.001144,165.525925 65.001442,165.960495 
	C64.997887,166.143250 64.994339,166.326019 64.977798,166.783203 
	C64.753914,167.091263 64.543037,167.124893 63.759209,167.019348 
	C62.137791,166.632675 61.089329,166.385178 59.731110,165.850891 
	C56.350674,165.381866 53.222824,164.754150 50.224918,165.138916 
	C47.037098,165.548065 43.972404,166.916595 40.567364,167.909073 
	C39.907658,168.046768 39.534531,168.141602 39.161404,168.236435 
	C38.963436,168.183533 38.765472,168.130646 38.270847,167.995697 
	C37.974182,167.913651 37.952244,167.467224 37.974045,166.910431 
	C38.326275,165.568222 38.656704,164.782791 39.281868,164.128082 
	C40.393059,164.495468 41.209515,164.732147 42.025974,164.968826 
z"/>
<path fill="#EBD6A6" opacity="1.000000" stroke="none" 
	d="
M66.956757,142.576324 
	C63.376755,140.356873 65.347664,136.848007 65.753769,133.306854 
	C66.334160,136.041046 66.658165,139.085129 66.956757,142.576324 
z"/>
<path fill="#EBD6A6" opacity="1.000000" stroke="none" 
	d="
M65.304489,123.735046 
	C64.891983,122.192101 64.705368,120.367447 64.761673,118.270630 
	C65.179855,119.816750 65.355118,121.635048 65.304489,123.735046 
z"/>
<path fill="#EBD6A6" opacity="1.000000" stroke="none" 
	d="
M57.915962,81.666336 
	C57.007633,80.554413 56.068226,79.087662 55.109451,77.256943 
	C56.021683,78.365807 56.953281,79.838661 57.915962,81.666336 
z"/>
<path fill="#DFDFDF" opacity="1.000000" stroke="none" 
	d="
M69.744659,171.878052 
	C69.852119,173.089798 69.710480,174.164886 69.568832,175.239975 
	C69.209274,175.266403 68.849716,175.292816 68.490158,175.319229 
	C68.336418,174.076721 68.182678,172.834198 68.051537,171.192078 
	C68.547928,171.108795 69.021736,171.425095 69.744659,171.878052 
z"/>
<path fill="#EBD6A6" opacity="1.000000" stroke="none" 
	d="
M65.363708,165.952515 
	C65.001144,165.525925 65.000854,165.091339 64.999321,164.330505 
	C65.734634,163.662216 66.471184,163.320175 67.519165,162.955475 
	C67.129051,163.936707 66.427513,164.940613 65.363708,165.952515 
z"/>
<path fill="#EBD6A6" opacity="1.000000" stroke="none" 
	d="
M64.973648,112.648605 
	C64.318695,111.892654 63.680332,110.768600 63.071274,109.266800 
	C63.730461,110.019539 64.360344,111.150024 64.973648,112.648605 
z"/>
<path fill="#D0B78A" opacity="1.000000" stroke="none" 
	d="
M46.137329,50.848785 
	C45.172771,50.715031 44.421391,50.368359 43.469227,49.735638 
	C43.471336,48.996746 43.674236,48.543900 43.877136,48.091057 
	C43.877136,48.091057 43.938675,48.045303 43.969414,48.022381 
	C44.783604,48.878265 45.567055,49.757069 46.137329,50.848785 
z"/>
<path fill="#EBD6A6" opacity="1.000000" stroke="none" 
	d="
M63.297806,106.790115 
	C62.748257,106.208221 62.400940,105.397171 62.078651,104.235077 
	C62.569134,104.776337 63.034584,105.668648 63.297806,106.790115 
z"/>
<path fill="#EBD6A6" opacity="1.000000" stroke="none" 
	d="
M61.919792,96.735252 
	C61.502422,96.471382 61.072289,95.915428 60.833565,95.176804 
	C61.318989,95.477142 61.613007,95.960159 61.919792,96.735252 
z"/>
<path fill="#EBD6A6" opacity="1.000000" stroke="none" 
	d="
M59.260937,87.818192 
	C58.762711,87.515129 58.436813,87.013603 58.103199,86.199783 
	C58.541412,86.464905 58.987339,87.042320 59.260937,87.818192 
z"/>
<path fill="#EBD6A6" opacity="1.000000" stroke="none" 
	d="
M60.896385,91.717407 
	C60.338226,91.525665 59.742325,91.024818 59.120346,90.205475 
	C59.682396,90.394081 60.270515,90.901184 60.896385,91.717407 
z"/>
<path fill="#E1CB9E" opacity="1.000000" stroke="none" 
	d="
M43.981773,86.000587 
	C43.982136,86.750465 43.982494,87.500351 43.766846,88.830353 
	C43.693291,90.273628 43.835739,91.136772 43.978180,91.999916 
	C43.974674,97.345848 43.971169,102.691788 43.598415,108.512085 
	C42.496765,108.995796 41.764359,109.005135 41.031956,109.014481 
	C41.036049,100.645645 41.040142,92.276802 41.370499,83.518280 
	C42.458431,84.085922 43.220100,85.043259 43.981773,86.000587 
z"/>
<path fill="#EBD6A6" opacity="1.000000" stroke="none" 
	d="
M41.023224,109.469734 
	C41.764359,109.005135 42.496765,108.995796 43.594711,108.977737 
	C43.972260,113.736214 44.083225,118.506432 43.938248,123.268860 
	C43.892479,124.772202 43.161652,126.254692 42.365677,127.869186 
	C41.662834,121.969429 41.338665,115.947212 41.023224,109.469734 
z"/>
<path fill="#EBD6A6" opacity="1.000000" stroke="none" 
	d="
M43.481266,48.075714 
	C43.674236,48.543900 43.471336,48.996746 43.163822,49.674301 
	C43.372864,53.665485 43.686527,57.431961 43.746788,61.483192 
	C42.995495,61.512829 42.497601,61.257713 41.946777,60.651669 
	C41.240635,58.527466 40.587418,56.754196 39.934200,54.980923 
	C39.806705,52.137733 36.422951,47.811840 43.481266,48.075714 
z"/>
<path fill="#DBC18F" opacity="1.000000" stroke="none" 
	d="
M41.037666,78.035172 
	C41.033352,73.985092 41.029041,69.935013 41.364311,65.432510 
	C42.139580,64.986519 42.575272,64.992958 43.010880,65.444427 
	C43.313839,69.922188 43.616875,73.954926 43.559124,77.988510 
	C42.478111,78.004639 41.757889,78.019905 41.037666,78.035172 
z"/>
<path fill="#DBC18F" opacity="1.000000" stroke="none" 
	d="
M38.987137,163.997360 
	C38.656704,164.782791 38.326275,165.568222 37.970898,166.686981 
	C34.137199,164.019455 36.409855,160.170914 36.976204,156.486176 
	C37.963669,156.897125 38.472153,157.448868 38.983459,158.428894 
	C38.986572,160.570557 38.986855,162.283966 38.987137,163.997360 
z"/>
<path fill="#E1CB9E" opacity="1.000000" stroke="none" 
	d="
M38.980637,158.000610 
	C38.472153,157.448868 37.963669,156.897125 37.231873,156.172104 
	C37.018044,154.296722 37.027531,152.594635 37.407242,150.454803 
	C38.510559,150.007675 39.243645,149.998260 39.976734,149.988831 
	C40.294262,152.382065 40.611794,154.775299 40.614033,157.575928 
	C39.859375,157.989090 39.420006,157.994843 38.980637,158.000610 
z"/>
<path fill="#DBC18F" opacity="1.000000" stroke="none" 
	d="
M39.633625,55.060791 
	C40.587418,56.754196 41.240635,58.527466 41.907490,60.939308 
	C41.617184,62.052681 41.313244,62.527485 41.009300,63.002289 
	C40.450550,60.381744 39.891800,57.761204 39.633625,55.060791 
z"/>
<path fill="#EBD6A6" opacity="1.000000" stroke="none" 
	d="
M44.230347,85.721718 
	C43.220100,85.043259 42.458431,84.085922 41.396156,83.048264 
	C41.095936,82.542549 41.096321,82.117172 41.490753,81.360168 
	C42.906799,81.006958 43.928799,80.985374 44.950798,80.963791 
	C44.793503,82.456810 44.636208,83.949829 44.230347,85.721718 
z"/>
<path fill="#DBC18F" opacity="1.000000" stroke="none" 
	d="
M41.917587,138.036362 
	C41.910824,138.761993 41.904060,139.487610 41.500839,140.589386 
	C40.084942,140.990448 39.065498,141.015381 38.046055,141.040298 
	C38.462200,140.083405 38.878349,139.126495 39.950439,138.090332 
	C41.043453,138.019516 41.480518,138.027939 41.917587,138.036362 
z"/>
<path fill="#E1CB9E" opacity="1.000000" stroke="none" 
	d="
M41.013374,63.327942 
	C41.313244,62.527485 41.617184,62.052681 41.960419,61.290237 
	C42.497601,61.257713 42.995495,61.512829 43.748550,61.883129 
	C44.325085,62.776352 44.646454,63.554394 44.645645,64.663956 
	C43.885963,64.996780 43.448463,64.998085 43.010960,64.999390 
	C42.575272,64.992958 42.139580,64.986519 41.378365,64.967094 
	C41.041039,64.520607 41.029243,64.087097 41.013374,63.327942 
z"/>
<path fill="#EBD6A6" opacity="1.000000" stroke="none" 
	d="
M42.160141,137.806107 
	C41.480518,138.027939 41.043453,138.019516 40.276794,138.007217 
	C39.968616,136.938217 39.990028,135.873062 40.346306,134.407120 
	C41.123890,134.003983 41.566605,134.001663 42.009319,133.999329 
	C42.140446,135.191498 42.271572,136.383682 42.160141,137.806107 
z"/>
<path fill="#E1CB9E" opacity="1.000000" stroke="none" 
	d="
M44.958897,80.597015 
	C43.928799,80.985374 42.906799,81.006958 41.504929,81.041153 
	C41.092548,80.298454 41.060036,79.543159 41.032593,78.411514 
	C41.757889,78.019905 42.478111,78.004639 43.821548,77.998512 
	C44.619091,78.013672 44.793423,78.019684 44.967758,78.025696 
	C44.967503,78.760544 44.967247,79.495399 44.958897,80.597015 
z"/>
<path fill="#EBD6A6" opacity="1.000000" stroke="none" 
	d="
M41.956051,142.966858 
	C41.549305,144.905548 41.142559,146.844238 40.364452,148.515289 
	C39.955467,147.482468 39.917847,146.717270 39.880226,145.952072 
	C39.899117,145.216248 39.918007,144.480423 40.273014,143.371292 
	C41.058102,142.987610 41.507076,142.977234 41.956051,142.966858 
z"/>
<path fill="#DBC18F" opacity="1.000000" stroke="none" 
	d="
M39.518169,145.986588 
	C39.917847,146.717270 39.955467,147.482468 40.007835,148.630188 
	C40.022579,149.012711 39.999985,149.500900 39.988358,149.744873 
	C39.243645,149.998260 38.510559,150.007675 37.411968,150.029526 
	C37.749683,148.701675 38.452896,147.361389 39.518169,145.986588 
z"/>
<path fill="#E1CB9E" opacity="1.000000" stroke="none" 
	d="
M42.007851,133.598145 
	C41.566605,134.001663 41.123890,134.003983 40.350010,134.007690 
	C40.010799,132.939804 40.002750,131.870560 40.323318,130.398773 
	C41.092117,129.992722 41.532307,129.989197 41.972496,129.985687 
	C41.983791,131.056107 41.995087,132.126541 42.007851,133.598145 
z"/>
<path fill="#E1CB9E" opacity="1.000000" stroke="none" 
	d="
M41.957878,142.628601 
	C41.507076,142.977234 41.058102,142.987610 40.270603,143.003204 
	C39.339752,142.550034 38.747421,142.091644 38.100574,141.336777 
	C39.065498,141.015381 40.084942,140.990448 41.482651,140.951843 
	C41.893845,141.388885 41.926777,141.839630 41.957878,142.628601 
z"/>
<path fill="#DBC18F" opacity="1.000000" stroke="none" 
	d="
M41.974640,129.644180 
	C41.532307,129.989197 41.092117,129.992722 40.321342,129.998352 
	C40.416992,129.327759 40.843227,128.655029 41.564388,127.961029 
	C41.898468,128.394058 41.937626,128.848373 41.974640,129.644180 
z"/>
<path fill="#F7F7F7" opacity="1.000000" stroke="none" 
	d="
M60.038300,260.121674 
	C61.196770,260.944092 62.355236,261.766510 63.816769,263.099976 
	C64.737740,264.085144 65.355644,264.559235 65.949356,265.422607 
	C64.835190,266.529480 63.733829,267.882233 62.657063,267.862976 
	C55.038692,267.726440 47.414566,267.446503 39.820473,266.852112 
	C38.465981,266.746063 37.242649,264.964386 35.958755,263.956421 
	C38.026676,262.951111 40.094601,261.945770 42.944283,260.889008 
	C47.962337,260.881439 52.199547,260.989197 56.434345,260.928558 
	C57.639267,260.911316 58.837177,260.404175 60.038300,260.121674 
z"/>
<path fill="#EDEDED" opacity="1.000000" stroke="none" 
	d="
M35.682991,264.108826 
	C37.242649,264.964386 38.465981,266.746063 39.820473,266.852112 
	C47.414566,267.446503 55.038692,267.726440 62.657063,267.862976 
	C63.733829,267.882233 64.835190,266.529480 66.211304,265.407867 
	C66.671890,264.994843 66.846344,264.985809 67.020798,264.976776 
	C67.551773,265.176971 68.082748,265.377197 68.799164,265.798401 
	C68.788017,272.147430 67.929222,272.160492 62.192757,271.096252 
	C55.523453,269.858978 48.600613,269.829193 41.777847,269.645691 
	C38.397720,269.554749 34.818069,271.205872 32.074406,267.337402 
	C33.116680,266.069702 34.261955,265.165436 35.682991,264.108826 
z"/>
<path fill="#EDEDED" opacity="1.000000" stroke="none" 
	d="
M59.641075,260.067078 
	C58.837177,260.404175 57.639267,260.911316 56.434345,260.928558 
	C52.199547,260.989197 47.962337,260.881439 43.303925,260.869934 
	C46.130806,255.977325 50.778767,258.167480 55.018993,258.615479 
	C56.460388,258.767792 57.837414,259.529327 59.641075,260.067078 
z"/>
<path fill="#E2E2E2" opacity="1.000000" stroke="none" 
	d="
M66.935669,264.650635 
	C66.846344,264.985809 66.671890,264.994843 66.235489,265.018616 
	C65.355644,264.559235 64.737740,264.085144 64.063652,263.302673 
	C64.955162,263.437714 65.902855,263.881134 66.935669,264.650635 
z"/>
<path fill="#F8F8F8" opacity="1.000000" stroke="none" 
	d="
M60.040867,166.137665 
	C61.089329,166.385178 62.137791,166.632675 63.443977,167.076141 
	C64.955063,171.416428 66.285019,175.539413 67.444870,179.709717 
	C69.479988,187.027161 71.714478,194.310455 73.258728,201.734253 
	C74.043785,205.508331 73.507729,209.557251 73.060104,213.539612 
	C71.711876,211.808029 70.971230,209.962906 70.001411,208.247330 
	C69.239227,206.899048 68.194054,205.710739 67.274590,204.451370 
	C65.997314,205.400787 64.145096,206.086014 63.562229,207.354507 
	C62.341354,210.011505 61.477997,212.927124 61.025814,215.823639 
	C60.043247,222.117645 62.781151,225.408783 69.064568,226.020828 
	C68.938347,227.143448 68.812119,228.266052 68.784195,229.663910 
	C65.388702,231.777679 61.931965,233.691925 58.387199,235.426224 
	C56.266605,236.463745 54.008205,237.219589 51.418930,238.148529 
	C41.552135,234.038467 33.726913,227.529144 27.548101,219.509796 
	C23.571323,214.348450 26.265558,207.866684 27.959824,202.271866 
	C31.348919,191.080338 35.336693,180.070114 39.119339,168.610733 
	C39.534531,168.141602 39.907658,168.046768 41.013474,167.944412 
	C47.844398,167.337143 53.942635,166.737411 60.040867,166.137665 
z"/>
<path fill="#FDFDFD" opacity="1.000000" stroke="none" 
	d="
M69.296417,225.760361 
	C62.781151,225.408783 60.043247,222.117645 61.025814,215.823639 
	C61.477997,212.927124 62.341354,210.011505 63.562229,207.354507 
	C64.145096,206.086014 65.997314,205.400787 67.274590,204.451370 
	C68.194054,205.710739 69.239227,206.899048 70.001411,208.247330 
	C70.971230,209.962906 71.711876,211.808029 72.829811,213.828674 
	C72.964722,218.201859 73.643585,222.601028 69.296417,225.760361 
z"/>
<path fill="#DFDFDF" opacity="1.000000" stroke="none" 
	d="
M78.783188,219.563339 
	C75.751694,219.890961 75.751694,219.890961 77.705788,215.227493 
	C78.293503,217.201950 78.593956,218.211365 78.783188,219.563339 
z"/>
<path fill="#DFDFDF" opacity="1.000000" stroke="none" 
	d="
M71.479286,184.043884 
	C71.162697,184.169540 70.849739,184.097885 70.536774,184.026230 
	C70.852150,183.966339 71.167534,183.906464 71.479286,184.043884 
z"/>
<path fill="#F0F0F0" opacity="1.000000" stroke="none" 
	d="
M35.198303,299.776611 
	C34.937584,300.029449 34.458984,300.031067 34.209846,299.629272 
	C32.574898,292.842468 32.541397,292.440765 39.048466,291.898102 
	C45.263481,291.379791 51.562454,291.686951 57.816456,291.885437 
	C61.554916,292.004089 65.277870,292.611359 69.007790,292.999023 
	C68.239594,295.273590 67.471390,297.548157 66.361359,299.921539 
	C66.292778,297.061584 65.003433,295.894623 61.991211,295.957092 
	C55.112171,296.099701 48.211967,295.741882 41.356209,296.166351 
	C39.328960,296.291870 37.421421,298.350861 35.198303,299.776611 
z"/>
<path fill="#F0F0F0" opacity="1.000000" stroke="none" 
	d="
M60.670113,307.067444 
	C59.872429,308.571655 58.723965,310.125397 57.282490,311.833374 
	C58.099426,310.364044 59.209377,308.740509 60.670113,307.067444 
z"/>
<path fill="#E8E8E8" opacity="1.000000" stroke="none" 
	d="
M69.234604,292.749573 
	C65.277870,292.611359 61.554916,292.004089 57.816456,291.885437 
	C51.562454,291.686951 45.263481,291.379791 39.048466,291.898102 
	C32.541397,292.440765 32.574898,292.842468 33.970604,299.623840 
	C32.331432,297.264862 30.682360,294.509491 29.021523,291.380981 
	C41.478569,286.826843 54.186531,287.382202 66.909859,289.321198 
	C67.898903,289.471893 68.617256,291.398743 69.234604,292.749573 
z"/>
<path fill="#EBD6A6" opacity="1.000000" stroke="none" 
	d="
M44.997795,77.607468 
	C44.793423,78.019684 44.619091,78.013672 44.182335,77.997650 
	C43.616875,73.954926 43.313839,69.922188 43.010880,65.444427 
	C43.448463,64.998085 43.885963,64.996780 44.651321,64.994095 
	C44.995396,69.058235 45.011620,73.123734 44.997795,77.607468 
z"/>
<path fill="#EBD6A6" opacity="1.000000" stroke="none" 
	d="
M38.983463,158.428894 
	C39.420006,157.994843 39.859375,157.989090 40.627113,157.974731 
	C41.298332,160.039993 41.641182,162.113815 42.005005,164.578247 
	C41.209515,164.732147 40.393059,164.495468 39.281868,164.128082 
	C38.986855,162.283966 38.986572,160.570557 38.983463,158.428894 
z"/>
<path fill="#EBD6A6" opacity="1.000000" stroke="none" 
	d="
M44.199677,91.797852 
	C43.835739,91.136772 43.693291,90.273628 43.764469,89.205292 
	C44.125790,89.865334 44.273479,90.730560 44.199677,91.797852 
z"/>
<path fill="#D9D8D8" opacity="1.000000" stroke="none" 
	d="
M59.731110,165.850891 
	C53.942635,166.737411 47.844398,167.337143 41.300056,167.901550 
	C43.972404,166.916595 47.037098,165.548065 50.224918,165.138916 
	C53.222824,164.754150 56.350674,165.381866 59.731110,165.850891 
z"/>
</svg>