<svg version="1.1" id="Layer_1" xmlns="http://www.w3.org/2000/svg" xmlns:xlink="http://www.w3.org/1999/xlink" x="0px" y="0px"
	 width="100%" viewBox="0 0 91 405" enable-background="new 0 0 91 405" xml:space="preserve">
<path fill="#D1D0D0" opacity="1.000000" stroke="none" 
	d="
M1.000001,209.463165 
	C1.503977,209.073120 2.409325,209.308655 2.454791,209.196274 
	C6.169852,200.014801 9.818492,190.806427 13.468593,181.598694 
	C13.590723,181.290588 13.677991,180.968674 14.259439,180.334198 
	C15.146146,180.014435 15.554921,180.013657 16.292763,180.001129 
	C17.060490,179.971436 17.499149,179.953506 17.949699,180.322739 
	C15.002600,188.922165 11.856294,197.073807 9.170204,205.374374 
	C7.975648,209.065796 6.929886,213.108002 7.175711,216.902954 
	C7.776512,226.177841 18.029308,232.782944 24.822269,228.169312 
	C28.797304,225.469559 32.610523,224.874680 37.178757,225.093384 
	C37.674374,225.417770 37.874790,225.679642 37.837692,226.309021 
	C36.061024,228.948502 34.446228,231.278320 32.831432,233.608139 
	C27.471743,233.740860 22.081644,234.260757 16.765182,233.843170 
	C14.102416,233.634033 11.104697,232.240768 9.096094,230.445770 
	C6.180679,227.840378 4.023229,224.386841 1.271258,221.647522 
	C1.000000,217.975449 1.000000,213.950912 1.000001,209.463165 
z"/>
<path fill="#ECECEC" opacity="1.000000" stroke="none" 
	d="
M1.000001,280.468628 
	C1.618660,279.938568 2.237319,279.877136 3.365204,279.394409 
	C7.777795,275.239655 12.081678,275.613129 15.357041,279.189514 
	C17.371262,281.388855 17.834761,285.008392 18.632498,287.992859 
	C17.186213,288.325775 16.101992,288.656067 14.566654,288.989288 
	C12.465529,288.995117 10.813221,289.054871 9.166012,288.988342 
	C6.254540,288.870758 4.815179,290.184784 5.016321,293.123322 
	C5.518273,300.456573 7.736300,308.531738 17.151661,310.218231 
	C17.869471,310.289062 18.435041,310.147308 19.374821,310.005249 
	C20.497452,310.005981 21.245872,310.006989 22.084478,310.373901 
	C24.530790,310.710907 26.886917,310.682068 29.243042,310.653229 
	C28.560186,308.668396 28.082628,306.577271 27.127998,304.733124 
	C26.395432,303.317963 25.061277,302.214172 23.993427,300.642822 
	C23.665354,299.554108 23.338520,298.794495 23.008995,297.597290 
	C22.996265,295.119843 22.986231,293.079956 23.232368,291.026825 
	C23.659481,291.008606 23.830421,291.003662 24.293903,291.026489 
	C25.049118,291.373749 25.511791,291.693268 25.733974,292.231262 
	C25.878872,294.038452 26.264263,295.627167 26.649654,297.215912 
	C27.097353,296.815704 27.545052,296.415466 28.237413,296.230713 
	C27.907347,297.814789 27.332617,299.183411 26.924574,300.155121 
	C30.967712,303.117950 34.983063,306.060394 38.998337,309.416260 
	C38.508625,314.132050 35.525810,315.638763 30.017204,314.889374 
	C27.398287,314.533173 24.675678,314.939270 21.625746,314.999878 
	C20.503078,314.994934 19.754711,314.990143 18.934887,314.639893 
	C14.560973,311.743805 10.274772,309.163696 5.895872,306.751892 
	C5.723098,306.656708 4.666341,308.166534 4.021472,308.928497 
	C3.205946,307.416412 2.390423,305.904358 1.287450,304.696136 
	C1.000000,296.979095 1.000000,288.958191 1.000001,280.468628 
M13.271442,282.448822 
	C12.787272,279.791443 11.243821,278.307922 8.860439,280.059631 
	C7.478396,281.075378 6.978039,283.290771 6.080900,284.966309 
	C7.693516,285.641571 9.256209,286.680237 10.929996,286.910156 
	C13.710604,287.292114 14.393564,285.646118 13.271442,282.448822 
z"/>
<path fill="#E9E9E9" opacity="1.000000" stroke="none" 
	d="
M18.994560,287.990234 
	C17.834761,285.008392 17.371262,281.388855 15.357041,279.189514 
	C12.081678,275.613129 7.777795,275.239655 3.511335,278.987915 
	C3.143821,277.109955 3.139402,275.217163 3.847199,273.087341 
	C4.762018,271.238800 4.964621,269.627258 5.167224,268.015717 
	C6.762162,261.464752 11.234371,257.737122 17.429399,255.974335 
	C28.062595,252.948685 38.608753,249.311371 49.450600,247.403503 
	C62.502193,245.106766 80.541626,248.663589 86.222008,262.801147 
	C89.015488,269.753632 87.760590,278.338654 88.288002,286.188232 
	C88.353699,287.166046 88.113724,288.164429 87.635681,289.546356 
	C86.505920,289.623657 85.755875,289.307861 84.849121,288.689850 
	C83.541405,287.464386 82.434853,286.478302 81.232368,285.627838 
	C71.247643,278.565887 58.885036,280.575439 47.885490,276.747009 
	C47.583916,276.300873 47.344090,276.118744 46.993835,275.639923 
	C43.699524,267.982117 40.465694,260.686768 37.231869,253.391403 
	C36.910091,253.480988 36.588318,253.570572 36.266544,253.660141 
	C36.178719,255.105545 36.090897,256.550934 35.625973,257.988953 
	C29.664669,255.110977 24.871008,258.399109 19.731983,259.741547 
	C15.662194,260.804688 12.398334,261.902802 13.012251,267.351807 
	C14.008878,268.810883 15.002875,269.906403 16.209900,271.117798 
	C16.688543,271.434326 16.880646,271.690186 16.999699,272.332092 
	C17.002060,273.104187 17.003960,273.545380 16.690819,274.040649 
	C15.122028,276.574921 15.306254,276.917664 19.004505,278.996216 
	C19.000656,278.999786 19.010628,278.991119 19.044411,279.343384 
	C20.387894,282.129089 21.697594,284.562531 22.762564,287.255737 
	C21.343410,287.673737 20.168987,287.831970 18.994560,287.990234 
M80.931435,261.298431 
	C78.418579,255.696487 72.526886,254.800522 67.389854,251.437958 
	C62.104355,251.294968 56.801285,250.858414 51.543171,251.173080 
	C49.776108,251.278824 47.453152,252.914658 46.545513,254.511276 
	C43.939781,259.095032 49.460236,271.060699 54.631306,272.030365 
	C62.856274,273.572784 71.448044,273.300659 79.099831,277.646637 
	C79.817513,278.054260 82.929794,276.176117 83.323929,274.873291 
	C84.689018,270.360809 84.393547,265.814850 80.931435,261.298431 
z"/>
<path fill="#D3D2D2" opacity="1.000000" stroke="none" 
	d="
M33.123989,233.783203 
	C34.446228,231.278320 36.061024,228.948502 38.093002,226.198547 
	C39.001293,225.518387 39.492397,225.258331 40.234631,225.290497 
	C44.355843,226.130051 48.220497,226.720001 52.097370,227.214050 
	C57.072670,227.848038 62.185791,229.416153 67.014595,228.804871 
	C81.318832,226.994156 86.699951,221.044861 83.013794,205.597504 
	C79.658325,195.850143 76.306580,186.503128 73.295219,177.147461 
	C74.511391,177.344711 75.387177,177.550598 76.519501,177.804688 
	C77.291145,177.969620 77.806244,178.086334 78.321342,178.203064 
	C80.655350,184.371384 82.889214,190.580002 85.350571,196.697083 
	C87.992897,203.263901 88.782799,209.913727 88.194153,217.021774 
	C87.663116,223.434219 84.408577,227.665329 79.014915,229.572861 
	C72.808846,231.767715 66.172188,232.961700 59.623936,233.907791 
	C53.794346,234.750046 47.830116,234.660416 41.414719,234.587906 
	C40.267307,233.606110 39.630493,233.018478 38.993679,232.430832 
	C38.661808,233.231476 38.329937,234.032135 37.998066,234.832779 
	C36.470890,234.541275 34.943714,234.249771 33.123989,233.783203 
z"/>
<path fill="#B8B6B2" opacity="1.000000" stroke="none" 
	d="
M84.851852,305.965729 
	C83.446083,310.118134 82.040321,314.270569 80.184570,318.736359 
	C79.500778,319.039825 79.266968,319.029877 79.021812,318.685089 
	C78.648666,317.750946 78.286873,317.151642 77.925079,316.552368 
	C76.917404,317.687286 75.909729,318.822205 74.546860,319.968445 
	C72.775711,320.948486 71.359764,321.917175 69.535019,322.914246 
	C61.546627,324.810394 54.090126,327.594391 45.711403,326.021973 
	C44.569309,326.295654 43.766960,326.590088 42.534786,326.891418 
	C36.763660,326.564209 31.422363,326.230133 25.818905,325.639404 
	C23.088375,324.878296 20.620008,324.373840 18.034397,323.544373 
	C16.671074,322.812531 15.424994,322.405701 14.178908,321.998840 
	C11.868495,319.947205 9.558086,317.895538 7.167257,315.199799 
	C7.392967,314.025360 7.699096,313.495026 8.240980,312.987457 
	C8.476735,313.010254 8.950059,313.029297 9.116416,313.338745 
	C14.342428,315.437103 19.327312,318.457184 24.476612,318.769928 
	C36.877777,319.523041 49.371517,319.376831 61.796406,318.850098 
	C67.989716,318.587494 74.176682,316.820801 78.358215,310.887207 
	C79.780663,309.185425 80.913673,307.638031 82.396828,306.072205 
	C83.448593,306.024414 84.150223,305.995087 84.851852,305.965729 
z"/>
<path fill="#E8E8E8" opacity="1.000000" stroke="none" 
	d="
M82.046677,306.090668 
	C80.913673,307.638031 79.780663,309.185425 77.973465,310.878143 
	C76.046356,311.423706 74.605896,311.553833 73.573021,312.270966 
	C69.135025,315.352448 64.285629,316.213684 58.950970,316.103149 
	C53.920322,315.998962 48.857738,317.087097 43.837845,316.896454 
	C36.545090,316.619568 29.278051,315.665344 22.000046,315.000000 
	C24.675678,314.939270 27.398287,314.533173 30.017204,314.889374 
	C35.525810,315.638763 38.508625,314.132050 39.294708,309.566101 
	C41.064297,309.534576 42.537437,309.766602 44.346859,310.181152 
	C51.287849,314.091217 63.824474,311.318573 72.075691,304.305481 
	C76.778130,300.308655 77.424561,294.200714 74.401733,285.981659 
	C77.856430,287.325226 80.924782,288.665253 84.152451,290.362213 
	C84.911667,293.160126 85.511566,295.601135 86.111465,298.042114 
	C86.111465,298.042114 85.988243,298.521179 85.538017,298.777588 
	C84.074089,301.386230 83.060387,303.738464 82.046677,306.090668 
z"/>
<path fill="#CFB282" opacity="1.000000" stroke="none" 
	d="
M69.943817,322.885864 
	C71.359764,321.917175 72.775711,320.948486 74.955269,319.983246 
	C76.798492,319.976746 77.878113,319.966797 79.029678,320.029785 
	C79.101631,320.102753 79.244614,320.249573 79.244614,320.249573 
	C79.364822,326.461975 77.157967,331.910797 73.422043,336.724335 
	C73.187683,335.494049 73.290016,334.507782 73.436028,333.100616 
	C70.898132,334.880188 68.904869,336.281708 66.907410,337.677246 
	C65.262672,338.826385 63.612999,339.968475 61.965511,341.113708 
	C58.206619,339.371429 54.447723,337.629150 50.365707,335.737091 
	C47.201111,341.153778 50.281231,349.744019 41.053001,352.009705 
	C38.809628,352.192841 37.356400,352.345642 35.908234,352.536835 
	C31.120419,353.168945 26.774595,352.657532 24.376125,348.002747 
	C25.500921,348.000824 26.250814,348.001007 27.167164,348.304016 
	C33.009804,352.551697 38.186226,350.516052 39.373199,343.960571 
	C40.834595,341.845245 41.650982,339.551086 43.106613,337.783264 
	C44.824078,335.697449 46.846081,333.072174 49.187263,332.487488 
	C52.205067,331.733795 55.677876,332.702026 58.941563,333.051575 
	C68.699669,334.096497 70.121796,332.805145 69.943817,322.885864 
M76.202385,323.072052 
	C76.345497,323.401428 76.488617,323.730804 76.631729,324.060181 
	C76.601868,323.653046 76.571999,323.245880 76.202385,323.072052 
z"/>
<path fill="#D4B989" opacity="1.000000" stroke="none" 
	d="
M69.207626,74.956917 
	C69.207626,74.956917 69.594467,74.960594 69.927002,75.245392 
	C70.580513,75.672142 70.901497,75.814095 71.222473,75.956047 
	C71.542122,75.955421 71.783852,76.092361 72.105820,76.837494 
	C72.562988,77.525406 72.862007,77.742683 73.161026,77.959953 
	C73.161026,77.959953 73.043938,77.961395 73.067352,78.261658 
	C75.114212,80.345802 77.137642,82.129677 79.161079,83.913551 
	C79.161079,83.913551 79.064438,83.943069 79.046982,84.279022 
	C80.655128,87.425911 82.280739,90.236847 83.906342,93.047783 
	C84.282890,93.794579 84.659439,94.541374 84.920944,95.736008 
	C85.150688,96.448608 85.495476,96.713379 85.840256,96.978157 
	C85.881851,97.151558 85.923447,97.324966 85.689209,97.990852 
	C85.990822,99.287125 86.568283,100.090935 87.145744,100.894737 
	C87.145744,100.894737 87.020470,100.952988 87.017197,101.279808 
	C86.947655,102.112259 86.881386,102.617897 86.443893,103.205994 
	C85.714783,104.796570 85.084564,106.298019 85.047462,107.813988 
	C84.906845,113.559647 84.958344,119.309998 84.554428,124.936493 
	C83.783447,122.960365 83.005936,121.092064 83.073204,119.254684 
	C83.453209,108.874901 83.378258,98.680923 77.072227,89.618279 
	C73.342827,84.258614 70.654732,77.881073 62.564377,77.059113 
	C60.984932,78.740196 59.789577,80.415016 58.278805,82.067215 
	C57.310478,82.024330 56.657578,82.004066 56.002628,81.570282 
	C56.002533,79.778587 56.004482,78.400421 56.239002,76.841187 
	C56.667858,76.115089 56.864140,75.570061 57.289467,75.020096 
	C57.518505,75.015160 57.976509,75.002136 58.369473,75.001953 
	C60.505020,74.666382 62.247604,74.330994 64.394371,74.001068 
	C65.876015,74.001228 66.953468,73.995926 68.030930,73.990623 
	C68.030930,73.990623 68.004349,74.006546 68.135529,74.226318 
	C68.580353,74.616364 68.893990,74.786644 69.207626,74.956917 
z"/>
<path fill="#D2B786" opacity="1.000000" stroke="none" 
	d="
M76.262955,177.756485 
	C75.387177,177.550598 74.511391,177.344711 73.061569,177.095520 
	C72.487534,177.052246 72.012642,176.992706 71.885979,176.731018 
	C71.172974,175.980499 70.586632,175.491653 70.080673,174.644516 
	C71.755699,172.885239 74.355850,171.737305 74.782455,170.042328 
	C77.634033,158.712189 79.973701,147.254135 82.623100,135.871017 
	C82.948982,134.470840 84.125854,133.268707 85.180527,131.983398 
	C85.634193,131.993744 85.815712,131.995514 86.032127,132.305573 
	C86.416946,133.093994 86.766861,133.574142 87.116776,134.054291 
	C85.413452,141.768341 83.710121,149.482376 81.690933,157.830688 
	C77.394707,164.292252 77.293282,171.147446 76.262955,177.756485 
z"/>
<path fill="#D4BA8A" opacity="1.000000" stroke="none" 
	d="
M13.999549,97.002190 
	C15.004615,93.252815 16.009680,89.503448 17.269600,85.224594 
	C17.762081,84.462761 17.901407,84.181671 17.942432,83.851852 
	C18.276440,83.411629 18.610445,82.971405 19.222479,82.116486 
	C19.736559,81.469810 19.872648,81.189323 19.908779,80.860321 
	C19.908779,80.860321 19.930618,80.942757 20.140192,80.804321 
	C20.525024,80.341820 20.700283,80.017746 20.875542,79.693672 
	C21.180031,79.281296 21.484516,78.868912 22.343727,78.219650 
	C26.255594,77.656738 29.612736,77.330727 33.019035,77.390785 
	C34.719585,79.681931 32.404030,84.090279 37.065277,84.390961 
	C37.073502,85.069244 37.074947,85.456871 36.688278,85.978287 
	C35.888943,89.398399 35.477718,92.684715 35.049377,96.389618 
	C35.020020,98.204140 35.007774,99.600082 34.750942,100.998413 
	C34.506351,101.000793 34.017197,101.007484 33.733238,100.706573 
	C33.299175,97.694771 33.338970,94.954422 32.924706,92.284523 
	C32.692051,90.785095 31.708853,89.402122 31.039633,87.578766 
	C30.484524,84.343872 30.053564,81.401947 25.776167,81.688141 
	C24.376932,82.984436 23.196856,84.497505 21.999264,86.331421 
	C21.959349,87.080109 21.936951,87.507950 21.575977,88.024750 
	C19.804592,92.081726 18.371784,96.049736 16.614277,100.011909 
	C15.526237,99.004776 14.762893,98.003487 13.999549,97.002190 
z"/>
<path fill="#C9B28C" opacity="1.000000" stroke="none" 
	d="
M57.976509,75.002136 
	C57.976509,75.002136 57.518505,75.015160 56.945374,75.008072 
	C55.914776,75.000664 55.457310,75.000336 54.929783,74.936646 
	C54.859718,74.873291 54.719479,74.746712 54.789513,74.374084 
	C55.513134,70.467590 53.758846,68.376350 50.733864,66.975777 
	C47.573631,65.512581 44.835117,66.219421 42.709068,68.768875 
	C40.440758,71.488914 38.442116,74.433838 36.244316,77.004524 
	C35.442245,76.482567 34.721600,76.236679 34.005951,75.680756 
	C34.018223,74.957443 34.025501,74.544182 34.032776,74.130913 
	C35.393764,72.121498 36.698982,70.071434 38.127644,68.111343 
	C40.885933,64.327026 49.151215,62.026310 53.147438,64.169037 
	C54.431900,64.857750 55.270187,66.488388 56.142403,67.801178 
	C56.832417,68.839729 57.262100,70.051239 57.911667,71.925110 
	C58.002808,73.443565 57.989658,74.222855 57.976509,75.002136 
z"/>
<path fill="#CCB589" opacity="1.000000" stroke="none" 
	d="
M17.937811,179.935562 
	C17.499149,179.953506 17.060490,179.971436 16.179230,179.661255 
	C15.835146,177.410843 16.207371,175.454117 15.971073,173.573868 
	C15.568845,170.373352 14.783917,167.220917 14.159788,164.048279 
	C14.109401,163.856522 14.059014,163.664749 14.042661,162.887634 
	C13.909053,161.562653 13.741412,160.823044 13.573772,160.083435 
	C13.395588,159.640411 13.217402,159.197388 13.248793,158.146973 
	C13.962905,155.047134 14.467443,152.554672 15.357748,150.139435 
	C16.155830,151.717422 16.678961,153.197601 16.961672,154.722382 
	C18.336161,162.135513 19.646278,169.560593 20.705994,177.121826 
	C19.606476,178.156479 18.780151,179.050735 17.955219,179.953522 
	C17.956610,179.962051 17.937811,179.935562 17.937811,179.935562 
z"/>
<path fill="#CCB285" opacity="1.000000" stroke="none" 
	d="
M24.001217,348.004883 
	C26.774595,352.657532 31.120419,353.168945 35.908234,352.536835 
	C37.356400,352.345642 38.809628,352.192841 40.692612,352.035034 
	C39.980957,352.701843 38.837227,353.356079 37.196487,354.032043 
	C36.519299,354.103333 36.352676,354.181763 36.199612,354.289001 
	C35.321953,354.366577 34.444290,354.444153 32.881485,354.307373 
	C31.465960,354.062897 30.735580,354.032776 30.005201,354.002686 
	C24.520683,353.267670 19.841043,348.195953 18.898064,342.171906 
	C18.406061,339.028870 17.656370,335.926208 17.443161,332.490173 
	C18.577816,333.861145 19.323460,335.534821 19.999695,337.236115 
	C21.024687,339.814819 22.001410,342.412720 23.002596,345.338135 
	C23.338104,346.450836 23.669661,347.227844 24.001217,348.004883 
z"/>
<path fill="#CFB282" opacity="1.000000" stroke="none" 
	d="
M22.998642,345.002441 
	C22.001410,342.412720 21.024687,339.814819 19.999695,337.236115 
	C19.323460,335.534821 18.577816,333.861145 17.511898,332.088013 
	C17.114906,331.243561 17.069273,330.486237 17.302441,329.123474 
	C17.771372,326.968506 17.961504,325.418976 18.151640,323.869385 
	C20.620008,324.373840 23.088375,324.878296 25.570549,325.917236 
	C22.513941,327.041595 20.868948,328.074249 21.805414,331.959686 
	C22.817574,336.159210 22.651049,340.642761 22.998642,345.002441 
z"/>
<path fill="#ACA193" opacity="1.000000" stroke="none" 
	d="
M11.293555,134.927063 
	C10.928020,133.238480 10.220585,131.542648 10.256103,129.862549 
	C10.410262,122.570358 10.781122,115.282753 11.510128,108.202271 
	C11.981291,108.615524 12.015536,108.819984 12.008877,109.488770 
	C11.956908,114.876167 11.792694,119.806549 12.027410,124.717880 
	C12.098511,126.205666 13.273355,127.640701 13.943359,129.455292 
	C13.921663,130.518616 13.899252,131.226517 13.570261,131.983978 
	C12.606973,132.998047 11.950263,133.962555 11.293555,134.927063 
z"/>
<path fill="#C0AC8B" opacity="1.000000" stroke="none" 
	d="
M14.971979,150.062210 
	C14.467443,152.554672 13.962905,155.047134 13.187265,157.794235 
	C12.720821,154.984207 12.525478,151.919540 12.414211,148.270264 
	C12.278710,147.487656 12.059134,147.289642 11.839558,147.091644 
	C11.839558,147.091644 11.935761,147.039078 11.952488,146.646469 
	C12.027658,144.486023 12.086103,142.718185 12.463792,141.010498 
	C13.809552,141.394836 14.836069,141.719009 15.839891,142.434921 
	C15.535458,145.238510 15.253718,147.650360 14.971979,150.062210 
z"/>
<path fill="#C2B6A3" opacity="1.000000" stroke="none" 
	d="
M86.815125,103.123528 
	C86.881386,102.617897 86.947655,102.112259 87.061562,101.226868 
	C87.627808,107.973602 88.249405,115.094887 88.611053,122.229347 
	C88.743736,124.846756 88.260963,127.495354 87.735252,130.548981 
	C87.411568,130.968246 86.933571,130.937546 86.939270,130.475616 
	C86.901680,121.050301 86.858406,112.086914 86.815125,103.123528 
z"/>
<path fill="#CCB589" opacity="1.000000" stroke="none" 
	d="
M12.049781,109.024437 
	C12.015536,108.819984 11.981291,108.615524 11.920719,108.101196 
	C12.367440,104.284752 12.840486,100.778160 13.656540,97.136887 
	C14.762893,98.003487 15.526237,99.004776 16.574528,100.403259 
	C16.223707,103.529877 15.587937,106.259308 14.589581,108.992599 
	C13.501257,109.005791 12.775518,109.015114 12.049781,109.024437 
z"/>
<path fill="#E8E8E8" opacity="1.000000" stroke="none" 
	d="
M8.950059,313.029297 
	C8.950059,313.029297 8.476735,313.010254 8.208552,312.677002 
	C6.733665,311.878357 5.526959,311.412964 4.320253,310.947571 
	C4.214010,310.506439 4.107768,310.065308 4.011500,309.276337 
	C4.666341,308.166534 5.723098,306.656708 5.895872,306.751892 
	C10.274772,309.163696 14.560973,311.743805 18.538982,314.634552 
	C15.126376,314.326202 12.038218,313.677765 8.950059,313.029297 
z"/>
<path fill="#CCB081" opacity="1.000000" stroke="none" 
	d="
M62.151382,341.442749 
	C63.612999,339.968475 65.262672,338.826385 66.907410,337.677246 
	C68.904869,336.281708 70.898132,334.880188 73.436028,333.100616 
	C73.290016,334.507782 73.187683,335.494049 73.073013,336.820068 
	C73.029594,337.493103 72.872154,337.748444 72.141533,338.061646 
	C71.402832,338.340210 71.177933,338.553619 71.020012,338.837646 
	C68.125763,339.815704 65.231514,340.793732 62.151382,341.442749 
z"/>
<path fill="#A6987E" opacity="1.000000" stroke="none" 
	d="
M76.519501,177.804688 
	C77.293282,171.147446 77.394707,164.292252 81.617363,158.223343 
	C81.754059,159.269547 82.098969,160.863098 81.467285,161.793884 
	C78.202957,166.603973 78.867378,172.018600 78.498810,177.760406 
	C77.806244,178.086334 77.291145,177.969620 76.519501,177.804688 
z"/>
<path fill="#CCB589" opacity="1.000000" stroke="none" 
	d="
M15.862587,142.043182 
	C14.836069,141.719009 13.809552,141.394836 12.431165,140.772430 
	C11.935086,140.022919 11.790878,139.571640 11.646669,139.120346 
	C11.557595,138.002548 11.468521,136.884766 11.336500,135.347015 
	C11.950263,133.962555 12.606973,132.998047 13.882138,132.222763 
	C14.954592,135.622391 15.408590,138.832779 15.862587,142.043182 
z"/>
<path fill="#E0D2B9" opacity="1.000000" stroke="none" 
	d="
M14.086261,164.454681 
	C14.783917,167.220917 15.568845,170.373352 15.971073,173.573868 
	C16.207371,175.454117 15.835146,177.410843 15.850164,179.673019 
	C15.554921,180.013657 15.146146,180.014435 14.430390,180.015442 
	C14.086518,174.964157 14.049625,169.912628 14.086261,164.454681 
z"/>
<path fill="#C1AC88" opacity="1.000000" stroke="none" 
	d="
M33.723038,74.282120 
	C34.025501,74.544182 34.018223,74.957443 33.886551,75.898033 
	C33.554256,76.695320 33.290165,76.888435 32.969875,77.004715 
	C29.612736,77.330727 26.255594,77.656738 22.490021,78.000671 
	C24.393221,76.992867 26.655352,75.824951 29.035625,74.996460 
	C30.395445,74.523148 31.947693,74.602692 33.723038,74.282120 
z"/>
<path fill="#DFDFDF" opacity="1.000000" stroke="none" 
	d="
M86.404739,297.987915 
	C85.511566,295.601135 84.911667,293.160126 84.367371,290.243896 
	C84.690765,289.564941 84.885048,289.306091 85.005836,288.992065 
	C85.755875,289.307861 86.505920,289.623657 87.561218,289.965881 
	C87.914879,291.393311 87.963272,292.794250 87.798256,294.682739 
	C87.359604,295.433868 87.385750,295.693909 87.663292,295.950378 
	C87.341537,296.611481 87.019775,297.272583 86.404739,297.987915 
z"/>
<path fill="#DFDFDF" opacity="1.000000" stroke="none" 
	d="
M82.396820,306.072205 
	C83.060387,303.738464 84.074089,301.386230 85.461250,299.012695 
	C85.605804,301.097900 85.376892,303.204376 84.999916,305.638306 
	C84.150223,305.995087 83.448593,306.024414 82.396820,306.072205 
z"/>
<path fill="#D3C4AA" opacity="1.000000" stroke="none" 
	d="
M83.939926,92.676559 
	C82.280739,90.236847 80.655128,87.425911 79.059326,84.230026 
	C80.717262,86.665169 82.345390,89.485260 83.939926,92.676559 
z"/>
<path fill="#D3C4AA" opacity="1.000000" stroke="none" 
	d="
M79.111343,83.554871 
	C77.137642,82.129677 75.114212,80.345802 73.084328,78.205627 
	C75.072456,79.631615 77.067024,81.413902 79.111343,83.554871 
z"/>
<path fill="#C8AD80" opacity="1.000000" stroke="none" 
	d="
M58.369473,75.001953 
	C57.989658,74.222855 58.002808,73.443565 58.031334,72.274986 
	C59.757999,71.922829 61.469288,71.959961 63.588364,72.378426 
	C63.994164,73.171707 63.992176,73.583664 63.990189,73.995613 
	C62.247604,74.330994 60.505020,74.666382 58.369473,75.001953 
z"/>
<path fill="#CCB285" opacity="1.000000" stroke="none" 
	d="
M18.034397,323.544403 
	C17.961504,325.418976 17.771372,326.968506 17.360443,328.747192 
	C16.258728,326.855438 15.377810,324.734558 14.337902,322.306274 
	C15.424994,322.405701 16.671074,322.812531 18.034397,323.544403 
z"/>
<path fill="#DFDFDF" opacity="1.000000" stroke="none" 
	d="
M4.417650,311.252136 
	C5.526959,311.412964 6.733665,311.878357 7.972798,312.654236 
	C7.699096,313.495026 7.392967,314.025360 7.022068,314.864258 
	C6.143214,313.967438 5.329130,312.762054 4.417650,311.252136 
z"/>
<path fill="#ECECEC" opacity="1.000000" stroke="none" 
	d="
M4.997025,268.356323 
	C4.964621,269.627258 4.762018,271.238800 4.205010,272.898071 
	C4.176013,271.529510 4.501419,270.113220 4.997025,268.356323 
z"/>
<path fill="#ACA193" opacity="1.000000" stroke="none" 
	d="
M11.501528,139.516327 
	C11.790878,139.571640 11.935086,140.022919 12.111921,140.712280 
	C12.086103,142.718185 12.027658,144.486023 11.928015,146.695526 
	C11.710007,144.728882 11.533196,142.320602 11.501528,139.516327 
z"/>
<path fill="#D1D1D1" opacity="1.000000" stroke="none" 
	d="
M38.369751,234.908249 
	C38.329937,234.032135 38.661808,233.231476 38.993679,232.430832 
	C39.630493,233.018478 40.267307,233.606110 40.952904,234.513458 
	C40.248272,234.883362 39.494854,234.933533 38.369751,234.908249 
z"/>
<path fill="#D3C4AA" opacity="1.000000" stroke="none" 
	d="
M64.394371,74.001068 
	C63.992176,73.583664 63.994164,73.171707 64.010628,72.451035 
	C65.220795,72.592010 66.416481,73.041702 67.821548,73.741013 
	C66.953468,73.995926 65.876015,74.001228 64.394371,74.001068 
z"/>
<path fill="#D4BE93" opacity="1.000000" stroke="none" 
	d="
M86.933571,130.937546 
	C86.933571,130.937546 87.411568,130.968246 87.650345,130.986740 
	C87.839333,131.917847 87.789551,132.830475 87.428276,133.898682 
	C86.766861,133.574142 86.416946,133.093994 86.142532,132.091888 
	C86.407417,131.303528 86.645927,131.092743 86.933571,130.937546 
z"/>
<path fill="#D4BE93" opacity="1.000000" stroke="none" 
	d="
M87.090973,100.572922 
	C86.568283,100.090935 85.990822,99.287125 85.634827,98.252762 
	C86.249588,98.765160 86.642891,99.508133 87.090973,100.572922 
z"/>
<path fill="#CFB282" opacity="1.000000" stroke="none" 
	d="
M30.198578,354.235229 
	C30.735580,354.032776 31.465960,354.062897 32.457241,354.173523 
	C31.942747,354.325317 31.167351,354.396545 30.198578,354.235229 
z"/>
<path fill="#ACA193" opacity="1.000000" stroke="none" 
	d="
M13.435995,160.358643 
	C13.741412,160.823044 13.909053,161.562653 14.051396,162.590363 
	C13.783472,162.130249 13.540845,161.382034 13.435995,160.358643 
z"/>
<path fill="#D3C4AA" opacity="1.000000" stroke="none" 
	d="
M85.886375,96.730537 
	C85.495476,96.713379 85.150688,96.448608 84.968994,96.056534 
	C85.398888,96.113792 85.665695,96.298355 85.886375,96.730537 
z"/>
<path fill="#CFB282" opacity="1.000000" stroke="none" 
	d="
M79.033157,319.019958 
	C79.266968,319.029877 79.500778,319.039825 80.084900,319.080383 
	C80.251694,319.456451 80.068176,319.801819 79.564636,320.198395 
	C79.244614,320.249573 79.101631,320.102753 79.047157,319.795593 
	C78.992683,319.488403 79.033157,319.019958 79.033157,319.019958 
z"/>
<path fill="#D3C4AA" opacity="1.000000" stroke="none" 
	d="
M71.103836,75.686676 
	C70.901497,75.814095 70.580513,75.672142 70.109154,75.310471 
	C70.300911,75.199608 70.643059,75.308456 71.103836,75.686676 
z"/>
<path fill="#CFB282" opacity="1.000000" stroke="none" 
	d="
M71.284714,338.870667 
	C71.177933,338.553619 71.402832,338.340210 71.918221,338.123413 
	C71.944283,338.334229 71.746849,338.618958 71.284714,338.870667 
z"/>
<path fill="#D3C4AA" opacity="1.000000" stroke="none" 
	d="
M69.091385,74.696716 
	C68.893990,74.786644 68.580353,74.616364 68.131508,74.211479 
	C68.322586,74.130081 68.648865,74.283302 69.091385,74.696716 
z"/>
<path fill="#CFB282" opacity="1.000000" stroke="none" 
	d="
M36.341949,354.400696 
	C36.352676,354.181763 36.519299,354.103333 36.835403,354.025574 
	C36.885784,354.241730 36.723434,354.413391 36.341949,354.400696 
z"/>
<path fill="#D3C4AA" opacity="1.000000" stroke="none" 
	d="
M73.059631,77.694214 
	C72.862007,77.742683 72.562988,77.525406 72.151627,77.049225 
	C72.345589,77.003044 72.651909,77.215752 73.059631,77.694214 
z"/>
<path fill="#C1AC88" opacity="1.000000" stroke="none" 
	d="
M20.608547,79.799561 
	C20.700283,80.017746 20.525024,80.341820 20.098396,80.795883 
	C20.011868,80.585732 20.176710,80.245590 20.608547,79.799561 
z"/>
<path fill="#C1AC88" opacity="1.000000" stroke="none" 
	d="
M19.654140,80.955017 
	C19.872648,81.189323 19.736559,81.469810 19.315140,81.850479 
	C19.219683,81.682686 19.309591,81.366196 19.654140,80.955017 
z"/>
<path fill="#C1AC88" opacity="1.000000" stroke="none" 
	d="
M17.687496,83.948227 
	C17.901407,84.181671 17.762081,84.462761 17.336842,84.843094 
	C17.243671,84.675583 17.338116,84.360085 17.687496,83.948227 
z"/>
<path fill="#ACA193" opacity="1.000000" stroke="none" 
	d="
M11.877436,147.350006 
	C12.059134,147.289642 12.278710,147.487656 12.397701,147.825195 
	C12.169848,147.845978 12.042582,147.727188 11.877436,147.350006 
z"/>
<path fill="#E9E9E9" opacity="1.000000" stroke="none" 
	d="
M87.810822,295.739471 
	C87.385750,295.693909 87.359604,295.433868 87.720627,295.097107 
	C87.890381,295.192169 87.924362,295.360382 87.810822,295.739471 
z"/>
<path fill="#E3E3E3" opacity="1.000000" stroke="none" 
	d="
M36.959190,224.973007 
	C32.610523,224.874680 28.797304,225.469559 24.822269,228.169312 
	C18.029308,232.782944 7.776512,226.177841 7.175711,216.902954 
	C6.929886,213.108002 7.975648,209.065796 9.170204,205.374374 
	C11.856294,197.073807 15.002600,188.922165 17.949699,180.322739 
	C17.937811,179.935562 17.956610,179.962051 18.336735,179.975281 
	C19.479353,179.994629 20.241844,180.000717 20.997057,180.382996 
	C17.889109,188.730560 14.192373,196.535934 11.909015,204.734940 
	C10.516272,209.735931 10.533093,215.477905 11.439445,220.618622 
	C11.870129,223.061401 15.614571,226.044357 18.314024,226.611588 
	C20.525873,227.076324 23.413237,224.326218 26.000572,223.000610 
	C26.000000,223.000000 25.998240,222.997894 26.318060,222.969086 
	C27.426342,222.294769 28.214804,221.649246 29.284836,220.863525 
	C30.712210,219.817657 31.858009,218.912033 33.448944,218.005310 
	C36.280739,218.021027 38.667397,218.037842 41.002731,218.394775 
	C39.620674,220.814270 38.289932,222.893631 36.959190,224.973007 
z"/>
<path fill="#D1D1D1" opacity="1.000000" stroke="none" 
	d="
M37.178757,225.093384 
	C38.289932,222.893631 39.620674,220.814270 41.312401,218.413254 
	C42.441898,218.399002 43.210403,218.706390 43.975517,219.341324 
	C43.968929,220.105606 43.965740,220.542358 43.683327,221.128387 
	C42.263901,222.517899 41.123707,223.758102 39.983505,224.998291 
	C39.492397,225.258331 39.001293,225.518387 38.254879,225.888916 
	C37.874790,225.679642 37.674374,225.417770 37.178757,225.093384 
z"/>
<path fill="#F8F8F8" opacity="1.000000" stroke="none" 
	d="
M21.994293,310.008026 
	C21.245872,310.006989 20.497452,310.005981 19.222897,309.791138 
	C18.130981,309.720093 17.565201,309.862885 16.999420,310.005646 
	C7.736300,308.531738 5.518273,300.456573 5.016321,293.123322 
	C4.815179,290.184784 6.254540,288.870758 9.166012,288.988342 
	C10.813221,289.054871 12.465529,288.995117 14.854666,289.124512 
	C16.731462,289.832581 17.869137,290.408417 19.005074,291.376282 
	C18.668863,293.512177 18.334389,295.256042 17.668129,297.060791 
	C14.970900,300.730408 18.175823,300.363770 20.384590,300.945557 
	C21.140272,300.963440 21.572079,300.974976 22.010281,301.363953 
	C21.470091,304.495453 26.469513,307.264557 21.994293,310.008026 
z"/>
<path fill="#DFDFDF" opacity="1.000000" stroke="none" 
	d="
M9.116416,313.338745 
	C12.038218,313.677765 15.126376,314.326202 18.610439,314.980011 
	C19.754711,314.990143 20.503078,314.994934 21.625748,314.999878 
	C29.278051,315.665344 36.545090,316.619568 43.837845,316.896454 
	C48.857738,317.087097 53.920322,315.998962 58.950970,316.103149 
	C64.285629,316.213684 69.135025,315.352448 73.573021,312.270966 
	C74.605896,311.553833 76.046356,311.423706 77.684036,311.032532 
	C74.176682,316.820801 67.989716,318.587494 61.796406,318.850098 
	C49.371517,319.376831 36.877777,319.523041 24.476612,318.769928 
	C19.327312,318.457184 14.342428,315.437103 9.116416,313.338745 
z"/>
<path fill="#DCDCDC" opacity="1.000000" stroke="none" 
	d="
M44.010574,309.998596 
	C42.537437,309.766602 41.064297,309.534576 39.294785,309.152710 
	C34.983063,306.060394 30.967712,303.117950 26.924574,300.155121 
	C27.332617,299.183411 27.907347,297.814789 28.233393,295.881317 
	C27.314627,294.215240 26.644543,293.114014 25.974463,292.012787 
	C25.511791,291.693268 25.049118,291.373749 24.192463,290.764343 
	C23.534752,289.314972 23.271021,288.155487 23.007290,286.995972 
	C21.697594,284.562531 20.387894,282.129089 19.406773,279.345581 
	C20.942904,279.983093 22.422983,280.771790 23.312849,281.991241 
	C28.300423,288.826050 29.268358,289.075287 36.555424,284.668121 
	C37.397392,284.158875 38.180508,283.552338 39.338131,282.993896 
	C40.148045,283.003326 40.610737,283.009766 40.928829,283.302460 
	C40.516590,284.387817 40.248947,285.186920 39.686646,286.017029 
	C38.926464,286.375244 38.460941,286.702393 37.672554,287.084076 
	C36.237030,287.767242 35.124367,288.395905 33.675884,289.160706 
	C31.331829,290.088776 28.724609,290.877289 30.549997,293.672943 
	C33.115391,297.601990 36.172348,301.210083 39.302311,305.110596 
	C41.058014,306.510071 42.530468,307.754425 44.003269,309.248749 
	C44.003613,309.498718 44.010574,309.998596 44.010574,309.998596 
z"/>
<path fill="#F3F3F3" opacity="1.000000" stroke="none" 
	d="
M22.084478,310.373901 
	C26.469513,307.264557 21.470091,304.495453 22.342041,301.359619 
	C23.109829,300.975861 23.552248,300.973907 23.994667,300.971924 
	C25.061277,302.214172 26.395432,303.317963 27.127998,304.733124 
	C28.082628,306.577271 28.560186,308.668396 29.243042,310.653229 
	C26.886917,310.682068 24.530790,310.710907 22.084478,310.373901 
z"/>
<path fill="#F5F5F5" opacity="1.000000" stroke="none" 
	d="
M13.417898,282.818481 
	C14.393564,285.646118 13.710604,287.292114 10.929996,286.910156 
	C9.256209,286.680237 7.693516,285.641571 6.080905,284.966309 
	C6.978039,283.290771 7.478396,281.075378 8.860439,280.059631 
	C11.243821,278.307922 12.787272,279.791443 13.417898,282.818481 
z"/>
<path fill="#F3F3F3" opacity="1.000000" stroke="none" 
	d="
M17.999916,296.999908 
	C18.334389,295.256042 18.668863,293.512177 19.402225,291.379028 
	C20.859474,291.006500 21.917835,291.023285 22.976194,291.040070 
	C22.986231,293.079956 22.996265,295.119843 22.637218,297.593933 
	C21.525082,298.028900 20.782026,298.029724 19.739830,297.994141 
	C18.960434,297.638489 18.480175,297.319214 17.999916,296.999908 
z"/>
<path fill="#E4E4E4" opacity="1.000000" stroke="none" 
	d="
M23.232368,291.026825 
	C21.917835,291.023285 20.859474,291.006500 19.403961,290.987000 
	C17.869137,290.408417 16.731462,289.832581 15.305779,289.121521 
	C16.101992,288.656067 17.186213,288.325775 18.632500,287.992859 
	C20.168987,287.831970 21.343410,287.673737 22.762562,287.255737 
	C23.271021,288.155487 23.534752,289.314972 23.899921,290.736603 
	C23.830421,291.003662 23.659481,291.008606 23.232368,291.026825 
z"/>
<path fill="#EBEBEB" opacity="1.000000" stroke="none" 
	d="
M25.733971,292.231262 
	C26.644543,293.114014 27.314627,294.215240 27.988729,295.665863 
	C27.545052,296.415466 27.097353,296.815704 26.649654,297.215912 
	C26.264263,295.627167 25.878872,294.038452 25.733971,292.231262 
z"/>
<path fill="#DCDCDC" opacity="1.000000" stroke="none" 
	d="
M20.038971,298.030518 
	C20.782026,298.029724 21.525082,298.028900 22.639912,298.031494 
	C23.338520,298.794495 23.665354,299.554108 23.993427,300.642822 
	C23.552248,300.973907 23.109829,300.975861 22.335648,300.982178 
	C21.572079,300.974976 21.140272,300.963440 20.368454,300.582977 
	C20.031952,299.486206 20.035461,298.758362 20.038971,298.030518 
z"/>
<path fill="#F3F3F3" opacity="1.000000" stroke="none" 
	d="
M17.151661,310.218231 
	C17.565201,309.862885 18.130981,309.720093 18.848686,309.791443 
	C18.435041,310.147308 17.869471,310.289062 17.151661,310.218231 
z"/>
<path fill="#F8F8F8" opacity="1.000000" stroke="none" 
	d="
M81.026588,261.987854 
	C84.393547,265.814850 84.689018,270.360809 83.323929,274.873291 
	C82.929794,276.176117 79.817513,278.054260 79.099831,277.646637 
	C71.448044,273.300659 62.856274,273.572784 54.631306,272.030365 
	C49.460236,271.060699 43.939781,259.095032 46.545513,254.511276 
	C47.453152,252.914658 49.776108,251.278824 51.543171,251.173080 
	C56.801285,250.858414 62.104355,251.294968 67.448715,251.982208 
	C64.491646,253.746277 60.030556,253.449402 60.340233,258.420013 
	C60.675587,263.802765 63.153076,265.692291 69.322472,266.019836 
	C70.626480,266.089111 71.952843,266.272186 73.208939,266.619629 
	C79.800285,268.442657 79.919235,268.392700 81.026588,261.987854 
z"/>
<path fill="#F8F8F8" opacity="1.000000" stroke="none" 
	d="
M16.999237,272.001221 
	C16.880646,271.690186 16.688543,271.434326 16.205040,270.755493 
	C14.994643,269.181000 14.002132,268.084625 13.009621,266.988281 
	C12.398334,261.902802 15.662194,260.804688 19.731983,259.741547 
	C24.871008,258.399109 29.664669,255.110977 35.754940,258.282318 
	C36.521000,259.387878 36.780991,260.192688 36.775654,261.233459 
	C36.743507,263.052185 36.931103,264.643280 37.218304,266.216156 
	C38.118214,271.144623 39.055676,276.066193 39.765564,281.103882 
	C39.289547,281.417297 39.095692,281.670288 38.557312,281.982300 
	C33.220367,283.188690 29.251040,282.878326 25.923027,277.896576 
	C24.097443,275.163849 20.046663,273.917694 16.999237,272.001221 
z"/>
<path fill="#FEFEFE" opacity="1.000000" stroke="none" 
	d="
M80.979012,261.643127 
	C79.919235,268.392700 79.800285,268.442657 73.208939,266.619629 
	C71.952843,266.272186 70.626480,266.089111 69.322472,266.019836 
	C63.153076,265.692291 60.675587,263.802765 60.340233,258.420013 
	C60.030556,253.449402 64.491646,253.746277 67.751373,252.268433 
	C72.526886,254.800522 78.418579,255.696487 80.979012,261.643127 
z"/>
<path fill="#EEEEEE" opacity="1.000000" stroke="none" 
	d="
M16.999699,272.332092 
	C20.046663,273.917694 24.097443,275.163849 25.923027,277.896576 
	C29.251040,282.878326 33.220367,283.188690 38.565643,282.236053 
	C38.988720,282.652771 38.989811,282.821838 38.990906,282.990906 
	C38.180508,283.552338 37.397392,284.158875 36.555424,284.668121 
	C29.268358,289.075287 28.300423,288.826050 23.312849,281.991241 
	C22.422983,280.771790 20.942904,279.983093 19.372990,278.993286 
	C19.010628,278.991119 19.000656,278.999786 19.007706,278.645416 
	C18.345121,276.856232 17.675488,275.421387 17.005856,273.986572 
	C17.003960,273.545380 17.002060,273.104187 16.999699,272.332092 
z"/>
<path fill="#DCDCDC" opacity="1.000000" stroke="none" 
	d="
M84.849121,288.689850 
	C84.885048,289.306091 84.690765,289.564941 84.208054,289.886963 
	C80.924782,288.665253 77.856430,287.325226 74.310867,285.620483 
	C65.225250,283.500183 56.616859,281.744598 48.003838,279.609192 
	C47.998535,278.467987 47.997864,277.706604 47.997192,276.945221 
	C58.885036,280.575439 71.247643,278.565887 81.232368,285.627838 
	C82.434853,286.478302 83.541405,287.464386 84.849121,288.689850 
z"/>
<path fill="#DCDCDC" opacity="1.000000" stroke="none" 
	d="
M37.040977,260.997528 
	C36.780991,260.192688 36.521000,259.387878 36.132042,258.289673 
	C36.090897,256.550934 36.178719,255.105545 36.266544,253.660141 
	C36.588318,253.570572 36.910091,253.480988 37.231869,253.391403 
	C40.465694,260.686768 43.699524,267.982117 46.612904,275.642487 
	C45.533554,275.999542 44.774647,275.991577 43.960320,275.615967 
	C43.254837,273.438507 42.772621,271.544586 41.917706,269.837311 
	C40.412113,266.830627 38.678890,263.937958 37.040977,260.997528 
z"/>
<path fill="#E4E4E4" opacity="1.000000" stroke="none" 
	d="
M44.015739,275.983582 
	C44.774647,275.991577 45.533554,275.999542 46.673386,276.004944 
	C47.344090,276.118744 47.583916,276.300873 47.885490,276.747009 
	C47.997864,277.706604 47.998535,278.467987 47.663475,279.675446 
	C45.242966,281.086395 43.158192,282.051270 41.073421,283.016174 
	C40.610737,283.009766 40.148045,283.003326 39.338131,282.993896 
	C38.989811,282.821838 38.988720,282.652771 38.979301,282.229980 
	C39.095692,281.670288 39.289547,281.417297 40.065842,280.958740 
	C41.724678,279.127960 42.870209,277.555756 44.015739,275.983582 
z"/>
<path fill="#DCDCDC" opacity="1.000000" stroke="none" 
	d="
M16.690815,274.040649 
	C17.675488,275.421387 18.345121,276.856232 19.011555,278.641846 
	C15.306254,276.917664 15.122028,276.574921 16.690815,274.040649 
z"/>
<path fill="#EEEEEE" opacity="1.000000" stroke="none" 
	d="
M13.012251,267.351807 
	C14.002132,268.084625 14.994643,269.181000 15.992014,270.639648 
	C15.002875,269.906403 14.008878,268.810883 13.012251,267.351807 
z"/>
<path fill="#E5E5E5" opacity="1.000000" stroke="none" 
	d="
M43.962555,220.979095 
	C43.965740,220.542358 43.968929,220.105606 44.407463,219.334869 
	C46.569595,218.989502 48.296383,218.978119 50.395386,218.971237 
	C51.512074,218.979218 52.256542,218.982727 53.158928,219.296783 
	C58.646862,225.427948 72.076309,225.558182 77.592949,219.842758 
	C80.009514,217.339111 80.246986,211.211472 78.011353,208.659927 
	C78.007782,207.885300 78.006317,207.442642 78.359840,206.922043 
	C79.028191,205.714661 79.727798,204.530304 79.576553,203.466965 
	C79.235359,201.068253 78.762436,198.607437 77.826843,196.389694 
	C75.298019,190.395309 75.765671,182.842834 68.991013,178.674789 
	C68.982918,177.905121 68.979439,177.465469 69.355316,177.014008 
	C70.494003,176.999054 71.253319,176.995880 72.012642,176.992706 
	C72.012642,176.992706 72.487534,177.052246 72.721176,177.104172 
	C76.306580,186.503128 79.658325,195.850143 82.736443,205.882645 
	C82.312637,208.541077 81.966766,210.522095 82.047554,212.485550 
	C82.335358,219.480621 78.722443,223.757889 72.116699,225.906754 
	C61.694122,229.297226 52.938622,224.904358 43.962555,220.979095 
z"/>
<path fill="#DEDEDE" opacity="1.000000" stroke="none" 
	d="
M43.683327,221.128387 
	C52.938622,224.904358 61.694122,229.297226 72.116699,225.906754 
	C78.722443,223.757889 82.335358,219.480621 82.047554,212.485550 
	C81.966766,210.522095 82.312637,208.541077 82.740158,206.282959 
	C86.699951,221.044861 81.318832,226.994156 67.014595,228.804871 
	C62.185791,229.416153 57.072670,227.848038 52.097370,227.214050 
	C48.220497,226.720001 44.355843,226.130051 40.234634,225.290497 
	C41.123707,223.758102 42.263901,222.517899 43.683327,221.128387 
z"/>
<path fill="#DCBC84" opacity="1.000000" stroke="none" 
	d="
M69.535019,322.914276 
	C70.121796,332.805145 68.699669,334.096497 58.941563,333.051575 
	C55.677876,332.702026 52.205067,331.733795 49.187263,332.487488 
	C46.846081,333.072174 44.824078,335.697449 43.106613,337.783264 
	C41.650982,339.551086 40.834595,341.845245 39.370461,343.562744 
	C39.346443,341.791718 39.436344,340.238953 40.075581,338.960907 
	C41.932259,335.248810 44.009140,331.646820 46.003460,327.674805 
	C46.021904,326.912872 46.036526,326.477814 46.051147,326.042725 
	C54.090126,327.594391 61.546627,324.810394 69.535019,322.914276 
z"/>
<path fill="#D7B982" opacity="1.000000" stroke="none" 
	d="
M23.002596,345.338135 
	C22.651049,340.642761 22.817574,336.159210 21.805414,331.959686 
	C20.868948,328.074249 22.513941,327.041595 25.832710,326.173889 
	C31.422363,326.230133 36.763660,326.564209 42.544655,327.172821 
	C42.987934,327.634338 42.991512,327.821259 42.627029,328.169128 
	C38.707520,328.886383 35.166813,329.801880 31.601931,329.908417 
	C27.110590,330.042633 25.107534,332.601868 25.156147,336.396515 
	C25.205793,340.271973 26.340834,344.133575 27.000706,348.001221 
	C26.250814,348.001007 25.500921,348.000824 24.376122,348.002747 
	C23.669661,347.227844 23.338104,346.450836 23.002596,345.338135 
z"/>
<path fill="#CCB081" opacity="1.000000" stroke="none" 
	d="
M79.021812,318.685089 
	C79.033157,319.019958 78.992683,319.488403 78.975204,319.722595 
	C77.878113,319.966797 76.798492,319.976746 75.310471,319.971924 
	C75.909729,318.822205 76.917404,317.687286 77.925079,316.552368 
	C78.286873,317.151642 78.648666,317.750946 79.021812,318.685089 
z"/>
<path fill="#CCB285" opacity="1.000000" stroke="none" 
	d="
M42.995094,328.008148 
	C42.991512,327.821259 42.987934,327.634338 42.974480,327.165955 
	C43.766960,326.590088 44.569309,326.295654 45.711403,326.021973 
	C46.036526,326.477814 46.021904,326.912872 45.627964,327.676331 
	C44.497463,328.005859 43.746277,328.007019 42.995094,328.008148 
z"/>
<path fill="#EDEDED" opacity="1.000000" stroke="none" 
	d="
M40.928825,283.302460 
	C43.158192,282.051270 45.242966,281.086395 47.668102,280.055237 
	C56.616859,281.744598 65.225250,283.500183 73.924515,285.616943 
	C77.424561,294.200714 76.778130,300.308655 72.075691,304.305481 
	C63.824474,311.318573 51.287849,314.091217 44.346859,310.181152 
	C44.010574,309.998596 44.003613,309.498718 44.406639,309.191376 
	C52.002899,308.231873 58.690231,306.291595 64.514542,301.745789 
	C68.842644,298.367767 70.655121,292.083313 68.010124,288.614532 
	C65.151566,284.865662 51.157608,281.665161 46.898464,283.830566 
	C46.502804,284.031708 46.294121,284.600616 45.705269,285.149597 
	C43.943470,286.203522 42.475025,287.106659 40.750275,288.002808 
	C40.323109,287.990692 40.152248,287.985565 39.985741,287.648254 
	C39.987160,286.872711 39.984230,286.429352 39.981300,285.985992 
	C40.248947,285.186920 40.516590,284.387817 40.928825,283.302460 
z"/>
<path fill="#E0C087" opacity="1.000000" stroke="none" 
	d="
M42.627029,328.169128 
	C43.746277,328.007019 44.497463,328.005859 45.624142,328.003174 
	C44.009140,331.646820 41.932259,335.248810 40.075581,338.960907 
	C39.436344,340.238953 39.346443,341.791718 39.008327,343.616821 
	C38.186226,350.516052 33.009804,352.551697 27.167164,348.304016 
	C26.340834,344.133575 25.205793,340.271973 25.156147,336.396515 
	C25.107534,332.601868 27.110590,330.042633 31.601931,329.908417 
	C35.166813,329.801880 38.707520,328.886383 42.627029,328.169128 
z"/>
<path fill="#CCB081" opacity="1.000000" stroke="none" 
	d="
M76.372261,322.955383 
	C76.571999,323.245880 76.601868,323.653046 76.631729,324.060181 
	C76.488617,323.730804 76.345497,323.401428 76.372261,322.955383 
z"/>
<path fill="#F3E1B1" opacity="1.000000" stroke="none" 
	d="
M25.995323,81.904915 
	C30.053564,81.401947 30.484524,84.343872 31.016651,88.048569 
	C30.952265,93.228020 31.236380,97.588936 30.757162,101.864288 
	C29.164551,116.072716 28.945675,129.824280 37.155968,142.655823 
	C42.295425,150.688080 47.309677,151.403076 52.351601,143.326508 
	C61.285557,129.015350 65.605469,113.448532 63.875034,96.531303 
	C63.572140,93.570091 63.806744,89.520470 59.145130,88.529861 
	C59.083916,87.449081 59.047523,86.728287 59.020813,86.027077 
	C59.030499,86.046669 59.071426,86.030182 59.272621,85.907501 
	C59.718124,85.566528 59.868584,85.296005 59.899422,84.686386 
	C59.524784,83.993912 59.175926,83.588341 58.790409,82.904945 
	C58.700577,82.448021 58.647400,82.268929 58.594227,82.089836 
	C59.789577,80.415016 60.984932,78.740196 62.621120,77.397522 
	C63.617836,78.533295 64.006500,79.571014 64.754669,80.105415 
	C75.984673,88.126640 79.573296,99.650894 80.020180,112.732399 
	C80.555626,128.406570 77.841339,143.640839 73.516396,158.571930 
	C71.882996,164.210938 71.263161,170.811707 64.477463,173.990189 
	C61.691822,173.976669 59.340504,173.955933 56.882496,173.550629 
	C50.715775,172.984436 44.655979,172.790573 38.594666,172.678085 
	C38.405205,172.674561 38.200130,173.512238 37.585281,173.969452 
	C35.777855,173.984695 34.387482,173.988251 32.629246,173.993713 
	C31.148750,174.336716 30.036125,174.677795 28.714100,175.045380 
	C28.504702,175.071884 28.088263,175.140991 27.745335,175.108978 
	C26.943983,175.058212 26.485561,175.039459 25.773989,174.755035 
	C21.994423,173.977661 21.349890,171.382538 20.991400,168.436722 
	C20.254457,162.381073 18.940731,156.359329 18.682192,150.288803 
	C18.016731,134.663742 14.927066,119.023170 18.676830,103.380424 
	C19.902510,98.267319 20.843410,93.085945 21.914551,87.935791 
	C21.936951,87.507950 21.959349,87.080109 22.285421,86.188271 
	C23.724504,84.451157 24.859913,83.178032 25.995323,81.904915 
z"/>
<path fill="#E2CA99" opacity="1.000000" stroke="none" 
	d="
M64.911781,173.982986 
	C71.263161,170.811707 71.882996,164.210938 73.516396,158.571930 
	C77.841339,143.640839 80.555626,128.406570 80.020180,112.732399 
	C79.573296,99.650894 75.984673,88.126640 64.754669,80.105415 
	C64.006500,79.571014 63.617836,78.533295 63.005211,77.391258 
	C70.654732,77.881073 73.342827,84.258614 77.072227,89.618279 
	C83.378258,98.680923 83.453209,108.874901 83.073204,119.254684 
	C83.005936,121.092064 83.783447,122.960365 84.561623,125.366554 
	C84.937714,127.937416 84.923042,129.956116 84.908371,131.974808 
	C84.125854,133.268707 82.948982,134.470840 82.623100,135.871017 
	C79.973701,147.254135 77.634033,158.712189 74.782455,170.042328 
	C74.355850,171.737305 71.755699,172.885239 69.712593,174.685944 
	C68.779694,175.179001 68.295242,175.272385 67.466537,175.305038 
	C66.421150,175.230484 65.720016,175.216644 65.002350,174.896179 
	C64.961136,174.387360 64.936462,174.185181 64.911781,173.982986 
z"/>
<path fill="#CEB17C" opacity="1.000000" stroke="none" 
	d="
M85.180527,131.983398 
	C84.923042,129.956116 84.937714,127.937416 84.945190,125.488655 
	C84.958344,119.309998 84.906845,113.559647 85.047462,107.813988 
	C85.084564,106.298019 85.714783,104.796570 86.443893,103.205994 
	C86.858406,112.086914 86.901680,121.050301 86.939270,130.475616 
	C86.645927,131.092743 86.407417,131.303528 86.107635,131.783600 
	C85.815712,131.995514 85.634193,131.993744 85.180527,131.983398 
z"/>
<path fill="#C9B28C" opacity="1.000000" stroke="none" 
	d="
M56.006432,77.022255 
	C56.004482,78.400421 56.002533,79.778587 55.750908,81.790451 
	C55.332329,83.286858 55.163422,84.149567 54.740551,85.008736 
	C54.317238,85.007774 54.147888,85.010353 53.718811,84.706696 
	C53.879211,81.182541 54.299347,77.964622 54.719479,74.746712 
	C54.719479,74.746712 54.859718,74.873291 54.955063,75.233917 
	C55.369087,76.070442 55.687763,76.546349 56.006432,77.022255 
z"/>
<path fill="#C8AD80" opacity="1.000000" stroke="none" 
	d="
M54.994514,85.012276 
	C55.163422,84.149567 55.332329,83.286858 55.752953,82.203979 
	C56.657578,82.004066 57.310478,82.024330 58.278805,82.067215 
	C58.647400,82.268929 58.700577,82.448021 58.629917,83.123337 
	C58.674431,84.415527 58.842781,85.211510 59.011131,86.007484 
	C59.047523,86.728287 59.083916,87.449081 59.080723,88.811523 
	C59.010765,89.642403 58.980392,89.831657 58.693253,90.010979 
	C58.265213,90.004189 58.093941,90.007332 57.591480,89.939514 
	C56.505035,88.249802 55.749775,86.631042 54.994514,85.012276 
z"/>
<path fill="#C8AD80" opacity="1.000000" stroke="none" 
	d="
M56.239006,76.841187 
	C55.687763,76.546349 55.369087,76.070442 55.025131,75.297272 
	C55.457310,75.000336 55.914776,75.000664 56.716331,75.013008 
	C56.864140,75.570061 56.667858,76.115089 56.239006,76.841187 
z"/>
<path fill="#D3D2D2" opacity="1.000000" stroke="none" 
	d="
M67.810799,175.365753 
	C68.295242,175.272385 68.779694,175.179001 69.632217,175.044220 
	C70.586632,175.491653 71.172974,175.980499 71.885979,176.731018 
	C71.253319,176.995880 70.494003,176.999054 69.245987,176.781754 
	C68.441788,176.162781 68.126289,175.764267 67.810799,175.365753 
z"/>
<path fill="#BDA177" opacity="1.000000" stroke="none" 
	d="
M57.922668,90.010468 
	C58.093941,90.007332 58.265213,90.004189 58.857441,90.336945 
	C60.215614,93.985565 62.029907,97.329865 61.912022,100.604614 
	C61.646194,107.989014 61.310364,115.587166 59.337093,122.631699 
	C57.445122,129.386032 53.773445,135.734741 50.266251,141.910980 
	C47.940834,146.006088 43.774189,146.403748 41.796959,143.005402 
	C38.348373,137.078171 33.835739,131.474213 33.930481,123.734497 
	C33.605919,122.956963 33.282619,122.481659 32.960091,121.568497 
	C32.976234,119.087601 32.991604,117.044540 33.273586,114.738846 
	C33.664448,112.970306 33.788696,111.464394 33.926399,109.511482 
	C33.965633,106.378815 33.991417,103.693146 34.017197,101.007484 
	C34.017197,101.007484 34.506351,101.000793 35.128204,101.093513 
	C36.189514,103.481834 36.628967,105.777435 37.061550,108.429108 
	C37.055767,109.500923 37.056858,110.216652 37.037758,111.373077 
	C37.448601,121.013191 39.729542,129.543671 45.466270,136.906311 
	C51.856361,134.433228 53.645344,129.357101 54.957993,123.528435 
	C54.980904,121.746902 54.996246,120.376465 55.156654,118.667519 
	C55.533108,116.886818 55.764492,115.444618 56.139317,113.703964 
	C56.470032,112.560715 56.657310,111.715927 56.867622,110.442619 
	C56.943485,108.007896 56.996311,106.001686 57.424595,103.897675 
	C57.861412,100.532753 57.922771,97.265648 57.983013,93.599564 
	C57.962151,92.137207 57.942410,91.073837 57.922668,90.010468 
z"/>
<path fill="#E1C999" opacity="1.000000" stroke="none" 
	d="
M33.006973,115.001488 
	C32.991604,117.044540 32.976234,119.087601 32.755898,121.748032 
	C33.011208,122.922508 33.471478,123.479614 33.931747,124.036713 
	C33.835739,131.474213 38.348373,137.078171 41.796959,143.005402 
	C43.774189,146.403748 47.940834,146.006088 50.266251,141.910980 
	C53.773445,135.734741 57.445122,129.386032 59.337093,122.631699 
	C61.310364,115.587166 61.646194,107.989014 61.912022,100.604614 
	C62.029907,97.329865 60.215614,93.985565 59.114204,90.346870 
	C58.980392,89.831657 59.010765,89.642403 59.105545,89.171494 
	C63.806744,89.520470 63.572140,93.570091 63.875034,96.531303 
	C65.605469,113.448532 61.285557,129.015350 52.351601,143.326508 
	C47.309677,151.403076 42.295425,150.688080 37.155968,142.655823 
	C28.945675,129.824280 29.164551,116.072716 30.757162,101.864288 
	C31.236380,97.588936 30.952265,93.228020 31.040813,88.436493 
	C31.708853,89.402122 32.692051,90.785095 32.924706,92.284523 
	C33.338970,94.954422 33.299175,97.694771 33.733238,100.706573 
	C33.991417,103.693146 33.965633,106.378815 33.589844,109.602585 
	C33.162220,111.760956 33.084599,113.381226 33.006973,115.001488 
z"/>
<path fill="#E5CE9E" opacity="1.000000" stroke="none" 
	d="
M21.575977,88.024750 
	C20.843410,93.085945 19.902510,98.267319 18.676830,103.380424 
	C14.927066,119.023170 18.016731,134.663742 18.682192,150.288803 
	C18.940731,156.359329 20.254457,162.381073 20.991400,168.436722 
	C21.349890,171.382538 21.994423,173.977661 25.542412,175.005035 
	C24.035721,176.007614 22.507452,176.494522 20.979187,176.981430 
	C19.646278,169.560593 18.336161,162.135513 16.961672,154.722382 
	C16.678961,153.197601 16.155830,151.717422 15.357747,150.139435 
	C15.253718,147.650360 15.535458,145.238510 15.839893,142.434921 
	C15.408590,138.832779 14.954592,135.622391 14.188717,132.173218 
	C13.899252,131.226517 13.921663,130.518616 13.973306,128.976868 
	C14.319080,121.758255 14.635625,115.373497 14.952168,108.988731 
	C15.587937,106.259308 16.223707,103.529877 16.899225,100.409103 
	C18.371784,96.049736 19.804592,92.081726 21.575977,88.024750 
z"/>
<path fill="#E4CD9D" opacity="1.000000" stroke="none" 
	d="
M37.076393,85.844505 
	C37.074947,85.456871 37.073502,85.069244 37.157433,84.355690 
	C37.242813,84.029770 37.436867,83.992348 37.771408,83.994492 
	C43.087006,86.792618 44.297165,90.874115 41.700333,96.723007 
	C40.630241,94.637398 39.817451,92.815948 38.974072,90.699722 
	C38.623718,89.936516 38.303955,89.468094 37.986122,88.658920 
	C37.684166,87.493622 37.380280,86.669067 37.076393,85.844505 
z"/>
<path fill="#C5A97D" opacity="1.000000" stroke="none" 
	d="
M37.068420,108.073036 
	C36.628967,105.777435 36.189514,103.481834 35.372795,101.091133 
	C35.007774,99.600082 35.020020,98.204140 35.416363,96.398560 
	C36.538345,95.992867 37.276226,95.996796 38.290504,96.302994 
	C38.540287,100.489647 40.884613,104.683830 37.068420,108.073036 
z"/>
<path fill="#BDA177" opacity="1.000000" stroke="none" 
	d="
M38.014111,96.000732 
	C37.276226,95.996796 36.538345,95.992867 35.433479,95.979980 
	C35.477718,92.684715 35.888943,89.398399 36.688278,85.978287 
	C37.380280,86.669067 37.684166,87.493622 37.738979,88.879417 
	C37.660007,90.627609 37.830109,91.814568 38.003067,93.376389 
	C38.008656,94.501083 38.011383,95.250908 38.014111,96.000732 
z"/>
<path fill="#BDA177" opacity="1.000000" stroke="none" 
	d="
M33.019035,77.390778 
	C33.290165,76.888435 33.554256,76.695320 33.881554,76.208069 
	C34.721600,76.236679 35.442245,76.482567 36.209923,77.369492 
	C36.650261,80.004471 37.043564,81.998405 37.436867,83.992348 
	C37.436867,83.992348 37.242813,84.029770 37.150658,84.065033 
	C32.404030,84.090279 34.719585,79.681931 33.019035,77.390778 
z"/>
<path fill="#E5CE9E" opacity="1.000000" stroke="none" 
	d="
M25.776167,81.688141 
	C24.859913,83.178032 23.724504,84.451157 22.302937,85.867416 
	C23.196856,84.497505 24.376932,82.984436 25.776167,81.688141 
z"/>
<path fill="#F3E0B0" opacity="1.000000" stroke="none" 
	d="
M37.771408,83.994492 
	C37.043564,81.998405 36.650261,80.004471 36.291351,77.645554 
	C38.442116,74.433838 40.440758,71.488914 42.709068,68.768875 
	C44.835117,66.219421 47.573631,65.512581 50.733864,66.975777 
	C53.758846,68.376350 55.513134,70.467590 54.789513,74.374084 
	C54.299347,77.964622 53.879211,81.182541 53.713478,85.158386 
	C54.674114,91.265915 55.380352,96.615517 56.092186,102.266510 
	C56.414898,103.043762 56.732018,103.519623 57.049133,103.995483 
	C56.996311,106.001686 56.943485,108.007896 56.547829,110.541458 
	C55.787792,112.044487 55.370590,113.020157 54.597065,114.045738 
	C46.622772,118.294342 45.223118,117.850769 42.335083,110.335297 
	C42.282524,110.198509 42.099224,110.111969 41.978142,109.538651 
	C41.972111,105.045952 41.964870,101.016563 41.957630,96.987183 
	C44.297165,90.874115 43.087006,86.792618 37.771408,83.994492 
z"/>
<path fill="#D1D0D0" opacity="1.000000" stroke="none" 
	d="
M20.705992,177.121826 
	C22.507452,176.494522 24.035721,176.007614 25.795563,175.270706 
	C26.485561,175.039459 26.943983,175.058212 27.657940,175.410461 
	C26.941675,176.487213 25.969877,177.230438 24.651491,177.982834 
	C23.204716,178.663620 22.104527,179.335220 21.004337,180.006821 
	C20.241844,180.000717 19.479353,179.994629 18.335346,179.966766 
	C18.780151,179.050735 19.606476,178.156479 20.705992,177.121826 
z"/>
<path fill="#D1B581" opacity="1.000000" stroke="none" 
	d="
M14.589582,108.992599 
	C14.635625,115.373497 14.319080,121.758255 13.972589,128.621460 
	C13.273355,127.640701 12.098511,126.205666 12.027410,124.717880 
	C11.792694,119.806549 11.956908,114.876167 12.008877,109.488770 
	C12.775518,109.015114 13.501257,109.005791 14.589582,108.992599 
z"/>
<path fill="#F8F8F8" opacity="1.000000" stroke="none" 
	d="
M67.466537,175.305038 
	C68.126289,175.764267 68.441788,176.162781 68.866623,176.793549 
	C68.979439,177.465469 68.982918,177.905121 69.042740,179.059631 
	C69.975418,182.416977 70.990707,185.022812 71.699432,187.709534 
	C73.214340,193.452454 74.570572,199.237244 75.542496,205.003830 
	C73.102188,205.003159 71.107224,204.923126 69.121033,205.021011 
	C65.262932,205.211105 62.245220,208.488403 62.002846,212.513321 
	C61.740425,216.871201 64.558258,217.771164 67.933197,218.373657 
	C64.664520,221.400284 61.425335,221.798309 57.710171,219.553543 
	C56.476559,218.808167 54.589390,219.144455 53.001015,218.986221 
	C52.256542,218.982727 51.512074,218.979218 50.342575,218.625839 
	C48.092049,216.747711 46.103546,215.374573 44.472923,213.660904 
	C40.295944,209.271179 39.316998,209.218979 35.709057,213.919998 
	C34.716900,215.212753 33.900738,216.640564 33.003815,218.006393 
	C31.858009,218.912033 30.712210,219.817657 28.934336,220.868927 
	C27.534254,221.675659 26.766245,222.336777 25.998238,222.997894 
	C25.998240,222.997894 26.000000,223.000000 25.548084,222.999100 
	C14.862177,223.015945 11.834557,219.087341 14.452135,209.177368 
	C14.578336,208.699570 14.748000,208.231216 14.925797,207.769394 
	C18.616901,198.181595 22.312115,188.595352 26.363277,178.847809 
	C29.158222,177.807480 31.596409,176.928146 34.480568,176.037476 
	C37.613018,176.007950 40.299488,175.989792 43.283958,176.256165 
	C47.391193,176.353561 51.200432,176.166428 55.454453,175.985703 
	C58.939114,175.729019 61.979004,175.465927 65.018890,175.202820 
	C65.720016,175.216644 66.421150,175.230484 67.466537,175.305038 
z"/>
<path fill="#EDEDED" opacity="1.000000" stroke="none" 
	d="
M26.006516,179.008820 
	C22.312115,188.595352 18.616901,198.181595 14.925797,207.769394 
	C14.748000,208.231216 14.578336,208.699570 14.452135,209.177368 
	C11.834557,219.087341 14.862177,223.015945 25.548656,222.999710 
	C23.413237,224.326218 20.525873,227.076324 18.314024,226.611588 
	C15.614571,226.044357 11.870129,223.061401 11.439445,220.618622 
	C10.533093,215.477905 10.516272,209.735931 11.909015,204.734940 
	C14.192373,196.535934 17.889109,188.730560 20.997059,180.382996 
	C22.104527,179.335220 23.204716,178.663620 24.766628,178.202301 
	C25.432266,178.683746 25.691654,178.882492 26.006516,179.008820 
z"/>
<path fill="#EFEFEF" opacity="1.000000" stroke="none" 
	d="
M33.448948,218.005310 
	C33.900738,216.640564 34.716900,215.212753 35.709057,213.919998 
	C39.316998,209.218979 40.295944,209.271179 44.472923,213.660904 
	C46.103546,215.374573 48.092049,216.747711 49.970356,218.621353 
	C48.296383,218.978119 46.569595,218.989502 44.410862,219.007324 
	C43.210403,218.706390 42.441898,218.399002 41.363724,218.073135 
	C38.667397,218.037842 36.280739,218.021027 33.448948,218.005310 
z"/>
<path fill="#EFEFEF" opacity="1.000000" stroke="none" 
	d="
M26.318058,222.969086 
	C26.766245,222.336777 27.534254,221.675659 28.652763,221.009140 
	C28.214804,221.649246 27.426342,222.294769 26.318058,222.969086 
z"/>
<path fill="#ECECEC" opacity="1.000000" stroke="none" 
	d="
M19.739830,297.994141 
	C20.035461,298.758362 20.031952,299.486206 20.044579,300.576630 
	C18.175823,300.363770 14.970900,300.730408 17.668131,297.060791 
	C18.480175,297.319214 18.960434,297.638489 19.739830,297.994141 
z"/>
<path fill="#F4F4F4" opacity="1.000000" stroke="none" 
	d="
M39.981392,287.980469 
	C40.152248,287.985565 40.323109,287.990692 40.681808,288.349091 
	C36.123711,291.866608 39.019642,295.692413 40.072392,299.246277 
	C41.196632,303.041504 44.292831,305.042877 47.705093,303.404877 
	C52.225128,301.235138 56.519451,298.251709 60.245720,294.882446 
	C63.135033,292.269928 62.430515,288.704651 58.547714,287.421173 
	C54.536114,286.095123 50.195377,285.764740 45.998627,284.998779 
	C46.294121,284.600616 46.502804,284.031708 46.898464,283.830566 
	C51.157608,281.665161 65.151566,284.865662 68.010124,288.614532 
	C70.655121,292.083313 68.842644,298.367767 64.514542,301.745789 
	C58.690231,306.291595 52.002899,308.231873 44.406296,308.941406 
	C42.530468,307.754425 41.058014,306.510071 39.295780,304.723511 
	C38.193451,301.881104 37.339462,299.594452 36.579102,297.277069 
	C35.681053,294.540100 34.863918,291.776611 34.011703,289.024597 
	C35.124367,288.395905 36.237030,287.767242 37.851555,287.311157 
	C38.896076,287.649323 39.438732,287.814880 39.981392,287.980469 
z"/>
<path fill="#EDEDED" opacity="1.000000" stroke="none" 
	d="
M33.675884,289.160706 
	C34.863918,291.776611 35.681053,294.540100 36.579102,297.277069 
	C37.339462,299.594452 38.193451,301.881104 39.012535,304.568390 
	C36.172348,301.210083 33.115391,297.601990 30.549997,293.672943 
	C28.724609,290.877289 31.331829,290.088776 33.675884,289.160706 
z"/>
<path fill="#E4E4E4" opacity="1.000000" stroke="none" 
	d="
M39.985741,287.648254 
	C39.438732,287.814880 38.896076,287.649323 38.174416,287.256653 
	C38.460941,286.702393 38.926464,286.375244 39.686646,286.017029 
	C39.984230,286.429352 39.987160,286.872711 39.985741,287.648254 
z"/>
<path fill="#E9E9E9" opacity="1.000000" stroke="none" 
	d="
M43.960320,275.615967 
	C42.870209,277.555756 41.724678,279.127960 40.278866,280.845276 
	C39.055676,276.066193 38.118214,271.144623 37.218304,266.216156 
	C36.931103,264.643280 36.743507,263.052185 36.775654,261.233459 
	C38.678890,263.937958 40.412113,266.830627 41.917706,269.837311 
	C42.772621,271.544586 43.254837,273.438507 43.960320,275.615967 
z"/>
<path fill="#FEFEFE" opacity="1.000000" stroke="none" 
	d="
M68.015831,218.015717 
	C64.558258,217.771164 61.740425,216.871201 62.002846,212.513321 
	C62.245220,208.488403 65.262932,205.211105 69.121033,205.021011 
	C71.107224,204.923126 73.102188,205.003159 75.671417,205.265411 
	C76.834717,206.018677 77.419792,206.509338 78.004868,207.000000 
	C78.006317,207.442642 78.007782,207.885300 78.003357,209.067093 
	C77.575813,216.920654 76.291870,217.976639 68.015831,218.015717 
z"/>
<path fill="#EFEFEF" opacity="1.000000" stroke="none" 
	d="
M67.933197,218.373657 
	C76.291870,217.976639 77.575813,216.920654 78.005478,209.399078 
	C80.246986,211.211472 80.009514,217.339111 77.592949,219.842758 
	C72.076309,225.558182 58.646862,225.427948 53.158928,219.296783 
	C54.589390,219.144455 56.476559,218.808167 57.710171,219.553543 
	C61.425335,221.798309 64.664520,221.400284 67.933197,218.373657 
z"/>
<path fill="#EFEFEF" opacity="1.000000" stroke="none" 
	d="
M78.359848,206.922043 
	C77.419792,206.509338 76.834717,206.018677 76.120720,205.266449 
	C74.570572,199.237244 73.214340,193.452454 71.699432,187.709534 
	C70.990707,185.022812 69.975418,182.416977 69.047348,179.389633 
	C75.765671,182.842834 75.298019,190.395309 77.826843,196.389694 
	C78.762436,198.607437 79.235359,201.068253 79.576553,203.466965 
	C79.727798,204.530304 79.028191,205.714661 78.359848,206.922043 
z"/>
<path fill="#FAFAFA" opacity="1.000000" stroke="none" 
	d="
M45.705269,285.149597 
	C50.195377,285.764740 54.536114,286.095123 58.547714,287.421173 
	C62.430515,288.704651 63.135033,292.269928 60.245720,294.882446 
	C56.519451,298.251709 52.225128,301.235138 47.705093,303.404877 
	C44.292831,305.042877 41.196632,303.041504 40.072392,299.246277 
	C39.019642,295.692413 36.123711,291.866608 40.938114,288.356079 
	C42.475025,287.106659 43.943470,286.203522 45.705269,285.149597 
z"/>
<path fill="#DCCCA9" opacity="1.000000" stroke="none" 
	d="
M38.002335,173.957733 
	C38.200130,173.512238 38.405205,172.674561 38.594666,172.678085 
	C44.655979,172.790573 50.715775,172.984436 56.538929,173.573853 
	C55.843922,174.013260 55.385784,174.044846 54.520210,174.069061 
	C50.442314,174.075974 46.771866,174.090286 42.677307,174.073517 
	C40.836243,174.014221 39.419289,173.985977 38.002335,173.957733 
z"/>
<path fill="#E3E3E3" opacity="1.000000" stroke="none" 
	d="
M26.363276,178.847809 
	C25.691654,178.882492 25.432266,178.683746 25.113213,178.193130 
	C25.969877,177.230438 26.941675,176.487213 28.000868,175.442474 
	C28.088263,175.140991 28.504702,175.071884 29.122961,175.051422 
	C30.822763,175.020157 31.904305,175.009338 33.110519,175.218201 
	C33.501656,175.641525 33.768124,175.845169 34.034592,176.048813 
	C31.596409,176.928146 29.158222,177.807480 26.363276,178.847809 
z"/>
<path fill="#D1D0D0" opacity="1.000000" stroke="none" 
	d="
M34.480568,176.037476 
	C33.768124,175.845169 33.501656,175.641525 33.112953,174.966507 
	C32.992855,174.327347 32.994984,174.159561 32.997112,173.991791 
	C34.387482,173.988251 35.777855,173.984695 37.585281,173.969437 
	C39.419289,173.985977 40.836243,174.014221 42.645348,174.382812 
	C43.020317,175.139328 43.003139,175.555466 42.985962,175.971619 
	C40.299488,175.989792 37.613018,176.007950 34.480568,176.037476 
z"/>
<path fill="#D3D2D2" opacity="1.000000" stroke="none" 
	d="
M54.927650,174.076447 
	C55.385784,174.044846 55.843922,174.013260 56.645622,173.958435 
	C59.340504,173.955933 61.691822,173.976669 64.477463,173.990189 
	C64.936462,174.185181 64.961136,174.387360 65.002350,174.896179 
	C61.979004,175.465927 58.939114,175.729019 55.447948,175.668045 
	C54.973663,174.921463 54.950657,174.498962 54.927650,174.076447 
z"/>
<path fill="#D4B989" opacity="1.000000" stroke="none" 
	d="
M59.020813,86.027077 
	C58.842781,85.211510 58.674431,84.415527 58.666573,83.401161 
	C59.175926,83.588341 59.524784,83.993912 59.703819,84.814667 
	C59.288746,85.443977 59.134556,85.710762 59.071426,86.030182 
	C59.071426,86.030182 59.030499,86.046669 59.020813,86.027077 
z"/>
<path fill="#E5CE9E" opacity="1.000000" stroke="none" 
	d="
M32.629246,173.993713 
	C32.994984,174.159561 32.992855,174.327347 32.988285,174.746826 
	C31.904305,175.009338 30.822763,175.020157 29.332359,175.024918 
	C30.036125,174.677795 31.148750,174.336716 32.629246,173.993713 
z"/>
<path fill="#E1C999" opacity="1.000000" stroke="none" 
	d="
M59.272621,85.907501 
	C59.134556,85.710762 59.288746,85.443977 59.729599,85.101562 
	C59.868584,85.296005 59.718124,85.566528 59.272621,85.907501 
z"/>
<path fill="#D8BE8F" opacity="1.000000" stroke="none" 
	d="
M56.086594,101.965118 
	C55.380352,96.615517 54.674114,91.265915 53.973209,85.464622 
	C54.147888,85.010353 54.317238,85.007774 54.740547,85.008736 
	C55.749775,86.631042 56.505035,88.249802 57.591484,89.939514 
	C57.942410,91.073837 57.962151,92.137207 57.717415,93.879501 
	C56.997490,97.027321 56.542042,99.496216 56.086594,101.965118 
z"/>
<path fill="#D8BE8F" opacity="1.000000" stroke="none" 
	d="
M41.700333,96.723007 
	C41.964870,101.016563 41.972111,105.045952 41.722584,109.793114 
	C41.690590,112.937141 41.615559,115.438339 42.199688,117.774742 
	C43.616985,123.443588 47.416630,124.578209 51.662640,120.901566 
	C52.613285,120.078392 53.886745,119.628021 55.011589,119.006020 
	C54.996246,120.376465 54.980904,121.746902 54.624878,123.612198 
	C53.920918,124.423523 53.560848,124.743774 53.193844,125.055862 
	C50.924770,126.985481 48.654140,128.913269 46.384026,130.841660 
	C44.851994,128.512894 43.193676,126.254204 41.844894,123.823738 
	C41.234020,122.722961 41.404968,121.215370 40.929878,120.006882 
	C39.727150,116.947495 38.359524,113.952919 37.057949,110.932388 
	C37.056858,110.216652 37.055767,109.500923 37.061550,108.429108 
	C40.884613,104.683830 38.540287,100.489647 38.290504,96.302994 
	C38.011383,95.250908 38.008656,94.501083 38.237843,93.198624 
	C38.648056,92.095490 38.826359,91.544998 39.004662,90.994507 
	C39.817451,92.815948 40.630241,94.637398 41.700333,96.723007 
z"/>
<path fill="#C5A97D" opacity="1.000000" stroke="none" 
	d="
M37.037758,111.373077 
	C38.359524,113.952919 39.727150,116.947495 40.929878,120.006882 
	C41.404968,121.215370 41.234020,122.722961 41.844894,123.823738 
	C43.193676,126.254204 44.851994,128.512894 46.384026,130.841660 
	C48.654140,128.913269 50.924770,126.985481 53.193844,125.055862 
	C53.560848,124.743774 53.920918,124.423523 54.617310,124.023285 
	C53.645344,129.357101 51.856361,134.433228 45.466270,136.906311 
	C39.729542,129.543671 37.448601,121.013191 37.037758,111.373077 
z"/>
<path fill="#E4CD9D" opacity="1.000000" stroke="none" 
	d="
M55.156654,118.667519 
	C53.886745,119.628021 52.613285,120.078392 51.662640,120.901566 
	C47.416630,124.578209 43.616985,123.443588 42.199688,117.774742 
	C41.615559,115.438339 41.690590,112.937141 41.721371,110.256439 
	C42.099224,110.111969 42.282524,110.198509 42.335083,110.335297 
	C45.223118,117.850769 46.622772,118.294342 54.857925,114.049164 
	C55.648705,114.002579 55.822292,114.002495 55.995880,114.002419 
	C55.764492,115.444618 55.533108,116.886818 55.156654,118.667519 
z"/>
<path fill="#C8AD80" opacity="1.000000" stroke="none" 
	d="
M56.092186,102.266510 
	C56.542042,99.496216 56.997490,97.027321 57.718533,94.278481 
	C57.922771,97.265648 57.861412,100.532753 57.424591,103.897675 
	C56.732018,103.519623 56.414898,103.043762 56.092186,102.266510 
z"/>
<path fill="#D4BA8A" opacity="1.000000" stroke="none" 
	d="
M33.273586,114.738846 
	C33.084599,113.381226 33.162220,111.760956 33.576393,110.049591 
	C33.788696,111.464394 33.664448,112.970306 33.273586,114.738846 
z"/>
<path fill="#D8BE8F" opacity="1.000000" stroke="none" 
	d="
M56.139313,113.703964 
	C55.822292,114.002495 55.648705,114.002579 55.214249,113.999245 
	C55.370590,113.020157 55.787792,112.044487 56.524796,110.969986 
	C56.657310,111.715927 56.470032,112.560715 56.139313,113.703964 
z"/>
<path fill="#D4BA8A" opacity="1.000000" stroke="none" 
	d="
M33.930481,123.734497 
	C33.471478,123.479614 33.011208,122.922508 32.755127,122.185883 
	C33.282619,122.481659 33.605919,122.956963 33.930481,123.734497 
z"/>
<path fill="#C1AC88" opacity="1.000000" stroke="none" 
	d="
M38.974072,90.699722 
	C38.826359,91.544998 38.648056,92.095490 38.234982,92.823753 
	C37.830109,91.814568 37.660007,90.627609 37.737045,89.220154 
	C38.303955,89.468094 38.623718,89.936516 38.974072,90.699722 
z"/>
<path fill="#EEEEEE" opacity="1.000000" stroke="none" 
	d="
M54.520210,174.069061 
	C54.950657,174.498962 54.973663,174.921463 55.003174,175.661636 
	C51.200432,176.166428 47.391193,176.353561 43.283958,176.256165 
	C43.003139,175.555466 43.020317,175.139328 43.069454,174.413879 
	C46.771866,174.090286 50.442314,174.075974 54.520210,174.069061 
z"/>
</svg>