<svg version="1.1" id="Layer_1" xmlns="http://www.w3.org/2000/svg" xmlns:xlink="http://www.w3.org/1999/xlink" x="0px" y="0px"
	 width="100%" viewBox="0 0 91 405" enable-background="new 0 0 91 405" xml:space="preserve">
<path fill="#D8D7D7" opacity="1.000000" stroke="none" 
	d="
M65.042976,171.879730 
	C65.967720,174.251846 67.021378,176.582779 67.794815,179.003235 
	C71.082603,189.292358 75.077156,199.443710 77.266205,209.967270 
	C78.941086,218.018997 78.652740,226.744659 71.198631,232.790390 
	C63.858280,238.743820 56.513615,244.738312 48.754230,250.113388 
	C43.020702,254.085114 35.847191,252.548782 30.902746,247.583862 
	C28.357908,245.028488 25.745092,242.404373 22.736841,240.476166 
	C16.995733,236.796249 13.477839,231.613586 11.551488,225.322418 
	C10.627387,222.304459 9.648705,218.885498 10.178211,215.912338 
	C12.489669,202.933609 15.348860,190.052536 17.999369,177.133987 
	C18.360641,175.373138 18.666449,173.600937 19.261097,171.274384 
	C19.743723,170.487274 19.893394,170.220612 19.973267,169.914749 
	C19.973267,169.914749 19.987709,169.982742 20.217583,169.991455 
	C20.622927,170.005966 20.798399,170.011795 21.273420,170.000320 
	C22.068775,169.690826 22.564581,169.398636 23.349205,168.947510 
	C25.119719,167.882172 26.601408,166.975739 28.412340,165.912735 
	C30.897900,165.251892 33.054218,164.747635 35.080345,164.556686 
	C27.455929,167.918884 24.430662,173.894333 23.941832,181.575623 
	C23.837070,183.221802 23.601063,184.873672 23.261938,186.488556 
	C21.299494,195.833542 18.894030,205.108459 17.464544,214.532394 
	C16.781376,219.036194 14.556479,224.465302 20.070160,228.428101 
	C21.427542,230.166275 22.641254,231.619965 23.920357,233.414612 
	C27.857571,237.310730 31.741901,240.852356 35.597664,244.424835 
	C39.389256,247.937851 43.707367,247.700577 47.534260,245.149490 
	C53.857052,240.934570 59.971424,236.356216 65.841644,231.527435 
	C71.720863,226.691238 73.622299,220.081131 71.703522,212.802551 
	C69.391800,204.033478 66.869637,195.289124 63.821339,186.754532 
	C61.301205,179.698654 57.883793,172.963272 55.251186,166.063202 
	C56.410522,166.051941 57.182629,166.063370 58.202187,166.199936 
	C58.937767,166.586121 59.425888,166.847168 59.978542,167.425125 
	C61.028980,168.847900 62.014881,169.953751 63.051376,171.331543 
	C63.748966,171.695572 64.395973,171.787659 65.042976,171.879730 
z"/>
<path fill="#CBB081" opacity="1.000000" stroke="none" 
	d="
M62.980011,339.861725 
	C62.868587,342.740936 62.757156,345.620117 61.931335,348.858521 
	C60.620083,353.696106 59.818897,358.159515 59.489410,362.657440 
	C59.213493,366.424042 59.420975,370.233368 59.550392,374.019104 
	C59.608665,375.723541 59.998062,377.416656 60.237213,379.114929 
	C59.513859,384.066803 58.978867,389.055786 58.013424,393.959991 
	C57.074940,398.727234 52.941906,400.167297 48.955994,400.816986 
	C47.593773,401.039032 45.075546,399.165649 44.389576,397.656830 
	C41.716301,391.776825 39.336040,385.736359 37.275852,379.611267 
	C34.243534,370.595978 31.309134,361.529480 28.846170,352.347137 
	C27.040253,345.614349 26.058008,338.660645 25.150040,331.431305 
	C26.034464,331.064545 26.477516,331.071869 26.953169,331.427399 
	C27.931015,332.569153 28.876259,333.362701 29.865126,334.486877 
	C30.605724,335.891418 31.302702,336.965302 32.120537,338.235229 
	C32.435177,338.677032 32.673153,338.867676 33.124496,339.299713 
	C41.353348,347.868958 51.424316,349.214294 59.324272,337.885162 
	C60.420094,337.435394 61.225807,337.128082 62.280609,337.050537 
	C62.679802,338.140778 62.829906,339.001251 62.980011,339.861725 
M39.007500,370.662445 
	C39.010742,371.103699 39.013985,371.544952 39.120434,372.738037 
	C41.470768,378.733582 43.591068,384.838348 46.346760,390.641418 
	C46.970284,391.954437 49.849609,392.886108 51.603832,392.762482 
	C53.113865,392.656097 55.712799,390.841583 55.755878,389.703796 
	C56.244434,376.799133 56.337051,363.879333 56.497711,350.963165 
	C56.500149,350.767212 56.021660,350.565277 55.270626,349.976562 
	C47.330723,355.973389 40.072460,352.508179 32.645660,347.068481 
	C33.183853,355.441010 34.882298,363.041931 39.007500,370.662445 
z"/>
<path fill="#D0B98D" opacity="1.000000" stroke="none" 
	d="
M36.868080,52.947041 
	C36.919193,52.512047 36.970306,52.077053 37.423958,51.256641 
	C38.505142,48.895275 39.183788,46.919323 39.862431,44.943375 
	C39.862431,44.943375 40.002274,44.468571 40.383297,44.192299 
	C41.516060,43.607155 42.267796,43.298275 43.226776,43.127865 
	C43.692028,43.487122 43.883949,43.755226 43.922993,44.304649 
	C43.620892,44.991955 43.405571,45.445267 43.132835,46.252571 
	C43.069660,47.083759 43.063900,47.560951 42.808857,48.317539 
	C42.338596,50.366848 42.117626,52.136768 41.531429,53.951988 
	C40.485355,55.356937 39.804504,56.716587 39.101303,58.396378 
	C39.049801,59.143379 39.020653,59.570244 38.765266,60.186378 
	C38.379005,60.930389 38.218979,61.485138 37.819443,62.295219 
	C37.394882,63.700413 37.209831,64.850273 36.748425,66.209518 
	C34.692345,68.316200 32.779480,70.182396 34.928539,73.318329 
	C34.913948,74.063454 34.905689,74.489250 34.576622,75.015472 
	C33.845486,76.083549 33.435154,77.051201 33.018581,78.348450 
	C33.005051,79.117500 32.997768,79.556938 32.716408,80.240433 
	C30.292185,92.270760 27.339905,103.980446 26.205460,115.863678 
	C24.935772,129.163589 25.365377,142.622574 24.894659,156.006668 
	C24.846273,157.382446 23.700607,158.719620 23.042042,159.598938 
	C23.012793,153.294662 23.131437,147.461456 22.914248,141.640808 
	C22.856440,140.091492 21.768997,138.580612 21.031040,136.840439 
	C20.715332,136.352707 20.463827,136.149796 20.153282,136.020065 
	C21.062237,126.101044 21.800390,116.162415 22.935974,106.269409 
	C23.793533,98.798515 25.104259,91.376755 26.346165,83.955360 
	C26.588896,82.504837 27.441916,81.156433 28.427757,79.281525 
	C30.881666,73.298882 32.994041,67.820885 34.916973,62.277172 
	C35.501438,60.592171 35.563152,58.725838 35.864288,56.942558 
	C35.915916,56.507851 35.967545,56.073139 36.355061,55.261513 
	C36.749992,54.238739 36.809036,53.592892 36.868080,52.947041 
z"/>
<path fill="#D2D2D2" opacity="1.000000" stroke="none" 
	d="
M14.417002,304.861389 
	C13.597569,300.885437 12.778136,296.909454 12.264011,292.396118 
	C14.579803,289.748932 15.073557,287.750305 12.140335,286.002686 
	C13.002722,284.528778 13.865108,283.054840 15.101524,281.564240 
	C15.663983,284.120605 15.539502,286.773682 16.168606,289.234039 
	C16.499060,290.526459 18.247522,292.485901 19.183443,292.393829 
	C21.633444,292.152740 23.988737,290.949188 26.381783,290.129272 
	C25.931351,289.754486 25.480917,289.379669 25.105223,288.674042 
	C27.103580,288.218994 29.027197,288.094788 31.310932,287.972046 
	C33.120094,287.304169 34.569134,286.634857 36.346451,285.963104 
	C37.112450,285.959686 37.550171,285.958679 38.167130,286.281311 
	C40.174034,287.388000 42.099731,288.991150 43.809349,288.786774 
	C47.599506,288.333679 51.281208,286.973419 55.323341,286.021179 
	C56.426914,286.370880 57.214275,286.682404 58.091682,287.344452 
	C61.054646,288.772644 63.853737,290.184143 66.819908,290.839966 
	C70.221931,291.592133 73.191116,290.152649 72.938110,286.351318 
	C72.752312,283.559753 71.032822,280.870300 69.996826,278.135345 
	C72.187004,281.078369 75.667168,283.781677 76.269028,287.019897 
	C77.202934,292.044647 76.175835,297.433838 75.301941,302.868408 
	C74.082794,303.045776 73.541779,303.023254 73.048950,302.647339 
	C73.772781,299.287262 74.352081,295.330597 70.111649,295.764587 
	C65.398117,296.247009 61.841560,294.492279 57.788254,293.073914 
	C54.374947,291.879486 50.510612,291.805206 46.825256,291.591339 
	C38.676670,291.118347 31.154612,293.950317 23.388062,295.864868 
	C17.921104,297.212555 13.784551,298.182922 14.417002,304.861389 
z"/>
<path fill="#CAB082" opacity="1.000000" stroke="none" 
	d="
M63.000786,171.059601 
	C62.014881,169.953751 61.028980,168.847900 60.163738,167.038544 
	C60.010136,158.511551 59.898945,150.676834 59.362312,142.871368 
	C59.201145,140.527176 57.854683,138.264465 57.046276,135.567978 
	C57.038208,134.114243 57.035084,133.056976 57.272057,131.727905 
	C57.332760,129.636505 57.153370,127.816902 56.972664,125.669540 
	C56.969070,124.904770 56.966793,124.467751 56.980083,123.559265 
	C56.995625,114.871292 57.092056,106.652634 56.908012,98.440247 
	C56.874275,96.934677 55.700668,95.454651 55.052547,93.538254 
	C55.356575,86.752243 55.661278,80.390831 55.980427,73.577469 
	C55.760395,70.501869 55.194958,67.857697 55.356056,65.258560 
	C55.770813,58.566788 55.552410,51.613567 57.412163,45.302670 
	C58.947174,40.093739 60.483906,35.330223 59.002533,29.997387 
	C59.000153,29.999771 59.002274,29.997776 59.322346,30.177418 
	C60.738155,33.573738 61.833893,36.790417 62.929634,40.007095 
	C62.547981,41.116932 62.166325,42.226768 61.278027,43.761711 
	C57.162193,48.481956 55.355202,65.721680 58.036919,70.559624 
	C58.168270,70.796585 58.605225,70.864159 58.899879,71.010605 
	C58.937569,71.778152 58.975258,72.545692 58.856564,74.032349 
	C58.818756,78.525848 59.024742,82.299896 59.039501,86.074684 
	C59.083580,97.348587 58.975895,108.623856 59.133369,119.895706 
	C59.157181,121.600128 60.279335,123.289200 60.893440,124.985374 
	C61.650833,129.794495 62.775440,134.579788 63.089523,139.417679 
	C63.752968,149.636978 63.992641,159.883820 63.976875,170.547943 
	C63.365326,171.004196 63.183060,171.031891 63.000786,171.059601 
z"/>
<path fill="#D6D6D6" opacity="1.000000" stroke="none" 
	d="
M14.434803,305.259766 
	C13.784551,298.182922 17.921104,297.212555 23.388062,295.864868 
	C31.154612,293.950317 38.676670,291.118347 46.825256,291.591339 
	C50.510612,291.805206 54.374947,291.879486 57.788254,293.073914 
	C61.841560,294.492279 65.398117,296.247009 70.111649,295.764587 
	C74.352081,295.330597 73.772781,299.287262 73.048965,302.896729 
	C73.000778,303.499603 73.001907,303.998474 72.813889,304.220520 
	C72.085487,304.629181 71.545097,304.815796 71.002975,304.573364 
	C70.767349,302.018860 71.826736,299.496979 68.107613,298.919922 
	C64.227074,298.317780 60.344036,297.226929 56.689396,295.776886 
	C48.627216,292.578125 40.704361,294.883606 32.865913,296.256012 
	C29.404137,296.862122 26.272730,299.355103 22.659603,300.991760 
	C21.885303,300.991028 21.442747,300.989990 20.761728,300.758240 
	C19.422194,301.089325 18.321119,301.651062 17.220043,302.212799 
	C18.140823,303.145966 19.061605,304.079163 19.984619,305.427765 
	C22.151628,319.691040 29.414211,329.793976 42.348869,335.978943 
	C42.779259,336.102570 42.945419,336.171509 43.096237,336.569885 
	C42.390858,337.584381 41.700813,338.269470 40.926788,338.625916 
	C39.872143,337.881195 38.901482,337.465149 37.601723,336.895844 
	C35.856335,336.467804 34.440048,336.192963 33.000534,335.566620 
	C31.999458,334.473633 31.021614,333.732178 29.877365,332.711304 
	C28.780828,331.980988 27.850695,331.530090 26.920563,331.079193 
	C26.477516,331.071869 26.034464,331.064545 25.261612,331.088867 
	C24.350422,330.921570 23.376137,330.864685 23.245331,330.502869 
	C20.258760,322.241425 17.364285,313.946686 14.434803,305.259766 
z"/>
<path fill="#D6D6D6" opacity="1.000000" stroke="none" 
	d="
M25.030479,289.004883 
	C25.480917,289.379669 25.931351,289.754486 26.381783,290.129272 
	C23.988737,290.949188 21.633444,292.152740 19.183443,292.393829 
	C18.247522,292.485901 16.499060,290.526459 16.168606,289.234039 
	C15.539502,286.773682 15.663983,284.120605 15.273366,281.287506 
	C16.458923,279.418823 17.846674,277.810211 19.762165,275.988525 
	C20.574043,275.616302 20.808842,275.402832 20.994301,275.135132 
	C21.427553,274.796814 21.860804,274.458496 22.882210,273.984711 
	C23.981171,273.234619 24.491978,272.619995 25.002785,272.005371 
	C25.002787,272.005371 25.000166,272.000000 25.354385,271.991638 
	C26.458162,271.283966 27.207718,270.584686 27.957275,269.885376 
	C28.589972,269.533295 29.222668,269.181183 30.549992,268.862396 
	C36.246731,267.928864 41.231285,266.851349 46.260174,266.053192 
	C48.099171,265.761322 50.043396,266.132446 51.939613,266.201111 
	C52.509533,266.360443 53.079449,266.519775 53.916557,267.261017 
	C54.980728,268.163910 55.777710,268.484894 56.574692,268.805878 
	C57.906757,269.382599 59.238819,269.959351 60.951416,270.982483 
	C61.822441,271.638153 62.312939,271.847412 62.803432,272.056671 
	C63.090843,272.236542 63.378250,272.416412 63.907730,273.108337 
	C64.823669,274.057404 65.497543,274.494476 66.171417,274.931549 
	C67.250130,275.919189 68.328850,276.906799 69.702194,278.014893 
	C71.032822,280.870300 72.752312,283.559753 72.938110,286.351318 
	C73.191116,290.152649 70.221931,291.592133 66.819908,290.839966 
	C63.853737,290.184143 61.054646,288.772644 58.510769,287.342651 
	C60.236950,287.005768 61.634087,287.021271 63.297531,287.273010 
	C68.676147,288.076508 69.732231,287.212677 68.978745,282.690308 
	C66.610390,280.235718 64.300720,278.122894 61.726562,275.790894 
	C58.661366,274.358246 55.860649,273.144745 52.982433,271.569214 
	C49.328365,270.284851 45.715237,268.471497 42.182449,268.616425 
	C33.476143,268.973572 26.920454,274.101135 20.684786,280.191528 
	C17.362059,285.403992 17.580923,286.609406 22.344162,289.001953 
	C23.495157,289.001556 24.262819,289.003204 25.030479,289.004883 
z"/>
<path fill="#B1A48F" opacity="1.000000" stroke="none" 
	d="
M60.971985,124.523727 
	C60.279335,123.289200 59.157181,121.600128 59.133369,119.895706 
	C58.975895,108.623856 59.083580,97.348587 59.039501,86.074684 
	C59.024742,82.299896 58.818756,78.525848 58.837624,74.416931 
	C59.578327,75.451035 60.688118,76.812660 60.707191,78.189400 
	C60.919014,93.478943 60.961967,108.770828 60.971985,124.523727 
z"/>
<path fill="#B1A894" opacity="1.000000" stroke="none" 
	d="
M60.635178,379.022705 
	C59.998062,377.416656 59.608665,375.723541 59.550392,374.019104 
	C59.420975,370.233368 59.213493,366.424042 59.489410,362.657440 
	C59.818897,358.159515 60.620083,353.696106 61.584351,349.088989 
	C61.885181,357.393250 61.852764,365.826813 61.721279,374.258820 
	C61.696953,375.819244 61.272770,377.373444 60.635178,379.022705 
z"/>
<path fill="#CAB082" opacity="1.000000" stroke="none" 
	d="
M44.009773,44.070648 
	C43.883949,43.755226 43.692028,43.487122 43.238480,42.758324 
	C44.362263,39.193493 45.681583,36.136669 47.000900,33.079842 
	C48.059429,32.049824 49.117954,31.019804 50.845604,29.879053 
	C53.010754,28.884735 54.506790,28.001146 56.002823,27.117559 
	C56.002823,27.117559 56.399551,26.965567 56.936554,26.974522 
	C57.689365,26.965538 57.905178,26.947599 58.120991,26.929659 
	C58.120991,26.929659 58.044334,26.922777 58.051243,27.220951 
	C58.372860,28.345343 58.687569,29.171558 59.002274,29.997776 
	C59.002274,29.997776 59.000153,29.999771 58.668915,30.005627 
	C57.557713,30.341700 56.777748,30.671921 55.655830,31.045818 
	C54.190723,32.045261 53.067566,33.001034 51.659370,34.139458 
	C48.919483,37.571625 46.464626,40.821136 44.009773,44.070648 
z"/>
<path fill="#AFA184" opacity="1.000000" stroke="none" 
	d="
M58.976463,70.643311 
	C58.605225,70.864159 58.168270,70.796585 58.036919,70.559624 
	C55.355202,65.721680 57.162193,48.481956 61.065708,44.061245 
	C57.936165,52.483261 58.585854,61.387627 58.976463,70.643311 
z"/>
<path fill="#D2D2D2" opacity="1.000000" stroke="none" 
	d="
M71.004715,305.002441 
	C71.545097,304.815796 72.085487,304.629181 73.186905,304.220093 
	C74.245468,303.995117 74.743019,303.992645 75.240562,303.990173 
	C73.670151,309.489136 72.099731,314.988129 70.263229,320.362732 
	C69.332550,319.159698 68.667953,318.081085 68.001541,316.750519 
	C67.998390,316.330658 67.997055,316.162750 68.014061,315.621521 
	C69.023170,311.832947 70.013947,308.417694 71.004715,305.002441 
z"/>
<path fill="#D0D0D0" opacity="1.000000" stroke="none" 
	d="
M68.003357,317.002441 
	C68.667953,318.081085 69.332550,319.159698 69.994202,320.605042 
	C68.502968,324.478729 67.014679,327.985687 64.980530,331.618439 
	C63.623245,331.496552 62.811817,331.248871 62.147694,330.680359 
	C64.197784,325.907135 66.100571,321.454773 68.003357,317.002441 
z"/>
<path fill="#D2BB92" opacity="1.000000" stroke="none" 
	d="
M35.537231,57.091835 
	C35.563152,58.725838 35.501438,60.592171 34.916973,62.277172 
	C32.994041,67.820885 30.881666,73.298882 28.499041,78.900047 
	C30.507406,71.745682 32.858791,64.493401 35.537231,57.091835 
z"/>
<path fill="#D2D2D2" opacity="1.000000" stroke="none" 
	d="
M51.713886,265.882324 
	C50.043396,266.132446 48.099171,265.761322 46.260174,266.053192 
	C41.231285,266.851349 36.246731,267.928864 30.825274,268.860413 
	C36.780209,263.516144 43.961685,263.424835 51.713886,265.882324 
z"/>
<path fill="#E6D7C4" opacity="1.000000" stroke="none" 
	d="
M20.081520,136.483459 
	C20.463827,136.149796 20.715332,136.352707 20.985012,137.301636 
	C21.032774,148.655533 21.003323,159.336578 20.973869,170.017624 
	C20.798399,170.011795 20.622927,170.005966 20.184862,169.979721 
	C19.951433,158.955139 19.980597,147.951004 20.081520,136.483459 
z"/>
<path fill="#D2BB92" opacity="1.000000" stroke="none" 
	d="
M46.648697,32.958885 
	C45.681583,36.136669 44.362263,39.193493 43.031242,42.619858 
	C42.267796,43.298275 41.516060,43.607155 40.462158,43.957718 
	C42.205494,40.278915 44.250996,36.558422 46.648697,32.958885 
z"/>
<path fill="#D7C6AA" opacity="1.000000" stroke="none" 
	d="
M59.322346,30.177418 
	C58.687569,29.171558 58.372860,28.345343 58.065193,27.185089 
	C61.520119,27.791592 63.300457,29.892662 63.020996,33.618877 
	C62.884556,35.438065 63.043106,37.279369 62.998878,39.558880 
	C61.833893,36.790417 60.738155,33.573738 59.322346,30.177418 
z"/>
<path fill="#BCBBBA" opacity="1.000000" stroke="none" 
	d="
M62.000389,331.001221 
	C62.811817,331.248871 63.623245,331.496552 64.727547,331.877594 
	C64.549812,334.489777 64.079208,336.968628 63.294304,339.654602 
	C62.829906,339.001251 62.679802,338.140778 62.262978,336.730560 
	C61.635994,335.433777 61.275726,334.686707 60.969292,333.630493 
	C61.348877,332.547943 61.674633,331.774597 62.000389,331.001221 
z"/>
<path fill="#D6D6D6" opacity="1.000000" stroke="none" 
	d="
M12.068746,286.374908 
	C15.073557,287.750305 14.579803,289.748932 12.210576,291.956482 
	C11.900274,290.285217 11.948716,288.516174 12.068746,286.374908 
z"/>
<path fill="#D2BB92" opacity="1.000000" stroke="none" 
	d="
M39.551350,45.098282 
	C39.183788,46.919323 38.505142,48.895275 37.492065,50.934509 
	C37.851849,49.082924 38.546059,47.168053 39.551350,45.098282 
z"/>
<path fill="#D7C6AA" opacity="1.000000" stroke="none" 
	d="
M55.620968,27.053242 
	C54.506790,28.001146 53.010754,28.884735 51.188370,29.863865 
	C52.321049,28.969248 53.780083,27.979088 55.620968,27.053242 
z"/>
<path fill="#D2D2D2" opacity="1.000000" stroke="none" 
	d="
M27.641171,269.888794 
	C27.207718,270.584686 26.458162,271.283966 25.357916,271.993530 
	C25.779839,271.299927 26.552452,270.596039 27.641171,269.888794 
z"/>
<path fill="#D2BB92" opacity="1.000000" stroke="none" 
	d="
M36.580826,53.071270 
	C36.809036,53.592892 36.749992,54.238739 36.423294,54.939560 
	C36.201614,54.394852 36.247589,53.795174 36.580826,53.071270 
z"/>
<path fill="#D2D2D2" opacity="1.000000" stroke="none" 
	d="
M66.081360,274.616150 
	C65.497543,274.494476 64.823669,274.057404 64.077698,273.302124 
	C64.667496,273.422882 65.329399,273.861816 66.081360,274.616150 
z"/>
<path fill="#D2D2D2" opacity="1.000000" stroke="none" 
	d="
M24.676275,272.018219 
	C24.491978,272.619995 23.981171,273.234619 23.147503,273.889740 
	C23.333017,273.297180 23.841393,272.664124 24.676275,272.018219 
z"/>
<path fill="#D2D2D2" opacity="1.000000" stroke="none" 
	d="
M56.417717,268.518738 
	C55.777710,268.484894 54.980728,268.163910 54.063873,267.519897 
	C54.716248,267.541779 55.488495,267.886719 56.417717,268.518738 
z"/>
<path fill="#D2D2D2" opacity="1.000000" stroke="none" 
	d="
M63.051376,171.331543 
	C63.183060,171.031891 63.365326,171.004196 63.820415,170.933853 
	C64.441391,170.942062 64.714760,171.112701 64.978165,171.641418 
	C64.395973,171.787659 63.748966,171.695572 63.051376,171.331543 
z"/>
<path fill="#D0D0D0" opacity="1.000000" stroke="none" 
	d="
M75.362511,303.798279 
	C74.743019,303.992645 74.245468,303.995117 73.374916,303.998047 
	C73.001907,303.998474 73.000778,303.499603 73.000771,303.250183 
	C73.541779,303.023254 74.082794,303.045776 75.027809,303.111511 
	C75.431808,303.154785 75.484459,303.606384 75.362511,303.798279 
z"/>
<path fill="#D2D2D2" opacity="1.000000" stroke="none" 
	d="
M62.683273,271.797180 
	C62.312939,271.847412 61.822441,271.638153 61.166172,271.213684 
	C61.521301,271.178192 62.042206,271.357910 62.683273,271.797180 
z"/>
<path fill="#D2D2D2" opacity="1.000000" stroke="none" 
	d="
M20.720879,275.095764 
	C20.808842,275.402832 20.574043,275.616302 20.065786,275.860321 
	C20.043596,275.648926 20.245529,275.352661 20.720879,275.095764 
z"/>
<path fill="#E6D7C4" opacity="1.000000" stroke="none" 
	d="
M19.713634,169.993454 
	C19.893394,170.220612 19.743723,170.487274 19.344830,170.861053 
	C19.261602,170.695602 19.357801,170.383881 19.713634,169.993454 
z"/>
<path fill="#D7C6AA" opacity="1.000000" stroke="none" 
	d="
M58.017090,26.678589 
	C57.905178,26.947599 57.689365,26.965538 57.148880,26.968040 
	C57.187199,26.777576 57.550198,26.602547 58.017090,26.678589 
z"/>
<path fill="#F8F8F8" opacity="1.000000" stroke="none" 
	d="
M19.926493,228.143585 
	C14.556479,224.465302 16.781376,219.036194 17.464544,214.532394 
	C18.894030,205.108459 21.299494,195.833542 23.261938,186.488556 
	C23.601063,184.873672 23.837070,183.221802 23.941832,181.575623 
	C24.430662,173.894333 27.455929,167.918884 35.507027,164.519592 
	C38.975994,164.174408 41.888088,164.179626 44.946941,164.495178 
	C46.745956,164.935501 48.398212,165.065506 50.410515,165.188889 
	C52.135025,165.483459 53.499489,165.784668 54.863953,166.085876 
	C57.883793,172.963272 61.301205,179.698654 63.821339,186.754532 
	C66.869637,195.289124 69.391800,204.033478 71.703522,212.802551 
	C73.622299,220.081131 71.720863,226.691238 65.841644,231.527435 
	C59.971424,236.356216 53.857052,240.934570 47.534260,245.149490 
	C43.707367,247.700577 39.389256,247.937851 35.597664,244.424835 
	C31.741901,240.852356 27.857571,237.310730 24.325428,233.389709 
	C29.666431,232.227615 32.991852,229.046280 32.874111,224.162766 
	C32.787621,220.575211 32.159840,216.797592 30.786547,213.517838 
	C29.916119,211.439056 27.234743,210.118546 25.365536,208.457977 
	C23.937668,210.559967 21.751202,212.495438 21.245331,214.799850 
	C20.293583,219.135330 20.311644,223.683716 19.926493,228.143585 
z"/>
<path fill="#E5CF9F" opacity="1.000000" stroke="none" 
	d="
M55.251186,166.063202 
	C53.499489,165.784668 52.135025,165.483459 50.144318,164.894638 
	C47.945446,164.466278 46.372814,164.325562 44.800182,164.184845 
	C41.888088,164.179626 38.975994,164.174408 35.637218,164.206284 
	C33.054218,164.747635 30.897900,165.251892 28.144545,165.660187 
	C26.348932,165.397644 25.150358,165.231079 23.911734,164.701294 
	C23.602489,162.916946 23.333296,161.495834 23.064102,160.074707 
	C23.700607,158.719620 24.846273,157.382446 24.894659,156.006668 
	C25.365377,142.622574 24.935772,129.163589 26.205460,115.863678 
	C27.339905,103.980446 30.292185,92.270760 32.959625,80.499695 
	C33.546299,81.155945 33.818813,81.854607 33.655704,82.429726 
	C27.786625,103.123703 27.453220,124.395882 26.990873,145.656540 
	C26.896870,149.979294 26.929235,154.315491 26.575457,158.618515 
	C26.293545,162.047409 28.462410,163.131653 30.785280,162.391495 
	C37.807339,160.153915 44.569530,161.384827 51.448372,162.773102 
	C52.428246,162.970871 54.475056,162.120636 54.627872,161.440720 
	C55.273624,158.567657 55.835663,155.543167 55.624424,152.632401 
	C54.556667,137.919296 52.946663,123.241310 52.093681,108.518158 
	C51.343971,95.577591 51.275463,82.594872 51.038124,69.628349 
	C50.905262,62.369877 50.694984,55.082161 51.203297,47.855717 
	C51.452347,44.315102 53.178173,40.855015 54.391491,37.413425 
	C55.265381,34.934620 54.372322,33.967640 51.944408,33.956802 
	C53.067566,33.001034 54.190723,32.045261 55.819675,31.417414 
	C56.300652,34.975636 56.597305,38.247715 56.184105,41.427547 
	C55.322826,48.055599 53.487675,54.610744 53.220276,61.242920 
	C53.050198,65.461327 54.978577,69.764336 55.965977,74.029411 
	C55.661278,80.390831 55.356575,86.752243 55.032330,94.010506 
	C55.011005,103.127197 54.912239,111.349220 55.095688,119.564934 
	C55.129219,121.066696 56.312153,122.542793 56.964516,124.030739 
	C56.966793,124.467751 56.969070,124.904770 56.731346,125.940910 
	C56.671551,128.359924 56.851753,130.179810 57.031960,131.999695 
	C57.035084,133.056976 57.038208,134.114243 57.027348,136.031006 
	C57.101234,140.001663 57.177082,143.113220 57.279457,146.223907 
	C57.497242,152.841110 57.728809,159.457855 57.954731,166.074799 
	C57.182629,166.063370 56.410522,166.051941 55.251186,166.063202 
z"/>
<path fill="#FEFEFE" opacity="1.000000" stroke="none" 
	d="
M20.070160,228.428101 
	C20.311644,223.683716 20.293583,219.135330 21.245331,214.799850 
	C21.751202,212.495438 23.937668,210.559967 25.365536,208.457977 
	C27.234743,210.118546 29.916119,211.439056 30.786547,213.517838 
	C32.159840,216.797592 32.787621,220.575211 32.874111,224.162766 
	C32.991852,229.046280 29.666431,232.227615 24.260036,233.048737 
	C22.641254,231.619965 21.427542,230.166275 20.070160,228.428101 
z"/>
<path fill="#DAC08E" opacity="1.000000" stroke="none" 
	d="
M58.202187,166.199936 
	C57.728809,159.457855 57.497242,152.841110 57.279457,146.223907 
	C57.177082,143.113220 57.101234,140.001663 57.032291,136.427460 
	C57.854683,138.264465 59.201145,140.527176 59.362312,142.871368 
	C59.898945,150.676834 60.010136,158.511551 60.099205,166.721634 
	C59.425888,166.847168 58.937767,166.586121 58.202187,166.199936 
z"/>
<path fill="#CEB47F" opacity="1.000000" stroke="none" 
	d="
M23.042042,159.598938 
	C23.333296,161.495834 23.602489,162.916946 23.771152,165.017548 
	C23.467211,166.833511 23.263800,167.969971 23.060387,169.106445 
	C22.564581,169.398636 22.068775,169.690826 21.273418,170.000320 
	C21.003323,159.336578 21.032774,148.655533 21.108255,137.513275 
	C21.768997,138.580612 22.856440,140.091492 22.914248,141.640808 
	C23.131437,147.461456 23.012793,153.294662 23.042042,159.598938 
z"/>
<path fill="#D0B98D" opacity="1.000000" stroke="none" 
	d="
M23.349209,168.947510 
	C23.263800,167.969971 23.467211,166.833511 23.811203,165.380768 
	C25.150358,165.231079 26.348932,165.397644 27.815302,165.816772 
	C26.601408,166.975739 25.119719,167.882172 23.349209,168.947510 
z"/>
<path fill="#D6B781" opacity="1.000000" stroke="none" 
	d="
M39.004742,370.000305 
	C34.882298,363.041931 33.183853,355.441010 32.645660,347.068481 
	C40.072460,352.508179 47.330723,355.973389 55.270626,349.976562 
	C56.021660,350.565277 56.500149,350.767212 56.497711,350.963165 
	C56.337051,363.879333 56.244434,376.799133 55.755878,389.703796 
	C55.712799,390.841583 53.113865,392.656097 51.603832,392.762482 
	C49.849609,392.886108 46.970284,391.954437 46.346760,390.641418 
	C43.591068,384.838348 41.470768,378.733582 39.421265,372.425049 
	C40.804424,373.659302 42.087769,375.105713 42.925552,376.775665 
	C44.478012,379.870056 45.514332,383.249146 47.289017,386.194275 
	C48.061104,387.475616 50.126999,387.977356 51.605293,388.833160 
	C52.402020,387.386261 53.821079,385.966766 53.886272,384.487610 
	C54.149452,378.516602 53.957588,372.526886 54.007599,366.544647 
	C54.043285,362.275635 52.135456,360.037689 47.743801,359.970062 
	C46.274429,359.947418 44.809296,359.538849 43.345459,359.287811 
	C39.077053,358.555756 37.390949,360.237000 38.110199,364.508270 
	C38.418194,366.337280 38.707142,368.169525 39.004742,370.000305 
z"/>
<path fill="#DEBE86" opacity="1.000000" stroke="none" 
	d="
M39.006119,370.331360 
	C38.707142,368.169525 38.418194,366.337280 38.110199,364.508270 
	C37.390949,360.237000 39.077053,358.555756 43.345459,359.287811 
	C44.809296,359.538849 46.274429,359.947418 47.743801,359.970062 
	C52.135456,360.037689 54.043285,362.275635 54.007599,366.544647 
	C53.957588,372.526886 54.149452,378.516602 53.886272,384.487610 
	C53.821079,385.966766 52.402020,387.386261 51.605293,388.833160 
	C50.126999,387.977356 48.061104,387.475616 47.289017,386.194275 
	C45.514332,383.249146 44.478012,379.870056 42.925552,376.775665 
	C42.087769,375.105713 40.804424,373.659302 39.369663,372.049133 
	C39.013985,371.544952 39.010742,371.103699 39.006119,370.331360 
z"/>
<path fill="#BCBBBA" opacity="1.000000" stroke="none" 
	d="
M33.023766,335.918121 
	C34.440048,336.192963 35.856335,336.467804 37.699265,337.219391 
	C39.087532,338.115631 40.049152,338.535095 41.010773,338.954559 
	C41.700813,338.269470 42.390858,337.584381 43.491798,336.530823 
	C45.231503,336.213959 46.560303,336.265594 47.984024,336.644531 
	C51.126812,341.500580 54.053864,337.529053 57.041740,337.084412 
	C57.055847,337.324219 57.049137,337.804596 56.888145,338.129517 
	C52.570610,342.329742 47.792145,343.908936 42.225964,342.190826 
	C39.105122,341.227509 36.043583,340.072052 32.955318,339.003174 
	C32.673153,338.867676 32.435177,338.677032 32.126434,337.888947 
	C32.016670,336.885956 32.021866,336.425262 32.276569,335.960083 
	C32.526077,335.955597 33.023766,335.918121 33.023766,335.918121 
z"/>
<path fill="#B2AEA8" opacity="1.000000" stroke="none" 
	d="
M33.124496,339.299713 
	C36.043583,340.072052 39.105122,341.227509 42.225964,342.190826 
	C47.792145,343.908936 52.570610,342.329742 57.087650,338.130005 
	C57.448143,337.805542 57.848305,337.801178 58.118717,337.851715 
	C58.572132,337.914246 58.755138,337.926270 58.961914,337.960876 
	C58.985687,337.983490 59.034172,338.027649 59.034172,338.027649 
	C51.424316,349.214294 41.353348,347.868958 33.124496,339.299713 
z"/>
<path fill="#B2AEA8" opacity="1.000000" stroke="none" 
	d="
M60.915466,333.939667 
	C61.275726,334.686707 61.635994,335.433777 62.013893,336.500793 
	C61.225807,337.128082 60.420094,337.435394 59.324272,337.885162 
	C59.034172,338.027649 58.985687,337.983490 58.944786,337.687622 
	C58.870857,337.211670 58.837830,337.031555 58.886017,336.555237 
	C59.616642,335.485931 60.266056,334.712799 60.915466,333.939667 
z"/>
<path fill="#B2AEA8" opacity="1.000000" stroke="none" 
	d="
M26.953167,331.427399 
	C27.850695,331.530090 28.780828,331.980988 29.856829,332.964844 
	C29.998871,333.667236 29.995045,333.836700 29.949661,334.044678 
	C29.908106,334.083191 29.821508,334.156219 29.821507,334.156219 
	C28.876259,333.362701 27.931015,332.569153 26.953167,331.427399 
z"/>
<path fill="#B2AEA8" opacity="1.000000" stroke="none" 
	d="
M32.027061,335.964569 
	C32.021866,336.425262 32.016670,336.885956 32.005577,337.692932 
	C31.302702,336.965302 30.605724,335.891418 29.865128,334.486877 
	C29.821508,334.156219 29.908106,334.083191 30.208801,334.172760 
	C31.015350,334.829742 31.521206,335.397156 32.027061,335.964569 
z"/>
<path fill="#F4E1B1" opacity="1.000000" stroke="none" 
	d="
M51.659370,34.139458 
	C54.372322,33.967640 55.265381,34.934620 54.391491,37.413425 
	C53.178173,40.855015 51.452347,44.315102 51.203297,47.855717 
	C50.694984,55.082161 50.905262,62.369877 51.038124,69.628349 
	C51.275463,82.594872 51.343971,95.577591 52.093681,108.518158 
	C52.946663,123.241310 54.556667,137.919296 55.624424,152.632401 
	C55.835663,155.543167 55.273624,158.567657 54.627872,161.440720 
	C54.475056,162.120636 52.428246,162.970871 51.448372,162.773102 
	C44.569530,161.384827 37.807339,160.153915 30.785280,162.391495 
	C28.462410,163.131653 26.293545,162.047409 26.575457,158.618515 
	C26.929235,154.315491 26.896870,149.979294 26.990873,145.656540 
	C27.453220,124.395882 27.786625,103.123703 33.655704,82.429726 
	C33.818813,81.854607 33.546299,81.155945 33.233700,80.255630 
	C32.997768,79.556938 33.005051,79.117500 33.351089,78.266037 
	C34.092369,76.874359 34.494900,75.894699 34.897430,74.915039 
	C34.905689,74.489250 34.913948,74.063454 35.238163,73.148880 
	C36.044338,70.440109 36.534557,68.220123 37.024780,66.000137 
	C37.209831,64.850273 37.394882,63.700413 38.087379,62.243862 
	C38.727043,61.290485 38.859272,60.643799 38.991501,59.997112 
	C39.020653,59.570244 39.049801,59.143379 39.437019,58.313919 
	C40.495609,56.576447 41.196133,55.241566 41.896652,53.906685 
	C42.117626,52.136768 42.338596,50.366848 43.076805,48.258575 
	C43.459446,47.246334 43.324848,46.572456 43.190247,45.898575 
	C43.405571,45.445267 43.620892,44.991955 43.922989,44.304646 
	C46.464626,40.821136 48.919483,37.571625 51.659370,34.139458 
z"/>
<path fill="#E5CF9F" opacity="1.000000" stroke="none" 
	d="
M36.748428,66.209518 
	C36.534557,68.220123 36.044338,70.440109 35.244495,72.829544 
	C32.779480,70.182396 34.692345,68.316200 36.748428,66.209518 
z"/>
<path fill="#E5CF9F" opacity="1.000000" stroke="none" 
	d="
M41.531429,53.951988 
	C41.196133,55.241566 40.495609,56.576447 39.459373,57.993782 
	C39.804504,56.716587 40.485355,55.356937 41.531429,53.951988 
z"/>
<path fill="#E5CF9F" opacity="1.000000" stroke="none" 
	d="
M34.576622,75.015472 
	C34.494900,75.894699 34.092369,76.874359 33.357334,77.936432 
	C33.435154,77.051201 33.845486,76.083549 34.576622,75.015472 
z"/>
<path fill="#E5CF9F" opacity="1.000000" stroke="none" 
	d="
M38.765266,60.186378 
	C38.859272,60.643799 38.727043,61.290485 38.326885,61.988529 
	C38.218979,61.485138 38.379005,60.930389 38.765266,60.186378 
z"/>
<path fill="#E5CF9F" opacity="1.000000" stroke="none" 
	d="
M43.132835,46.252571 
	C43.324848,46.572456 43.459446,47.246334 43.326096,47.979179 
	C43.063900,47.560951 43.069660,47.083759 43.132835,46.252571 
z"/>
<path fill="#E7E7E7" opacity="1.000000" stroke="none" 
	d="
M20.976770,280.015137 
	C26.920454,274.101135 33.476143,268.973572 42.182449,268.616425 
	C45.715237,268.471497 49.328365,270.284851 52.562496,271.530518 
	C43.945568,270.066956 35.983337,270.170776 29.260889,276.225128 
	C27.971462,277.386414 27.291712,279.224609 26.330704,280.750549 
	C28.147699,281.022675 29.973356,281.574860 31.780214,281.518982 
	C40.149704,281.260162 48.518013,280.507721 56.878300,280.611633 
	C60.678799,280.658875 62.178524,279.664581 61.991043,276.010071 
	C64.300720,278.122894 66.610390,280.235718 68.639053,282.731506 
	C66.582436,284.421936 64.806831,285.729370 63.031227,287.036774 
	C61.634087,287.021271 60.236950,287.005768 58.420723,286.992065 
	C57.214275,286.682404 56.426914,286.370880 55.091339,285.756958 
	C52.018242,284.653656 49.493355,283.852753 46.770760,282.837952 
	C45.720173,283.416809 44.867290,284.209534 43.612625,284.998688 
	C41.469860,285.315979 39.728878,285.636841 37.987892,285.957703 
	C37.550171,285.958679 37.112450,285.959686 36.260468,285.639038 
	C32.569443,283.166595 31.439556,284.977081 30.950811,287.970551 
	C29.027197,288.094788 27.103580,288.218994 25.105221,288.674011 
	C24.262819,289.003204 23.495157,289.001556 22.301977,288.646912 
	C21.576561,285.534363 21.276667,282.774750 20.976770,280.015137 
z"/>
<path fill="#D6D6D6" opacity="1.000000" stroke="none" 
	d="
M46.968464,283.051819 
	C49.493355,283.852753 52.018242,284.653656 54.775131,285.718811 
	C51.281208,286.973419 47.599506,288.333679 43.809349,288.786774 
	C42.099731,288.991150 40.174034,287.388000 38.167130,286.281311 
	C39.728878,285.636841 41.469860,285.315979 43.922894,284.956848 
	C45.412781,284.296326 46.190620,283.674072 46.968464,283.051819 
z"/>
<path fill="#D6D6D6" opacity="1.000000" stroke="none" 
	d="
M31.310932,287.972046 
	C31.439556,284.977081 32.569443,283.166595 35.932194,285.641479 
	C34.569134,286.634857 33.120094,287.304169 31.310932,287.972046 
z"/>
<path fill="#DAC08E" opacity="1.000000" stroke="none" 
	d="
M55.980423,73.577469 
	C54.978577,69.764336 53.050198,65.461327 53.220276,61.242920 
	C53.487675,54.610744 55.322826,48.055599 56.184105,41.427547 
	C56.597305,38.247715 56.300652,34.975636 56.161629,31.373737 
	C56.777748,30.671921 57.557713,30.341700 58.671295,30.003241 
	C60.483906,35.330223 58.947174,40.093739 57.412163,45.302670 
	C55.552410,51.613567 55.770813,58.566788 55.356056,65.258560 
	C55.194958,67.857697 55.760395,70.501869 55.980423,73.577469 
z"/>
<path fill="#DAC08E" opacity="1.000000" stroke="none" 
	d="
M56.980083,123.559265 
	C56.312153,122.542793 55.129219,121.066696 55.095688,119.564934 
	C54.912239,111.349220 55.011005,103.127197 55.033005,94.435089 
	C55.700668,95.454651 56.874275,96.934677 56.908012,98.440247 
	C57.092056,106.652634 56.995625,114.871292 56.980083,123.559265 
z"/>
<path fill="#DAC08E" opacity="1.000000" stroke="none" 
	d="
M57.272053,131.727905 
	C56.851753,130.179810 56.671551,128.359924 56.732662,126.268669 
	C57.153370,127.816902 57.332760,129.636505 57.272053,131.727905 
z"/>
<path fill="#FAFAFA" opacity="1.000000" stroke="none" 
	d="
M47.889107,336.317230 
	C46.560303,336.265594 45.231503,336.213959 43.507141,336.201416 
	C42.945419,336.171509 42.779259,336.102570 42.279346,335.655548 
	C40.632942,333.850006 39.320293,332.422607 37.996941,330.632355 
	C36.321453,328.516388 34.656666,326.763245 32.829208,324.716370 
	C30.440804,320.948669 28.215078,317.474640 26.356171,313.941711 
	C29.346542,313.566498 31.965197,313.043579 34.594765,312.981262 
	C38.805676,312.881470 43.171604,313.814148 47.204571,312.994476 
	C53.388275,311.737732 58.578232,311.688446 61.779884,318.294312 
	C60.416321,320.379150 59.194565,322.174896 57.632378,324.028320 
	C54.856197,327.386597 52.420448,330.687195 49.975025,334.313599 
	C49.954884,335.073090 49.944416,335.506805 49.586632,335.961090 
	C48.789249,336.093506 48.339180,336.205383 47.889107,336.317230 
z"/>
<path fill="#DCDCDC" opacity="1.000000" stroke="none" 
	d="
M71.002975,304.573364 
	C70.013947,308.417694 69.023170,311.832947 67.682571,315.623291 
	C66.890656,315.999298 66.448555,316.000275 65.735580,315.997192 
	C65.284210,315.988251 65.103729,315.983307 64.931046,315.648926 
	C64.948036,314.880188 64.957237,314.440887 65.244888,313.762390 
	C66.017525,311.350433 66.511711,309.177643 67.254501,307.003601 
	C67.503098,307.002289 68.000305,307.000000 68.273575,306.956696 
	C68.697601,306.275604 68.848343,305.637787 68.974625,304.611420 
	C66.968307,303.480408 64.986458,302.737976 62.942402,301.687805 
	C62.252789,300.921326 61.625381,300.462646 60.664932,300.003418 
	C59.887836,300.002472 59.443775,300.002045 58.759926,299.731842 
	C51.336838,295.867157 48.076702,295.995636 44.621170,299.995422 
	C43.499477,299.995972 42.751720,299.996155 41.886421,299.626404 
	C38.679218,299.096375 35.555859,298.582611 32.509144,298.873016 
	C29.298409,299.179047 26.160868,300.253021 22.991344,300.991455 
	C26.272730,299.355103 29.404137,296.862122 32.865913,296.256012 
	C40.704361,294.883606 48.627216,292.578125 56.689396,295.776886 
	C60.344036,297.226929 64.227074,298.317780 68.107613,298.919922 
	C71.826736,299.496979 70.767349,302.018860 71.002975,304.573364 
z"/>
<path fill="#E3E3E3" opacity="1.000000" stroke="none" 
	d="
M25.989353,314.000641 
	C28.215078,317.474640 30.440804,320.948669 32.878372,325.050934 
	C34.729362,327.451172 36.368507,329.223175 38.007652,330.995178 
	C39.320293,332.422607 40.632942,333.850006 42.015114,335.600830 
	C29.414211,329.793976 22.151628,319.691040 19.990616,305.092438 
	C19.996817,303.894867 19.999252,303.448029 20.333986,303.007263 
	C21.444187,303.342224 22.222092,303.671112 22.999954,304.375153 
	C23.000172,305.500610 23.000429,306.250916 23.000771,307.388092 
	C23.665016,309.518097 24.329178,311.261230 25.118046,313.208771 
	C25.443546,313.670074 25.692413,313.865906 25.989353,314.000641 
z"/>
<path fill="#E1E1E1" opacity="1.000000" stroke="none" 
	d="
M22.999998,304.000000 
	C22.222092,303.671112 21.444187,303.342224 20.449814,302.751373 
	C20.488960,301.989258 20.744576,301.489105 21.000191,300.988953 
	C21.442747,300.989990 21.885303,300.991028 22.659603,300.991760 
	C26.160868,300.253021 29.298409,299.179047 32.509144,298.873016 
	C35.555859,298.582611 38.679218,299.096375 41.448143,299.627777 
	C36.084454,301.331482 31.041492,302.663910 25.623713,303.997009 
	C24.499266,303.998474 23.749632,303.999237 22.999998,304.000000 
z"/>
<path fill="#DCDCDC" opacity="1.000000" stroke="none" 
	d="
M20.761730,300.758240 
	C20.744576,301.489105 20.488960,301.989258 20.117516,302.745300 
	C19.999252,303.448029 19.996817,303.894867 19.988384,304.677002 
	C19.061605,304.079163 18.140823,303.145966 17.220043,302.212799 
	C18.321119,301.651062 19.422194,301.089325 20.761730,300.758240 
z"/>
<path fill="#D0D0D0" opacity="1.000000" stroke="none" 
	d="
M32.276569,335.960083 
	C31.521206,335.397156 31.015350,334.829742 30.250357,334.134277 
	C29.995045,333.836700 29.998871,333.667236 30.023232,333.244263 
	C31.021614,333.732178 31.999458,334.473633 33.000534,335.566620 
	C33.023766,335.918121 32.526077,335.955597 32.276569,335.960083 
z"/>
<path fill="#D0D0D0" opacity="1.000000" stroke="none" 
	d="
M40.926788,338.625916 
	C40.049152,338.535095 39.087532,338.115631 38.028366,337.372620 
	C38.901482,337.465149 39.872143,337.881195 40.926788,338.625916 
z"/>
<path fill="#F7F7F7" opacity="1.000000" stroke="none" 
	d="
M61.726562,275.790894 
	C62.178524,279.664581 60.678799,280.658875 56.878300,280.611633 
	C48.518013,280.507721 40.149704,281.260162 31.780214,281.518982 
	C29.973356,281.574860 28.147699,281.022675 26.330704,280.750549 
	C27.291712,279.224609 27.971462,277.386414 29.260889,276.225128 
	C35.983337,270.170776 43.945568,270.066956 52.639992,271.892578 
	C55.860649,273.144745 58.661366,274.358246 61.726562,275.790894 
z"/>
<path fill="#D2D2D2" opacity="1.000000" stroke="none" 
	d="
M63.297531,287.273010 
	C64.806831,285.729370 66.582436,284.421936 68.697731,283.073303 
	C69.732231,287.212677 68.676147,288.076508 63.297531,287.273010 
z"/>
<path fill="#D2D2D2" opacity="1.000000" stroke="none" 
	d="
M20.684786,280.191528 
	C21.276667,282.774750 21.576561,285.534363 21.918642,288.648987 
	C17.580923,286.609406 17.362059,285.403992 20.684786,280.191528 
z"/>
<path fill="#D6D6D6" opacity="1.000000" stroke="none" 
	d="
M66.006454,316.001221 
	C66.448555,316.000275 66.890656,315.999298 67.664246,315.996582 
	C67.997055,316.162750 67.998390,316.330658 68.001549,316.750519 
	C66.100571,321.454773 64.197784,325.907135 62.147694,330.680359 
	C61.674633,331.774597 61.348877,332.547943 60.969296,333.630493 
	C60.266056,334.712799 59.616642,335.485931 58.707237,336.692627 
	C58.217602,337.324585 58.017956,337.549561 57.848305,337.801178 
	C57.848305,337.801178 57.448143,337.805542 57.248642,337.805054 
	C57.049137,337.804596 57.055847,337.324219 56.991920,336.808350 
	C56.603355,335.843506 56.278713,335.394562 56.041710,334.616333 
	C59.421715,328.191803 62.714085,322.096527 66.006454,316.001221 
z"/>
<path fill="#D8D7D7" opacity="1.000000" stroke="none" 
	d="
M44.946941,164.495178 
	C46.372814,164.325562 47.945446,164.466278 49.784271,164.901260 
	C48.398212,165.065506 46.745956,164.935501 44.946941,164.495178 
z"/>
<path fill="#D0D0D0" opacity="1.000000" stroke="none" 
	d="
M55.954071,334.945587 
	C56.278713,335.394562 56.603355,335.843506 56.977818,336.568542 
	C54.053864,337.529053 51.126812,341.500580 47.984024,336.644531 
	C48.339180,336.205383 48.789249,336.093506 49.975349,335.974426 
	C52.458946,335.626678 54.206509,335.286133 55.954071,334.945587 
z"/>
<path fill="#BCBBBA" opacity="1.000000" stroke="none" 
	d="
M58.118717,337.851715 
	C58.017956,337.549561 58.217602,337.324585 58.626022,336.988831 
	C58.837830,337.031555 58.870857,337.211670 58.921013,337.665039 
	C58.755138,337.926270 58.572132,337.914246 58.118717,337.851715 
z"/>
<path fill="#D2D2D2" opacity="1.000000" stroke="none" 
	d="
M46.770756,282.837952 
	C46.190620,283.674072 45.412781,284.296326 44.324677,284.960449 
	C44.867290,284.209534 45.720173,283.416809 46.770756,282.837952 
z"/>
<path fill="#F4F4F4" opacity="1.000000" stroke="none" 
	d="
M26.356171,313.941711 
	C25.692413,313.865906 25.443546,313.670074 25.277075,312.875854 
	C27.113611,311.226593 28.858988,309.300354 30.729704,309.169800 
	C34.796776,308.885895 38.979507,310.051178 43.021355,309.659119 
	C50.244987,308.958435 57.393570,307.599548 64.025391,312.290802 
	C64.362244,313.053253 64.664337,313.527405 64.966438,314.001587 
	C64.957237,314.440887 64.948036,314.880188 64.630096,315.707153 
	C63.521465,316.731628 62.721581,317.368408 61.921696,318.005219 
	C58.578232,311.688446 53.388275,311.737732 47.204571,312.994476 
	C43.171604,313.814148 38.805676,312.881470 34.594765,312.981262 
	C31.965197,313.043579 29.346542,313.566498 26.356171,313.941711 
z"/>
<path fill="#E1E1E1" opacity="1.000000" stroke="none" 
	d="
M61.779884,318.294312 
	C62.721581,317.368408 63.521465,316.731628 64.622299,316.036621 
	C65.103729,315.983307 65.284210,315.988251 65.735580,315.997192 
	C62.714085,322.096527 59.421715,328.191803 56.041710,334.616333 
	C54.206509,335.286133 52.458946,335.626678 50.322662,335.953857 
	C49.944416,335.506805 49.954884,335.073090 50.319424,334.268799 
	C54.484196,331.601929 57.765175,328.916138 57.972809,323.970642 
	C59.194565,322.174896 60.416321,320.379150 61.779884,318.294312 
z"/>
<path fill="#EBEBEB" opacity="1.000000" stroke="none" 
	d="
M57.632381,324.028320 
	C57.765175,328.916138 54.484196,331.601929 50.329094,333.942993 
	C52.420448,330.687195 54.856197,327.386597 57.632381,324.028320 
z"/>
<path fill="#EEEDED" opacity="1.000000" stroke="none" 
	d="
M37.996948,330.632355 
	C36.368507,329.223175 34.729362,327.451172 33.041050,325.344666 
	C34.656666,326.763245 36.321453,328.516388 37.996948,330.632355 
z"/>
<path fill="#E8E7E7" opacity="1.000000" stroke="none" 
	d="
M65.244888,313.762390 
	C64.664337,313.527405 64.362244,313.053253 64.272034,312.030060 
	C63.540146,309.705444 62.845207,306.620300 61.608688,306.385345 
	C56.758141,305.463654 51.721992,305.011414 46.782295,305.181915 
	C38.843616,305.455902 30.926762,306.362122 23.000687,307.001221 
	C23.000429,306.250916 23.000172,305.500610 22.999958,304.375153 
	C23.749632,303.999237 24.499266,303.998474 26.043304,303.997986 
	C34.225441,302.998413 41.613174,301.998596 49.334209,300.998871 
	C50.111946,300.998505 50.556381,300.998108 51.274281,301.248505 
	C54.835289,302.324707 58.181530,302.973633 61.388752,304.040466 
	C63.370544,304.699677 65.140717,305.995087 67.005890,307.004883 
	C66.511711,309.177643 66.017525,311.350433 65.244888,313.762390 
z"/>
<path fill="#E3E3E3" opacity="1.000000" stroke="none" 
	d="
M67.254494,307.003601 
	C65.140717,305.995087 63.370544,304.699677 61.388752,304.040466 
	C58.181530,302.973633 54.835289,302.324707 51.543541,301.004150 
	C54.026127,300.339874 56.512924,300.170776 58.999718,300.001648 
	C59.443775,300.002045 59.887836,300.002472 60.726574,300.311340 
	C61.749035,301.078400 62.376820,301.536987 63.004604,301.995575 
	C64.986458,302.737976 66.968307,303.480408 68.752960,304.799927 
	C68.370613,305.917999 68.185463,306.459015 68.000305,307.000000 
	C68.000305,307.000000 67.503098,307.002289 67.254494,307.003601 
z"/>
<path fill="#E3E3E3" opacity="1.000000" stroke="none" 
	d="
M49.000900,300.998779 
	C41.613174,301.998596 34.225441,302.998413 26.418121,303.997284 
	C31.041492,302.663910 36.084454,301.331482 41.565693,299.997681 
	C42.751720,299.996155 43.499477,299.995972 44.946297,299.956238 
	C46.763874,300.277435 47.882385,300.638092 49.000900,300.998779 
z"/>
<path fill="#E1E1E1" opacity="1.000000" stroke="none" 
	d="
M49.334206,300.998840 
	C47.882385,300.638092 46.763874,300.277435 45.320236,299.955933 
	C48.076702,295.995636 51.336838,295.867157 58.759926,299.731842 
	C56.512924,300.170776 54.026127,300.339874 51.270073,300.753357 
	C50.556381,300.998108 50.111946,300.998505 49.334206,300.998840 
z"/>
<path fill="#E1E1E1" opacity="1.000000" stroke="none" 
	d="
M68.273575,306.956696 
	C68.185463,306.459015 68.370613,305.917999 68.777428,305.188507 
	C68.848343,305.637787 68.697601,306.275604 68.273575,306.956696 
z"/>
<path fill="#E1E1E1" opacity="1.000000" stroke="none" 
	d="
M62.942398,301.687805 
	C62.376820,301.536987 61.749035,301.078400 61.059616,300.311890 
	C61.625381,300.462646 62.252789,300.921326 62.942398,301.687805 
z"/>
<path fill="#EEEDED" opacity="1.000000" stroke="none" 
	d="
M23.000771,307.388062 
	C30.926762,306.362122 38.843616,305.455902 46.782295,305.181915 
	C51.721992,305.011414 56.758141,305.463654 61.608688,306.385345 
	C62.845207,306.620300 63.540146,309.705444 64.237282,311.741791 
	C57.393570,307.599548 50.244987,308.958435 43.021355,309.659119 
	C38.979507,310.051178 34.796776,308.885895 30.729704,309.169800 
	C28.858988,309.300354 27.113611,311.226593 25.152369,312.671448 
	C24.329178,311.261230 23.665016,309.518097 23.000771,307.388062 
z"/>
</svg>