<svg version="1.1" id="Layer_1" xmlns="http://www.w3.org/2000/svg" xmlns:xlink="http://www.w3.org/1999/xlink" x="0px" y="0px"
	 width="100%" viewBox="0 0 91 405" enable-background="new 0 0 91 405" xml:space="preserve">
<path fill="#D5BD90" opacity="1.000000" stroke="none" 
	d="
M23.988176,183.055786 
	C24.992071,175.987198 25.995966,168.918610 27.242939,161.267944 
	C27.714983,160.447067 27.854553,160.164139 27.904724,159.837097 
	C27.904724,159.837097 27.917639,159.948730 28.163334,159.714752 
	C29.267643,151.295685 30.126259,143.110580 30.984875,134.925491 
	C31.648926,129.188522 32.511459,123.465454 32.914047,117.710205 
	C33.234467,113.129555 32.993145,108.509628 33.331200,103.124588 
	C33.433235,91.202225 33.205276,80.062408 32.977322,68.922600 
	C34.025063,64.660980 37.044891,67.106110 38.069622,68.131546 
	C45.014320,75.081039 52.785748,81.472298 54.625290,92.087532 
	C56.528164,103.068237 59.120728,113.932182 60.915749,124.928139 
	C63.202557,138.936722 64.943954,153.033585 67.018150,167.077988 
	C67.864998,172.812027 68.967903,178.508270 69.606339,184.791351 
	C67.838783,185.238922 66.419205,185.116852 64.709572,184.858704 
	C63.619308,184.455460 62.819107,184.188293 61.820206,183.668182 
	C60.704803,182.627686 59.788097,181.840164 59.140881,180.798737 
	C63.353176,179.516129 63.227291,176.732468 62.722996,173.482712 
	C60.412266,158.591904 58.525257,143.629318 55.915714,128.792816 
	C53.742184,116.435272 51.257519,104.084564 47.930756,92.000595 
	C46.542587,86.958282 42.616112,82.614777 39.843781,77.953529 
	C39.219280,78.187477 38.594776,78.421432 37.970276,78.655388 
	C37.970276,80.409805 37.969311,82.164215 37.970425,83.918633 
	C37.978958,97.340309 38.728287,110.813515 37.798885,124.169907 
	C36.766315,139.008804 34.117695,153.731049 32.358219,168.526138 
	C31.829517,172.971893 29.963377,177.586578 32.741707,182.038696 
	C32.247398,182.364655 32.068768,182.635147 31.694609,183.038895 
	C30.897398,183.670532 30.395496,184.234833 29.555237,184.833130 
	C28.153755,185.585251 27.090633,186.303360 25.664570,187.004364 
	C22.030106,186.623459 22.736010,184.930878 23.988176,183.055786 
z"/>
<path fill="#D2D2D2" opacity="1.000000" stroke="none" 
	d="
M23.615108,183.197174 
	C22.736010,184.930878 22.030106,186.623459 25.816956,187.361145 
	C26.509775,189.032089 27.179514,190.506897 26.785610,191.597565 
	C24.040236,199.199234 26.753206,206.294739 28.766678,213.376968 
	C29.399345,215.602341 30.945089,218.148849 32.834549,219.330383 
	C39.225918,223.327057 45.881443,226.927490 52.586506,230.387726 
	C57.685204,233.018982 68.143776,228.204529 68.743736,222.510651 
	C69.688484,213.544708 71.751244,204.445328 67.808830,195.505356 
	C66.362907,192.226532 65.907097,188.511063 64.999634,184.994781 
	C66.419205,185.116852 67.838783,185.238922 69.547470,185.230835 
	C72.772446,193.894684 76.942833,202.406921 75.616440,212.134552 
	C74.736649,218.586838 74.174278,225.079834 70.032021,230.558853 
	C64.251823,238.204361 55.764164,237.511200 48.774467,235.114456 
	C41.262516,232.538635 33.965984,227.735397 28.132126,222.248856 
	C19.885075,214.492798 20.322796,203.582230 21.437103,193.094727 
	C21.785494,189.815765 22.626520,186.589142 23.615108,183.197174 
z"/>
<path fill="#E0E0E0" opacity="1.000000" stroke="none" 
	d="
M21.159534,278.983276 
	C21.776430,276.910736 22.393326,274.838196 23.423029,272.321686 
	C24.835537,270.815521 25.835238,269.753357 26.834938,268.691162 
	C25.875463,268.375763 24.915993,268.060333 23.956524,267.744904 
	C24.786180,266.177063 25.615835,264.609192 26.751877,263.178650 
	C27.795343,267.500214 29.124311,264.807007 30.578382,263.717712 
	C33.284573,261.690430 36.140930,259.863617 38.959801,258.224487 
	C38.994747,258.676575 39.004654,258.857483 38.781860,259.201050 
	C38.035706,259.914124 37.522243,260.464539 36.667660,261.054443 
	C35.220810,262.397797 34.115082,263.701691 32.969494,265.293884 
	C32.616108,266.049896 32.302578,266.517578 31.655560,267.058014 
	C30.877712,268.084808 30.433359,269.038879 29.994579,269.996460 
	C30.000153,270.000000 29.989697,269.989288 29.654570,270.063629 
	C28.560419,271.765930 27.801397,273.393921 27.033463,275.419830 
	C27.019634,276.879242 27.014721,277.940674 26.756229,279.251923 
	C26.347065,280.672791 26.191473,281.843842 26.029087,283.441620 
	C26.021786,285.575928 26.021278,287.283539 26.010618,289.439178 
	C26.113531,299.328339 28.097952,308.246552 33.143921,316.376678 
	C35.966797,320.924866 42.987999,323.888916 49.190434,322.930176 
	C54.645042,322.087036 59.952614,316.737762 61.008060,311.006226 
	C60.999695,311.001221 61.016026,311.016266 61.326859,310.958557 
	C62.090843,310.266815 62.543987,309.632782 63.006805,308.757629 
	C63.016472,308.516510 63.026546,308.033997 63.335606,307.969543 
	C64.080490,307.263214 64.516312,306.621399 64.965668,305.569824 
	C66.001747,299.791382 67.024300,294.422607 68.352859,288.982269 
	C69.082428,288.264648 69.505974,287.618591 69.942398,286.546143 
	C69.966805,284.412659 69.978340,282.705536 70.243393,280.735962 
	C70.325462,278.649811 70.154022,276.826111 69.926064,274.679901 
	C69.246140,273.238251 68.622734,272.119110 67.955292,270.644287 
	C66.944328,267.407196 65.682083,264.853882 61.739697,264.831635 
	C60.653454,263.785217 59.838219,262.883850 58.969528,261.633423 
	C56.913742,257.584320 53.764004,255.664688 49.613529,256.063843 
	C46.033062,256.408173 42.504589,257.293182 39.030258,257.594269 
	C43.856098,252.725174 49.607594,251.316528 54.815968,254.718292 
	C59.814754,257.983154 63.991184,262.488647 68.674637,266.268524 
	C69.765648,267.149078 71.446167,267.299194 72.855446,267.785400 
	C74.725723,273.464539 76.633148,279.140259 74.103165,285.742981 
	C73.929871,287.545868 74.112816,288.797791 74.295769,290.049713 
	C74.078766,290.854370 73.861755,291.658997 73.061615,292.768921 
	C71.680969,293.732666 70.394783,294.257355 70.171463,295.072998 
	C69.256607,298.414307 69.145226,302.038391 67.863739,305.204468 
	C64.356300,313.869965 62.744946,324.194153 50.498058,325.715759 
	C39.413372,327.093018 30.771841,325.452698 27.425417,312.127960 
	C25.113619,302.922821 25.030514,293.154938 24.001026,283.633179 
	C23.779869,281.587708 24.621462,279.003387 21.159534,278.983276 
z"/>
<path fill="#CDB181" opacity="1.000000" stroke="none" 
	d="
M67.032211,335.982178 
	C67.245819,345.681213 63.355118,354.313019 59.343243,362.711243 
	C57.428310,366.719818 53.090134,369.415009 48.247108,367.999237 
	C46.183418,367.395966 44.014313,364.957428 43.172390,362.843445 
	C41.587669,358.864319 41.248604,354.403107 39.812481,350.347443 
	C37.809177,344.689972 35.274429,339.220703 32.936462,332.970978 
	C32.954617,331.837555 33.003418,331.404022 33.412163,331.028961 
	C35.279549,331.762878 36.797211,332.416565 38.292862,333.117218 
	C51.239273,339.182434 59.173901,332.585114 63.045433,324.583984 
	C64.431442,322.170471 65.721558,320.078156 67.279419,318.287567 
	C67.375519,324.386932 67.203865,330.184570 67.032211,335.982178 
M61.996056,344.332825 
	C61.996819,343.888885 61.997585,343.444916 62.523117,342.480072 
	C63.938255,339.090759 65.191338,335.708984 62.039665,332.168274 
	C61.119957,332.828827 60.126434,333.220947 59.631184,333.951080 
	C56.763992,338.177887 53.520649,341.663574 48.009533,342.419220 
	C47.181431,342.532776 46.017387,345.056183 46.139179,346.359192 
	C46.565815,350.923462 47.211094,355.515259 48.391712,359.931305 
	C48.737492,361.224670 49.610817,365.571960 53.672771,361.909943 
	C55.116428,360.274872 56.560085,358.639771 58.627159,356.889465 
	C59.076920,356.254242 59.526676,355.619019 60.008450,354.198334 
	C60.340027,352.133453 60.671604,350.068542 61.627171,347.884888 
	C61.749588,346.922852 61.872005,345.960815 61.996056,344.332825 
z"/>
<path fill="#CECECD" opacity="1.000000" stroke="none" 
	d="
M67.011673,317.985809 
	C65.721558,320.078156 64.431442,322.170471 62.702614,324.656921 
	C59.265938,326.700684 56.419544,328.777069 53.237129,329.907471 
	C47.363602,331.993713 41.477955,331.092377 35.758858,328.779846 
	C33.746712,327.966278 31.291346,326.960205 33.052223,330.970520 
	C33.003418,331.404022 32.954617,331.837555 32.944843,332.595032 
	C29.774799,326.332336 25.055784,320.039185 23.705252,313.091309 
	C21.600727,302.264404 21.782743,290.993042 21.077667,279.446655 
	C24.621462,279.003387 23.779869,281.587708 24.001026,283.633179 
	C25.030514,293.154938 25.113619,302.922821 27.425417,312.127960 
	C30.771841,325.452698 39.413372,327.093018 50.498058,325.715759 
	C62.744946,324.194153 64.356300,313.869965 67.863739,305.204468 
	C69.145226,302.038391 69.256607,298.414307 70.171463,295.072998 
	C70.394783,294.257355 71.680969,293.732666 72.888321,293.065796 
	C72.656616,297.789886 72.018349,302.522919 71.371941,307.254791 
	C71.109085,309.178925 70.828514,311.100647 70.158646,313.410034 
	C65.123184,312.750336 67.873985,316.553802 67.011673,317.985809 
z"/>
<path fill="#CCCCCC" opacity="1.000000" stroke="none" 
	d="
M38.934769,257.953339 
	C36.140930,259.863617 33.284573,261.690430 30.578382,263.717712 
	C29.124311,264.807007 27.795343,267.500214 27.063190,262.952667 
	C32.692387,254.706192 39.851170,249.518860 49.965199,249.381607 
	C58.102139,249.271194 62.799618,255.004471 67.833321,259.990051 
	C69.876518,262.013733 71.231201,264.732574 72.877304,267.460266 
	C71.446167,267.299194 69.765648,267.149078 68.674637,266.268524 
	C63.991184,262.488647 59.814754,257.983154 54.815968,254.718292 
	C49.607594,251.316528 43.856098,252.725174 39.049522,257.624878 
	C38.991661,258.000427 38.934769,257.953339 38.934769,257.953339 
z"/>
<path fill="#B7A991" opacity="1.000000" stroke="none" 
	d="
M67.279419,318.287567 
	C67.873985,316.553802 65.123184,312.750336 70.069839,313.841736 
	C69.519264,321.183228 68.660141,328.479614 67.416611,335.879089 
	C67.203865,330.184570 67.375519,324.386932 67.279419,318.287567 
z"/>
<path fill="#E3D2B9" opacity="1.000000" stroke="none" 
	d="
M32.544147,68.975502 
	C33.205276,80.062408 33.433235,91.202225 33.401878,102.659462 
	C32.419331,93.749176 31.600510,84.527199 31.046638,75.289330 
	C30.923227,73.231026 31.731606,71.116852 32.544147,68.975502 
z"/>
<path fill="#BEB4A2" opacity="1.000000" stroke="none" 
	d="
M30.675283,135.199615 
	C30.126259,143.110580 29.267643,151.295685 28.107178,159.713013 
	C28.658783,151.788071 29.512238,143.630920 30.675283,135.199615 
z"/>
<path fill="#CCCCCC" opacity="1.000000" stroke="none" 
	d="
M23.650948,267.894287 
	C24.915993,268.060333 25.875463,268.375763 26.834938,268.691162 
	C25.835238,269.753357 24.835537,270.815521 23.489948,271.947174 
	C23.211163,270.692322 23.278269,269.367981 23.650948,267.894287 
z"/>
<path fill="#B5B5B5" opacity="1.000000" stroke="none" 
	d="
M74.458801,289.788025 
	C74.112816,288.797791 73.929871,287.545868 74.010857,286.112732 
	C74.390480,287.129761 74.506165,288.328033 74.458801,289.788025 
z"/>
<path fill="#BEB4A2" opacity="1.000000" stroke="none" 
	d="
M27.651978,159.939270 
	C27.854553,160.164139 27.714983,160.447067 27.302090,160.839279 
	C27.211853,160.675598 27.305542,160.358521 27.651978,159.939270 
z"/>
<path fill="#F2DFAF" opacity="1.000000" stroke="none" 
	d="
M32.957592,181.917374 
	C29.963377,177.586578 31.829517,172.971893 32.358219,168.526138 
	C34.117695,153.731049 36.766315,139.008804 37.798885,124.169907 
	C38.728287,110.813515 37.978958,97.340309 37.970425,83.918633 
	C37.969311,82.164215 37.970276,80.409805 37.970276,78.655388 
	C38.594776,78.421432 39.219280,78.187477 39.843781,77.953529 
	C42.616112,82.614777 46.542587,86.958282 47.930756,92.000595 
	C51.257519,104.084564 53.742184,116.435272 55.915714,128.792816 
	C58.525257,143.629318 60.412266,158.591904 62.722996,173.482712 
	C63.227291,176.732468 63.353176,179.516129 58.758762,180.730316 
	C55.716244,180.687302 53.325329,180.458771 50.500641,180.175629 
	C47.729713,180.151077 45.392559,180.181152 42.663742,180.150970 
	C40.802719,180.701508 39.333355,181.312302 37.487385,181.927719 
	C36.115887,182.013763 35.120995,182.095184 33.832619,182.117889 
	C33.345291,182.011917 33.151443,181.964645 32.957592,181.917374 
z"/>
<path fill="#E5E5E5" opacity="1.000000" stroke="none" 
	d="
M64.709572,184.858704 
	C65.907097,188.511063 66.362907,192.226532 67.808830,195.505356 
	C71.751244,204.445328 69.688484,213.544708 68.743736,222.510651 
	C68.143776,228.204529 57.685204,233.018982 52.586506,230.387726 
	C45.881443,226.927490 39.225918,223.327057 32.834549,219.330383 
	C30.945089,218.148849 29.399345,215.602341 28.766678,213.376968 
	C26.753206,206.294739 24.040236,199.199234 26.785610,191.597565 
	C27.179514,190.506897 26.509775,189.032089 26.179897,187.378265 
	C27.090633,186.303360 28.153755,185.585251 29.587362,185.279510 
	C27.315138,194.515991 30.430595,203.089294 31.289671,211.736496 
	C31.469883,213.550461 33.218349,215.753220 34.865551,216.778122 
	C40.570374,220.327682 46.452820,223.627502 52.450775,226.660233 
	C58.511322,229.724609 62.665783,227.704987 65.278152,220.732574 
	C65.689178,218.289566 65.844284,216.144775 66.259941,213.721130 
	C68.407394,208.256943 67.801682,203.153900 66.172417,198.024170 
	C64.689262,193.354492 63.395916,188.624527 62.018906,183.921143 
	C62.819107,184.188293 63.619308,184.455460 64.709572,184.858704 
z"/>
<path fill="#F0F0F0" opacity="1.000000" stroke="none" 
	d="
M65.022217,221.030823 
	C62.665783,227.704987 58.511322,229.724609 52.450775,226.660233 
	C46.452820,223.627502 40.570374,220.327682 34.865551,216.778122 
	C33.218349,215.753220 31.469883,213.550461 31.289671,211.736496 
	C30.430595,203.089294 27.315138,194.515991 29.925722,185.245514 
	C30.395496,184.234833 30.897398,183.670532 31.814142,183.256653 
	C32.436710,183.674362 32.695965,183.875168 32.940506,184.418457 
	C30.574167,194.269531 33.175823,203.172104 36.127522,211.954315 
	C36.704311,213.670471 38.446823,215.303253 40.066643,216.300354 
	C44.277637,218.892471 48.592804,221.400146 53.114979,223.371216 
	C55.984203,224.621811 59.388294,225.140045 61.403606,221.005646 
	C62.877563,221.013412 63.949890,221.022110 65.022217,221.030823 
z"/>
<path fill="#EDECEB" opacity="1.000000" stroke="none" 
	d="
M61.820206,183.668182 
	C63.395916,188.624527 64.689262,193.354492 66.172417,198.024170 
	C67.801682,203.153900 68.407394,208.256943 66.017471,213.489807 
	C64.681320,212.022171 63.848194,210.506989 63.165596,208.650574 
	C63.518147,207.518188 64.122200,206.548325 63.861893,205.962646 
	C59.960033,197.183472 62.652897,185.065369 50.934414,180.230255 
	C53.325329,180.458771 55.716244,180.687302 58.489277,180.984222 
	C59.788097,181.840164 60.704803,182.627686 61.820206,183.668182 
z"/>
<path fill="#E5E5E5" opacity="1.000000" stroke="none" 
	d="
M33.006744,184.009445 
	C32.695965,183.875168 32.436710,183.674362 32.109451,183.189301 
	C32.068768,182.635147 32.247398,182.364655 32.741707,182.038696 
	C33.151443,181.964645 33.345291,182.011917 33.764450,182.385178 
	C33.662086,183.143921 33.334415,183.576675 33.006744,184.009445 
z"/>
<path fill="#F9F9F9" opacity="1.000000" stroke="none" 
	d="
M68.046852,289.053864 
	C67.024300,294.422607 66.001747,299.791382 64.658424,305.633423 
	C63.900612,306.749146 63.463577,307.391571 63.026543,308.033997 
	C63.026546,308.033997 63.016472,308.516510 62.694588,308.813263 
	C61.920483,309.745453 61.468258,310.380859 61.016029,311.016266 
	C61.016026,311.016266 60.999695,311.001221 60.710754,311.163818 
	C59.613041,312.367737 58.833012,313.432953 57.990879,314.446533 
	C51.885643,321.795044 42.491051,322.344757 35.994919,315.414795 
	C30.405081,309.451691 29.594278,301.520630 27.959171,293.963257 
	C27.587723,292.246460 26.681076,290.645447 26.020773,288.991150 
	C26.021278,287.283539 26.021786,285.575928 26.354374,283.363739 
	C26.794237,281.573486 26.902021,280.287811 27.009808,279.002136 
	C27.014721,277.940674 27.019634,276.879242 27.358910,275.414978 
	C28.128309,275.008118 28.563347,275.004059 29.390751,274.998474 
	C33.843262,273.218750 38.058456,271.722748 41.927700,269.597015 
	C47.931492,266.298615 56.256493,268.258698 58.636974,273.946259 
	C56.277927,273.130432 54.282269,272.363953 52.288017,271.593842 
	C47.314682,269.673248 38.732197,273.021240 35.663689,277.954468 
	C34.882854,277.971039 34.436707,277.982788 33.647652,278.045410 
	C32.218155,279.749542 31.131565,281.402863 30.083897,283.372375 
	C30.753223,284.781342 31.383631,285.874084 31.996161,287.380554 
	C30.200874,293.715118 30.823864,299.188019 35.000916,303.998779 
	C35.000000,304.000000 35.001850,303.998230 35.048706,304.344604 
	C37.111969,308.815094 40.694984,310.476135 45.431313,310.994568 
	C49.237995,309.996399 52.618538,308.997589 56.335384,307.932343 
	C58.041428,306.059937 59.948559,304.446655 60.678318,302.411255 
	C62.718445,296.720947 64.271538,290.856018 66.018021,284.789459 
	C66.016800,284.339020 66.014404,284.159149 66.008804,283.604095 
	C64.670158,280.820892 63.334713,278.412872 62.211189,275.784271 
	C64.614799,276.375793 66.806480,277.187897 69.003983,278.333252 
	C69.336487,279.443787 69.663177,280.221130 69.989868,280.998444 
	C69.978340,282.705536 69.966805,284.412659 69.637352,286.614136 
	C68.895241,287.756989 68.471046,288.405426 68.046852,289.053864 
z"/>
<path fill="#FAFAFA" opacity="1.000000" stroke="none" 
	d="
M68.998169,278.000000 
	C66.806480,277.187897 64.614799,276.375793 61.880013,275.781921 
	C60.895496,275.997620 60.454082,275.994995 60.003902,275.752655 
	C59.995140,275.512909 59.980682,275.033295 59.868092,274.816559 
	C59.557648,274.331085 59.306149,274.129120 59.001003,273.993958 
	C56.256493,268.258698 47.931492,266.298615 41.927700,269.597015 
	C38.058456,271.722748 33.843262,273.218750 29.399754,274.630249 
	C29.340822,272.838776 29.665258,271.414032 29.989695,269.989288 
	C29.989697,269.989288 30.000153,270.000000 30.279028,269.848114 
	C31.034956,268.792572 31.512009,267.888916 31.989056,266.985260 
	C32.302578,266.517578 32.616108,266.049896 33.308033,265.247864 
	C34.793884,263.614014 35.901337,262.314484 37.008785,261.014954 
	C37.522243,260.464539 38.035706,259.914124 39.034729,259.422272 
	C46.366196,257.625000 53.045818,257.065491 59.022980,261.982452 
	C59.838219,262.883850 60.653454,263.785217 61.889893,265.132751 
	C64.207176,267.385925 66.103256,269.192963 67.999344,271.000000 
	C68.622734,272.119110 69.246140,273.238251 69.686790,274.904572 
	C69.335419,276.301178 69.166794,277.150604 68.998169,278.000000 
z"/>
<path fill="#F1F1F1" opacity="1.000000" stroke="none" 
	d="
M26.010620,289.439178 
	C26.681076,290.645447 27.587723,292.246460 27.959171,293.963257 
	C29.594278,301.520630 30.405081,309.451691 35.994919,315.414795 
	C42.491051,322.344757 51.885643,321.795044 57.990879,314.446533 
	C58.833012,313.432953 59.613041,312.367737 60.719116,311.168823 
	C59.952614,316.737762 54.645042,322.087036 49.190434,322.930176 
	C42.987999,323.888916 35.966797,320.924866 33.143921,316.376678 
	C28.097952,308.246552 26.113531,299.328339 26.010620,289.439178 
z"/>
<path fill="#F1F1F1" opacity="1.000000" stroke="none" 
	d="
M58.969528,261.633423 
	C53.045818,257.065491 46.366196,257.625000 39.267422,259.259613 
	C39.004654,258.857483 38.994747,258.676575 38.959801,258.224487 
	C38.934769,257.953339 38.991661,258.000427 38.972393,257.969788 
	C42.504589,257.293182 46.033062,256.408173 49.613529,256.063843 
	C53.764004,255.664688 56.913742,257.584320 58.969528,261.633423 
z"/>
<path fill="#F1F1F1" opacity="1.000000" stroke="none" 
	d="
M67.955292,270.644287 
	C66.103256,269.192963 64.207176,267.385925 62.160896,265.277771 
	C65.682083,264.853882 66.944328,267.407196 67.955292,270.644287 
z"/>
<path fill="#F1F1F1" opacity="1.000000" stroke="none" 
	d="
M69.003983,278.333252 
	C69.166794,277.150604 69.335419,276.301178 69.743317,275.227112 
	C70.154022,276.826111 70.325462,278.649811 70.243385,280.735962 
	C69.663177,280.221130 69.336487,279.443787 69.003983,278.333252 
z"/>
<path fill="#F1F1F1" opacity="1.000000" stroke="none" 
	d="
M36.667664,261.054443 
	C35.901337,262.314484 34.793884,263.614014 33.347893,264.959564 
	C34.115082,263.701691 35.220810,262.397797 36.667664,261.054443 
z"/>
<path fill="#F1F1F1" opacity="1.000000" stroke="none" 
	d="
M29.654568,270.063629 
	C29.665258,271.414032 29.340822,272.838776 29.007385,274.631775 
	C28.563347,275.004059 28.128309,275.008118 27.367825,275.017029 
	C27.801397,273.393921 28.560419,271.765930 29.654568,270.063629 
z"/>
<path fill="#F1F1F1" opacity="1.000000" stroke="none" 
	d="
M26.756231,279.251923 
	C26.902021,280.287811 26.794237,281.573486 26.361168,282.937042 
	C26.191473,281.843842 26.347065,280.672791 26.756231,279.251923 
z"/>
<path fill="#F1F1F1" opacity="1.000000" stroke="none" 
	d="
M31.655563,267.058014 
	C31.512009,267.888916 31.034956,268.792572 30.273455,269.844574 
	C30.433359,269.038879 30.877712,268.084808 31.655563,267.058014 
z"/>
<path fill="#F1F1F1" opacity="1.000000" stroke="none" 
	d="
M61.326866,310.958557 
	C61.468258,310.380859 61.920483,309.745453 62.684921,309.054382 
	C62.543987,309.632782 62.090843,310.266815 61.326866,310.958557 
z"/>
<path fill="#F1F1F1" opacity="1.000000" stroke="none" 
	d="
M63.335602,307.969543 
	C63.463577,307.391571 63.900612,306.749146 64.644897,306.043152 
	C64.516312,306.621399 64.080490,307.263214 63.335602,307.969543 
z"/>
<path fill="#F1F1F1" opacity="1.000000" stroke="none" 
	d="
M68.352859,288.982269 
	C68.471046,288.405426 68.895241,287.756989 69.624481,287.040558 
	C69.505974,287.618591 69.082428,288.264648 68.352859,288.982269 
z"/>
<path fill="#D6B781" opacity="1.000000" stroke="none" 
	d="
M53.004440,362.005707 
	C49.610817,365.571960 48.737492,361.224670 48.391712,359.931305 
	C47.211094,355.515259 46.565815,350.923462 46.139179,346.359192 
	C46.017387,345.056183 47.181431,342.532776 48.009533,342.419220 
	C53.520649,341.663574 56.763992,338.177887 59.631184,333.951080 
	C60.126434,333.220947 61.119957,332.828827 62.039665,332.168274 
	C65.191338,335.708984 63.938255,339.090759 61.969433,342.587036 
	C60.249008,342.363708 58.878212,341.462585 57.948334,341.795013 
	C51.441067,344.121094 48.521591,356.392212 53.004440,362.005707 
z"/>
<path fill="#DEBE86" opacity="1.000000" stroke="none" 
	d="
M53.338608,361.957825 
	C48.521591,356.392212 51.441067,344.121094 57.948334,341.795013 
	C58.878212,341.462585 60.249008,342.363708 61.707050,342.847473 
	C61.997585,343.444916 61.996819,343.888885 61.753899,344.890564 
	C61.342220,346.300079 61.172703,347.151855 61.003181,348.003662 
	C60.671604,350.068542 60.340027,352.133453 59.683739,354.652466 
	C58.907265,355.739258 58.455494,356.371979 58.003731,357.004669 
	C56.560085,358.639771 55.116428,360.274872 53.338608,361.957825 
z"/>
<path fill="#B7B4B0" opacity="1.000000" stroke="none" 
	d="
M33.412163,331.028961 
	C31.291346,326.960205 33.746712,327.966278 35.758858,328.779846 
	C41.477955,331.092377 47.363602,331.993713 53.237129,329.907471 
	C56.419544,328.777069 59.265938,326.700684 62.606724,324.978088 
	C59.173901,332.585114 51.239273,339.182434 38.292862,333.117218 
	C36.797211,332.416565 35.279549,331.762878 33.412163,331.028961 
z"/>
<path fill="#D6B781" opacity="1.000000" stroke="none" 
	d="
M61.315178,347.944275 
	C61.172703,347.151855 61.342220,346.300079 61.753082,345.223511 
	C61.872005,345.960815 61.749588,346.922852 61.315178,347.944275 
z"/>
<path fill="#D6B781" opacity="1.000000" stroke="none" 
	d="
M58.315441,356.947083 
	C58.455494,356.371979 58.907265,355.739258 59.667732,355.045166 
	C59.526676,355.619019 59.076920,356.254242 58.315441,356.947083 
z"/>
<path fill="#F8F8F8" opacity="1.000000" stroke="none" 
	d="
M32.940506,184.418457 
	C33.334415,183.576675 33.662086,183.143921 34.057930,182.443878 
	C35.120995,182.095184 36.115887,182.013763 37.887894,181.954376 
	C40.128471,181.388000 41.591938,180.799606 43.055405,180.211212 
	C45.392559,180.181152 47.729713,180.151077 50.500641,180.175629 
	C62.652897,185.065369 59.960033,197.183472 63.861893,205.962646 
	C64.122200,206.548325 63.518147,207.518188 62.747978,208.653564 
	C57.027706,209.417999 55.570133,211.657593 57.719116,216.241470 
	C58.526772,217.964233 59.891315,219.425888 61.001976,221.006592 
	C59.388294,225.140045 55.984203,224.621811 53.114979,223.371216 
	C48.592804,221.400146 44.277637,218.892471 40.066643,216.300354 
	C38.446823,215.303253 36.704311,213.670471 36.127522,211.954315 
	C33.175823,203.172104 30.574167,194.269531 32.940506,184.418457 
z"/>
<path fill="#EDECEB" opacity="1.000000" stroke="none" 
	d="
M42.663742,180.150970 
	C41.591938,180.799606 40.128471,181.388000 38.264496,181.949738 
	C39.333355,181.312302 40.802719,180.701508 42.663742,180.150970 
z"/>
<path fill="#FDFDFD" opacity="1.000000" stroke="none" 
	d="
M61.403606,221.005646 
	C59.891315,219.425888 58.526772,217.964233 57.719116,216.241470 
	C55.570133,211.657593 57.027706,209.417999 62.597450,208.994781 
	C63.848194,210.506989 64.681320,212.022171 65.756920,213.768677 
	C65.844284,216.144775 65.689178,218.289566 65.278152,220.732574 
	C63.949890,221.022110 62.877563,221.013412 61.403606,221.005646 
z"/>
<path fill="#F5F5F5" opacity="1.000000" stroke="none" 
	d="
M35.001831,303.997559 
	C30.823864,299.188019 30.200874,293.715118 32.392097,287.389984 
	C35.476307,287.505524 38.160320,288.511261 40.814075,288.436890 
	C45.344349,288.309937 49.900845,287.743195 54.357872,286.895966 
	C57.015892,286.390686 59.505295,284.998383 62.308815,284.006500 
	C62.547131,284.008118 63.025394,283.997192 63.346222,284.000580 
	C64.094826,284.001099 64.522606,283.998230 65.085335,284.212158 
	C65.485809,284.639343 65.751328,284.849670 66.016846,285.060028 
	C64.271538,290.856018 62.718445,296.720947 60.678318,302.411255 
	C59.948559,304.446655 58.041428,306.059937 56.385326,307.567017 
	C57.133846,304.145844 58.127281,301.009033 59.213524,297.904724 
	C60.760170,293.484650 58.458221,291.971344 54.595032,292.057129 
	C51.135765,292.133972 47.686905,292.661957 44.232510,292.980652 
	C41.102657,293.269379 36.225327,292.475739 35.247208,294.074005 
	C33.752155,296.516968 34.948215,300.606842 35.001831,303.997559 
z"/>
<path fill="#F0F0F0" opacity="1.000000" stroke="none" 
	d="
M35.000916,303.998779 
	C34.948215,300.606842 33.752155,296.516968 35.247208,294.074005 
	C36.225327,292.475739 41.102657,293.269379 44.232510,292.980652 
	C47.686905,292.661957 51.135765,292.133972 54.595032,292.057129 
	C58.458221,291.971344 60.760170,293.484650 59.213524,297.904724 
	C58.127281,301.009033 57.133846,304.145844 56.049023,307.633453 
	C52.618538,308.997589 49.237995,309.996399 45.362564,310.667572 
	C43.910076,309.228638 42.952473,308.117371 42.398685,307.017731 
	C44.588917,307.347931 46.760227,308.456360 48.078381,307.813995 
	C50.518494,306.624908 52.901016,304.711121 54.408813,302.489288 
	C55.090710,301.484436 53.733543,297.507843 53.107834,297.460876 
	C48.988777,297.151917 44.698868,297.050018 40.729149,297.993469 
	C39.417236,298.305237 38.886719,301.904877 37.624275,304.001099 
	C36.500362,304.000092 35.751106,303.999176 35.001850,303.998230 
	C35.001850,303.998230 35.000000,304.000000 35.000916,303.998779 
z"/>
<path fill="#E0E0E0" opacity="1.000000" stroke="none" 
	d="
M62.070503,284.004883 
	C59.505295,284.998383 57.015892,286.390686 54.357872,286.895966 
	C49.900845,287.743195 45.344349,288.309937 40.814075,288.436890 
	C38.160320,288.511261 35.476307,287.505524 32.409973,286.976257 
	C31.383631,285.874084 30.753223,284.781342 30.478985,283.355225 
	C34.784115,283.164490 33.863865,280.250946 33.990562,277.994537 
	C34.436707,277.982788 34.882854,277.971039 35.789948,278.222229 
	C36.834045,278.990540 37.417191,279.495880 38.164059,280.307129 
	C41.110535,285.409058 44.997086,286.346588 49.452042,283.243561 
	C51.899380,281.538910 53.835564,279.100372 56.287720,276.840240 
	C57.709042,276.136292 58.844864,275.584778 59.980682,275.033295 
	C59.980682,275.033295 59.995140,275.512909 59.994461,276.084015 
	C59.989365,277.096893 59.984951,277.538635 59.648216,278.052917 
	C57.923721,279.741821 56.531555,281.358215 54.252003,284.004883 
	C57.864952,284.004883 59.967728,284.004883 62.070503,284.004883 
z"/>
<path fill="#F1F1F1" opacity="1.000000" stroke="none" 
	d="
M59.868092,274.816559 
	C58.844864,275.584778 57.709042,276.136292 56.286022,276.834351 
	C55.998821,276.980927 55.994164,276.966949 55.907772,276.604736 
	C50.504440,272.006317 42.704472,273.640991 38.000309,279.983582 
	C37.999191,279.990021 38.000336,280.001221 38.000336,280.001221 
	C37.417191,279.495880 36.834045,278.990540 36.124641,278.217407 
	C38.732197,273.021240 47.314682,269.673248 52.288017,271.593842 
	C54.282269,272.363953 56.277927,273.130432 58.636974,273.946259 
	C59.306149,274.129120 59.557648,274.331085 59.868092,274.816559 
z"/>
<path fill="#F5F5F5" opacity="1.000000" stroke="none" 
	d="
M35.048706,304.344604 
	C35.751106,303.999176 36.500362,304.000092 37.903145,304.145935 
	C39.702736,305.195923 40.848801,306.101013 41.994865,307.006104 
	C42.952473,308.117371 43.910076,309.228638 44.936432,310.666931 
	C40.694984,310.476135 37.111969,308.815094 35.048706,304.344604 
z"/>
<path fill="#F1F1F1" opacity="1.000000" stroke="none" 
	d="
M59.980537,277.980408 
	C59.984951,277.538635 59.989365,277.096893 60.003220,276.323761 
	C60.454082,275.994995 60.895496,275.997620 61.668091,276.002563 
	C63.334713,278.412872 64.670158,280.820892 65.743370,283.611328 
	C65.304222,283.994293 65.127296,283.994843 64.950378,283.995361 
	C64.522606,283.998230 64.094826,284.001099 63.330894,283.646545 
	C61.990005,281.519562 60.985268,279.749969 59.980537,277.980408 
z"/>
<path fill="#F1F1F1" opacity="1.000000" stroke="none" 
	d="
M33.647652,278.045410 
	C33.863865,280.250946 34.784115,283.164490 30.440065,283.039001 
	C31.131565,281.402863 32.218155,279.749542 33.647652,278.045410 
z"/>
<path fill="#E0E0E0" opacity="1.000000" stroke="none" 
	d="
M65.085335,284.212158 
	C65.127296,283.994843 65.304222,283.994293 65.746567,283.986542 
	C66.014404,284.159149 66.016800,284.339020 66.018021,284.789459 
	C65.751328,284.849670 65.485809,284.639343 65.085335,284.212158 
z"/>
<path fill="#ECECEC" opacity="1.000000" stroke="none" 
	d="
M59.648212,278.052917 
	C60.985268,279.749969 61.990005,281.519562 63.010071,283.643158 
	C63.025394,283.997192 62.547131,284.008118 62.308815,284.006500 
	C59.967728,284.004883 57.864952,284.004883 54.252003,284.004883 
	C56.531555,281.358215 57.923721,279.741821 59.648212,278.052917 
z"/>
<path fill="#EAEAEA" opacity="1.000000" stroke="none" 
	d="
M42.398682,307.017731 
	C40.848801,306.101013 39.702736,305.195923 38.277802,304.146027 
	C38.886719,301.904877 39.417236,298.305237 40.729149,297.993469 
	C44.698868,297.050018 48.988777,297.151917 53.107834,297.460876 
	C53.733543,297.507843 55.090710,301.484436 54.408813,302.489288 
	C52.901016,304.711121 50.518494,306.624908 48.078381,307.813995 
	C46.760227,308.456360 44.588917,307.347931 42.398682,307.017731 
z"/>
<path fill="#E9E9E9" opacity="1.000000" stroke="none" 
	d="
M56.000519,276.986816 
	C53.835564,279.100372 51.899380,281.538910 49.452042,283.243561 
	C44.997086,286.346588 41.110535,285.409058 38.164055,280.307129 
	C38.000336,280.001221 37.999191,279.990021 38.391403,279.989380 
	C44.439907,278.522644 49.674545,274.655060 55.994164,276.966949 
	C55.994164,276.966949 55.998821,276.980927 56.000519,276.986816 
z"/>
<path fill="#F0F0F0" opacity="1.000000" stroke="none" 
	d="
M55.907772,276.604736 
	C49.674545,274.655060 44.439907,278.522644 38.392525,279.982910 
	C42.704472,273.640991 50.504440,272.006317 55.907772,276.604736 
z"/>
</svg>