<svg version="1.1" id="Layer_1" xmlns="http://www.w3.org/2000/svg" xmlns:xlink="http://www.w3.org/1999/xlink" x="0px" y="0px"
	 width="100%" viewBox="0 0 91 405" enable-background="new 0 0 91 405" xml:space="preserve">
<path fill="#CFCFCF" opacity="1.000000" stroke="none" 
	d="
M15.704834,282.016846 
	C15.485832,281.275421 15.266832,280.533997 15.333658,279.322662 
	C17.451811,276.855316 18.171497,275.058014 14.747604,274.006134 
	C14.669322,272.213043 14.591040,270.419983 14.986414,268.422729 
	C16.539032,269.592773 17.511635,271.069946 18.720074,272.318909 
	C20.936172,274.609375 22.926790,277.778564 25.665359,278.763885 
	C31.177479,280.747162 37.123199,281.536041 42.904045,282.750946 
	C43.852829,282.950348 44.877460,282.755615 45.859680,282.834564 
	C52.413612,283.361328 58.095127,280.300537 64.165833,278.725464 
	C68.523308,277.594910 69.422607,275.261139 70.089317,271.645996 
	C70.336662,270.304810 71.880592,269.202728 72.833221,267.991608 
	C73.198822,283.352448 70.544266,298.180084 64.532516,312.584839 
	C63.058502,314.115875 62.028481,315.555511 60.752239,317.217224 
	C57.669579,320.289093 54.833141,323.138794 51.810753,325.796600 
	C51.082516,326.067261 50.540234,326.529877 49.631836,327.016785 
	C47.841702,327.353546 46.417690,327.666016 44.834831,327.784668 
	C44.119705,327.719055 43.563435,327.847229 42.632706,327.982361 
	C41.509529,327.972015 40.760803,327.954681 39.936428,327.614014 
	C38.556408,326.536774 37.252041,325.782928 35.598320,324.977844 
	C32.497581,321.954651 29.746202,318.982727 26.954247,315.677551 
	C25.584942,314.156158 27.012438,309.616211 22.786943,311.950836 
	C20.654037,303.549683 18.521130,295.148529 16.376381,286.236633 
	C16.133657,285.489258 15.902775,285.252594 15.671896,285.015930 
	C15.593145,284.556061 15.514391,284.096191 15.726782,283.261536 
	C15.913562,282.596802 15.809199,282.306824 15.704834,282.016846 
M48.001579,322.002045 
	C48.001579,322.002045 48.017830,322.022919 48.677345,322.023407 
	C49.117149,322.018860 49.556950,322.014313 50.417709,321.763214 
	C50.679913,321.559998 50.883331,321.309113 51.711903,320.908112 
	C57.766895,315.580872 63.027668,309.799438 63.678181,300.895264 
	C64.109032,300.257965 64.539886,299.620636 64.988800,298.192932 
	C65.003265,297.140930 65.017723,296.088928 65.742012,294.815491 
	C66.216713,292.210205 66.691406,289.604950 67.166100,286.999664 
	C64.817688,287.034149 62.372417,286.652191 60.136921,287.172150 
	C47.694038,290.066223 35.580112,289.751831 23.815536,284.288208 
	C22.948891,283.885742 21.796186,284.099182 20.776472,284.026306 
	C20.735672,285.110321 20.427614,286.267059 20.699375,287.266052 
	C22.023209,292.132599 23.223532,297.062134 25.000055,301.768372 
	C26.998709,307.062988 29.255503,312.319977 32.049316,317.223389 
	C33.077179,319.027405 35.958214,319.775482 37.993618,321.006042 
	C37.993618,321.006042 37.980183,321.023926 38.140797,321.687988 
	C39.762493,322.455414 41.384190,323.222839 43.670162,323.998718 
	C44.112724,323.997925 44.555286,323.997131 45.689659,323.985443 
	C46.467388,323.333923 47.245117,322.682373 48.001579,322.002045 
z"/>
<path fill="#D9D9D9" opacity="1.000000" stroke="none" 
	d="
M74.245010,214.990982 
	C74.342552,217.438187 74.440102,219.885391 74.242325,222.769775 
	C73.862183,223.282303 73.692284,223.391754 73.706573,223.427399 
	C73.787460,223.629257 73.912460,223.813431 74.022430,224.003632 
	C68.815483,239.043854 56.961632,243.899933 42.422253,244.519058 
	C38.112045,244.702591 33.784698,244.684509 29.471392,244.554138 
	C19.368633,244.248779 11.371476,234.283478 12.879349,224.397903 
	C14.424680,214.266724 15.509609,204.065613 17.029745,193.930176 
	C17.741299,189.185913 19.002733,184.524139 20.470898,179.409393 
	C25.570349,178.537033 24.073540,174.545624 25.171473,171.734070 
	C25.537741,171.007233 25.719063,170.487717 26.181950,169.981689 
	C26.650576,170.002792 26.837639,170.010422 27.020010,170.447037 
	C25.681913,179.587402 24.348511,188.298782 23.010527,197.383865 
	C23.003103,198.505051 23.000265,199.252533 22.756905,200.226944 
	C22.351139,201.307190 22.185896,202.160492 22.014763,203.386963 
	C22.003080,204.506546 21.997286,205.252975 21.756592,206.227280 
	C21.659344,207.638550 21.796993,208.821930 21.943752,210.328827 
	C21.948338,211.083801 21.943813,211.515274 21.580666,212.071030 
	C20.821108,214.468414 20.420172,216.741486 20.013653,219.387543 
	C19.998930,220.506470 19.989790,221.252426 19.783405,222.155487 
	C19.701939,222.876846 19.817713,223.441101 19.944290,224.404144 
	C19.948126,225.865891 19.941158,226.928833 19.641602,228.170166 
	C17.641466,232.336487 20.051918,237.291046 24.767281,239.068802 
	C34.884109,242.883057 45.052341,241.279984 54.859432,238.237686 
	C62.632629,235.826324 68.087784,230.335205 70.247223,221.727509 
	C70.326202,219.300827 70.158569,217.146652 69.989532,214.596222 
	C69.978790,213.142838 69.969452,212.085709 69.901749,210.697540 
	C68.930946,209.896255 68.018517,209.425995 67.084778,208.634460 
	C67.068207,207.884064 67.072952,207.454941 67.398277,206.933441 
	C67.484787,205.556015 67.250710,204.270950 67.014343,202.572083 
	C66.997627,200.779129 66.983208,199.399963 66.920898,197.710785 
	C66.262947,196.923004 65.652870,196.445206 65.037666,195.542725 
	C65.012947,193.418549 64.993362,191.719055 64.971474,189.673462 
	C64.326797,188.541428 63.684425,187.755508 63.036057,186.544128 
	C63.014843,184.416031 62.999626,182.713379 62.996784,180.750732 
	C63.019798,180.317535 63.030434,180.144348 63.420776,179.976349 
	C64.813080,179.990585 65.825684,179.999619 66.838280,180.008652 
	C67.228691,182.026047 67.619110,184.043442 68.120117,186.681015 
	C68.373154,187.608780 68.596031,187.838226 68.899345,187.989532 
	C68.944550,189.018768 68.989754,190.048004 69.133804,191.681366 
	C69.371422,192.579132 69.578522,192.811951 69.853973,192.983994 
	C69.907425,193.432053 69.960869,193.880127 69.763641,194.909912 
	C70.010010,196.661179 70.507057,197.830719 71.004112,199.000275 
	C71.532036,201.117767 72.059967,203.235245 72.603394,205.817474 
	C72.841774,206.515793 73.064674,206.749390 73.287575,206.982986 
	C73.397102,208.720764 73.506638,210.458557 73.466881,212.674332 
	C73.031570,213.446976 72.745560,213.741623 72.459549,214.036270 
	C73.054703,214.354507 73.649857,214.672745 74.245010,214.990982 
z"/>
<path fill="#CEB180" opacity="1.000000" stroke="none" 
	d="
M59.037384,335.010223 
	C57.562382,343.435883 56.152771,351.873749 54.581924,360.281525 
	C53.902172,363.919830 52.651131,367.458435 52.077049,371.108032 
	C50.798389,379.236847 41.545269,380.984314 37.150379,377.558258 
	C34.826485,375.746643 33.036800,372.473480 32.333103,369.541626 
	C31.275990,365.137451 31.384409,360.453491 31.003418,355.057709 
	C30.047144,348.284912 29.163458,342.328156 28.058554,336.412750 
	C27.826157,335.168549 26.781250,334.076111 26.110735,332.913727 
	C26.081675,330.143494 26.052614,327.373230 26.196682,323.926086 
	C27.444416,323.849091 28.741795,324.234192 29.559275,325.082031 
	C38.017784,333.854523 46.349430,334.526886 56.331398,327.331879 
	C57.548733,326.454407 59.361294,326.402740 60.897995,325.968323 
	C60.844906,326.579681 60.791821,327.191071 60.186478,328.167847 
	C59.435276,330.692261 59.236332,332.851227 59.037384,335.010223 
M38.505341,368.694031 
	C43.026516,372.975342 47.246098,372.491913 48.612225,367.136627 
	C50.426907,360.022919 51.646423,352.753387 52.996861,345.527496 
	C53.436974,343.172607 53.486313,340.744659 53.714378,338.350128 
	C53.345352,338.061676 52.976330,337.773224 52.607304,337.484772 
	C46.442291,343.734283 40.143124,341.135742 33.416706,337.567474 
	C33.416706,341.612274 32.949268,344.755920 33.510887,347.703491 
	C34.808331,354.513031 36.604626,361.227509 38.505341,368.694031 
z"/>
<path fill="#D8D8D8" opacity="1.000000" stroke="none" 
	d="
M72.860550,267.633667 
	C71.880592,269.202728 70.336662,270.304810 70.089317,271.645996 
	C69.422607,275.261139 68.523308,277.594910 64.165833,278.725464 
	C58.095127,280.300537 52.413612,283.361328 45.859680,282.834564 
	C44.877460,282.755615 43.852829,282.950348 42.904045,282.750946 
	C37.123199,281.536041 31.177479,280.747162 25.665359,278.763885 
	C22.926790,277.778564 20.936172,274.609375 18.720074,272.318909 
	C17.511635,271.069946 16.539032,269.592773 15.133914,268.070312 
	C14.461273,263.100647 18.388590,259.193817 25.335478,258.039459 
	C28.881203,257.450287 32.545547,257.574982 36.753288,257.361328 
	C37.928295,257.093567 38.506290,256.841522 39.084282,256.589478 
	C46.288544,256.927124 53.536205,256.890991 60.683308,257.720917 
	C66.382629,258.382660 69.904236,262.690277 72.860550,267.633667 
M54.158207,262.036072 
	C46.278625,260.857086 38.476089,259.849152 30.636353,262.764557 
	C27.305422,264.003265 24.258453,265.636261 25.273680,269.156555 
	C25.931339,271.436981 29.090391,274.519592 31.217945,274.591278 
	C40.888355,274.917084 50.595261,274.393219 60.273697,273.883575 
	C61.237095,273.832855 62.767483,271.875732 62.889870,270.685669 
	C63.470215,265.042542 59.254116,263.502716 54.158207,262.036072 
z"/>
<path fill="#D4BB8D" opacity="1.000000" stroke="none" 
	d="
M25.900385,169.968216 
	C25.719063,170.487717 25.537741,171.007233 24.800209,171.730835 
	C23.751896,171.888000 23.259789,171.841064 22.767681,171.794128 
	C23.512407,165.158356 24.257132,158.522598 25.427223,151.313110 
	C26.219707,149.547424 26.796007,148.376419 26.918110,147.159836 
	C27.478521,141.576126 27.935432,135.981567 28.385958,130.387390 
	C29.258827,119.548912 30.102463,108.708092 30.958214,97.868240 
	C31.646263,93.190796 32.334312,88.513344 33.417568,83.360085 
	C34.195210,80.220207 34.577644,77.556152 34.960083,74.892090 
	C35.201977,72.534058 35.443871,70.176033 36.107754,67.363907 
	C37.691406,66.273003 38.853069,65.636200 40.014740,65.381439 
	C40.316185,67.178123 40.617619,68.592751 40.918938,70.323761 
	C40.909698,71.061867 40.900570,71.483597 40.545589,72.022797 
	C36.663593,78.712349 35.933159,85.724915 36.925842,93.328094 
	C36.926544,94.075798 36.925022,94.503067 36.565216,95.064064 
	C35.819157,95.884148 35.153820,96.543564 35.084240,97.260780 
	C33.377754,114.850670 31.734522,132.446701 30.064789,150.411377 
	C30.038084,151.521149 30.026571,152.261169 29.751385,153.300720 
	C28.973377,157.704163 28.459042,161.808075 27.742264,166.180908 
	C26.993341,167.622635 26.446863,168.795425 25.900385,169.968216 
z"/>
<path fill="#B5B2AC" opacity="1.000000" stroke="none" 
	d="
M60.962784,325.582428 
	C59.361294,326.402740 57.548733,326.454407 56.331398,327.331879 
	C46.349430,334.526886 38.017784,333.854523 29.559275,325.082031 
	C28.741795,324.234192 27.444416,323.849091 26.218975,323.457886 
	C25.491419,321.047607 24.914700,318.428650 24.489548,315.472961 
	C25.425690,315.427765 26.210260,315.719299 26.994827,316.010803 
	C29.746202,318.982727 32.497581,321.954651 35.670738,325.322296 
	C37.399040,326.457794 38.705563,327.197601 40.012081,327.937378 
	C40.760803,327.954681 41.509529,327.972015 42.788315,328.183472 
	C43.876812,328.244568 44.435246,328.111511 44.993683,327.978455 
	C46.417690,327.666016 47.841702,327.353546 49.924305,326.988739 
	C51.054169,326.620422 51.525440,326.304474 51.996708,325.988525 
	C54.833141,323.138794 57.669579,320.289093 61.105549,317.225769 
	C62.176022,317.026520 62.646961,317.040833 63.117905,317.055176 
	C62.421127,319.768951 61.724350,322.482727 60.962784,325.582428 
z"/>
<path fill="#D4BB8D" opacity="1.000000" stroke="none" 
	d="
M58.821960,90.999611 
	C58.873878,92.397163 58.925797,93.794708 58.719093,95.832581 
	C58.930641,97.315109 59.400814,98.157303 59.870987,98.999504 
	C59.908657,99.170395 59.946323,99.341278 59.700325,100.068756 
	C58.584652,103.762535 57.752647,106.899712 56.556763,109.898605 
	C55.838413,109.232582 55.224293,108.730751 55.168663,108.173195 
	C54.405437,100.523621 53.555237,92.876205 53.095287,85.206139 
	C52.912678,82.161034 53.637421,79.061508 54.292953,76.074631 
	C55.701611,77.774879 56.766376,79.387245 57.831142,80.999619 
	C57.873760,81.170624 57.916378,81.341629 57.677719,82.086838 
	C57.871616,85.440559 58.346786,88.220085 58.821960,90.999611 
z"/>
<path fill="#D5BC8E" opacity="1.000000" stroke="none" 
	d="
M62.833710,138.021622 
	C63.224304,139.871872 63.834644,141.706390 63.968346,143.575012 
	C64.627113,152.782104 65.159523,161.998230 65.564835,171.794998 
	C64.245461,172.591278 63.097786,172.803741 61.836334,172.710587 
	C61.162777,171.265656 60.603001,170.126312 60.396603,168.882538 
	C62.807098,164.693192 64.074455,160.660522 59.966728,156.587402 
	C59.954002,155.137741 59.944405,154.083832 60.201683,152.739502 
	C61.256947,147.639923 62.045330,142.830780 62.833710,138.021622 
z"/>
<path fill="#D4C5AF" opacity="1.000000" stroke="none" 
	d="
M30.600946,98.050400 
	C30.102463,108.708092 29.258827,119.548912 28.385958,130.387390 
	C27.935432,135.981567 27.478521,141.576126 26.918110,147.159836 
	C26.796007,148.376419 26.219707,149.547424 25.504896,150.870209 
	C25.750055,139.976868 26.082388,128.930222 27.033319,117.937073 
	C27.605209,111.325806 29.141041,104.797920 30.600946,98.050400 
z"/>
<path fill="#D4BB8D" opacity="1.000000" stroke="none" 
	d="
M37.866158,57.946056 
	C37.866158,57.946056 38.012066,57.471806 38.442680,57.216736 
	C40.183212,54.896938 41.493134,52.832207 42.803051,50.767479 
	C42.803051,50.767479 42.844219,50.872105 43.048607,50.748314 
	C43.466190,50.317719 43.679390,50.010918 43.892586,49.704117 
	C44.400490,49.476959 44.908390,49.249798 46.000885,49.291443 
	C52.577534,50.948757 55.345104,56.850330 52.575264,62.939159 
	C50.542912,59.195065 48.844692,55.557201 47.146469,51.919334 
	C46.639652,52.055832 46.132835,52.192326 45.626019,52.328823 
	C45.410931,53.545002 45.195843,54.761185 44.990242,55.987900 
	C44.999733,55.998440 44.980698,55.982170 44.671364,56.044731 
	C43.930458,56.751278 43.498894,57.395256 43.048824,58.444344 
	C42.986885,60.200138 42.943443,61.550827 42.546829,62.924561 
	C41.485683,62.977154 40.777714,63.006695 39.745934,62.961342 
	C38.903469,61.239651 38.384815,59.592854 37.866158,57.946056 
z"/>
<path fill="#D4BB8D" opacity="1.000000" stroke="none" 
	d="
M61.829437,116.999565 
	C61.875507,120.703796 61.921577,124.408028 61.690239,128.841431 
	C60.280216,130.713104 59.147598,131.855606 57.751335,132.680939 
	C57.311138,125.905632 57.134586,119.447510 57.285721,113.055962 
	C59.018749,114.414879 60.424095,115.707222 61.829437,116.999565 
z"/>
<path fill="#D4BB8D" opacity="1.000000" stroke="none" 
	d="
M62.900295,137.622635 
	C62.045330,142.830780 61.256947,147.639923 59.833504,152.602386 
	C58.805637,147.170517 58.412827,141.585373 58.361740,135.988785 
	C60.077911,135.318481 61.452366,134.659607 62.826820,134.000748 
	C62.873512,135.075043 62.920197,136.149353 62.900295,137.622635 
z"/>
<path fill="#D5BC8E" opacity="1.000000" stroke="none" 
	d="
M52.909397,63.045387 
	C55.345104,56.850330 52.577534,50.948757 46.303482,49.332714 
	C50.965382,46.914963 53.552799,48.083275 54.673546,53.099831 
	C55.494984,56.776649 56.209396,60.477371 56.505211,64.583420 
	C55.008915,64.995018 53.978920,64.990631 52.949791,64.662506 
	C52.936901,63.907635 52.923149,63.476513 52.909397,63.045387 
z"/>
<path fill="#D9C5A8" opacity="1.000000" stroke="none" 
	d="
M26.053257,333.350922 
	C26.781250,334.076111 27.826157,335.168549 28.058554,336.412750 
	C29.163458,342.328156 30.047144,348.284912 30.985008,354.669250 
	C30.198069,353.159302 29.149178,351.266418 28.729540,349.243042 
	C27.667589,344.122650 26.888294,338.943634 26.053257,333.350922 
z"/>
<path fill="#D5BC8E" opacity="1.000000" stroke="none" 
	d="
M61.905365,116.578445 
	C60.424095,115.707222 59.018749,114.414879 57.287331,112.686615 
	C56.947723,111.512764 56.934181,110.774826 56.920643,110.036888 
	C57.752647,106.899712 58.584652,103.762535 59.645164,100.325378 
	C60.576214,105.402710 61.278755,110.780014 61.905365,116.578445 
z"/>
<path fill="#D4BB8D" opacity="1.000000" stroke="none" 
	d="
M52.948925,64.986252 
	C53.978920,64.990631 55.008915,64.995018 56.423531,64.999077 
	C56.859901,67.049065 56.911644,69.099365 56.626999,71.726486 
	C55.505791,72.544975 54.720974,72.786659 53.584789,72.906281 
	C53.138588,70.184906 53.043758,67.585579 52.948925,64.986252 
z"/>
<path fill="#D1D0CF" opacity="1.000000" stroke="none" 
	d="
M61.950111,173.016190 
	C63.097786,172.803741 64.245461,172.591278 65.633148,172.213562 
	C66.246864,174.433273 66.620560,176.818237 66.916275,179.605927 
	C65.825684,179.999619 64.813080,179.990585 63.413868,179.648087 
	C63.026627,178.876099 63.026001,178.437592 63.214470,177.812195 
	C62.950974,177.073593 62.498383,176.521851 61.922112,175.712250 
	C61.848991,174.641632 61.899551,173.828918 61.950111,173.016190 
z"/>
<path fill="#D4D2CF" opacity="1.000000" stroke="none" 
	d="
M22.406868,171.884369 
	C23.259789,171.841064 23.751896,171.888000 24.615265,171.938171 
	C24.073540,174.545624 25.570349,178.537033 20.545998,179.000732 
	C20.792122,176.663300 21.419088,174.318939 22.406868,171.884369 
z"/>
<path fill="#D5BC8E" opacity="1.000000" stroke="none" 
	d="
M53.936157,73.028336 
	C54.720974,72.786659 55.505791,72.544975 56.568600,72.163055 
	C57.225204,74.729935 57.603813,77.437057 57.906784,80.571899 
	C56.766376,79.387245 55.701611,77.774879 54.298023,75.704697 
	C53.951519,74.507370 53.943836,73.767853 53.936157,73.028336 
z"/>
<path fill="#D5BC8E" opacity="1.000000" stroke="none" 
	d="
M37.533859,58.127953 
	C38.384815,59.592854 38.903469,61.239651 39.731758,63.287952 
	C40.032505,64.126099 40.023621,64.562744 40.014732,64.999390 
	C38.853069,65.636200 37.691406,66.273003 36.198143,66.978416 
	C36.311550,64.134636 36.756550,61.222240 37.533859,58.127953 
z"/>
<path fill="#D5BC8E" opacity="1.000000" stroke="none" 
	d="
M62.903687,133.625488 
	C61.452366,134.659607 60.077911,135.318481 58.352837,135.613586 
	C58.006474,134.499252 58.010731,133.748672 58.014984,132.998108 
	C59.147598,131.855606 60.280216,130.713104 61.625893,129.300186 
	C62.219486,130.436584 62.600021,131.843414 62.903687,133.625488 
z"/>
<path fill="#C9C9C9" opacity="1.000000" stroke="none" 
	d="
M26.954250,315.677551 
	C26.210260,315.719299 25.425690,315.427765 24.330498,315.066406 
	C23.513601,314.173859 23.007326,313.351166 22.643997,312.239685 
	C27.012438,309.616211 25.584942,314.156158 26.954250,315.677551 
z"/>
<path fill="#D5BC8E" opacity="1.000000" stroke="none" 
	d="
M58.898975,90.576401 
	C58.346786,88.220085 57.871616,85.440559 57.621803,82.345207 
	C58.223438,84.737312 58.599716,87.445251 58.898975,90.576401 
z"/>
<path fill="#D5BC8E" opacity="1.000000" stroke="none" 
	d="
M34.600925,75.062584 
	C34.577644,77.556152 34.195210,80.220207 33.489334,82.942024 
	C33.524513,80.410881 33.883141,77.821976 34.600925,75.062584 
z"/>
<path fill="#D5BC8E" opacity="1.000000" stroke="none" 
	d="
M42.454231,50.824348 
	C41.493134,52.832207 40.183212,54.896938 38.519798,56.980927 
	C39.479336,54.960537 40.792374,52.920879 42.454231,50.824348 
z"/>
<path fill="#D8D8D8" opacity="1.000000" stroke="none" 
	d="
M14.621657,274.360352 
	C18.171497,275.058014 17.451811,276.855316 15.278254,278.937134 
	C14.789918,277.585876 14.642814,276.150238 14.621657,274.360352 
z"/>
<path fill="#C9C9C9" opacity="1.000000" stroke="none" 
	d="
M63.390732,316.937683 
	C62.646961,317.040833 62.176022,317.026520 61.351772,317.003662 
	C62.028481,315.555511 63.058502,314.115875 64.378754,312.950439 
	C64.668991,313.224579 64.620277,313.296936 64.418816,313.754150 
	C64.158394,314.513153 64.099442,314.814911 64.040497,315.116638 
	C63.914852,315.684509 63.789207,316.252350 63.390732,316.937683 
z"/>
<path fill="#B5B2AC" opacity="1.000000" stroke="none" 
	d="
M59.334667,334.742279 
	C59.236332,332.851227 59.435276,330.692261 59.901260,328.305756 
	C59.989517,330.210266 59.810734,332.342316 59.334667,334.742279 
z"/>
<path fill="#E2E2E2" opacity="1.000000" stroke="none" 
	d="
M71.065300,198.640228 
	C70.507057,197.830719 70.010010,196.661179 69.746857,195.249969 
	C70.362663,196.098938 70.744576,197.189545 71.065300,198.640228 
z"/>
<path fill="#E2E2E2" opacity="1.000000" stroke="none" 
	d="
M74.375092,214.728363 
	C73.649857,214.672745 73.054703,214.354507 72.459549,214.036270 
	C72.745560,213.741623 73.031570,213.446976 73.573334,213.100281 
	C74.054443,213.520737 74.279800,213.993256 74.375092,214.728363 
z"/>
<path fill="#D5BC8E" opacity="1.000000" stroke="none" 
	d="
M59.942673,98.670349 
	C59.400814,98.157303 58.930641,97.315109 58.660156,96.249863 
	C59.244686,96.798271 59.629524,97.569733 59.942673,98.670349 
z"/>
<path fill="#B6B6B6" opacity="1.000000" stroke="none" 
	d="
M38.805973,256.439636 
	C38.506290,256.841522 37.928295,257.093567 37.185661,257.211212 
	C37.523235,256.814453 38.025448,256.552155 38.805973,256.439636 
z"/>
<path fill="#D8D8D8" opacity="1.000000" stroke="none" 
	d="
M15.563137,285.215759 
	C15.902775,285.252594 16.133657,285.489258 16.256346,285.833954 
	C15.810558,285.906647 15.579303,285.731171 15.563137,285.215759 
z"/>
<path fill="#D8D8D8" opacity="1.000000" stroke="none" 
	d="
M15.602489,282.258118 
	C15.809199,282.306824 15.913562,282.596802 15.863438,282.933472 
	C15.639348,282.819885 15.569745,282.659607 15.602489,282.258118 
z"/>
<path fill="#E2E2E2" opacity="1.000000" stroke="none" 
	d="
M73.393906,206.786346 
	C73.064674,206.749390 72.841774,206.515793 72.721420,206.174957 
	C73.157104,206.102158 73.382530,206.276154 73.393906,206.786346 
z"/>
<path fill="#E2E2E2" opacity="1.000000" stroke="none" 
	d="
M69.889069,192.714294 
	C69.578522,192.811951 69.371422,192.579132 69.138390,192.068680 
	C69.337471,192.049423 69.630821,192.247009 69.889069,192.714294 
z"/>
<path fill="#E2E2E2" opacity="1.000000" stroke="none" 
	d="
M68.935936,187.709106 
	C68.596031,187.838226 68.373154,187.608780 68.137817,187.075775 
	C68.354134,187.043121 68.663330,187.235916 68.935936,187.709106 
z"/>
<path fill="#CFCFCF" opacity="1.000000" stroke="none" 
	d="
M64.323448,315.006165 
	C64.099442,314.814911 64.158394,314.513153 64.391113,313.782349 
	C64.578712,313.867401 64.592552,314.381561 64.323448,315.006165 
z"/>
<path fill="#D5BC8E" opacity="1.000000" stroke="none" 
	d="
M43.611610,49.793945 
	C43.679390,50.010918 43.466190,50.317719 42.992699,50.742390 
	C42.931816,50.534767 43.131222,50.209270 43.611610,49.793945 
z"/>
<path fill="#E2E2E2" opacity="1.000000" stroke="none" 
	d="
M74.218231,223.808533 
	C73.912460,223.813431 73.787460,223.629257 73.706573,223.427399 
	C73.692284,223.391754 73.862183,223.282303 74.108383,223.143372 
	C74.317841,223.257675 74.365929,223.435562 74.218231,223.808533 
z"/>
<path fill="#DEDEDE" opacity="1.000000" stroke="none" 
	d="
M37.993958,321.005219 
	C35.958214,319.775482 33.077179,319.027405 32.049316,317.223389 
	C29.255503,312.319977 26.998709,307.062988 25.000055,301.768372 
	C23.223532,297.062134 22.023209,292.132599 20.699375,287.266052 
	C20.427614,286.267059 20.735672,285.110321 20.776474,284.026306 
	C21.796186,284.099182 22.948891,283.885742 23.815536,284.288208 
	C35.580112,289.751831 47.694038,290.066223 60.136921,287.172150 
	C62.372417,286.652191 64.817688,287.034149 67.166100,286.999664 
	C66.691406,289.604950 66.216713,292.210205 65.364601,294.546997 
	C64.503922,291.970520 64.315071,289.335388 60.727516,290.663788 
	C50.017658,294.629395 39.349022,293.853943 28.692469,290.400909 
	C27.364925,289.970703 25.965164,289.763367 23.639244,289.234619 
	C24.227036,291.714966 24.616283,293.357483 25.053822,295.350220 
	C26.389637,297.479675 27.677160,299.258942 28.974949,301.367432 
	C29.318275,302.465424 29.651339,303.234192 29.990641,304.334290 
	C30.009588,305.107330 30.022297,305.549011 29.811214,306.213989 
	C30.220186,311.470886 32.907448,315.186066 37.130745,318.200531 
	C37.458767,318.661163 37.708164,318.857849 38.002235,319.330139 
	C37.998016,320.111847 37.995987,320.558533 37.993958,321.005219 
z"/>
<path fill="#E6E6E6" opacity="1.000000" stroke="none" 
	d="
M25.005531,295.000000 
	C24.616283,293.357483 24.227036,291.714966 23.639244,289.234619 
	C25.965164,289.763367 27.364925,289.970703 28.692469,290.400909 
	C39.349022,293.853943 50.017658,294.629395 60.727516,290.663788 
	C64.315071,289.335388 64.503922,291.970520 65.009689,294.657715 
	C65.017723,296.088928 65.003265,297.140930 64.611923,298.592651 
	C63.497795,299.001190 62.760540,299.010010 61.951523,298.649780 
	C60.246876,297.686188 58.618977,296.603455 56.980186,296.586700 
	C51.576126,296.531464 46.152641,297.197357 40.766033,296.948822 
	C35.493786,296.705566 30.257563,295.681396 25.005531,295.000000 
z"/>
<path fill="#E7E7E7" opacity="1.000000" stroke="none" 
	d="
M37.993790,321.005615 
	C37.995987,320.558533 37.998016,320.111847 38.404408,319.345825 
	C46.476151,320.787140 48.177517,320.088013 51.171898,313.731262 
	C52.887585,312.297913 54.442574,311.145660 56.250374,309.998291 
	C56.671730,310.006531 56.840271,310.009827 56.958447,310.363464 
	C53.944660,314.483459 50.981243,318.253204 48.017830,322.022919 
	C48.017830,322.022919 48.001579,322.002045 47.664089,322.016602 
	C46.550350,322.686249 45.774101,323.341278 44.997849,323.996338 
	C44.555286,323.997131 44.112724,323.997925 43.259514,323.661774 
	C41.225975,322.557861 39.603081,321.790894 37.980186,321.023926 
	C37.980183,321.023926 37.993618,321.006042 37.993790,321.005615 
z"/>
<path fill="#DFDFDF" opacity="1.000000" stroke="none" 
	d="
M48.347588,322.023163 
	C50.981243,318.253204 53.944660,314.483459 57.245956,310.185669 
	C58.717323,307.768066 59.850807,305.878479 61.193615,303.866730 
	C61.664082,303.540405 61.856922,303.284729 61.982124,302.646698 
	C61.994362,301.874786 62.005943,301.433746 62.282204,301.000610 
	C62.723167,301.018066 62.899445,301.027527 63.075722,301.036987 
	C63.027668,309.799438 57.766895,315.580872 51.157455,321.080505 
	C50.338779,321.455414 50.136696,321.707703 49.996754,322.009766 
	C49.556950,322.014313 49.117149,322.018860 48.347588,322.023163 
z"/>
<path fill="#C9C9C9" opacity="1.000000" stroke="none" 
	d="
M39.936428,327.614014 
	C38.705563,327.197601 37.399040,326.457794 36.020100,325.373535 
	C37.252041,325.782928 38.556408,326.536774 39.936428,327.614014 
z"/>
<path fill="#DEDEDE" opacity="1.000000" stroke="none" 
	d="
M38.060493,321.355957 
	C39.603081,321.790894 41.225975,322.557861 42.927380,323.657532 
	C41.384190,323.222839 39.762493,322.455414 38.060493,321.355957 
z"/>
<path fill="#DEDEDE" opacity="1.000000" stroke="none" 
	d="
M63.376953,300.966125 
	C62.899445,301.027527 62.723167,301.018066 62.272034,301.006073 
	C61.997185,301.003571 61.978794,301.012085 61.990089,300.679810 
	C62.008682,299.904633 62.015984,299.461731 62.023285,299.018860 
	C62.760540,299.010010 63.497795,299.001190 64.602890,298.987854 
	C64.539886,299.620636 64.109032,300.257965 63.376953,300.966125 
z"/>
<path fill="#DEDEDE" opacity="1.000000" stroke="none" 
	d="
M45.343758,323.990906 
	C45.774101,323.341278 46.550350,322.686249 47.674721,322.031006 
	C47.245117,322.682373 46.467388,323.333923 45.343758,323.990906 
z"/>
<path fill="#C9C9C9" opacity="1.000000" stroke="none" 
	d="
M51.810753,325.796600 
	C51.525440,326.304474 51.054169,326.620422 50.290428,326.964417 
	C50.540234,326.529877 51.082516,326.067261 51.810753,325.796600 
z"/>
<path fill="#C9C9C9" opacity="1.000000" stroke="none" 
	d="
M44.834827,327.784668 
	C44.435246,328.111511 43.876812,328.244568 43.162773,328.176514 
	C43.563435,327.847229 44.119705,327.719055 44.834827,327.784668 
z"/>
<path fill="#DEDEDE" opacity="1.000000" stroke="none" 
	d="
M50.207230,321.886475 
	C50.136696,321.707703 50.338779,321.455414 50.815483,321.131744 
	C50.883331,321.309113 50.679913,321.559998 50.207230,321.886475 
z"/>
<path fill="#F8F8F8" opacity="1.000000" stroke="none" 
	d="
M67.077698,207.025803 
	C67.072952,207.454941 67.068207,207.884064 67.053223,208.971527 
	C67.040443,210.079559 67.037910,210.529266 67.028656,211.348022 
	C67.667847,212.812561 68.313744,213.908051 68.965675,215.419281 
	C68.978401,217.220108 68.985092,218.605209 68.659683,220.068878 
	C65.475700,223.258682 63.152557,227.268799 59.674133,229.314835 
	C48.657082,235.795120 36.279945,233.996597 24.245785,233.753220 
	C23.489628,233.737930 22.756050,232.606293 22.455910,231.995377 
	C34.942909,232.009583 35.918774,230.759460 33.012516,219.049438 
	C32.932545,218.727249 32.910591,218.390244 32.824856,218.069977 
	C30.986053,211.201324 28.201490,210.335968 22.745632,214.771637 
	C22.319695,213.673096 22.129492,212.809906 21.939287,211.946732 
	C21.943813,211.515274 21.948338,211.083801 22.191589,210.106110 
	C22.284040,208.373047 22.137766,207.186218 21.991491,205.999390 
	C21.997286,205.252975 22.003080,204.506546 22.321728,203.322571 
	C22.755529,201.923325 22.876478,200.961670 22.997427,200.000000 
	C23.000265,199.252533 23.003103,198.505051 23.370167,197.292999 
	C24.465645,195.615433 25.588322,194.484558 25.862917,193.175766 
	C27.345848,186.107681 28.634541,178.998444 29.954451,171.896759 
	C30.371977,169.650299 30.679249,167.383316 31.027021,165.090668 
	C31.017067,165.055588 30.980379,164.995468 31.310951,164.965546 
	C32.531269,164.055206 33.421017,163.174789 34.754864,162.268997 
	C39.446613,162.210495 43.694267,162.177353 48.041161,162.465164 
	C50.562370,165.152283 53.754890,167.121414 55.226433,169.977295 
	C57.456203,174.304688 58.374428,179.291550 60.095428,183.906662 
	C60.662560,185.427521 61.990292,186.664719 62.974743,188.358978 
	C62.980755,189.123611 62.982254,189.560883 62.734901,190.277679 
	C63.983974,195.712494 65.481903,200.867813 66.997765,206.274445 
	C67.036369,206.692444 67.057030,206.859131 67.077698,207.025803 
z"/>
<path fill="#EBEBEB" opacity="1.000000" stroke="none" 
	d="
M22.011971,231.994034 
	C22.756050,232.606293 23.489628,233.737930 24.245785,233.753220 
	C36.279945,233.996597 48.657082,235.795120 59.674133,229.314835 
	C63.152557,227.268799 65.475700,223.258682 68.698830,220.359985 
	C69.380257,221.048355 69.690430,221.524170 70.000610,222.000000 
	C68.087784,230.335205 62.632629,235.826324 54.859432,238.237686 
	C45.052341,241.279984 34.884109,242.883057 24.767281,239.068802 
	C20.051918,237.291046 17.641466,232.336487 19.909756,228.173004 
	C20.648504,227.997620 20.826509,227.997772 21.004021,228.359680 
	C21.339678,229.812317 21.675823,230.903168 22.011971,231.994034 
z"/>
<path fill="#EBEBEB" opacity="1.000000" stroke="none" 
	d="
M31.036976,165.125732 
	C30.679249,167.383316 30.371977,169.650299 29.954451,171.896759 
	C28.634541,178.998444 27.345848,186.107681 25.862917,193.175766 
	C25.588322,194.484558 24.465645,195.615433 23.374750,196.919281 
	C24.348511,188.298782 25.681913,179.587402 27.360088,170.346664 
	C28.155884,168.539703 28.606905,167.262100 29.136528,165.938095 
	C29.215130,165.891678 29.377998,165.806061 29.447670,165.744080 
	C29.517344,165.682114 29.738281,165.390839 30.058455,165.302521 
	C30.598078,165.184708 30.817526,165.155228 31.036976,165.125732 
z"/>
<path fill="#EBEBEB" opacity="1.000000" stroke="none" 
	d="
M62.970230,188.031631 
	C61.990292,186.664719 60.662560,185.427521 60.095428,183.906662 
	C58.374428,179.291550 57.456203,174.304688 55.226433,169.977295 
	C53.754890,167.121414 50.562370,165.152283 48.426575,162.421982 
	C51.225014,163.061111 53.737278,164.064377 56.348122,165.322556 
	C56.996326,166.315857 57.545952,167.054260 58.072350,168.204193 
	C59.694214,172.747406 61.339314,176.879074 62.984409,181.010727 
	C62.999626,182.713379 63.014843,184.416031 63.017303,186.809753 
	C62.993107,187.677765 62.981670,187.854706 62.970230,188.031631 
z"/>
<path fill="#EBEBEB" opacity="1.000000" stroke="none" 
	d="
M66.979828,206.023132 
	C65.481903,200.867813 63.983974,195.712494 63.066978,190.279053 
	C64.089867,190.007156 64.531822,190.013367 64.973778,190.019577 
	C64.993362,191.719055 65.012947,193.418549 65.081818,195.854828 
	C65.743668,197.068008 66.356224,197.544403 66.968788,198.020782 
	C66.983208,199.399963 66.997627,200.779129 67.007935,202.951721 
	C66.995834,204.504456 66.987831,205.263794 66.979828,206.023132 
z"/>
<path fill="#E2E2E2" opacity="1.000000" stroke="none" 
	d="
M62.996784,180.750732 
	C61.339314,176.879074 59.694214,172.747406 58.321945,168.345093 
	C59.077591,168.378616 59.560406,168.682800 60.043221,168.986984 
	C60.603001,170.126312 61.162777,171.265656 61.836334,172.710587 
	C61.899551,173.828918 61.848991,174.641632 61.943611,176.008286 
	C62.400986,177.041168 62.713184,177.520111 63.025379,177.999069 
	C63.026001,178.437592 63.026627,178.876099 63.034164,179.642883 
	C63.030434,180.144348 63.019798,180.317535 62.996784,180.750732 
z"/>
<path fill="#F8F8F8" opacity="1.000000" stroke="none" 
	d="
M21.004513,227.997925 
	C20.826509,227.997772 20.648504,227.997620 20.202345,227.994629 
	C19.941158,226.928833 19.948126,225.865891 20.154827,224.251343 
	C20.229923,223.132629 20.105288,222.565506 19.980652,221.998383 
	C19.989790,221.252426 19.998930,220.506470 20.382065,219.384491 
	C21.493832,218.993103 22.231606,218.977737 22.977039,219.370880 
	C22.324638,222.518906 21.664576,225.258423 21.004513,227.997925 
z"/>
<path fill="#EBEBEB" opacity="1.000000" stroke="none" 
	d="
M22.969379,218.962372 
	C22.231606,218.977737 21.493832,218.993103 20.387648,219.011520 
	C20.420172,216.741486 20.821108,214.468414 21.580666,212.071030 
	C22.129492,212.809906 22.319695,213.673096 22.746044,215.167572 
	C22.977917,216.853363 22.973648,217.907867 22.969379,218.962372 
z"/>
<path fill="#E2E2E2" opacity="1.000000" stroke="none" 
	d="
M70.247223,221.727509 
	C69.690430,221.524170 69.380257,221.048355 69.030937,220.281403 
	C68.985092,218.605209 68.978401,217.220108 69.223740,215.416718 
	C69.647484,214.996445 69.819206,214.994461 69.990936,214.992477 
	C70.158569,217.146652 70.326202,219.300827 70.247223,221.727509 
z"/>
<path fill="#EBEBEB" opacity="1.000000" stroke="none" 
	d="
M69.989532,214.596222 
	C69.819206,214.994461 69.647484,214.996445 69.217697,215.000977 
	C68.313744,213.908051 67.667847,212.812561 67.393967,211.353027 
	C68.497368,211.002167 69.228745,211.015366 69.960121,211.028564 
	C69.969452,212.085709 69.978790,213.142838 69.989532,214.596222 
z"/>
<path fill="#D4D2CF" opacity="1.000000" stroke="none" 
	d="
M29.057926,165.984512 
	C28.606905,167.262100 28.155884,168.539703 27.364784,169.917664 
	C26.837639,170.010422 26.650576,170.002792 26.181950,169.981689 
	C26.446863,168.795425 26.993341,167.622635 28.020620,166.203308 
	C28.686922,165.966019 28.872423,165.975266 29.057926,165.984512 
z"/>
<path fill="#EBEBEB" opacity="1.000000" stroke="none" 
	d="
M21.756592,206.227280 
	C22.137766,207.186218 22.284040,208.373047 22.182480,209.782593 
	C21.796993,208.821930 21.659344,207.638550 21.756592,206.227280 
z"/>
<path fill="#E2E2E2" opacity="1.000000" stroke="none" 
	d="
M66.997765,206.274445 
	C66.987831,205.263794 66.995834,204.504456 67.010231,203.365494 
	C67.250710,204.270950 67.484787,205.556015 67.398277,206.933441 
	C67.057030,206.859131 67.036369,206.692444 66.997765,206.274445 
z"/>
<path fill="#E2E2E2" opacity="1.000000" stroke="none" 
	d="
M64.971474,189.673462 
	C64.531822,190.013367 64.089867,190.007156 63.315834,189.999557 
	C62.982254,189.560883 62.980755,189.123611 62.974739,188.358978 
	C62.981670,187.854706 62.993107,187.677765 63.023300,187.235214 
	C63.684425,187.755508 64.326797,188.541428 64.971474,189.673462 
z"/>
<path fill="#EBEBEB" opacity="1.000000" stroke="none" 
	d="
M22.756905,200.226944 
	C22.876478,200.961670 22.755529,201.923325 22.327614,202.949402 
	C22.185896,202.160492 22.351139,201.307190 22.756905,200.226944 
z"/>
<path fill="#E2E2E2" opacity="1.000000" stroke="none" 
	d="
M69.901749,210.697540 
	C69.228745,211.015366 68.497368,211.002167 67.400681,210.983978 
	C67.037910,210.529266 67.040443,210.079559 67.074532,209.292786 
	C68.018517,209.425995 68.930946,209.896255 69.901749,210.697540 
z"/>
<path fill="#E2E2E2" opacity="1.000000" stroke="none" 
	d="
M66.920898,197.710785 
	C66.356224,197.544403 65.743668,197.068008 65.086960,196.279510 
	C65.652870,196.445206 66.262947,196.923004 66.920898,197.710785 
z"/>
<path fill="#EBEBEB" opacity="1.000000" stroke="none" 
	d="
M19.783409,222.155487 
	C20.105288,222.565506 20.229923,223.132629 20.144024,223.852539 
	C19.817713,223.441101 19.701939,222.876846 19.783409,222.155487 
z"/>
<path fill="#D7B881" opacity="1.000000" stroke="none" 
	d="
M38.351963,368.337280 
	C36.604626,361.227509 34.808331,354.513031 33.510887,347.703491 
	C32.949268,344.755920 33.416706,341.612274 33.416706,337.567474 
	C40.143124,341.135742 46.442291,343.734283 52.607304,337.484772 
	C52.976330,337.773224 53.345352,338.061676 53.714378,338.350128 
	C53.486313,340.744659 53.436974,343.172607 52.996861,345.527496 
	C51.646423,352.753387 50.426907,360.022919 48.612225,367.136627 
	C47.246098,372.491913 43.026516,372.975342 38.351963,368.337280 
M49.647728,348.090637 
	C45.930996,347.463287 42.227390,346.636017 38.485603,346.390320 
	C37.800705,346.345337 36.137009,348.820984 36.333401,349.869263 
	C37.216904,354.585266 38.443142,359.259644 39.924534,363.826172 
	C40.327293,365.067688 42.088665,366.719208 43.159203,366.671539 
	C44.412323,366.615753 46.336693,365.111847 46.672558,363.881866 
	C48.018822,358.951538 48.862625,353.884064 49.647728,348.090637 
z"/>
<path fill="#EBEBEB" opacity="1.000000" stroke="none" 
	d="
M54.565567,262.104065 
	C59.254116,263.502716 63.470215,265.042542 62.889870,270.685669 
	C62.767483,271.875732 61.237095,273.832855 60.273697,273.883575 
	C50.595261,274.393219 40.888355,274.917084 31.217945,274.591278 
	C29.090391,274.519592 25.931339,271.436981 25.273680,269.156555 
	C24.258453,265.636261 27.305422,264.003265 30.636353,262.764557 
	C38.476089,259.849152 46.278625,260.857086 54.565567,262.104065 
M40.689041,263.002716 
	C37.829075,263.719910 34.873901,264.199036 32.160999,265.283997 
	C31.217197,265.661438 30.380838,267.562958 30.441641,268.718628 
	C30.477211,269.394684 32.324997,270.346863 33.456417,270.516937 
	C35.853989,270.877289 38.315746,270.878815 40.752224,270.898376 
	C46.418079,270.943848 52.084549,270.912872 58.982090,270.912872 
	C54.163136,263.071533 47.764305,263.303101 40.689041,263.002716 
z"/>
<path fill="#F4E1B1" opacity="1.000000" stroke="none" 
	d="
M42.900005,62.901512 
	C42.943443,61.550827 42.986885,60.200138 43.350250,58.372173 
	C44.107018,57.257320 44.543858,56.619743 44.980698,55.982170 
	C44.980698,55.982170 44.999733,55.998440 45.341808,56.074196 
	C50.829346,60.387688 49.196186,66.608521 49.838989,71.929436 
	C51.379593,84.682114 52.123177,97.533340 53.093960,110.351944 
	C54.119244,123.890236 55.214142,137.427536 55.917664,150.983978 
	C56.235260,157.103821 52.841702,159.680206 46.723660,158.906616 
	C44.263615,158.595551 41.541756,157.497299 39.388897,158.178650 
	C34.054070,159.867081 31.806646,157.119125 30.015059,153.001175 
	C30.026571,152.261169 30.038084,151.521149 30.411301,150.295105 
	C31.511106,147.511978 32.629395,145.260971 32.914692,142.908951 
	C33.710899,136.344910 34.203747,129.742416 34.739414,123.148849 
	C35.503345,113.745590 36.198799,104.336769 36.923500,94.930328 
	C36.925022,94.503067 36.926544,94.075798 37.200554,93.037262 
	C38.612507,85.585770 39.751976,78.745544 40.891441,71.905327 
	C40.900570,71.483597 40.909698,71.061867 41.185204,70.069870 
	C41.934391,67.300232 42.417198,65.100876 42.900005,62.901512 
z"/>
<path fill="#E7D2A3" opacity="1.000000" stroke="none" 
	d="
M29.751385,153.300720 
	C31.806646,157.119125 34.054070,159.867081 39.388897,158.178650 
	C41.541756,157.497299 44.263615,158.595551 46.723660,158.906616 
	C52.841702,159.680206 56.235260,157.103821 55.917664,150.983978 
	C55.214142,137.427536 54.119244,123.890236 53.093960,110.351944 
	C52.123177,97.533340 51.379593,84.682114 49.838989,71.929436 
	C49.196186,66.608521 50.829346,60.387688 45.332321,56.063660 
	C45.195843,54.761185 45.410931,53.545002 45.626019,52.328823 
	C46.132835,52.192326 46.639652,52.055832 47.146469,51.919334 
	C48.844692,55.557201 50.542912,59.195065 52.575264,62.939159 
	C52.923149,63.476513 52.936901,63.907635 52.949791,64.662506 
	C53.043758,67.585579 53.138588,70.184906 53.584785,72.906281 
	C53.943836,73.767853 53.951519,74.507370 53.954132,75.616821 
	C53.637421,79.061508 52.912678,82.161034 53.095287,85.206139 
	C53.555237,92.876205 54.405437,100.523621 55.168663,108.173195 
	C55.224293,108.730751 55.838413,109.232582 56.556763,109.898605 
	C56.934181,110.774826 56.947723,111.512764 56.959648,112.620041 
	C57.134586,119.447510 57.311138,125.905632 57.751335,132.680939 
	C58.010731,133.748672 58.006474,134.499252 58.011120,135.625015 
	C58.412827,141.585373 58.805637,147.170517 59.566628,152.892792 
	C59.944405,154.083832 59.954002,155.137741 59.722099,156.893524 
	C57.762196,159.808792 61.295197,164.292953 56.249542,165.067642 
	C53.737278,164.064377 51.225014,163.061111 48.327332,162.101028 
	C43.694267,162.177353 39.446613,162.210495 34.392921,162.224854 
	C32.718044,163.135880 31.849211,164.065674 30.980377,164.995468 
	C30.980379,164.995468 31.017067,165.055588 31.027021,165.090668 
	C30.817526,165.155228 30.598078,165.184708 29.961197,165.327209 
	C29.543766,165.440231 29.377998,165.806061 29.377998,165.806061 
	C29.377998,165.806061 29.215130,165.891678 29.136528,165.938095 
	C28.872423,165.975266 28.686922,165.966019 28.223064,165.934387 
	C28.459042,161.808075 28.973377,157.704163 29.751385,153.300720 
z"/>
<path fill="#E7D2A3" opacity="1.000000" stroke="none" 
	d="
M36.565216,95.064064 
	C36.198799,104.336769 35.503345,113.745590 34.739414,123.148849 
	C34.203747,129.742416 33.710899,136.344910 32.914692,142.908951 
	C32.629395,145.260971 31.511106,147.511978 30.426491,149.925354 
	C31.734522,132.446701 33.377754,114.850670 35.084240,97.260780 
	C35.153820,96.543564 35.819157,95.884148 36.565216,95.064064 
z"/>
<path fill="#E7D2A3" opacity="1.000000" stroke="none" 
	d="
M40.545593,72.022797 
	C39.751976,78.745544 38.612507,85.585770 37.198334,92.716827 
	C35.933159,85.724915 36.663593,78.712349 40.545593,72.022797 
z"/>
<path fill="#E7D2A3" opacity="1.000000" stroke="none" 
	d="
M42.546829,62.924561 
	C42.417198,65.100876 41.934391,67.300232 41.185318,69.753494 
	C40.617619,68.592751 40.316185,67.178123 40.014740,65.381439 
	C40.023621,64.562744 40.032505,64.126099 40.055569,63.362846 
	C40.777714,63.006695 41.485683,62.977154 42.546829,62.924561 
z"/>
<path fill="#D4BB8D" opacity="1.000000" stroke="none" 
	d="
M56.348122,165.322556 
	C61.295197,164.292953 57.762196,159.808792 59.725227,157.289276 
	C64.074455,160.660522 62.807098,164.693192 60.396599,168.882538 
	C59.560406,168.682800 59.077591,168.378616 58.345177,167.933533 
	C57.545952,167.054260 56.996326,166.315857 56.348122,165.322556 
z"/>
<path fill="#E7D2A3" opacity="1.000000" stroke="none" 
	d="
M44.671364,56.044731 
	C44.543858,56.619743 44.107018,57.257320 43.368752,57.967064 
	C43.498894,57.395256 43.930458,56.751278 44.671364,56.044731 
z"/>
<path fill="#D9D9D9" opacity="1.000000" stroke="none" 
	d="
M63.214470,177.812195 
	C62.713184,177.520111 62.400986,177.041168 62.067291,176.266174 
	C62.498383,176.521851 62.950974,177.073593 63.214470,177.812195 
z"/>
<path fill="#F9F9F9" opacity="1.000000" stroke="none" 
	d="
M55.997559,309.993408 
	C54.442574,311.145660 52.887585,312.297913 50.821442,313.779053 
	C49.728180,314.407928 49.071903,314.616974 48.575455,315.021973 
	C43.754810,318.954437 42.618732,318.804138 38.607788,314.024475 
	C37.614353,312.840637 36.217880,311.994995 34.864227,310.699188 
	C33.159523,308.933228 31.597263,307.461975 30.035006,305.990723 
	C30.022297,305.549011 30.009588,305.107330 30.361961,304.172363 
	C33.789600,303.728394 36.854359,303.721222 39.914162,303.840881 
	C43.967182,303.999298 48.017910,304.231476 52.066364,304.484039 
	C53.777485,304.590851 55.480324,304.830353 57.186928,305.009583 
	C56.790474,306.670837 56.394016,308.332123 55.997559,309.993408 
z"/>
<path fill="#F2F2F2" opacity="1.000000" stroke="none" 
	d="
M56.250374,309.998291 
	C56.394016,308.332123 56.790474,306.670837 57.186928,305.009583 
	C55.480324,304.830353 53.777485,304.590851 52.066364,304.484039 
	C48.017910,304.231476 43.967182,303.999298 39.914162,303.840881 
	C36.854359,303.721222 33.789600,303.728394 30.355724,303.841003 
	C29.651339,303.234192 29.318275,302.465424 29.092987,300.997437 
	C31.494787,300.042053 33.806282,299.471405 36.079067,299.597626 
	C40.332798,299.833832 44.553833,300.655121 48.807560,300.896057 
	C53.186111,301.144073 57.587437,300.990143 61.978794,301.012085 
	C61.978794,301.012085 61.997185,301.003571 62.007355,300.998108 
	C62.005943,301.433746 61.994362,301.874786 61.778694,302.775696 
	C61.320267,303.441528 61.123493,303.692657 60.984287,303.988922 
	C59.850807,305.878479 58.717323,307.768066 57.296326,309.835388 
	C56.840271,310.009827 56.671730,310.006531 56.250374,309.998291 
z"/>
<path fill="#ECECEC" opacity="1.000000" stroke="none" 
	d="
M61.990089,300.679810 
	C57.587437,300.990143 53.186111,301.144073 48.807560,300.896057 
	C44.553833,300.655121 40.332798,299.833832 36.079067,299.597626 
	C33.806282,299.471405 31.494787,300.042053 29.082724,300.668182 
	C27.677160,299.258942 26.389637,297.479675 25.053822,295.350220 
	C30.257563,295.681396 35.493786,296.705566 40.766033,296.948822 
	C46.152641,297.197357 51.576126,296.531464 56.980186,296.586700 
	C58.618977,296.603455 60.246876,297.686188 61.951523,298.649780 
	C62.015984,299.461731 62.008682,299.904633 61.990089,300.679810 
z"/>
<path fill="#F1F1F1" opacity="1.000000" stroke="none" 
	d="
M35.006672,310.993896 
	C36.217880,311.994995 37.614353,312.840637 38.607788,314.024475 
	C42.618732,318.804138 43.754810,318.954437 48.575455,315.021973 
	C49.071903,314.616974 49.728180,314.407928 50.660751,314.060181 
	C48.177517,320.088013 46.476151,320.787140 38.406597,319.010803 
	C37.708164,318.857849 37.458767,318.661163 37.119453,317.827759 
	C36.324009,315.164948 35.665340,313.079437 35.006672,310.993896 
z"/>
<path fill="#E7E7E7" opacity="1.000000" stroke="none" 
	d="
M34.864227,310.699188 
	C35.665340,313.079437 36.324009,315.164948 36.993965,317.623230 
	C32.907448,315.186066 30.220186,311.470886 29.811214,306.213989 
	C31.597263,307.461975 33.159523,308.933228 34.864227,310.699188 
z"/>
<path fill="#E6E6E6" opacity="1.000000" stroke="none" 
	d="
M61.193615,303.866730 
	C61.123493,303.692657 61.320267,303.441528 61.778030,303.106506 
	C61.856922,303.284729 61.664082,303.540405 61.193615,303.866730 
z"/>
<path fill="#FEFEFE" opacity="1.000000" stroke="none" 
	d="
M22.977039,219.370880 
	C22.973648,217.907867 22.977917,216.853363 22.981777,215.402924 
	C28.201490,210.335968 30.986053,211.201324 32.824856,218.069977 
	C32.910591,218.390244 32.932545,218.727249 33.012516,219.049438 
	C35.918774,230.759460 34.942909,232.009583 22.455910,231.995377 
	C21.675823,230.903168 21.339678,229.812317 21.004023,228.359680 
	C21.664576,225.258423 22.324638,222.518906 22.977039,219.370880 
z"/>
<path fill="#D4D2CF" opacity="1.000000" stroke="none" 
	d="
M31.310947,164.965546 
	C31.849211,164.065674 32.718044,163.135880 33.948822,162.250244 
	C33.421017,163.174789 32.531269,164.055206 31.310947,164.965546 
z"/>
<path fill="#F8F8F8" opacity="1.000000" stroke="none" 
	d="
M29.447670,165.744080 
	C29.377998,165.806061 29.543766,165.440231 29.641024,165.415527 
	C29.738281,165.390839 29.517344,165.682114 29.447670,165.744080 
z"/>
<path fill="#DFBF86" opacity="1.000000" stroke="none" 
	d="
M49.769978,348.478943 
	C48.862625,353.884064 48.018822,358.951538 46.672558,363.881866 
	C46.336693,365.111847 44.412323,366.615753 43.159203,366.671539 
	C42.088665,366.719208 40.327293,365.067688 39.924534,363.826172 
	C38.443142,359.259644 37.216904,354.585266 36.333401,349.869263 
	C36.137009,348.820984 37.800705,346.345337 38.485603,346.390320 
	C42.227390,346.636017 45.930996,347.463287 49.769978,348.478943 
z"/>
<path fill="#F8F8F8" opacity="1.000000" stroke="none" 
	d="
M41.138672,263.002197 
	C47.764305,263.303101 54.163136,263.071533 58.982090,270.912872 
	C52.084549,270.912872 46.418079,270.943848 40.752224,270.898376 
	C38.315746,270.878815 35.853989,270.877289 33.456417,270.516937 
	C32.324997,270.346863 30.477211,269.394684 30.441641,268.718628 
	C30.380838,267.562958 31.217197,265.661438 32.160999,265.283997 
	C34.873901,264.199036 37.829075,263.719910 41.138672,263.002197 
z"/>
</svg>