<svg version="1.1" id="Layer_1" xmlns="http://www.w3.org/2000/svg" xmlns:xlink="http://www.w3.org/1999/xlink" x="0px" y="0px"
	 width="100%" viewBox="0 0 91 405" enable-background="new 0 0 91 405" xml:space="preserve">
<path fill="#D7BF90" opacity="1.000000" stroke="none" 
	d="
M76.249619,172.955292 
	C76.344254,174.042068 76.438896,175.128845 76.203186,176.616745 
	C74.581978,176.669586 73.291122,176.321320 71.649742,175.822479 
	C69.288147,175.322021 67.277077,174.972153 65.119232,174.336563 
	C63.997837,173.736069 63.023205,173.421295 61.614639,173.046692 
	C59.434494,173.036774 57.688290,173.086700 55.531540,173.085541 
	C51.418106,172.749298 47.715214,172.464172 43.612179,172.109695 
	C41.437534,172.332626 39.663033,172.624893 37.482292,172.920334 
	C35.727581,173.020660 34.379108,173.117828 32.664848,173.176147 
	C30.202114,173.751221 28.105173,174.365128 26.003368,174.544815 
	C25.736519,171.823547 25.890226,169.390198 25.145096,167.273209 
	C20.299492,153.506271 18.519611,139.350433 18.946613,124.809303 
	C19.192785,116.426193 18.528784,107.994446 19.167784,99.653030 
	C19.547195,94.700249 21.662800,89.880470 23.271572,84.795341 
	C27.687477,81.044342 28.906130,81.250877 30.994223,86.069351 
	C31.819136,87.972931 32.354019,90.002190 33.075714,92.379135 
	C33.771694,96.197205 34.412926,99.610367 34.879322,103.367950 
	C36.111443,109.827820 37.518394,115.943245 39.026867,122.327278 
	C39.103058,123.724724 39.077732,124.853569 38.791725,126.214897 
	C39.683826,128.966873 40.836609,131.486374 42.016724,134.230087 
	C42.044056,134.454315 42.071384,134.905258 42.047462,135.302460 
	C42.770462,137.647568 43.357670,139.676758 44.299000,141.525665 
	C46.027401,144.920502 48.280613,144.938797 50.079468,141.704834 
	C51.631268,138.915054 52.649742,135.828613 53.919975,132.464294 
	C54.332848,129.052322 54.729740,126.049385 55.393936,122.993431 
	C55.795177,122.297295 55.929115,121.654167 56.064182,120.575577 
	C56.113453,118.112511 56.161594,116.084915 56.540550,113.937881 
	C58.374077,111.662163 59.086384,109.596649 56.166248,107.521011 
	C55.784393,104.643761 55.433239,102.190170 55.089447,99.582794 
	C55.096809,99.429008 55.142879,99.124550 55.497826,98.990768 
	C56.239010,97.497276 56.817276,96.159866 56.978283,94.773979 
	C57.679356,88.739487 60.766647,86.741814 66.513794,88.552132 
	C67.221359,88.775002 68.217133,88.082932 69.079346,87.814850 
	C70.720879,91.077522 73.001076,94.177551 73.881348,97.634087 
	C76.292213,107.100708 79.811462,116.420166 77.204010,126.649849 
	C76.323044,130.106094 78.073502,134.147827 77.829285,137.870010 
	C77.369301,144.880493 76.333961,151.853226 75.404198,159.602203 
	C75.596939,164.560272 75.923279,168.757782 76.249619,172.955292 
M26.548895,158.241928 
	C26.971918,161.186630 27.138885,164.203644 27.940134,167.041550 
	C28.274961,168.227478 29.940634,169.860474 31.029825,169.882614 
	C41.348042,170.092361 51.685616,170.291672 61.987602,169.827682 
	C65.421089,169.673035 69.293854,168.282669 69.997925,163.666565 
	C72.452606,147.572891 74.627251,131.446976 71.972992,115.172462 
	C70.550110,106.448151 69.491783,97.525391 63.753368,89.936859 
	C58.540901,91.935959 60.274849,96.022926 60.332829,99.634476 
	C60.433571,105.909409 61.027760,112.284439 60.159538,118.440422 
	C58.991291,126.723663 57.024883,134.959534 54.567406,142.959671 
	C53.729992,145.685791 50.763988,148.507507 48.066467,149.723343 
	C44.685040,151.247437 42.188591,148.371674 40.698483,145.369583 
	C39.609642,143.175888 38.637409,140.861023 38.055508,138.491547 
	C36.633400,132.700775 35.312065,126.875664 34.233707,121.012230 
	C32.378780,110.926369 30.793417,100.790977 28.947168,90.703423 
	C28.694426,89.322479 27.593447,88.096771 26.885193,86.799194 
	C26.125654,86.988655 25.366116,87.178108 24.606577,87.367569 
	C19.850204,110.757614 20.206593,134.121429 26.548895,158.241928 
z"/>
<path fill="#D0D0CF" opacity="1.000000" stroke="none" 
	d="
M72.000267,175.973053 
	C73.291122,176.321320 74.581978,176.669586 76.206100,177.030945 
	C78.649712,188.712555 86.549210,198.972412 85.537056,211.309677 
	C84.309196,226.275986 75.242790,229.882431 61.623470,225.473450 
	C59.067699,224.646072 57.334587,223.474960 55.106918,225.714218 
	C54.516476,226.307724 53.239834,226.424500 52.282063,226.413986 
	C44.830048,226.332169 37.335667,226.610809 29.940584,225.891647 
	C23.423630,225.257874 18.598789,219.921310 17.568800,212.982162 
	C17.380186,210.893997 17.032511,209.440475 16.684834,207.986938 
	C16.502243,205.209030 16.319656,202.431122 16.691875,199.179489 
	C17.296804,196.844833 17.346930,194.983887 17.397055,193.122955 
	C17.585573,191.333740 17.774092,189.544510 18.223000,187.222244 
	C18.721748,186.446548 18.871149,186.157837 18.931595,185.823090 
	C19.251986,184.763016 19.572374,183.702957 20.228233,182.184128 
	C20.842712,180.857330 21.121723,179.989304 21.400738,179.121262 
	C21.710835,178.273788 22.020931,177.426331 22.566944,176.287994 
	C22.802860,175.997116 22.842072,175.963028 23.195301,175.923676 
	C24.021498,175.907608 24.494463,175.930878 24.976135,176.333191 
	C24.968603,177.468521 24.952366,178.224823 24.679554,179.234528 
	C23.278004,183.657257 22.133026,187.826599 20.978273,192.327423 
	C20.961586,193.100983 20.954676,193.543076 20.723783,194.172028 
	C20.342842,194.909012 20.185881,195.459106 20.016235,196.472290 
	C20.333364,202.291092 20.663181,207.646820 20.996662,213.372131 
	C22.206255,215.427551 23.041056,217.825470 24.680328,218.679871 
	C33.218704,223.129959 42.655125,223.744904 51.054737,219.840012 
	C56.282768,217.409531 59.503559,217.481567 64.073433,220.265656 
	C71.137215,224.569077 78.506775,221.376328 79.806374,213.700638 
	C80.321663,210.657272 80.234207,207.297867 79.515800,204.299255 
	C77.240448,194.802109 74.537727,185.407379 72.000267,175.973053 
z"/>
<path fill="#E4E4E4" opacity="1.000000" stroke="none" 
	d="
M85.178459,269.118347 
	C85.286285,271.097534 85.394112,273.076721 85.102463,275.470154 
	C84.141685,275.931122 83.580399,275.977844 82.870613,275.697083 
	C81.481010,273.246613 80.239899,271.123596 78.544998,268.997192 
	C75.359360,268.973053 72.627495,268.952332 69.826302,268.795959 
	C69.756966,268.660278 69.368477,268.588318 69.368477,268.588318 
	C69.368477,268.588318 69.099213,268.936310 68.739479,269.038086 
	C68.142319,270.589569 67.504837,272.109894 67.746040,273.475006 
	C68.353821,276.914673 67.690659,279.026367 63.706821,279.115662 
	C62.414009,279.144592 61.132713,279.687378 59.869995,279.610291 
	C60.758064,277.601898 61.622295,275.978333 62.599998,274.141571 
	C59.521069,268.632080 54.577900,265.459381 48.362293,264.964386 
	C46.231415,264.794647 44.123596,264.335449 41.897945,263.734070 
	C41.079880,262.673126 40.369114,261.886627 39.658344,261.100128 
	C39.107643,262.075043 38.556946,263.049988 37.712578,264.282288 
	C35.277805,264.687683 33.136711,264.835693 30.996336,264.643555 
	C30.991850,263.849030 30.986643,263.394653 31.234175,262.696564 
	C33.154526,261.065430 34.822136,259.677948 36.489746,258.290497 
	C34.740780,256.893585 32.991814,255.496674 31.242849,254.099747 
	C31.623022,253.563538 32.003197,253.027313 32.383369,252.491104 
	C35.250328,254.315628 38.117283,256.140137 41.033295,258.255066 
	C41.398884,258.858887 41.715420,259.172272 42.031952,259.485687 
	C42.354366,258.989044 42.676785,258.492401 43.210602,257.735718 
	C51.556236,251.400742 51.831127,246.214417 44.379936,240.187439 
	C44.069412,239.936279 44.093929,239.270920 43.962353,238.798523 
	C56.864040,239.639114 70.243782,238.945709 80.581245,248.851334 
	C84.540474,252.645187 85.552597,257.781311 85.087814,263.571198 
	C83.325592,265.875488 81.528564,267.779175 85.178459,269.118347 
M73.516014,255.999664 
	C73.690788,255.999771 73.865562,255.999893 74.001221,256.802979 
	C73.958046,257.132660 73.856094,257.466888 73.881233,257.791290 
	C74.044846,259.903198 73.537201,262.611389 74.656914,263.919098 
	C75.440491,264.834229 79.296501,264.582458 80.265800,263.498108 
	C81.434723,262.190399 81.582115,259.326569 81.161118,257.351746 
	C79.319290,248.712189 73.033798,245.062408 64.939575,243.411987 
	C57.569248,241.909149 56.338734,242.434616 54.012257,249.402069 
	C53.591156,250.663208 53.443295,252.112885 52.712982,253.156097 
	C50.003643,257.026215 52.629337,260.107635 54.849575,262.203735 
	C56.637028,263.891235 60.033192,264.479980 62.717724,264.485291 
	C68.204102,264.496185 70.819534,260.361572 73.516014,255.999664 
z"/>
<path fill="#F7F7F7" opacity="1.000000" stroke="none" 
	d="
M43.640121,238.555878 
	C44.093929,239.270920 44.069412,239.936279 44.379936,240.187439 
	C51.831127,246.214417 51.556236,251.400742 42.874973,257.727478 
	C41.880043,257.974457 41.432140,257.969543 40.984241,257.964661 
	C38.117283,256.140137 35.250328,254.315628 32.383369,252.491104 
	C32.003197,253.027313 31.623022,253.563538 31.242849,254.099747 
	C32.991814,255.496674 34.740780,256.893585 36.489746,258.290497 
	C34.822136,259.677948 33.154526,261.065430 30.903339,262.712341 
	C29.878126,262.990509 29.436491,263.009216 28.578537,263.026062 
	C25.479933,262.871948 22.378521,263.508667 20.223545,262.363861 
	C17.644514,260.993774 18.560301,249.422241 20.995602,247.259171 
	C23.051462,253.193527 27.141253,249.957443 30.261850,249.479919 
	C31.318489,249.318207 32.832691,246.704544 32.713268,245.335693 
	C32.375916,241.468811 29.087652,243.156631 26.977947,242.546371 
	C29.412651,240.723389 31.732555,239.255371 34.052460,237.787369 
	C37.140934,237.962662 40.229412,238.137955 43.640121,238.555878 
z"/>
<path fill="#CBB387" opacity="1.000000" stroke="none" 
	d="
M24.967430,175.954163 
	C24.494463,175.930878 24.021498,175.907608 23.153078,175.509613 
	C22.616447,172.767044 22.475271,170.399170 22.334095,168.031296 
	C18.249268,158.784729 15.525105,149.412094 15.795067,138.994720 
	C16.053764,129.012054 14.382045,118.994812 14.063239,108.976715 
	C13.814756,101.168457 15.672522,93.682022 19.546959,86.772102 
	C20.089863,85.803841 20.139990,84.559273 20.772495,83.522736 
	C21.751255,84.069382 22.375742,84.535912 23.000114,85.001221 
	C23.000000,85.000000 22.997787,85.000893 22.997787,85.000893 
	C21.662800,89.880470 19.547195,94.700249 19.167784,99.653030 
	C18.528784,107.994446 19.192785,116.426193 18.946613,124.809303 
	C18.519611,139.350433 20.299492,153.506271 25.145096,167.273209 
	C25.890226,169.390198 25.736519,171.823547 25.817856,174.695251 
	C25.381472,175.472397 25.158213,175.697144 24.967430,175.954163 
z"/>
<path fill="#E7E7E7" opacity="1.000000" stroke="none" 
	d="
M17.953415,278.996277 
	C17.173527,277.889496 16.393637,276.782745 16.070091,275.316162 
	C17.556065,273.906677 18.632496,272.898315 19.604158,271.797485 
	C20.993546,270.223450 22.306311,268.581757 23.359859,267.318878 
	C25.177130,269.990997 26.524031,271.971497 28.051098,274.246277 
	C30.151201,276.364990 32.071136,278.189392 34.049046,280.377655 
	C39.180363,285.512177 45.743786,285.215393 52.308220,285.968414 
	C53.417870,285.624298 54.208603,285.311523 55.008652,285.373474 
	C56.678715,287.166718 58.339462,288.585205 59.688587,290.277588 
	C58.075142,290.700897 56.776577,290.937012 55.470974,290.986115 
	C44.989086,291.380432 34.824478,289.822083 24.758911,285.773376 
	C22.298037,283.400360 20.125723,281.198303 17.953415,278.996277 
z"/>
<path fill="#B3B0AC" opacity="1.000000" stroke="none" 
	d="
M17.695366,279.177551 
	C20.125723,281.198303 22.298037,283.400360 24.898235,286.093506 
	C27.089418,287.737793 28.712999,289.456635 30.643364,289.933441 
	C35.568108,291.149902 40.599110,292.099792 45.642910,292.636780 
	C56.453465,293.787781 66.979561,292.481720 77.270462,288.130066 
	C78.050636,288.898895 78.554260,289.530792 79.057892,290.162689 
	C79.027489,290.514893 78.857796,290.776855 77.997986,291.022095 
	C76.939461,291.424713 76.431786,291.753876 75.597336,292.112671 
	C73.839516,293.071991 72.408478,294.001648 70.571442,294.999451 
	C68.239418,295.371490 66.318542,295.714050 64.386337,295.971649 
	C59.580051,296.612549 54.768608,297.214752 49.546417,297.845032 
	C47.756718,297.874878 46.379829,297.892212 44.698635,297.902588 
	C43.988564,297.895325 43.582806,297.895081 43.062294,297.573181 
	C41.958679,296.893921 40.969810,296.536316 39.561028,296.143433 
	C34.783607,294.728088 30.426100,293.348022 25.911949,291.681000 
	C24.502821,289.919647 23.250340,288.445251 21.835859,286.677460 
	C20.719028,285.893097 19.764194,285.402100 18.809364,284.911102 
	C18.352018,283.060364 17.894669,281.209595 17.695366,279.177551 
z"/>
<path fill="#DBDBDB" opacity="1.000000" stroke="none" 
	d="
M27.870922,273.951996 
	C26.524031,271.971497 25.177130,269.990997 23.359859,267.318878 
	C22.306311,268.581757 20.993546,270.223450 19.604158,271.797485 
	C18.632496,272.898315 17.556065,273.906677 16.144148,274.964417 
	C15.491477,267.249847 15.183615,259.528290 14.962535,251.804260 
	C14.784623,245.588440 21.579533,240.314224 28.675766,238.478043 
	C30.246082,238.071716 31.859602,237.832352 33.752846,237.651733 
	C31.732555,239.255371 29.412651,240.723389 26.621511,242.562897 
	C24.409451,244.253601 22.668625,245.572815 20.927799,246.892014 
	C18.560301,249.422241 17.644514,260.993774 20.223545,262.363861 
	C22.378521,263.508667 25.479933,262.871948 28.608868,263.315125 
	C29.368816,264.069946 29.682117,264.533813 29.979122,265.361542 
	C29.952553,267.808838 29.942276,269.892273 29.764864,272.207825 
	C29.022121,272.943939 28.446518,273.447968 27.870922,273.951996 
M18.829168,266.503510 
	C18.418228,266.218994 18.007286,265.934509 17.596344,265.649994 
	C17.485048,266.072083 17.373753,266.494171 17.262453,266.916290 
	C17.741837,266.966583 18.221220,267.016876 18.829168,266.503510 
z"/>
<path fill="#D7B882" opacity="1.000000" stroke="none" 
	d="
M45.002945,297.909576 
	C46.379829,297.892212 47.756718,297.874878 49.559410,298.137634 
	C49.990353,298.611816 49.995480,298.805908 49.692501,299.054260 
	C48.889740,301.526947 55.002552,310.285797 57.712608,310.928101 
	C61.289532,311.775879 64.847847,312.523285 67.006226,308.220825 
	C67.302620,307.630005 68.311348,307.396484 69.244713,306.998657 
	C69.668747,307.000641 69.838364,307.001556 69.964905,307.341980 
	C68.616776,309.456207 67.311729,311.230865 65.675919,313.039429 
	C64.229637,313.718231 63.114124,314.363129 61.609802,314.997131 
	C54.225815,314.759460 51.167240,309.592102 48.176403,304.186218 
	C47.358269,304.909088 46.762096,305.435852 46.165924,305.962585 
	C44.452164,303.179932 42.690369,303.351349 40.224991,305.853729 
	C38.168358,305.863190 36.680553,306.228058 35.406105,305.858032 
	C32.871403,305.122162 30.454115,303.981842 28.408482,302.991455 
	C32.046829,302.642120 35.334412,302.608826 38.461113,301.882751 
	C40.936718,301.307892 44.829334,302.470245 45.002945,297.909576 
z"/>
<path fill="#C8AD7E" opacity="1.000000" stroke="none" 
	d="
M66.006683,313.005554 
	C67.311729,311.230865 68.616776,309.456207 70.353180,307.342529 
	C71.561340,307.017029 72.338158,307.030487 73.114975,307.043945 
	C73.241745,316.357330 66.899261,319.748474 60.848232,319.836121 
	C54.592915,319.926758 47.522728,316.243469 46.093544,306.345093 
	C46.762096,305.435852 47.358269,304.909088 48.176403,304.186218 
	C51.167240,309.592102 54.225815,314.759460 61.830605,315.239044 
	C63.629044,314.663116 64.817863,313.834351 66.006683,313.005554 
z"/>
<path fill="#C9B89B" opacity="1.000000" stroke="none" 
	d="
M35.054157,103.023529 
	C34.412926,99.610367 33.771694,96.197205 33.345570,92.085571 
	C33.724300,88.878220 33.887917,86.369347 34.051533,83.860474 
	C34.597046,87.706871 35.142559,91.553276 35.578022,94.623718 
	C37.428005,88.897858 39.471233,82.410385 41.627960,75.960869 
	C42.890625,72.184982 45.693989,72.226074 48.599358,73.660339 
	C47.261658,74.579369 46.140980,75.184364 44.877281,76.134048 
	C43.155293,81.276779 41.334946,86.012428 40.073399,90.892525 
	C39.056118,94.827728 38.713554,98.937363 37.693817,102.971115 
	C36.562042,102.989594 35.808098,103.006561 35.054157,103.023529 
z"/>
<path fill="#CAAD7B" opacity="1.000000" stroke="none" 
	d="
M27.988316,303.008636 
	C30.454115,303.981842 32.871403,305.122162 35.406105,305.858032 
	C36.680553,306.228058 38.168358,305.863190 39.907177,305.983429 
	C38.421059,309.627563 36.233406,312.555359 31.636925,312.148193 
	C26.795448,311.719299 24.177395,308.295685 22.014086,304.656342 
	C20.834600,302.672119 20.652603,300.094910 20.298954,297.386047 
	C20.577179,296.986969 20.990986,296.985352 21.365387,296.990601 
	C22.487562,297.003815 23.235332,297.011780 23.985733,297.387268 
	C25.321678,299.506042 26.654995,301.257355 27.988316,303.008636 
z"/>
<path fill="#B79C75" opacity="1.000000" stroke="none" 
	d="
M45.020302,75.789352 
	C46.140980,75.184364 47.261658,74.579369 48.737465,73.975189 
	C53.792889,72.463715 55.448311,75.948708 57.118038,79.073067 
	C57.857212,80.456192 57.952278,82.183533 58.508537,84.253616 
	C57.427757,87.185928 56.178173,89.619263 54.613914,92.039352 
	C53.877975,92.024284 53.456715,92.022461 53.025597,91.675240 
	C52.999077,90.869446 52.982410,90.409050 52.985847,89.550034 
	C55.239632,80.743790 52.160717,75.591972 45.020302,75.789352 
z"/>
<path fill="#D3B582" opacity="1.000000" stroke="none" 
	d="
M73.353378,306.965271 
	C72.338158,307.030487 71.561340,307.017029 70.396248,307.002991 
	C69.838364,307.001556 69.668747,307.000641 69.248711,306.596069 
	C70.013550,298.997772 70.013550,298.998016 62.461563,298.999359 
	C58.307911,299.000092 54.154263,298.999817 50.000610,299.000000 
	C49.995480,298.805908 49.990353,298.611816 49.972229,298.125122 
	C54.768608,297.214752 59.580051,296.612549 64.386337,295.971649 
	C66.318542,295.714050 68.239418,295.371490 70.624069,295.372803 
	C71.419609,298.296753 71.639648,300.938904 72.156807,303.521545 
	C72.337852,304.425690 73.249977,305.183380 73.828239,306.007965 
	C73.749420,306.300842 73.670609,306.593750 73.353378,306.965271 
z"/>
<path fill="#CDB280" opacity="1.000000" stroke="none" 
	d="
M34.027802,83.632149 
	C33.887917,86.369347 33.724300,88.878220 33.290825,91.680656 
	C32.354019,90.002190 31.819136,87.972931 30.994223,86.069351 
	C28.906130,81.250877 27.687477,81.044342 23.271572,84.795341 
	C22.997787,85.000893 23.000000,85.000000 22.998152,84.585739 
	C22.982140,83.063896 22.967976,81.956329 22.953812,80.848755 
	C25.061499,79.909874 27.169186,78.971001 29.811073,78.299179 
	C30.585888,78.756294 30.856968,78.879112 31.158512,78.934708 
	C31.158512,78.934708 31.050550,78.946548 31.143389,79.125343 
	C31.400061,79.604805 31.631062,79.839302 31.929228,80.007637 
	C32.257614,80.449081 32.586002,80.890526 33.062523,81.818207 
	C33.353001,82.593918 33.565479,82.816437 33.848087,82.972008 
	C33.848087,82.972008 34.004066,83.403824 34.027802,83.632149 
z"/>
<path fill="#CAB084" opacity="1.000000" stroke="none" 
	d="
M54.928593,92.052589 
	C56.178173,89.619263 57.427757,87.185928 58.835487,84.451134 
	C60.718197,84.078506 62.442757,84.007339 64.674026,84.359238 
	C66.153214,85.159142 67.125702,85.535988 68.098190,85.912834 
	C68.098190,85.912834 68.031845,85.991959 68.121674,86.175346 
	C68.358421,86.672920 68.596397,86.884880 68.925438,86.994606 
	C68.925438,86.994606 69.057213,87.394440 69.068283,87.604645 
	C68.217133,88.082932 67.221359,88.775002 66.513794,88.552132 
	C60.766647,86.741814 57.679356,88.739487 56.978283,94.773979 
	C56.817276,96.159866 56.239010,97.497276 55.463829,98.961494 
	C55.074883,99.065994 55.007816,99.012070 54.999699,98.575211 
	C54.970585,96.109764 54.949589,94.081177 54.928593,92.052589 
z"/>
<path fill="#C8AD7E" opacity="1.000000" stroke="none" 
	d="
M73.902496,305.604553 
	C73.249977,305.183380 72.337852,304.425690 72.156807,303.521545 
	C71.639648,300.938904 71.419609,298.296753 71.030067,295.304657 
	C72.408478,294.001648 73.839516,293.071991 75.631424,292.342102 
	C76.084793,292.849152 76.078011,293.154266 75.971931,293.457153 
	C75.306870,297.371796 74.641800,301.286469 73.902496,305.604553 
z"/>
<path fill="#C0C0C0" opacity="1.000000" stroke="none" 
	d="
M79.393188,290.015991 
	C78.554260,289.530792 78.050636,288.898895 77.266022,287.865906 
	C76.976288,287.288818 76.967545,287.112854 77.009308,286.637390 
	C77.402145,285.608246 77.744469,284.878540 78.397377,284.071625 
	C79.184830,283.356049 79.661697,282.717743 80.348114,281.954590 
	C80.815926,281.618439 81.004112,281.356750 81.436691,281.030670 
	C82.171890,281.005341 82.592644,280.994049 83.162796,281.192810 
	C83.463799,281.483673 83.615410,281.564545 83.767014,281.645386 
	C82.420837,284.386688 81.074654,287.127960 79.393188,290.015991 
z"/>
<path fill="#D3BA91" opacity="1.000000" stroke="none" 
	d="
M20.990986,296.985352 
	C20.990986,296.985352 20.577179,296.986969 20.370277,296.985535 
	C16.608942,293.628754 18.287458,289.350098 18.464098,285.154236 
	C19.764194,285.402100 20.719028,285.893097 21.526417,286.864014 
	C20.931944,288.905762 20.484913,290.467590 20.034344,292.360046 
	C20.352198,293.462036 20.673586,294.233459 20.995298,295.335022 
	C20.994076,296.105255 20.992531,296.545319 20.990986,296.985352 
z"/>
<path fill="#E4E4E4" opacity="1.000000" stroke="none" 
	d="
M85.008896,279.015411 
	C84.729317,279.753815 84.449753,280.492188 83.968597,281.437988 
	C83.615410,281.564545 83.463799,281.483673 82.989365,280.959778 
	C82.123947,280.347198 81.581367,280.177734 80.791489,279.787689 
	C81.353943,278.708954 82.163704,277.850800 83.144333,277.226013 
	C83.879768,277.978088 84.444328,278.496735 85.008896,279.015411 
z"/>
<path fill="#D0D0CF" opacity="1.000000" stroke="none" 
	d="
M76.168030,172.554993 
	C75.923279,168.757782 75.596939,164.560272 75.190132,160.028275 
	C75.435257,163.847427 75.760849,168.001053 76.168030,172.554993 
z"/>
<path fill="#CDCDCD" opacity="1.000000" stroke="none" 
	d="
M17.113901,193.385986 
	C17.346930,194.983887 17.296804,196.844833 16.967209,198.858643 
	C16.735407,197.224030 16.783077,195.436523 17.113901,193.385986 
z"/>
<path fill="#C0C0C0" opacity="1.000000" stroke="none" 
	d="
M85.399117,268.722107 
	C81.528564,267.779175 83.325592,265.875488 84.950043,263.952850 
	C85.373222,265.365234 85.496498,266.845551 85.399117,268.722107 
z"/>
<path fill="#CDCDCD" opacity="1.000000" stroke="none" 
	d="
M16.552296,208.342865 
	C17.032511,209.440475 17.380186,210.893997 17.550863,212.606659 
	C17.055828,211.476791 16.737791,210.087784 16.552296,208.342865 
z"/>
<path fill="#D7BF90" opacity="1.000000" stroke="none" 
	d="
M22.593908,80.892639 
	C22.967976,81.956329 22.982140,83.063896 22.998268,84.586960 
	C22.375742,84.535912 21.751255,84.069382 21.057114,83.292320 
	C21.402977,82.300034 21.818491,81.618271 22.593908,80.892639 
z"/>
<path fill="#CDCDCD" opacity="1.000000" stroke="none" 
	d="
M22.363148,168.474792 
	C22.475271,170.399170 22.616447,172.767044 22.799849,175.548981 
	C22.842072,175.963028 22.802860,175.997116 22.777908,176.004303 
	C22.632704,173.647095 22.512451,171.282700 22.363148,168.474792 
z"/>
<path fill="#C0C0C0" opacity="1.000000" stroke="none" 
	d="
M85.283676,278.797424 
	C84.444328,278.496735 83.879768,277.978088 83.160812,276.984253 
	C83.006424,276.509125 83.019104,276.024597 83.019104,276.024597 
	C83.580399,275.977844 84.141685,275.931122 84.984940,275.882385 
	C85.364090,276.780090 85.461273,277.679779 85.283676,278.797424 
z"/>
<path fill="#C0C0C0" opacity="1.000000" stroke="none" 
	d="
M76.232712,293.340240 
	C76.078011,293.154266 76.084793,292.849152 75.958191,292.312439 
	C76.431786,291.753876 76.939461,291.424713 77.758392,291.057739 
	C77.544266,291.754364 77.018875,292.488861 76.232712,293.340240 
z"/>
<path fill="#CDCDCD" opacity="1.000000" stroke="none" 
	d="
M21.150578,179.339096 
	C21.121723,179.989304 20.842712,180.857330 20.325293,181.857849 
	C20.358063,181.179199 20.629240,180.368057 21.150578,179.339096 
z"/>
<path fill="#D7BF90" opacity="1.000000" stroke="none" 
	d="
M67.954964,85.627533 
	C67.125702,85.535988 66.153214,85.159142 65.096054,84.451996 
	C65.944832,84.528542 66.878281,84.935379 67.954964,85.627533 
z"/>
<path fill="#D7BF90" opacity="1.000000" stroke="none" 
	d="
M68.950851,86.717407 
	C68.596397,86.884880 68.358421,86.672920 68.136337,86.125839 
	C68.366203,86.075371 68.671234,86.257797 68.950851,86.717407 
z"/>
<path fill="#CDCDCD" opacity="1.000000" stroke="none" 
	d="
M18.669384,185.921509 
	C18.871149,186.157837 18.721748,186.446548 18.287857,186.839767 
	C18.197271,186.666870 18.302221,186.343414 18.669384,185.921509 
z"/>
<path fill="#C9B89B" opacity="1.000000" stroke="none" 
	d="
M33.870602,82.709511 
	C33.565479,82.816437 33.353001,82.593918 33.127335,82.086090 
	C33.327049,82.060837 33.610085,82.253922 33.870602,82.709511 
z"/>
<path fill="#C9B89B" opacity="1.000000" stroke="none" 
	d="
M31.943932,79.727150 
	C31.631062,79.839302 31.400061,79.604805 31.144855,79.071060 
	C31.355200,79.040871 31.656919,79.243767 31.943932,79.727150 
z"/>
<path fill="#C9B89B" opacity="1.000000" stroke="none" 
	d="
M31.068340,78.696457 
	C30.856968,78.879112 30.585888,78.756294 30.196167,78.398476 
	C30.357431,78.306534 30.667799,78.382370 31.068340,78.696457 
z"/>
<path fill="#F2DFAE" opacity="1.000000" stroke="none" 
	d="
M26.402515,157.848999 
	C20.206593,134.121429 19.850204,110.757614 24.606577,87.367569 
	C25.366116,87.178108 26.125654,86.988655 26.885193,86.799194 
	C27.593447,88.096771 28.694426,89.322479 28.947168,90.703423 
	C30.793417,100.790977 32.378780,110.926369 34.233707,121.012230 
	C35.312065,126.875664 36.633400,132.700775 38.055508,138.491547 
	C38.637409,140.861023 39.609642,143.175888 40.698483,145.369583 
	C42.188591,148.371674 44.685040,151.247437 48.066467,149.723343 
	C50.763988,148.507507 53.729992,145.685791 54.567406,142.959671 
	C57.024883,134.959534 58.991291,126.723663 60.159538,118.440422 
	C61.027760,112.284439 60.433571,105.909409 60.332829,99.634476 
	C60.274849,96.022926 58.540901,91.935959 63.753368,89.936859 
	C69.491783,97.525391 70.550110,106.448151 71.972992,115.172462 
	C74.627251,131.446976 72.452606,147.572891 69.997925,163.666565 
	C69.293854,168.282669 65.421089,169.673035 61.987602,169.827682 
	C51.685616,170.291672 41.348042,170.092361 31.029825,169.882614 
	C29.940634,169.860474 28.274961,168.227478 27.940134,167.041550 
	C27.138885,164.203644 26.971918,161.186630 26.402515,157.848999 
z"/>
<path fill="#F8F8F8" opacity="1.000000" stroke="none" 
	d="
M44.012325,172.179047 
	C47.715214,172.464172 51.418106,172.749298 55.644146,173.429276 
	C57.774086,174.229782 59.380875,174.635452 61.051331,175.421631 
	C61.742321,177.637619 62.579399,179.430923 62.958347,181.316299 
	C64.182098,187.404907 64.741371,193.674347 66.495789,199.595871 
	C68.280540,205.619736 69.818825,211.285294 65.745239,216.995346 
	C65.496086,216.997391 64.997810,217.004272 64.750343,216.999268 
	C64.502876,216.994278 64.007912,216.986038 63.953827,216.673965 
	C63.268032,215.906021 62.636326,215.450150 61.841431,214.689819 
	C55.706009,208.757919 52.964355,208.654373 46.640816,213.817459 
	C42.857414,216.906540 33.016987,217.017914 30.413174,214.002899 
	C34.510120,213.980637 38.654350,214.277420 38.708668,209.024506 
	C38.760391,204.022308 35.942074,201.845306 30.293072,202.042313 
	C28.193411,202.115555 26.110634,202.672867 24.015385,202.581757 
	C26.332365,192.294235 24.679577,181.195572 33.030636,173.214996 
	C34.379108,173.117828 35.727581,173.020660 37.891453,172.960999 
	C40.475342,172.725327 42.243832,172.452179 44.012325,172.179047 
z"/>
<path fill="#E7E7E7" opacity="1.000000" stroke="none" 
	d="
M64.007912,216.986053 
	C64.007912,216.986038 64.502876,216.994278 64.825974,217.355759 
	C69.085014,220.953415 71.755379,220.759567 74.605431,216.995483 
	C78.960304,211.243958 76.678352,205.459991 74.841095,199.567795 
	C73.033737,193.771515 71.100647,187.935394 70.186661,181.969086 
	C69.633369,178.357315 68.456863,176.508698 65.052231,175.648407 
	C65.155128,175.075333 65.210564,174.848816 65.266006,174.622284 
	C67.277077,174.972153 69.288147,175.322021 71.649742,175.822464 
	C74.537727,185.407379 77.240448,194.802109 79.515800,204.299255 
	C80.234207,207.297867 80.321663,210.657272 79.806374,213.700638 
	C78.506775,221.376328 71.137215,224.569077 64.073433,220.265656 
	C59.503559,217.481567 56.282768,217.409531 51.054737,219.840012 
	C42.655125,223.744904 33.218704,223.129959 24.680328,218.679871 
	C23.041056,217.825470 22.206255,215.427551 21.347374,213.418518 
	C25.351019,214.965729 28.859495,217.921204 32.699852,218.445435 
	C38.099483,219.182526 44.718460,219.820801 49.026066,217.363556 
	C53.811386,214.633789 57.221859,212.839233 62.177841,216.236801 
	C62.908360,216.641159 63.458134,216.813599 64.007912,216.986053 
z"/>
<path fill="#EFEFEF" opacity="1.000000" stroke="none" 
	d="
M61.997093,216.004883 
	C57.221859,212.839233 53.811386,214.633789 49.026066,217.363556 
	C44.718460,219.820801 38.099483,219.182526 32.699852,218.445435 
	C28.859495,217.921204 25.351019,214.965729 21.343712,213.048935 
	C20.663181,207.646820 20.333364,202.291092 20.297123,196.430969 
	C20.709721,195.279434 20.828743,194.632294 20.947763,193.985168 
	C20.954676,193.543076 20.961586,193.100983 21.332760,192.252914 
	C23.752153,187.803909 26.658581,183.975220 24.936129,178.981140 
	C24.952366,178.224823 24.968603,177.468521 24.976135,176.333191 
	C25.158213,175.697144 25.381472,175.472397 25.822720,175.129456 
	C28.105173,174.365128 30.202114,173.751221 32.664848,173.176147 
	C24.679577,181.195572 26.332365,192.294235 24.009911,203.008606 
	C23.822222,208.530838 23.926331,213.026840 29.992407,214.005890 
	C33.016987,217.017914 42.857414,216.906540 46.640816,213.817459 
	C52.964355,208.654373 55.706009,208.757919 61.839485,214.942505 
	C61.999516,215.668045 61.998302,215.836456 61.997093,216.004883 
z"/>
<path fill="#B08F62" opacity="1.000000" stroke="none" 
	d="
M55.082088,99.736580 
	C55.433239,102.190170 55.784393,104.643761 56.105492,107.955444 
	C56.120205,110.561470 56.164970,112.309395 56.209736,114.057327 
	C56.161594,116.084915 56.113453,118.112511 55.815327,120.746445 
	C55.419106,121.917351 55.272873,122.481895 55.126637,123.046448 
	C54.729740,126.049385 54.332848,129.052322 53.595039,132.566925 
	C51.335976,135.762802 49.417828,138.447037 47.219860,141.522858 
	C45.115368,138.817856 43.593376,136.861557 42.071384,134.905258 
	C42.071384,134.905258 42.044056,134.454315 42.029160,133.839615 
	C41.026974,130.810745 40.039688,128.396576 39.052406,125.982414 
	C39.077732,124.853569 39.103058,123.724724 39.058723,121.978767 
	C39.346661,120.556824 39.704269,119.751991 40.103275,119.240669 
	C40.470928,119.999542 40.797184,120.464897 41.094490,121.288742 
	C41.715664,123.093918 42.365780,124.540611 43.053055,126.331284 
	C44.344288,128.162323 45.598358,129.649384 47.341671,131.716583 
	C50.473965,126.484894 53.492489,122.482880 51.992020,116.663834 
	C52.020115,115.888641 52.043133,115.445915 52.376076,114.950775 
	C53.087345,114.241142 53.488686,113.583939 53.902302,112.566391 
	C53.322861,111.121544 52.731144,110.037033 52.127106,108.519165 
	C52.120361,106.063148 52.125938,104.040504 52.398895,101.866638 
	C53.471550,101.055801 54.276821,100.396194 55.082088,99.736580 
z"/>
<path fill="#F2F2F2" opacity="1.000000" stroke="none" 
	d="
M65.119232,174.336563 
	C65.210564,174.848816 65.155128,175.075333 65.108566,176.050018 
	C67.679375,186.192169 70.347832,195.559326 72.723442,205.000198 
	C73.272331,207.181549 73.393440,209.809967 72.688583,211.885269 
	C71.709595,214.767700 70.770149,218.679184 65.994392,216.993301 
	C69.818825,211.285294 68.280540,205.619736 66.495789,199.595871 
	C64.741371,193.674347 64.182098,187.404907 62.958347,181.316299 
	C62.579399,179.430923 61.742321,177.637619 61.282223,175.246292 
	C61.649162,174.162460 61.848869,173.634491 62.048576,173.106537 
	C63.023205,173.421295 63.997837,173.736069 65.119232,174.336563 
z"/>
<path fill="#BCA179" opacity="1.000000" stroke="none" 
	d="
M40.061874,118.947159 
	C39.704269,119.751991 39.346661,120.556824 38.957199,121.710167 
	C37.518394,115.943245 36.111443,109.827820 34.879322,103.367958 
	C35.808098,103.006561 36.562042,102.989594 37.698647,103.387985 
	C38.455128,106.823380 38.828941,109.843422 39.186172,113.252632 
	C39.467022,115.410255 39.764446,117.178711 40.061874,118.947159 
z"/>
<path fill="#CAB084" opacity="1.000000" stroke="none" 
	d="
M42.047462,135.302460 
	C43.593376,136.861557 45.115368,138.817856 47.219860,141.522858 
	C49.417828,138.447037 51.335976,135.762802 53.579060,132.975952 
	C52.649742,135.828613 51.631268,138.915054 50.079468,141.704834 
	C48.280613,144.938797 46.027401,144.920502 44.299000,141.525665 
	C43.357670,139.676758 42.770462,137.647568 42.047462,135.302460 
z"/>
<path fill="#CCB07F" opacity="1.000000" stroke="none" 
	d="
M55.089451,99.582794 
	C54.276821,100.396194 53.471550,101.055801 52.092941,101.862656 
	C51.316540,102.011726 51.113476,102.013557 50.911217,101.653137 
	C50.898487,100.566528 50.884949,99.842178 50.915230,98.694183 
	C50.924217,97.137421 50.889385,96.004303 50.871586,94.509079 
	C51.580994,92.747536 52.273369,91.348091 52.965744,89.948654 
	C52.982410,90.409050 52.999077,90.869446 53.009995,92.096664 
	C53.672104,94.913017 54.339962,96.962547 55.007816,99.012070 
	C55.007816,99.012070 55.074883,99.065994 55.108879,99.095276 
	C55.142879,99.124550 55.096809,99.429008 55.089451,99.582794 
z"/>
<path fill="#CAB084" opacity="1.000000" stroke="none" 
	d="
M38.791725,126.214897 
	C40.039688,128.396576 41.026974,130.810745 42.001823,133.615387 
	C40.836609,131.486374 39.683826,128.966873 38.791725,126.214897 
z"/>
<path fill="#CAB084" opacity="1.000000" stroke="none" 
	d="
M56.540550,113.937881 
	C56.164970,112.309395 56.120205,110.561470 56.136196,108.379105 
	C59.086384,109.596649 58.374077,111.662163 56.540550,113.937881 
z"/>
<path fill="#E3E1DF" opacity="1.000000" stroke="none" 
	d="
M61.614639,173.046692 
	C61.848869,173.634491 61.649162,174.162460 61.218559,174.865753 
	C59.380875,174.635452 57.774086,174.229782 56.054688,173.480377 
	C57.688290,173.086700 59.434494,173.036774 61.614639,173.046692 
z"/>
<path fill="#E3E1DF" opacity="1.000000" stroke="none" 
	d="
M43.612179,172.109680 
	C42.243832,172.452179 40.475342,172.725327 38.297691,172.957825 
	C39.663033,172.624893 41.437534,172.332626 43.612179,172.109680 
z"/>
<path fill="#CAB084" opacity="1.000000" stroke="none" 
	d="
M55.393940,122.993431 
	C55.272873,122.481895 55.419106,121.917351 55.814198,121.181923 
	C55.929115,121.654167 55.795177,122.297295 55.393940,122.993431 
z"/>
<path fill="#E7E7E7" opacity="1.000000" stroke="none" 
	d="
M24.679554,179.234528 
	C26.658581,183.975220 23.752153,187.803909 21.342537,191.921448 
	C22.133026,187.826599 23.278004,183.657257 24.679554,179.234528 
z"/>
<path fill="#E7E7E7" opacity="1.000000" stroke="none" 
	d="
M20.723783,194.172028 
	C20.828743,194.632294 20.709721,195.279434 20.309809,195.967896 
	C20.185881,195.459106 20.342842,194.909012 20.723783,194.172028 
z"/>
<path fill="#F7F7F7" opacity="1.000000" stroke="none" 
	d="
M72.991692,255.995834 
	C70.819534,260.361572 68.204102,264.496185 62.717724,264.485291 
	C60.033192,264.479980 56.637028,263.891235 54.849575,262.203735 
	C52.629337,260.107635 50.003643,257.026215 52.712982,253.156097 
	C53.443295,252.112885 53.591156,250.663208 54.012257,249.402069 
	C56.338734,242.434616 57.569248,241.909149 64.939575,243.411987 
	C73.033798,245.062408 79.319290,248.712189 81.161118,257.351746 
	C81.582115,259.326569 81.434723,262.190399 80.265800,263.498108 
	C79.296501,264.582458 75.440491,264.834229 74.656914,263.919098 
	C73.537201,262.611389 74.044846,259.903198 73.881233,257.791290 
	C73.856094,257.466888 73.958046,257.132660 74.260109,256.167969 
	C74.518997,254.548752 74.518997,253.564590 74.518997,252.580414 
	C74.123123,252.613632 73.727242,252.646851 73.331367,252.680069 
	C73.218140,253.785324 73.104919,254.890579 72.991692,255.995834 
z"/>
<path fill="#F7F7F7" opacity="1.000000" stroke="none" 
	d="
M29.932001,271.975739 
	C29.942276,269.892273 29.952553,267.808838 30.229273,265.363464 
	C30.662350,264.995575 30.828983,264.989655 30.995615,264.983704 
	C33.136711,264.835693 35.277805,264.687683 38.112213,264.280518 
	C39.872097,264.017090 40.938671,264.012787 42.005241,264.008514 
	C44.123596,264.335449 46.231415,264.794647 48.362293,264.964386 
	C54.577900,265.459381 59.521069,268.632080 62.599998,274.141571 
	C61.622295,275.978333 60.758064,277.601898 59.711723,279.613281 
	C59.529613,280.001099 59.209145,280.003998 58.885040,279.872345 
	C56.695721,280.821472 54.830502,281.902252 52.590698,282.934052 
	C48.476494,281.588867 44.736870,280.292603 40.989685,278.623596 
	C39.458347,272.356232 34.356503,272.762360 29.932001,271.975739 
z"/>
<path fill="#F7F7F7" opacity="1.000000" stroke="none" 
	d="
M59.209145,280.003998 
	C59.209145,280.003998 59.529613,280.001099 59.687881,279.998108 
	C61.132713,279.687378 62.414009,279.144592 63.706821,279.115662 
	C67.690659,279.026367 68.353821,276.914673 67.746040,273.475006 
	C67.504837,272.109894 68.142319,270.589569 68.938065,269.037842 
	C69.496376,268.935822 69.895638,268.931610 69.895638,268.931610 
	C72.627495,268.952332 75.359360,268.973053 78.545364,269.435394 
	C78.411613,273.084473 78.552979,276.685944 77.078651,279.414429 
	C74.309883,284.538513 69.005806,284.883423 63.659534,285.127228 
	C60.198864,285.285034 60.276684,282.676422 59.066742,280.741638 
	C59.129662,280.329193 59.169403,280.166595 59.209145,280.003998 
z"/>
<path fill="#ECECEC" opacity="1.000000" stroke="none" 
	d="
M59.043571,280.991455 
	C60.276684,282.676422 60.198864,285.285034 63.659534,285.127228 
	C69.005806,284.883423 74.309883,284.538513 77.078651,279.414429 
	C78.552979,276.685944 78.411613,273.084473 78.999146,269.438812 
	C80.239899,271.123596 81.481010,273.246613 82.870613,275.697083 
	C83.019104,276.024597 83.006424,276.509125 82.989944,276.750854 
	C82.163704,277.850800 81.353943,278.708954 80.792992,280.048309 
	C81.068611,280.701233 81.095421,280.872986 81.122238,281.044708 
	C81.004112,281.356750 80.815926,281.618439 80.007874,281.979370 
	C79.000977,282.802246 78.543884,283.475555 78.086792,284.148865 
	C77.744469,284.878540 77.402145,285.608246 76.639412,286.647583 
	C75.477165,286.965973 74.735321,286.974670 73.784637,286.749817 
	C72.715179,286.993988 71.854553,287.471710 70.621399,287.969543 
	C69.502876,288.002380 68.756874,288.015076 67.834381,287.815002 
	C67.103439,288.055511 66.549011,288.508759 65.609360,288.982300 
	C63.482822,289.336334 61.741516,289.670013 60.000206,290.003723 
	C58.339462,288.585205 56.678715,287.166718 55.153915,285.088989 
	C56.541096,283.283661 57.792336,282.137573 59.043571,280.991455 
z"/>
<path fill="#DFDFDF" opacity="1.000000" stroke="none" 
	d="
M41.897945,263.734070 
	C40.938671,264.012787 39.872097,264.017090 38.405891,264.023132 
	C38.556946,263.049988 39.107643,262.075043 39.658344,261.100128 
	C40.369114,261.886627 41.079880,262.673126 41.897945,263.734070 
z"/>
<path fill="#E9E9E9" opacity="1.000000" stroke="none" 
	d="
M73.253853,255.997742 
	C73.104919,254.890579 73.218140,253.785324 73.331367,252.680069 
	C73.727242,252.646851 74.123123,252.613632 74.518997,252.580414 
	C74.518997,253.564590 74.518997,254.548752 74.279671,255.766464 
	C73.865562,255.999893 73.690788,255.999771 73.253853,255.997742 
z"/>
<path fill="#DFDFDF" opacity="1.000000" stroke="none" 
	d="
M30.996336,264.643555 
	C30.828983,264.989655 30.662350,264.995575 30.245567,264.999634 
	C29.682117,264.533813 29.368816,264.069946 29.025185,263.316986 
	C29.436491,263.009216 29.878126,262.990509 30.650600,262.956024 
	C30.986643,263.394653 30.991850,263.849030 30.996336,264.643555 
z"/>
<path fill="#DFDFDF" opacity="1.000000" stroke="none" 
	d="
M41.033295,258.255066 
	C41.432140,257.969543 41.880043,257.974457 42.663574,257.987549 
	C42.676785,258.492401 42.354366,258.989044 42.031952,259.485687 
	C41.715420,259.172272 41.398884,258.858887 41.033295,258.255066 
z"/>
<path fill="#C0C0C0" opacity="1.000000" stroke="none" 
	d="
M69.826302,268.795959 
	C69.895638,268.931610 69.496376,268.935822 69.297791,268.936066 
	C69.099213,268.936310 69.368477,268.588318 69.368477,268.588318 
	C69.368477,268.588318 69.756966,268.660278 69.826302,268.795959 
z"/>
<path fill="#FDFDFD" opacity="1.000000" stroke="none" 
	d="
M20.995604,247.259171 
	C22.668625,245.572815 24.409451,244.253601 26.506712,242.917877 
	C29.087652,243.156631 32.375916,241.468811 32.713268,245.335693 
	C32.832691,246.704544 31.318489,249.318207 30.261850,249.479919 
	C27.141253,249.957443 23.051462,253.193527 20.995604,247.259171 
z"/>
<path fill="#CBCCCC" opacity="1.000000" stroke="none" 
	d="
M59.688587,290.277588 
	C61.741516,289.670013 63.482822,289.336334 65.902481,288.967163 
	C67.057518,288.630341 67.534195,288.329041 68.010880,288.027740 
	C68.756874,288.015076 69.502876,288.002380 70.956474,287.980164 
	C72.440544,287.641541 73.217010,287.312469 73.993477,286.983368 
	C74.735321,286.974670 75.477165,286.965973 76.588898,286.947083 
	C76.967545,287.112854 76.976288,287.288818 76.989471,287.728943 
	C66.979561,292.481720 56.453465,293.787781 45.642910,292.636780 
	C40.599110,292.099792 35.568108,291.149902 30.643364,289.933441 
	C28.712999,289.456635 27.089418,287.737793 25.186798,286.264465 
	C34.824478,289.822083 44.989086,291.380432 55.470974,290.986115 
	C56.776577,290.937012 58.075142,290.700897 59.688587,290.277588 
z"/>
<path fill="#F0F0F0" opacity="1.000000" stroke="none" 
	d="
M40.997253,278.996338 
	C44.736870,280.292603 48.476494,281.588867 52.471939,283.231323 
	C52.481609,284.384949 52.235455,285.192352 51.989304,285.999756 
	C45.743786,285.215393 39.180363,285.512177 34.451874,280.371918 
	C36.863571,279.667023 38.930412,279.331665 40.997253,278.996338 
z"/>
<path fill="#FDFDFD" opacity="1.000000" stroke="none" 
	d="
M40.989689,278.623596 
	C38.930412,279.331665 36.863571,279.667023 34.393902,280.008087 
	C32.071136,278.189392 30.151201,276.364990 28.051090,274.246277 
	C28.446518,273.447968 29.022121,272.943939 29.764864,272.207825 
	C34.356503,272.762360 39.458347,272.356232 40.989689,278.623596 
z"/>
<path fill="#E0E0E0" opacity="1.000000" stroke="none" 
	d="
M52.308220,285.968414 
	C52.235455,285.192352 52.481609,284.384949 52.846519,283.280273 
	C54.830502,281.902252 56.695721,280.821472 58.885040,279.872345 
	C59.169403,280.166595 59.129662,280.329193 59.066746,280.741638 
	C57.792336,282.137573 56.541096,283.283661 55.144592,284.714233 
	C54.208603,285.311523 53.417870,285.624298 52.308220,285.968414 
z"/>
<path fill="#DEBE86" opacity="1.000000" stroke="none" 
	d="
M28.408478,302.991455 
	C26.654995,301.257355 25.321678,299.506042 23.991840,296.990173 
	C24.686411,294.806366 25.377504,293.387177 26.068596,291.967957 
	C30.426100,293.348022 34.783607,294.728088 39.649529,296.467072 
	C41.164314,297.182251 42.170677,297.538544 43.177044,297.894806 
	C43.582806,297.895081 43.988564,297.895325 44.698635,297.902588 
	C44.829334,302.470245 40.936718,301.307892 38.461113,301.882751 
	C35.334412,302.608826 32.046829,302.642120 28.408478,302.991455 
z"/>
<path fill="#D7B882" opacity="1.000000" stroke="none" 
	d="
M25.911949,291.681000 
	C25.377504,293.387177 24.686411,294.806366 23.989212,296.622681 
	C23.235332,297.011780 22.487562,297.003815 21.365387,296.990601 
	C20.992531,296.545319 20.994076,296.105255 21.231562,295.126221 
	C20.990959,293.734650 20.514420,292.882019 20.037880,292.029419 
	C20.484913,290.467590 20.931944,288.905762 21.688416,287.157410 
	C23.250340,288.445251 24.502821,289.919647 25.911949,291.681000 
z"/>
<path fill="#D3B582" opacity="1.000000" stroke="none" 
	d="
M43.062294,297.573181 
	C42.170677,297.538544 41.164314,297.182251 40.069443,296.502350 
	C40.969810,296.536316 41.958679,296.893921 43.062294,297.573181 
z"/>
<path fill="#E7E7E7" opacity="1.000000" stroke="none" 
	d="
M18.764885,266.785339 
	C18.221220,267.016876 17.741837,266.966583 17.262455,266.916260 
	C17.373753,266.494171 17.485048,266.072083 17.596344,265.649994 
	C18.007286,265.934509 18.418228,266.218994 18.764885,266.785339 
z"/>
<path fill="#DFBF86" opacity="1.000000" stroke="none" 
	d="
M49.692501,299.054260 
	C54.154263,298.999817 58.307911,299.000092 62.461563,298.999359 
	C70.013550,298.998016 70.013550,298.997772 68.994286,306.594971 
	C68.311348,307.396484 67.302620,307.630005 67.006226,308.220825 
	C64.847847,312.523285 61.289532,311.775879 57.712608,310.928101 
	C55.002552,310.285797 48.889740,301.526947 49.692501,299.054260 
z"/>
<path fill="#D3B582" opacity="1.000000" stroke="none" 
	d="
M65.675919,313.039429 
	C64.817863,313.834351 63.629044,314.663116 62.219418,315.249939 
	C63.114124,314.363129 64.229637,313.718231 65.675919,313.039429 
z"/>
<path fill="#F2DFAF" opacity="1.000000" stroke="none" 
	d="
M52.985847,89.550034 
	C52.273369,91.348091 51.580994,92.747536 50.558006,94.623604 
	C50.442066,96.439430 50.656742,97.778633 50.871414,99.117828 
	C50.884949,99.842178 50.898487,100.566528 50.658997,101.947205 
	C49.929943,105.700180 49.575840,108.821815 48.947899,111.887352 
	C48.109116,115.982185 45.546879,116.947510 42.136139,114.645988 
	C41.188774,114.006714 40.182178,113.455223 39.202755,112.863457 
	C38.828941,109.843422 38.455128,106.823380 38.076485,103.386475 
	C38.713554,98.937363 39.056118,94.827728 40.073399,90.892525 
	C41.334946,86.012428 43.155293,81.276779 44.877281,76.134048 
	C52.160717,75.591972 55.239632,80.743790 52.985847,89.550034 
z"/>
<path fill="#B08F62" opacity="1.000000" stroke="none" 
	d="
M54.999699,98.575211 
	C54.339962,96.962547 53.672104,94.913017 53.019852,92.442062 
	C53.456715,92.022461 53.877975,92.024284 54.613914,92.039352 
	C54.949589,94.081177 54.970585,96.109764 54.999699,98.575211 
z"/>
<path fill="#E4E4E4" opacity="1.000000" stroke="none" 
	d="
M78.397369,284.071625 
	C78.543884,283.475555 79.000977,282.802246 79.798325,282.104187 
	C79.661697,282.717743 79.184830,283.356049 78.397369,284.071625 
z"/>
<path fill="#CBCCCC" opacity="1.000000" stroke="none" 
	d="
M81.436691,281.030670 
	C81.095421,280.872986 81.068611,280.701233 81.040283,280.268890 
	C81.581367,280.177734 82.123947,280.347198 82.839966,280.749725 
	C82.592644,280.994049 82.171890,281.005341 81.436691,281.030670 
z"/>
<path fill="#CAAD7B" opacity="1.000000" stroke="none" 
	d="
M20.034344,292.360046 
	C20.514420,292.882019 20.990959,293.734650 21.231237,294.796051 
	C20.673586,294.233459 20.352198,293.462036 20.034344,292.360046 
z"/>
<path fill="#EDEDED" opacity="1.000000" stroke="none" 
	d="
M65.745239,216.995346 
	C70.770149,218.679184 71.709595,214.767700 72.688583,211.885269 
	C73.393440,209.809967 73.272331,207.181549 72.723442,205.000198 
	C70.347832,195.559326 67.679375,186.192169 65.061104,176.396576 
	C68.456863,176.508698 69.633369,178.357315 70.186661,181.969086 
	C71.100647,187.935394 73.033737,193.771515 74.841095,199.567795 
	C76.678352,205.459991 78.960304,211.243958 74.605431,216.995483 
	C71.755379,220.759567 69.085014,220.953415 65.073441,217.360748 
	C64.997810,217.004272 65.496086,216.997391 65.745239,216.995346 
z"/>
<path fill="#FEFEFE" opacity="1.000000" stroke="none" 
	d="
M30.413174,214.002899 
	C23.926331,213.026840 23.822222,208.530838 24.014683,203.436279 
	C26.110634,202.672867 28.193411,202.115555 30.293072,202.042313 
	C35.942074,201.845306 38.760391,204.022308 38.708668,209.024506 
	C38.654350,214.277420 34.510120,213.980637 30.413174,214.002899 
z"/>
<path fill="#F2F2F2" opacity="1.000000" stroke="none" 
	d="
M62.177841,216.236801 
	C61.998302,215.836456 61.999516,215.668045 62.002670,215.246979 
	C62.636326,215.450150 63.268032,215.906021 63.953827,216.673981 
	C63.458134,216.813599 62.908360,216.641159 62.177841,216.236801 
z"/>
<path fill="#DBC392" opacity="1.000000" stroke="none" 
	d="
M39.186172,113.252632 
	C40.182178,113.455223 41.188774,114.006714 42.136139,114.645988 
	C45.546879,116.947510 48.109116,115.982185 48.947899,111.887352 
	C49.575840,108.821815 49.929943,105.700180 50.658188,102.309456 
	C51.113476,102.013557 51.316540,102.011726 51.825562,102.013878 
	C52.125938,104.040504 52.120361,106.063148 51.842621,108.759979 
	C51.402454,110.637596 51.234455,111.841026 51.082710,113.336655 
	C51.421360,114.086967 51.743755,114.545082 52.066147,115.003197 
	C52.043133,115.445915 52.020115,115.888641 51.729084,116.854980 
	C50.960579,118.572906 50.460091,119.767204 49.586121,121.023232 
	C46.516235,121.033394 43.819839,120.981827 41.123440,120.930260 
	C40.797184,120.464897 40.470928,119.999542 40.103271,119.240669 
	C39.764446,117.178711 39.467022,115.410255 39.186172,113.252632 
z"/>
<path fill="#C0A170" opacity="1.000000" stroke="none" 
	d="
M49.959602,120.961502 
	C50.460091,119.767204 50.960579,118.572906 51.724003,117.187454 
	C53.492489,122.482880 50.473965,126.484894 47.341671,131.716583 
	C45.598358,129.649384 44.344288,128.162323 43.413170,126.379799 
	C48.929535,128.165741 49.619774,124.776474 49.959602,120.961502 
z"/>
<path fill="#CCB07F" opacity="1.000000" stroke="none" 
	d="
M49.586117,121.023232 
	C49.619774,124.776474 48.929535,128.165741 43.376011,126.035812 
	C42.365780,124.540611 41.715664,123.093918 41.094490,121.288742 
	C43.819839,120.981827 46.516235,121.033394 49.586117,121.023232 
z"/>
<path fill="#CCB07F" opacity="1.000000" stroke="none" 
	d="
M51.066452,113.044464 
	C51.234455,111.841026 51.402454,110.637596 51.854939,109.193344 
	C52.731144,110.037033 53.322861,111.121544 53.550934,112.587692 
	C52.480339,112.994385 51.773399,113.019424 51.066452,113.044464 
z"/>
<path fill="#C0A170" opacity="1.000000" stroke="none" 
	d="
M51.082710,113.336655 
	C51.773399,113.019424 52.480339,112.994385 53.538651,112.948044 
	C53.488686,113.583939 53.087345,114.241142 52.376076,114.950775 
	C51.743755,114.545082 51.421360,114.086967 51.082710,113.336655 
z"/>
<path fill="#DBC392" opacity="1.000000" stroke="none" 
	d="
M50.915230,98.694183 
	C50.656742,97.778633 50.442066,96.439430 50.540974,94.985703 
	C50.889385,96.004303 50.924217,97.137421 50.915230,98.694183 
z"/>
<path fill="#E7E7E7" opacity="1.000000" stroke="none" 
	d="
M73.784637,286.749817 
	C73.217010,287.312469 72.440544,287.641541 71.329002,287.960022 
	C71.854553,287.471710 72.715179,286.993988 73.784637,286.749817 
z"/>
<path fill="#E7E7E7" opacity="1.000000" stroke="none" 
	d="
M67.834373,287.815002 
	C67.534195,288.329041 67.057518,288.630341 66.287704,288.946838 
	C66.549011,288.508759 67.103439,288.055511 67.834373,287.815002 
z"/>
</svg>