<svg version="1.1" id="Layer_1" xmlns="http://www.w3.org/2000/svg" xmlns:xlink="http://www.w3.org/1999/xlink" x="0px" y="0px"
	 width="100%" viewBox="0 0 91 405" enable-background="new 0 0 91 405" xml:space="preserve">
<path fill="#F8F8F8" opacity="1.000000" stroke="none" 
	d="
M70.200233,223.368896 
	C68.677895,224.072403 67.155556,224.775925 65.424057,225.321579 
	C65.214905,225.163712 65.105530,224.797272 64.968536,224.437531 
	C62.632217,223.681107 60.194969,223.755203 58.283386,222.789139 
	C54.378342,220.815643 50.756058,218.282639 46.936554,215.616211 
	C44.097340,214.598923 41.250248,213.148376 38.597240,213.443344 
	C31.006582,214.287354 24.812376,208.881607 26.152838,201.531982 
	C27.391815,194.738770 28.993660,187.990707 30.844908,181.336609 
	C32.427029,175.649857 35.325985,170.688751 41.305771,167.942963 
	C42.276340,166.953934 42.939491,165.999619 43.892754,165.271790 
	C45.098049,165.718689 46.013241,165.939133 46.947971,166.470215 
	C47.645008,167.187225 48.322506,167.593613 49.397568,168.001770 
	C50.854584,168.013107 51.914036,168.022690 53.056213,168.390579 
	C56.093105,169.173859 59.047272,169.598846 62.328865,170.022491 
	C63.092312,170.031860 63.528332,170.042572 64.017761,170.406815 
	C68.289436,173.692581 70.938042,177.755737 72.655411,182.524155 
	C72.758743,182.811066 73.524887,182.859283 73.984337,183.432800 
	C73.985382,185.230118 73.984695,186.613220 73.706413,188.268372 
	C73.664604,192.903839 73.842354,197.272202 74.213509,201.624100 
	C74.257294,202.137405 75.362419,202.560196 75.977348,203.399612 
	C75.949478,204.524277 75.919807,205.274246 75.504456,206.011414 
	C72.480377,205.339172 69.396675,203.519119 67.317429,204.316910 
	C64.773819,205.292862 62.656612,208.232971 61.231003,210.808624 
	C60.729980,211.713821 62.626335,215.336609 63.758247,215.505508 
	C67.863998,216.118164 72.480591,218.435135 76.056854,214.382050 
	C75.023674,216.085968 73.907112,217.364014 72.960999,218.757767 
	C71.956474,220.237595 71.113663,221.827225 70.200233,223.368896 
z"/>
<path fill="#D2B889" opacity="1.000000" stroke="none" 
	d="
M36.979778,86.374275 
	C43.680210,85.641014 45.053360,86.699699 46.313087,94.068893 
	C46.665226,95.587852 46.781837,96.426483 46.898453,97.265106 
	C46.923428,98.914619 46.948406,100.564125 46.666672,102.876945 
	C46.870308,105.029266 47.380653,106.518272 47.890999,108.007286 
	C47.890995,108.007286 48.029469,108.407921 48.049820,108.969513 
	C48.726723,111.932304 49.923958,112.384056 51.832451,110.637047 
	C52.851868,109.703873 53.961620,108.869392 55.023865,108.421417 
	C55.033779,110.577896 55.050423,112.303329 55.055275,114.454948 
	C55.040894,116.587402 55.038307,118.293655 54.759445,120.189995 
	C50.048496,126.379562 47.824749,126.161400 44.729015,119.442070 
	C44.192150,118.276794 43.576019,117.148048 42.990891,115.617859 
	C42.655582,113.488564 42.325890,111.743820 41.999889,109.555702 
	C41.330296,106.408882 40.657005,103.705437 39.984138,100.554474 
	C38.833664,97.428276 42.745701,92.904839 36.786919,91.677345 
	C34.990952,92.428787 33.182598,93.170105 31.851122,94.419586 
	C23.412416,102.338692 20.960855,112.912239 21.231436,123.639862 
	C21.570284,137.074173 23.630938,150.465057 24.960590,163.918564 
	C24.972797,163.962448 25.019829,164.040497 24.592808,164.011627 
	C22.457027,163.975494 20.748268,163.968231 19.019871,163.588989 
	C18.712351,161.833511 18.424469,160.450027 18.136585,159.066544 
	C17.421501,155.319885 16.706421,151.573212 16.344078,147.135880 
	C16.741095,144.970947 16.871101,143.493423 16.815084,142.022980 
	C16.546917,134.983765 16.194790,127.947678 15.943534,120.907944 
	C15.836741,117.915825 15.903721,114.917511 15.891727,111.922012 
	C16.601051,109.193069 17.310373,106.464134 18.285164,103.216301 
	C18.758511,102.458855 18.891687,102.184074 18.950163,101.873077 
	C18.950163,101.873077 18.955751,101.953293 19.280024,101.913422 
	C20.368414,100.197388 21.132532,98.521240 21.896648,96.845085 
	C21.896646,96.845085 21.927162,96.940918 22.141514,96.848793 
	C22.553608,96.450279 22.751348,96.143883 22.949089,95.837494 
	C22.949089,95.837494 22.941582,95.941132 23.249184,95.935875 
	C28.031116,92.745171 32.505447,89.559723 36.979778,86.374275 
z"/>
<path fill="#DEDEDE" opacity="1.000000" stroke="none" 
	d="
M47.017319,215.980072 
	C50.756058,218.282639 54.378342,220.815643 58.283386,222.789139 
	C60.194969,223.755203 62.632217,223.681107 64.673233,224.507904 
	C64.024666,225.238556 63.534420,225.539062 63.044174,225.839569 
	C61.561634,226.180252 60.079098,226.520935 57.879074,226.865967 
	C56.427139,227.445953 55.692688,228.021606 54.958233,228.597260 
	C54.565857,228.857193 54.173481,229.117126 53.381180,228.924286 
	C52.881214,227.987976 52.915237,227.172440 52.661350,227.069931 
	C47.633095,225.039627 42.577011,223.077240 37.500347,221.170898 
	C37.247311,221.075867 36.756687,221.613571 35.531155,222.397522 
	C38.577785,224.873795 41.265884,227.058670 43.953979,229.243530 
	C38.737759,227.103256 33.521538,224.962952 28.131718,222.092926 
	C27.474419,220.317169 26.990721,219.271133 26.507023,218.225113 
	C26.001917,219.427155 25.496811,220.629196 24.991707,221.831238 
	C22.607647,220.495850 20.223587,219.160477 18.050838,217.481659 
	C19.419037,217.208817 20.575922,217.279388 23.010265,217.427917 
	C21.095255,214.937317 19.756079,213.534637 18.822374,211.900299 
	C17.486141,209.561417 15.375066,207.016937 15.456060,204.623230 
	C15.933714,190.506760 19.879927,177.111633 25.019829,164.040497 
	C25.019829,164.040497 24.972797,163.962448 25.432590,163.968185 
	C31.879606,164.019272 37.866829,164.064621 43.893234,164.336365 
	C43.932415,164.562759 44.023899,165.013062 43.918556,165.020767 
	C43.813213,165.028473 43.602634,165.045303 43.602638,165.045303 
	C42.939491,165.999619 42.276340,166.953934 41.022690,167.663177 
	C35.620186,166.457153 30.410778,166.025024 28.793884,171.789856 
	C26.041374,181.603592 23.812071,191.610367 22.158625,201.666885 
	C21.307543,206.843307 23.097322,211.822861 28.227003,214.814362 
	C33.292099,217.768219 38.211674,221.204514 44.132072,216.537811 
	C44.815636,215.998993 46.042397,216.149277 47.017319,215.980072 
z"/>
<path fill="#EEEEEE" opacity="1.000000" stroke="none" 
	d="
M83.136246,266.941864 
	C83.337311,271.065155 83.658508,275.187439 83.691795,279.312103 
	C83.710068,281.576813 83.243111,283.845490 82.572662,286.571594 
	C80.756065,289.344940 79.361748,291.659088 77.954208,294.257751 
	C77.935066,294.732117 77.929161,294.921936 77.915909,295.262451 
	C77.908577,295.413116 77.965485,295.709381 77.664703,295.899658 
	C76.179962,297.048096 74.996010,298.006287 73.437447,298.961182 
	C71.380241,299.320129 69.697647,299.682404 67.662292,300.036621 
	C66.527596,300.676636 65.745674,301.324738 64.622162,302.010376 
	C63.188297,302.359863 62.096012,302.671753 60.829071,302.764587 
	C60.077358,303.007751 59.500298,303.470001 58.487610,303.937500 
	C54.703121,303.603058 51.354256,303.263367 47.965694,302.582214 
	C45.620667,300.181458 43.315334,298.122192 40.927353,295.877747 
	C40.538803,295.792542 40.232906,295.892548 39.637436,296.234253 
	C35.139324,299.092072 31.029222,298.561432 28.361256,294.964478 
	C30.148130,293.620880 31.567562,292.322906 33.327400,291.054047 
	C34.893738,291.606903 36.119675,292.130646 37.345612,292.654388 
	C37.679058,292.354950 38.012508,292.055511 38.345955,291.756042 
	C32.970436,288.976746 28.118389,285.900055 30.348049,279.065033 
	C33.034222,281.811829 33.275444,286.832397 39.733715,286.510315 
	C34.705189,281.622894 38.420254,277.931519 40.296860,273.843445 
	C42.321880,273.116913 44.048363,272.064819 45.774040,272.066132 
	C48.863674,272.068512 51.952820,272.705200 55.024586,273.434692 
	C53.355244,275.514374 51.806175,277.352783 50.021160,278.923004 
	C48.426041,280.326141 45.933853,281.081818 45.003792,282.766907 
	C44.016754,284.555206 43.382866,288.254150 44.362946,289.122101 
	C49.184223,293.391846 53.002808,299.251953 61.549343,297.246643 
	C71.069107,295.012970 79.502205,285.282898 78.329865,276.143433 
	C82.581924,278.063629 81.852623,275.116486 81.978226,272.617004 
	C82.369583,270.449738 82.752914,268.695801 83.136246,266.941864 
z"/>
<path fill="#EEEEEE" opacity="1.000000" stroke="none" 
	d="
M10.148310,269.995300 
	C11.312263,254.452576 16.826376,246.355865 34.427418,245.842209 
	C40.468281,245.665924 46.509865,243.883286 52.456059,242.442261 
	C63.959389,239.654541 80.321587,248.519608 82.533920,259.630219 
	C81.377220,261.423096 80.606178,262.772156 80.018890,264.196991 
	C78.957367,266.772339 78.005592,269.392914 76.685684,271.855774 
	C74.910690,271.139221 73.458008,270.561493 72.246674,269.718964 
	C73.749962,268.589447 75.439285,268.000671 76.204559,266.815308 
	C81.208191,259.064972 77.403023,251.791946 69.111320,248.315369 
	C65.488075,246.796188 61.213840,246.559982 57.202518,246.341278 
	C54.941505,246.218002 51.441551,246.598755 50.572750,248.019836 
	C49.007931,250.579391 48.051140,253.778503 51.221603,256.988678 
	C54.654354,260.464417 59.079082,263.926361 57.765446,269.979614 
	C57.337955,270.006775 57.167004,270.018372 56.593662,270.022400 
	C54.626530,269.911835 53.061787,269.808868 50.836269,269.662354 
	C52.291965,267.488708 53.302410,265.979889 54.446896,264.270966 
	C52.557144,264.039429 51.109455,263.862061 49.784927,263.699799 
	C47.484272,258.224213 45.281372,252.981247 43.078472,247.738312 
	C42.233826,248.093872 41.389179,248.449432 40.544533,248.804993 
	C41.885315,252.228226 43.072212,255.722519 44.611084,259.054260 
	C46.085876,262.247253 47.619480,265.253021 44.016552,267.644287 
	C43.333820,265.650726 42.746906,264.002869 41.967937,262.451416 
	C40.723419,259.972748 38.891136,257.691895 38.133690,255.087128 
	C36.764271,250.377991 33.996826,248.370148 29.109165,249.469864 
	C27.344450,249.866913 25.609953,250.397659 23.860125,250.861588 
	C18.368046,252.317719 15.684215,256.682129 16.485445,262.231964 
	C16.653316,263.394714 15.532703,264.743530 14.954224,265.694275 
	C14.282223,265.408997 13.341557,265.188507 13.096606,265.505554 
	C12.005198,266.918182 11.112687,268.484528 10.148310,269.995300 
z"/>
<path fill="#D0B381" opacity="1.000000" stroke="none" 
	d="
M35.816338,329.032257 
	C35.816338,329.032257 35.407188,329.034515 35.076187,328.737579 
	C34.422363,328.306824 34.099537,328.173035 33.776714,328.039215 
	C33.453953,328.054688 33.210464,327.923279 32.902504,327.164001 
	C32.455097,326.465027 32.151432,326.247040 31.847773,326.029083 
	C31.847775,326.029083 31.974947,326.026917 31.868973,325.830231 
	C31.459173,325.433533 31.155348,325.233551 30.851524,325.033539 
	C30.851524,325.033539 30.973791,325.026001 30.865936,324.829529 
	C30.454201,324.433472 30.150320,324.233887 29.846443,324.034302 
	C29.846445,324.034302 29.971216,324.033203 29.872555,323.827515 
	C29.459917,323.430939 29.145943,323.240021 28.831966,323.049133 
	C28.831966,323.049133 28.953819,323.047852 28.890507,322.854309 
	C28.583984,322.431091 28.340771,322.201416 28.097561,321.971741 
	C28.097561,321.971741 27.958063,321.602356 27.859589,321.138031 
	C27.456543,320.459290 27.151974,320.244873 26.847404,320.030457 
	C26.847406,320.030457 26.950466,320.043396 26.966423,319.700806 
	C25.940268,317.594177 24.898155,315.830109 23.856049,314.066071 
	C23.856052,314.066071 23.956411,314.045410 23.882214,313.873352 
	C23.684816,313.394135 23.471735,313.173981 23.168774,313.040833 
	C21.860430,309.630127 20.552084,306.219421 19.284445,302.212341 
	C22.846590,302.771088 26.368029,303.926208 30.003899,305.438110 
	C30.621567,306.170502 31.093004,306.818237 31.632780,306.881317 
	C41.087440,307.986481 50.550465,309.020081 60.009300,310.435425 
	C60.005089,311.534027 60.003250,312.266388 59.712456,313.285187 
	C55.614719,314.049347 51.805935,314.527100 47.664284,315.004150 
	C46.887604,315.003448 46.443783,315.003540 45.734226,314.724609 
	C40.155628,312.927399 34.842766,311.409149 28.625383,309.632446 
	C30.225430,314.814972 30.648462,320.138916 35.245720,324.269226 
	C37.968510,324.755890 40.522053,324.675659 42.910011,325.265625 
	C45.036499,325.791046 46.979683,327.058380 48.808231,328.248627 
	C47.743469,329.275360 46.874233,330.051758 46.005005,330.828186 
	C43.143951,330.840302 40.282898,330.852448 37.080456,330.255005 
	C36.431496,329.441040 36.123917,329.236664 35.816338,329.032257 
z"/>
<path fill="#E9E9E9" opacity="1.000000" stroke="none" 
	d="
M10.075327,270.414307 
	C11.112687,268.484528 12.005198,266.918182 13.096606,265.505554 
	C13.341557,265.188507 14.282223,265.408997 14.953093,266.118378 
	C15.682137,269.887238 16.360697,272.919708 16.640829,275.967285 
	C14.943541,276.144745 13.644679,276.307098 12.345818,276.469421 
	C12.570367,277.319611 12.794918,278.169861 13.012587,279.455933 
	C12.972866,289.975372 17.899832,294.945160 27.993811,295.010132 
	C31.029222,298.561432 35.139324,299.092072 39.908794,296.249207 
	C40.649811,296.035919 40.829903,296.049408 41.009998,296.062927 
	C43.315334,298.122192 45.620667,300.181458 47.742729,302.859711 
	C46.049126,303.947998 44.538792,304.417328 42.673035,304.864594 
	C40.545048,304.231049 38.772484,303.619598 36.768326,302.730225 
	C34.025963,302.270264 31.515200,302.088287 28.640835,301.878296 
	C25.189417,300.222839 22.101603,298.595398 18.976782,296.648987 
	C18.341452,295.607086 17.743124,294.884155 17.144796,294.161224 
	C16.877129,294.318481 16.609459,294.475739 16.341789,294.633026 
	C16.587385,295.448944 16.832981,296.264893 17.065062,297.407166 
	C17.016418,298.383331 16.981289,299.033112 16.946161,299.682892 
	C10.312700,291.105865 7.507518,281.607422 10.075327,270.414307 
z"/>
<path fill="#D0CFCE" opacity="1.000000" stroke="none" 
	d="
M70.605026,223.336868 
	C71.113663,221.827225 71.956474,220.237595 72.960999,218.757767 
	C73.907112,217.364014 75.023674,216.085968 76.063141,213.945770 
	C76.063393,211.100739 76.065758,209.066971 76.456360,206.930878 
	C77.117928,201.865631 77.420937,196.903717 77.592453,191.937286 
	C77.602974,191.632446 76.574425,191.291733 76.031082,190.640015 
	C76.035164,189.875412 76.037498,189.438492 76.312912,188.727737 
	C75.735191,184.625961 74.884407,180.798050 74.024307,176.600922 
	C71.986794,173.836319 69.958588,171.440933 68.319946,169.021881 
	C69.487282,168.978134 70.265053,168.958054 71.393127,169.000214 
	C73.565392,169.403091 75.387344,169.743744 77.209305,170.084412 
	C80.713348,178.070801 81.109268,186.533722 80.724808,195.824951 
	C80.271446,198.648987 79.832024,200.752609 80.077316,202.773132 
	C80.333725,204.885178 81.248756,206.917267 81.875885,208.984299 
	C81.930832,209.744858 81.985771,210.505417 81.634041,211.684341 
	C81.205643,213.095245 81.183907,214.087769 81.162178,215.080307 
	C81.347687,222.228149 75.247063,221.616409 70.605026,223.336868 
z"/>
<path fill="#D6D5D4" opacity="1.000000" stroke="none" 
	d="
M24.592808,164.011627 
	C19.879927,177.111633 15.933714,190.506760 15.456060,204.623230 
	C15.375066,207.016937 17.486141,209.561417 18.822374,211.900299 
	C19.756079,213.534637 21.095255,214.937317 23.010265,217.427917 
	C20.575922,217.279388 19.419037,217.208817 17.885229,217.162689 
	C17.089563,216.872604 16.670818,216.558060 16.118446,215.624817 
	C14.036713,211.006378 12.088603,207.006638 10.140494,203.006882 
	C10.091067,201.610992 10.041640,200.215103 10.433847,198.313202 
	C12.583898,191.177765 14.406908,184.574478 15.927571,177.902267 
	C16.357155,176.017395 15.902296,173.930923 15.853077,171.936920 
	C15.891938,170.877914 15.930799,169.818893 16.247314,168.241882 
	C16.748005,167.485916 16.886948,167.206177 16.941797,166.884644 
	C16.941797,166.884644 16.965134,166.967010 17.274414,166.920074 
	C18.037281,165.933746 18.490864,164.994354 18.968212,164.031479 
	C18.991976,164.007980 19.039511,163.960983 19.039511,163.960983 
	C20.748268,163.968231 22.457027,163.975494 24.592808,164.011627 
z"/>
<path fill="#CFB789" opacity="1.000000" stroke="none" 
	d="
M77.355194,169.648468 
	C75.387344,169.743744 73.565392,169.403091 71.391174,168.613373 
	C71.716980,162.442322 72.395035,156.720337 73.064819,150.604156 
	C73.061394,149.158615 73.066231,148.107269 73.442184,146.953552 
	C74.215057,145.847412 74.791626,144.876816 74.989433,143.834320 
	C76.052238,138.233154 77.020821,132.614105 78.303436,127.125267 
	C79.670158,127.826965 80.755371,128.404617 81.840584,128.982254 
	C81.599228,129.782166 81.357880,130.582077 80.641449,131.738770 
	C78.182823,133.236282 76.339691,134.389053 79.831528,135.999420 
	C79.557709,140.133224 79.298950,144.268097 79.006706,148.400589 
	C78.516052,155.338699 78.004082,162.275299 77.355194,169.648468 
z"/>
<path fill="#CEB589" opacity="1.000000" stroke="none" 
	d="
M82.045288,128.605377 
	C80.755371,128.404617 79.670158,127.826965 78.295547,126.680305 
	C78.014580,123.735641 78.023018,121.359985 78.306007,118.707863 
	C78.541611,115.854256 80.729591,112.811607 77.014740,110.595230 
	C75.667854,106.792961 74.333412,103.395714 72.956436,99.680779 
	C72.285133,98.901733 71.656380,98.440384 71.022820,97.733047 
	C71.018021,97.487061 71.003677,96.995216 71.000717,96.642502 
	C69.995415,94.864197 68.993073,93.438599 67.771729,91.749023 
	C66.696281,90.323669 65.839828,89.162292 65.238663,87.843155 
	C65.714806,87.355034 65.935661,87.024681 66.156517,86.694321 
	C66.739037,86.814407 67.321548,86.934494 68.095276,87.631775 
	C68.612877,88.432549 68.939262,88.656136 69.265640,88.879723 
	C69.265640,88.879723 69.120323,88.875366 69.160423,88.997940 
	C69.464035,89.102623 69.727539,89.084724 69.991051,89.066833 
	C78.019913,93.262772 80.218895,101.274666 81.758469,108.995773 
	C82.994164,115.192955 82.163635,121.802155 82.045288,128.605377 
z"/>
<path fill="#D4B786" opacity="1.000000" stroke="none" 
	d="
M60.001411,312.998779 
	C60.003250,312.266388 60.005089,311.534027 60.337563,310.411499 
	C61.107132,310.012817 61.546062,310.004272 62.188084,310.244934 
	C63.266598,310.011169 64.142021,309.528137 65.345581,309.029297 
	C66.111298,308.996796 66.548866,308.980133 66.999313,309.365387 
	C70.443314,316.464752 62.694824,321.164795 63.514542,327.658356 
	C64.932045,326.673035 66.026855,325.912018 67.121674,325.151001 
	C63.616058,334.669312 55.510883,336.993439 46.376183,330.910767 
	C46.874233,330.051758 47.743469,329.275360 49.172916,328.293152 
	C51.819561,328.722870 53.905991,329.358368 56.337669,329.962585 
	C57.786377,329.622070 58.889835,329.312866 60.032227,329.283447 
	C60.373932,329.880554 60.676708,330.197906 60.979485,330.515228 
	C61.157650,330.308899 61.335815,330.102539 61.513981,329.896210 
	C61.010696,329.595245 60.507412,329.294281 60.008926,328.618164 
	C61.328838,325.048798 62.593727,321.832733 63.971550,318.665802 
	C65.764221,314.545349 64.549782,312.628693 60.001411,312.998779 
z"/>
<path fill="#C4AC80" opacity="1.000000" stroke="none" 
	d="
M67.104614,325.137848 
	C66.026855,325.912018 64.932045,326.673035 63.514542,327.658356 
	C62.694824,321.164795 70.443314,316.464752 67.198997,309.105865 
	C68.611961,307.318146 69.838120,306.191895 71.455223,305.056458 
	C73.404022,305.042145 74.961876,305.036987 76.519737,305.031860 
	C74.722748,308.801147 72.925751,312.570465 70.641777,316.748230 
	C69.793755,318.165710 69.432709,319.174713 69.071663,320.183746 
	C69.071663,320.183746 69.039536,320.615509 68.760605,320.945190 
	C68.246635,321.521881 68.116310,321.815399 68.090683,322.155426 
	C68.090683,322.155426 68.071350,322.043976 67.820480,322.227051 
	C67.420486,323.319305 67.271362,324.228455 67.122238,325.137604 
	C67.122238,325.137604 67.087570,325.124695 67.104614,325.137848 
z"/>
<path fill="#DCC69A" opacity="1.000000" stroke="none" 
	d="
M55.030602,107.990364 
	C53.961620,108.869392 52.851868,109.703873 51.832451,110.637047 
	C49.923958,112.384056 48.726723,111.932304 48.062164,109.181107 
	C51.302345,108.323410 52.201820,104.618752 50.928127,100.252396 
	C49.608864,95.729805 49.033882,90.990105 48.777695,86.364799 
	C50.280693,88.926880 51.139359,91.469521 51.998352,94.260300 
	C51.998680,94.508423 52.005802,95.004921 52.007915,95.247498 
	C52.010029,95.490082 52.024487,95.975044 52.028984,96.381332 
	C52.574242,99.354477 53.115009,101.921326 53.451736,103.519676 
	C55.223106,101.376152 57.050911,99.164345 58.915382,97.291733 
	C58.973923,98.085258 58.995789,98.539581 58.727806,99.219147 
	C57.302170,102.293053 56.166382,105.141708 55.030602,107.990364 
z"/>
<path fill="#CAB083" opacity="1.000000" stroke="none" 
	d="
M51.998024,94.012169 
	C51.139359,91.469521 50.280693,88.926880 49.124466,86.126755 
	C51.875961,82.207832 55.083492,81.852936 60.675632,85.137878 
	C61.008701,86.127701 61.015133,86.574051 61.012562,87.275528 
	C61.002705,87.701004 61.001858,87.871353 60.665627,88.050522 
	C59.543831,88.368080 58.757423,88.676819 57.706871,89.105591 
	C56.955929,89.810928 56.469131,90.396240 55.654320,91.017685 
	C54.216885,92.039932 53.107452,93.026054 51.998024,94.012169 
z"/>
<path fill="#BFBFBE" opacity="1.000000" stroke="none" 
	d="
M17.076153,299.983337 
	C16.981289,299.033112 17.016418,298.383331 17.386372,297.384491 
	C18.152058,297.012939 18.582918,296.990448 19.013783,296.967957 
	C22.101603,298.595398 25.189417,300.222839 28.880505,302.169373 
	C31.989157,302.661682 34.494537,302.834930 36.999916,303.008148 
	C38.772484,303.619598 40.545048,304.231049 42.663765,305.151947 
	C43.005371,305.652222 43.000832,305.843079 42.733276,306.306213 
	C38.276661,306.079468 34.083061,305.580414 29.889465,305.081360 
	C26.368029,303.926208 22.846590,302.771088 19.129486,301.881287 
	C18.357931,301.525665 17.782038,300.904694 17.076153,299.983337 
z"/>
<path fill="#CBCBCB" opacity="1.000000" stroke="none" 
	d="
M44.183155,229.413147 
	C41.265884,227.058670 38.577785,224.873795 35.531155,222.397522 
	C36.756687,221.613571 37.247311,221.075867 37.500347,221.170898 
	C42.577011,223.077240 47.633095,225.039627 52.661350,227.069931 
	C52.915237,227.172440 52.881214,227.987976 53.025810,228.887817 
	C51.937656,229.528046 50.804943,229.751984 49.267834,229.589355 
	C47.912560,229.440262 46.961685,229.677734 46.010815,229.915207 
	C45.477985,229.804398 44.945156,229.693588 44.183155,229.413147 
z"/>
<path fill="#E1D2BA" opacity="1.000000" stroke="none" 
	d="
M15.546013,112.132812 
	C15.903721,114.917511 15.836741,117.915825 15.943534,120.907944 
	C16.194790,127.947678 16.546917,134.983765 16.815084,142.022980 
	C16.871101,143.493423 16.741095,144.970947 16.413082,146.720062 
	C13.238655,135.513687 11.941381,123.989731 15.546013,112.132812 
z"/>
<path fill="#DEDEDE" opacity="1.000000" stroke="none" 
	d="
M15.510160,172.131805 
	C15.902296,173.930923 16.357155,176.017395 15.927571,177.902267 
	C14.406908,184.574478 12.583898,191.177765 10.509619,197.899963 
	C11.571371,190.679047 12.998375,183.365219 14.427183,176.051743 
	C14.669915,174.809296 14.920362,173.568344 15.510160,172.131805 
z"/>
<path fill="#E9E9E9" opacity="1.000000" stroke="none" 
	d="
M77.007996,271.994598 
	C78.005592,269.392914 78.957367,266.772339 80.018890,264.196991 
	C80.606178,262.772156 81.377220,261.423096 82.462135,260.017792 
	C82.916351,262.023254 82.973854,264.050751 83.083801,266.510071 
	C82.752914,268.695801 82.369583,270.449738 81.595215,272.607697 
	C79.805450,272.672699 78.406723,272.333649 77.007996,271.994598 
z"/>
<path fill="#D6D5D4" opacity="1.000000" stroke="none" 
	d="
M77.967422,293.973206 
	C79.361748,291.659088 80.756065,289.344940 82.512924,287.006897 
	C82.930817,287.438568 82.986160,287.894165 82.805916,288.744446 
	C82.500267,289.227509 82.352249,289.353333 82.373581,289.397644 
	C82.467651,289.592926 82.610519,289.764740 82.735710,289.945038 
	C81.400543,293.268402 80.065369,296.591736 78.450592,299.853790 
	C78.170998,299.792480 78.057014,299.594666 78.045197,299.216187 
	C78.010750,297.794952 77.988113,296.752167 77.965485,295.709381 
	C77.965485,295.709381 77.908577,295.413116 78.194412,295.205353 
	C78.854088,294.627686 79.227921,294.257782 79.601761,293.887878 
	C79.056984,293.916321 78.512207,293.944763 77.967422,293.973206 
z"/>
<path fill="#D8C8AA" opacity="1.000000" stroke="none" 
	d="
M36.597031,86.400574 
	C32.505447,89.559723 28.031116,92.745171 23.199413,95.920967 
	C25.872269,90.737625 30.135155,87.301888 36.597031,86.400574 
z"/>
<path fill="#DEDEDE" opacity="1.000000" stroke="none" 
	d="
M10.069858,203.400314 
	C12.088603,207.006638 14.036713,211.006378 16.023325,215.375137 
	C14.040959,211.760681 12.020090,207.777206 10.069858,203.400314 
z"/>
<path fill="#E6E6E6" opacity="1.000000" stroke="none" 
	d="
M81.936539,208.528839 
	C81.248756,206.917267 80.333725,204.885178 80.077316,202.773132 
	C79.832024,200.752609 80.271446,198.648987 80.703705,196.291534 
	C81.330734,200.025253 81.663971,204.049332 81.936539,208.528839 
z"/>
<path fill="#B0AAA1" opacity="1.000000" stroke="none" 
	d="
M76.607925,304.654175 
	C74.961876,305.036987 73.404022,305.042145 71.434525,305.035034 
	C71.022896,305.022797 70.984665,304.980103 71.096313,304.720337 
	C71.449898,303.951508 71.691841,303.442444 72.188553,302.765015 
	C73.278465,301.719238 74.113617,300.841827 75.341858,299.972870 
	C76.508965,299.852478 77.282990,299.723572 78.057014,299.594666 
	C78.057014,299.594666 78.170998,299.792480 78.084740,299.867310 
	C77.564354,301.386902 77.130234,302.831696 76.607925,304.654175 
z"/>
<path fill="#D9C094" opacity="1.000000" stroke="none" 
	d="
M61.021568,87.020393 
	C61.015133,86.574051 61.008701,86.127701 60.999477,85.346573 
	C62.607933,85.354004 64.219177,85.696205 65.993469,86.366364 
	C65.935661,87.024681 65.714806,87.355034 64.892029,87.842285 
	C63.200588,87.672920 62.111080,87.346657 61.021568,87.020393 
z"/>
<path fill="#D6D5D4" opacity="1.000000" stroke="none" 
	d="
M25.354626,221.909805 
	C25.496811,220.629196 26.001917,219.427155 26.507023,218.225113 
	C26.990721,219.271133 27.474419,220.317169 27.946526,221.760620 
	C27.195805,222.101501 26.456675,222.044937 25.354626,221.909805 
z"/>
<path fill="#DDC9A9" opacity="1.000000" stroke="none" 
	d="
M23.908356,314.429626 
	C24.898155,315.830109 25.940268,317.594177 26.951115,319.750427 
	C25.933455,318.359497 24.947060,316.576324 23.908356,314.429626 
z"/>
<path fill="#CEB589" opacity="1.000000" stroke="none" 
	d="
M79.988747,135.671234 
	C76.339691,134.389053 78.182823,133.236282 80.500473,132.047241 
	C80.605034,133.113647 80.375496,134.228363 79.988747,135.671234 
z"/>
<path fill="#D8C8AA" opacity="1.000000" stroke="none" 
	d="
M21.580246,96.986786 
	C21.132532,98.521240 20.368414,100.197388 19.240522,101.905930 
	C19.672447,100.335045 20.468145,98.731766 21.580246,96.986786 
z"/>
<path fill="#DCC69A" opacity="1.000000" stroke="none" 
	d="
M47.960022,107.633110 
	C47.380653,106.518272 46.870308,105.029266 46.602779,103.288071 
	C47.240082,104.443573 47.634563,105.851257 47.960022,107.633110 
z"/>
<path fill="#D6D5D4" opacity="1.000000" stroke="none" 
	d="
M18.081787,159.435410 
	C18.424469,160.450027 18.712351,161.833511 19.019871,163.588989 
	C19.039511,163.960983 18.991976,164.007980 18.674915,164.014694 
	C17.964941,164.017883 17.572027,164.014374 17.179111,164.010864 
	C17.461739,162.608673 17.744364,161.206467 18.081787,159.435410 
z"/>
<path fill="#DEDEDE" opacity="1.000000" stroke="none" 
	d="
M17.101711,164.371338 
	C17.572027,164.014374 17.964941,164.017883 18.651154,164.038193 
	C18.490864,164.994354 18.037281,165.933746 17.234657,166.904190 
	C16.931849,166.200775 16.978079,165.466278 17.101711,164.371338 
z"/>
<path fill="#DEDEDE" opacity="1.000000" stroke="none" 
	d="
M46.376541,230.004303 
	C46.961685,229.677734 47.912560,229.440262 48.922550,229.521011 
	C48.235199,229.923950 47.488731,230.008667 46.376541,230.004303 
z"/>
<path fill="#CBCBCB" opacity="1.000000" stroke="none" 
	d="
M55.266026,228.625977 
	C55.692688,228.021606 56.427139,227.445953 57.486031,226.899261 
	C57.064915,227.503708 56.319366,228.079193 55.266026,228.625977 
z"/>
<path fill="#E6E6E6" opacity="1.000000" stroke="none" 
	d="
M81.477921,214.928009 
	C81.183907,214.087769 81.205643,213.095245 81.553467,212.059021 
	C81.850929,212.935455 81.822296,213.855591 81.477921,214.928009 
z"/>
<path fill="#D4B786" opacity="1.000000" stroke="none" 
	d="
M69.364517,320.043579 
	C69.432709,319.174713 69.793755,318.165710 70.496445,317.085266 
	C70.444511,317.977081 70.050934,318.940247 69.364517,320.043579 
z"/>
<path fill="#D0CFCE" opacity="1.000000" stroke="none" 
	d="
M63.241943,225.967361 
	C63.534420,225.539062 64.024666,225.238556 64.810219,224.867645 
	C65.105530,224.797272 65.214905,225.163712 65.101944,225.317993 
	C64.472557,225.679901 63.956135,225.887527 63.241943,225.967361 
z"/>
<path fill="#0B0A09" opacity="1.000000" stroke="none" 
	d="
M46.952049,96.935654 
	C46.781837,96.426483 46.665226,95.587852 46.523453,94.430130 
	C46.667408,94.942757 46.836529,95.774475 46.952049,96.935654 
z"/>
<path fill="#D4B786" opacity="1.000000" stroke="none" 
	d="
M67.435829,324.976044 
	C67.271362,324.228455 67.420486,323.319305 67.876999,322.228882 
	C68.039398,322.969910 67.894409,323.892181 67.435829,324.976044 
z"/>
<path fill="#D4B786" opacity="1.000000" stroke="none" 
	d="
M68.340973,322.058014 
	C68.116310,321.815399 68.246635,321.521881 68.692139,321.150543 
	C68.798828,321.337646 68.695045,321.649139 68.340973,322.058014 
z"/>
<path fill="#DDC9A9" opacity="1.000000" stroke="none" 
	d="
M35.932884,329.289825 
	C36.123917,329.236664 36.431496,329.441040 36.856972,329.901154 
	C36.666389,329.953705 36.357906,329.750549 35.932884,329.289825 
z"/>
<path fill="#DDC9A9" opacity="1.000000" stroke="none" 
	d="
M33.900806,328.298645 
	C34.099537,328.173035 34.422363,328.306824 34.884552,328.665955 
	C34.690910,328.780212 34.357903,328.669128 33.900806,328.298645 
z"/>
<path fill="#DDC9A9" opacity="1.000000" stroke="none" 
	d="
M31.947687,326.296875 
	C32.151432,326.247040 32.455097,326.465027 32.861404,326.951172 
	C32.658566,327.001129 32.353085,326.782898 31.947687,326.296875 
z"/>
<path fill="#D8C8AA" opacity="1.000000" stroke="none" 
	d="
M22.687878,95.935089 
	C22.751348,96.143883 22.553608,96.450279 22.091290,96.851257 
	C22.026695,96.641464 22.226681,96.337082 22.687878,95.935089 
z"/>
<path fill="#DDC9A9" opacity="1.000000" stroke="none" 
	d="
M30.948071,325.296844 
	C31.155348,325.233551 31.459173,325.433533 31.864960,325.893677 
	C31.659487,325.955933 31.352051,325.758057 30.948071,325.296844 
z"/>
<path fill="#DDC9A9" opacity="1.000000" stroke="none" 
	d="
M29.948463,324.294922 
	C30.150320,324.233887 30.454201,324.433472 30.864584,324.890747 
	C30.664221,324.950806 30.357355,324.753143 29.948463,324.294922 
z"/>
<path fill="#DDC9A9" opacity="1.000000" stroke="none" 
	d="
M28.930302,323.312836 
	C29.145943,323.240021 29.459917,323.430939 29.867039,323.889648 
	C29.649670,323.963837 29.339151,323.770203 28.930302,323.312836 
z"/>
<path fill="#DDC9A9" opacity="1.000000" stroke="none" 
	d="
M28.065475,322.253601 
	C28.340771,322.201416 28.583984,322.431091 28.881973,322.914612 
	C28.635632,322.957458 28.334513,322.746429 28.065475,322.253601 
z"/>
<path fill="#DDC9A9" opacity="1.000000" stroke="none" 
	d="
M26.945541,320.298859 
	C27.151974,320.244873 27.456543,320.459290 27.864090,320.940674 
	C27.659269,320.994171 27.351475,320.780731 26.945541,320.298859 
z"/>
<path fill="#D8C8AA" opacity="1.000000" stroke="none" 
	d="
M18.707417,101.966995 
	C18.891687,102.184074 18.758511,102.458855 18.359310,102.826469 
	C18.266884,102.657326 18.365778,102.359123 18.707417,101.966995 
z"/>
<path fill="#DEDEDE" opacity="1.000000" stroke="none" 
	d="
M16.686354,166.968475 
	C16.886948,167.206177 16.748005,167.485916 16.325603,167.851776 
	C16.227793,167.670532 16.329351,167.361404 16.686354,166.968475 
z"/>
<path fill="#D9C094" opacity="1.000000" stroke="none" 
	d="
M69.800797,88.947868 
	C69.727539,89.084724 69.464035,89.102623 69.185699,88.929794 
	C69.170868,88.739059 69.610550,88.828903 69.800797,88.947868 
z"/>
<path fill="#DDC9A9" opacity="1.000000" stroke="none" 
	d="
M23.141800,313.301331 
	C23.471735,313.173981 23.684816,313.394135 23.883867,313.924591 
	C23.678089,313.952515 23.396458,313.757172 23.141800,313.301331 
z"/>
<path fill="#D9C094" opacity="1.000000" stroke="none" 
	d="
M69.176315,88.588486 
	C68.939262,88.656136 68.612877,88.432549 68.195847,87.917358 
	C68.432465,87.849579 68.759727,88.073410 69.176315,88.588486 
z"/>
<path fill="#EEEEEE" opacity="1.000000" stroke="none" 
	d="
M82.863907,289.730560 
	C82.610519,289.764740 82.467651,289.592926 82.373581,289.397644 
	C82.352249,289.353333 82.500267,289.227509 82.730888,289.082886 
	C82.891449,289.026581 82.992096,289.516083 82.863907,289.730560 
z"/>
<path fill="#EAEAEA" opacity="1.000000" stroke="none" 
	d="
M46.936558,215.616211 
	C46.042397,216.149277 44.815636,215.998993 44.132072,216.537811 
	C38.211674,221.204514 33.292099,217.768219 28.227003,214.814362 
	C23.097322,211.822861 21.307543,206.843307 22.158625,201.666885 
	C23.812071,191.610367 26.041374,181.603592 28.793884,171.789856 
	C30.410778,166.025024 35.620186,166.457153 40.715267,167.697906 
	C35.325985,170.688751 32.427029,175.649857 30.844908,181.336609 
	C28.993660,187.990707 27.391815,194.738770 26.152838,201.531982 
	C24.812376,208.881607 31.006582,214.287354 38.597240,213.443344 
	C41.250248,213.148376 44.097340,214.598923 46.936558,215.616211 
z"/>
<path fill="#FEFEFE" opacity="1.000000" stroke="none" 
	d="
M76.068130,207.033218 
	C76.065758,209.066971 76.063393,211.100739 76.054741,213.570770 
	C72.480591,218.435135 67.863998,216.118164 63.758247,215.505508 
	C62.626335,215.336609 60.729980,211.713821 61.231003,210.808624 
	C62.656612,208.232971 64.773819,205.292862 67.317429,204.316910 
	C69.396675,203.519119 72.480377,205.339172 75.547028,206.263992 
	C76.006241,206.697327 76.037186,206.865265 76.068130,207.033218 
z"/>
<path fill="#EAEAEA" opacity="1.000000" stroke="none" 
	d="
M67.930382,169.045547 
	C69.958588,171.440933 71.986794,173.836319 74.012985,177.033417 
	C74.001518,179.562927 73.992065,181.290756 73.982613,183.018570 
	C73.524887,182.859283 72.758743,182.811066 72.655411,182.524155 
	C70.938042,177.755737 68.289436,173.692581 64.240845,170.286591 
	C64.614334,169.550674 64.818153,169.288498 65.385788,169.017517 
	C66.476524,169.021011 67.203453,169.033279 67.930382,169.045547 
z"/>
<path fill="#EAEAEA" opacity="1.000000" stroke="none" 
	d="
M76.039841,189.001587 
	C76.037498,189.438492 76.035164,189.875412 76.018936,191.104187 
	C75.995201,195.605698 75.985374,199.315308 75.975548,203.024933 
	C75.362419,202.560196 74.257294,202.137405 74.213509,201.624100 
	C73.842354,197.272202 73.664604,192.903839 73.971054,188.378601 
	C75.022148,188.478394 75.530998,188.739990 76.039841,189.001587 
z"/>
<path fill="#DEDEDE" opacity="1.000000" stroke="none" 
	d="
M52.973492,168.032272 
	C51.914036,168.022690 50.854584,168.013107 49.395966,167.673615 
	C48.986591,166.906647 48.976383,166.469604 49.397987,166.005722 
	C51.559761,165.949295 53.289719,165.919693 55.328484,165.928253 
	C56.052029,165.978012 56.466770,165.989609 57.077942,166.226883 
	C57.921799,166.006287 58.569221,165.559998 59.537750,165.110291 
	C60.500874,165.090210 61.142887,165.073563 61.825668,165.428864 
	C61.974525,166.780090 62.082623,167.759338 62.142181,168.805008 
	C62.093643,168.871429 61.996479,169.004211 61.573654,169.003418 
	C58.425049,168.679169 55.699268,168.355713 52.973492,168.032272 
z"/>
<path fill="#E0E0E0" opacity="1.000000" stroke="none" 
	d="
M75.977348,203.399612 
	C75.985374,199.315308 75.995201,195.605698 76.017189,191.431885 
	C76.574425,191.291733 77.602974,191.632446 77.592453,191.937286 
	C77.420937,196.903717 77.117928,201.865631 76.456360,206.930878 
	C76.037186,206.865265 76.006241,206.697327 75.932716,206.276794 
	C75.919807,205.274246 75.949478,204.524277 75.977348,203.399612 
z"/>
<path fill="#E0E0E0" opacity="1.000000" stroke="none" 
	d="
M76.312912,188.727737 
	C75.530998,188.739990 75.022148,188.478394 74.248657,188.106567 
	C73.984695,186.613220 73.985382,185.230118 73.984337,183.432800 
	C73.992065,181.290756 74.001518,179.562927 74.022293,177.402618 
	C74.884407,180.798050 75.735191,184.625961 76.312912,188.727737 
z"/>
<path fill="#E3CC9D" opacity="1.000000" stroke="none" 
	d="
M55.019676,165.890091 
	C53.289719,165.919693 51.559761,165.949295 49.057457,165.991837 
	C47.832886,166.056366 47.380661,166.107956 46.928432,166.159576 
	C46.013241,165.939133 45.098049,165.718689 43.892746,165.271790 
	C43.602634,165.045303 43.813213,165.028473 44.267227,165.016190 
	C45.473000,164.344193 46.224762,163.684479 47.402725,163.017059 
	C50.397297,163.541626 54.042244,161.386581 55.019676,165.890091 
z"/>
<path fill="#EAEAEA" opacity="1.000000" stroke="none" 
	d="
M53.056213,168.390579 
	C55.699268,168.355713 58.425049,168.679169 61.575890,169.258301 
	C62.001118,169.683914 62.001278,169.853867 62.001438,170.023834 
	C59.047272,169.598846 56.093105,169.173859 53.056213,168.390579 
z"/>
<path fill="#EAEAEA" opacity="1.000000" stroke="none" 
	d="
M46.947971,166.470215 
	C47.380661,166.107956 47.832886,166.056366 48.625641,166.018661 
	C48.976383,166.469604 48.986591,166.906647 48.998405,167.671844 
	C48.322506,167.593613 47.645008,167.187225 46.947971,166.470215 
z"/>
<path fill="#DEDEDE" opacity="1.000000" stroke="none" 
	d="
M62.328865,170.022491 
	C62.001278,169.853867 62.001118,169.683914 61.998718,169.259094 
	C61.996479,169.004211 62.093643,168.871429 62.395214,168.724762 
	C63.471844,168.727493 64.246902,168.876892 65.021973,169.026306 
	C64.818153,169.288498 64.614334,169.550674 64.187439,169.933075 
	C63.528332,170.042572 63.092312,170.031860 62.328865,170.022491 
z"/>
<path fill="#F3E1B1" opacity="1.000000" stroke="none" 
	d="
M55.328484,165.928253 
	C54.042244,161.386581 50.397297,163.541626 47.076576,163.009415 
	C45.888805,163.007919 45.453381,163.006393 44.636040,162.838562 
	C41.470646,162.449646 38.690033,162.089951 35.903126,162.031769 
	C29.322229,161.894363 26.744806,160.531448 26.029163,154.138992 
	C25.076260,145.627213 25.253222,136.986450 24.999109,128.399506 
	C24.596508,114.794785 27.495153,102.259605 36.995022,91.902176 
	C42.745701,92.904839 38.833664,97.428276 39.699036,100.838264 
	C39.280502,104.377808 39.147499,107.186035 39.006184,110.369926 
	C38.995152,111.496910 38.992428,112.248222 38.745987,113.187462 
	C38.670391,114.250153 38.838520,115.124924 39.006149,116.373512 
	C39.008446,117.494598 39.011242,118.241867 39.008911,119.419724 
	C39.942486,124.177452 40.739468,128.541702 41.860210,132.821167 
	C42.955170,137.002167 45.984135,140.363419 50.016712,140.441711 
	C54.449696,140.527771 55.675995,135.867401 56.694805,132.257599 
	C58.302979,126.559616 59.753712,120.786079 60.737381,114.954498 
	C61.338524,111.390701 60.941181,107.658478 60.989243,103.645920 
	C60.330021,101.857925 59.673840,100.425919 59.017658,98.993904 
	C58.995789,98.539581 58.973923,98.085258 58.805767,97.004227 
	C58.390255,95.600624 58.121029,94.823738 57.894855,93.626022 
	C57.948944,91.798645 57.959980,90.392105 57.971012,88.985558 
	C58.757423,88.676819 59.543831,88.368080 60.701721,88.394196 
	C62.600288,90.874626 64.060463,93.071762 65.666634,95.156410 
	C71.144096,102.265587 74.934860,109.775459 74.109917,119.263824 
	C73.307922,128.488235 73.381805,137.788803 73.071075,147.055923 
	C73.066231,148.107269 73.061394,149.158615 72.764084,150.871765 
	C72.314987,152.657684 72.125916,153.778366 72.006920,154.906448 
	C71.172798,162.814392 69.857483,165.928345 61.784904,165.056900 
	C61.142887,165.073563 60.500874,165.090210 59.326813,164.880814 
	C58.157013,165.103561 57.519260,165.552383 56.881508,166.001205 
	C56.466770,165.989609 56.052029,165.978012 55.328484,165.928253 
z"/>
<path fill="#E3CC9D" opacity="1.000000" stroke="none" 
	d="
M36.786919,91.677345 
	C27.495153,102.259605 24.596508,114.794785 24.999109,128.399506 
	C25.253222,136.986450 25.076260,145.627213 26.029163,154.138992 
	C26.744806,160.531448 29.322229,161.894363 35.903126,162.031769 
	C38.690033,162.089951 41.470646,162.449646 44.499008,163.075073 
	C44.447277,163.688568 44.150665,163.899261 43.854053,164.109970 
	C37.866829,164.064621 31.879606,164.019272 25.420383,163.924301 
	C23.630938,150.465057 21.570284,137.074173 21.231436,123.639862 
	C20.960855,112.912239 23.412416,102.338692 31.851122,94.419586 
	C33.182598,93.170105 34.990952,92.428787 36.786919,91.677345 
z"/>
<path fill="#EBD6A6" opacity="1.000000" stroke="none" 
	d="
M60.992283,104.001900 
	C60.941181,107.658478 61.338524,111.390701 60.737381,114.954498 
	C59.753712,120.786079 58.302979,126.559616 56.694805,132.257599 
	C55.675995,135.867401 54.449696,140.527771 50.016712,140.441711 
	C45.984135,140.363419 42.955170,137.002167 41.860210,132.821167 
	C40.739468,128.541702 39.942486,124.177452 39.380623,119.422791 
	C40.501328,119.000916 41.245201,119.006569 41.997108,119.395676 
	C42.334633,121.519051 42.664116,123.258965 42.732960,125.225662 
	C43.197742,127.681534 43.330025,130.509354 44.810650,131.976105 
	C46.380558,133.531311 49.610916,134.950439 51.434650,134.352081 
	C54.242050,133.430954 56.438976,130.725006 55.004055,126.668373 
	C55.008884,125.896744 55.012005,125.455826 55.335342,124.963326 
	C55.772568,123.940651 55.889576,122.969543 55.984909,121.703896 
	C55.654057,120.939537 55.344891,120.469727 55.035725,119.999916 
	C55.038307,118.293655 55.040894,116.587402 55.432915,114.436844 
	C56.879486,112.419456 58.085602,110.923538 58.951679,109.251495 
	C59.810223,107.594002 60.326107,105.759033 60.992283,104.001900 
z"/>
<path fill="#DCC69A" opacity="1.000000" stroke="none" 
	d="
M55.015129,125.014900 
	C55.012005,125.455826 55.008884,125.896744 54.732864,126.867783 
	C50.789478,131.730286 48.583618,131.735123 45.233143,127.463341 
	C44.549908,126.592216 43.743320,125.817848 42.993599,124.998886 
	C42.664116,123.258965 42.334633,121.519051 42.003464,119.057190 
	C42.333355,117.557640 42.664928,116.780037 42.996506,116.002426 
	C43.576019,117.148048 44.192150,118.276794 44.729015,119.442070 
	C47.824749,126.161400 50.048496,126.379562 54.759445,120.189995 
	C55.344891,120.469727 55.654057,120.939537 55.724606,121.913849 
	C55.329033,123.283859 55.172085,124.149384 55.015129,125.014900 
z"/>
<path fill="#E3CC9D" opacity="1.000000" stroke="none" 
	d="
M60.989243,103.645920 
	C60.326107,105.759033 59.810223,107.594002 58.951679,109.251495 
	C58.085602,110.923538 56.879486,112.419456 55.444710,114.010651 
	C55.050423,112.303329 55.033779,110.577896 55.023865,108.421417 
	C56.166382,105.141708 57.302170,102.293053 58.727806,99.219147 
	C59.673840,100.425919 60.330021,101.857925 60.989243,103.645920 
z"/>
<path fill="#DCC69A" opacity="1.000000" stroke="none" 
	d="
M39.014496,109.994263 
	C39.147499,107.186035 39.280502,104.377808 39.698608,101.285789 
	C40.657005,103.705437 41.330296,106.408882 41.627079,109.555824 
	C40.505215,109.997643 39.759853,109.995956 39.014496,109.994263 
z"/>
<path fill="#E3CC9D" opacity="1.000000" stroke="none" 
	d="
M39.006184,110.369926 
	C39.759853,109.995956 40.505215,109.997643 41.623383,109.999207 
	C42.325890,111.743820 42.655582,113.488564 42.990891,115.617859 
	C42.664928,116.780037 42.333355,117.557640 41.995426,118.673737 
	C41.245201,119.006569 40.501328,119.000916 39.385750,118.992195 
	C39.011242,118.241867 39.008446,117.494598 39.250744,116.186020 
	C39.327129,114.749649 39.158421,113.874596 38.989708,112.999542 
	C38.992428,112.248222 38.995152,111.496910 39.006184,110.369926 
z"/>
<path fill="#D8C8AA" opacity="1.000000" stroke="none" 
	d="
M43.893234,164.336365 
	C44.150665,163.899261 44.447277,163.688568 44.880928,163.241364 
	C45.453381,163.006393 45.888805,163.007919 46.650375,163.017120 
	C46.224762,163.684479 45.473000,164.344193 44.372566,165.008484 
	C44.023899,165.013062 43.932415,164.562759 43.893234,164.336365 
z"/>
<path fill="#FAFAFA" opacity="1.000000" stroke="none" 
	d="
M77.997650,276.002472 
	C79.502205,285.282898 71.069107,295.012970 61.549343,297.246643 
	C53.002808,299.251953 49.184223,293.391846 44.362946,289.122101 
	C43.382866,288.254150 44.016754,284.555206 45.003792,282.766907 
	C45.933853,281.081818 48.426041,280.326141 50.021160,278.923004 
	C51.806175,277.352783 53.355244,275.514374 55.350246,273.417969 
	C56.128914,273.028015 56.564339,273.012787 57.250286,273.006226 
	C57.667892,273.018494 57.834969,273.022064 58.205296,273.270111 
	C59.283253,273.028259 60.157959,272.541931 61.464676,272.046936 
	C67.263672,273.359680 72.630661,274.681091 77.997650,276.002472 
z"/>
<path fill="#DCDCDC" opacity="1.000000" stroke="none" 
	d="
M56.999760,272.997559 
	C56.564339,273.012787 56.128914,273.028015 55.367832,273.059998 
	C51.952820,272.705200 48.863674,272.068512 45.774040,272.066132 
	C44.048363,272.064819 42.321880,273.116913 39.909096,273.851501 
	C35.642193,274.737701 31.868641,275.109406 29.998425,278.999115 
	C28.118389,285.900055 32.970436,288.976746 38.345955,291.756042 
	C38.012508,292.055511 37.679058,292.354950 37.345612,292.654388 
	C36.119675,292.130646 34.893738,291.606903 32.985195,291.005463 
	C30.532375,289.620605 28.762165,288.313446 26.995197,286.597961 
	C26.033474,283.587769 27.790514,279.476898 22.553570,278.988586 
	C19.072617,278.997192 16.046041,279.008636 13.019468,279.020081 
	C12.794918,278.169861 12.570367,277.319611 12.345818,276.469421 
	C13.644679,276.307098 14.943541,276.144745 17.078876,275.973206 
	C20.264053,275.962372 22.612755,275.960724 25.283298,275.936279 
	C26.418600,275.250427 27.232063,274.587402 28.441486,273.943542 
	C33.900364,271.986206 38.963284,270.009705 44.026199,268.033203 
	C47.619480,265.253021 46.085876,262.247253 44.611084,259.054260 
	C43.072212,255.722519 41.885315,252.228226 40.544533,248.804993 
	C41.389179,248.449432 42.233826,248.093872 43.078472,247.738312 
	C45.281372,252.981247 47.484272,258.224213 49.784927,263.699799 
	C51.109455,263.862061 52.557144,264.039429 54.446896,264.270966 
	C53.302410,265.979889 52.291965,267.488708 50.836269,269.662354 
	C53.061787,269.808868 54.626530,269.911835 56.594887,270.392731 
	C56.998924,271.512939 56.999344,272.255249 56.999760,272.997559 
z"/>
<path fill="#F7F7F7" opacity="1.000000" stroke="none" 
	d="
M26.991955,287.006287 
	C28.762165,288.313446 30.532375,289.620605 32.644791,290.976349 
	C31.567562,292.322906 30.148130,293.620880 28.361256,294.964478 
	C17.899832,294.945160 12.972866,289.975372 13.012587,279.455933 
	C16.046041,279.008636 19.072617,278.997192 22.550598,279.391785 
	C23.063698,282.902679 22.938662,286.110870 26.991955,287.006287 
z"/>
<path fill="#D6D5D4" opacity="1.000000" stroke="none" 
	d="
M74.948776,299.964386 
	C74.113617,300.841827 73.278465,301.719238 71.777855,302.774261 
	C63.683876,304.221130 56.444721,307.223022 48.669769,305.415558 
	C48.505821,305.377441 48.225082,305.841675 47.582161,306.063232 
	C45.775761,306.047882 44.386024,306.040924 42.996292,306.033936 
	C43.000832,305.843079 43.005371,305.652222 43.019184,305.174011 
	C44.538792,304.417328 46.049126,303.947998 47.782425,303.201172 
	C51.354256,303.263367 54.703121,303.603058 58.796181,303.939026 
	C60.028156,303.618073 60.515942,303.300873 61.003727,302.983673 
	C62.096012,302.671753 63.188297,302.359863 64.976776,302.014648 
	C66.453674,301.335785 67.234367,300.690247 68.015060,300.044678 
	C69.697647,299.682404 71.380241,299.320129 73.681145,299.063232 
	C74.515892,299.433868 74.732330,299.699127 74.948776,299.964386 
z"/>
<path fill="#DEDEDE" opacity="1.000000" stroke="none" 
	d="
M57.250286,273.006226 
	C56.999344,272.255249 56.998924,271.512939 56.997284,270.400269 
	C57.167004,270.018372 57.337955,270.006775 58.227600,269.987244 
	C63.299305,269.980774 67.652313,269.982269 72.005325,269.983765 
	C73.458008,270.561493 74.910690,271.139221 76.685684,271.855774 
	C78.406723,272.333649 79.805450,272.672699 81.587189,273.020996 
	C81.852623,275.116486 82.581924,278.063629 78.329865,276.143433 
	C72.630661,274.681091 67.263672,273.359680 61.122643,272.029633 
	C59.566414,272.355865 58.784233,272.690735 58.002048,273.025604 
	C57.834969,273.022064 57.667892,273.018494 57.250286,273.006226 
z"/>
<path fill="#EBEBEB" opacity="1.000000" stroke="none" 
	d="
M30.348049,279.065033 
	C31.868641,275.109406 35.642193,274.737701 39.610191,274.000610 
	C38.420254,277.931519 34.705189,281.622894 39.733715,286.510315 
	C33.275444,286.832397 33.034222,281.811829 30.348049,279.065033 
z"/>
<path fill="#BFBFBE" opacity="1.000000" stroke="none" 
	d="
M75.341858,299.972870 
	C74.732330,299.699127 74.515892,299.433868 74.055756,299.066528 
	C74.996010,298.006287 76.179962,297.048096 77.664703,295.899658 
	C77.988113,296.752167 78.010750,297.794952 78.045197,299.216187 
	C77.282990,299.723572 76.508965,299.852478 75.341858,299.972870 
z"/>
<path fill="#DCDCDC" opacity="1.000000" stroke="none" 
	d="
M67.662292,300.036621 
	C67.234367,300.690247 66.453674,301.335785 65.318367,301.977112 
	C65.745674,301.324738 66.527596,300.676636 67.662292,300.036621 
z"/>
<path fill="#DCDCDC" opacity="1.000000" stroke="none" 
	d="
M60.829071,302.764587 
	C60.515942,303.300873 60.028156,303.618073 59.231804,303.933777 
	C59.500298,303.470001 60.077358,303.007751 60.829071,302.764587 
z"/>
<path fill="#BFBFBE" opacity="1.000000" stroke="none" 
	d="
M77.954201,294.257751 
	C78.512207,293.944763 79.056984,293.916321 79.601761,293.887878 
	C79.227921,294.257782 78.854088,294.627686 78.201752,295.054688 
	C77.929161,294.921936 77.935066,294.732117 77.954201,294.257751 
z"/>
<path fill="#DCDCDC" opacity="1.000000" stroke="none" 
	d="
M40.927345,295.877747 
	C40.829903,296.049408 40.649811,296.035919 40.198364,296.007477 
	C40.232906,295.892548 40.538803,295.792542 40.927345,295.877747 
z"/>
<path fill="#F7F7F7" opacity="1.000000" stroke="none" 
	d="
M24.961458,275.959106 
	C22.612755,275.960724 20.264053,275.962372 17.477303,275.958069 
	C16.360697,272.919708 15.682137,269.887238 15.004708,266.430664 
	C15.532703,264.743530 16.653316,263.394714 16.485445,262.231964 
	C15.684215,256.682129 18.368046,252.317719 23.860125,250.861588 
	C25.609953,250.397659 27.344450,249.866913 29.109165,249.469864 
	C33.996826,248.370148 36.764271,250.377991 38.133690,255.087128 
	C38.891136,257.691895 40.723419,259.972748 41.967937,262.451416 
	C42.746906,264.002869 43.333820,265.650726 44.016552,267.644287 
	C38.963284,270.009705 33.900364,271.986206 28.376648,273.575684 
	C26.617844,269.466797 25.319838,265.744965 24.021832,262.023132 
	C23.529881,262.192749 23.037930,262.362396 22.545979,262.532043 
	C23.351139,267.007721 24.156298,271.483429 24.961458,275.959106 
z"/>
<path fill="#F9F9F9" opacity="1.000000" stroke="none" 
	d="
M72.246674,269.718964 
	C67.652313,269.982269 63.299305,269.980774 58.484138,269.971649 
	C59.079082,263.926361 54.654354,260.464417 51.221603,256.988678 
	C48.051140,253.778503 49.007931,250.579391 50.572750,248.019836 
	C51.441551,246.598755 54.941505,246.218002 57.202518,246.341278 
	C61.213840,246.559982 65.488075,246.796188 69.111320,248.315369 
	C77.403023,251.791946 81.208191,259.064972 76.204559,266.815308 
	C75.439285,268.000671 73.749962,268.589447 72.246674,269.718964 
z"/>
<path fill="#DFBE86" opacity="1.000000" stroke="none" 
	d="
M55.992420,329.993896 
	C53.905991,329.358368 51.819561,328.722870 49.368446,328.042847 
	C46.979683,327.058380 45.036499,325.791046 42.910011,325.265625 
	C40.522053,324.675659 37.968510,324.755890 35.235607,323.867310 
	C33.146229,315.514923 33.792038,314.850281 41.406120,315.833221 
	C42.877186,316.023163 44.465652,315.303619 45.999962,315.003632 
	C46.443783,315.003540 46.887604,315.003448 47.755066,315.387878 
	C50.148003,316.183136 52.099930,316.792877 54.089912,316.966492 
	C59.513081,317.439697 61.242714,320.672455 58.453190,325.263000 
	C57.532139,326.778687 56.807091,328.413544 55.992420,329.993896 
z"/>
<path fill="#D9B983" opacity="1.000000" stroke="none" 
	d="
M56.337669,329.962585 
	C56.807091,328.413544 57.532139,326.778687 58.453190,325.263000 
	C61.242714,320.672455 59.513081,317.439697 54.089912,316.966492 
	C52.099930,316.792877 50.148003,316.183136 48.087933,315.388611 
	C51.805935,314.527100 55.614719,314.049347 59.712460,313.285187 
	C64.549782,312.628693 65.764221,314.545349 63.971550,318.665802 
	C62.593727,321.832733 61.328838,325.048798 60.006920,328.621521 
	C60.000111,329.000000 59.993301,329.003662 59.993298,329.003662 
	C58.889835,329.312866 57.786377,329.622070 56.337669,329.962585 
z"/>
<path fill="#B0AAA1" opacity="1.000000" stroke="none" 
	d="
M42.733276,306.306213 
	C44.386024,306.040924 45.775761,306.047882 47.848251,306.331116 
	C52.516716,306.771423 56.524632,307.266388 60.481510,307.000824 
	C64.011864,306.763947 67.485825,305.686554 70.984665,304.980103 
	C70.984665,304.980103 71.022896,305.022797 71.043594,305.044189 
	C69.838120,306.191895 68.611961,307.318146 67.186127,308.703949 
	C66.548866,308.980133 66.111298,308.996796 65.006508,309.020203 
	C63.554523,309.349854 62.769756,309.672760 61.984993,309.995697 
	C61.546062,310.004272 61.107132,310.012817 60.339935,310.045288 
	C50.550465,309.020081 41.087440,307.986481 31.632780,306.881317 
	C31.093004,306.818237 30.621567,306.170502 30.003895,305.438110 
	C34.083061,305.580414 38.276661,306.079468 42.733276,306.306213 
z"/>
<path fill="#D9B983" opacity="1.000000" stroke="none" 
	d="
M45.734222,314.724609 
	C44.465652,315.303619 42.877186,316.023163 41.406120,315.833221 
	C33.792038,314.850281 33.146229,315.514923 34.994316,323.592010 
	C30.648462,320.138916 30.225430,314.814972 28.625383,309.632446 
	C34.842766,311.409149 40.155628,312.927399 45.734222,314.724609 
z"/>
<path fill="#D6D5D4" opacity="1.000000" stroke="none" 
	d="
M36.768322,302.730225 
	C34.494537,302.834930 31.989157,302.661682 29.244106,302.197357 
	C31.515200,302.088287 34.025963,302.270264 36.768322,302.730225 
z"/>
<path fill="#DCDCDC" opacity="1.000000" stroke="none" 
	d="
M18.976778,296.648987 
	C18.582918,296.990448 18.152058,297.012939 17.399887,297.058105 
	C16.832981,296.264893 16.587385,295.448944 16.341789,294.633026 
	C16.609459,294.475739 16.877129,294.318481 17.144796,294.161224 
	C17.743124,294.884155 18.341452,295.607086 18.976778,296.648987 
z"/>
<path fill="#E3CC9D" opacity="1.000000" stroke="none" 
	d="
M61.825668,165.428864 
	C69.857483,165.928345 71.172798,162.814392 72.006920,154.906448 
	C72.125916,153.778366 72.314987,152.657684 72.772354,151.265961 
	C72.395035,156.720337 71.716980,162.442322 71.040878,168.551147 
	C70.265053,168.958054 69.487282,168.978134 68.319946,169.021881 
	C67.203453,169.033279 66.476524,169.021011 65.385780,169.017517 
	C64.246902,168.876892 63.471844,168.727493 62.443752,168.658325 
	C62.082623,167.759338 61.974525,166.780090 61.825668,165.428864 
z"/>
<path fill="#E3CC9D" opacity="1.000000" stroke="none" 
	d="
M73.442184,146.953552 
	C73.381805,137.788803 73.307922,128.488235 74.109917,119.263824 
	C74.934860,109.775459 71.144096,102.265587 65.666634,95.156410 
	C64.060463,93.071762 62.600288,90.874626 61.037102,88.385376 
	C61.001858,87.871353 61.002705,87.701004 61.012562,87.275528 
	C62.111080,87.346657 63.200588,87.672920 64.636734,88.000046 
	C65.839828,89.162292 66.696281,90.323669 67.775909,92.100815 
	C69.000618,94.142792 70.002151,95.569008 71.003677,96.995216 
	C71.003677,96.995216 71.018021,97.487061 71.056763,98.054794 
	C71.729988,99.081184 72.364479,99.539825 72.998970,99.998466 
	C74.333412,103.395714 75.667854,106.792961 77.008972,111.024628 
	C77.354256,114.234138 77.692863,116.609238 78.031464,118.984329 
	C78.023018,121.359985 78.014580,123.735641 78.014038,126.556259 
	C77.020821,132.614105 76.052238,138.233154 74.989433,143.834320 
	C74.791626,144.876816 74.215057,145.847412 73.442184,146.953552 
z"/>
<path fill="#CFB789" opacity="1.000000" stroke="none" 
	d="
M78.306015,118.707863 
	C77.692863,116.609238 77.354256,114.234138 77.021423,111.429657 
	C80.729591,112.811607 78.541611,115.854256 78.306015,118.707863 
z"/>
<path fill="#D9C094" opacity="1.000000" stroke="none" 
	d="
M71.000717,96.642502 
	C70.002151,95.569008 69.000618,94.142792 67.994904,92.364792 
	C68.993073,93.438599 69.995415,94.864197 71.000717,96.642502 
z"/>
<path fill="#D9C094" opacity="1.000000" stroke="none" 
	d="
M72.956436,99.680779 
	C72.364479,99.539825 71.729988,99.081184 71.061562,98.300781 
	C71.656380,98.440384 72.285133,98.901733 72.956436,99.680779 
z"/>
<path fill="#C4AC80" opacity="1.000000" stroke="none" 
	d="
M62.188080,310.244934 
	C62.769756,309.672760 63.554523,309.349854 64.678375,309.036011 
	C64.142021,309.528137 63.266598,310.011169 62.188080,310.244934 
z"/>
<path fill="#C4AC80" opacity="1.000000" stroke="none" 
	d="
M60.002117,328.996643 
	C60.507412,329.294281 61.010696,329.595245 61.513981,329.896210 
	C61.335815,330.102539 61.157650,330.308899 60.979485,330.515228 
	C60.676708,330.197906 60.373932,329.880554 60.032230,329.283447 
	C59.993301,329.003662 60.000111,329.000000 60.002117,328.996643 
z"/>
<path fill="#D6BB89" opacity="1.000000" stroke="none" 
	d="
M57.851807,94.046844 
	C58.121029,94.823738 58.390255,95.600624 58.769096,96.665024 
	C57.050911,99.164345 55.223106,101.376152 53.451736,103.519676 
	C53.115009,101.921326 52.574242,99.354477 52.186188,96.293694 
	C52.227867,95.534813 52.116837,95.269867 52.005802,95.004921 
	C52.005802,95.004921 51.998680,94.508423 51.998352,94.260300 
	C53.107452,93.026054 54.216885,92.039932 55.666580,91.365280 
	C56.621834,92.466766 57.236820,93.256805 57.851807,94.046844 
z"/>
<path fill="#CAB083" opacity="1.000000" stroke="none" 
	d="
M52.007915,95.247498 
	C52.116837,95.269867 52.227867,95.534813 52.181694,95.887405 
	C52.024487,95.975044 52.010029,95.490082 52.007915,95.247498 
z"/>
<path fill="#DCC69A" opacity="1.000000" stroke="none" 
	d="
M57.894859,93.626022 
	C57.236820,93.256805 56.621834,92.466766 55.994591,91.329147 
	C56.469131,90.396240 56.955929,89.810928 57.706871,89.105591 
	C57.959980,90.392105 57.948944,91.798645 57.894859,93.626022 
z"/>
<path fill="#BFBFBE" opacity="1.000000" stroke="none" 
	d="
M71.096313,304.720337 
	C67.485825,305.686554 64.011864,306.763947 60.481510,307.000824 
	C56.524632,307.266388 52.516716,306.771423 48.264915,306.339478 
	C48.225082,305.841675 48.505821,305.377441 48.669769,305.415558 
	C56.444721,307.223022 63.683876,304.221130 71.523087,302.942627 
	C71.691841,303.442444 71.449898,303.951508 71.096313,304.720337 
z"/>
<path fill="#E3CC9D" opacity="1.000000" stroke="none" 
	d="
M57.077942,166.226883 
	C57.519260,165.552383 58.157013,165.103561 59.005707,164.884232 
	C58.569221,165.559998 57.921799,166.006287 57.077942,166.226883 
z"/>
<path fill="#EBD6A6" opacity="1.000000" stroke="none" 
	d="
M38.745987,113.187462 
	C39.158421,113.874596 39.327129,114.749649 39.251244,115.812195 
	C38.838520,115.124924 38.670391,114.250153 38.745987,113.187462 
z"/>
<path fill="#E3CC9D" opacity="1.000000" stroke="none" 
	d="
M42.732964,125.225662 
	C43.743320,125.817848 44.549908,126.592216 45.233143,127.463341 
	C48.583618,131.735123 50.789478,131.730286 54.731155,127.198486 
	C56.438976,130.725006 54.242050,133.430954 51.434650,134.352081 
	C49.610916,134.950439 46.380558,133.531311 44.810650,131.976105 
	C43.330025,130.509354 43.197742,127.681534 42.732964,125.225662 
z"/>
<path fill="#E3CC9D" opacity="1.000000" stroke="none" 
	d="
M55.335346,124.963326 
	C55.172085,124.149384 55.329033,123.283859 55.746284,122.208389 
	C55.889576,122.969543 55.772568,123.940651 55.335346,124.963326 
z"/>
<path fill="#EEEEEE" opacity="1.000000" stroke="none" 
	d="
M58.205296,273.270111 
	C58.784233,272.690735 59.566414,272.355865 60.690632,272.038269 
	C60.157959,272.541931 59.283253,273.028259 58.205296,273.270111 
z"/>
<path fill="#E9E9E9" opacity="1.000000" stroke="none" 
	d="
M25.283298,275.936279 
	C24.156298,271.483429 23.351139,267.007721 22.545979,262.532043 
	C23.037930,262.362396 23.529881,262.192749 24.021832,262.023132 
	C25.319838,265.744965 26.617844,269.466797 27.980688,273.556519 
	C27.232063,274.587402 26.418600,275.250427 25.283298,275.936279 
z"/>
<path fill="#EBEBEB" opacity="1.000000" stroke="none" 
	d="
M26.995199,286.597961 
	C22.938662,286.110870 23.063698,282.902679 23.004974,279.394653 
	C27.790514,279.476898 26.033474,283.587769 26.995199,286.597961 
z"/>
</svg>