<svg version="1.1" id="Layer_1" xmlns="http://www.w3.org/2000/svg" xmlns:xlink="http://www.w3.org/1999/xlink" x="0px" y="0px"
	 width="100%" viewBox="0 0 91 405" enable-background="new 0 0 91 405" xml:space="preserve">
<path fill="#D2BA8D" opacity="1.000000" stroke="none" 
	d="
M19.905691,167.949188 
	C21.330832,154.999710 22.772160,142.052002 24.174612,129.100067 
	C24.929953,122.124329 25.541786,115.132080 26.383463,108.167229 
	C26.642246,106.025795 27.447239,103.950363 28.395111,101.320419 
	C29.645819,97.373718 30.739468,93.990120 31.310259,90.520508 
	C32.372692,84.062416 33.130611,77.554230 34.015285,71.066895 
	C35.660870,64.136292 37.104248,57.146782 39.093906,50.316406 
	C39.592659,48.604237 42.008266,46.078938 43.261631,46.231918 
	C46.247215,46.596325 50.641243,47.560104 51.675114,49.657597 
	C55.963833,58.358429 59.812462,67.387177 62.651852,76.654274 
	C64.711403,83.376152 64.939957,90.660461 65.968422,97.696404 
	C66.901466,104.079559 67.836487,110.462593 68.725403,116.851982 
	C69.510155,122.492607 70.164604,128.151947 70.996841,133.785263 
	C72.615479,144.741684 74.326035,155.684509 75.970848,166.637115 
	C76.093132,167.451447 75.994148,168.299011 75.568787,169.535645 
	C71.725113,166.001556 68.310677,162.062927 64.937241,157.680389 
	C64.238701,147.429916 63.900284,137.572830 62.672764,127.827736 
	C60.397606,109.765617 57.744812,91.746811 54.939304,73.758316 
	C54.078102,68.236435 52.453011,62.787766 50.640106,57.489529 
	C50.127316,55.990894 47.791569,54.453457 46.140797,54.266273 
	C45.216080,54.161419 43.419708,56.636074 42.994732,58.212326 
	C41.831799,62.525715 41.068127,66.959816 40.360039,71.380341 
	C38.156994,85.133751 35.868099,98.877563 33.967140,112.673958 
	C32.361217,124.329033 31.126516,136.040222 29.986408,147.751785 
	C29.592525,151.797852 29.977964,155.919800 29.789768,160.256760 
	C26.349976,162.987350 23.127834,165.468277 19.905691,167.949188 
z"/>
<path fill="#D3D3D3" opacity="1.000000" stroke="none" 
	d="
M82.039574,292.112640 
	C81.023064,297.151520 80.006561,302.190369 78.571754,307.632843 
	C77.543816,308.443939 76.934181,308.851410 76.324539,309.258911 
	C76.921700,309.852051 77.518860,310.445190 78.116028,311.038300 
	C77.738899,311.807953 77.361763,312.577637 76.582893,313.732117 
	C74.788452,314.745056 73.395752,315.373138 71.999893,315.748657 
	C71.993927,315.327728 71.991112,315.159363 71.990479,314.592499 
	C71.998131,313.131409 72.003601,312.068756 72.350372,310.908813 
	C74.124443,306.538391 75.557220,302.265259 76.990997,297.618286 
	C76.993095,296.496674 76.994194,295.748932 77.235565,294.733307 
	C77.475830,293.059631 77.475830,291.653839 77.475830,290.872528 
	C69.112953,293.718597 61.560925,297.880432 53.702526,298.574738 
	C43.009979,299.519501 32.148174,297.464081 21.943802,293.345306 
	C20.950809,292.944580 19.859800,292.786652 18.814301,292.515991 
	C18.874788,293.677124 18.935276,294.838257 18.996883,296.416992 
	C21.290962,304.921814 23.260176,313.120117 25.985115,321.059082 
	C27.963514,326.822998 30.552141,332.554626 37.082428,335.358826 
	C38.459507,336.129578 39.737362,336.559875 41.339920,336.993591 
	C42.097416,337.011505 42.530216,337.026001 43.004730,337.326324 
	C43.362827,338.076050 43.679203,338.539948 43.996918,339.336365 
	C43.998840,340.112610 43.999420,340.556305 43.626976,340.983490 
	C39.510498,339.637360 35.767048,338.307739 31.737417,336.820679 
	C30.311295,336.067902 29.171350,335.472656 27.822336,334.626434 
	C27.079939,332.916077 26.546614,331.456726 25.948648,329.674927 
	C24.979450,328.896149 24.074890,328.439758 23.170334,327.983368 
	C19.765642,314.866547 16.112381,301.806732 13.085691,288.603271 
	C11.965912,283.718414 11.866825,278.473022 12.121301,273.433411 
	C12.406124,267.792816 16.690149,264.739685 21.584297,263.423676 
	C26.613976,262.071167 31.925583,261.767090 37.558075,261.437714 
	C37.999031,262.578400 37.995728,263.285583 37.744095,263.993927 
	C37.495773,263.995117 36.998936,263.997559 36.553123,263.994751 
	C31.738319,264.994629 27.369329,265.997314 22.693575,267.062897 
	C21.924208,267.750122 21.461605,268.374451 20.999500,268.999390 
	C21.000000,269.000000 20.998875,268.998779 20.690762,269.173218 
	C13.552811,276.660919 16.924738,285.547943 27.862558,287.653046 
	C40.998672,290.181213 54.323338,291.926605 67.501053,287.838715 
	C78.260368,284.501038 83.001892,276.617249 74.774681,266.472504 
	C73.997887,265.514648 73.579880,264.265839 72.995300,263.152100 
	C76.988396,261.829498 78.470261,265.328674 80.912033,267.966003 
	C81.367218,276.516724 81.703400,284.314667 82.039574,292.112640 
z"/>
<path fill="#D6D5D5" opacity="1.000000" stroke="none" 
	d="
M19.567907,168.142395 
	C23.127834,165.468277 26.349976,162.987350 30.131092,160.247894 
	C31.145258,159.974655 31.600451,159.959946 32.039772,160.326813 
	C32.011116,161.468674 31.998337,162.228928 31.853062,163.187622 
	C31.512754,163.632828 31.265915,163.830994 30.621954,164.046387 
	C29.525955,165.753586 28.788048,167.394958 28.036329,169.358246 
	C28.002659,170.109329 27.982798,170.538483 27.627003,171.053741 
	C25.196161,176.040924 21.741655,180.813232 21.263102,185.867340 
	C19.867641,200.605057 19.491346,215.450348 19.055840,230.263489 
	C18.813061,238.521240 22.595118,241.917297 30.982718,242.023560 
	C36.453087,242.092850 41.932419,242.061539 47.390240,242.377472 
	C56.443039,242.901505 65.204338,242.340759 73.271416,236.837997 
	C74.032707,235.789093 74.515358,234.893860 75.003876,233.753540 
	C75.009743,233.508438 75.017189,233.018173 75.286652,232.969498 
	C75.710251,232.279938 75.864380,231.639069 76.019615,230.668915 
	C76.021782,229.900665 76.022842,229.461655 76.382568,228.920929 
	C80.573318,221.517319 80.777946,213.857925 78.992538,205.627777 
	C78.992569,204.505096 78.990189,203.756790 78.992126,202.570602 
	C78.996017,200.090393 78.995583,198.048035 78.997040,195.612076 
	C79.943275,193.811279 80.887619,192.404114 81.831955,190.996948 
	C85.471588,202.347580 85.702118,214.153244 83.753998,225.555405 
	C81.306702,239.879135 74.857452,248.253906 59.390137,248.540894 
	C49.600224,248.722549 39.804153,248.572540 29.461020,248.298538 
	C28.295069,247.911438 27.678946,247.797043 27.062824,247.682648 
	C20.095226,246.416428 16.704353,244.009048 16.116711,237.246918 
	C14.923053,223.511261 14.632165,209.697159 14.381682,195.358261 
	C14.819506,193.181335 14.844844,191.561523 14.870182,189.941727 
	C14.903271,187.906769 14.936359,185.871796 15.173617,183.326538 
	C15.588261,182.550873 15.552576,182.293137 15.270734,182.043015 
	C16.590530,177.473877 17.910328,172.904739 19.567907,168.142395 
z"/>
<path fill="#D8B982" opacity="1.000000" stroke="none" 
	d="
M64.892456,352.663757 
	C64.669540,352.947815 64.446617,353.231842 63.757229,353.852539 
	C61.839054,357.271973 59.524509,360.249115 59.131058,363.461517 
	C58.486610,368.723236 55.854546,372.578644 52.757473,376.436462 
	C48.246616,382.055328 43.216228,382.467590 40.346073,376.099854 
	C35.841160,366.105164 32.795792,355.445251 29.373034,344.988251 
	C29.163513,344.348145 31.059223,343.018951 32.188591,342.254456 
	C33.946026,343.976990 35.490284,345.455444 37.075172,347.299194 
	C37.969067,348.785614 38.598961,350.251404 39.711514,350.972412 
	C47.426163,355.971985 56.124283,352.931671 60.287960,343.835205 
	C61.686344,342.725769 62.812504,341.789581 64.078133,341.181702 
	C63.971027,343.372406 63.442310,345.252258 63.556442,347.092255 
	C63.672909,348.969818 64.420937,350.808228 64.892456,352.663757 
M56.112804,366.299774 
	C56.760231,362.692627 57.407658,359.085449 58.111610,355.163361 
	C53.329617,356.759094 49.972065,358.762054 46.624382,358.745667 
	C43.348263,358.729706 40.082191,356.655792 36.063606,355.217377 
	C36.290382,357.495056 36.103027,359.499084 36.738125,361.195068 
	C38.122639,364.892395 39.899723,368.445068 41.564407,372.034576 
	C43.765491,376.780579 48.541058,377.411163 51.765968,373.262878 
	C53.278522,371.317261 54.380478,369.052399 56.112804,366.299774 
z"/>
<path fill="#C9B083" opacity="1.000000" stroke="none" 
	d="
M31.975410,342.010376 
	C31.059223,343.018951 29.163513,344.348145 29.373034,344.988251 
	C32.795792,355.445251 35.841160,366.105164 40.346073,376.099854 
	C43.216228,382.467590 48.246616,382.055328 52.757473,376.436462 
	C55.854546,372.578644 58.486610,368.723236 59.131058,363.461517 
	C59.524509,360.249115 61.839054,357.271973 63.627743,354.091766 
	C63.693043,364.836060 59.883472,374.202850 52.265671,381.967468 
	C46.496254,387.848053 38.534996,383.952393 35.148861,376.530060 
	C28.367764,361.666046 25.176880,346.010651 23.551554,329.659607 
	C24.571581,329.564087 25.292435,329.780731 26.013287,329.997345 
	C26.546614,331.456726 27.079939,332.916077 27.861702,334.979187 
	C29.398563,337.725372 30.686985,339.867889 31.975410,342.010376 
z"/>
<path fill="#D9D9D9" opacity="1.000000" stroke="none" 
	d="
M72.681488,263.080566 
	C73.579880,264.265839 73.997887,265.514648 74.774681,266.472504 
	C83.001892,276.617249 78.260368,284.501038 67.501053,287.838715 
	C54.323338,291.926605 40.998672,290.181213 27.862558,287.653046 
	C16.924738,285.547943 13.552811,276.660919 20.673153,269.585785 
	C18.786848,279.484528 20.771481,283.875305 28.438679,284.795013 
	C41.209026,286.326874 54.026138,287.585663 66.848083,284.977478 
	C70.595688,284.215149 75.415176,280.007141 75.623245,277.044495 
	C75.905998,273.018463 72.500069,267.348969 68.661629,266.003601 
	C67.889687,265.996033 67.448540,265.991730 66.941422,265.681458 
	C66.244530,264.923065 65.613609,264.470642 64.565857,264.015900 
	C62.759621,264.022125 61.370213,264.030670 59.608181,264.031189 
	C58.489632,264.017090 57.743706,264.010986 56.998810,263.615540 
	C56.998745,262.188202 56.997646,261.150177 56.996552,260.112152 
	C58.068974,260.060211 59.141392,260.008270 60.638992,260.293671 
	C61.706299,260.762146 62.348434,260.893250 62.990570,261.024353 
	C64.717247,261.006775 66.443924,260.989166 68.732346,261.237396 
	C69.550133,261.696838 69.828857,261.848938 70.130272,261.959503 
	C70.876076,262.309357 71.621880,262.659210 72.681488,263.080566 
z"/>
<path fill="#C5C4C3" opacity="1.000000" stroke="none" 
	d="
M32.023590,336.978149 
	C35.767048,338.307739 39.510498,339.637360 44.063503,340.985474 
	C46.915779,341.003693 48.958504,341.003357 51.389591,341.008484 
	C61.256557,338.977966 66.326447,332.230835 70.337067,323.932404 
	C71.831032,323.607605 72.973114,323.326111 74.115189,323.044617 
	C73.297607,325.456512 72.480026,327.868439 71.132736,330.630310 
	C68.723694,332.968079 66.844353,334.955841 64.762291,337.077515 
	C64.304062,337.421234 64.110535,337.677826 63.983341,337.981445 
	C63.987686,337.981689 63.969112,337.969391 63.625603,338.029785 
	C62.223156,338.851990 61.145908,339.589691 60.108135,340.379272 
	C51.043182,347.276306 37.705338,345.697021 32.023590,336.978149 
z"/>
<path fill="#D6D5D5" opacity="1.000000" stroke="none" 
	d="
M64.896240,158.124298 
	C68.310677,162.062927 71.725113,166.001556 75.496361,169.958649 
	C76.717232,172.445633 77.581291,174.914108 78.485420,177.832550 
	C78.444344,178.600189 78.561668,178.836243 78.877487,178.990707 
	C78.927101,179.435959 78.976707,179.881226 78.719650,180.785172 
	C76.612869,180.160400 74.812744,179.076935 72.864380,177.673599 
	C71.153519,175.226761 69.590904,173.099808 67.877426,170.666504 
	C64.012405,162.743973 58.312366,157.079605 51.233696,153.125839 
	C56.057594,154.763992 60.476917,156.444153 64.896240,158.124298 
z"/>
<path fill="#C9B083" opacity="1.000000" stroke="none" 
	d="
M64.965012,336.943604 
	C66.844353,334.955841 68.723694,332.968079 70.921745,330.950439 
	C69.248940,338.049042 67.257408,345.177582 65.079178,352.484924 
	C64.420937,350.808228 63.672909,348.969818 63.556442,347.092255 
	C63.442310,345.252258 63.971027,343.372406 64.084129,340.824219 
	C63.956810,339.415405 63.962959,338.692383 63.969109,337.969391 
	C63.969112,337.969391 63.987686,337.981689 64.195862,337.858948 
	C64.669144,337.527313 64.856140,337.263123 64.965012,336.943604 
z"/>
<path fill="#D9D9D9" opacity="1.000000" stroke="none" 
	d="
M73.012619,177.993484 
	C74.812744,179.076935 76.612869,180.160400 78.705200,181.122437 
	C79.992050,184.077316 80.986679,187.153610 81.906631,190.613434 
	C80.887619,192.404114 79.943275,193.811279 78.632019,195.491287 
	C76.514267,189.840576 74.763443,183.917023 73.012619,177.993484 
z"/>
<path fill="#D3C5AE" opacity="1.000000" stroke="none" 
	d="
M33.767155,71.343903 
	C33.130611,77.554230 32.372692,84.062416 31.310259,90.520508 
	C30.739468,93.990120 29.645819,97.373718 28.436512,100.896782 
	C29.896292,91.205261 31.707659,81.413086 33.767155,71.343903 
z"/>
<path fill="#DEDEDE" opacity="1.000000" stroke="none" 
	d="
M56.562637,260.046631 
	C56.997646,261.150177 56.998745,262.188202 56.734512,263.647888 
	C56.292950,264.091003 56.116718,264.112457 55.482437,264.106873 
	C50.705090,264.105927 46.385784,264.131958 41.687752,264.126770 
	C40.550186,264.082794 39.791344,264.070099 38.772446,264.041901 
	C38.339069,264.015167 38.165749,264.003937 37.992424,263.992737 
	C37.995728,263.285583 37.999031,262.578400 38.006134,261.517792 
	C38.427803,261.111847 38.845676,261.059326 39.984344,261.054626 
	C43.899059,261.740875 47.223824,263.649292 49.990948,260.145660 
	C52.036873,260.090820 54.082802,260.035950 56.562637,260.046631 
z"/>
<path fill="#D9D9D9" opacity="1.000000" stroke="none" 
	d="
M82.410385,291.930511 
	C81.703400,284.314667 81.367218,276.516724 81.043648,268.281586 
	C82.043945,270.490967 83.792709,273.118744 83.858498,275.788025 
	C83.989342,281.096069 83.193916,286.426941 82.410385,291.930511 
z"/>
<path fill="#D1D1D1" opacity="1.000000" stroke="none" 
	d="
M74.445969,322.869446 
	C72.973114,323.326111 71.831032,323.607605 70.355522,323.552490 
	C70.682411,320.811005 71.342728,318.406097 72.003052,316.001221 
	C73.395752,315.373138 74.788452,314.745056 76.506859,314.057098 
	C76.147285,316.896240 75.462021,319.795258 74.445969,322.869446 
z"/>
<path fill="#EAEAEA" opacity="1.000000" stroke="none" 
	d="
M49.547569,260.077087 
	C47.223824,263.649292 43.899059,261.740875 40.301056,261.034119 
	C42.966045,260.646698 46.035122,260.327606 49.547569,260.077087 
z"/>
<path fill="#E7E7E7" opacity="1.000000" stroke="none" 
	d="
M14.531076,190.133774 
	C14.844844,191.561523 14.819506,193.181335 14.459217,194.894501 
	C14.146833,193.433838 14.169402,191.879837 14.531076,190.133774 
z"/>
<path fill="#D1D1D1" opacity="1.000000" stroke="none" 
	d="
M78.433228,310.890503 
	C77.518860,310.445190 76.921700,309.852051 76.324539,309.258911 
	C76.934181,308.851410 77.543816,308.443939 78.492599,308.016724 
	C78.804634,308.912262 78.777534,309.827454 78.433228,310.890503 
z"/>
<path fill="#C5C4C3" opacity="1.000000" stroke="none" 
	d="
M25.948647,329.674927 
	C25.292435,329.780731 24.571581,329.564087 23.582630,329.260254 
	C23.232765,328.981781 23.150997,328.790497 23.119781,328.291290 
	C24.074890,328.439758 24.979450,328.896149 25.948647,329.674927 
z"/>
<path fill="#B1B1B1" opacity="1.000000" stroke="none" 
	d="
M27.245663,247.929581 
	C27.678946,247.797043 28.295069,247.911438 29.004456,248.225494 
	C28.541313,248.342270 27.984909,248.259384 27.245663,247.929581 
z"/>
<path fill="#EAEAEA" opacity="1.000000" stroke="none" 
	d="
M62.803364,260.796448 
	C62.348434,260.893250 61.706299,260.762146 61.036648,260.363281 
	C61.544804,260.253174 62.080479,260.410828 62.803364,260.796448 
z"/>
<path fill="#D9D9D9" opacity="1.000000" stroke="none" 
	d="
M78.932320,178.736420 
	C78.561668,178.836243 78.444344,178.600189 78.615021,178.163940 
	C78.798744,178.190964 78.892952,178.336563 78.932320,178.736420 
z"/>
<path fill="#EAEAEA" opacity="1.000000" stroke="none" 
	d="
M70.053040,261.692749 
	C69.828857,261.848938 69.550133,261.696838 69.158432,261.306885 
	C69.340454,261.215729 69.658127,261.320862 70.053040,261.692749 
z"/>
<path fill="#E7E7E7" opacity="1.000000" stroke="none" 
	d="
M15.139652,182.260818 
	C15.552576,182.293137 15.588261,182.550873 15.247183,182.895813 
	C15.080577,182.809799 15.044574,182.644211 15.139652,182.260818 
z"/>
<path fill="#F1DFAF" opacity="1.000000" stroke="none" 
	d="
M64.937241,157.680389 
	C60.476917,156.444153 56.057594,154.763992 50.837326,153.094238 
	C48.419579,153.118423 46.802769,153.132233 44.857567,153.151611 
	C44.001629,153.750946 43.474091,154.344681 42.951351,154.957581 
	C42.956150,154.976761 42.987080,155.001419 42.636246,154.994812 
	C41.821602,155.053223 41.357792,155.118240 40.587212,155.207336 
	C39.304783,155.552002 38.329128,155.872574 37.003021,156.190002 
	C36.070850,156.789444 35.489140,157.391998 34.608681,158.049866 
	C33.558510,158.718521 32.807079,159.331879 32.055649,159.945236 
	C31.600451,159.959946 31.145258,159.974655 30.348742,159.998230 
	C29.977964,155.919800 29.592525,151.797852 29.986408,147.751785 
	C31.126516,136.040222 32.361217,124.329033 33.967140,112.673958 
	C35.868099,98.877563 38.156994,85.133751 40.360039,71.380341 
	C41.068127,66.959816 41.831799,62.525715 42.994732,58.212326 
	C43.419708,56.636074 45.216080,54.161419 46.140797,54.266273 
	C47.791569,54.453457 50.127316,55.990894 50.640106,57.489529 
	C52.453011,62.787766 54.078102,68.236435 54.939304,73.758316 
	C57.744812,91.746811 60.397606,109.765617 62.672764,127.827736 
	C63.900284,137.572830 64.238701,147.429916 64.937241,157.680389 
z"/>
<path fill="#F9F9F9" opacity="1.000000" stroke="none" 
	d="
M42.963013,337.040497 
	C42.530216,337.026001 42.097416,337.011505 41.339638,336.624512 
	C40.986996,335.513885 40.959335,334.775726 40.806282,333.756348 
	C39.787308,332.650085 38.893730,331.825043 37.959042,330.684448 
	C37.273190,329.586029 36.628448,328.803162 35.824959,327.744507 
	C34.769569,326.987762 33.872921,326.506744 32.907448,325.707977 
	C31.875961,323.934143 30.913305,322.478027 29.966618,320.767517 
	C29.985512,320.343414 29.988434,320.173676 30.007475,319.629364 
	C30.562315,315.892578 32.858635,314.625854 35.768055,315.509308 
	C43.879585,317.972321 51.746349,316.974854 59.699856,314.836243 
	C60.548794,314.607971 61.898045,316.240326 62.956867,317.355865 
	C60.215832,321.996887 57.834976,326.523743 54.762478,330.518677 
	C51.895485,334.246399 48.711334,338.178314 42.963013,337.040497 
z"/>
<path fill="#DFDFDF" opacity="1.000000" stroke="none" 
	d="
M29.950644,321.021942 
	C30.913305,322.478027 31.875961,323.934143 32.782173,325.999878 
	C33.814590,328.075439 34.903454,329.541382 36.238121,331.012451 
	C36.483921,331.017548 36.975178,331.033905 36.978397,331.430054 
	C36.989437,332.882355 36.997253,333.938507 37.000645,334.999329 
	C36.996220,335.004028 36.983204,335.018311 36.983204,335.018311 
	C30.552141,332.554626 27.963514,326.822998 25.985115,321.059082 
	C23.260176,313.120117 21.290962,304.921814 19.305347,296.285034 
	C20.680483,295.893951 21.796631,295.904877 22.807785,296.236237 
	C27.502861,297.774628 32.071331,299.836060 36.864292,300.912415 
	C49.191975,303.680939 60.770893,301.143158 71.811295,295.252350 
	C73.191116,294.516083 75.250687,295.053772 76.995293,295.001160 
	C76.994194,295.748932 76.993095,296.496674 76.650253,297.712036 
	C75.549065,299.717926 74.926567,301.346710 73.988235,302.766815 
	C73.189964,303.974915 72.027802,304.942596 71.017822,305.608948 
	C71.113190,301.741394 70.402283,300.565277 66.340614,301.893799 
	C60.298752,303.870087 53.885628,305.686646 47.617336,305.731445 
	C40.830521,305.779968 33.980507,303.939667 27.252235,302.486908 
	C23.519138,301.680878 22.487770,303.163330 23.187065,306.239624 
	C23.576551,307.953003 25.015295,309.427887 25.994530,311.376709 
	C26.334780,313.162140 26.661680,314.581116 26.781069,316.240845 
	C26.437847,318.933258 26.849377,320.977905 29.950644,321.021942 
z"/>
<path fill="#DEDEDE" opacity="1.000000" stroke="none" 
	d="
M68.992424,266.006866 
	C72.500069,267.348969 75.905998,273.018463 75.623245,277.044495 
	C75.415176,280.007141 70.595688,284.215149 66.848083,284.977478 
	C54.026138,287.585663 41.209026,286.326874 28.438679,284.795013 
	C20.771481,283.875305 18.786848,279.484528 20.981266,269.411316 
	C20.998875,268.998779 21.000000,269.000000 21.306347,268.936615 
	C22.075243,268.248810 22.537792,267.624420 23.000341,267.000000 
	C27.369329,265.997314 31.738319,264.994629 36.379997,264.220947 
	C36.101334,264.966278 35.549976,265.482513 34.625687,266.001465 
	C33.507278,266.009766 32.761799,266.015411 31.650469,266.027100 
	C28.778921,268.449860 25.454870,270.447723 23.954741,273.378998 
	C21.561266,278.055939 24.500275,281.803467 29.840029,281.996155 
	C31.835869,282.068146 33.993439,281.647522 35.801868,282.262024 
	C45.878956,285.686157 55.867786,283.700500 65.846031,282.033051 
	C72.211769,280.969269 73.822792,277.638702 71.204498,271.994263 
	C70.312080,270.070404 69.721123,268.006683 68.992424,266.006866 
z"/>
<path fill="#D9D9D9" opacity="1.000000" stroke="none" 
	d="
M77.235565,294.733307 
	C75.250687,295.053772 73.191116,294.516083 71.811295,295.252350 
	C60.770893,301.143158 49.191975,303.680939 36.864292,300.912415 
	C32.071331,299.836060 27.502861,297.774628 22.807785,296.236237 
	C21.796631,295.904877 20.680483,295.893951 19.304230,295.867432 
	C18.935276,294.838257 18.874788,293.677124 18.814301,292.515991 
	C19.859800,292.786652 20.950809,292.944580 21.943802,293.345306 
	C32.148174,297.464081 43.009979,299.519501 53.702526,298.574738 
	C61.560925,297.880432 69.112953,293.718597 77.475830,290.872528 
	C77.475830,291.653839 77.475830,293.059631 77.235565,294.733307 
z"/>
<path fill="#B3B0AB" opacity="1.000000" stroke="none" 
	d="
M63.625603,338.029785 
	C63.962959,338.692383 63.956810,339.415405 63.944660,340.495911 
	C62.812504,341.789581 61.686344,342.725769 59.933235,343.890076 
	C52.348179,348.741180 45.049973,350.674072 37.034542,346.933899 
	C35.490284,345.455444 33.946026,343.976990 32.188591,342.254456 
	C30.686985,339.867889 29.398563,337.725372 28.070774,335.230164 
	C29.171350,335.472656 30.311295,336.067902 31.737415,336.820679 
	C37.705338,345.697021 51.043182,347.276306 60.108135,340.379272 
	C61.145908,339.589691 62.223156,338.851990 63.625603,338.029785 
z"/>
<path fill="#E7E7E7" opacity="1.000000" stroke="none" 
	d="
M43.004730,337.326324 
	C48.711334,338.178314 51.895485,334.246399 54.762478,330.518677 
	C57.834976,326.523743 60.215832,321.996887 63.288376,317.273987 
	C65.112923,315.226166 66.547615,313.606537 67.974350,312.366211 
	C64.481613,322.054413 61.584232,331.711029 52.818008,338.225159 
	C52.082054,338.627258 51.540924,338.813416 50.563267,338.999176 
	C48.083019,339.000458 46.039303,339.002167 43.995579,339.003845 
	C43.679203,338.539948 43.362827,338.076050 43.004730,337.326324 
z"/>
<path fill="#DFDFDF" opacity="1.000000" stroke="none" 
	d="
M53.012833,338.009216 
	C61.584232,331.711029 64.481613,322.054413 67.980042,311.994781 
	C68.003593,310.500580 68.013489,309.757111 68.337578,308.971436 
	C69.438057,308.619049 70.224327,308.308868 71.241440,308.232117 
	C71.651222,309.312408 71.830147,310.159271 72.009071,311.006134 
	C72.003601,312.068756 71.998131,313.131409 71.652008,314.675476 
	C69.994202,317.560822 68.619980,319.935516 67.370926,322.374329 
	C64.021111,328.915009 61.705067,336.382233 53.012833,338.009216 
z"/>
<path fill="#D9D9D9" opacity="1.000000" stroke="none" 
	d="
M52.818008,338.225159 
	C61.705067,336.382233 64.021111,328.915009 67.370926,322.374329 
	C68.619980,319.935516 69.994202,317.560822 71.649818,315.073914 
	C71.991112,315.159363 71.993927,315.327728 71.999893,315.748657 
	C71.342728,318.406097 70.682411,320.811005 70.003632,323.595795 
	C66.326447,332.230835 61.256557,338.977966 51.389061,340.674438 
	C51.000038,339.889862 50.999912,339.444733 50.999790,338.999573 
	C51.540924,338.813416 52.082054,338.627258 52.818008,338.225159 
z"/>
<path fill="#D9D9D9" opacity="1.000000" stroke="none" 
	d="
M72.350372,310.908813 
	C71.830147,310.159271 71.651222,309.312408 71.241394,307.901672 
	C71.015877,306.897430 71.021263,306.457062 71.026642,306.016663 
	C72.027802,304.942596 73.189964,303.974915 73.988235,302.766815 
	C74.926567,301.346710 75.549065,299.717926 76.649254,298.085907 
	C75.557220,302.265259 74.124443,306.538391 72.350372,310.908813 
z"/>
<path fill="#DFDFDF" opacity="1.000000" stroke="none" 
	d="
M50.563263,338.999146 
	C50.999912,339.444733 51.000038,339.889862 51.000694,340.669037 
	C48.958504,341.003357 46.915779,341.003693 44.436531,341.002014 
	C43.999420,340.556305 43.998840,340.112610 43.996918,339.336395 
	C46.039303,339.002167 48.083019,339.000458 50.563263,338.999146 
z"/>
<path fill="#DFDFDF" opacity="1.000000" stroke="none" 
	d="
M40.931679,334.037598 
	C40.959335,334.775726 40.986996,335.513885 41.014938,336.621094 
	C39.737362,336.559875 38.459507,336.129578 37.082428,335.358826 
	C36.983204,335.018311 36.996220,335.004028 37.337372,334.954956 
	C38.762913,334.616486 39.847294,334.327057 40.931679,334.037598 
z"/>
<path fill="#E6E6E6" opacity="1.000000" stroke="none" 
	d="
M34.998623,265.998779 
	C35.549976,265.482513 36.101334,264.966278 36.825813,264.223785 
	C36.998936,263.997559 37.495773,263.995117 37.744099,263.993927 
	C38.165749,264.003937 38.339069,264.015167 38.665146,264.375427 
	C37.544815,265.149231 36.271721,265.574005 34.998623,265.998779 
z"/>
<path fill="#D9D9D9" opacity="1.000000" stroke="none" 
	d="
M22.693575,267.062897 
	C22.537792,267.624420 22.075243,268.248810 21.305849,268.936005 
	C21.461605,268.374451 21.924208,267.750122 22.693575,267.062897 
z"/>
<path fill="#F9F8F9" opacity="1.000000" stroke="none" 
	d="
M37.353474,156.193130 
	C38.329128,155.872574 39.304783,155.552002 40.674755,155.461639 
	C41.708408,155.461716 42.347744,155.231567 42.987083,155.001419 
	C42.987080,155.001419 42.956150,154.976761 43.293518,154.980026 
	C44.087231,154.990753 44.543583,154.998215 45.283176,155.252197 
	C55.394905,157.067490 61.529922,163.080719 65.504784,171.845657 
	C67.523750,176.297653 69.832062,180.618454 72.016502,185.328003 
	C72.030861,186.096741 72.038277,186.536041 72.090599,187.361420 
	C72.771294,190.162933 73.407074,192.578354 74.096611,195.368561 
	C74.763435,198.164230 75.376511,200.585114 75.986145,203.405518 
	C75.990883,204.871185 75.999069,205.937332 76.004440,207.378265 
	C76.004143,208.502625 76.006668,209.252197 75.756699,209.999176 
	C75.335930,209.996506 75.167656,209.996414 74.924599,209.701462 
	C74.765816,209.263565 74.703819,209.099136 74.591492,208.983673 
	C74.483673,208.872849 74.323669,208.812805 74.186600,208.730438 
	C73.791176,209.488586 73.183090,210.207123 73.033333,211.011047 
	C71.563225,218.902542 69.083961,220.738312 61.096474,221.069748 
	C52.388519,221.431091 43.703152,222.336700 34.988132,222.599243 
	C34.567108,219.765762 34.544430,217.182892 33.634682,214.963684 
	C33.003735,213.424591 31.151178,212.386292 29.844439,211.124237 
	C28.572191,212.588333 26.767004,213.857635 26.145004,215.559387 
	C25.044178,218.571121 24.662926,221.845856 23.734028,224.747833 
	C22.758802,220.220505 20.978336,215.823898 21.493835,211.715363 
	C23.205057,198.076935 25.742416,184.542160 27.962936,170.967636 
	C27.982798,170.538483 28.002659,170.109329 28.362539,169.267548 
	C29.461720,167.230133 30.220881,165.605347 30.980043,163.980545 
	C31.265915,163.830994 31.512754,163.632828 32.195080,163.142807 
	C34.109962,161.262634 35.550335,159.625717 37.025993,157.684814 
	C37.158676,156.984940 37.256077,156.589035 37.353474,156.193130 
z"/>
<path fill="#E8E8E8" opacity="1.000000" stroke="none" 
	d="
M27.627003,171.053741 
	C25.742416,184.542160 23.205057,198.076935 21.493835,211.715363 
	C20.978336,215.823898 22.758802,220.220505 23.734577,225.204498 
	C23.979752,227.732101 23.958488,229.540573 23.979595,231.348541 
	C24.044432,236.902328 24.930721,237.562897 30.530167,236.322937 
	C31.328142,236.146225 32.151386,236.083633 33.435604,235.979172 
	C41.850842,235.993393 49.793495,236.021317 57.735958,235.993713 
	C67.569221,235.959518 70.474167,233.956848 74.201576,224.900620 
	C74.629532,223.860840 75.399025,222.961624 76.243927,222.258209 
	C76.326431,224.687012 76.175171,226.854828 76.023903,229.022659 
	C76.022842,229.461655 76.021782,229.900665 75.795685,230.859360 
	C75.386162,231.925430 75.201675,232.471802 75.017189,233.018173 
	C75.017189,233.018173 75.009743,233.508438 74.675377,233.832703 
	C73.891602,235.101868 73.442192,236.046768 72.992783,236.991669 
	C65.204338,242.340759 56.443039,242.901505 47.390240,242.377472 
	C41.932419,242.061539 36.453087,242.092850 30.982718,242.023560 
	C22.595118,241.917297 18.813061,238.521240 19.055840,230.263489 
	C19.491346,215.450348 19.867641,200.605057 21.263102,185.867340 
	C21.741655,180.813232 25.196161,176.040924 27.627003,171.053741 
z"/>
<path fill="#E0E0E0" opacity="1.000000" stroke="none" 
	d="
M75.989586,203.005981 
	C75.376511,200.585114 74.763435,198.164230 74.331421,195.090500 
	C73.690224,191.950211 72.867958,189.462769 72.045700,186.975327 
	C72.038277,186.536041 72.030861,186.096741 72.227104,185.081360 
	C70.963280,179.994446 69.495781,175.483658 68.028282,170.972855 
	C69.590904,173.099808 71.153519,175.226761 72.864380,177.673599 
	C74.763443,183.917023 76.514267,189.840576 78.630119,195.884903 
	C78.995583,198.048035 78.996017,200.090393 78.617767,202.568817 
	C77.489258,203.005264 76.739418,203.005615 75.989586,203.005981 
z"/>
<path fill="#E0E0E0" opacity="1.000000" stroke="none" 
	d="
M76.382568,228.920929 
	C76.175171,226.854828 76.326431,224.687012 76.242470,221.842804 
	C76.010681,219.782425 76.014114,218.398422 76.372307,216.899933 
	C78.549782,214.306015 79.127678,211.958313 76.009193,210.001785 
	C76.006668,209.252197 76.004143,208.502625 76.319641,207.342667 
	C77.421814,206.622253 78.205971,206.312210 78.990120,206.002151 
	C80.777946,213.857925 80.573318,221.517319 76.382568,228.920929 
z"/>
<path fill="#EAEAEA" opacity="1.000000" stroke="none" 
	d="
M36.990707,157.988800 
	C35.550335,159.625717 34.109962,161.262634 32.327576,162.944366 
	C31.998337,162.228928 32.011116,161.468674 32.039772,160.326813 
	C32.807079,159.331879 33.558510,158.718521 34.957188,158.050797 
	C36.066525,157.993896 36.528614,157.991348 36.990707,157.988800 
z"/>
<path fill="#E8E8E8" opacity="1.000000" stroke="none" 
	d="
M30.621952,164.046387 
	C30.220881,165.605347 29.461720,167.230133 28.376348,168.945618 
	C28.788048,167.394958 29.525955,165.753586 30.621952,164.046387 
z"/>
<path fill="#E8E8E8" opacity="1.000000" stroke="none" 
	d="
M78.992538,205.627777 
	C78.205971,206.312210 77.421814,206.622253 76.322456,206.967896 
	C75.999069,205.937332 75.990883,204.871185 75.986145,203.405518 
	C76.739418,203.005615 77.489258,203.005264 78.613449,203.006683 
	C78.990189,203.756790 78.992569,204.505096 78.992538,205.627777 
z"/>
<path fill="#E0E0E0" opacity="1.000000" stroke="none" 
	d="
M73.271423,236.837997 
	C73.442192,236.046768 73.891602,235.101868 74.669510,234.077789 
	C74.515358,234.893860 74.032707,235.789093 73.271423,236.837997 
z"/>
<path fill="#E0E0E0" opacity="1.000000" stroke="none" 
	d="
M75.286652,232.969498 
	C75.201675,232.471802 75.386162,231.925430 75.794586,231.188629 
	C75.864380,231.639069 75.710251,232.279938 75.286652,232.969498 
z"/>
<path fill="#DFBF86" opacity="1.000000" stroke="none" 
	d="
M55.890656,366.615997 
	C54.380478,369.052399 53.278522,371.317261 51.765968,373.262878 
	C48.541058,377.411163 43.765491,376.780579 41.564407,372.034576 
	C39.899723,368.445068 38.122639,364.892395 36.738125,361.195068 
	C36.103027,359.499084 36.290382,357.495056 36.063606,355.217377 
	C40.082191,356.655792 43.348263,358.729706 46.624382,358.745667 
	C49.972065,358.762054 53.329617,356.759094 58.111610,355.163361 
	C57.407658,359.085449 56.760231,362.692627 55.890656,366.615997 
z"/>
<path fill="#C9B083" opacity="1.000000" stroke="none" 
	d="
M37.075176,347.299194 
	C45.049973,350.674072 52.348179,348.741180 59.661018,344.063354 
	C56.124283,352.931671 47.426163,355.971985 39.711514,350.972412 
	C38.598961,350.251404 37.969067,348.785614 37.075176,347.299194 
z"/>
<path fill="#E6E6E6" opacity="1.000000" stroke="none" 
	d="
M68.661629,266.003601 
	C69.721123,268.006683 70.312080,270.070404 71.204498,271.994263 
	C73.822792,277.638702 72.211769,280.969269 65.846031,282.033051 
	C55.867786,283.700500 45.878956,285.686157 35.801868,282.262024 
	C33.993439,281.647522 31.835869,282.068146 29.840029,281.996155 
	C24.500275,281.803467 21.561266,278.055939 23.954741,273.378998 
	C25.454870,270.447723 28.778921,268.449860 31.591183,266.371033 
	C30.558884,268.573914 28.897455,270.296326 27.988520,272.351562 
	C27.323641,273.854950 26.969610,276.242218 27.736034,277.407166 
	C28.406157,278.425720 30.818005,278.473663 32.487709,278.606110 
	C33.929161,278.720459 35.597446,277.828583 36.841713,278.277954 
	C45.654202,281.460571 54.560196,279.256958 63.403740,278.840820 
	C65.225410,278.755127 67.900093,277.355316 68.480759,275.888092 
	C69.044456,274.463745 67.849991,271.831787 66.660652,270.342743 
	C64.768860,267.974121 62.240135,266.114258 59.980808,264.039215 
	C61.370213,264.030670 62.759621,264.022125 64.634888,264.320282 
	C65.749634,265.080475 66.378510,265.533936 67.007393,265.987427 
	C67.448540,265.991730 67.889687,265.996033 68.661629,266.003601 
z"/>
<path fill="#EFEFEF" opacity="1.000000" stroke="none" 
	d="
M59.608181,264.031189 
	C62.240135,266.114258 64.768860,267.974121 66.660652,270.342743 
	C67.849991,271.831787 69.044456,274.463745 68.480759,275.888092 
	C67.900093,277.355316 65.225410,278.755127 63.403740,278.840820 
	C54.560196,279.256958 45.654202,281.460571 36.841713,278.277954 
	C35.597446,277.828583 33.929161,278.720459 32.487709,278.606110 
	C30.818005,278.473663 28.406157,278.425720 27.736034,277.407166 
	C26.969610,276.242218 27.323641,273.854950 27.988520,272.351562 
	C28.897455,270.296326 30.558884,268.573914 31.957039,266.364929 
	C32.761799,266.015411 33.507278,266.009766 34.625687,266.001465 
	C36.271721,265.574005 37.544815,265.149231 38.925209,264.390930 
	C39.791344,264.070099 40.550186,264.082794 41.647293,264.479553 
	C40.743542,265.721802 39.490089,266.564026 38.261856,267.441498 
	C35.634895,269.318237 31.657816,269.875580 31.274591,274.424652 
	C32.312164,274.628265 33.096630,274.928589 33.874538,274.912476 
	C42.660889,274.730438 51.447384,274.534943 60.230717,274.247620 
	C61.689568,274.199860 63.133457,273.694855 64.584259,273.401154 
	C63.687885,272.031342 62.976147,270.480957 61.853252,269.332672 
	C60.023575,267.461609 57.925377,265.853149 55.940491,264.133881 
	C56.116718,264.112457 56.292950,264.091003 56.733482,264.037201 
	C57.743706,264.010986 58.489632,264.017090 59.608181,264.031189 
z"/>
<path fill="#DEDEDE" opacity="1.000000" stroke="none" 
	d="
M66.941422,265.681458 
	C66.378510,265.533936 65.749634,265.080475 65.051720,264.322601 
	C65.613609,264.470642 66.244530,264.923065 66.941422,265.681458 
z"/>
<path fill="#B3B0AB" opacity="1.000000" stroke="none" 
	d="
M64.762299,337.077515 
	C64.856140,337.263123 64.669144,337.527313 64.191513,337.858673 
	C64.110535,337.677826 64.304062,337.421234 64.762299,337.077515 
z"/>
<path fill="#EAEAEA" opacity="1.000000" stroke="none" 
	d="
M67.877426,170.666504 
	C69.495781,175.483658 70.963280,179.994446 72.220169,184.751907 
	C69.832062,180.618454 67.523750,176.297653 65.504784,171.845657 
	C61.529922,163.080719 55.394905,157.067490 45.293201,154.939819 
	C45.075306,153.969269 45.130634,153.557648 45.185959,153.146027 
	C46.802769,153.132233 48.419579,153.118423 50.432755,153.136230 
	C58.312366,157.079605 64.012405,162.743973 67.877426,170.666504 
z"/>
<path fill="#F8F8F8" opacity="1.000000" stroke="none" 
	d="
M55.482441,264.106873 
	C57.925377,265.853149 60.023575,267.461609 61.853252,269.332672 
	C62.976147,270.480957 63.687885,272.031342 64.584259,273.401154 
	C63.133457,273.694855 61.689568,274.199860 60.230717,274.247620 
	C51.447384,274.534943 42.660889,274.730438 33.874538,274.912476 
	C33.096630,274.928589 32.312164,274.628265 31.274591,274.424652 
	C31.657816,269.875580 35.634895,269.318237 38.261856,267.441498 
	C39.490089,266.564026 40.743542,265.721802 42.026020,264.510803 
	C46.385784,264.131958 50.705090,264.105927 55.482441,264.106873 
z"/>
<path fill="#D6D5D5" opacity="1.000000" stroke="none" 
	d="
M37.025993,157.684814 
	C36.528614,157.991348 36.066525,157.993896 35.255928,157.995514 
	C35.489140,157.391998 36.070850,156.789444 37.003021,156.190002 
	C37.256077,156.589035 37.158676,156.984940 37.025993,157.684814 
z"/>
<path fill="#EAEAEA" opacity="1.000000" stroke="none" 
	d="
M42.636246,154.994812 
	C42.347744,155.231567 41.708408,155.461716 40.981529,155.437561 
	C41.357792,155.118240 41.821602,155.053223 42.636246,154.994812 
z"/>
<path fill="#D6D5D5" opacity="1.000000" stroke="none" 
	d="
M44.857567,153.151611 
	C45.130634,153.557648 45.075306,153.969269 45.009956,154.693283 
	C44.543583,154.998215 44.087231,154.990753 43.288719,154.960846 
	C43.474091,154.344681 44.001629,153.750946 44.857567,153.151611 
z"/>
<path fill="#EFEFEF" opacity="1.000000" stroke="none" 
	d="
M68.023376,309.013611 
	C68.013489,309.757111 68.003593,310.500580 67.988007,311.615479 
	C66.547615,313.606537 65.112923,315.226166 63.346710,316.927673 
	C61.898045,316.240326 60.548794,314.607971 59.699856,314.836243 
	C51.746349,316.974854 43.879585,317.972321 35.768055,315.509308 
	C32.858635,314.625854 30.562315,315.892578 29.728199,319.464600 
	C28.618063,318.449677 27.803322,317.224915 26.988581,316.000122 
	C26.661680,314.581116 26.334780,313.162140 26.169922,311.074158 
	C28.002048,309.834900 29.978712,308.379547 31.293449,308.835022 
	C41.316650,312.307159 51.181396,312.379059 61.064224,308.483917 
	C61.983051,308.121796 62.988026,307.509796 63.869846,307.628998 
	C65.290779,307.821075 66.642448,308.525574 68.023376,309.013611 
z"/>
<path fill="#E7E7E7" opacity="1.000000" stroke="none" 
	d="
M35.992317,331.007324 
	C34.903454,329.541382 33.814590,328.075439 32.851002,326.317627 
	C33.872921,326.506744 34.769569,326.987762 35.828331,328.117432 
	C35.991066,329.513153 35.991688,330.260254 35.992317,331.007324 
z"/>
<path fill="#E7E7E7" opacity="1.000000" stroke="none" 
	d="
M40.806282,333.756378 
	C39.847294,334.327057 38.762913,334.616486 37.341797,334.950256 
	C36.997253,333.938507 36.989437,332.882355 37.234722,331.419312 
	C37.658600,331.008301 37.829376,331.004150 38.000153,331.000000 
	C38.893730,331.825043 39.787308,332.650085 40.806282,333.756378 
z"/>
<path fill="#E7E7E7" opacity="1.000000" stroke="none" 
	d="
M26.781069,316.240845 
	C27.803322,317.224915 28.618063,318.449677 29.712080,319.839233 
	C29.988434,320.173676 29.985512,320.343414 29.966614,320.767517 
	C26.849377,320.977905 26.437847,318.933258 26.781069,316.240845 
z"/>
<path fill="#EFEFEF" opacity="1.000000" stroke="none" 
	d="
M37.959045,330.684448 
	C37.829376,331.004150 37.658600,331.008301 37.231503,331.023163 
	C36.975178,331.033905 36.483921,331.017548 36.238117,331.012451 
	C35.991688,330.260254 35.991066,329.513153 35.987076,328.393188 
	C36.628448,328.803162 37.273190,329.586029 37.959045,330.684448 
z"/>
<path fill="#E7E7E7" opacity="1.000000" stroke="none" 
	d="
M68.337578,308.971436 
	C66.642448,308.525574 65.290779,307.821075 63.869846,307.628998 
	C62.988026,307.509796 61.983051,308.121796 61.064224,308.483917 
	C51.181396,312.379059 41.316650,312.307159 31.293449,308.835022 
	C29.978712,308.379547 28.002048,309.834900 26.156572,310.707733 
	C25.015295,309.427887 23.576551,307.953003 23.187065,306.239624 
	C22.487770,303.163330 23.519138,301.680878 27.252235,302.486908 
	C33.980507,303.939667 40.830521,305.779968 47.617336,305.731445 
	C53.885628,305.686646 60.298752,303.870087 66.340614,301.893799 
	C70.402283,300.565277 71.113190,301.741394 71.017838,305.608948 
	C71.021263,306.457062 71.015877,306.897430 71.010544,307.668274 
	C70.224327,308.308868 69.438057,308.619049 68.337578,308.971436 
z"/>
<path fill="#F5F5F5" opacity="1.000000" stroke="none" 
	d="
M35.007935,223.005035 
	C43.703152,222.336700 52.388519,221.431091 61.096474,221.069748 
	C69.083961,220.738312 71.563225,218.902542 73.033333,211.011047 
	C73.183090,210.207123 73.791176,209.488586 74.186600,208.730438 
	C74.323669,208.812805 74.483673,208.872849 74.591492,208.983673 
	C74.703819,209.099136 74.765816,209.263565 74.927780,210.101807 
	C75.008133,211.864349 75.010498,212.931641 74.765572,214.249847 
	C69.730659,226.686768 67.760902,227.893936 54.272202,228.045334 
	C47.856491,228.117355 41.446266,228.678055 35.026466,228.587936 
	C35.015564,226.440659 35.011749,224.722855 35.007935,223.005035 
z"/>
<path fill="#FEFEFE" opacity="1.000000" stroke="none" 
	d="
M34.988132,222.599243 
	C35.011749,224.722855 35.015564,226.440659 35.017281,228.966248 
	C34.331100,231.838745 33.647015,233.903488 32.962936,235.968216 
	C32.151386,236.083633 31.328142,236.146225 30.530167,236.322937 
	C24.930721,237.562897 24.044432,236.902328 23.979595,231.348541 
	C23.958488,229.540573 23.979752,227.732101 23.981089,225.467194 
	C24.662926,221.845856 25.044178,218.571121 26.145004,215.559387 
	C26.767004,213.857635 28.572191,212.588333 29.844439,211.124237 
	C31.151178,212.386292 33.003735,213.424591 33.634682,214.963684 
	C34.544430,217.182892 34.567108,219.765762 34.988132,222.599243 
z"/>
<path fill="#E8E8E8" opacity="1.000000" stroke="none" 
	d="
M75.012863,213.998947 
	C75.010498,212.931641 75.008133,211.864349 75.002579,210.396698 
	C75.167656,209.996414 75.335930,209.996506 75.756699,209.999176 
	C79.127678,211.958313 78.549782,214.306015 76.359787,216.566803 
	C75.665970,215.565094 75.339417,214.782028 75.012863,213.998947 
z"/>
<path fill="#EAEAEA" opacity="1.000000" stroke="none" 
	d="
M72.090607,187.361420 
	C72.867958,189.462769 73.690224,191.950211 74.277672,194.715714 
	C73.407074,192.578354 72.771294,190.162933 72.090607,187.361420 
z"/>
<path fill="#EFEFEF" opacity="1.000000" stroke="none" 
	d="
M74.765572,214.249847 
	C75.339417,214.782028 75.665970,215.565094 76.005035,216.681305 
	C76.014114,218.398422 76.010681,219.782425 76.008713,221.581818 
	C75.399025,222.961624 74.629532,223.860840 74.201576,224.900620 
	C70.474167,233.956848 67.569221,235.959518 57.735958,235.993713 
	C49.793495,236.021317 41.850842,235.993393 33.435600,235.979172 
	C33.647015,233.903488 34.331100,231.838745 35.024368,229.395706 
	C41.446266,228.678055 47.856491,228.117355 54.272202,228.045334 
	C67.760902,227.893936 69.730659,226.686768 74.765572,214.249847 
z"/>
</svg>