<svg version="1.1" id="Layer_1" xmlns="http://www.w3.org/2000/svg" xmlns:xlink="http://www.w3.org/1999/xlink" x="0px" y="0px"
	 width="100%" viewBox="0 0 91 405" enable-background="new 0 0 91 405" xml:space="preserve">
<path fill="#E4E4E4" opacity="1.000000" stroke="none" 
	d="
M11.030490,296.917847 
	C10.166883,292.800903 9.081069,288.715240 8.496239,284.559052 
	C7.774419,279.429413 7.123093,274.245209 7.062649,269.077301 
	C6.964394,260.676483 9.597136,253.009232 16.628386,248.049789 
	C20.750772,245.142090 25.742785,242.566177 30.635418,241.858521 
	C38.363747,240.740707 46.206268,240.992935 53.845985,244.423904 
	C58.786240,246.642578 64.635529,246.745026 69.963936,248.209015 
	C85.092361,252.365585 87.188599,256.704559 88.586601,269.696350 
	C89.700775,280.050507 91.742188,290.679108 87.504684,300.897614 
	C86.544838,303.212219 84.868500,305.229645 82.952240,307.299683 
	C73.177216,308.544281 64.003067,310.238403 54.751724,311.026917 
	C50.905945,311.354706 46.895447,309.749908 43.233459,308.979492 
	C43.822639,308.644531 44.138214,308.354034 44.453789,308.063538 
	C44.256409,307.895172 44.059032,307.726837 43.861656,307.558472 
	C43.566650,308.052032 43.271652,308.545624 42.546829,309.055115 
	C41.122200,309.084412 40.108917,308.978607 39.135395,309.129425 
	C27.718634,310.898407 19.638908,305.515961 12.854807,296.797119 
	C12.148414,296.698639 11.589453,296.808258 11.030490,296.917847 
M69.403061,275.300323 
	C68.297234,276.486786 67.191406,277.673218 66.085571,278.859680 
	C66.650124,279.218140 67.214676,279.576599 67.779228,279.935028 
	C68.523582,278.293945 69.267937,276.652863 70.713760,274.907867 
	C71.478058,273.607422 72.242348,272.306946 73.681984,270.919556 
	C75.117073,269.695007 76.552162,268.470459 77.987244,267.245911 
	C77.723999,266.924377 77.460754,266.602875 77.197510,266.281342 
	C76.462173,266.521576 75.726830,266.761810 74.575722,266.760345 
	C74.318794,266.556152 74.126892,266.302704 74.319855,265.401245 
	C74.871155,264.780884 75.420410,264.158722 75.974060,263.540466 
	C80.626068,258.345764 80.117981,255.575882 73.471893,253.788513 
	C68.131241,252.352264 62.520981,251.918472 56.989311,250.352066 
	C56.726357,249.728226 56.463406,249.104385 56.240742,248.576126 
	C53.925579,252.865173 50.608334,256.659302 49.869133,260.902527 
	C48.594543,268.219025 43.882881,270.343353 37.896446,271.956482 
	C36.742352,272.267487 35.957436,273.948547 34.252674,275.004181 
	C33.503117,275.003998 32.753559,275.003845 31.802668,274.252716 
	C26.823263,271.833344 20.544886,273.369690 14.837663,278.986420 
	C18.146832,278.172882 20.563728,277.578705 22.894625,277.691223 
	C21.622858,280.152313 19.357597,282.572113 19.253242,285.081757 
	C18.827032,295.331696 37.703033,306.726349 46.873802,302.013367 
	C47.706921,301.585205 48.297573,300.685303 49.496723,299.999725 
	C49.496723,299.999725 49.992607,299.993744 50.438995,300.482635 
	C52.953320,299.317108 55.467644,298.151581 57.895706,297.689362 
	C57.353733,298.980682 56.811760,300.271973 55.848202,302.567780 
	C59.006977,302.735260 61.503487,302.867645 64.748344,302.901123 
	C66.833351,302.272217 68.918350,301.643341 71.752480,300.907135 
	C76.560287,299.355499 81.692039,298.679474 84.323318,293.184143 
	C88.128479,285.237183 86.471436,281.996368 78.000015,281.329651 
	C78.000031,280.887451 78.000046,280.445221 78.873123,280.001434 
	C80.186111,279.987457 81.678329,280.360779 82.765053,279.857880 
	C84.018791,279.277679 85.825912,277.878265 85.777199,276.916443 
	C85.674538,274.889832 84.941071,272.533600 83.622223,271.077118 
	C82.924225,270.306244 79.402786,270.567993 78.978867,271.350769 
	C77.546280,273.996033 76.928970,277.082825 76.000000,280.666138 
	C75.999977,281.109100 75.999954,281.552094 75.266121,282.015076 
	C73.850464,282.351166 72.434807,282.687256 70.286308,283.022797 
	C68.875694,283.351624 67.465080,283.680450 65.286705,283.995117 
	C64.521523,283.993805 63.756336,283.992493 62.991116,283.333069 
	C62.988808,282.894592 62.986500,282.456085 63.402981,281.659698 
	C62.936085,280.767700 62.469189,279.875702 62.419121,278.470215 
	C64.623405,276.659119 66.827682,274.848022 69.247971,273.534027 
	C69.493492,274.018951 69.739014,274.503845 69.403061,275.300323 
M27.144835,246.961929 
	C21.249903,247.397125 14.879421,252.804733 12.436619,259.595825 
	C12.298153,262.056641 11.832734,264.553406 12.098148,266.969849 
	C12.492462,270.559845 15.523190,272.308167 18.138479,270.547333 
	C23.380800,267.017761 28.985783,267.349243 34.735348,266.802277 
	C38.697880,266.425232 43.706490,266.553802 45.370083,261.211914 
	C46.248707,258.390594 47.191841,255.577408 47.848789,252.701843 
	C48.831902,248.398560 46.326214,245.199982 41.846516,245.014801 
	C38.372589,244.871201 34.875843,244.818787 31.414885,245.073837 
	C30.215776,245.162186 29.093752,246.296616 27.144835,246.961929 
M12.102108,279.631195 
	C11.942369,280.176819 11.782629,280.722473 11.622885,281.268066 
	C12.167964,281.177887 12.713042,281.087708 13.258126,280.997559 
	C13.041473,280.460754 12.824821,279.923920 12.102108,279.631195 
z"/>
<path fill="#CDB487" opacity="1.000000" stroke="none" 
	d="
M16.536997,173.146851 
	C14.531111,164.319489 12.512257,155.495010 10.537929,146.660599 
	C10.323180,145.699677 10.365482,144.681320 10.176409,142.884018 
	C10.012343,128.663177 9.960426,115.247917 9.908508,101.832657 
	C12.437904,96.417747 14.700967,90.853577 17.615026,85.654259 
	C18.964512,83.246468 21.380175,81.265915 23.688824,79.619339 
	C25.572975,78.275536 28.023479,76.961792 30.210272,76.982239 
	C33.642704,77.014336 36.080330,76.835800 37.580280,73.086472 
	C38.377174,71.094521 40.653027,69.694244 42.639946,68.261948 
	C43.349674,69.256699 43.680733,70.016380 43.691956,70.975838 
	C40.224556,72.516434 39.676937,74.669594 40.290649,78.026604 
	C40.964138,81.710571 40.938210,85.620522 40.586361,89.372864 
	C39.906830,96.619904 38.784184,103.825394 37.480652,110.910370 
	C36.817856,105.813255 36.577488,100.849136 36.173176,95.898415 
	C36.091225,94.894936 35.390305,93.942009 35.117893,92.652435 
	C35.189861,90.892700 35.118679,89.446327 35.095592,87.639267 
	C35.109253,85.501328 35.074818,83.724052 34.942734,81.598450 
	C32.618851,81.334953 29.925619,80.636780 28.246193,81.638428 
	C20.436390,86.296349 16.492250,93.972229 14.002502,102.327049 
	C10.701797,113.403206 12.095008,124.778877 13.661185,135.856308 
	C15.068880,145.812805 18.244726,155.516922 20.587267,165.345108 
	C21.266382,168.194351 20.376236,171.938202 24.922123,172.375443 
	C24.645353,172.942657 24.368586,173.509857 24.069595,174.317245 
	C24.047373,174.557419 24.019802,175.039978 23.663673,175.026733 
	C22.233576,175.470093 21.159609,175.926727 19.682098,176.301086 
	C18.459757,176.132584 17.640959,176.046356 16.768948,175.680756 
	C16.656155,174.649857 16.596575,173.898361 16.536997,173.146851 
z"/>
<path fill="#D0B78B" opacity="1.000000" stroke="none" 
	d="
M79.068611,157.015762 
	C78.399635,160.670792 77.509544,164.304214 77.149277,167.989426 
	C76.950996,170.017624 77.643837,172.132935 77.652794,174.824142 
	C75.275581,180.341858 73.622810,176.737061 72.052635,174.793243 
	C72.808830,169.940598 73.377357,165.447754 73.950607,160.629364 
	C73.960571,159.869690 73.965820,159.435593 74.226883,158.782166 
	C74.635948,157.692062 74.789192,156.821274 74.945847,155.625809 
	C74.951042,154.868195 74.952827,154.435272 75.240723,153.700577 
	C76.010727,139.427505 76.588654,125.458145 76.879250,111.482811 
	C76.923897,109.335350 75.645439,107.160378 74.973946,104.671913 
	C74.963631,103.910744 74.958267,103.475784 74.973877,102.618149 
	C73.420532,97.090988 72.205437,91.831612 70.102676,86.954994 
	C69.207924,84.879890 66.718437,81.853630 63.731472,86.126297 
	C63.321106,86.864090 63.131607,87.409477 62.667225,88.003029 
	C62.242928,88.700386 62.093513,89.349586 61.947945,90.410812 
	C61.939091,92.196053 61.926392,93.569244 61.540894,95.072067 
	C60.956177,99.178215 60.678795,103.152565 60.546501,107.131744 
	C60.300781,114.522743 61.121830,122.120987 59.638908,129.245850 
	C58.407871,135.160522 56.888920,142.015686 50.095589,144.692398 
	C56.773952,135.977631 59.927940,126.560349 59.054790,115.801949 
	C58.520439,109.218056 58.323002,102.606804 57.982700,95.566101 
	C59.001537,90.415062 60.011929,85.705750 61.364410,80.841835 
	C64.700813,81.115028 67.695114,81.542839 70.689423,81.970642 
	C77.915932,89.572678 79.886032,98.984566 80.001266,109.949707 
	C79.900154,123.563873 79.805107,136.261337 79.710068,148.958817 
	C79.665199,150.663422 79.620331,152.368027 79.270340,154.583740 
	C78.999695,155.735168 79.034149,156.375458 79.068611,157.015762 
z"/>
<path fill="#D5D4D2" opacity="1.000000" stroke="none" 
	d="
M16.822159,175.960129 
	C17.640959,176.046356 18.459757,176.132584 19.657745,176.659561 
	C19.311441,179.468277 18.681927,181.870865 17.843109,184.197998 
	C14.891797,192.385834 11.506798,200.449905 11.983743,209.446579 
	C12.301723,215.444687 16.289267,220.924164 22.205164,221.950485 
	C30.557762,223.399551 39.079140,227.397339 47.349346,221.415329 
	C49.039669,220.192673 50.964039,219.293594 53.626137,217.757370 
	C53.418682,217.576019 54.220825,218.277237 54.798904,219.178284 
	C55.716244,220.918930 56.857647,222.459763 58.000484,224.250290 
	C58.001919,224.499969 58.005428,224.999329 57.658684,225.154266 
	C54.811798,225.875076 52.236362,226.230179 49.839874,227.086227 
	C48.413445,227.595779 47.268368,228.892990 45.996803,229.836090 
	C39.232529,229.152252 32.468254,228.468399 25.182854,227.241333 
	C22.539351,226.187500 20.416973,225.676880 18.294596,225.166275 
	C13.733528,225.706650 11.836438,222.456833 9.838631,218.662781 
	C9.409561,217.701447 9.040410,217.342346 8.671261,216.983246 
	C6.746660,211.629715 6.129059,206.257523 8.864077,200.266327 
	C9.792107,197.900269 10.296853,196.111389 10.801600,194.322495 
	C11.641884,191.119461 12.482168,187.916443 13.765970,184.248016 
	C14.403664,183.318359 14.597838,182.854095 14.792014,182.389816 
	C14.992534,181.787552 15.193052,181.185272 15.703491,180.266708 
	C16.129337,179.877777 16.348448,179.795731 16.342827,179.734222 
	C16.321651,179.502380 16.227354,179.277222 16.160439,179.049561 
	C16.262878,178.281174 16.365314,177.512802 16.625669,176.369415 
	C16.783588,175.994415 16.822159,175.960129 16.822159,175.960129 
z"/>
<path fill="#D5D4D2" opacity="1.000000" stroke="none" 
	d="
M71.864967,175.153061 
	C73.622810,176.737061 75.275581,180.341858 77.629036,175.238266 
	C79.864296,180.455093 81.446495,186.060226 83.907944,191.248199 
	C87.887634,199.636200 90.071327,208.125778 88.626648,217.474701 
	C87.434509,225.189362 77.113388,231.690643 69.300392,228.817383 
	C68.491318,228.425415 68.226883,228.492203 68.011368,228.819809 
	C66.934509,228.743515 65.857643,228.667206 64.398293,228.153671 
	C64.009773,227.143738 64.003738,226.571045 63.830166,225.695679 
	C61.775185,224.592896 59.887753,223.792786 57.968155,222.676666 
	C57.623741,221.576736 57.311493,220.792847 57.414536,220.008667 
	C60.219986,220.338913 62.610146,220.669449 65.245560,221.005371 
	C65.490822,221.010773 65.981461,221.013504 66.159439,221.320343 
	C69.541344,223.559570 73.187904,226.951157 76.585762,224.255890 
	C80.246803,221.351883 84.835854,217.756119 83.893105,212.075653 
	C82.793251,205.448563 80.935760,198.933289 79.116814,192.450912 
	C78.739166,191.105042 77.089378,190.116135 76.026840,188.720490 
	C76.027794,188.478256 76.015915,187.993927 76.016418,187.606339 
	C74.685745,184.800476 73.354576,182.382217 71.975006,179.626556 
	C70.924484,178.528763 69.922363,177.768356 68.926331,176.726898 
	C68.938156,176.258499 68.943901,176.071182 69.175949,175.662262 
	C70.223160,175.344803 71.044060,175.248932 71.864967,175.153061 
z"/>
<path fill="#B7B4B1" opacity="1.000000" stroke="none" 
	d="
M42.959854,309.023926 
	C46.895447,309.749908 50.905945,311.354706 54.751724,311.026917 
	C64.003067,310.238403 73.177216,308.544281 82.653343,307.456360 
	C81.529243,309.068268 80.134315,310.439331 78.019196,311.939331 
	C72.852966,313.376984 68.406914,314.685730 63.530228,315.990540 
	C61.083088,316.015961 59.066582,316.045319 56.600639,316.044586 
	C53.754559,316.032013 51.357914,316.049561 48.498478,316.048889 
	C41.034306,315.360016 34.032925,314.689301 26.736633,313.872681 
	C24.962027,312.815521 23.482330,311.904297 21.840801,310.695526 
	C20.220690,309.188263 18.762413,307.978485 16.954351,306.478577 
	C16.552511,309.025696 16.318363,310.509888 16.084215,311.994049 
	C14.449607,307.566620 12.814999,303.139221 11.437786,298.331146 
	C12.130868,297.635406 12.566556,297.320312 13.002241,297.005188 
	C19.638908,305.515961 27.718634,310.898407 39.135395,309.129425 
	C40.108917,308.978607 41.122200,309.084412 42.558430,309.034912 
	C42.999847,308.998779 42.959854,309.023926 42.959854,309.023926 
z"/>
<path fill="#CDB182" opacity="1.000000" stroke="none" 
	d="
M63.960865,315.994446 
	C68.406914,314.685730 72.852966,313.376984 77.705551,312.089661 
	C76.979446,316.843597 76.007416,321.621918 74.675499,326.297699 
	C72.800537,332.879913 71.698723,340.469971 63.340866,341.984863 
	C59.651344,342.653625 55.608505,341.373108 51.284420,340.484009 
	C49.562366,337.247589 47.568741,334.610046 47.144817,331.740601 
	C46.155361,325.043304 44.917168,324.056976 38.657665,326.702606 
	C37.751858,327.085449 36.882240,327.553925 35.743793,327.731842 
	C33.252274,326.500305 29.791878,327.027283 30.396923,323.022736 
	C34.295475,323.051605 37.812511,323.338837 41.285610,323.066254 
	C46.846474,322.629791 48.384804,323.798828 50.322319,329.120026 
	C51.243607,331.650238 53.394409,333.732788 55.043938,336.372284 
	C58.692127,340.990479 60.559002,341.043396 65.316452,336.952881 
	C66.088234,336.266998 66.547134,335.635345 67.263687,334.735779 
	C68.013206,331.978607 68.505081,329.489288 69.260376,326.722748 
	C71.145180,321.111755 68.696442,317.944458 63.960865,315.994446 
z"/>
<path fill="#CBAF80" opacity="1.000000" stroke="none" 
	d="
M29.995686,323.029846 
	C29.791878,327.027283 33.252274,326.500305 35.450836,327.788147 
	C34.960129,328.668213 34.510303,329.241028 34.060478,329.813873 
	C28.958660,332.070587 23.893242,330.948059 21.421404,326.193359 
	C19.220726,321.960327 17.954115,317.241669 16.179741,312.365692 
	C16.318363,310.509888 16.552511,309.025696 16.954351,306.478577 
	C18.762413,307.978485 20.220690,309.188263 21.839596,311.112701 
	C21.983463,315.799164 22.061771,319.719208 27.261578,321.136017 
	C28.354048,321.856995 29.174864,322.443420 29.995686,323.029846 
z"/>
<path fill="#AA9E8C" opacity="1.000000" stroke="none" 
	d="
M9.527363,101.931122 
	C9.960426,115.247917 10.012343,128.663177 10.053093,142.496002 
	C6.813399,129.349762 5.474157,115.744568 9.527363,101.931122 
z"/>
<path fill="#A79C8A" opacity="1.000000" stroke="none" 
	d="
M80.022720,148.672180 
	C79.805107,136.261337 79.900154,123.563873 80.020493,110.394196 
	C80.638420,110.531151 81.764030,111.157394 81.745117,111.746933 
	C81.353302,123.962303 80.831482,136.173508 80.022720,148.672180 
z"/>
<path fill="#D1D1D0" opacity="1.000000" stroke="none" 
	d="
M63.997711,225.998337 
	C64.003738,226.571045 64.009773,227.143738 64.021484,228.002777 
	C58.320534,228.855255 52.613903,229.421417 46.452038,229.911835 
	C47.268368,228.892990 48.413445,227.595779 49.839874,227.086227 
	C52.236362,226.230179 54.811798,225.875076 57.987896,225.216980 
	C60.441803,225.415970 62.219757,225.707153 63.997711,225.998337 
z"/>
<path fill="#CFBDA5" opacity="1.000000" stroke="none" 
	d="
M34.442780,329.887207 
	C34.510303,329.241028 34.960129,328.668213 35.702911,328.039062 
	C36.882240,327.553925 37.751858,327.085449 38.657665,326.702606 
	C44.917168,324.056976 46.155361,325.043304 47.144817,331.740601 
	C47.568741,334.610046 49.562366,337.247589 50.914276,340.319458 
	C46.558163,339.194153 45.203682,335.763794 44.893658,331.505737 
	C44.781532,329.965759 44.108627,328.466614 43.691616,326.948853 
	C41.930267,327.529724 40.165684,328.101044 38.408699,328.694855 
	C37.208652,329.100464 36.019241,329.537537 34.442780,329.887207 
z"/>
<path fill="#C6B28F" opacity="1.000000" stroke="none" 
	d="
M44.011795,70.776062 
	C43.680733,70.016380 43.349674,69.256699 42.978836,68.186417 
	C49.191463,65.074127 51.852455,70.775970 55.543068,73.624489 
	C54.163589,73.612610 53.085491,73.302567 51.669437,72.841339 
	C48.891586,72.052124 46.451691,71.414093 44.011795,70.776062 
z"/>
<path fill="#C6B28F" opacity="1.000000" stroke="none" 
	d="
M70.696167,81.632095 
	C67.695114,81.542839 64.700813,81.115028 61.041725,80.703156 
	C59.251072,80.465858 58.125191,80.212631 57.039570,79.629219 
	C57.407028,78.476830 57.734226,77.654633 58.061424,76.832436 
	C60.489918,77.515259 62.954422,78.093620 65.335289,78.914558 
	C67.178757,79.550194 68.917572,80.489319 70.696167,81.632095 
z"/>
<path fill="#D0B78B" opacity="1.000000" stroke="none" 
	d="
M57.938087,76.561172 
	C57.734226,77.654633 57.407028,78.476830 57.003342,79.938705 
	C56.580414,81.067024 56.233971,81.555672 55.658340,81.765717 
	C54.288570,78.655579 53.147984,75.824051 52.007393,72.992523 
	C53.085491,73.302567 54.163589,73.612610 55.577152,73.968552 
	C56.546661,74.772934 57.180710,75.531418 57.938087,76.561172 
z"/>
<path fill="#D1D1D0" opacity="1.000000" stroke="none" 
	d="
M18.513535,225.475739 
	C20.416973,225.676880 22.539351,226.187500 24.837353,226.985779 
	C22.919477,226.777359 20.825975,226.281281 18.513535,225.475739 
z"/>
<path fill="#D1D1D0" opacity="1.000000" stroke="none" 
	d="
M10.538464,194.572510 
	C10.296853,196.111389 9.792107,197.900269 9.000212,199.850739 
	C9.233817,198.282379 9.754572,196.552444 10.538464,194.572510 
z"/>
<path fill="#E0E0E0" opacity="1.000000" stroke="none" 
	d="
M12.854810,296.797119 
	C12.566556,297.320312 12.130868,297.635406 11.415262,297.958221 
	C11.090931,297.793945 11.046516,297.621948 11.016297,297.183899 
	C11.589453,296.808258 12.148414,296.698639 12.854810,296.797119 
z"/>
<path fill="#A79C8A" opacity="1.000000" stroke="none" 
	d="
M79.301544,156.823334 
	C79.034149,156.375458 78.999695,155.735168 79.185356,155.000275 
	C79.448479,155.480743 79.491478,156.055832 79.301544,156.823334 
z"/>
<path fill="#D1D1D0" opacity="1.000000" stroke="none" 
	d="
M16.768948,175.680756 
	C16.822159,175.960129 16.783588,175.994415 16.758720,176.001160 
	C16.607977,175.295013 16.482098,174.582108 16.446608,173.508026 
	C16.596575,173.898361 16.656155,174.649857 16.768948,175.680756 
z"/>
<path fill="#D1D1D0" opacity="1.000000" stroke="none" 
	d="
M15.937290,179.130737 
	C16.227354,179.277222 16.321651,179.502380 16.342827,179.734222 
	C16.348448,179.795731 16.129337,179.877777 15.853314,179.982269 
	C15.693216,180.014145 15.449926,179.606400 15.449926,179.606400 
	C15.449926,179.606400 15.714145,179.211899 15.937290,179.130737 
z"/>
<path fill="#D1D1D0" opacity="1.000000" stroke="none" 
	d="
M14.538691,182.518524 
	C14.597838,182.854095 14.403664,183.318359 13.971589,183.898590 
	C13.917583,183.558762 14.101475,183.102997 14.538691,182.518524 
z"/>
<path fill="#D1D1D0" opacity="1.000000" stroke="none" 
	d="
M8.570019,217.255753 
	C9.040410,217.342346 9.409561,217.701447 9.797586,218.331650 
	C9.367234,218.244598 8.918007,217.886429 8.570019,217.255753 
z"/>
<path fill="#D1D1D0" opacity="1.000000" stroke="none" 
	d="
M68.250259,228.917755 
	C68.226883,228.492203 68.491318,228.425415 68.896591,228.751831 
	C68.822044,228.928009 68.655602,228.971863 68.250259,228.917755 
z"/>
<path fill="#F8F8F8" opacity="1.000000" stroke="none" 
	d="
M27.936520,246.953247 
	C29.093752,246.296616 30.215776,245.162186 31.414885,245.073837 
	C34.875843,244.818787 38.372589,244.871201 41.846516,245.014801 
	C46.326214,245.199982 48.831902,248.398560 47.848789,252.701843 
	C47.191841,255.577408 46.248707,258.390594 45.370083,261.211914 
	C43.706490,266.553802 38.697880,266.425232 34.735348,266.802277 
	C28.985783,267.349243 23.380800,267.017761 18.138479,270.547333 
	C15.523190,272.308167 12.492462,270.559845 12.098148,266.969849 
	C11.832734,264.553406 12.298153,262.056641 13.033243,259.467773 
	C15.922113,259.661713 18.221476,260.277740 20.504591,260.222473 
	C22.760717,260.167877 24.990191,259.144012 27.249622,259.064545 
	C31.125494,258.928162 33.496021,257.379395 33.988834,253.391037 
	C34.555229,248.807190 32.037567,247.140182 27.936520,246.953247 
z"/>
<path fill="#F7F7F7" opacity="1.000000" stroke="none" 
	d="
M57.030357,251.039841 
	C62.520981,251.918472 68.131241,252.352264 73.471893,253.788513 
	C80.117981,255.575882 80.626068,258.345764 75.974060,263.540466 
	C75.420410,264.158722 74.871155,264.780884 73.840027,265.842255 
	C71.804436,267.126434 69.750496,267.593658 68.780571,268.878937 
	C64.923088,273.990570 60.246002,276.076721 53.775841,273.822083 
	C53.346882,273.118011 53.148499,272.587616 52.966541,271.631409 
	C53.605446,268.573914 54.390587,265.967102 54.797981,263.302521 
	C55.113350,261.239868 54.956059,259.104919 55.027214,256.638062 
	C55.707150,254.529266 56.368755,252.784561 57.030357,251.039841 
z"/>
<path fill="#F4F4F4" opacity="1.000000" stroke="none" 
	d="
M49.992607,299.993744 
	C49.992607,299.993744 49.496723,299.999725 48.969376,299.737946 
	C47.478531,299.312622 46.495880,299.221802 45.554672,298.973694 
	C39.708561,297.432800 33.459759,296.812775 29.198975,291.675201 
	C23.994766,285.400085 25.464249,279.985168 33.114220,277.099762 
	C34.187679,276.694916 35.053875,275.740570 36.346519,275.028931 
	C37.118076,275.010284 37.559120,275.003326 37.999290,275.331299 
	C37.998940,276.112885 37.999470,276.559479 37.948689,277.359375 
	C36.614731,280.376526 32.033092,281.855591 34.663399,285.915741 
	C37.815807,290.781769 42.081417,294.781708 48.053383,294.824493 
	C54.606873,294.871399 53.135288,287.840607 56.090515,284.504120 
	C54.914635,283.168060 53.958954,282.082184 53.384586,280.996216 
	C54.530243,280.981232 55.294582,280.966400 56.382782,280.955627 
	C57.138306,280.971893 57.569977,280.984131 58.048958,281.360657 
	C57.799927,283.879852 57.664303,286.072968 57.164040,288.179474 
	C56.615402,290.489716 55.730457,292.720154 54.837189,295.276001 
	C53.119083,297.042358 51.555843,298.518036 49.992607,299.993744 
z"/>
<path fill="#EEEEEE" opacity="1.000000" stroke="none" 
	d="
M36.016006,275.040558 
	C35.053875,275.740570 34.187679,276.694916 33.114220,277.099762 
	C25.464249,279.985168 23.994766,285.400085 29.198975,291.675201 
	C33.459759,296.812775 39.708561,297.432800 45.554672,298.973694 
	C46.495880,299.221802 47.478531,299.312622 48.721428,299.740295 
	C48.297573,300.685303 47.706921,301.585205 46.873802,302.013367 
	C37.703033,306.726349 18.827032,295.331696 19.253242,285.081757 
	C19.357597,282.572113 21.622858,280.152313 23.191277,277.061462 
	C26.326620,275.955719 29.165312,275.479706 32.004005,275.003662 
	C32.753559,275.003845 33.503117,275.003998 34.881050,275.007507 
	C35.678284,275.020782 35.847145,275.030670 36.016006,275.040558 
z"/>
<path fill="#F8F8F8" opacity="1.000000" stroke="none" 
	d="
M78.000137,281.992310 
	C86.471436,281.996368 88.128479,285.237183 84.323318,293.184143 
	C81.692039,298.679474 76.560287,299.355499 71.158882,300.678223 
	C66.851646,297.435822 70.589554,294.808655 71.246597,292.000702 
	C71.490364,291.992249 71.978180,291.985138 72.343185,291.978333 
	C73.137115,291.066315 73.566040,290.161102 73.994972,289.255859 
	C70.517685,288.365051 70.988754,285.588989 71.019150,283.023376 
	C72.434807,282.687256 73.850464,282.351166 75.966553,282.007294 
	C77.111374,281.997101 77.555756,281.994690 78.000137,281.992310 
z"/>
<path fill="#FEFEFE" opacity="1.000000" stroke="none" 
	d="
M27.540678,246.957581 
	C32.037567,247.140182 34.555229,248.807190 33.988834,253.391037 
	C33.496021,257.379395 31.125494,258.928162 27.249622,259.064545 
	C24.990191,259.144012 22.760717,260.167877 20.504591,260.222473 
	C18.221476,260.277740 15.922113,259.661713 13.302608,259.164734 
	C14.879421,252.804733 21.249903,247.397125 27.540678,246.957581 
z"/>
<path fill="#DCDCDC" opacity="1.000000" stroke="none" 
	d="
M36.346516,275.028931 
	C35.847145,275.030670 35.678284,275.020782 35.255817,275.004211 
	C35.957436,273.948547 36.742352,272.267487 37.896446,271.956482 
	C43.882881,270.343353 48.594543,268.219025 49.869133,260.902527 
	C50.608334,256.659302 53.925579,252.865173 56.240742,248.576126 
	C56.463406,249.104385 56.726357,249.728226 57.009834,250.695953 
	C56.368755,252.784561 55.707150,254.529266 54.756508,256.852478 
	C53.190598,260.445557 52.237457,263.657074 50.554150,266.424438 
	C48.492435,269.813965 49.749931,271.202972 52.950119,272.057251 
	C53.148499,272.587616 53.346882,273.118011 53.930576,274.124298 
	C56.878025,276.061371 59.440163,277.522552 62.002300,278.983704 
	C62.469189,279.875702 62.936085,280.767700 62.827522,281.824249 
	C60.835255,281.657990 59.418449,281.327179 58.001640,280.996368 
	C57.569977,280.984131 57.138306,280.971893 56.303135,280.630859 
	C46.264763,270.693787 46.264763,270.693787 38.000168,274.996338 
	C37.559120,275.003326 37.118076,275.010284 36.346516,275.028931 
z"/>
<path fill="#F4F4F4" opacity="1.000000" stroke="none" 
	d="
M76.000000,280.000824 
	C76.928970,277.082825 77.546280,273.996033 78.978867,271.350769 
	C79.402786,270.567993 82.924225,270.306244 83.622223,271.077118 
	C84.941071,272.533600 85.674538,274.889832 85.777199,276.916443 
	C85.825912,277.878265 84.018791,279.277679 82.765053,279.857880 
	C81.678329,280.360779 80.186111,279.987457 78.103088,280.000580 
	C76.888695,280.000092 76.444351,280.000458 76.000000,280.000824 
z"/>
<path fill="#F2F2F2" opacity="1.000000" stroke="none" 
	d="
M71.002831,292.009155 
	C70.589554,294.808655 66.851646,297.435822 70.784317,300.731873 
	C68.918350,301.643341 66.833351,302.272217 64.211456,302.642944 
	C59.837997,299.126709 65.235954,296.201904 64.404312,293.012421 
	C66.865456,292.660858 68.934143,292.335022 71.002831,292.009155 
z"/>
<path fill="#F0F0F0" opacity="1.000000" stroke="none" 
	d="
M62.210712,278.726959 
	C59.440163,277.522552 56.878025,276.061371 54.161148,274.297974 
	C60.246002,276.076721 64.923088,273.990570 68.780571,268.878937 
	C69.750496,267.593658 71.804436,267.126434 73.680099,266.141632 
	C74.126892,266.302704 74.318794,266.556152 74.653107,267.139282 
	C74.153770,268.012604 73.577057,268.506927 72.791115,268.847046 
	C71.400108,270.134460 70.218338,271.576141 69.028839,273.015442 
	C69.021111,273.013123 69.031960,273.036926 69.031967,273.036926 
	C66.827682,274.848022 64.623405,276.659119 62.210712,278.726959 
z"/>
<path fill="#EEEEEE" opacity="1.000000" stroke="none" 
	d="
M70.652725,283.023071 
	C70.988754,285.588989 70.517685,288.365051 73.994972,289.255859 
	C73.566040,290.161102 73.137115,291.066315 72.251907,291.614655 
	C69.094582,290.774780 66.393539,290.291809 63.524471,289.778809 
	C64.256592,288.109222 65.155533,286.059265 66.054474,284.009277 
	C67.465080,283.680450 68.875694,283.351624 70.652725,283.023071 
z"/>
<path fill="#EEEEEE" opacity="1.000000" stroke="none" 
	d="
M58.048954,281.360657 
	C59.418449,281.327179 60.835255,281.657990 62.618126,282.003204 
	C62.986500,282.456085 62.988808,282.894592 62.842941,283.984314 
	C62.112576,286.432831 61.530384,288.230103 60.757698,290.270996 
	C59.375221,291.671753 58.183235,292.828888 56.737289,294.103394 
	C55.986233,294.475616 55.489140,294.730469 54.992050,294.985352 
	C55.730457,292.720154 56.615402,290.489716 57.164040,288.179474 
	C57.664303,286.072968 57.799927,283.879852 58.048954,281.360657 
z"/>
<path fill="#EDEDED" opacity="1.000000" stroke="none" 
	d="
M64.011856,293.038147 
	C65.235954,296.201904 59.837997,299.126709 63.837280,302.692383 
	C61.503487,302.867645 59.006977,302.735260 55.848202,302.567780 
	C56.811760,300.271973 57.353733,298.980682 58.058449,297.085815 
	C58.494080,295.996185 58.766972,295.510040 59.380730,295.009338 
	C60.484009,294.351044 61.246414,293.707336 62.342468,293.051392 
	C63.121361,293.038849 63.566608,293.038483 64.011856,293.038147 
z"/>
<path fill="#DCDCDC" opacity="1.000000" stroke="none" 
	d="
M64.404312,293.012421 
	C63.566608,293.038483 63.121361,293.038849 62.331306,292.708740 
	C61.640400,291.594666 61.294296,290.811035 60.948193,290.027374 
	C61.530384,288.230103 62.112576,286.432831 62.842957,284.313385 
	C63.756336,283.992493 64.521523,283.993805 65.670593,284.002197 
	C65.155533,286.059265 64.256592,288.109222 63.524471,289.778809 
	C66.393539,290.291809 69.094582,290.774780 71.886902,291.621460 
	C71.978180,291.985138 71.490364,291.992249 71.246597,292.000732 
	C68.934143,292.335022 66.865456,292.660858 64.404312,293.012421 
z"/>
<path fill="#DCDCDC" opacity="1.000000" stroke="none" 
	d="
M31.903336,274.628204 
	C29.165312,275.479706 26.326620,275.955719 23.234276,276.708130 
	C20.563728,277.578705 18.146832,278.172882 14.837663,278.986420 
	C20.544886,273.369690 26.823263,271.833344 31.903336,274.628204 
z"/>
<path fill="#DCDCDC" opacity="1.000000" stroke="none" 
	d="
M59.039864,295.023926 
	C58.766972,295.510040 58.494080,295.996185 58.101578,296.734192 
	C55.467644,298.151581 52.953320,299.317108 50.215797,300.238190 
	C51.555843,298.518036 53.119083,297.042358 54.837181,295.276001 
	C55.489140,294.730469 55.986233,294.475616 57.037010,294.136292 
	C58.073753,294.375885 58.556808,294.699890 59.039864,295.023926 
z"/>
<path fill="#DCDCDC" opacity="1.000000" stroke="none" 
	d="
M73.000351,269.001282 
	C73.577057,268.506927 74.153770,268.012604 74.860985,267.260132 
	C75.726830,266.761810 76.462173,266.521576 77.197510,266.281342 
	C77.460754,266.602875 77.723999,266.924377 77.987244,267.245911 
	C76.552162,268.470459 75.117073,269.695007 73.340805,270.959808 
	C72.999634,271.000061 72.993797,270.995605 72.995148,270.663239 
	C72.997772,269.887665 72.999062,269.444489 73.000351,269.001282 
z"/>
<path fill="#DCDCDC" opacity="1.000000" stroke="none" 
	d="
M70.012283,275.011780 
	C69.267937,276.652863 68.523582,278.293945 67.779228,279.935028 
	C67.214676,279.576599 66.650124,279.218140 66.085571,278.859680 
	C67.191406,277.673218 68.297234,276.486786 69.701241,275.149963 
	C69.999420,274.999603 70.012283,275.011780 70.012283,275.011780 
z"/>
<path fill="#DCDCDC" opacity="1.000000" stroke="none" 
	d="
M69.991974,274.994202 
	C69.739014,274.503845 69.493492,274.018951 69.139969,273.285461 
	C69.031960,273.036926 69.021111,273.013123 69.347992,272.973572 
	C70.781181,272.287903 71.887489,271.641754 72.993797,270.995605 
	C72.993797,270.995605 72.999634,271.000061 73.003143,271.003296 
	C72.242348,272.306946 71.478058,273.607422 70.363022,274.959839 
	C70.012283,275.011780 69.999420,274.999603 69.991974,274.994202 
z"/>
<path fill="#DCDCDC" opacity="1.000000" stroke="none" 
	d="
M12.355139,279.509155 
	C12.824821,279.923920 13.041473,280.460754 13.258123,280.997559 
	C12.713042,281.087708 12.167964,281.177887 11.622887,281.268066 
	C11.782629,280.722473 11.942369,280.176819 12.355139,279.509155 
z"/>
<path fill="#E0E0E0" opacity="1.000000" stroke="none" 
	d="
M42.988251,309.018982 
	C43.271652,308.545624 43.566650,308.052032 43.861656,307.558472 
	C44.059032,307.726837 44.256409,307.895172 44.453789,308.063538 
	C44.138214,308.354034 43.822639,308.644531 43.233459,308.979492 
	C42.959854,309.023926 42.999847,308.998779 42.988251,309.018982 
z"/>
<path fill="#E5E5E5" opacity="1.000000" stroke="none" 
	d="
M76.000000,280.333496 
	C76.444351,280.000458 76.888695,280.000092 77.666557,280.001373 
	C78.000046,280.445221 78.000031,280.887451 78.000076,281.660950 
	C77.555756,281.994690 77.111374,281.997101 76.333466,281.997284 
	C75.999954,281.552094 75.999977,281.109100 76.000000,280.333496 
z"/>
<path fill="#F3E1B1" opacity="1.000000" stroke="none" 
	d="
M61.913689,94.942444 
	C61.926392,93.569244 61.939091,92.196053 62.191719,90.232834 
	C62.601803,89.080162 62.771957,88.517517 62.942108,87.954865 
	C63.131607,87.409477 63.321106,86.864090 64.107964,86.150772 
	C70.355461,87.084930 70.391243,92.213226 72.038895,96.192764 
	C72.987846,98.484726 73.980125,100.758736 74.952896,103.040825 
	C74.958267,103.475784 74.963631,103.910744 74.713120,104.949066 
	C74.347260,105.860420 74.142303,106.168007 74.141006,106.476456 
	C74.091331,118.280273 73.980225,130.084778 74.071014,141.887726 
	C74.102081,145.927948 74.645348,149.964249 74.954613,154.002335 
	C74.952827,154.435272 74.951042,154.868195 74.638824,155.694489 
	C74.209290,157.059067 74.090179,158.030273 73.971069,159.001480 
	C73.965820,159.435593 73.960571,159.869690 73.587631,160.743805 
	C71.832413,165.776779 71.235268,170.756821 66.646973,173.952362 
	C65.551361,173.664108 64.780876,173.364960 63.766254,172.797882 
	C62.332703,172.361053 61.143284,172.192154 59.542221,172.026993 
	C57.759956,172.019516 56.389343,172.008316 54.749752,171.724289 
	C53.402210,171.059326 52.299408,170.277435 51.249298,170.342758 
	C46.798019,170.619614 41.961765,168.027466 37.532875,171.990540 
	C34.761707,172.022064 32.429340,172.042114 29.858963,171.806671 
	C27.641031,169.516205 24.700865,167.813889 23.859257,165.384552 
	C21.218893,157.763016 18.370502,149.987167 17.421120,142.053482 
	C15.466625,125.720436 12.760869,108.947289 21.260296,93.534988 
	C24.155502,88.285027 27.846205,82.690536 35.040382,81.946785 
	C35.074818,83.724052 35.109253,85.501328 34.827145,87.867302 
	C33.664707,91.635880 32.818810,94.815742 31.949615,98.317322 
	C31.893213,99.067787 31.860109,99.496536 31.470364,100.070190 
	C29.691256,103.939941 28.670443,107.640526 31.806021,111.454498 
	C31.907778,112.542297 31.974642,113.267609 31.770449,114.255585 
	C32.601295,118.373528 33.703205,122.228813 34.836708,126.087051 
	C34.868305,126.090004 34.927364,126.066765 34.928875,126.387962 
	C34.955738,127.137680 34.981091,127.566208 35.000008,128.365753 
	C35.654076,129.831161 36.314579,130.925552 37.145859,132.251160 
	C37.834103,132.706345 38.351574,132.930283 38.888115,133.506485 
	C38.969818,134.561417 39.032459,135.264114 38.849205,136.160675 
	C39.394466,137.577728 40.185627,138.800888 41.149086,140.256317 
	C41.844723,140.701645 42.368065,140.914719 43.128670,141.323486 
	C44.239990,142.682739 45.114048,143.846298 46.083878,145.269821 
	C46.437340,146.018829 46.695034,146.507874 46.806480,147.237274 
	C49.949310,149.501968 53.256134,148.550049 55.679596,144.401367 
	C57.849319,140.687057 60.197918,136.892014 61.351833,132.816666 
	C62.777592,127.781227 63.691265,122.416634 63.668507,117.199318 
	C63.636127,109.777954 62.549759,102.361176 61.913689,94.942444 
z"/>
<path fill="#F2DFAF" opacity="1.000000" stroke="none" 
	d="
M51.669437,72.841339 
	C53.147984,75.824051 54.288570,78.655579 55.668678,82.190346 
	C55.822269,84.874084 55.736340,86.854576 55.307495,88.899124 
	C50.586403,91.777306 49.599602,96.566612 52.064369,103.426712 
	C52.059212,105.570534 52.062462,107.285744 51.787346,109.276443 
	C51.341045,110.516251 51.095539,111.474335 51.017715,112.445869 
	C50.494373,118.978661 47.251991,120.799660 41.337559,117.870682 
	C40.606419,117.508598 39.823902,117.250259 38.940468,116.736153 
	C38.600784,116.275253 38.335575,116.096710 38.005989,115.580170 
	C37.942989,113.794395 37.894115,112.421249 37.845238,111.048103 
	C38.784184,103.825394 39.906830,96.619904 40.586361,89.372864 
	C40.938210,85.620522 40.964138,81.710571 40.290649,78.026604 
	C39.676937,74.669594 40.224556,72.516434 43.691956,70.975838 
	C46.451691,71.414093 48.891586,72.052124 51.669437,72.841339 
z"/>
<path fill="#BDA177" opacity="1.000000" stroke="none" 
	d="
M37.480652,110.910370 
	C37.894115,112.421249 37.942989,113.794395 37.752060,115.819000 
	C39.012489,121.309326 40.512726,126.148201 42.054306,131.335022 
	C43.883591,134.102997 45.171120,138.510193 49.078323,135.828461 
	C51.182911,134.383987 51.730457,130.670929 52.983524,127.585228 
	C53.651066,124.794197 54.315605,122.399368 55.215359,119.810753 
	C55.302368,118.743858 55.154160,117.870743 55.066956,116.588531 
	C55.413837,113.771576 55.877911,111.368866 55.947544,108.954773 
	C56.081673,104.304764 55.992710,99.648308 56.250351,95.108109 
	C56.994377,95.483742 57.484318,95.745789 57.974258,96.007843 
	C58.323002,102.606804 58.520439,109.218056 59.054790,115.801949 
	C59.927940,126.560349 56.773952,135.977631 50.082905,144.692963 
	C50.038200,145.042892 50.038376,145.060623 49.633141,145.044556 
	C48.147972,145.022293 47.068043,145.016083 45.988110,145.009872 
	C45.114048,143.846298 44.239990,142.682739 43.130905,140.991943 
	C42.273670,139.636200 41.651463,138.807648 40.962738,137.675812 
	C40.295845,136.903946 39.695473,136.435364 39.095100,135.966797 
	C39.032459,135.264114 38.969818,134.561417 38.904152,133.189545 
	C38.579582,132.013168 38.258045,131.506012 37.902985,130.711243 
	C37.556541,129.959396 37.243622,129.495132 36.938576,128.678741 
	C36.273415,127.573326 35.600391,126.820045 34.927368,126.066765 
	C34.927364,126.066765 34.868305,126.090004 34.891006,125.687225 
	C33.956306,121.520607 32.998905,117.756760 32.041508,113.992920 
	C31.974642,113.267609 31.907778,112.542297 31.876255,110.991180 
	C31.883400,106.752007 31.855204,103.338654 31.827007,99.925293 
	C31.860109,99.496536 31.893213,99.067787 32.220398,98.122147 
	C33.334568,96.058777 34.154655,94.512276 34.974747,92.965782 
	C35.390305,93.942009 36.091225,94.894936 36.173176,95.898415 
	C36.577488,100.849136 36.817856,105.813255 37.480652,110.910370 
z"/>
<path fill="#E1CA99" opacity="1.000000" stroke="none" 
	d="
M34.942734,81.598450 
	C27.846205,82.690536 24.155502,88.285027 21.260296,93.534988 
	C12.760869,108.947289 15.466625,125.720436 17.421120,142.053482 
	C18.370502,149.987167 21.218893,157.763016 23.859257,165.384552 
	C24.700865,167.813889 27.641031,169.516205 29.650194,172.042267 
	C28.757381,173.051559 27.835327,173.569748 26.559734,174.078217 
	C25.501406,174.071350 24.796612,174.074203 24.091816,174.077072 
	C24.368586,173.509857 24.645353,172.942657 24.922123,172.375443 
	C20.376236,171.938202 21.266382,168.194351 20.587267,165.345108 
	C18.244726,155.516922 15.068880,145.812805 13.661185,135.856308 
	C12.095008,124.778877 10.701797,113.403206 14.002502,102.327049 
	C16.492250,93.972229 20.436390,86.296349 28.246193,81.638428 
	C29.925619,80.636780 32.618851,81.334953 34.942734,81.598450 
z"/>
<path fill="#E2E2E2" opacity="1.000000" stroke="none" 
	d="
M65.000305,221.000000 
	C62.610146,220.669449 60.219986,220.338913 57.235550,219.778259 
	C56.101841,219.358246 55.562405,219.168350 55.022964,218.978470 
	C54.220825,218.277237 53.418682,217.576019 53.626137,217.757370 
	C50.964039,219.293594 49.039669,220.192673 47.349346,221.415329 
	C39.079140,227.397339 30.557762,223.399551 22.205164,221.950485 
	C16.289267,220.924164 12.301723,215.444687 11.983743,209.446579 
	C11.506798,200.449905 14.891797,192.385834 17.843109,184.197998 
	C18.681927,181.870865 19.311441,179.468277 20.061289,176.741821 
	C21.159609,175.926727 22.233576,175.470093 23.654232,175.394379 
	C23.757179,176.553589 23.624802,177.390106 23.252857,178.101349 
	C18.306931,187.559326 15.262518,197.472641 14.897958,208.262955 
	C14.713594,213.719772 16.481976,217.413605 21.736084,218.813873 
	C29.106722,220.778244 36.939976,225.134628 42.892796,215.934631 
	C43.248455,215.384964 44.334103,215.127411 45.108852,215.058716 
	C49.737644,214.648285 54.374889,214.333267 59.293518,214.137146 
	C61.049812,215.528595 62.521889,216.769089 64.123451,218.301025 
	C64.502060,219.394958 64.751183,220.197479 65.000305,221.000000 
z"/>
<path fill="#EDEDED" opacity="1.000000" stroke="none" 
	d="
M59.009300,213.986221 
	C54.374889,214.333267 49.737644,214.648285 45.108852,215.058716 
	C44.334103,215.127411 43.248455,215.384964 42.892796,215.934631 
	C36.939976,225.134628 29.106722,220.778244 21.736084,218.813873 
	C16.481976,217.413605 14.713594,213.719772 14.897958,208.262955 
	C15.262518,197.472641 18.306931,187.559326 23.252857,178.101349 
	C23.624802,177.390106 23.757179,176.553589 24.010361,175.407639 
	C24.019802,175.039978 24.047373,174.557419 24.069595,174.317245 
	C24.796612,174.074203 25.501406,174.071350 26.584972,174.348816 
	C26.975695,174.810425 26.987642,174.991730 26.995266,175.536926 
	C22.590780,183.691925 20.607037,192.155304 19.766888,201.298645 
	C15.903028,207.689026 17.899437,213.229263 24.245754,214.264862 
	C33.830059,218.824875 40.230816,217.412109 45.405846,209.939255 
	C49.206615,209.586487 52.601692,209.294479 56.250229,209.202377 
	C57.338898,210.930267 58.174099,212.458237 59.009300,213.986221 
z"/>
<path fill="#E1CA99" opacity="1.000000" stroke="none" 
	d="
M35.117897,92.652435 
	C34.154655,94.512276 33.334568,96.058777 32.243698,97.800446 
	C32.818810,94.815742 33.664707,91.635880 34.779049,88.227982 
	C35.118679,89.446327 35.189861,90.892700 35.117897,92.652435 
z"/>
<path fill="#E2CB9B" opacity="1.000000" stroke="none" 
	d="
M61.540894,95.072067 
	C62.549759,102.361176 63.636127,109.777954 63.668507,117.199318 
	C63.691265,122.416634 62.777592,127.781227 61.351833,132.816666 
	C60.197918,136.892014 57.849319,140.687057 55.679596,144.401367 
	C53.256134,148.550049 49.949310,149.501968 47.157124,147.224823 
	C48.448803,146.334900 49.243587,145.697769 50.038376,145.060623 
	C50.038376,145.060623 50.038200,145.042892 50.050884,145.042328 
	C56.888920,142.015686 58.407871,135.160522 59.638908,129.245850 
	C61.121830,122.120987 60.300781,114.522743 60.546501,107.131744 
	C60.678795,103.152565 60.956177,99.178215 61.540894,95.072067 
z"/>
<path fill="#E2CB9B" opacity="1.000000" stroke="none" 
	d="
M75.240723,153.700577 
	C74.645348,149.964249 74.102081,145.927948 74.071014,141.887726 
	C73.980225,130.084778 74.091331,118.280273 74.141006,106.476456 
	C74.142303,106.168007 74.347260,105.860420 74.718079,105.275284 
	C75.645439,107.160378 76.923897,109.335350 76.879250,111.482811 
	C76.588654,125.458145 76.010727,139.427505 75.240723,153.700577 
z"/>
<path fill="#C6AA7C" opacity="1.000000" stroke="none" 
	d="
M57.982704,95.566101 
	C57.484318,95.745789 56.994377,95.483742 56.125336,94.898033 
	C55.538563,94.311813 55.278732,94.119843 54.981537,93.623352 
	C55.214363,91.777191 55.432388,90.306137 55.650414,88.835075 
	C55.736340,86.854576 55.822269,84.874084 55.897865,82.468948 
	C56.233971,81.555672 56.580414,81.067024 56.963081,80.268890 
	C58.125191,80.212631 59.251072,80.465858 60.699635,80.857765 
	C60.011929,85.705750 59.001537,90.415062 57.982704,95.566101 
z"/>
<path fill="#E2CB9B" opacity="1.000000" stroke="none" 
	d="
M66.972099,173.941483 
	C71.235268,170.756821 71.832413,165.776779 73.582909,161.069366 
	C73.377357,165.447754 72.808830,169.940598 72.052635,174.793243 
	C71.044060,175.248932 70.223160,175.344803 68.883209,175.666382 
	C67.973457,175.864395 67.582748,175.836716 67.149155,175.500687 
	C67.061554,174.775391 67.016823,174.358429 66.972099,173.941483 
z"/>
<path fill="#E2CB9B" opacity="1.000000" stroke="none" 
	d="
M74.973869,102.618149 
	C73.980125,100.758736 72.987846,98.484726 72.038895,96.192764 
	C70.391243,92.213226 70.355461,87.084930 64.328827,85.958359 
	C66.718437,81.853630 69.207924,84.879890 70.102676,86.954994 
	C72.205437,91.831612 73.420532,97.090988 74.973869,102.618149 
z"/>
<path fill="#E2CB9B" opacity="1.000000" stroke="none" 
	d="
M74.226883,158.782166 
	C74.090179,158.030273 74.209290,157.059067 74.635422,156.019165 
	C74.789192,156.821274 74.635948,157.692062 74.226883,158.782166 
z"/>
<path fill="#E2CB9B" opacity="1.000000" stroke="none" 
	d="
M62.667229,88.003029 
	C62.771957,88.517517 62.601803,89.080162 62.187874,89.820801 
	C62.093513,89.349586 62.242928,88.700386 62.667229,88.003029 
z"/>
<path fill="#CCCCCC" opacity="1.000000" stroke="none" 
	d="
M63.830166,225.695679 
	C62.219757,225.707153 60.441803,225.415970 58.334641,225.062042 
	C58.005428,224.999329 58.001919,224.499969 58.000847,223.998306 
	C57.999954,223.328659 58.000137,223.160660 58.000320,222.992676 
	C59.887753,223.792786 61.775185,224.592896 63.830166,225.695679 
z"/>
<path fill="#D1D1D0" opacity="1.000000" stroke="none" 
	d="
M57.968155,222.676666 
	C58.000137,223.160660 57.999954,223.328659 57.999413,223.748627 
	C56.857647,222.459763 55.716244,220.918930 54.798904,219.178284 
	C55.562405,219.168350 56.101841,219.358246 56.820259,219.778534 
	C57.311493,220.792847 57.623741,221.576736 57.968155,222.676666 
z"/>
<path fill="#F8F8F8" opacity="1.000000" stroke="none" 
	d="
M67.192032,175.809036 
	C67.582748,175.836716 67.973457,175.864395 68.656914,175.887970 
	C68.943901,176.071182 68.938156,176.258499 68.621948,176.780579 
	C68.039162,177.624847 67.405861,178.290894 67.548729,178.620346 
	C69.643372,183.450684 72.359573,188.077194 73.891335,193.070206 
	C76.088539,200.232391 79.668228,207.360046 76.965866,215.254547 
	C75.871841,218.450562 74.155296,220.372360 70.320999,219.101700 
	C68.311981,218.435913 66.109222,218.354767 63.993961,218.009598 
	C62.521889,216.769089 61.049812,215.528595 59.293518,214.137146 
	C58.174099,212.458237 57.338898,210.930267 56.086941,208.893616 
	C50.921501,203.343002 47.786644,203.817520 45.000153,210.000000 
	C40.230816,217.412109 33.830059,218.824875 24.490635,214.032562 
	C26.980711,213.018372 30.845644,213.239838 31.627031,211.794388 
	C32.663277,209.877502 32.216434,205.249161 30.760689,204.293411 
	C27.752748,202.318604 23.655998,202.002213 20.007103,201.003662 
	C20.607037,192.155304 22.590780,183.691925 27.409405,175.484650 
	C29.216524,175.035568 30.605186,175.002686 32.198883,175.210266 
	C33.277424,174.987259 34.150928,174.523773 35.360588,174.042633 
	C36.476635,173.677368 37.256527,173.329773 38.431389,172.988251 
	C39.878544,173.030350 40.930737,173.066376 42.091694,173.458984 
	C44.804802,173.867142 47.409138,173.918701 50.448517,173.971146 
	C52.912846,174.004120 54.942131,174.036209 57.019447,174.343445 
	C57.714493,174.731232 58.361515,174.843872 59.404396,174.964508 
	C60.855335,175.010498 61.910412,175.048492 63.015465,175.358887 
	C63.711910,175.746002 64.358376,175.860733 65.370018,175.972076 
	C66.220802,175.915466 66.706421,175.862244 67.192032,175.809036 
z"/>
<path fill="#EDEDED" opacity="1.000000" stroke="none" 
	d="
M64.123451,218.301025 
	C66.109222,218.354767 68.311981,218.435913 70.320999,219.101700 
	C74.155296,220.372360 75.871841,218.450562 76.965866,215.254547 
	C79.668228,207.360046 76.088539,200.232391 73.891335,193.070206 
	C72.359573,188.077194 69.643372,183.450684 67.548729,178.620346 
	C67.405861,178.290894 68.039162,177.624847 68.615860,177.061646 
	C69.922363,177.768356 70.924484,178.528763 72.014687,179.999268 
	C73.407158,183.137558 74.711540,185.565735 76.015915,187.993927 
	C76.015915,187.993927 76.027794,188.478256 76.018684,189.116272 
	C76.346657,191.007217 76.492958,192.353516 77.052742,193.497482 
	C80.008163,199.537079 81.659958,205.812775 80.979568,212.592789 
	C80.305885,219.306046 75.349968,222.837387 68.959114,221.194107 
	C68.013603,220.950989 66.976295,221.064819 65.981461,221.013504 
	C65.981461,221.013504 65.490822,221.010773 65.245560,221.005386 
	C64.751183,220.197479 64.502060,219.394958 64.123451,218.301025 
z"/>
<path fill="#E7E7E7" opacity="1.000000" stroke="none" 
	d="
M66.159439,221.320343 
	C66.976295,221.064819 68.013603,220.950989 68.959114,221.194107 
	C75.349968,222.837387 80.305885,219.306046 80.979568,212.592789 
	C81.659958,205.812775 80.008163,199.537079 77.052742,193.497482 
	C76.492958,192.353516 76.346657,191.007217 76.017731,189.358505 
	C77.089378,190.116135 78.739166,191.105042 79.116814,192.450912 
	C80.935760,198.933289 82.793251,205.448563 83.893105,212.075653 
	C84.835854,217.756119 80.246803,221.351883 76.585762,224.255890 
	C73.187904,226.951157 69.541344,223.559570 66.159439,221.320343 
z"/>
<path fill="#E7E7E7" opacity="1.000000" stroke="none" 
	d="
M76.016418,187.606339 
	C74.711540,185.565735 73.407158,183.137558 72.063095,180.336670 
	C73.354576,182.382217 74.685745,184.800476 76.016418,187.606339 
z"/>
<path fill="#DBBC84" opacity="1.000000" stroke="none" 
	d="
M30.396919,323.022736 
	C29.174864,322.443420 28.354048,321.856995 27.217590,320.775635 
	C26.945147,318.193329 26.988346,316.105957 27.031544,314.018616 
	C34.032925,314.689301 41.034306,315.360016 48.625332,316.291138 
	C49.479374,317.031494 49.743767,317.511383 49.755577,318.237335 
	C49.502392,319.564728 49.207539,320.751556 49.550835,321.709686 
	C51.271500,326.512054 53.159225,331.254578 54.988235,336.018127 
	C53.394409,333.732788 51.243607,331.650238 50.322319,329.120026 
	C48.384804,323.798828 46.846474,322.629791 41.285610,323.066254 
	C37.812511,323.338837 34.295475,323.051605 30.396919,323.022736 
z"/>
<path fill="#DBBB84" opacity="1.000000" stroke="none" 
	d="
M63.530228,315.990540 
	C68.696442,317.944458 71.145180,321.111755 68.921463,326.652954 
	C65.801254,322.423492 62.216354,319.812805 56.894344,319.843994 
	C56.266735,319.847687 55.632042,318.642395 55.309105,317.945129 
	C56.095074,317.286682 56.572571,316.680695 57.050072,316.074707 
	C59.066582,316.045319 61.083088,316.015961 63.530228,315.990540 
z"/>
<path fill="#CDB182" opacity="1.000000" stroke="none" 
	d="
M26.736633,313.872681 
	C26.988346,316.105957 26.945147,318.193329 26.945938,320.641052 
	C22.061771,319.719208 21.983463,315.799164 22.001431,311.410217 
	C23.482330,311.904297 24.962027,312.815521 26.736633,313.872681 
z"/>
<path fill="#CDB182" opacity="1.000000" stroke="none" 
	d="
M56.600636,316.044586 
	C56.572571,316.680695 56.095074,317.286682 54.892883,317.944275 
	C52.781513,317.994354 51.394840,317.992828 50.008163,317.991302 
	C49.743767,317.511383 49.479374,317.031494 49.088123,316.309326 
	C51.357914,316.049561 53.754559,316.032013 56.600636,316.044586 
z"/>
<path fill="#E0C087" opacity="1.000000" stroke="none" 
	d="
M49.755577,318.237335 
	C51.394840,317.992828 52.781513,317.994354 54.584412,317.996704 
	C55.632042,318.642395 56.266735,319.847687 56.894344,319.843994 
	C62.216354,319.812805 65.801254,322.423492 68.658035,326.930206 
	C68.505081,329.489288 68.013206,331.978607 66.949448,334.787781 
	C65.919571,335.740814 65.461571,336.373932 65.003571,337.007050 
	C60.559002,341.043396 58.692127,340.990479 55.043941,336.372284 
	C53.159225,331.254578 51.271500,326.512054 49.550835,321.709686 
	C49.207539,320.751556 49.502392,319.564728 49.755577,318.237335 
z"/>
<path fill="#DBBB84" opacity="1.000000" stroke="none" 
	d="
M65.316452,336.952881 
	C65.461571,336.373932 65.919571,335.740814 66.691803,335.055664 
	C66.547134,335.635345 66.088234,336.266998 65.316452,336.952881 
z"/>
<path fill="#EEEEEE" opacity="1.000000" stroke="none" 
	d="
M52.966537,271.631409 
	C49.749931,271.202972 48.492435,269.813965 50.554150,266.424438 
	C52.237457,263.657074 53.190598,260.445557 54.738174,257.216553 
	C54.956059,259.104919 55.113350,261.239868 54.797981,263.302521 
	C54.390587,265.967102 53.605446,268.573914 52.966537,271.631409 
z"/>
<path fill="#FAFAFA" opacity="1.000000" stroke="none" 
	d="
M53.003273,280.996338 
	C53.958954,282.082184 54.914635,283.168060 56.090515,284.504120 
	C53.135288,287.840607 54.606873,294.871399 48.053383,294.824493 
	C42.081417,294.781708 37.815807,290.781769 34.663399,285.915741 
	C32.033092,281.855591 36.614731,280.376526 38.323723,277.358398 
	C39.500130,277.004028 40.250195,277.003906 41.181774,277.208252 
	C41.911736,276.946289 42.460186,276.479858 43.379761,276.011963 
	C45.165047,276.343597 46.579205,276.676636 48.045895,277.360199 
	C49.396805,278.475708 50.695187,279.240631 52.203590,280.124420 
	C52.676971,280.441986 52.873520,280.692993 53.003273,280.996338 
z"/>
<path fill="#EEEEEE" opacity="1.000000" stroke="none" 
	d="
M41.000256,277.003784 
	C40.250195,277.003906 39.500130,277.004028 38.375031,277.005127 
	C37.999470,276.559479 37.998940,276.112885 37.999290,275.331299 
	C46.264763,270.693787 46.264763,270.693787 55.979279,280.626801 
	C55.294582,280.966400 54.530243,280.981232 53.384583,280.996216 
	C52.873520,280.692993 52.676971,280.441986 52.053684,279.832001 
	C50.460289,278.617035 49.226826,277.813354 47.993362,277.009644 
	C46.579205,276.676636 45.165047,276.343597 43.085350,276.036987 
	C41.946629,276.376831 41.473442,276.690308 41.000256,277.003784 
z"/>
<path fill="#E4E4E4" opacity="1.000000" stroke="none" 
	d="
M72.995148,270.663239 
	C71.887489,271.641754 70.781181,272.287903 69.355721,272.975922 
	C70.218338,271.576141 71.400108,270.134460 72.791122,268.847046 
	C72.999062,269.444489 72.997772,269.887665 72.995148,270.663239 
z"/>
<path fill="#E4E4E4" opacity="1.000000" stroke="none" 
	d="
M59.380733,295.009338 
	C58.556808,294.699890 58.073753,294.375885 57.290974,294.018921 
	C58.183235,292.828888 59.375221,291.671753 60.757698,290.270996 
	C61.294296,290.811035 61.640400,291.594666 61.997665,292.720978 
	C61.246414,293.707336 60.484009,294.351044 59.380733,295.009338 
z"/>
<path fill="#DFCBA3" opacity="1.000000" stroke="none" 
	d="
M41.982925,173.102402 
	C40.930737,173.066376 39.878544,173.030350 38.421089,172.737152 
	C38.001114,172.313004 37.986397,172.146042 37.971680,171.979065 
	C41.961765,168.027466 46.798019,170.619614 51.249298,170.342758 
	C52.299408,170.277435 53.402210,171.059326 54.316765,171.732010 
	C52.716358,172.089172 51.279961,172.165817 49.431564,172.200287 
	C46.674019,172.472870 44.328472,172.787628 41.982925,173.102402 
z"/>
<path fill="#D5D4D2" opacity="1.000000" stroke="none" 
	d="
M49.843559,172.242447 
	C51.279961,172.165817 52.716358,172.089172 54.585747,172.004822 
	C56.389343,172.008316 57.759956,172.019516 59.796177,172.282410 
	C61.644653,172.711334 62.827522,172.888580 64.010391,173.065811 
	C64.780876,173.364960 65.551361,173.664108 66.646973,173.952362 
	C67.016823,174.358429 67.061554,174.775391 67.149155,175.500687 
	C66.706421,175.862244 66.220802,175.915466 65.184738,175.743683 
	C64.078018,175.374649 63.521755,175.230576 62.965492,175.086502 
	C61.910412,175.048492 60.855335,175.010498 59.217144,174.739807 
	C58.079826,174.360870 57.525623,174.214584 56.971420,174.068298 
	C54.942131,174.036209 52.912846,174.004120 50.436020,173.680786 
	C49.940170,173.007187 49.891865,172.624817 49.843559,172.242447 
z"/>
<path fill="#D5D4D2" opacity="1.000000" stroke="none" 
	d="
M37.532875,171.990540 
	C37.986397,172.146042 38.001114,172.313004 38.026123,172.731079 
	C37.256527,173.329773 36.476635,173.677368 35.024532,174.023224 
	C33.566162,174.337601 32.780006,174.653687 31.993847,174.969788 
	C30.605186,175.002686 29.216524,175.035568 27.413727,175.120743 
	C26.987642,174.991730 26.975695,174.810425 26.938509,174.358551 
	C27.835327,173.569748 28.757381,173.051559 29.888203,172.297760 
	C32.429340,172.042114 34.761707,172.022064 37.532875,171.990540 
z"/>
<path fill="#E2CB9B" opacity="1.000000" stroke="none" 
	d="
M31.770449,114.255585 
	C32.998905,117.756760 33.956306,121.520607 34.859409,125.684273 
	C33.703205,122.228813 32.601295,118.373528 31.770449,114.255585 
z"/>
<path fill="#E1CA99" opacity="1.000000" stroke="none" 
	d="
M31.470364,100.070190 
	C31.855204,103.338654 31.883400,106.752007 31.841362,110.628685 
	C28.670443,107.640526 29.691256,103.939941 31.470364,100.070190 
z"/>
<path fill="#E2CB9B" opacity="1.000000" stroke="none" 
	d="
M38.849205,136.160675 
	C39.695473,136.435364 40.295845,136.903946 40.953423,138.016693 
	C40.999344,139.115280 40.988064,139.569656 40.976788,140.024048 
	C40.185627,138.800888 39.394466,137.577728 38.849205,136.160675 
z"/>
<path fill="#E2CB9B" opacity="1.000000" stroke="none" 
	d="
M36.930702,129.030869 
	C37.243622,129.495132 37.556541,129.959396 37.703621,130.840073 
	C37.296341,131.471237 37.108772,131.725723 36.975086,132.019928 
	C36.314579,130.925552 35.654076,129.831161 35.251152,128.475525 
	C35.982719,128.486450 36.456711,128.758667 36.930702,129.030869 
z"/>
<path fill="#D0B78B" opacity="1.000000" stroke="none" 
	d="
M49.633141,145.044556 
	C49.243587,145.697769 48.448803,146.334900 47.303371,146.984497 
	C46.695034,146.507874 46.437340,146.018829 46.083878,145.269821 
	C47.068043,145.016083 48.147972,145.022293 49.633141,145.044556 
z"/>
<path fill="#D0B78B" opacity="1.000000" stroke="none" 
	d="
M41.149086,140.256317 
	C40.988064,139.569656 40.999344,139.115280 41.019943,138.320007 
	C41.651463,138.807648 42.273670,139.636200 42.893646,140.796265 
	C42.368065,140.914719 41.844723,140.701645 41.149086,140.256317 
z"/>
<path fill="#D0B78B" opacity="1.000000" stroke="none" 
	d="
M36.938572,128.678741 
	C36.456711,128.758667 35.982719,128.486450 35.257591,128.104492 
	C34.981091,127.566208 34.955738,127.137680 34.928879,126.387962 
	C35.600391,126.820045 36.273415,127.573326 36.938572,128.678741 
z"/>
<path fill="#D0B78B" opacity="1.000000" stroke="none" 
	d="
M37.145859,132.251160 
	C37.108772,131.725723 37.296341,131.471237 37.737148,131.127655 
	C38.258045,131.506012 38.579582,132.013168 38.885086,132.837280 
	C38.351574,132.930283 37.834103,132.706345 37.145859,132.251160 
z"/>
<path fill="#E2CB9B" opacity="1.000000" stroke="none" 
	d="
M63.766254,172.797882 
	C62.827522,172.888580 61.644653,172.711334 60.207825,172.278687 
	C61.143284,172.192154 62.332703,172.361053 63.766254,172.797882 
z"/>
<path fill="#CDB487" opacity="1.000000" stroke="none" 
	d="
M54.966743,93.998459 
	C55.278732,94.119843 55.538563,94.311813 55.871250,94.784454 
	C55.992710,99.648308 56.081673,104.304764 55.947544,108.954773 
	C55.877911,111.368866 55.413837,113.771576 54.834362,116.783272 
	C54.687225,118.259590 54.833683,119.132057 54.980141,120.004532 
	C54.315605,122.399368 53.651066,124.794197 52.651619,127.654625 
	C49.503426,131.308823 46.710297,134.569901 42.012966,130.987076 
	C40.512726,126.148201 39.012489,121.309326 37.766182,116.231628 
	C38.335575,116.096710 38.600784,116.275253 38.960037,117.104996 
	C40.249928,119.805992 41.128445,122.141113 42.600853,124.007774 
	C45.094543,127.169174 48.617599,126.579384 49.728577,123.415154 
	C51.315887,118.894211 51.361618,113.832001 52.065712,109.000954 
	C52.062462,107.285744 52.059212,105.570534 52.315796,103.135902 
	C53.372669,99.610474 54.169708,96.804466 54.966743,93.998459 
z"/>
<path fill="#E1C999" opacity="1.000000" stroke="none" 
	d="
M51.787342,109.276443 
	C51.361618,113.832001 51.315887,118.894211 49.728577,123.415154 
	C48.617599,126.579384 45.094543,127.169174 42.600853,124.007774 
	C41.128445,122.141113 40.249928,119.805992 39.084763,117.312698 
	C39.823902,117.250259 40.606419,117.508598 41.337559,117.870682 
	C47.251991,120.799660 50.494373,118.978661 51.017715,112.445869 
	C51.095539,111.474335 51.341045,110.516251 51.787342,109.276443 
z"/>
<path fill="#E1C999" opacity="1.000000" stroke="none" 
	d="
M54.981541,93.623352 
	C54.169708,96.804466 53.372669,99.610474 52.324207,102.707291 
	C49.599602,96.566612 50.586403,91.777306 55.307495,88.899124 
	C55.432388,90.306137 55.214363,91.777191 54.981541,93.623352 
z"/>
<path fill="#C6AA7C" opacity="1.000000" stroke="none" 
	d="
M42.054306,131.335022 
	C46.710297,134.569901 49.503426,131.308823 52.648621,128.050827 
	C51.730457,130.670929 51.182911,134.383987 49.078323,135.828461 
	C45.171120,138.510193 43.883591,134.102997 42.054306,131.335022 
z"/>
<path fill="#C6AA7C" opacity="1.000000" stroke="none" 
	d="
M55.215359,119.810753 
	C54.833683,119.132057 54.687225,118.259590 54.773361,117.192368 
	C55.154160,117.870743 55.302368,118.743858 55.215359,119.810753 
z"/>
<path fill="#FEFEFE" opacity="1.000000" stroke="none" 
	d="
M19.766886,201.298660 
	C23.655998,202.002213 27.752748,202.318604 30.760689,204.293411 
	C32.216434,205.249161 32.663277,209.877502 31.627031,211.794388 
	C30.845644,213.239838 26.980711,213.018372 24.243393,213.771164 
	C17.899437,213.229263 15.903028,207.689026 19.766886,201.298660 
z"/>
<path fill="#F1F1F1" opacity="1.000000" stroke="none" 
	d="
M45.405846,209.939255 
	C47.786644,203.817520 50.921501,203.343002 55.833473,208.693695 
	C52.601692,209.294479 49.206615,209.586487 45.405846,209.939255 
z"/>
<path fill="#EDEDED" opacity="1.000000" stroke="none" 
	d="
M49.431564,172.200287 
	C49.891865,172.624817 49.940170,173.007187 50.000977,173.679901 
	C47.409138,173.918701 44.804802,173.867142 42.091694,173.458984 
	C44.328472,172.787628 46.674019,172.472870 49.431564,172.200287 
z"/>
<path fill="#EDEDED" opacity="1.000000" stroke="none" 
	d="
M32.198883,175.210266 
	C32.780006,174.653687 33.566162,174.337601 34.688377,174.040894 
	C34.150928,174.523773 33.277424,174.987259 32.198883,175.210266 
z"/>
<path fill="#EDEDED" opacity="1.000000" stroke="none" 
	d="
M57.019447,174.343445 
	C57.525623,174.214584 58.079826,174.360870 58.821285,174.731827 
	C58.361515,174.843872 57.714493,174.731232 57.019447,174.343445 
z"/>
<path fill="#EDEDED" opacity="1.000000" stroke="none" 
	d="
M63.015465,175.358887 
	C63.521755,175.230576 64.078018,175.374649 64.819565,175.747101 
	C64.358376,175.860733 63.711910,175.746002 63.015465,175.358887 
z"/>
<path fill="#F4F4F4" opacity="1.000000" stroke="none" 
	d="
M48.045895,277.360199 
	C49.226826,277.813354 50.460289,278.617035 51.843658,279.713165 
	C50.695187,279.240631 49.396805,278.475708 48.045895,277.360199 
z"/>
<path fill="#F4F4F4" opacity="1.000000" stroke="none" 
	d="
M41.181770,277.208252 
	C41.473442,276.690308 41.946629,276.376831 42.714226,276.038391 
	C42.460186,276.479858 41.911736,276.946289 41.181770,277.208252 
z"/>
</svg>